<?xml version="1.0" encoding="UTF-8"?>
<svg width="34mm" height="30mm" version="1.2" viewBox="0 0 403.97 384.8" xmlns="http://www.w3.org/2000/svg">
 <g transform="translate(-106.66 -220.39)">
  <g fill="#1e51ab" fill-rule="evenodd">
   <path d="m203.21 348.97c9.9336 31.992 29.812 6.7539 77.105 67.961-31.598-67.961-77.105-67.961-77.105-67.961"/>
   <path d="m383.65 313.79c-37.758 29.809-97.574 5.9609-128.77 44.516 45.508-18.285 107.31 5.9609 128.77-44.516"/>
   <path d="m303.96 402.62c-1.3906-21.266 17.488-46.105-21.863-44.715 17.887 11.727 5.9648 14.902 5.5664 44.715 1.5898 45.902 53.062 102.94 96.383 127.78 0 0-70.152-49.086-80.086-127.78"/>
   <path d="m358.21 352.15c-0.59375 0-29.809 6.7539-30.004 6.3594-5.1719 4.9648-8.1484 16.691-9.543 29.012-6.5547 56.637 46.105 115.66 76.906 147.26 4.5078 1.1524 41.137 10.73 41.137 10.73s-124.2-128.97-78.496-193.36"/>
   <path d="m211.55 549.88c-3.1758 2.3867-4.1719 1.9883-10.93 9.1406-12.32-45.309 25.438-78.098 25.238-78.297 0 0-24.043 31.598-14.309 69.156"/>
   <path d="m245.34 531.2c-7.1602 2.1875-11.73 4.1719-19.879 9.5391-15.102-60.215 31.598-92.211 30.008-93.801 0 0-26.426 38.754-10.129 84.262"/>
   <path d="m292.43 519.67c-10.93 0.9961-20.867 1.7891-32.789 5.9609-20.668-49.48 7.9492-71.738 9.9336-106.91 10.137 32.195-13.711 49.484 22.855 100.95"/>
   <path d="m213.14 298.89c6.1602-3.5742 16.695 2.582 23.254 14.109 6.7539 11.328 6.9531 23.648 0.99609 27.223-6.3633 3.582-16.695-2.7773-23.453-14.105-6.7578-11.328-6.957-23.648-0.79688-27.227"/>
   <path d="m326.02 265.9c8.1445 2.3867 11.523 16.098 7.3516 30.207-4.1719 14.309-14.309 23.848-22.457 21.461-8.1445-2.3828-11.52-15.895-7.3476-30.008 4.1719-14.305 14.305-24.043 22.453-21.66"/>
  </g>
  <g fill="#211e1e">
   <path d="m156.97 580.08 2.3086 0.58594c-0.48438 1.8867-1.3555 3.332-2.6094 4.3281-1.2539 0.99219-2.7852 1.4883-4.6016 1.4883-1.8789 0-3.4023-0.38281-4.5781-1.1445-1.1758-0.76562-2.0703-1.8711-2.6836-3.3203s-0.91797-3.0078-0.91797-4.668c0-1.8125 0.34375-3.3945 1.0352-4.7461 0.69531-1.3477 1.6797-2.375 2.9609-3.0742 1.2773-0.69922 2.6836-1.0508 4.2188-1.0508 1.7422 0 3.207 0.4414 4.3945 1.332 1.1875 0.88672 2.0156 2.1328 2.4805 3.7422l-2.2656 0.53515c-0.40625-1.2695-0.99218-2.1914-1.7617-2.7695-0.76562-0.58203-1.7305-0.86719-2.8984-0.86719-1.3359 0-2.4492 0.31641-3.3516 0.96094-0.89843 0.64453-1.5312 1.5039-1.8906 2.5859-0.36719 1.0781-0.54688 2.1914-0.54688 3.3398 0 1.4844 0.21485 2.7734 0.64454 3.8789 0.43359 1.1016 1.1016 1.9297 2.0117 2.4766 0.91407 0.54688 1.8984 0.82031 2.9609 0.82031 1.2891 0 2.3789-0.375 3.2734-1.1172 0.89844-0.7461 1.5-1.8516 1.8164-3.3164"/>
   <path d="m160.71 586.19v-1.7344l8.0312-9.2148c-0.91406 0.0508-1.7148 0.0703-2.4141 0.0703h-5.1445v-1.7305h10.309v1.4102l-6.8242 8.0039-1.3164 1.4609c0.95312-0.0703 1.8555-0.10546 2.6953-0.10546h5.8281v1.8398z"/>
   <path d="m182.64 582.12 2.207 0.27344c-0.34766 1.293-0.99219 2.293-1.9297 3.0078-0.94531 0.70703-2.1484 1.0664-3.6133 1.0664-1.8438 0-3.3086-0.57032-4.3867-1.7031-1.082-1.1367-1.6211-2.7266-1.6211-4.7812 0-2.1211 0.54687-3.7695 1.6367-4.9414 1.0976-1.168 2.5117-1.7578 4.2539-1.7578 1.6875 0 3.0625 0.57422 4.1289 1.7227 1.0703 1.1484 1.6055 2.7656 1.6055 4.8438 0 0.1289-4e-3 0.32031-0.0117 0.57422h-9.4023c0.0742 1.3828 0.46875 2.4453 1.1758 3.1797 0.70312 0.73829 1.5781 1.1055 2.6328 1.1055 0.78125 0 1.4531-0.20703 2.0078-0.61718 0.55469-0.41016 0.99219-1.0664 1.3164-1.9727m-7.0156-3.457h7.0391c-0.0937-1.0586-0.36329-1.8555-0.80469-2.3828-0.6836-0.82422-1.5664-1.2383-2.6484-1.2383-0.98047 0-1.8086 0.33204-2.4766 0.98829-0.66797 0.65234-1.0391 1.5352-1.1094 2.6328"/>
   <path d="m195.76 581.57 2.1016 0.27734c-0.23047 1.4453-0.81641 2.5781-1.7656 3.3984-0.94532 0.82031-2.1055 1.2305-3.4844 1.2305-1.7227 0-3.1133-0.5625-4.1602-1.6914-1.0508-1.1289-1.5781-2.7461-1.5781-4.8516 0-1.3633 0.23047-2.5547 0.67969-3.5742 0.45312-1.0234 1.1367-1.7891 2.0625-2.3008 0.91797-0.51172 1.9258-0.76563 3.0078-0.76563 1.3711 0 2.4922 0.34766 3.3594 1.043 0.8711 0.69141 1.4297 1.6719 1.6797 2.9492l-2.082 0.32031c-0.19531-0.84765-0.54687-1.4844-1.0469-1.9141-0.50391-0.42578-1.1133-0.64063-1.8242-0.64063-1.0781 0-1.957 0.38672-2.6289 1.1602-0.67187 0.76953-1.0078 1.9922-1.0078 3.6602 0 1.6953 0.32422 2.9297 0.97656 3.6992 0.64844 0.76562 1.4961 1.1484 2.543 1.1484 0.83594 0 1.5352-0.25781 2.0977-0.77343 0.5625-0.51563 0.92187-1.3047 1.0703-2.375"/>
   <path d="m199.7 586.19v-17.41h2.1367v6.2461c0.99609-1.1524 2.2578-1.7344 3.7773-1.7344 0.92969 0 1.7422 0.1875 2.4297 0.55469 0.69141 0.36328 1.1836 0.875 1.4805 1.5234 0.29688 0.64843 0.44531 1.5938 0.44531 2.8281v7.9922h-2.1406v-7.9922c0-1.0664-0.23047-1.8438-0.69141-2.332s-1.1211-0.73437-1.9648-0.73437c-0.63281 0-1.2305 0.16796-1.7891 0.49609-0.5586 0.32812-0.95704 0.77344-1.1914 1.3359-0.23828 0.5625-0.35547 1.3398-0.35547 2.3281v6.8984z"/>
   <path d="m220.25 586.19v-17.41h5.9961c1.3516 0 2.3867 0.0859 3.0977 0.25391 1 0.22656 1.8516 0.64062 2.5547 1.2422 0.91797 0.77734 1.6055 1.7695 2.0586 2.9766 0.46094 1.207 0.6875 2.5859 0.6875 4.1367 0 1.3203-0.15625 2.4922-0.46875 3.5156-0.30469 1.0195-0.69922 1.8672-1.1875 2.5352-0.48047 0.67187-1.0078 1.1992-1.582 1.5781-0.57422 0.38672-1.2656 0.67969-2.0781 0.875-0.8125 0.19922-1.7461 0.29688-2.7969 0.29688zm2.3008-2.0547h3.7188c1.1484 0 2.0508-0.10547 2.7031-0.32031 0.65234-0.21484 1.1719-0.51563 1.5625-0.90234 0.54687-0.54297 0.97265-1.2852 1.2734-2.2031 0.30469-0.92187 0.46094-2.0391 0.46094-3.3555 0-1.8203-0.30078-3.2188-0.89844-4.1953-0.59765-0.98047-1.3242-1.6328-2.1797-1.9648-0.61719-0.24219-1.6133-0.35938-2.9805-0.35938h-3.6602z"/>
   <path d="m245.77 584.63c-0.79297 0.67188-1.5547 1.1445-2.2852 1.4258-0.73437 0.27344-1.5195 0.41407-2.3594 0.41407-1.3867 0-2.4492-0.33594-3.1953-1.0156-0.73828-0.67578-1.1133-1.543-1.1133-2.5938 0-0.62109 0.13671-1.1836 0.42187-1.6953 0.27734-0.51172 0.64844-0.91797 1.1016-1.2266 0.45703-0.3086 0.96875-0.54297 1.5391-0.70313 0.41796-0.10937 1.0508-0.21875 1.8984-0.32031 1.7266-0.20313 3-0.44922 3.8164-0.73438 8e-3 -0.29297 0.0117-0.48047 0.0117-0.55859 0-0.87109-0.20313-1.4844-0.60938-1.8398-0.54297-0.48438-1.3594-0.72266-2.4336-0.72266-1.0039 0-1.7461 0.17187-2.2266 0.52734-0.48047 0.35157-0.83203 0.97657-1.0625 1.8711l-2.0898-0.28907c0.19141-0.89062 0.50391-1.6172 0.9375-2.1641 0.4336-0.55078 1.0664-0.97656 1.8906-1.2734 0.82031-0.29296 1.7734-0.44531 2.8594-0.44531 1.0781 0 1.9492 0.12891 2.625 0.38281 0.67188 0.25391 1.168 0.57032 1.4883 0.95704 0.3125 0.38281 0.53125 0.86718 0.66407 1.4531 0.0664 0.36328 0.10547 1.0234 0.10547 1.9688v2.8516c0 1.9883 0.043 3.2461 0.13671 3.7695 0.0898 0.52735 0.27344 1.0352 0.53907 1.5156h-2.2344c-0.21875-0.44141-0.36328-0.96094-0.42578-1.5547m-0.17578-4.7773c-0.78125 0.32031-1.9414 0.58984-3.4922 0.8125-0.8789 0.125-1.5039 0.26562-1.8633 0.42578-0.36719 0.15625-0.64844 0.38672-0.84375 0.69531-0.19922 0.30469-0.30078 0.64063-0.30078 1.0156 0 0.57031 0.21875 1.043 0.64844 1.4258 0.42968 0.375 1.0625 0.5664 1.8945 0.5664 0.82031 0 1.5547-0.17968 2.1953-0.53906 0.64063-0.35937 1.1172-0.85547 1.4141-1.4805 0.23047-0.48047 0.34766-1.1953 0.34766-2.1328z"/>
   <path d="m251.07 586.19v-12.609h1.918v1.7891c0.92969-1.3828 2.2656-2.0781 4.0156-2.0781 0.76171 0 1.457 0.13672 2.0938 0.41016 0.64062 0.27344 1.1172 0.63281 1.4336 1.0781 0.31641 0.44141 0.53906 0.96875 0.66797 1.5781 0.0781 0.39453 0.11719 1.0898 0.11719 2.0781v7.7539h-2.1406v-7.6719c0-0.86718-0.082-1.5195-0.24609-1.9531-0.16797-0.42969-0.46485-0.77734-0.88282-1.0312-0.42578-0.25781-0.92187-0.39063-1.4922-0.39063-0.91407 0-1.6953 0.29297-2.3594 0.86719-0.66406 0.58203-0.99219 1.6758-0.99219 3.293v6.8867z"/>
   <path d="m272.82 581.57 2.0976 0.27734c-0.22656 1.4453-0.8125 2.5781-1.7617 3.3984-0.94532 0.82031-2.1094 1.2305-3.4844 1.2305-1.7227 0-3.1133-0.5625-4.1602-1.6914-1.0508-1.1289-1.5781-2.7461-1.5781-4.8516 0-1.3633 0.22656-2.5547 0.67969-3.5742 0.45312-1.0234 1.1367-1.7891 2.0625-2.3008 0.91797-0.51172 1.9258-0.76563 3.0078-0.76563 1.3711 0 2.4922 0.34766 3.3594 1.043 0.8711 0.69141 1.4297 1.6719 1.6797 2.9492l-2.082 0.32031c-0.19922-0.84765-0.54687-1.4844-1.0508-1.9141-0.5-0.42578-1.1094-0.64063-1.8203-0.64063-1.0781 0-1.957 0.38672-2.6289 1.1602-0.67187 0.76953-1.0078 1.9922-1.0078 3.6602 0 1.6953 0.32422 2.9297 0.97656 3.6992 0.64844 0.76562 1.4961 1.1484 2.5391 1.1484 0.83985 0 1.5391-0.25781 2.1016-0.77343 0.5625-0.51563 0.91796-1.3047 1.0703-2.375"/>
   <path d="m285.39 582.12 2.207 0.27344c-0.34766 1.293-0.99219 2.293-1.9336 3.0078-0.94532 0.70703-2.1484 1.0664-3.6094 1.0664-1.8477 0-3.3086-0.57032-4.3867-1.7031-1.082-1.1367-1.6211-2.7266-1.6211-4.7812 0-2.1211 0.54687-3.7695 1.6367-4.9414 1.0938-1.168 2.5117-1.7578 4.2539-1.7578 1.6836 0 3.0625 0.57422 4.1289 1.7227 1.0703 1.1484 1.6055 2.7656 1.6055 4.8438 0 0.1289-4e-3 0.32031-0.0117 0.57422h-9.4063c0.0781 1.3828 0.47266 2.4453 1.1758 3.1797 0.70703 0.73829 1.582 1.1055 2.6367 1.1055 0.78125 0 1.4492-0.20703 2.0078-0.61718 0.55469-0.41016 0.99219-1.0664 1.3164-1.9727m-7.0195-3.457h7.043c-0.0937-1.0586-0.36329-1.8555-0.80469-2.3828-0.6836-0.82422-1.5664-1.2383-2.6484-1.2383-0.98047 0-1.8086 0.33204-2.4766 0.98829-0.66797 0.65234-1.0391 1.5352-1.1133 2.6328"/>
   <path d="m296.53 580.59 2.1758-0.19141c0.10157 0.8711 0.33985 1.5859 0.71485 2.1445 0.3789 0.5586 0.96094 1.0117 1.7539 1.3555 0.78907 0.34375 1.6797 0.51563 2.668 0.51563 0.88282 0 1.6562-0.13281 2.3281-0.39063 0.67187-0.26172 1.1758-0.62109 1.5039-1.0742 0.32813-0.46093 0.4961-0.95312 0.4961-1.4922 0-0.54688-0.16016-1.0195-0.48047-1.4297-0.31641-0.41016-0.83594-0.75-1.5625-1.0273-0.47266-0.17969-1.5-0.46485-3.1016-0.85157-1.5977-0.38281-2.7188-0.74609-3.3633-1.0859-0.82813-0.4336-1.4492-0.97657-1.8594-1.6211-0.40234-0.64453-0.60547-1.3672-0.60547-2.168 0-0.875 0.2461-1.6992 0.7461-2.4609 0.49609-0.76563 1.2266-1.3438 2.1836-1.7422 0.96094-0.39453 2.0234-0.59375 3.1953-0.59375 1.293 0 2.4258 0.20703 3.4141 0.625 0.98829 0.41406 1.7461 1.0273 2.2774 1.832 0.52344 0.80469 0.8125 1.7227 0.85156 2.7461l-2.207 0.16407c-0.12109-1.0977-0.52344-1.9336-1.207-2.4922-0.6875-0.5625-1.6953-0.84375-3.0352-0.84375-1.3906 0-2.4062 0.25781-3.0469 0.76562-0.63672 0.51172-0.95703 1.1289-0.95703 1.8477 0 0.625 0.22656 1.1406 0.67578 1.543 0.44922 0.40625 1.6016 0.82031 3.4766 1.2383 1.8711 0.42578 3.1562 0.79687 3.8555 1.1133 1.0117 0.46875 1.7617 1.0625 2.2422 1.7734 0.48437 0.71875 0.72265 1.5469 0.72265 2.4766s-0.26172 1.8008-0.79297 2.6211c-0.53125 0.81641-1.293 1.4531-2.2852 1.9141-0.99219 0.45312-2.1133 0.67968-3.3555 0.67968-1.5742 0-2.8945-0.22656-3.957-0.6914-1.0664-0.45703-1.9024-1.1445-2.5117-2.0703-0.60156-0.91797-0.92188-1.9648-0.95313-3.1289"/>
   <path d="m313.26 591.02v-17.441h1.9453v1.6367c0.45703-0.64062 0.97656-1.1211 1.5586-1.4414 0.57422-0.32032 1.2734-0.48438 2.0977-0.48438 1.0781 0 2.0273 0.28125 2.8516 0.83203 0.82422 0.55469 1.4453 1.3359 1.8633 2.3477 0.42188 1.0078 0.63282 2.1133 0.63282 3.3203 0 1.2891-0.23047 2.4492-0.69532 3.4844-0.46484 1.0352-1.1367 1.8242-2.0195 2.375-0.88281 0.54687-1.8125 0.82422-2.7852 0.82422-0.71485 0-1.3516-0.15235-1.918-0.44922-0.56641-0.30078-1.0312-0.6836-1.3945-1.1406v6.1367zm1.9336-11.066c0 1.6211 0.32813 2.8203 0.98438 3.6016 0.65625 0.77343 1.457 1.1602 2.3906 1.1602 0.94531 0 1.7617-0.39843 2.4375-1.207 0.67969-0.80078 1.0195-2.0469 1.0195-3.7344 0-1.6094-0.33203-2.8086-0.99609-3.6094-0.66016-0.80078-1.4492-1.1992-2.3672-1.1992-0.91015 0-1.7188 0.42578-2.418 1.2774-0.70312 0.84765-1.0508 2.0898-1.0508 3.7109"/>
   <path d="m325.99 579.88c0-2.332 0.64844-4.0625 1.9492-5.1875 1.0859-0.9336 2.4062-1.4024 3.9648-1.4024 1.7344 0 3.1562 0.56641 4.2539 1.707 1.1016 1.1367 1.6484 2.7031 1.6484 4.707 0 1.625-0.24219 2.9024-0.72657 3.8281-0.48828 0.93359-1.1953 1.6562-2.125 2.1719-0.93359 0.51172-1.9453 0.76954-3.0508 0.76954-1.7617 0-3.1875-0.56641-4.2773-1.6992-1.0938-1.1328-1.6367-2.7617-1.6367-4.8945m2.1992 0c0 1.6172 0.35156 2.8281 1.0586 3.6289 0.70313 0.8086 1.5938 1.207 2.6562 1.207s1.9453-0.40234 2.6524-1.2109c0.70312-0.8086 1.0547-2.0391 1.0547-3.6914 0-1.5625-0.35156-2.7461-1.0625-3.5469-0.70703-0.80468-1.5898-1.2031-2.6445-1.2031-1.0625 0-1.9531 0.39844-2.6562 1.1992-0.70703 0.79687-1.0586 2.0039-1.0586 3.6172"/>
   <path d="m340.29 586.19v-12.609h1.9219v1.9102c0.49218-0.89453 0.94531-1.4883 1.3633-1.7695 0.41406-0.28516 0.87109-0.42969 1.3711-0.42969 0.71875 0 1.4492 0.23047 2.1953 0.69141l-0.73828 1.9844c-0.51562-0.3125-1.0391-0.46484-1.5625-0.46484-0.47265 0-0.89062 0.14062-1.2617 0.41797-0.375 0.28515-0.63671 0.67578-0.79687 1.1719-0.23438 0.76172-0.35547 1.5898-0.35547 2.4922v6.6055z"/>
   <path d="m353.08 584.27 0.30469 1.8906c-0.59766 0.125-1.1367 0.19141-1.6133 0.19141-0.77735 0-1.3789-0.1211-1.8047-0.3711-0.42578-0.24218-0.72656-0.5664-0.90234-0.96875-0.17188-0.39843-0.26172-1.2383-0.26172-2.5195v-7.2578h-1.5703v-1.6602h1.5703v-3.125l2.1289-1.2812v4.4062h2.1484v1.6602h-2.1484v7.375c0 0.60938 0.0352 1 0.10938 1.1758 0.0742 0.17188 0.19531 0.3125 0.36719 0.41797 0.17187 0.10156 0.41406 0.15234 0.73046 0.15234 0.23829 0 0.55079-0.0273 0.94141-0.0859"/>
   <path d="m362.32 586.19v-17.41h11.75v2.0547h-9.4414v5.3906h8.168v2.0586h-8.168v7.9062z"/>
   <path d="m385.41 582.12 2.2109 0.27344c-0.35156 1.293-0.99219 2.293-1.9336 3.0078-0.94532 0.70703-2.1484 1.0664-3.6133 1.0664-1.8438 0-3.3086-0.57032-4.3867-1.7031-1.082-1.1367-1.6211-2.7266-1.6211-4.7812 0-2.1211 0.54688-3.7695 1.6406-4.9414 1.0938-1.168 2.5078-1.7578 4.25-1.7578 1.6875 0 3.0664 0.57422 4.1328 1.7227s1.6016 2.7656 1.6016 4.8438c0 0.1289-4e-3 0.32031-0.0117 0.57422h-9.4023c0.0742 1.3828 0.46875 2.4453 1.1758 3.1797 0.70313 0.73829 1.5781 1.1055 2.6328 1.1055 0.78125 0 1.4531-0.20703 2.0078-0.61718 0.55468-0.41016 0.99218-1.0664 1.3164-1.9727m-7.0156-3.457h7.0391c-0.0898-1.0586-0.36328-1.8555-0.80469-2.3828-0.68359-0.82422-1.5664-1.2383-2.6484-1.2383-0.98046 0-1.8047 0.33204-2.4766 0.98829-0.66797 0.65234-1.0352 1.5352-1.1094 2.6328"/>
   <path d="m398.49 586.19v-1.5938c-0.80078 1.2539-1.9766 1.8789-3.5274 1.8789-1.0039 0-1.9297-0.27735-2.7734-0.83204-0.84375-0.55078-1.4961-1.3242-1.9609-2.3242-0.46094-0.99219-0.69141-2.1289-0.69141-3.4219 0-1.2578 0.21094-2.4023 0.62891-3.4258 0.41797-1.0273 1.0469-1.8125 1.8867-2.3555 0.83984-0.54687 1.7812-0.82422 2.8164-0.82422 0.75782 0 1.4336 0.16406 2.0274 0.48438 0.59765 0.32031 1.0781 0.73437 1.4492 1.25v-6.2461h2.125v17.41zm-6.7578-6.293c0 1.6172 0.33985 2.8242 1.0234 3.6211 0.67969 0.80079 1.4805 1.1992 2.4102 1.1992s1.7266-0.38281 2.3789-1.1445c0.65235-0.76172 0.98047-1.9297 0.98047-3.5 0-1.7266-0.33203-2.9922-0.99609-3.7969-0.66406-0.8125-1.4844-1.2109-2.4609-1.2109-0.94922 0-1.7422 0.38672-2.3789 1.1602-0.63672 0.77734-0.95704 2-0.95704 3.6719"/>
   <path d="m412.47 582.12 2.2109 0.27344c-0.35157 1.293-0.9961 2.293-1.9375 3.0078-0.94141 0.70703-2.1445 1.0664-3.6094 1.0664-1.8438 0-3.3086-0.57032-4.3867-1.7031-1.082-1.1367-1.6211-2.7266-1.6211-4.7812 0-2.1211 0.54687-3.7695 1.6367-4.9414 1.0976-1.168 2.5117-1.7578 4.2539-1.7578 1.6836 0 3.0625 0.57422 4.1289 1.7227 1.0703 1.1484 1.6055 2.7656 1.6055 4.8438 0 0.1289-4e-3 0.32031-0.0117 0.57422h-9.4062c0.0781 1.3828 0.47266 2.4453 1.1797 3.1797 0.70312 0.73829 1.5781 1.1055 2.6328 1.1055 0.78125 0 1.4531-0.20703 2.0078-0.61718 0.55469-0.41016 0.99219-1.0664 1.3164-1.9727m-7.0156-3.457h7.0391c-0.0937-1.0586-0.36328-1.8555-0.80469-2.3828-0.68359-0.82422-1.5664-1.2383-2.6484-1.2383-0.98047 0-1.8086 0.33204-2.4766 0.98829-0.66797 0.65234-1.0391 1.5352-1.1094 2.6328"/>
   <path d="m417.34 586.19v-12.609h1.9219v1.9102c0.49219-0.89453 0.94531-1.4883 1.3633-1.7695 0.41016-0.28516 0.87109-0.42969 1.3672-0.42969 0.72265 0 1.4531 0.23047 2.1992 0.69141l-0.73829 1.9844c-0.51953-0.3125-1.043-0.46484-1.5625-0.46484-0.47265 0-0.89062 0.14062-1.2617 0.41797-0.375 0.28515-0.63672 0.67578-0.79688 1.1719-0.23828 0.76172-0.35547 1.5898-0.35547 2.4922v6.6055z"/>
   <path d="m433.69 584.63c-0.79297 0.67188-1.5547 1.1445-2.2852 1.4258-0.73438 0.27344-1.5195 0.41407-2.3594 0.41407-1.3867 0-2.4492-0.33594-3.1953-1.0156-0.73828-0.67578-1.1133-1.543-1.1133-2.5938 0-0.62109 0.13672-1.1836 0.42188-1.6953 0.27734-0.51172 0.64843-0.91797 1.1016-1.2266 0.45703-0.3086 0.96875-0.54297 1.5391-0.70313 0.41797-0.10937 1.0508-0.21875 1.8984-0.32031 1.7266-0.20313 3-0.44922 3.8125-0.73438 0.0117-0.29297 0.0156-0.48047 0.0156-0.55859 0-0.87109-0.20312-1.4844-0.60937-1.8398-0.54297-0.48438-1.3594-0.72266-2.4297-0.72266-1.0078 0-1.75 0.17187-2.2305 0.52734-0.48047 0.35157-0.83203 0.97657-1.0625 1.8711l-2.0898-0.28907c0.1914-0.89062 0.5039-1.6172 0.9375-2.1641 0.43359-0.55078 1.0664-0.97656 1.8906-1.2734 0.82032-0.29296 1.7734-0.44531 2.8594-0.44531 1.0781 0 1.9531 0.12891 2.625 0.38281 0.67187 0.25391 1.168 0.57032 1.4883 0.95704 0.3125 0.38281 0.53125 0.86718 0.66406 1.4531 0.0664 0.36328 0.10547 1.0234 0.10547 1.9688v2.8516c0 1.9883 0.043 3.2461 0.13672 3.7695 0.0898 0.52735 0.27344 1.0352 0.53906 1.5156h-2.2344c-0.21875-0.44141-0.36328-0.96094-0.42578-1.5547m-0.17969-4.7773c-0.77344 0.32031-1.9375 0.58984-3.4883 0.8125-0.87891 0.125-1.5039 0.26562-1.8633 0.42578-0.36329 0.15625-0.64844 0.38672-0.84375 0.69531-0.19922 0.30469-0.30079 0.64063-0.30079 1.0156 0 0.57031 0.21875 1.043 0.64844 1.4258 0.42969 0.375 1.0625 0.5664 1.8945 0.5664 0.82032 0 1.5547-0.17968 2.1953-0.53906 0.64062-0.35937 1.1172-0.85547 1.418-1.4805 0.23047-0.48047 0.33985-1.1953 0.33985-2.1328z"/>
   <path d="m443.66 584.27 0.30859 1.8906c-0.60156 0.125-1.1406 0.19141-1.6133 0.19141-0.78125 0-1.3789-0.1211-1.8086-0.3711-0.42578-0.24218-0.72656-0.5664-0.89844-0.96875-0.17578-0.39843-0.26562-1.2383-0.26562-2.5195v-7.2578h-1.5703v-1.6602h1.5703v-3.125l2.1289-1.2812v4.4062h2.1484v1.6602h-2.1484v7.375c0 0.60938 0.0352 1 0.10938 1.1758 0.0781 0.17188 0.19922 0.3125 0.36718 0.41797 0.17188 0.10156 0.41407 0.15234 0.73047 0.15234 0.24219 0 0.55078-0.0273 0.94141-0.0859"/>
   <path d="m445.76 568.78h2.1406v2.4609h-2.1406zm0 4.8008h2.1406v12.609h-2.1406z"/>
   <path d="m450.35 579.88c0-2.332 0.64844-4.0625 1.9492-5.1875 1.082-0.9336 2.4062-1.4024 3.9648-1.4024 1.7344 0 3.1524 0.56641 4.2539 1.707 1.1016 1.1367 1.6484 2.7031 1.6484 4.707 0 1.625-0.24219 2.9024-0.72656 3.8281-0.48829 0.93359-1.1992 1.6562-2.125 2.1719-0.9336 0.51172-1.9453 0.76954-3.0508 0.76954-1.7617 0-3.1875-0.56641-4.2773-1.6992-1.0938-1.1328-1.6367-2.7617-1.6367-4.8945m2.1992 0c0 1.6172 0.35156 2.8281 1.0586 3.6289 0.70313 0.8086 1.5938 1.207 2.6562 1.207s1.9453-0.40234 2.6524-1.2109c0.70312-0.8086 1.0547-2.0391 1.0547-3.6914 0-1.5625-0.35157-2.7461-1.0625-3.5469-0.71094-0.80468-1.5898-1.2031-2.6445-1.2031-1.0625 0-1.9531 0.39844-2.6562 1.1992-0.70703 0.79687-1.0586 2.0039-1.0586 3.6172"/>
   <path d="m464.68 586.19v-12.609h1.9258v1.7891c0.92578-1.3828 2.2617-2.0781 4.0117-2.0781 0.76172 0 1.457 0.13672 2.0938 0.41016 0.64063 0.27344 1.1172 0.63281 1.4336 1.0781 0.31641 0.44141 0.53516 0.96875 0.66797 1.5781 0.0742 0.39453 0.11719 1.0898 0.11719 2.0781v7.7539h-2.1406v-7.6719c0-0.86718-0.082-1.5195-0.25-1.9531-0.16407-0.42969-0.46094-0.77734-0.87891-1.0312-0.42578-0.25781-0.92188-0.39063-1.4961-0.39063-0.91016 0-1.6914 0.29297-2.3594 0.86719-0.65625 0.58203-0.98828 1.6758-0.98828 3.293v6.8867z"/>
   <path d="m157.29 508.93-0.92969-3.6289c1.9766-0.58984 3.7109-0.60156 5.207-0.0352 1.4922 0.57032 2.7578 1.6797 3.7969 3.3398 1.2812 2.0547 1.6328 4.1797 1.0547 6.3789-0.57422 2.1992-2.0781 4.0625-4.5117 5.582-2.5742 1.6055-4.9844 2.1914-7.2422 1.75-2.2539-0.4375-4.0586-1.7422-5.4141-3.9062-1.1797-1.8906-1.582-3.7774-1.2031-5.6562 0.22265-1.1172 0.84375-2.2383 1.8633-3.3633l2.6641 2.6328c-0.68359 0.67968-1.0781 1.4531-1.1797 2.3242-0.10156 0.87109 0.10547 1.7226 0.625 2.5547 0.71875 1.1445 1.707 1.8164 2.9766 2.0156s2.8242-0.27735 4.668-1.4258c1.9531-1.2227 3.125-2.4414 3.5156-3.668 0.39063-1.2188 0.23828-2.3945-0.46875-3.5195-0.51562-0.82813-1.2266-1.3789-2.125-1.6445-0.90625-0.26954-2-0.17969-3.2969 0.26953m-9.4141 15.723-1.5-2.3945 0.86328-2.1211-2.3359-0.24219-1.4922-2.3828 4.4766 0.23828 1.7148 2.7422z"/>
   <path d="m154.2 487.85-17.023 6.5312-4.8438-12.621 2.8789-1.1055 3.5234 9.1836 3.7773-1.4453-3.2852-8.5508 2.8711-1.0977 3.2774 8.543 4.6367-1.7734-3.6562-9.5078 2.8711-1.1055z"/>
   <path d="m139.32 461.42-0.96875-3.4648c1.1445-0.41796 1.9414-1.0078 2.3828-1.7539 0.44141-0.7461 0.5625-1.6719 0.36719-2.7734-0.20312-1.168-0.60547-2.0039-1.2031-2.5078-0.60157-0.50781-1.2305-0.70313-1.8906-0.58203-0.42578 0.0742-0.76562 0.26172-1.0195 0.5625-0.25391 0.30468-0.4375 0.78125-0.54687 1.4414-0.0742 0.44922-0.16407 1.4648-0.27344 3.0391-0.14063 2.0312-0.48828 3.5-1.0547 4.4102-0.79297 1.2734-1.9023 2.0391-3.3203 2.2891-0.91797 0.16016-1.8164 0.0508-2.7031-0.32812-0.89062-0.37891-1.6289-1.0156-2.2148-1.918-0.58984-0.90234-1.0039-2.043-1.2461-3.4258-0.39844-2.2539-0.20703-4.0352 0.58593-5.3477 0.78516-1.3125 2-2.1445 3.6367-2.4961l0.80078 3.5977c-0.89843 0.32031-1.5039 0.76953-1.8203 1.3516-0.3125 0.58203-0.375 1.3828-0.19922 2.4023 0.1875 1.0547 0.55078 1.8398 1.0898 2.3633 0.34375 0.32813 0.74609 0.45703 1.2148 0.37891 0.42187-0.0781 0.75391-0.32031 0.99219-0.73047 0.30468-0.52734 0.51172-1.7109 0.61718-3.5469 0.10157-1.8359 0.30469-3.2148 0.59766-4.1406 0.29688-0.92187 0.78906-1.6914 1.4766-2.3047s1.5977-1.0195 2.7344-1.2188c1.0312-0.18359 2.043-0.0703 3.043 0.34766 0.99609 0.41016 1.8086 1.0977 2.4297 2.0664 0.61719 0.96875 1.0703 2.2344 1.3438 3.793 0.39844 2.2695 0.1836 4.1055-0.65234 5.5078-0.83203 1.4023-2.2344 2.3984-4.1992 2.9883"/>
   <path d="m140.84 429.58-18.23 0.32031-0.0625-3.6836 8.0976-0.14063-8.2266-7.293-0.0859-4.9492 7.2226 6.7383 11-7.4297 0.082 4.7578-8.4688 5.1641 3.1016 2.9336 5.5078-0.0977z"/>
   <path d="m143.17 393.62-7.5352-1.4609-11.641 4.5391 0.82422-4.2383 7.8984-2.832-6.2734-5.5078 0.80469-4.1602 9.1133 8.5976 7.5078 1.4609zm-19.016-3.2031-3.3203-2.3945 0.74609-3.8477 2.9961 4.0703z"/>
   <path d="m145.59 359.6 1.1953-3.3906c1.1836 0.30859 2.1719 0.28906 2.9609-0.0742 0.78906-0.35547 1.418-1.043 1.8945-2.0586 0.5-1.0742 0.64844-1.9922 0.44922-2.7461-0.19922-0.75781-0.60547-1.2812-1.2148-1.5664-0.39063-0.17578-0.77735-0.21875-1.1602-0.11718-0.38281 0.10156-0.80469 0.39062-1.2734 0.86718-0.32031 0.32422-0.97265 1.1094-1.9688 2.3359-1.2773 1.582-2.4102 2.582-3.3906 3-1.3828 0.58985-2.7266 0.58203-4.0352-0.0273-0.83984-0.39063-1.5195-1-2.0273-1.8203-0.51172-0.81641-0.75-1.7656-0.71485-2.8398 0.0391-1.0781 0.35157-2.25 0.94141-3.5195 0.96875-2.0781 2.1562-3.4219 3.5508-4.0508 1.3984-0.625 2.8672-0.60938 4.4141 0.0469l-1.4102 3.4024c-0.91797-0.25-1.668-0.22656-2.2656 0.0703-0.58984 0.29297-1.1016 0.91406-1.5391 1.8516-0.45703 0.96875-0.60938 1.8203-0.46484 2.5547 0.0898 0.47266 0.34765 0.80859 0.77734 1.0078 0.39062 0.1836 0.80469 0.17578 1.2344-0.0273 0.55079-0.25781 1.3945-1.1055 2.5352-2.5508 1.1406-1.4453 2.0977-2.4609 2.8672-3.0469 0.77344-0.58984 1.6211-0.9375 2.5312-1.043 0.91797-0.10937 1.8984 0.082 2.9453 0.56641 0.94531 0.44141 1.7109 1.1211 2.293 2.0312 0.57422 0.91016 0.84375 1.9414 0.79687 3.0898-0.043 1.1524-0.40234 2.4453-1.0703 3.8789-0.97656 2.0898-2.207 3.4688-3.6953 4.1367-1.4883 0.67187-3.207 0.6875-5.1562 0.0391"/>
   <path d="m167.26 330.48-18.844-4.4648 2.1758-3.3516 13.828 3.4844-8.8828-11.098 2.1289-3.2734 11.734 15.406z"/>
   <path d="m192.51 299.84-2.7812 2.8789-4.0859-1.7344-5.0664 5.2461 1.9375 3.957-2.7148 2.8125-8.1797-17.777 2.7031-2.7969zm-9.8984-0.13672-6.6133-2.8906 3.1562 6.4726z"/>
   <path d="m202.45 290.92-2.0469-2.6172 0.26953-15.215-6.6953 5.2305-1.9024-2.4258 10.52-8.2188 1.7578 2.2539-0.29688 15.84 8.1758-6.3867 1.8867 2.4219z"/>
   <path d="m238.36 268.54-6.1602-13.836-4.9414 2.1992-1.2539-2.8164 13.234-5.8945 1.2578 2.8164-4.9336 2.1953 6.1602 13.84z"/>
   <path d="m275.19 256.04-3.8672 1.0352-2.6133-3.5859-7.043 1.8828-0.3789 4.3945-3.7734 1.0078 2.1406-19.449 3.7617-1.0117zm-8.418-5.2148-4.1797-5.8867-0.6289 7.1758z"/>
   <path d="m289.99 253.76-1.2695-18.188 3.5703-0.25 8.293 11.629-0.84766-12.148 3.4102-0.23437 1.2734 18.184-3.6836 0.25781-8.1641-11.348 0.82813 11.863z"/>
   <path d="m321.3 253.1 2.2227-18.094 13.418 1.6445-0.37891 3.0625-9.7617-1.1992-0.49218 4.0117 9.0859 1.1172-0.375 3.0469-9.0859-1.1172-0.60157 4.9258 10.105 1.2422-0.37109 3.0469z"/>
   <path d="m363.95 254.48 3.1523 2.0195c-1.043 1.7773-2.3047 2.9727-3.7812 3.5742-1.4805 0.60547-3.168 0.65234-5.0586 0.14844-2.3359-0.62891-4.0469-1.9414-5.1211-3.9453-1.0781-2-1.25-4.3867-0.5039-7.1562 0.78515-2.9336 2.1523-5.0039 4.1016-6.2226 1.9492-1.2148 4.1562-1.4922 6.6211-0.83594 2.1562 0.57812 3.7344 1.6875 4.7383 3.3203 0.59765 0.96485 0.91406 2.2109 0.93359 3.7266l-3.7461-0.10156c0.0391-0.96875-0.20313-1.8047-0.72657-2.5156-0.51562-0.70313-1.2461-1.1836-2.1953-1.4336-1.3047-0.35156-2.4883-0.16797-3.5547 0.55078-1.0586 0.72266-1.875 2.1289-2.4375 4.2305-0.59765 2.2266-0.61718 3.918-0.0703 5.0781 0.54297 1.1602 1.4609 1.9141 2.7422 2.2539 0.9414 0.25391 1.8398 0.17188 2.6797-0.25 0.83984-0.41406 1.5859-1.2305 2.2266-2.4414m-3.8398-17.918 2.7266 0.73047 0.8164 2.1367 1.875-1.418 2.7148 0.72656-3.4375 2.8789-3.125-0.83594z"/>
   <path d="m380.41 268.51 8.2773-16.242 3.1914 1.625 1.1211 14.234 5.5273-10.848 3.043 1.5547-8.2734 16.242-3.293-1.6797-1.1524-13.926-5.3945 10.594z"/>
   <path d="m407.18 284.19 10.453-14.938 3.0195 2.1172-10.457 14.93zm10.711-16.031 3.5391-2.0625 3.207 2.2461-4.9336 1.0859z"/>
   <path d="m422.82 296.95 12.438-13.34 2.6914 2.5156-4.8984 5.2461 5.2812 4.918 4.8906-5.2461 2.6914 2.5078-12.434 13.34-2.6914-2.5156 5.4336-5.832-5.2734-4.9141-5.4375 5.8281z"/>
   <path d="m450.8 314.21c1.5039-1.0938 2.9258-1.7852 4.2734-2.0742 0.99219-0.21094 2.0039-0.24219 3.0195-0.0977 1.0195 0.14844 1.9258 0.46485 2.7188 0.94531 1.0508 0.63672 2.0195 1.5508 2.8906 2.7539 1.5781 2.1758 2.168 4.4062 1.7656 6.6875-0.39844 2.2852-1.8008 4.3008-4.1992 6.043-2.3828 1.7305-4.7188 2.4375-7 2.1211-2.2852-0.32031-4.2188-1.5586-5.7891-3.7305-1.5976-2.1914-2.1992-4.418-1.7969-6.6875 0.39844-2.2656 1.7695-4.2539 4.1172-5.9609m2.332 2.9961c-1.6719 1.2148-2.6562 2.5195-2.9609 3.918-0.30078 1.3984-0.0195 2.6914 0.84375 3.8789 0.85938 1.1875 2 1.8476 3.4102 1.9883 1.4023 0.14062 2.9688-0.40625 4.6758-1.6524 1.6875-1.2266 2.6836-2.5117 2.9766-3.8594 0.29297-1.3477-4e-3 -2.6328-0.89844-3.8594-0.89062-1.2266-2.0312-1.9141-3.4219-2.0508-1.3828-0.14062-2.9297 0.40625-4.625 1.6367"/>
   <path d="m469.64 352.4 1.6641 3.1914c-1.0352 0.64844-1.6914 1.3867-1.9688 2.207-0.27343 0.82422-0.20312 1.7539 0.21875 2.793 0.44532 1.1016 1.0117 1.8359 1.7031 2.207 0.6875 0.36719 1.3476 0.42969 1.9726 0.17188 0.39844-0.16016 0.69141-0.41407 0.87891-0.76172 0.17969-0.35157 0.26172-0.85547 0.23047-1.5274-0.0195-0.45312-0.14453-1.4648-0.36328-3.0312-0.28516-2.0117-0.2461-3.5195 0.11328-4.5273 0.51562-1.4141 1.4375-2.3906 2.7734-2.9297 0.86328-0.34765 1.7656-0.43359 2.7148-0.24609 0.94531 0.1875 1.8047 0.66015 2.5625 1.418 0.76563 0.76172 1.4102 1.793 1.9375 3.0938 0.85547 2.1211 1.0352 3.9062 0.53906 5.3516-0.49609 1.4492-1.5117 2.5156-3.043 3.1992l-1.5312-3.3555c0.8125-0.49609 1.3086-1.0586 1.4961-1.6953 0.1875-0.63282 0.0859-1.4336-0.30078-2.3945-0.40625-0.99219-0.92188-1.6836-1.5547-2.082-0.40625-0.25781-0.82813-0.29296-1.2695-0.12109-0.39844 0.16016-0.67188 0.47266-0.82031 0.92188-0.1875 0.57812-0.14454 1.7734 0.13671 3.5976 0.27735 1.8164 0.3711 3.2109 0.26954 4.1797-0.0937 0.96094-0.41407 1.8164-0.96485 2.5586-0.54297 0.74219-1.3476 1.3359-2.418 1.7617-0.96875 0.39063-1.9844 0.48828-3.0508 0.29297-1.0625-0.19531-2-0.70312-2.8047-1.5195-0.8125-0.82031-1.5117-1.9609-2.1016-3.4297-0.86719-2.1406-1.0391-3.9805-0.51172-5.5273 0.52735-1.5469 1.6914-2.8086 3.4922-3.7969"/>
   <path d="m473.71 383.87 17.902-3.4766 1.125 5.8008c0.42968 2.1953 0.61718 3.6484 0.57031 4.3477-0.0742 1.0781-0.48828 2.0508-1.2539 2.918-0.76562 0.86718-1.8594 1.4375-3.2812 1.7148-1.1016 0.21484-2.0664 0.19531-2.8906-0.0586-0.82422-0.25-1.5156-0.64453-2.0625-1.1758-0.54297-0.53125-0.94922-1.1016-1.2109-1.7109-0.33594-0.82813-0.66406-2.0625-0.98437-3.6992l-0.45704-2.3594-6.7539 1.3164zm15.574 0.72657-5.0781 0.98437 0.38281 1.9805c0.28125 1.4258 0.55859 2.3594 0.83594 2.8008 0.28125 0.44531 0.64843 0.76563 1.1016 0.96094 0.45312 0.19531 0.94141 0.24219 1.4727 0.13672 0.64843-0.125 1.1523-0.42188 1.5-0.88282 0.34765-0.46875 0.51953-1.0039 0.50781-1.6094 0-0.44922-0.125-1.3242-0.38281-2.625z"/>
   <path d="m487.07 413.13c1.8594 0.0312 3.4102 0.33593 4.6602 0.91406 0.92187 0.42969 1.7461 1.0117 2.4726 1.7422 0.72266 0.73046 1.2578 1.5234 1.6016 2.3867 0.45703 1.1406 0.67187 2.4531 0.64843 3.9414-0.0469 2.6836-0.91796 4.8203-2.6133 6.4023-1.6914 1.5859-4.0234 2.3477-6.9922 2.2969-2.9414-0.0508-5.2305-0.89063-6.8633-2.5195-1.6367-1.6289-2.4297-3.7812-2.3828-6.4609 0.0469-2.7109 0.91406-4.8477 2.5977-6.4219 1.6797-1.5703 3.9688-2.332 6.8711-2.2812m0.0586 3.793c-2.0664-0.0312-3.6367 0.41797-4.7188 1.3516-1.082 0.93359-1.6367 2.1367-1.6602 3.6016-0.0273 1.4688 0.48047 2.6797 1.5195 3.6406 1.0391 0.95704 2.6211 1.4609 4.7305 1.4922 2.0898 0.0391 3.6562-0.39453 4.7031-1.2891 1.043-0.90234 1.5781-2.1094 1.6016-3.625 0.0273-1.5156-0.46875-2.75-1.4922-3.6914-1.0234-0.94922-2.5859-1.4414-4.6836-1.4805"/>
   <path d="m476.14 446.32 17.953 3.1641-1.3477 7.6328c-0.33203 1.918-0.74218 3.2852-1.2148 4.0977-0.47656 0.8125-1.1719 1.4102-2.0898 1.7852-0.91797 0.375-1.9062 0.47266-2.9688 0.28125-1.3477-0.23047-2.3906-0.82422-3.1328-1.7734-0.73828-0.94532-1.082-2.2305-1.0312-3.8438-0.59375 0.70312-1.2109 1.2617-1.8516 1.6758-0.63672 0.41406-1.7266 0.92968-3.2773 1.5469l-3.8906 1.5781 0.76563-4.3359 4.3711-1.9336c1.5625-0.6836 2.5508-1.168 2.9766-1.4453 0.42578-0.28125 0.73828-0.59765 0.9375-0.95703 0.20313-0.36328 0.37891-0.95703 0.52735-1.7891l0.125-0.73438-7.4961-1.3242zm9.7188 5.4531-0.47265 2.6797c-0.30469 1.7422-0.42188 2.8438-0.35156 3.3008 0.0703 0.45703 0.26562 0.83984 0.57812 1.1523 0.32031 0.30469 0.74609 0.50782 1.2852 0.60157 0.60156 0.10546 1.1211 0.0312 1.5469-0.22657 0.42969-0.25781 0.7461-0.66797 0.94141-1.2383 0.0976-0.28906 0.27344-1.168 0.53125-2.6367l0.5-2.8281z"/>
   <path d="m467.21 480.62 14.141 5.4297 1.9414-5.0508 2.8789 1.1016-5.1914 13.527-2.8789-1.1094 1.9336-5.0352-14.141-5.4258z"/>
   <path d="m472.61 512.51-1.9453 3.125-8.375-5.2383c-1.3281-0.82813-2.2188-1.3281-2.6602-1.4961-0.71484-0.26172-1.4219-0.26172-2.1172 4e-3 -0.70312 0.26172-1.3242 0.83203-1.8672 1.7031-0.55468 0.88672-0.78906 1.668-0.70703 2.3398 0.0781 0.67578 0.35547 1.2266 0.82813 1.6445 0.46484 0.42578 1.3164 1.0156 2.5391 1.7812l8.5508 5.3477-1.9453 3.1211-8.125-5.0742c-1.8555-1.1602-3.1133-2.0664-3.7773-2.7148-0.66016-0.64844-1.1133-1.3633-1.3594-2.1445-0.23828-0.78125-0.28125-1.6524-0.12109-2.6094 0.16015-0.95312 0.625-2.043 1.3867-3.2656 0.92578-1.4766 1.7969-2.4922 2.6133-3.0391 0.82031-0.55078 1.6406-0.8789 2.457-0.98047 0.82422-0.10156 1.5781-0.0351 2.2656 0.19532 1.0078 0.35156 2.3828 1.0664 4.1133 2.1484z"/>
  </g>
  <g fill="#1e51ab">
   <path d="m307.14 265.45c-0.0273 0-0.0547 8e-3 -0.082 8e-3 -22.449 0.15625-44.172 5.457-63.387 14.359-3.7188 1.7226-7.3789 3.6016-10.961 5.6211-3.5976 2.0273-7.043 4.1562-10.32 6.3672l-0.23047 0.16015 8e-3 0.0117c-0.42578 0.29297-0.70312 0.78516-0.70312 1.3398 0 0.90234 0.73437 1.6367 1.6367 1.6367 0.36328 0 0.69922-0.12109 0.96875-0.32421l0.15234-0.10157c3.293-2.2226 6.6641-4.3086 10.09-6.2422 3.4414-1.9414 7.0234-3.7774 10.73-5.4922 18.844-8.7305 40.121-13.926 62.098-14.066v-4e-3c0.90234 0 1.6367-0.73047 1.6367-1.6367 0-0.90235-0.73438-1.6367-1.6367-1.6367" fill-rule="evenodd"/>
   <path d="m394.02 290.43c-8.2969-5.4258-17.152-10.094-26.465-13.898-9.3086-3.8008-19.043-6.7266-29.094-8.6602l-8e-3 -4e-3c-8e-3 0-0.0156-4e-3 -0.0234-4e-3 -0.89062-0.17187-1.7461 0.41016-1.918 1.2969-0.16797 0.89062 0.41406 1.75 1.3008 1.918 8e-3 0 0.0156 0 0.0234 4e-3v4e-3l8e-3 4e-3c9.8711 1.9024 19.395 4.7578 28.48 8.4688 9.0742 3.707 17.742 8.2812 25.898 13.617 41.855 27.391 69.676 74.703 69.676 127.93v4e-3h8e-3c0 16.012-2.6094 31.492-7.3516 46.07-0.76562 2.3516-1.5977 4.7031-2.4844 7.043-4.5469 11.953-10.535 23.223-17.691 33.586 0 0-4e-3 4e-3 -4e-3 8e-3 -0.17187 0.25781-0.27734 0.57031-0.27734 0.90625 0 0.90625 0.73437 1.6406 1.6406 1.6406 0.54688 0 1.0312-0.27344 1.3281-0.69141h4e-3s4e-3 -4e-3 4e-3 -8e-3c0.0117-0.0195 0.0234-0.0351 0.0352-0.0547 7.2969-10.574 13.398-22.059 18.023-34.223 0.89843-2.3555 1.7422-4.7539 2.5391-7.1953 4.8398-14.883 7.5039-30.703 7.5039-47.082h8e-3v-4e-3c0-54.371-28.418-102.7-71.164-130.68" fill-rule="evenodd"/>
   <path d="m204.04 310.42c0-0.90235-0.73047-1.6367-1.6367-1.6367-0.44531 0-0.84766 0.17969-1.1406 0.46875l-4e-3 -4e-3c-12.266 12.02-22.637 25.969-30.547 41.312-1.5352 2.9727-2.9805 6.0117-4.332 9.1055-8.2852 18.953-12.902 39.742-12.902 61.438h-8e-3v4e-3c0 23.855 5.5195 46.469 15.285 66.637 1.9024 3.9258 3.9609 7.7578 6.1641 11.473 2.1875 3.6875 4.5274 7.2812 7.0117 10.773 0.28907 0.46484 0.80078 0.77344 1.3867 0.77344 0.90235 0 1.6367-0.73047 1.6367-1.6367 0-0.34766-0.10937-0.66797-0.29297-0.92969l8e-3 -4e-3 -4e-3 -8e-3c-2.4453-3.4297-4.7539-6.9766-6.9219-10.637-2.168-3.6523-4.1875-7.4023-6.0391-11.23-9.5508-19.727-14.953-41.855-14.953-65.211v-4e-3h-4e-3c0-21.227 4.5234-41.574 12.633-60.129 1.3164-3.0117 2.7344-5.9844 4.2422-8.9141 7.75-15.031 17.91-28.699 29.93-40.473 0.30078-0.29688 0.48828-0.71094 0.48828-1.168"/>
  </g>
 </g>
</svg>
