<?xml version="1.0" encoding="UTF-8" standalone="no"?>
<svg
   width="37.570404mm"
   height="35.768112mm"
   viewBox="0 0 37.570404 35.768112"
   version="1.1">
  <g
     id="layer1"
     transform="translate(-93.679446,-64.585728)">
    <path
       style="fill:#000000;fill-opacity:1;fill-rule:evenodd;stroke:none;stroke-width:0.352778"
       d="m 109.23246,95.353832 c 5.54247,-10.511676 7.85757,-17.42667 17.01739,-19.945725 l -0.17225,-0.272849 c -0.0276,-0.03447 -0.12127,-0.170878 -0.15021,-0.205327 -9.70965,0.811664 -14.54932,1.231963 -24.63105,0.05925 -0.0882,0.14194 -0.17363,0.286631 -0.25769,0.432706 l 0.0344,0.0069 c 3.36517,0.770322 9.20391,1.287089 10.98572,4.338062 2.40743,3.672473 -2.38952,11.17589 -4.14928,14.926908 0.39826,0.209462 0.90675,0.482315 1.32292,0.660083"
       id="path4" />
    <path
       style="fill:#000000;fill-opacity:1;fill-rule:evenodd;stroke:none;stroke-width:0.352778"
       d="m 106.50257,93.756684 c 2.18006,-3.607703 6.45473,-10.566794 3.99355,-13.919562 -1.60266,3.314181 -5.83186,4.087262 -11.816674,4.226443 0.921907,3.471277 4.825884,7.569563 7.823124,9.693119"
       id="path6" />
    <path
       style="fill:#000000;fill-opacity:1;fill-rule:evenodd;stroke:none;stroke-width:0.352778"
       d="m 111.65367,70.569817 c 1.0542,-0.05099 1.94993,0.760677 2.00229,1.814875 0.051,1.055579 -0.76067,1.951302 -1.81487,2.003669 -1.0542,0.05099 -1.95131,-0.762057 -2.00367,-1.816255 -0.051,-1.054199 0.76205,-1.949923 1.81625,-2.002289"
       id="path8" />
    <path
       style="fill:#000000;fill-opacity:1;fill-rule:evenodd;stroke:none;stroke-width:0.352778"
       d="m 118.02572,69.588654 c 1.32016,-0.06477 2.44189,0.953604 2.50665,2.272386 0.0648,1.320158 -0.95222,2.441881 -2.27238,2.506651 -1.31879,0.06477 -2.44188,-0.952224 -2.50665,-2.272386 -0.0648,-1.318782 0.9536,-2.441885 2.27238,-2.506651"
       id="path10" />
  </g>
</svg>
