<?xml version="1.0" encoding="UTF-8"?>
<svg width="135" height="135" version="1.1" viewBox="0 0 35.719 35.719" xmlns="http://www.w3.org/2000/svg">
 <g transform="translate(-94.605 -64.61)" fill="#fff" fill-rule="evenodd">
  <path d="m109.23 95.354c5.5425-10.512 7.8576-17.427 17.017-19.946l-0.17225-0.27285c-0.0276-0.03447-0.12127-0.17088-0.15021-0.20533-9.7096 0.81166-14.549 1.232-24.631 0.05925-0.0882 0.14194-0.17363 0.28663-0.25769 0.43271l0.0344 0.0069c3.3652 0.77032 9.2039 1.2871 10.986 4.3381 2.4074 3.6725-2.3895 11.176-4.1493 14.927 0.39826 0.20946 0.90675 0.48232 1.3229 0.66008"/>
  <path d="m106.5 93.757c2.1801-3.6077 6.4547-10.567 3.9936-13.92-1.6027 3.3142-5.8319 4.0873-11.817 4.2264 0.92191 3.4713 4.8259 7.5696 7.8231 9.6931"/>
  <path d="m111.65 70.57c1.0542-0.05099 1.9499 0.76068 2.0023 1.8149 0.051 1.0556-0.76067 1.9513-1.8149 2.0037-1.0542 0.05099-1.9513-0.76206-2.0037-1.8163-0.051-1.0542 0.76205-1.9499 1.8162-2.0023"/>
  <path d="m118.03 69.589c1.3202-0.06477 2.4419 0.9536 2.5066 2.2724 0.0648 1.3202-0.95222 2.4419-2.2724 2.5067-1.3188 0.06477-2.4419-0.95222-2.5066-2.2724-0.0648-1.3188 0.9536-2.4419 2.2724-2.5067"/>
 </g>
</svg>
