<?xml version="1.0" encoding="UTF-8" standalone="no"?>
<svg
   xmlns:dc="http://purl.org/dc/elements/1.1/"
   xmlns:cc="http://creativecommons.org/ns#"
   xmlns:rdf="http://www.w3.org/1999/02/22-rdf-syntax-ns#"
   xmlns:svg="http://www.w3.org/2000/svg"
   xmlns="http://www.w3.org/2000/svg"
   width="142.51001mm"
   height="135.74873mm"
   viewBox="0 0 403.96538 384.79955"
   version="1.2"
   id="svg125">
  <metadata
     id="metadata131">
    <rdf:RDF>
      <cc:Work
         rdf:about="">
        <dc:format>image/svg+xml</dc:format>
        <dc:type
           rdf:resource="http://purl.org/dc/dcmitype/StillImage" />
        <dc:title></dc:title>
      </cc:Work>
    </rdf:RDF>
  </metadata>
  <defs
     id="defs129" />
  <g
     id="surface4524"
     transform="translate(-106.66271,-220.39318)">
    <path
       style="fill:#1e51ab;fill-opacity:1;fill-rule:evenodd;stroke:none"
       d="m 203.20703,348.96875 c 9.93359,31.99219 29.8125,6.75391 77.10547,67.96094 -31.59766,-67.96094 -77.10547,-67.96094 -77.10547,-67.96094"
       id="path2" />
    <path
       style="fill:#1e51ab;fill-opacity:1;fill-rule:evenodd;stroke:none"
       d="m 383.64844,313.79297 c -37.75782,29.80859 -97.57422,5.96094 -128.77344,44.51562 45.50781,-18.28515 107.30859,5.96094 128.77344,-44.51562"
       id="path4" />
    <path
       style="fill:#1e51ab;fill-opacity:1;fill-rule:evenodd;stroke:none"
       d="m 303.96094,402.625 c -1.39063,-21.26563 17.48828,-46.10547 -21.86328,-44.71484 17.88671,11.72656 5.96484,14.90234 5.5664,44.71484 1.58985,45.90234 53.0625,102.9375 96.38281,127.78125 0,0 -70.15234,-49.08594 -80.08593,-127.78125"
       id="path6" />
    <path
       style="fill:#1e51ab;fill-opacity:1;fill-rule:evenodd;stroke:none"
       d="m 358.21094,352.14844 c -0.59375,0 -29.8086,6.7539 -30.00391,6.35937 -5.17187,4.96485 -8.14844,16.69141 -9.54297,29.01172 -6.55469,56.63672 46.10547,115.66016 76.90625,147.25781 4.50781,1.15235 41.13672,10.73047 41.13672,10.73047 0,0 -124.20312,-128.97265 -78.49609,-193.35937"
       id="path8" />
    <path
       style="fill:#1e51ab;fill-opacity:1;fill-rule:evenodd;stroke:none"
       d="m 211.55078,549.87891 c -3.17578,2.38671 -4.17187,1.98828 -10.92969,9.14062 -12.32031,-45.30859 25.4375,-78.09766 25.23828,-78.29687 0,0 -24.04296,31.59765 -14.30859,69.15625"
       id="path10" />
    <path
       style="fill:#1e51ab;fill-opacity:1;fill-rule:evenodd;stroke:none"
       d="m 245.33984,531.19922 c -7.16015,2.1875 -11.73047,4.17187 -19.8789,9.53906 -15.10157,-60.21484 31.59765,-92.21094 30.00781,-93.80078 0,0 -26.42578,38.75391 -10.12891,84.26172"
       id="path12" />
    <path
       style="fill:#1e51ab;fill-opacity:1;fill-rule:evenodd;stroke:none"
       d="m 292.43359,519.67187 c -10.92968,0.9961 -20.86718,1.78907 -32.78906,5.96094 -20.66797,-49.48047 7.94922,-71.73828 9.93359,-106.91406 10.13672,32.19531 -13.71093,49.48437 22.85547,100.95312"
       id="path14" />
    <path
       style="fill:#1e51ab;fill-opacity:1;fill-rule:evenodd;stroke:none"
       d="m 213.14062,298.88672 c 6.16016,-3.57422 16.69532,2.58203 23.25391,14.10937 6.75391,11.32813 6.95313,23.64844 0.99609,27.22266 -6.36328,3.58203 -16.69531,-2.77734 -23.45312,-14.10547 -6.75781,-11.32812 -6.95703,-23.64844 -0.79688,-27.22656"
       id="path16" />
    <path
       style="fill:#1e51ab;fill-opacity:1;fill-rule:evenodd;stroke:none"
       d="m 326.01953,265.89844 c 8.14453,2.38672 11.52344,16.09765 7.35156,30.20703 -4.17187,14.30859 -14.30859,23.84765 -22.45703,21.46094 -8.14453,-2.38282 -11.51953,-15.89454 -7.34765,-30.00782 4.17187,-14.30468 14.30468,-24.04297 22.45312,-21.66015"
       id="path18" />
    <path
       style="fill:#211e1e;fill-opacity:1;fill-rule:nonzero;stroke:none"
       d="m 156.97266,580.08203 2.30859,0.58594 c -0.48438,1.88672 -1.35547,3.33203 -2.60938,4.32812 -1.2539,0.99219 -2.78515,1.48828 -4.60156,1.48828 -1.8789,0 -3.40234,-0.38281 -4.57812,-1.14453 -1.17578,-0.76562 -2.07032,-1.87109 -2.6836,-3.32031 -0.61328,-1.44922 -0.91797,-3.00781 -0.91797,-4.66797 0,-1.8125 0.34375,-3.39453 1.03516,-4.74609 0.69531,-1.34766 1.67969,-2.375 2.96094,-3.07422 1.27734,-0.69922 2.68359,-1.05078 4.21875,-1.05078 1.74219,0 3.20703,0.4414 4.39453,1.33203 1.1875,0.88672 2.01562,2.13281 2.48047,3.74219 l -2.26563,0.53515 c -0.40625,-1.26953 -0.99218,-2.1914 -1.76172,-2.76953 -0.76562,-0.58203 -1.73046,-0.86719 -2.89843,-0.86719 -1.33594,0 -2.44922,0.31641 -3.35157,0.96094 -0.89843,0.64453 -1.53125,1.50391 -1.89062,2.58594 -0.36719,1.07812 -0.54688,2.19141 -0.54688,3.33984 0,1.48438 0.21485,2.77344 0.64454,3.87891 0.43359,1.10156 1.10156,1.92969 2.01171,2.47656 0.91407,0.54688 1.89844,0.82031 2.96094,0.82031 1.28906,0 2.37891,-0.375 3.27344,-1.11718 0.89844,-0.7461 1.5,-1.85157 1.81641,-3.31641"
       id="path20" />
    <path
       style="fill:#211e1e;fill-opacity:1;fill-rule:nonzero;stroke:none"
       d="m 160.71484,586.1875 v -1.73438 l 8.03125,-9.21484 c -0.91406,0.0508 -1.71484,0.0703 -2.41406,0.0703 h -5.14453 v -1.73047 h 10.30859 v 1.41016 l -6.82422,8.00391 -1.3164,1.46093 c 0.95312,-0.0703 1.85547,-0.10546 2.69531,-0.10546 h 5.82813 v 1.83984 z m 0,0"
       id="path22" />
    <path
       style="fill:#211e1e;fill-opacity:1;fill-rule:nonzero;stroke:none"
       d="m 182.63672,582.125 2.20703,0.27344 c -0.34766,1.29297 -0.99219,2.29297 -1.92969,3.00781 -0.94531,0.70703 -2.14844,1.06641 -3.61328,1.06641 -1.84375,0 -3.30859,-0.57032 -4.38672,-1.70313 -1.08203,-1.13672 -1.62109,-2.72656 -1.62109,-4.78125 0,-2.12109 0.54687,-3.76953 1.63672,-4.94141 1.09765,-1.16796 2.51172,-1.75781 4.2539,-1.75781 1.6875,0 3.0625,0.57422 4.12891,1.72266 1.07031,1.14844 1.60547,2.76562 1.60547,4.84375 0,0.1289 -0.004,0.32031 -0.0117,0.57422 h -9.40234 c 0.0742,1.38281 0.46875,2.44531 1.17578,3.17968 0.70312,0.73829 1.57812,1.10547 2.63281,1.10547 0.78125,0 1.45312,-0.20703 2.00781,-0.61718 0.55469,-0.41016 0.99219,-1.06641 1.31641,-1.97266 m -7.01563,-3.45703 h 7.03907 c -0.0937,-1.0586 -0.36329,-1.85547 -0.80469,-2.38281 -0.6836,-0.82422 -1.56641,-1.23829 -2.64844,-1.23829 -0.98047,0 -1.80859,0.33204 -2.47656,0.98829 -0.66797,0.65234 -1.03906,1.53515 -1.10938,2.63281"
       id="path24" />
    <path
       style="fill:#211e1e;fill-opacity:1;fill-rule:nonzero;stroke:none"
       d="m 195.76172,581.56641 2.10156,0.27734 c -0.23047,1.44531 -0.81641,2.57812 -1.76562,3.39844 -0.94532,0.82031 -2.10547,1.23047 -3.48438,1.23047 -1.72266,0 -3.11328,-0.5625 -4.16016,-1.69141 -1.05078,-1.12891 -1.57812,-2.74609 -1.57812,-4.85156 0,-1.36328 0.23047,-2.55469 0.67969,-3.57422 0.45312,-1.02344 1.13672,-1.78906 2.0625,-2.30078 0.91797,-0.51172 1.92578,-0.76563 3.00781,-0.76563 1.37109,0 2.49219,0.34766 3.35937,1.04297 0.8711,0.69141 1.42969,1.67188 1.67969,2.94922 l -2.08203,0.32031 c -0.19531,-0.84765 -0.54687,-1.48437 -1.04687,-1.91406 -0.50391,-0.42578 -1.11329,-0.64063 -1.82422,-0.64063 -1.07813,0 -1.95703,0.38672 -2.62891,1.16016 -0.67187,0.76953 -1.00781,1.99219 -1.00781,3.66016 0,1.69531 0.32422,2.92968 0.97656,3.69922 0.64844,0.76562 1.49609,1.14843 2.54297,1.14843 0.83594,0 1.53516,-0.25781 2.09766,-0.77343 0.5625,-0.51563 0.92187,-1.30469 1.07031,-2.375"
       id="path26" />
    <path
       style="fill:#211e1e;fill-opacity:1;fill-rule:nonzero;stroke:none"
       d="m 199.69531,586.1875 v -17.41016 h 2.13672 v 6.2461 c 0.99609,-1.15235 2.25781,-1.73438 3.77734,-1.73438 0.92969,0 1.74219,0.1875 2.42969,0.55469 0.69141,0.36328 1.1836,0.875 1.48047,1.52344 0.29688,0.64843 0.44531,1.59375 0.44531,2.82812 v 7.99219 h -2.14062 v -7.99219 c 0,-1.0664 -0.23047,-1.84375 -0.69141,-2.33203 -0.46094,-0.48828 -1.12109,-0.73437 -1.96484,-0.73437 -0.63281,0 -1.23047,0.16796 -1.78906,0.49609 -0.5586,0.32812 -0.95704,0.77344 -1.19141,1.33594 -0.23828,0.5625 -0.35547,1.33984 -0.35547,2.32812 v 6.89844 z m 0,0"
       id="path28" />
    <path
       style="fill:#211e1e;fill-opacity:1;fill-rule:nonzero;stroke:none"
       d="m 220.25,586.1875 v -17.41016 h 5.99609 c 1.35157,0 2.38672,0.0859 3.09766,0.25391 1,0.22656 1.85156,0.64062 2.55469,1.24219 0.91797,0.77734 1.60547,1.76953 2.05859,2.97656 0.46094,1.20703 0.6875,2.58594 0.6875,4.13672 0,1.32031 -0.15625,2.49219 -0.46875,3.51562 -0.30469,1.01953 -0.69922,1.86719 -1.1875,2.53516 -0.48047,0.67187 -1.00781,1.19922 -1.58203,1.57812 -0.57422,0.38672 -1.26563,0.67969 -2.07813,0.875 -0.8125,0.19922 -1.74609,0.29688 -2.79687,0.29688 z m 2.30078,-2.05469 h 3.71875 c 1.14844,0 2.05078,-0.10547 2.70313,-0.32031 0.65234,-0.21484 1.17187,-0.51563 1.5625,-0.90234 0.54687,-0.54297 0.97265,-1.28516 1.27343,-2.20313 0.30469,-0.92187 0.46094,-2.03906 0.46094,-3.35547 0,-1.82031 -0.30078,-3.21875 -0.89844,-4.19531 -0.59765,-0.98047 -1.32422,-1.63281 -2.17968,-1.96484 -0.61719,-0.24219 -1.61329,-0.35938 -2.98047,-0.35938 h -3.66016 z m 0,0"
       id="path30" />
    <path
       style="fill:#211e1e;fill-opacity:1;fill-rule:nonzero;stroke:none"
       d="m 245.76953,584.63281 c -0.79297,0.67188 -1.55469,1.14453 -2.28516,1.42578 -0.73437,0.27344 -1.51953,0.41407 -2.35937,0.41407 -1.38672,0 -2.44922,-0.33594 -3.19531,-1.01563 -0.73828,-0.67578 -1.11328,-1.54297 -1.11328,-2.59375 0,-0.62109 0.13671,-1.18359 0.42187,-1.69531 0.27734,-0.51172 0.64844,-0.91797 1.10156,-1.22656 0.45703,-0.3086 0.96875,-0.54297 1.53907,-0.70313 0.41796,-0.10937 1.05078,-0.21875 1.89843,-0.32031 1.72657,-0.20313 3,-0.44922 3.81641,-0.73438 0.008,-0.29297 0.0117,-0.48047 0.0117,-0.55859 0,-0.87109 -0.20313,-1.48438 -0.60938,-1.83984 -0.54297,-0.48438 -1.35937,-0.72266 -2.43359,-0.72266 -1.00391,0 -1.74609,0.17187 -2.22656,0.52734 -0.48047,0.35157 -0.83203,0.97657 -1.0625,1.8711 l -2.08985,-0.28907 c 0.19141,-0.89062 0.50391,-1.61718 0.9375,-2.16406 0.4336,-0.55078 1.06641,-0.97656 1.89063,-1.27344 0.82031,-0.29296 1.77344,-0.44531 2.85937,-0.44531 1.07813,0 1.94922,0.12891 2.625,0.38281 0.67188,0.25391 1.16797,0.57032 1.48828,0.95704 0.3125,0.38281 0.53125,0.86718 0.66407,1.45312 0.0664,0.36328 0.10547,1.02344 0.10547,1.96875 v 2.85156 c 0,1.98828 0.043,3.2461 0.13671,3.76953 0.0898,0.52735 0.27344,1.03516 0.53907,1.51563 h -2.23438 c -0.21875,-0.44141 -0.36328,-0.96094 -0.42578,-1.55469 m -0.17578,-4.77734 c -0.78125,0.32031 -1.94141,0.58984 -3.49219,0.8125 -0.8789,0.125 -1.5039,0.26562 -1.86328,0.42578 -0.36719,0.15625 -0.64844,0.38672 -0.84375,0.69531 -0.19922,0.30469 -0.30078,0.64063 -0.30078,1.01563 0,0.57031 0.21875,1.04297 0.64844,1.42578 0.42968,0.375 1.0625,0.5664 1.89453,0.5664 0.82031,0 1.55469,-0.17968 2.19531,-0.53906 0.64063,-0.35937 1.11719,-0.85547 1.41406,-1.48047 0.23047,-0.48047 0.34766,-1.19531 0.34766,-2.13281 z m 0,0"
       id="path32" />
    <path
       style="fill:#211e1e;fill-opacity:1;fill-rule:nonzero;stroke:none"
       d="m 251.07031,586.1875 v -12.60938 h 1.91797 v 1.78907 c 0.92969,-1.38282 2.26563,-2.07813 4.01563,-2.07813 0.76171,0 1.45703,0.13672 2.09375,0.41016 0.64062,0.27344 1.11718,0.63281 1.43359,1.07812 0.31641,0.44141 0.53906,0.96875 0.66797,1.57813 0.0781,0.39453 0.11719,1.08984 0.11719,2.07812 v 7.75391 h -2.14063 v -7.67188 c 0,-0.86718 -0.082,-1.51953 -0.24609,-1.95312 -0.16797,-0.42969 -0.46485,-0.77734 -0.88282,-1.03125 -0.42578,-0.25781 -0.92187,-0.39063 -1.49218,-0.39063 -0.91407,0 -1.69532,0.29297 -2.35938,0.86719 -0.66406,0.58203 -0.99219,1.67578 -0.99219,3.29297 v 6.88672 z m 0,0"
       id="path34" />
    <path
       style="fill:#211e1e;fill-opacity:1;fill-rule:nonzero;stroke:none"
       d="m 272.82422,581.56641 2.09765,0.27734 c -0.22656,1.44531 -0.8125,2.57812 -1.76171,3.39844 -0.94532,0.82031 -2.10938,1.23047 -3.48438,1.23047 -1.72266,0 -3.11328,-0.5625 -4.16016,-1.69141 -1.05078,-1.12891 -1.57812,-2.74609 -1.57812,-4.85156 0,-1.36328 0.22656,-2.55469 0.67969,-3.57422 0.45312,-1.02344 1.13672,-1.78906 2.0625,-2.30078 0.91797,-0.51172 1.92578,-0.76563 3.00781,-0.76563 1.37109,0 2.49219,0.34766 3.35937,1.04297 0.8711,0.69141 1.42969,1.67188 1.67969,2.94922 l -2.08203,0.32031 c -0.19922,-0.84765 -0.54687,-1.48437 -1.05078,-1.91406 -0.5,-0.42578 -1.10938,-0.64063 -1.82031,-0.64063 -1.07813,0 -1.95703,0.38672 -2.62891,1.16016 -0.67187,0.76953 -1.00781,1.99219 -1.00781,3.66016 0,1.69531 0.32422,2.92968 0.97656,3.69922 0.64844,0.76562 1.49609,1.14843 2.53906,1.14843 0.83985,0 1.53907,-0.25781 2.10157,-0.77343 0.5625,-0.51563 0.91796,-1.30469 1.07031,-2.375"
       id="path36" />
    <path
       style="fill:#211e1e;fill-opacity:1;fill-rule:nonzero;stroke:none"
       d="m 285.38672,582.125 2.20703,0.27344 c -0.34766,1.29297 -0.99219,2.29297 -1.93359,3.00781 -0.94532,0.70703 -2.14844,1.06641 -3.60938,1.06641 -1.84766,0 -3.30859,-0.57032 -4.38672,-1.70313 -1.08203,-1.13672 -1.62109,-2.72656 -1.62109,-4.78125 0,-2.12109 0.54687,-3.76953 1.63672,-4.94141 1.09375,-1.16796 2.51172,-1.75781 4.2539,-1.75781 1.6836,0 3.0625,0.57422 4.12891,1.72266 1.07031,1.14844 1.60547,2.76562 1.60547,4.84375 0,0.1289 -0.004,0.32031 -0.0117,0.57422 H 278.25 c 0.0781,1.38281 0.47266,2.44531 1.17578,3.17968 0.70703,0.73829 1.58203,1.10547 2.63672,1.10547 0.78125,0 1.44922,-0.20703 2.00781,-0.61718 0.55469,-0.41016 0.99219,-1.06641 1.31641,-1.97266 m -7.01953,-3.45703 h 7.04297 c -0.0937,-1.0586 -0.36329,-1.85547 -0.80469,-2.38281 -0.6836,-0.82422 -1.56641,-1.23829 -2.64844,-1.23829 -0.98047,0 -1.80859,0.33204 -2.47656,0.98829 -0.66797,0.65234 -1.03906,1.53515 -1.11328,2.63281"
       id="path38" />
    <path
       style="fill:#211e1e;fill-opacity:1;fill-rule:nonzero;stroke:none"
       d="m 296.52734,580.59375 2.17578,-0.19141 c 0.10157,0.8711 0.33985,1.58594 0.71485,2.14453 0.3789,0.5586 0.96094,1.01172 1.7539,1.35547 0.78907,0.34375 1.67969,0.51563 2.66797,0.51563 0.88282,0 1.65625,-0.13281 2.32813,-0.39063 0.67187,-0.26172 1.17578,-0.62109 1.5039,-1.07422 0.32813,-0.46093 0.4961,-0.95312 0.4961,-1.49218 0,-0.54688 -0.16016,-1.01953 -0.48047,-1.42969 -0.31641,-0.41016 -0.83594,-0.75 -1.5625,-1.02734 -0.47266,-0.17969 -1.5,-0.46485 -3.10156,-0.85157 -1.59766,-0.38281 -2.71875,-0.74609 -3.36328,-1.08593 -0.82813,-0.4336 -1.44922,-0.97657 -1.85938,-1.6211 -0.40234,-0.64453 -0.60547,-1.36719 -0.60547,-2.16797 0,-0.875 0.2461,-1.69922 0.7461,-2.46093 0.49609,-0.76563 1.22656,-1.34375 2.18359,-1.74219 0.96094,-0.39453 2.02344,-0.59375 3.19531,-0.59375 1.29297,0 2.42578,0.20703 3.41406,0.625 0.98829,0.41406 1.7461,1.02734 2.27735,1.83203 0.52344,0.80469 0.8125,1.72266 0.85156,2.74609 l -2.20703,0.16407 c -0.12109,-1.09766 -0.52344,-1.9336 -1.20703,-2.49219 -0.6875,-0.5625 -1.69531,-0.84375 -3.03516,-0.84375 -1.39062,0 -2.40625,0.25781 -3.04687,0.76562 -0.63672,0.51172 -0.95703,1.12891 -0.95703,1.84766 0,0.625 0.22656,1.14062 0.67578,1.54297 0.44922,0.40625 1.60156,0.82031 3.47656,1.23828 1.87109,0.42578 3.15625,0.79687 3.85547,1.11328 1.01172,0.46875 1.76172,1.0625 2.24219,1.77344 0.48437,0.71875 0.72265,1.54687 0.72265,2.47656 0,0.92969 -0.26172,1.80078 -0.79297,2.62109 -0.53125,0.81641 -1.29297,1.45313 -2.28515,1.91407 -0.99219,0.45312 -2.11328,0.67968 -3.35547,0.67968 -1.57422,0 -2.89453,-0.22656 -3.95703,-0.6914 -1.06641,-0.45703 -1.90235,-1.14453 -2.51172,-2.07031 -0.60156,-0.91797 -0.92188,-1.96485 -0.95313,-3.12891"
       id="path40" />
    <path
       style="fill:#211e1e;fill-opacity:1;fill-rule:nonzero;stroke:none"
       d="m 313.26172,591.01953 v -17.44141 h 1.94531 v 1.63672 c 0.45703,-0.64062 0.97656,-1.12109 1.55859,-1.4414 0.57422,-0.32032 1.27344,-0.48438 2.09766,-0.48438 1.07813,0 2.02734,0.28125 2.85156,0.83203 0.82422,0.55469 1.44532,1.33594 1.86328,2.34766 0.42188,1.00781 0.63282,2.11328 0.63282,3.32031 0,1.28906 -0.23047,2.44922 -0.69532,3.48438 -0.46484,1.03515 -1.13671,1.82422 -2.01953,2.375 -0.88281,0.54687 -1.8125,0.82422 -2.78515,0.82422 -0.71485,0 -1.35157,-0.15235 -1.91797,-0.44922 -0.56641,-0.30078 -1.03125,-0.6836 -1.39453,-1.14063 v 6.13672 z m 1.93359,-11.06641 c 0,1.6211 0.32813,2.82032 0.98438,3.60157 0.65625,0.77343 1.45703,1.16015 2.39062,1.16015 0.94531,0 1.76172,-0.39843 2.4375,-1.20703 0.67969,-0.80078 1.01953,-2.04687 1.01953,-3.73437 0,-1.60938 -0.33203,-2.8086 -0.99609,-3.60938 -0.66016,-0.80078 -1.44922,-1.19922 -2.36719,-1.19922 -0.91015,0 -1.71875,0.42578 -2.41797,1.27735 -0.70312,0.84765 -1.05078,2.08984 -1.05078,3.71093"
       id="path42" />
    <path
       style="fill:#211e1e;fill-opacity:1;fill-rule:nonzero;stroke:none"
       d="m 325.98828,579.87891 c 0,-2.33204 0.64844,-4.0625 1.94922,-5.1875 1.08594,-0.9336 2.40625,-1.40235 3.96484,-1.40235 1.73438,0 3.15625,0.56641 4.25391,1.70703 1.10156,1.13672 1.64844,2.70313 1.64844,4.70703 0,1.625 -0.24219,2.90235 -0.72657,3.82813 -0.48828,0.93359 -1.19531,1.65625 -2.125,2.17187 -0.93359,0.51172 -1.94531,0.76954 -3.05078,0.76954 -1.76172,0 -3.1875,-0.56641 -4.27734,-1.69922 -1.09375,-1.13282 -1.63672,-2.76172 -1.63672,-4.89453 m 2.19922,0 c 0,1.61718 0.35156,2.82812 1.05859,3.6289 0.70313,0.8086 1.59375,1.20703 2.65625,1.20703 1.0625,0 1.94532,-0.40234 2.65235,-1.21093 0.70312,-0.8086 1.05468,-2.03907 1.05468,-3.69141 0,-1.5625 -0.35156,-2.74609 -1.0625,-3.54688 -0.70703,-0.80468 -1.58984,-1.20312 -2.64453,-1.20312 -1.0625,0 -1.95312,0.39844 -2.65625,1.19922 -0.70703,0.79687 -1.05859,2.0039 -1.05859,3.61719"
       id="path44" />
    <path
       style="fill:#211e1e;fill-opacity:1;fill-rule:nonzero;stroke:none"
       d="m 340.28906,586.1875 v -12.60938 h 1.92188 v 1.91016 c 0.49218,-0.89453 0.94531,-1.48828 1.36328,-1.76953 0.41406,-0.28516 0.87109,-0.42969 1.37109,-0.42969 0.71875,0 1.44922,0.23047 2.19531,0.69141 l -0.73828,1.98437 c -0.51562,-0.3125 -1.03906,-0.46484 -1.5625,-0.46484 -0.47265,0 -0.89062,0.14062 -1.26172,0.41797 -0.375,0.28515 -0.63671,0.67578 -0.79687,1.17187 -0.23438,0.76172 -0.35547,1.58985 -0.35547,2.49219 v 6.60547 z m 0,0"
       id="path46" />
    <path
       style="fill:#211e1e;fill-opacity:1;fill-rule:nonzero;stroke:none"
       d="m 353.08203,584.27344 0.30469,1.89062 c -0.59766,0.125 -1.13672,0.19141 -1.61328,0.19141 -0.77735,0 -1.37891,-0.1211 -1.80469,-0.3711 -0.42578,-0.24218 -0.72656,-0.5664 -0.90234,-0.96875 -0.17188,-0.39843 -0.26172,-1.23828 -0.26172,-2.51953 v -7.25781 h -1.57032 v -1.66016 h 1.57032 v -3.125 l 2.1289,-1.28125 v 4.40625 h 2.14844 v 1.66016 h -2.14844 v 7.375 c 0,0.60938 0.0352,1 0.10938,1.17578 0.0742,0.17188 0.19531,0.3125 0.36719,0.41797 0.17187,0.10156 0.41406,0.15234 0.73046,0.15234 0.23829,0 0.55079,-0.0273 0.94141,-0.0859"
       id="path48" />
    <path
       style="fill:#211e1e;fill-opacity:1;fill-rule:nonzero;stroke:none"
       d="m 362.31641,586.1875 v -17.41016 h 11.75 v 2.05469 H 364.625 v 5.39063 h 8.16797 v 2.05859 H 364.625 v 7.90625 z m 0,0"
       id="path50" />
    <path
       style="fill:#211e1e;fill-opacity:1;fill-rule:nonzero;stroke:none"
       d="m 385.41406,582.125 2.21094,0.27344 c -0.35156,1.29297 -0.99219,2.29297 -1.93359,3.00781 -0.94532,0.70703 -2.14844,1.06641 -3.61329,1.06641 -1.84375,0 -3.30859,-0.57032 -4.38671,-1.70313 -1.08204,-1.13672 -1.6211,-2.72656 -1.6211,-4.78125 0,-2.12109 0.54688,-3.76953 1.64063,-4.94141 1.09375,-1.16796 2.50781,-1.75781 4.25,-1.75781 1.6875,0 3.0664,0.57422 4.13281,1.72266 1.06641,1.14844 1.60156,2.76562 1.60156,4.84375 0,0.1289 -0.004,0.32031 -0.0117,0.57422 h -9.40234 c 0.0742,1.38281 0.46875,2.44531 1.17578,3.17968 0.70313,0.73829 1.57813,1.10547 2.63281,1.10547 0.78125,0 1.45313,-0.20703 2.00782,-0.61718 0.55468,-0.41016 0.99218,-1.06641 1.3164,-1.97266 m -7.01562,-3.45703 h 7.03906 c -0.0898,-1.0586 -0.36328,-1.85547 -0.80469,-2.38281 -0.68359,-0.82422 -1.5664,-1.23829 -2.64844,-1.23829 -0.98046,0 -1.80468,0.33204 -2.47656,0.98829 -0.66797,0.65234 -1.03515,1.53515 -1.10937,2.63281"
       id="path52" />
    <path
       style="fill:#211e1e;fill-opacity:1;fill-rule:nonzero;stroke:none"
       d="m 398.49219,586.1875 v -1.59375 c -0.80078,1.25391 -1.97657,1.87891 -3.52735,1.87891 -1.0039,0 -1.92968,-0.27735 -2.77343,-0.83204 -0.84375,-0.55078 -1.4961,-1.32421 -1.96094,-2.32421 -0.46094,-0.99219 -0.69141,-2.12891 -0.69141,-3.42188 0,-1.25781 0.21094,-2.40234 0.62891,-3.42578 0.41797,-1.02734 1.04687,-1.8125 1.88672,-2.35547 0.83984,-0.54687 1.78125,-0.82422 2.8164,-0.82422 0.75782,0 1.4336,0.16406 2.02735,0.48438 0.59765,0.32031 1.07812,0.73437 1.44922,1.25 v -6.2461 h 2.125 v 17.41016 z m -6.75782,-6.29297 c 0,1.61719 0.33985,2.82422 1.02344,3.62109 0.67969,0.80079 1.48047,1.19922 2.41016,1.19922 0.92969,0 1.72656,-0.38281 2.3789,-1.14453 0.65235,-0.76172 0.98047,-1.92969 0.98047,-3.5 0,-1.72656 -0.33203,-2.99219 -0.99609,-3.79687 -0.66406,-0.8125 -1.48438,-1.21094 -2.46094,-1.21094 -0.94922,0 -1.74219,0.38672 -2.3789,1.16016 -0.63672,0.77734 -0.95704,2 -0.95704,3.67187"
       id="path54" />
    <path
       style="fill:#211e1e;fill-opacity:1;fill-rule:nonzero;stroke:none"
       d="m 412.46875,582.125 2.21094,0.27344 c -0.35157,1.29297 -0.9961,2.29297 -1.9375,3.00781 -0.94141,0.70703 -2.14453,1.06641 -3.60938,1.06641 -1.84375,0 -3.30859,-0.57032 -4.38672,-1.70313 -1.08203,-1.13672 -1.62109,-2.72656 -1.62109,-4.78125 0,-2.12109 0.54687,-3.76953 1.63672,-4.94141 1.09765,-1.16796 2.51172,-1.75781 4.2539,-1.75781 1.6836,0 3.0625,0.57422 4.12891,1.72266 1.07031,1.14844 1.60547,2.76562 1.60547,4.84375 0,0.1289 -0.004,0.32031 -0.0117,0.57422 h -9.40625 c 0.0781,1.38281 0.47266,2.44531 1.17969,3.17968 0.70312,0.73829 1.57812,1.10547 2.63281,1.10547 0.78125,0 1.45313,-0.20703 2.00781,-0.61718 0.55469,-0.41016 0.99219,-1.06641 1.31641,-1.97266 m -7.01563,-3.45703 h 7.03907 c -0.0937,-1.0586 -0.36328,-1.85547 -0.80469,-2.38281 -0.68359,-0.82422 -1.56641,-1.23829 -2.64844,-1.23829 -0.98047,0 -1.80859,0.33204 -2.47656,0.98829 -0.66797,0.65234 -1.03906,1.53515 -1.10938,2.63281"
       id="path56" />
    <path
       style="fill:#211e1e;fill-opacity:1;fill-rule:nonzero;stroke:none"
       d="m 417.33984,586.1875 v -12.60938 h 1.92188 v 1.91016 c 0.49219,-0.89453 0.94531,-1.48828 1.36328,-1.76953 0.41016,-0.28516 0.87109,-0.42969 1.36719,-0.42969 0.72265,0 1.45312,0.23047 2.19922,0.69141 l -0.73829,1.98437 c -0.51953,-0.3125 -1.04296,-0.46484 -1.5625,-0.46484 -0.47265,0 -0.89062,0.14062 -1.26171,0.41797 -0.375,0.28515 -0.63672,0.67578 -0.79688,1.17187 -0.23828,0.76172 -0.35547,1.58985 -0.35547,2.49219 v 6.60547 z m 0,0"
       id="path58" />
    <path
       style="fill:#211e1e;fill-opacity:1;fill-rule:nonzero;stroke:none"
       d="m 433.69141,584.63281 c -0.79297,0.67188 -1.55469,1.14453 -2.28516,1.42578 -0.73438,0.27344 -1.51953,0.41407 -2.35938,0.41407 -1.38671,0 -2.44921,-0.33594 -3.19531,-1.01563 -0.73828,-0.67578 -1.11328,-1.54297 -1.11328,-2.59375 0,-0.62109 0.13672,-1.18359 0.42188,-1.69531 0.27734,-0.51172 0.64843,-0.91797 1.10156,-1.22656 0.45703,-0.3086 0.96875,-0.54297 1.53906,-0.70313 0.41797,-0.10937 1.05078,-0.21875 1.89844,-0.32031 1.72656,-0.20313 3,-0.44922 3.8125,-0.73438 0.0117,-0.29297 0.0156,-0.48047 0.0156,-0.55859 0,-0.87109 -0.20312,-1.48438 -0.60937,-1.83984 -0.54297,-0.48438 -1.35938,-0.72266 -2.42969,-0.72266 -1.00781,0 -1.75,0.17187 -2.23047,0.52734 -0.48047,0.35157 -0.83203,0.97657 -1.0625,1.8711 l -2.08984,-0.28907 c 0.1914,-0.89062 0.5039,-1.61718 0.9375,-2.16406 0.43359,-0.55078 1.0664,-0.97656 1.89062,-1.27344 0.82032,-0.29296 1.77344,-0.44531 2.85938,-0.44531 1.07812,0 1.95312,0.12891 2.625,0.38281 0.67187,0.25391 1.16797,0.57032 1.48828,0.95704 0.3125,0.38281 0.53125,0.86718 0.66406,1.45312 0.0664,0.36328 0.10547,1.02344 0.10547,1.96875 v 2.85156 c 0,1.98828 0.043,3.2461 0.13672,3.76953 0.0898,0.52735 0.27344,1.03516 0.53906,1.51563 h -2.23437 c -0.21875,-0.44141 -0.36328,-0.96094 -0.42578,-1.55469 m -0.17969,-4.77734 c -0.77344,0.32031 -1.9375,0.58984 -3.48828,0.8125 -0.87891,0.125 -1.50391,0.26562 -1.86328,0.42578 -0.36329,0.15625 -0.64844,0.38672 -0.84375,0.69531 -0.19922,0.30469 -0.30079,0.64063 -0.30079,1.01563 0,0.57031 0.21875,1.04297 0.64844,1.42578 0.42969,0.375 1.0625,0.5664 1.89453,0.5664 0.82032,0 1.55469,-0.17968 2.19532,-0.53906 0.64062,-0.35937 1.11718,-0.85547 1.41796,-1.48047 0.23047,-0.48047 0.33985,-1.19531 0.33985,-2.13281 z m 0,0"
       id="path60" />
    <path
       style="fill:#211e1e;fill-opacity:1;fill-rule:nonzero;stroke:none"
       d="m 443.65625,584.27344 0.30859,1.89062 c -0.60156,0.125 -1.14062,0.19141 -1.61328,0.19141 -0.78125,0 -1.3789,-0.1211 -1.80859,-0.3711 -0.42578,-0.24218 -0.72656,-0.5664 -0.89844,-0.96875 -0.17578,-0.39843 -0.26562,-1.23828 -0.26562,-2.51953 v -7.25781 h -1.57032 v -1.66016 h 1.57032 v -3.125 l 2.1289,-1.28125 v 4.40625 h 2.14844 v 1.66016 h -2.14844 v 7.375 c 0,0.60938 0.0352,1 0.10938,1.17578 0.0781,0.17188 0.19922,0.3125 0.36718,0.41797 0.17188,0.10156 0.41407,0.15234 0.73047,0.15234 0.24219,0 0.55078,-0.0273 0.94141,-0.0859"
       id="path62" />
    <path
       style="fill:#211e1e;fill-opacity:1;fill-rule:nonzero;stroke:none"
       d="m 445.75781,568.77734 h 2.14063 v 2.46094 h -2.14063 z m 0,4.80078 h 2.14063 v 12.60938 h -2.14063 z m 0,0"
       id="path64" />
    <path
       style="fill:#211e1e;fill-opacity:1;fill-rule:nonzero;stroke:none"
       d="m 450.35156,579.87891 c 0,-2.33204 0.64844,-4.0625 1.94922,-5.1875 1.08203,-0.9336 2.40625,-1.40235 3.96484,-1.40235 1.73438,0 3.15235,0.56641 4.25391,1.70703 1.10156,1.13672 1.64844,2.70313 1.64844,4.70703 0,1.625 -0.24219,2.90235 -0.72656,3.82813 -0.48829,0.93359 -1.19922,1.65625 -2.125,2.17187 -0.9336,0.51172 -1.94532,0.76954 -3.05079,0.76954 -1.76171,0 -3.1875,-0.56641 -4.27734,-1.69922 -1.09375,-1.13282 -1.63672,-2.76172 -1.63672,-4.89453 m 2.19922,0 c 0,1.61718 0.35156,2.82812 1.05859,3.6289 0.70313,0.8086 1.59375,1.20703 2.65625,1.20703 1.0625,0 1.94532,-0.40234 2.65235,-1.21093 0.70312,-0.8086 1.05469,-2.03907 1.05469,-3.69141 0,-1.5625 -0.35157,-2.74609 -1.0625,-3.54688 -0.71094,-0.80468 -1.58985,-1.20312 -2.64454,-1.20312 -1.0625,0 -1.95312,0.39844 -2.65625,1.19922 -0.70703,0.79687 -1.05859,2.0039 -1.05859,3.61719"
       id="path66" />
    <path
       style="fill:#211e1e;fill-opacity:1;fill-rule:nonzero;stroke:none"
       d="m 464.67578,586.1875 v -12.60938 h 1.92578 v 1.78907 c 0.92578,-1.38282 2.26172,-2.07813 4.01172,-2.07813 0.76172,0 1.45703,0.13672 2.09375,0.41016 0.64063,0.27344 1.11719,0.63281 1.43359,1.07812 0.31641,0.44141 0.53516,0.96875 0.66797,1.57813 0.0742,0.39453 0.11719,1.08984 0.11719,2.07812 v 7.75391 h -2.14062 v -7.67188 c 0,-0.86718 -0.082,-1.51953 -0.25,-1.95312 -0.16407,-0.42969 -0.46094,-0.77734 -0.87891,-1.03125 -0.42578,-0.25781 -0.92188,-0.39063 -1.49609,-0.39063 -0.91016,0 -1.69141,0.29297 -2.35938,0.86719 -0.65625,0.58203 -0.98828,1.67578 -0.98828,3.29297 v 6.88672 z m 0,0"
       id="path68" />
    <path
       style="fill:#211e1e;fill-opacity:1;fill-rule:nonzero;stroke:none"
       d="m 157.28516,508.92969 -0.92969,-3.62891 c 1.97656,-0.58984 3.71094,-0.60156 5.20703,-0.0352 1.49219,0.57032 2.75781,1.67969 3.79687,3.33985 1.28125,2.05469 1.63282,4.17969 1.05469,6.3789 -0.57422,2.19922 -2.07812,4.0625 -4.51172,5.58204 -2.57422,1.60546 -4.98437,2.1914 -7.24218,1.75 -2.25391,-0.4375 -4.0586,-1.74219 -5.41407,-3.90625 -1.17968,-1.89063 -1.58203,-3.77735 -1.20312,-5.65625 0.22265,-1.11719 0.84375,-2.23829 1.86328,-3.36329 l 2.66406,2.63282 c -0.68359,0.67968 -1.07812,1.45312 -1.17969,2.32422 -0.10156,0.87109 0.10547,1.72265 0.625,2.55468 0.71875,1.14453 1.70704,1.81641 2.97657,2.01563 1.26953,0.19922 2.82422,-0.27735 4.66797,-1.42578 1.95312,-1.22266 3.125,-2.44141 3.51562,-3.66797 0.39063,-1.21875 0.23828,-2.39453 -0.46875,-3.51953 -0.51562,-0.82813 -1.22656,-1.37891 -2.125,-1.64453 -0.90625,-0.26954 -2,-0.17969 -3.29687,0.26953 m -9.41407,15.72265 -1.5,-2.39453 0.86328,-2.12109 -2.33593,-0.24219 -1.49219,-2.38281 4.47656,0.23828 1.71485,2.74219 z m 0,0"
       id="path70" />
    <path
       style="fill:#211e1e;fill-opacity:1;fill-rule:nonzero;stroke:none"
       d="m 154.20312,487.85156 -17.02343,6.53125 -4.84375,-12.62109 2.8789,-1.10547 3.52344,9.18359 3.77734,-1.44531 -3.28515,-8.55078 2.87109,-1.09766 3.27735,8.54297 4.63671,-1.77344 -3.65625,-9.50781 2.8711,-1.10547 z m 0,0"
       id="path72" />
    <path
       style="fill:#211e1e;fill-opacity:1;fill-rule:nonzero;stroke:none"
       d="m 139.32031,461.41797 -0.96875,-3.46485 c 1.14453,-0.41796 1.94141,-1.00781 2.38281,-1.7539 0.44141,-0.7461 0.5625,-1.67188 0.36719,-2.77344 -0.20312,-1.16797 -0.60547,-2.00391 -1.20312,-2.50781 -0.60157,-0.50781 -1.23047,-0.70313 -1.89063,-0.58203 -0.42578,0.0742 -0.76562,0.26172 -1.01953,0.5625 -0.25391,0.30468 -0.4375,0.78125 -0.54687,1.4414 -0.0742,0.44922 -0.16407,1.46485 -0.27344,3.03907 -0.14063,2.03125 -0.48828,3.5 -1.05469,4.41015 -0.79297,1.27344 -1.90234,2.03906 -3.32031,2.28906 -0.91797,0.16016 -1.81641,0.0508 -2.70313,-0.32812 -0.89062,-0.37891 -1.6289,-1.01563 -2.21484,-1.91797 -0.58984,-0.90234 -1.00391,-2.04297 -1.24609,-3.42578 -0.39844,-2.25391 -0.20703,-4.03516 0.58593,-5.34766 0.78516,-1.3125 2,-2.14453 3.63672,-2.49609 l 0.80078,3.59766 c -0.89843,0.32031 -1.5039,0.76953 -1.82031,1.35156 -0.3125,0.58203 -0.375,1.38281 -0.19922,2.40234 0.1875,1.05469 0.55078,1.83985 1.08985,2.36328 0.34375,0.32813 0.74609,0.45703 1.21484,0.37891 0.42187,-0.0781 0.75391,-0.32031 0.99219,-0.73047 0.30468,-0.52734 0.51172,-1.71094 0.61718,-3.54687 0.10157,-1.83594 0.30469,-3.21485 0.59766,-4.14063 0.29688,-0.92187 0.78906,-1.69141 1.47656,-2.30469 0.6875,-0.61328 1.59766,-1.01953 2.73438,-1.21875 1.03125,-0.18359 2.04297,-0.0703 3.04297,0.34766 0.99609,0.41016 1.80859,1.09766 2.42968,2.06641 0.61719,0.96875 1.07032,2.23437 1.34375,3.79296 0.39844,2.26954 0.1836,4.10547 -0.65234,5.50782 -0.83203,1.40234 -2.23437,2.39843 -4.19922,2.98828"
       id="path74" />
    <path
       style="fill:#211e1e;fill-opacity:1;fill-rule:nonzero;stroke:none"
       d="m 140.83594,429.58203 -18.23047,0.32031 -0.0625,-3.68359 8.09765,-0.14063 -8.22656,-7.29296 -0.0859,-4.94922 7.22265,6.73828 11,-7.42969 0.082,4.75781 -8.46875,5.16407 3.10156,2.93359 5.50782,-0.0977 z m 0,0"
       id="path76" />
    <path
       style="fill:#211e1e;fill-opacity:1;fill-rule:nonzero;stroke:none"
       d="m 143.17187,393.62109 -7.53515,-1.46093 -11.64063,4.53906 0.82422,-4.23828 7.89844,-2.83203 -6.27344,-5.50782 0.80469,-4.16015 9.11328,8.59765 7.50781,1.46094 z m -19.01562,-3.20312 -3.32031,-2.39453 0.74609,-3.84766 2.9961,4.07031 z m 0,0"
       id="path78" />
    <path
       style="fill:#211e1e;fill-opacity:1;fill-rule:nonzero;stroke:none"
       d="m 145.59375,359.60156 1.19531,-3.39062 c 1.1836,0.30859 2.17188,0.28906 2.96094,-0.0742 0.78906,-0.35547 1.41797,-1.04297 1.89453,-2.0586 0.5,-1.07421 0.64844,-1.99218 0.44922,-2.74609 -0.19922,-0.75781 -0.60547,-1.28125 -1.21484,-1.56641 -0.39063,-0.17578 -0.77735,-0.21875 -1.16016,-0.11718 -0.38281,0.10156 -0.80469,0.39062 -1.27344,0.86718 -0.32031,0.32422 -0.97265,1.10938 -1.96875,2.33594 -1.27734,1.58203 -2.41015,2.58203 -3.39062,3 -1.38282,0.58985 -2.72657,0.58203 -4.03516,-0.0273 -0.83984,-0.39063 -1.51953,-1 -2.02734,-1.82031 -0.51172,-0.81641 -0.75,-1.76563 -0.71485,-2.83985 0.0391,-1.07812 0.35157,-2.25 0.94141,-3.51953 0.96875,-2.07812 2.15625,-3.42187 3.55078,-4.05078 1.39844,-0.625 2.86719,-0.60938 4.41406,0.0469 l -1.41015,3.40235 c -0.91797,-0.25 -1.66797,-0.22656 -2.26563,0.0703 -0.58984,0.29297 -1.10156,0.91406 -1.53906,1.85156 -0.45703,0.96875 -0.60938,1.82032 -0.46484,2.55469 0.0898,0.47266 0.34765,0.80859 0.77734,1.00781 0.39062,0.1836 0.80469,0.17578 1.23437,-0.0273 0.55079,-0.25781 1.39454,-1.10547 2.53516,-2.55078 1.14063,-1.44531 2.09766,-2.46094 2.86719,-3.04688 0.77344,-0.58984 1.62109,-0.9375 2.53125,-1.04297 0.91797,-0.10937 1.89844,0.082 2.94531,0.56641 0.94531,0.44141 1.71094,1.12109 2.29297,2.03125 0.57422,0.91016 0.84375,1.94141 0.79687,3.08984 -0.043,1.15235 -0.40234,2.44532 -1.07031,3.87891 -0.97656,2.08984 -2.20703,3.46875 -3.69531,4.13672 -1.48828,0.67187 -3.20703,0.6875 -5.15625,0.0391"
       id="path80" />
    <path
       style="fill:#211e1e;fill-opacity:1;fill-rule:nonzero;stroke:none"
       d="m 167.25781,330.48047 -18.84375,-4.46485 2.17578,-3.35156 13.82813,3.48438 -8.88281,-11.09766 2.1289,-3.27344 11.73438,15.40625 z m 0,0"
       id="path82" />
    <path
       style="fill:#211e1e;fill-opacity:1;fill-rule:nonzero;stroke:none"
       d="m 192.50781,299.84375 -2.78125,2.87891 -4.08594,-1.73438 -5.0664,5.24609 1.9375,3.95704 -2.71485,2.8125 -8.17968,-17.77735 2.70312,-2.79687 z m -9.89844,-0.13672 -6.61328,-2.89062 3.15625,6.47265 z m 0,0"
       id="path84" />
    <path
       style="fill:#211e1e;fill-opacity:1;fill-rule:nonzero;stroke:none"
       d="m 202.45312,290.92187 -2.04687,-2.61718 0.26953,-15.21485 -6.69531,5.23047 -1.90235,-2.42578 10.51954,-8.21875 1.75781,2.25391 -0.29688,15.83984 8.17578,-6.38672 1.88672,2.42188 z m 0,0"
       id="path86" />
    <path
       style="fill:#211e1e;fill-opacity:1;fill-rule:nonzero;stroke:none"
       d="m 238.36328,268.53906 -6.16016,-13.83594 -4.9414,2.19922 -1.25391,-2.8164 13.23438,-5.89453 1.25781,2.8164 -4.93359,2.19531 6.16015,13.83985 z m 0,0"
       id="path88" />
    <path
       style="fill:#211e1e;fill-opacity:1;fill-rule:nonzero;stroke:none"
       d="m 275.1875,256.03516 -3.86719,1.03515 -2.61328,-3.58594 -7.04297,1.88282 -0.3789,4.39453 -3.77344,1.00781 2.14062,-19.44922 3.76172,-1.01172 z m -8.41797,-5.21485 -4.17969,-5.88672 -0.6289,7.17578 z m 0,0"
       id="path90" />
    <path
       style="fill:#211e1e;fill-opacity:1;fill-rule:nonzero;stroke:none"
       d="m 289.98828,253.75781 -1.26953,-18.1875 3.57031,-0.25 8.29297,11.62891 -0.84766,-12.14844 3.41016,-0.23437 1.27344,18.18359 -3.6836,0.25781 -8.16406,-11.34765 0.82813,11.86328 z m 0,0"
       id="path92" />
    <path
       style="fill:#211e1e;fill-opacity:1;fill-rule:nonzero;stroke:none"
       d="m 321.29687,253.09766 2.22266,-18.09375 13.41797,1.64453 -0.37891,3.0625 -9.76172,-1.19922 -0.49218,4.01172 9.08593,1.11718 -0.375,3.04688 -9.08593,-1.11719 -0.60157,4.92578 10.10547,1.24219 -0.37109,3.04688 z m 0,0"
       id="path94" />
    <path
       style="fill:#211e1e;fill-opacity:1;fill-rule:nonzero;stroke:none"
       d="m 363.94922,254.48047 3.15234,2.01953 c -1.04297,1.77734 -2.30469,2.97266 -3.78125,3.57422 -1.48047,0.60547 -3.16797,0.65234 -5.05859,0.14844 -2.33594,-0.62891 -4.04688,-1.94141 -5.1211,-3.94532 -1.07812,-2 -1.25,-4.38672 -0.5039,-7.15625 0.78515,-2.93359 2.15234,-5.0039 4.10156,-6.22265 1.94922,-1.21485 4.15625,-1.49219 6.62109,-0.83594 2.15625,0.57812 3.73438,1.6875 4.73829,3.32031 0.59765,0.96485 0.91406,2.21094 0.93359,3.72656 l -3.74609,-0.10156 c 0.0391,-0.96875 -0.20313,-1.80469 -0.72657,-2.51562 -0.51562,-0.70313 -1.24609,-1.1836 -2.19531,-1.4336 -1.30469,-0.35156 -2.48828,-0.16797 -3.55469,0.55078 -1.05859,0.72266 -1.875,2.12891 -2.4375,4.23047 -0.59765,2.22657 -0.61718,3.91797 -0.0703,5.07813 0.54297,1.16015 1.46094,1.91406 2.74219,2.2539 0.9414,0.25391 1.83984,0.17188 2.67969,-0.25 0.83984,-0.41406 1.58593,-1.23046 2.22656,-2.4414 m -3.83985,-17.91797 2.72657,0.73047 0.8164,2.13672 1.875,-1.41797 2.71485,0.72656 -3.4375,2.87891 -3.125,-0.83594 z m 0,0"
       id="path96" />
    <path
       style="fill:#211e1e;fill-opacity:1;fill-rule:nonzero;stroke:none"
       d="m 380.41016,268.50781 8.27734,-16.24219 3.19141,1.625 L 393,268.125 l 5.52734,-10.84766 3.04297,1.55469 -8.27344,16.24219 -3.29296,-1.67969 -1.15235,-13.92578 -5.39453,10.59375 z m 0,0"
       id="path98" />
    <path
       style="fill:#211e1e;fill-opacity:1;fill-rule:nonzero;stroke:none"
       d="m 407.17578,284.19141 10.45313,-14.9375 3.01953,2.11718 -10.45703,14.92969 z m 10.71094,-16.03125 3.53906,-2.0625 3.20703,2.24609 -4.93359,1.08594 z m 0,0"
       id="path100" />
    <path
       style="fill:#211e1e;fill-opacity:1;fill-rule:nonzero;stroke:none"
       d="m 422.81641,296.95312 12.4375,-13.33984 2.6914,2.51563 -4.89844,5.24609 5.28125,4.91797 4.89063,-5.2461 2.69141,2.50782 -12.4336,13.33984 -2.6914,-2.51562 5.43359,-5.83204 -5.27344,-4.91406 -5.4375,5.82813 z m 0,0"
       id="path102" />
    <path
       style="fill:#211e1e;fill-opacity:1;fill-rule:nonzero;stroke:none"
       d="m 450.80469,314.21094 c 1.5039,-1.09375 2.92578,-1.78516 4.27343,-2.07422 0.99219,-0.21094 2.00391,-0.24219 3.01954,-0.0977 1.01953,0.14844 1.92578,0.46485 2.71875,0.94531 1.05078,0.63672 2.01953,1.55079 2.89062,2.75391 1.57813,2.17578 2.16797,4.40625 1.76563,6.6875 -0.39844,2.28516 -1.80079,4.30078 -4.19922,6.04297 -2.38282,1.73047 -4.71875,2.4375 -7,2.12109 -2.28516,-0.32031 -4.21875,-1.55859 -5.78907,-3.73047 -1.59765,-2.1914 -2.19921,-4.41796 -1.79687,-6.6875 0.39844,-2.26562 1.76953,-4.2539 4.11719,-5.96093 m 2.33203,2.99609 c -1.67188,1.21484 -2.65625,2.51953 -2.96094,3.91797 -0.30078,1.39844 -0.0195,2.69141 0.84375,3.87891 0.85938,1.1875 2,1.84765 3.41016,1.98828 1.40234,0.14062 2.96875,-0.40625 4.67578,-1.65235 1.6875,-1.22656 2.68359,-2.51172 2.97656,-3.85937 0.29297,-1.34766 -0.004,-2.63281 -0.89844,-3.85938 -0.89062,-1.22656 -2.03125,-1.91406 -3.42187,-2.05078 -1.38281,-0.14062 -2.92969,0.40625 -4.625,1.63672"
       id="path104" />
    <path
       style="fill:#211e1e;fill-opacity:1;fill-rule:nonzero;stroke:none"
       d="m 469.64453,352.40234 1.66406,3.19141 c -1.03515,0.64844 -1.6914,1.38672 -1.96875,2.20703 -0.27343,0.82422 -0.20312,1.75391 0.21875,2.79297 0.44532,1.10156 1.01172,1.83594 1.70313,2.20703 0.6875,0.36719 1.34765,0.42969 1.97265,0.17188 0.39844,-0.16016 0.69141,-0.41407 0.87891,-0.76172 0.17969,-0.35157 0.26172,-0.85547 0.23047,-1.52735 -0.0195,-0.45312 -0.14453,-1.46484 -0.36328,-3.03125 -0.28516,-2.01172 -0.2461,-3.51953 0.11328,-4.52734 0.51562,-1.41406 1.4375,-2.39063 2.77344,-2.92969 0.86328,-0.34765 1.76562,-0.43359 2.71484,-0.24609 0.94531,0.1875 1.80469,0.66015 2.5625,1.41797 0.76563,0.76172 1.41016,1.79297 1.9375,3.09375 0.85547,2.12109 1.03516,3.90625 0.53906,5.35156 -0.49609,1.44922 -1.51172,2.51562 -3.04297,3.19922 l -1.53125,-3.35547 c 0.8125,-0.49609 1.3086,-1.05859 1.4961,-1.69531 0.1875,-0.63282 0.0859,-1.4336 -0.30078,-2.39453 -0.40625,-0.99219 -0.92188,-1.6836 -1.55469,-2.08204 -0.40625,-0.25781 -0.82813,-0.29296 -1.26953,-0.12109 -0.39844,0.16016 -0.67188,0.47266 -0.82031,0.92188 -0.1875,0.57812 -0.14454,1.77343 0.13671,3.59765 0.27735,1.81641 0.3711,3.21094 0.26954,4.17969 -0.0937,0.96094 -0.41407,1.81641 -0.96485,2.55859 -0.54297,0.74219 -1.34765,1.33594 -2.41797,1.76172 -0.96875,0.39063 -1.98437,0.48828 -3.05078,0.29297 -1.0625,-0.19531 -2,-0.70312 -2.80469,-1.51953 -0.8125,-0.82031 -1.51171,-1.96094 -2.10156,-3.42969 -0.86719,-2.14062 -1.03906,-3.98047 -0.51172,-5.52734 0.52735,-1.54688 1.69141,-2.8086 3.49219,-3.79688"
       id="path106" />
    <path
       style="fill:#211e1e;fill-opacity:1;fill-rule:nonzero;stroke:none"
       d="m 473.71484,383.87109 17.90235,-3.47656 1.125,5.80078 c 0.42968,2.19531 0.61718,3.64844 0.57031,4.34766 -0.0742,1.07812 -0.48828,2.05078 -1.25391,2.91797 -0.76562,0.86718 -1.85937,1.4375 -3.28125,1.71484 -1.10156,0.21484 -2.0664,0.19531 -2.89062,-0.0586 -0.82422,-0.25 -1.51563,-0.64453 -2.0625,-1.17578 -0.54297,-0.53125 -0.94922,-1.10157 -1.21094,-1.71094 -0.33594,-0.82813 -0.66406,-2.0625 -0.98437,-3.69922 l -0.45704,-2.35938 -6.7539,1.31641 z m 15.57422,0.72657 -5.07812,0.98437 0.38281,1.98047 c 0.28125,1.42578 0.55859,2.35937 0.83594,2.80078 0.28125,0.44531 0.64843,0.76563 1.10156,0.96094 0.45312,0.19531 0.94141,0.24219 1.47266,0.13672 0.64843,-0.125 1.15234,-0.42188 1.5,-0.88282 0.34765,-0.46875 0.51953,-1.0039 0.50781,-1.60937 0,-0.44922 -0.125,-1.32422 -0.38281,-2.625 z m 0,0"
       id="path108" />
    <path
       style="fill:#211e1e;fill-opacity:1;fill-rule:nonzero;stroke:none"
       d="m 487.07031,413.12891 c 1.85938,0.0312 3.41016,0.33593 4.66016,0.91406 0.92187,0.42969 1.74609,1.01172 2.47265,1.74219 0.72266,0.73046 1.25782,1.52343 1.60157,2.38671 0.45703,1.14063 0.67187,2.45313 0.64843,3.94141 -0.0469,2.68359 -0.91796,4.82031 -2.61328,6.40234 -1.6914,1.58594 -4.02343,2.34766 -6.99218,2.29688 -2.94141,-0.0508 -5.23047,-0.89063 -6.86329,-2.51953 -1.63671,-1.62891 -2.42968,-3.78125 -2.38281,-6.46094 0.0469,-2.71094 0.91406,-4.84766 2.59766,-6.42187 1.67969,-1.57032 3.96875,-2.33204 6.87109,-2.28125 m 0.0586,3.79296 c -2.06641,-0.0312 -3.63672,0.41797 -4.71875,1.35157 -1.08204,0.93359 -1.63672,2.13672 -1.66016,3.60156 -0.0273,1.46875 0.48047,2.67969 1.51953,3.64062 1.03906,0.95704 2.62109,1.46094 4.73047,1.49219 2.08984,0.0391 3.65625,-0.39453 4.70312,-1.28906 1.04297,-0.90234 1.57813,-2.10938 1.60157,-3.625 0.0273,-1.51563 -0.46875,-2.75 -1.49219,-3.69141 -1.02344,-0.94922 -2.58594,-1.4414 -4.68359,-1.48047"
       id="path110" />
    <path
       style="fill:#211e1e;fill-opacity:1;fill-rule:nonzero;stroke:none"
       d="m 476.14062,446.31641 17.95313,3.16406 -1.34766,7.63281 c -0.33203,1.91797 -0.74218,3.28516 -1.21484,4.09766 -0.47656,0.8125 -1.17188,1.41015 -2.08984,1.78515 -0.91797,0.375 -1.90625,0.47266 -2.96875,0.28125 -1.34766,-0.23047 -2.39063,-0.82422 -3.13282,-1.77343 -0.73828,-0.94532 -1.08203,-2.23047 -1.03125,-3.84375 -0.59375,0.70312 -1.21093,1.26171 -1.85156,1.67578 -0.63672,0.41406 -1.72656,0.92968 -3.27734,1.54687 l -3.89063,1.57813 0.76563,-4.33594 4.37109,-1.93359 c 1.5625,-0.6836 2.55078,-1.16797 2.97656,-1.44532 0.42578,-0.28125 0.73828,-0.59765 0.9375,-0.95703 0.20313,-0.36328 0.37891,-0.95703 0.52735,-1.78906 l 0.125,-0.73438 -7.4961,-1.32421 z m 9.71875,5.45312 -0.47265,2.67969 c -0.30469,1.74219 -0.42188,2.84375 -0.35156,3.30078 0.0703,0.45703 0.26562,0.83984 0.57812,1.15234 0.32031,0.30469 0.74609,0.50782 1.28516,0.60157 0.60156,0.10546 1.12109,0.0312 1.54687,-0.22657 0.42969,-0.25781 0.7461,-0.66797 0.94141,-1.23828 0.0976,-0.28906 0.27344,-1.16797 0.53125,-2.63672 l 0.5,-2.82812 z m 0,0"
       id="path112" />
    <path
       style="fill:#211e1e;fill-opacity:1;fill-rule:nonzero;stroke:none"
       d="m 467.20703,480.61719 14.14063,5.42968 1.9414,-5.05078 2.87891,1.10157 -5.19141,13.52734 -2.8789,-1.10938 1.93359,-5.03515 -14.14063,-5.42578 z m 0,0"
       id="path114" />
    <path
       style="fill:#211e1e;fill-opacity:1;fill-rule:nonzero;stroke:none"
       d="m 472.60547,512.51172 -1.94531,3.125 -8.375,-5.23828 c -1.32813,-0.82813 -2.21875,-1.32813 -2.66016,-1.4961 -0.71484,-0.26172 -1.42188,-0.26172 -2.11719,0.004 -0.70312,0.26172 -1.32422,0.83203 -1.86719,1.70312 -0.55468,0.88672 -0.78906,1.66797 -0.70703,2.33985 0.0781,0.67578 0.35547,1.22656 0.82813,1.64453 0.46484,0.42578 1.3164,1.01562 2.53906,1.78125 l 8.55078,5.34766 -1.94531,3.12109 -8.125,-5.07422 c -1.85547,-1.16016 -3.11328,-2.06641 -3.77734,-2.71484 -0.66016,-0.64844 -1.11329,-1.36328 -1.35938,-2.14453 -0.23828,-0.78125 -0.28125,-1.65235 -0.12109,-2.60938 0.16015,-0.95312 0.625,-2.04297 1.38672,-3.26562 0.92578,-1.47657 1.79687,-2.49219 2.61328,-3.03907 0.82031,-0.55078 1.64062,-0.8789 2.45703,-0.98047 0.82422,-0.10156 1.57812,-0.0351 2.26562,0.19532 1.00782,0.35156 2.38282,1.0664 4.11328,2.14843 z m 0,0"
       id="path116" />
    <path
       style="fill:#1e51ab;fill-opacity:1;fill-rule:evenodd;stroke:none"
       d="m 307.14453,265.44922 c -0.0273,0 -0.0547,0.008 -0.082,0.008 -22.44922,0.15625 -44.17188,5.45703 -63.38672,14.35938 -3.71875,1.72265 -7.37891,3.60156 -10.96094,5.62109 -3.59765,2.02734 -7.04297,4.15625 -10.32031,6.36719 l -0.23047,0.16015 0.008,0.0117 c -0.42578,0.29297 -0.70312,0.78516 -0.70312,1.33985 0,0.90234 0.73437,1.63671 1.63672,1.63671 0.36328,0 0.69922,-0.12109 0.96875,-0.32421 l 0.15234,-0.10157 c 3.29297,-2.22265 6.66406,-4.30859 10.08985,-6.24218 3.4414,-1.94141 7.02343,-3.77735 10.73046,-5.49219 18.84375,-8.73047 40.1211,-13.92578 62.09766,-14.06641 v -0.004 c 0.90234,0 1.63672,-0.73047 1.63672,-1.63672 0,-0.90235 -0.73438,-1.63672 -1.63672,-1.63672"
       id="path118" />
    <path
       style="fill:#1e51ab;fill-opacity:1;fill-rule:evenodd;stroke:none"
       d="m 394.01562,290.42969 c -8.29687,-5.42578 -17.15234,-10.09375 -26.46484,-13.89844 -9.30859,-3.80078 -19.04297,-6.72656 -29.09375,-8.66016 l -0.008,-0.004 c -0.008,0 -0.0156,-0.004 -0.0234,-0.004 -0.89062,-0.17187 -1.74609,0.41016 -1.91797,1.29688 -0.16797,0.89062 0.41406,1.75 1.30078,1.91796 0.008,0 0.0156,0 0.0234,0.004 v 0.004 l 0.008,0.004 c 9.8711,1.90235 19.39453,4.75782 28.48047,8.46875 9.07422,3.70703 17.74219,8.28125 25.89844,13.61719 41.85547,27.39063 69.67578,74.70313 69.67578,127.92969 v 0.004 h 0.008 c 0,16.01172 -2.60937,31.49219 -7.35156,46.07032 -0.76562,2.35156 -1.59766,4.70312 -2.48437,7.04297 -4.54688,11.95312 -10.53516,23.22265 -17.69141,33.58593 0,0 -0.004,0.004 -0.004,0.008 -0.17187,0.25781 -0.27734,0.57031 -0.27734,0.90625 0,0.90625 0.73437,1.64062 1.64062,1.64062 0.54688,0 1.03125,-0.27344 1.32813,-0.69141 h 0.004 c 0,0 0.004,-0.004 0.004,-0.008 0.0117,-0.0195 0.0234,-0.0351 0.0352,-0.0547 7.29687,-10.57421 13.39844,-22.05859 18.02344,-34.22265 0.89843,-2.35547 1.74218,-4.75391 2.53906,-7.19531 4.83984,-14.88282 7.5039,-30.70313 7.5039,-47.08204 h 0.008 v -0.004 c 0,-54.3711 -28.41797,-102.69922 -71.16407,-130.67578"
       id="path120" />
    <path
       style="fill:#1e51ab;fill-opacity:1;fill-rule:nonzero;stroke:none"
       d="m 204.04297,310.41797 c 0,-0.90235 -0.73047,-1.63672 -1.63672,-1.63672 -0.44531,0 -0.84766,0.17969 -1.14063,0.46875 l -0.004,-0.004 c -12.26563,12.01953 -22.63672,25.96875 -30.54688,41.3125 -1.53515,2.97266 -2.98047,6.01172 -4.33203,9.10547 -8.28515,18.95313 -12.90234,39.74219 -12.90234,61.4375 h -0.008 v 0.004 c 0,23.85547 5.51953,46.46875 15.28515,66.63672 1.90235,3.92578 3.96094,7.75781 6.16406,11.47265 2.1875,3.6875 4.52735,7.28125 7.01172,10.77344 0.28907,0.46484 0.80078,0.77344 1.38672,0.77344 0.90235,0 1.63672,-0.73047 1.63672,-1.63672 0,-0.34766 -0.10937,-0.66797 -0.29297,-0.92969 l 0.008,-0.004 -0.004,-0.008 c -2.44531,-3.42968 -4.75391,-6.97656 -6.92188,-10.63672 -2.16797,-3.65234 -4.1875,-7.40234 -6.03906,-11.23046 -9.55078,-19.72657 -14.95312,-41.85547 -14.95312,-65.21094 v -0.004 h -0.004 c 0,-21.22656 4.52344,-41.57422 12.63281,-60.1289 1.31641,-3.01172 2.73438,-5.98438 4.24219,-8.91407 7.75,-15.03125 17.91016,-28.69922 29.92969,-40.47265 0.30078,-0.29688 0.48828,-0.71094 0.48828,-1.16797"
       id="path122" />
  </g>
</svg>
