<?xml version="1.0" encoding="UTF-8" standalone="no"?>
<svg
   xmlns:dc="http://purl.org/dc/elements/1.1/"
   xmlns:cc="http://creativecommons.org/ns#"
   xmlns:rdf="http://www.w3.org/1999/02/22-rdf-syntax-ns#"
   xmlns:svg="http://www.w3.org/2000/svg"
   xmlns="http://www.w3.org/2000/svg"
   version="1.1"
   id="svg2"
   xml:space="preserve"
   width="381.82217"
   height="111.78744"
   viewBox="0 0 381.82217 111.78744"><metadata
     id="metadata8"><rdf:RDF><cc:Work
         rdf:about=""><dc:format>image/svg+xml</dc:format><dc:type
           rdf:resource="http://purl.org/dc/dcmitype/StillImage" /><dc:title></dc:title></cc:Work></rdf:RDF></metadata><defs
     id="defs6" /><g
     id="g10"
     transform="matrix(1.3333333,0,0,-1.3333333,-246.32533,617.15369)"><path
       d="m 219.7585,382.7747 c 16.4228,31.1414 23.282,51.6282 50.4201,59.0902 l -0.5131,0.8098 c -0.0825,0.1009 -0.3594,0.5063 -0.443,0.6066 -28.7655,-2.4035 -43.1071,-3.6465 -72.9723,-0.1732 -0.2639,-0.4209 -0.5173,-0.849 -0.7637,-1.2812 l 0.0992,-0.0219 c 9.9726,-2.2801 27.2673,-3.8109 32.5483,-12.8511 7.1314,-10.8828 -7.0793,-33.1092 -12.2919,-44.2256 1.1801,-0.6202 2.6841,-1.4261 3.9164,-1.9536"
       style="fill:#000000;fill-opacity:1;fill-rule:evenodd;stroke:none"
       id="path14" /><path
       d="m 211.6729,387.5068 c 6.4593,10.6869 19.1237,31.3064 11.8307,41.2393 -4.7469,-9.8189 -17.2777,-12.1085 -35.0096,-12.5209 2.7309,-10.2844 14.2971,-22.43 23.1789,-28.7184"
       style="fill:#000000;fill-opacity:1;fill-rule:evenodd;stroke:none"
       id="path16" /><path
       d="m 226.9321,456.2002 c 3.1232,0.1534 5.7798,-2.2547 5.9329,-5.3782 0.1534,-3.1232 -2.2544,-5.7795 -5.3779,-5.9329 -3.1232,-0.1533 -5.7798,2.2547 -5.9332,5.3779 -0.153,3.1235 2.2547,5.7799 5.3782,5.9332"
       style="fill:#000000;fill-opacity:1;fill-rule:evenodd;stroke:none"
       id="path18" /><path
       d="m 245.8125,459.1066 c 3.9096,0.1919 7.2343,-2.8219 7.4262,-6.7315 0.1922,-3.9095 -2.8218,-7.2345 -6.7314,-7.4264 -3.9093,-0.1917 -7.2346,2.8221 -7.4262,6.7317 -0.1919,3.9095 2.8219,7.2343 6.7314,7.4262"
       style="fill:#000000;fill-opacity:1;fill-rule:evenodd;stroke:none"
       id="path20" /><path
       d="m 264.28105,425.45261 h 7.9232 v -21.1172 h 6.74856 v 21.1172 h 7.99948 v 5.45899 h -22.67124 z m 26.57358,-21.1172 h 6.74836 v 6.52092 l 3.52554,3.90514 7.01424,-10.42606 h 8.07536 l -10.50173,15.54409 9.85705,10.99406 h -7.80988 l -10.16058,-11.48738 v 11.48738 h -6.74836 z m 36.3928,13.30732 c 0,-7.77225 6.14191,-13.61044 14.3308,-13.61044 8.22692,0 14.36864,5.87623 14.36864,13.61044 0,7.69576 -6.14172,13.45847 -14.36864,13.45847 -8.18889,0 -14.3308,-5.72467 -14.3308,-13.45847 z m 6.90012,-0.038 c 0,4.47334 3.41202,7.84792 7.50676,7.84792 4.09474,0 7.3552,-3.37458 7.3552,-7.84792 0,-4.47375 -3.26046,-7.92381 -7.3552,-7.92381 -4.0567,0 -7.50676,3.45006 -7.50676,7.92381 z m 26.38438,-13.26928 h 18.0085 v 5.64859 h -11.25994 v 20.88956 h -6.74856 z m 19.40858,26.53815 9.81942,-18.15986 v -8.37829 h 6.71052 v 8.56789 l 9.62921,17.97026 h -6.74796 l -6.25583,-11.56286 -6.407,11.56286 z m 29.64444,-26.53815 h 6.0282 v 17.2501 l 6.36895,-14.59648 h 4.39767 l 6.36935,14.59648 0.038,-17.2501 h 5.95232 v 26.57619 h -7.35521 l -7.20303,-15.80897 -7.20304,15.80897 h -7.39325 z m 35.52108,0 h 6.74855 v 7.46872 h 4.81491 c 6.786,0 10.69114,3.60142 10.69114,9.81942 0,5.91407 -3.90514,9.25001 -10.69114,9.25001 h -11.56346 z m 6.74855,12.77615 v 8.45457 h 4.47395 c 2.95674,0 4.66275,-1.40289 4.66275,-4.17022 0,-2.80538 -1.70601,-4.28435 -4.66275,-4.28435 z"
       style="fill:#000000;fill-opacity:1;fill-rule:nonzero;stroke:none;stroke-width:2.00212"
       id="path22-3" /></g></svg>
