<?xml version="1.0" encoding="UTF-8" standalone="no"?>
<svg
   xmlns:dc="http://purl.org/dc/elements/1.1/"
   xmlns:cc="http://creativecommons.org/ns#"
   xmlns:rdf="http://www.w3.org/1999/02/22-rdf-syntax-ns#"
   xmlns:svg="http://www.w3.org/2000/svg"
   xmlns="http://www.w3.org/2000/svg"
   width="45.783512mm"
   height="46.209492mm"
   viewBox="0 0 45.783512 46.209492"
   version="1.1"
   id="svg158">
  <defs
     id="defs152" />
  <metadata
     id="metadata155">
    <rdf:RDF>
      <cc:Work
         rdf:about="">
        <dc:format>image/svg+xml</dc:format>
        <dc:type
           rdf:resource="http://purl.org/dc/dcmitype/StillImage" />
        <dc:title></dc:title>
      </cc:Work>
    </rdf:RDF>
  </metadata>
  <g
     id="layer1"
     transform="translate(-89.745147,-64.585728)">
    <g
       id="g186"
       style="fill:#000000">
      <path
         style="fill:#000000;fill-opacity:1;fill-rule:evenodd;stroke:none;stroke-width:0.352778"
         d="m 109.23246,95.353832 c 5.54247,-10.511676 7.85757,-17.42667 17.01739,-19.945725 l -0.17225,-0.272849 c -0.0276,-0.03447 -0.12127,-0.170878 -0.15021,-0.205327 -9.70965,0.811664 -14.54932,1.231963 -24.63105,0.05925 -0.0882,0.14194 -0.17363,0.286631 -0.25769,0.432706 l 0.0344,0.0069 c 3.36517,0.770322 9.20391,1.287089 10.98572,4.338062 2.40743,3.672473 -2.38952,11.17589 -4.14928,14.926908 0.39826,0.209462 0.90675,0.482315 1.32292,0.660083"
         id="path4" />
      <path
         style="fill:#000000;fill-opacity:1;fill-rule:evenodd;stroke:none;stroke-width:0.352778"
         d="m 106.50257,93.756684 c 2.18006,-3.607703 6.45473,-10.566794 3.99355,-13.919562 -1.60266,3.314181 -5.83186,4.087262 -11.816674,4.226443 0.921907,3.471277 4.825884,7.569563 7.823124,9.693119"
         id="path6" />
      <path
         style="fill:#000000;fill-opacity:1;fill-rule:evenodd;stroke:none;stroke-width:0.352778"
         d="m 111.65367,70.569817 c 1.0542,-0.05099 1.94993,0.760677 2.00229,1.814875 0.051,1.055579 -0.76067,1.951302 -1.81487,2.003669 -1.0542,0.05099 -1.95131,-0.762057 -2.00367,-1.816255 -0.051,-1.054199 0.76205,-1.949923 1.81625,-2.002289"
         id="path8" />
      <path
         style="fill:#000000;fill-opacity:1;fill-rule:evenodd;stroke:none;stroke-width:0.352778"
         d="m 118.02572,69.588654 c 1.32016,-0.06477 2.44189,0.953604 2.50665,2.272386 0.0648,1.320158 -0.95222,2.441881 -2.27238,2.506651 -1.31879,0.06477 -2.44188,-0.952224 -2.50665,-2.272386 -0.0648,-1.318782 0.9536,-2.441885 2.27238,-2.506651"
         id="path10" />
      <path
         style="fill:#000000;fill-opacity:1;fill-rule:nonzero;stroke:none;stroke-width:0.352778"
         d="m 94.745147,102.02078 h 1.395952 v 3.7207 h 1.189247 v -3.7207 h 1.409733 v -0.96187 h -3.994932 z m 4.682573,3.7207 h 1.18925 v -1.14928 l 0.62011,-0.68764 1.2361,1.83692 h 1.42352 l -1.85071,-2.73816 1.73633,-1.93752 h -1.37528 l -1.79007,2.02434 v -2.02434 h -1.18925 z m 6.41201,-2.34404 c 0,1.36839 1.08176,2.39778 2.52457,2.39778 1.44969,0 2.53283,-1.0349 2.53283,-2.39778 0,-1.35599 -1.08314,-2.3716 -2.53283,-2.3716 -1.44281,0 -2.52457,1.00872 -2.52457,2.3716 z m 1.21543,0.007 c 0,-0.78824 0.6022,-1.38355 1.32292,-1.38355 0.72209,0 1.29673,0.59531 1.29673,1.38355 0,0.78824 -0.57464,1.39595 -1.29673,1.39595 -0.7152,0 -1.32292,-0.60771 -1.32292,-1.39595 z m 4.6495,2.33715 h 3.17362 v -0.99494 h -1.98437 v -3.68074 h -1.18925 z m 3.42029,-4.67568 1.72944,3.1998 v 1.47588 h 1.18236 v -1.50895 l 1.69636,-3.16673 h -1.18787 l -1.10243,2.03674 -1.12999,-2.03674 z m 5.22276,4.67568 h 1.06247 v -3.03857 l 1.12173,2.57142 h 0.77583 l 1.12172,-2.57142 0.007,3.03857 h 1.04869 v -4.68257 h -1.29674 l -1.26917,2.78501 -1.26917,-2.78501 h -1.30225 z m 6.25905,0 h 1.18925 v -1.31603 h 0.84887 c 1.19476,0 1.88378,-0.63389 1.88378,-1.72943 0,-1.04318 -0.68902,-1.63022 -1.88378,-1.63022 h -2.03812 z m 1.18925,-2.25034 v -1.48965 h 0.78824 c 0.5209,0 0.82131,0.24667 0.82131,0.73449 0,0.49334 -0.30041,0.75516 -0.82131,0.75516 z m 0,0"
         id="path12" />
    </g>
  </g>
</svg>
