<?xml version="1.0" standalone="no"?>
<!DOCTYPE svg PUBLIC "-//W3C//DTD SVG 20010904//EN"
 "http://www.w3.org/TR/2001/REC-SVG-20010904/DTD/svg10.dtd">
<svg version="1.0" xmlns="http://www.w3.org/2000/svg"
 width="137.000000pt" height="137.000000pt" viewBox="0 0 137.000000 137.000000"
 preserveAspectRatio="xMidYMid meet">
<metadata>
Created by potrace 1.14, written by Peter Selinger 2001-2017
</metadata>
<g transform="translate(0.000000,137.000000) scale(0.100000,-0.100000)"
fill="#000000" stroke="none">
<path d="M16 1105 c-8 -21 -8 -143 0 -173 9 -33 29 -21 32 20 4 44 28 58 49
28 8 -12 25 -33 38 -48 21 -24 24 -25 30 -10 5 12 -4 31 -24 57 -17 21 -31 43
-31 48 0 5 14 22 30 38 28 27 40 55 22 55 -4 0 -30 -23 -57 -51 l-50 -50 -5
47 c-5 48 -22 68 -34 39z"/>
<path d="M259 1091 c-63 -63 -22 -181 64 -181 43 0 84 31 95 73 28 104 -85
181 -159 108z m109 -21 c14 -14 22 -33 22 -55 0 -35 -30 -75 -56 -75 -67 0
-97 78 -49 125 29 30 54 32 83 5z"/>
<path d="M504 1107 c-10 -27 1 -190 13 -194 9 -3 13 17 15 69 l3 73 24 -42
c14 -24 30 -43 37 -43 7 0 24 19 38 43 l26 42 0 -67 c0 -66 13 -94 31 -67 9
14 10 163 2 187 -9 21 -19 13 -58 -45 l-38 -56 -31 51 c-33 54 -53 70 -62 49z"/>
<path d="M784 1107 c-2 -7 -4 -54 -2 -103 l3 -89 63 -3 c50 -2 62 0 62 12 0
11 -13 16 -47 18 -44 3 -48 5 -51 30 -3 25 0 27 39 30 58 4 63 26 7 30 -38 3
-43 6 -43 28 0 23 4 25 48 28 68 4 56 26 -16 30 -42 2 -59 -1 -63 -11z"/>
<path d="M980 1105 c0 -10 10 -15 30 -15 l29 0 3 -87 c2 -58 7 -88 16 -91 9
-3 12 13 12 56 0 33 3 74 6 91 6 26 11 31 36 31 19 0 28 4 26 13 -3 8 -31 13
-81 15 -64 2 -77 0 -77 -13z"/>
<path d="M1244 1085 c-8 -20 -26 -61 -39 -92 -14 -30 -25 -62 -25 -69 0 -23
20 -16 30 11 8 21 16 25 54 25 36 0 47 -5 61 -26 10 -16 21 -22 26 -17 10 10
-68 203 -83 203 -5 0 -16 -16 -24 -35z m44 -65 c11 -29 10 -30 -19 -30 -16 0
-29 2 -29 4 0 1 5 17 11 34 13 37 23 34 37 -8z"/>
<path d="M460 820 c-198 -26 -408 -149 -441 -259 -11 -38 -10 -43 16 -81 30
-43 38 -47 54 -27 38 45 84 113 105 154 13 26 35 58 48 70 36 33 134 79 231
110 122 38 118 50 -13 33z"/>
<path d="M760 750 c-398 -90 -626 -230 -607 -373 22 -160 350 -221 777 -142
84 15 139 33 105 34 -11 0 -65 -4 -120 -9 -144 -15 -349 -13 -418 4 -31 7 -75
25 -97 40 -180 119 -35 313 306 409 78 22 209 50 284 61 14 2 -4 4 -40 4 -37
0 -118 -12 -190 -28z"/>
<path d="M1300 665 c-51 -75 -178 -144 -366 -201 -81 -24 -105 -27 -259 -28
-93 -1 -195 1 -225 4 l-55 5 -3 -32 c-10 -106 253 -134 509 -53 53 16 110 37
125 45 16 8 32 15 36 15 3 0 38 19 78 41 84 49 160 119 189 177 40 79 20 98
-29 27z"/>
</g>
</svg>
