<?xml version="1.0" standalone="no"?>
<!DOCTYPE svg PUBLIC "-//W3C//DTD SVG 20010904//EN"
 "http://www.w3.org/TR/2001/REC-SVG-20010904/DTD/svg10.dtd">
<svg version="1.0" xmlns="http://www.w3.org/2000/svg"
 width="568.000000pt" height="568.000000pt" viewBox="0 0 568.000000 568.000000"
 preserveAspectRatio="xMidYMid meet">
<metadata>
Created by potrace 1.14, written by Peter Selinger 2001-2017
</metadata>
<g transform="translate(0.000000,568.000000) scale(0.100000,-0.100000)"
fill="#000000" stroke="none">
<path d="M3755 5018 c-57 -8 -133 -35 -156 -54 -8 -8 -19 -14 -23 -14 -4 0
-27 -19 -52 -42 -50 -47 -110 -160 -120 -223 -26 -186 66 -359 234 -438 58
-27 78 -31 152 -32 101 0 139 8 201 42 73 39 134 102 173 176 20 37 36 69 35
72 0 3 3 24 7 48 4 23 7 45 6 49 -1 4 -2 22 -3 40 -4 92 -62 214 -133 276 -84
73 -218 115 -321 100z"/>
<path d="M2635 4842 c-33 -8 -61 -18 -63 -23 -2 -5 -9 -9 -16 -9 -22 0 -105
-88 -126 -133 -117 -248 81 -507 355 -465 43 7 135 60 170 100 36 39 72 106
81 151 11 54 3 140 -18 192 -12 31 -67 107 -81 113 -4 2 -13 9 -20 16 -65 61
-177 85 -282 58z"/>
<path d="M5098 4116 c-3 -4 -68 -9 -333 -31 -135 -11 -193 -15 -240 -20 -27
-2 -88 -7 -135 -10 -47 -3 -107 -8 -135 -10 -103 -9 -212 -17 -440 -30 -60 -3
-139 -8 -175 -10 -457 -30 -1247 -25 -1725 10 -44 3 -111 8 -150 10 -38 3 -95
7 -125 10 -30 3 -82 7 -115 10 -33 3 -78 7 -100 10 -22 2 -71 7 -110 10 -38 3
-81 8 -95 10 -50 8 -176 18 -229 19 -50 1 -55 -1 -72 -30 l-17 -31 71 -17 c40
-9 83 -19 97 -21 57 -8 105 -17 111 -21 4 -2 24 -6 45 -9 22 -4 93 -17 159
-30 66 -13 131 -26 145 -29 38 -6 81 -16 120 -26 19 -5 82 -21 140 -34 458
-109 772 -272 939 -490 39 -50 109 -181 116 -214 1 -9 8 -35 14 -57 72 -271
-17 -708 -254 -1240 -86 -193 -142 -306 -414 -839 -67 -131 -119 -242 -114
-246 21 -20 204 -110 213 -105 6 4 18 23 29 43 50 102 155 299 163 310 6 6 7
12 3 12 -4 0 -3 6 3 13 5 6 58 107 117 222 193 377 307 599 335 650 15 28 44
82 65 120 61 114 106 195 157 283 26 46 48 87 48 92 0 5 3 10 8 12 4 2 38 55
77 118 38 63 95 152 127 198 32 45 58 87 58 92 0 4 3 10 8 12 4 2 32 37 62 78
30 41 57 77 60 80 3 3 35 41 70 85 83 104 314 335 410 411 114 90 189 144 200
144 6 0 10 4 10 8 0 8 240 152 254 152 4 0 20 8 34 18 26 18 86 45 217 99 33
14 131 49 217 77 l157 52 -24 36 c-22 32 -47 52 -57 44z"/>
<path d="M2465 3208 c-22 -39 -59 -91 -81 -115 -23 -25 -42 -47 -43 -49 -2
-12 -123 -111 -181 -149 -165 -107 -419 -202 -645 -240 -67 -12 -79 -14 -100
-18 -11 -3 -45 -8 -75 -12 -30 -3 -66 -8 -80 -10 -45 -7 -198 -22 -295 -29
-77 -6 -333 -19 -405 -20 -64 -1 -63 1 -24 -111 38 -106 167 -365 187 -373 4
-2 7 -8 7 -13 0 -6 5 -15 10 -22 6 -7 25 -34 42 -62 18 -27 35 -52 38 -55 3
-3 23 -29 44 -59 21 -30 42 -59 47 -65 5 -6 25 -31 45 -56 218 -274 515 -563
793 -772 l76 -57 22 27 c11 15 19 30 16 34 -2 5 1 8 6 8 6 0 11 6 11 13 0 7 9
23 20 35 11 12 20 25 20 29 0 5 16 32 35 62 19 29 35 55 35 58 0 3 14 29 32
57 29 47 41 68 104 181 68 121 220 418 253 495 13 30 31 73 41 95 67 148 146
386 175 525 2 8 4 15 5 15 1 0 3 9 4 20 3 18 9 63 21 145 3 14 5 70 5 125 1
140 -22 252 -73 351 -48 92 -47 92 -92 12z"/>
</g>
</svg>
