<?xml version="1.0" encoding="UTF-8" standalone="no"?>
<svg
   version="1.1"
   viewBox="0.00 0.00 458.00 136.00"
   id="svg106"
   sodipodi:docname="logo.svg"
   inkscape:version="1.2.2 (b0a8486541, 2022-12-01)"
   inkscape:export-filename="logo-vec.webp"
   inkscape:export-xdpi="112.94118"
   inkscape:export-ydpi="112.94118"
   xmlns:inkscape="http://www.inkscape.org/namespaces/inkscape"
   xmlns:sodipodi="http://sodipodi.sourceforge.net/DTD/sodipodi-0.dtd"
   xmlns="http://www.w3.org/2000/svg"
   xmlns:svg="http://www.w3.org/2000/svg">
  <defs
     id="defs110" />
  <sodipodi:namedview
     id="namedview108"
     pagecolor="#ffffff"
     bordercolor="#666666"
     borderopacity="1.0"
     inkscape:showpageshadow="2"
     inkscape:pageopacity="0"
     inkscape:pagecheckerboard="true"
     inkscape:deskcolor="#d1d1d1"
     showgrid="false"
     inkscape:zoom="2.3700873"
     inkscape:cx="226.36297"
     inkscape:cy="65.820359"
     inkscape:window-width="2560"
     inkscape:window-height="1011"
     inkscape:window-x="0"
     inkscape:window-y="0"
     inkscape:window-maximized="1"
     inkscape:current-layer="svg106" />
  <path
     fill="#b8a26b"
     d="   M 240.6417 64.5499   A 20.54 19.43 89.8 0 1 221.1401 44.0778   A 20.54 19.43 89.8 0 1 240.4983 23.4701   A 20.54 19.43 89.8 0 1 259.9999 43.9422   A 20.54 19.43 89.8 0 1 240.6417 64.5499   Z   M 240.6218 57.7598   A 13.71 11.91 89.7 0 0 252.4598 43.9876   A 13.71 11.91 89.7 0 0 240.4782 30.3402   A 13.71 11.91 89.7 0 0 228.6402 44.1124   A 13.71 11.91 89.7 0 0 240.6218 57.7598   Z"
     id="path56" />
  <path
     fill="#b8a26b"
     d="   M 187.49 41.99   A 0.52 0.51 -22.5 0 0 188.37 42.35   Q 197.31 33.46 205.64 25.42   C 208.05 23.09 210.87 23.57 211.68 27.01   A 1.73 1.72 -28.9 0 1 211.21 28.63   L 198.59 40.96   Q 198.24 41.30 198.53 41.69   Q 204.78 49.83 210.71 58.02   C 213.86 62.37 208.15 65.83 205.38 62.40   Q 199.24 54.82 193.46 46.97   Q 193.18 46.59 192.77 46.83   C 186.18 50.66 187.56 54.82 187.48 61.29   A 2.17 2.17 0.0 0 1 186.02 63.31   Q 183.40 64.22 181.07 62.92   Q 180.57 62.64 180.55 62.06   Q 180.08 42.09 180.46 26.77   C 180.53 23.94 187.28 22.38 187.40 27.79   Q 187.55 35.09 187.49 41.99   Z"
     id="path58" />
  <path
     fill="#b8a26b"
     d="   M 377.36 31.26   A 0.73 0.73 0.0 0 0 376.64 30.51   C 373.13 30.50 364.10 32.48 365.31 26.15   Q 365.62 24.51 367.29 24.40   Q 379.46 23.60 392.25 24.23   Q 394.46 24.33 395.88 24.72   A 1.12 1.11 86.2 0 1 396.64 25.39   Q 397.64 27.88 396.03 29.89   Q 395.66 30.35 395.06 30.37   L 385.30 30.68   Q 384.70 30.70 384.71 31.30   Q 384.81 44.32 384.69 57.23   Q 384.66 59.79 384.16 62.27   Q 384.05 62.81 383.58 63.08   Q 381.43 64.29 379.10 63.43   Q 378.59 63.24 378.34 62.77   Q 377.49 61.21 377.46 60.50   Q 376.96 45.82 377.36 31.26   Z"
     id="path60" />
  <path
     fill="#b8a26b"
     d="   M 412.68 55.51   L 409.17 63.10   A 1.39 1.38 -85.8 0 1 408.34 63.82   Q 405.76 64.64 403.98 62.77   Q 403.56 62.34 403.71 61.76   Q 404.35 59.35 405.22 57.24   Q 411.49 42.10 417.83 26.99   C 419.00 24.21 420.90 23.24 423.65 24.50   A 1.58 1.56 -89.6 0 1 424.44 25.31   L 439.17 60.50   A 1.37 1.36 44.7 0 1 439.18 61.52   C 438.00 64.56 434.39 65.10 432.89 61.89   Q 431.41 58.71 430.08 55.41   A 0.66 0.66 0.0 0 0 429.47 55.00   L 413.49 55.00   A 0.90 0.89 12.4 0 0 412.68 55.51   Z   M 415.85 48.07   A 0.34 0.34 0.0 0 0 416.17 48.54   L 426.51 48.45   A 0.34 0.34 0.0 0 0 426.82 47.98   L 421.54 35.85   A 0.34 0.34 0.0 0 0 420.92 35.86   L 415.85 48.07   Z"
     id="path62" />
  <path
     fill="#b8a26b"
     d="   M 304.72 38.62   A 0.39 0.39 0.0 0 0 303.99 38.43   Q 300.03 45.20 295.30 51.29   C 293.60 53.48 291.36 54.53 289.55 51.70   Q 285.19 44.91 280.86 37.87   A 0.34 0.34 0.0 0 0 280.23 38.05   Q 280.30 48.88 280.20 59.93   Q 280.16 64.29 276.07 63.67   A 2.66 2.65 4.3 0 1 273.82 61.06   Q 273.76 45.51 273.53 29.57   Q 273.52 28.58 273.97 26.17   Q 274.06 25.67 274.45 25.34   C 277.46 22.90 279.61 24.51 281.44 27.30   Q 287.04 35.84 292.38 44.38   A 0.36 0.36 0.0 0 0 292.99 44.39   Q 299.12 35.04 305.44 25.94   C 307.52 22.94 311.70 23.54 311.72 27.84   Q 311.79 43.54 311.73 59.25   Q 311.73 61.29 311.21 62.65   Q 311.00 63.19 310.46 63.39   Q 308.30 64.18 306.22 63.36   Q 305.71 63.16 305.47 62.68   C 303.48 58.77 304.76 43.64 304.72 38.62   Z"
     id="path64" />
  <path
     fill="#b8a26b"
     d="   M 335.31 57.35   Q 342.28 57.75 349.25 57.37   C 352.58 57.19 354.50 59.89 352.99 62.88   A 1.31 1.25 -85.5 0 1 352.31 63.49   C 347.80 65.22 334.93 64.00 330.05 63.66   A 2.48 2.47 -88.0 0 1 327.75 61.19   L 327.75 27.25   Q 327.75 24.25 330.75 24.25   L 351.25 24.25   A 2.17 2.16 83.4 0 1 353.36 25.93   Q 353.91 28.28 352.52 30.09   Q 352.15 30.57 351.55 30.55   Q 343.36 30.34 335.19 30.69   Q 334.67 30.71 334.68 31.23   L 334.78 40.02   Q 334.79 40.50 335.27 40.50   L 348.85 40.50   A 1.31 1.30 -18.8 0 1 349.88 41.00   Q 350.95 42.38 351.04 44.27   A 2.30 2.30 0.0 0 1 348.78 46.68   Q 342.05 46.81 335.27 46.73   A 0.52 0.51 0.0 0 0 334.75 47.24   L 334.75 56.75   Q 334.75 57.32 335.31 57.35   Z"
     id="path66" />
  <path
     fill="#b8a26b"
     d="   M 40.31 35.95   A 0.14 0.14 0.0 0 0 40.05 35.95   L 35.04 47.18   A 1.79 1.79 0.0 0 1 31.71 47.02   L 24.97 27.07   Q 24.77 26.49 25.13 26.01   Q 26.09 24.70 27.97 24.79   A 0.93 0.93 0.0 0 1 28.81 25.43   L 33.68 40.94   Q 33.89 41.59 34.15 40.96   L 38.61 30.47   A 1.78 1.78 0.0 0 1 41.91 30.51   L 46.03 40.90   Q 46.29 41.57 46.51 40.88   L 51.40 25.45   Q 51.63 24.73 52.38 24.73   Q 54.04 24.72 55.09 25.96   Q 55.48 26.42 55.29 26.99   L 48.45 46.98   A 1.77 1.76 -47.4 0 1 45.16 47.12   L 40.31 35.95   Z"
     id="path68" />
  <path
     fill="#b8a26b"
     d="   M 66.14 34.47   L 74.14 34.55   A 0.64 0.63 -9.5 0 1 74.72 34.96   C 76.46 39.48 68.42 38.00 66.00 38.01   Q 65.50 38.01 65.50 38.51   L 65.50 43.71   A 0.73 0.73 0.0 0 0 66.22 44.44   L 75.35 44.63   Q 75.85 44.64 76.05 45.10   C 76.95 47.18 76.06 47.99 74.05 48.00   Q 68.26 48.02 62.81 47.99   A 1.31 1.31 0.0 0 1 61.51 46.68   L 61.53 25.66   Q 61.53 24.84 62.35 24.84   L 75.79 24.87   A 0.72 0.72 0.0 0 1 76.51 25.61   L 76.45 27.82   Q 76.43 28.50 75.75 28.50   L 66.13 28.50   A 0.63 0.62 -0.0 0 0 65.50 29.12   L 65.50 33.83   A 0.65 0.64 0.5 0 0 66.14 34.47   Z"
     id="path70" />
  <path
     fill="#b8a26b"
     d="   M 106.47 42.74   L 97.66 42.77   A 0.93 0.93 0.0 0 0 96.84 43.29   L 94.74 47.65   A 1.34 1.33 28.1 0 1 92.85 48.22   Q 91.38 47.35 92.15 45.46   Q 96.11 35.64 100.09 26.22   A 2.32 2.28 89.5 0 1 101.25 25.02   Q 103.00 24.23 103.80 26.09   Q 107.70 35.18 112.13 45.63   A 1.68 1.67 60.2 0 1 111.60 47.61   C 109.34 49.31 107.74 44.85 107.16 43.22   Q 106.99 42.74 106.47 42.74   Z   M 98.81 38.51   A 0.47 0.47 0.0 0 0 99.23 39.18   L 104.95 39.24   A 0.47 0.47 0.0 0 0 105.39 38.58   L 102.60 32.11   A 0.47 0.47 0.0 0 0 101.74 32.10   L 98.81 38.51   Z"
     id="path72" />
  <path
     fill="#b8a26b"
     d="   M 122.28 40.00   L 122.19 47.23   Q 122.18 48.09 121.32 47.99   L 119.36 47.78   A 0.85 0.84 -87.3 0 1 118.61 46.95   L 118.43 25.87   Q 118.43 25.29 119.00 25.21   Q 126.57 24.12 132.24 25.46   C 137.46 26.70 136.35 34.33 133.82 37.45   Q 133.48 37.86 133.78 38.32   Q 135.41 40.80 135.47 43.87   A 0.90 0.89 -72.1 0 0 135.82 44.56   Q 137.30 45.71 137.06 47.51   A 0.59 0.59 0.0 0 1 136.47 48.03   Q 134.37 48.04 132.90 46.51   Q 132.55 46.14 132.47 45.63   L 131.76 40.91   A 1.38 1.37 11.1 0 0 131.11 39.95   C 129.03 38.69 124.79 39.27 122.70 39.53   Q 122.28 39.58 122.28 40.00   Z   M 122.25 29.50   L 122.25 35.38   A 1.18 1.18 0.0 0 0 123.43 36.56   L 128.93 36.56   A 3.59 3.56 90.0 0 0 132.49 32.97   L 132.49 31.91   A 3.59 3.56 90.0 0 0 128.93 28.32   L 123.43 28.32   A 1.18 1.18 0.0 0 0 122.25 29.50   Z"
     id="path74" />
  <path
     fill="#b8a26b"
     d="   M 148.54 34.50   L 156.50 34.50   A 1.42 1.40 84.5 0 1 157.88 35.65   C 158.56 39.18 150.79 37.95 148.60 38.15   Q 148.04 38.20 148.04 38.76   L 147.98 44.11   Q 147.98 44.75 148.62 44.75   L 158.32 44.75   A 0.64 0.64 0.0 0 1 158.95 45.27   Q 159.24 46.72 158.77 47.42   C 157.99 48.58 147.63 47.88 145.93 47.75   A 1.54 1.53 2.0 0 1 144.50 46.22   L 144.50 26.25   A 1.25 1.25 0.0 0 1 145.75 25.00   L 158.43 25.00   Q 159.05 25.00 159.15 25.61   L 159.47 27.48   Q 159.61 28.30 158.78 28.33   L 150.02 28.57   Q 148.39 28.61 148.31 30.24   L 148.11 34.05   Q 148.09 34.50 148.54 34.50   Z"
     id="path76" />
  <path
     fill="#b8a26b"
     d="   M 80.53 55.37   A 0.29 0.28 -68.7 0 1 80.73 55.83   C 80.27 56.44 79.46 57.07 78.68 57.27   C 67.83 60.11 49.24 65.53 44.13 76.40   C 42.85 79.11 42.17 81.44 40.05 83.77   Q 36.46 87.69 33.51 92.86   Q 32.55 94.56 30.82 93.65   Q 26.24 91.24 25.37 86.01   C 24.29 79.42 30.40 72.89 35.42 69.40   C 48.03 60.64 64.97 54.30 80.53 55.37   Z"
     id="path86" />
  <path
     fill="#b8a26b"
     d="   M 87.56 113.35   C 101.44 113.32 115.08 111.79 128.89 110.99   A 0.45 0.45 0.0 0 1 129.07 111.87   C 113.11 117.38 92.34 118.47 75.26 118.19   C 61.73 117.98 27.94 111.19 42.30 89.07   C 47.62 80.88 62.83 74.04 72.22 70.66   C 90.06 64.25 109.10 59.67 128.13 59.26   Q 128.43 59.26 128.69 59.41   Q 128.90 59.53 128.96 59.56   A 0.43 0.43 0.0 0 1 128.81 60.37   Q 109.00 62.46 90.04 68.36   C 79.71 71.58 60.67 80.26 57.11 91.11   C 51.66 107.67 75.80 113.37 87.56 113.35   Z"
     id="path88" />
  <path
     fill="#b8a26b"
     d="   M 66.76 92.98   C 95.94 98.09 123.28 93.86 148.22 77.48   C 152.22 74.85 154.60 70.73 157.07 66.83   A 1.02 1.02 0.0 0 1 158.95 67.47   C 156.92 89.35 117.15 103.11 99.47 105.86   Q 85.65 108.01 71.59 105.30   C 66.72 104.37 60.16 99.16 63.17 93.63   Q 63.40 93.19 63.90 93.09   Q 65.54 92.76 66.76 92.98   Z"
     id="path90" />
  <path
     fill="#b8a26b"
     d="   M 227.21 83.28   C 228.97 79.09 232.39 74.52 235.45 81.52   Q 242.33 97.29 248.95 113.17   Q 250.26 116.31 247.96 117.91   C 243.94 120.71 241.31 112.30 240.23 109.73   Q 240.03 109.25 239.51 109.25   L 223.47 109.25   Q 222.91 109.25 222.71 109.77   Q 221.41 113.03 220.02 116.20   C 217.96 120.90 212.75 118.16 214.73 113.34   Q 220.93 98.30 227.21 83.28   Z   M 226.02 102.28   A 0.34 0.34 0.0 0 0 226.33 102.75   L 236.73 102.75   A 0.34 0.34 0.0 0 0 237.04 102.28   L 231.84 90.07   A 0.34 0.34 0.0 0 0 231.22 90.07   L 226.02 102.28   Z"
     id="path92" />
  <path
     fill="#b8a26b"
     d="   M 188.16 94.84   Q 193.84 95.24 199.49 95.20   C 204.95 95.16 203.98 101.49 199.00 101.49   Q 193.50 101.48 188.00 101.51   Q 187.52 101.51 187.52 101.98   L 187.45 115.91   Q 187.45 116.41 187.08 116.76   C 184.33 119.28 180.12 118.15 180.11 114.06   Q 180.07 98.24 180.38 82.42   C 180.47 78.36 182.50 78.54 185.69 78.37   Q 195.01 77.90 204.07 78.65   A 1.46 1.45 -5.2 0 1 205.34 79.70   C 206.41 83.55 204.85 84.81 201.18 84.76   Q 194.56 84.67 188.01 84.79   A 0.54 0.53 -1.1 0 0 187.48 85.33   L 187.55 94.18   A 0.66 0.65 -88.2 0 0 188.16 94.84   Z"
     id="path94" />
  <path
     fill="#b8a26b"
     d="   M 387.09 93.73   A 0.35 0.35 0.0 0 0 387.72 93.58   L 387.79 93.04   Q 387.84 92.66 388.05 92.34   Q 390.38 88.86 396.70 79.95   C 399.85 75.52 404.88 79.95 401.31 85.09   Q 396.61 91.86 391.82 98.57   C 389.09 102.40 390.31 111.57 390.00 116.38   A 1.45 1.44 -10.5 0 1 389.16 117.59   C 385.50 119.25 383.85 117.01 383.67 113.60   C 383.44 109.18 385.00 101.80 382.25 98.12   Q 377.08 91.22 371.96 84.30   C 368.50 79.63 374.61 76.02 377.31 80.10   C 380.37 84.74 383.93 89.13 387.09 93.73   Z"
     id="path96" />
  <path
     fill="#b8a26b"
     d="   M 268.45 92.34   A 0.34 0.33 26.6 0 0 267.84 92.54   Q 268.23 103.34 267.74 114.18   C 267.47 119.92 261.38 118.87 261.36 114.25   Q 261.32 99.84 261.28 85.42   Q 261.27 82.00 261.32 81.70   C 261.87 78.08 266.38 77.19 268.37 80.35   Q 274.07 89.37 280.01 98.24   A 0.49 0.49 0.0 0 0 280.82 98.24   L 293.87 79.21   Q 294.15 78.80 294.64 78.67   C 298.73 77.61 299.44 80.32 299.54 83.68   Q 300.20 104.25 299.35 116.07   C 299.19 118.40 292.75 119.63 292.66 114.70   Q 292.45 103.71 292.50 92.73   A 0.42 0.42 0.0 0 0 291.72 92.52   Q 288.09 98.89 283.73 104.98   C 281.11 108.64 278.85 108.60 276.55 104.77   Q 272.69 98.35 268.45 92.34   Z"
     id="path98" />
  <rect
     fill="#b8a26b"
     x="315.36"
     y="78.54"
     width="7.12"
     height="39.44"
     rx="3.33"
     id="rect100" />
  <path
     fill="#b8a26b"
     d="   M 338.44 82.25   C 338.48 78.65 341.32 77.37 344.30 79.11   Q 344.74 79.36 344.82 79.87   C 346.29 89.52 345.20 101.06 345.29 110.94   Q 345.30 111.50 345.86 111.50   Q 352.55 111.45 359.04 111.67   C 362.08 111.78 364.04 112.79 363.43 116.19   A 2.34 2.34 0.0 0 1 361.14 118.12   L 341.73 118.30   Q 338.24 118.33 338.24 114.84   Q 338.22 98.71 338.44 82.25   Z"
     id="path102" />
</svg>
