<?xml version="1.0" standalone="no"?>
<!DOCTYPE svg PUBLIC "-//W3C//DTD SVG 20010904//EN"
 "http://www.w3.org/TR/2001/REC-SVG-20010904/DTD/svg10.dtd">
<svg version="1.0" xmlns="http://www.w3.org/2000/svg"
 width="568.000000pt" height="568.000000pt" viewBox="0 0 568.000000 568.000000"
 preserveAspectRatio="xMidYMid meet">
<metadata>
Created by potrace 1.14, written by Peter Selinger 2001-2017
</metadata>
<g transform="translate(0.000000,568.000000) scale(0.100000,-0.100000)"
fill="#000000" stroke="none">
<path d="M3585 4770 c-212 -71 -312 -308 -215 -507 122 -247 461 -278 624 -56
48 65 68 130 68 216 0 99 -29 172 -98 246 -98 106 -246 146 -379 101z"/>
<path d="M2623 4620 c-60 -24 -123 -81 -155 -142 -19 -36 -23 -59 -23 -133 0
-100 10 -127 72 -196 59 -65 124 -93 213 -93 124 0 208 51 261 159 95 194 -31
411 -245 422 -54 2 -83 -2 -123 -17z"/>
<path d="M4600 3959 c-249 -22 -828 -64 -1115 -81 -274 -15 -1016 -16 -1270 0
-274 17 -655 49 -865 72 -96 11 -181 20 -190 20 -18 0 -54 -60 -43 -71 4 -4
168 -39 363 -78 499 -99 701 -157 916 -261 544 -264 614 -716 242 -1575 -38
-88 -163 -346 -279 -572 -115 -227 -209 -417 -209 -423 0 -9 199 -115 205
-108 5 7 158 303 360 698 316 617 446 850 620 1115 371 563 762 896 1292 1103
71 28 165 60 208 73 44 12 83 25 87 29 4 3 -4 22 -17 43 -30 44 -10 43 -305
16z"/>
<path d="M2497 3165 c-77 -131 -212 -252 -372 -333 -262 -131 -588 -196 -1130
-223 -132 -6 -241 -13 -243 -14 -7 -6 49 -157 87 -236 142 -299 420 -653 745
-947 138 -126 334 -282 352 -282 13 0 175 269 311 516 348 634 477 1120 379
1430 -24 74 -67 154 -84 154 -4 0 -24 -30 -45 -65z"/>
</g>
</svg>
