<?xml version="1.0" standalone="no"?>
<!DOCTYPE svg PUBLIC "-//W3C//DTD SVG 20010904//EN"
 "http://www.w3.org/TR/2001/REC-SVG-20010904/DTD/svg10.dtd">
<svg version="1.0" xmlns="http://www.w3.org/2000/svg"
 width="700.000000pt" height="700.000000pt" viewBox="0 0 700.000000 700.000000"
 preserveAspectRatio="xMidYMid meet">
<metadata>
Created by potrace 1.14, written by Peter Selinger 2001-2017
</metadata>
<g transform="translate(0.000000,700.000000) scale(0.100000,-0.100000)"
fill="#000000" stroke="none">
<path d="M4503 6010 c-123 -34 -212 -96 -277 -195 -206 -310 14 -724 384 -725
366 -1 590 391 405 707 -101 172 -324 265 -512 213z"/>
<path d="M3246 5814 c-96 -31 -174 -98 -221 -190 -128 -253 71 -556 355 -538
137 9 252 86 316 211 26 52 29 68 29 158 0 93 -2 105 -32 166 -63 128 -176
200 -318 206 -52 2 -97 -3 -129 -13z"/>
<path d="M6099 4976 c-2 -2 -47 -7 -99 -11 -52 -3 -111 -8 -130 -10 -19 -2
-75 -6 -125 -10 -49 -3 -103 -8 -120 -10 -16 -3 -66 -7 -110 -10 -44 -3 -102
-7 -130 -9 -27 -3 -90 -7 -140 -11 -49 -3 -108 -8 -130 -11 -22 -2 -80 -6
-130 -9 -49 -2 -117 -7 -150 -10 -58 -4 -117 -8 -330 -20 -345 -20 -641 -29
-1000 -29 -347 0 -732 12 -970 29 -55 4 -128 8 -163 10 -34 2 -90 6 -125 9
-34 3 -91 8 -127 11 -88 7 -178 15 -220 20 -32 4 -71 7 -215 20 -53 5 -133 14
-175 20 -14 2 -56 6 -95 10 -38 3 -78 7 -87 8 -11 1 -27 -14 -43 -40 l-25 -41
67 -16 c38 -8 165 -33 283 -56 619 -118 873 -182 1136 -285 243 -95 403 -192
539 -330 139 -139 215 -283 249 -471 16 -89 15 -332 -3 -424 -6 -30 -12 -66
-15 -80 -37 -200 -95 -389 -202 -657 -93 -233 -180 -418 -391 -833 -305 -597
-317 -621 -301 -632 7 -5 65 -35 129 -67 l115 -58 58 111 c31 61 116 226 188
366 269 524 323 629 406 790 106 205 263 496 331 613 28 49 51 90 51 92 0 6
136 225 218 350 436 669 878 1080 1464 1359 164 79 222 102 446 176 l172 57
-29 43 c-25 37 -59 59 -72 46z"/>
<path d="M3080 3953 c-117 -208 -301 -370 -555 -489 -178 -83 -501 -174 -705
-199 -25 -3 -56 -7 -70 -10 -14 -2 -47 -7 -75 -10 -27 -3 -68 -7 -90 -10 -103
-11 -170 -17 -355 -30 -36 -2 -146 -7 -245 -11 -99 -3 -181 -7 -183 -9 -1 -1
11 -45 28 -98 83 -261 357 -698 619 -992 117 -130 159 -173 285 -299 190 -187
334 -311 583 -499 9 -6 22 7 46 45 43 68 253 424 296 503 137 250 179 330 240
456 151 314 251 578 305 809 43 181 51 252 50 425 -1 152 -25 267 -81 380 -52
106 -54 107 -93 38z"/>
</g>
</svg>
