<?xml version="1.0" encoding="UTF-8"?>
<svg xmlns="http://www.w3.org/2000/svg" xmlns:xlink="http://www.w3.org/1999/xlink" width="170.079pt" height="170.079pt" viewBox="0 0 170.079 170.079">
<defs>
<clipPath id="clip-0">
<path clip-rule="nonzero" d="M 0 0 L 170.078125 0 L 170.078125 170.078125 L 0 170.078125 Z M 0 0 "/>
</clipPath>
</defs>
<g clip-path="url(#clip-0)">
<path fill-rule="nonzero" fill="rgb(0%, 43.041992%, 27.7771%)" fill-opacity="1" d="M 0 170.078125 L 170.078125 170.078125 L 170.078125 0.00390625 L 0 0.00390625 Z M 0 170.078125 "/>
</g>
<path fill-rule="nonzero" fill="rgb(100%, 100%, 100%)" fill-opacity="1" d="M 167.117188 167.121094 L 2.960938 167.121094 L 2.960938 2.960938 L 167.117188 2.960938 Z M 167.117188 167.121094 "/>
<path fill-rule="nonzero" fill="rgb(0%, 43.041992%, 27.7771%)" fill-opacity="1" d="M 165.234375 165.238281 L 4.84375 165.238281 L 4.84375 4.84375 L 165.234375 4.84375 Z M 165.234375 165.238281 "/>
<path fill-rule="evenodd" fill="rgb(100%, 100%, 100%)" fill-opacity="1" d="M 85.375 59.363281 C 82.851562 59.273438 80.414062 61.003906 79.339844 63.222656 C 78.113281 65.765625 78.550781 68.886719 80.523438 70.941406 C 82.371094 72.867188 85.214844 73.585938 87.746094 72.710938 C 90.320312 71.816406 92.164062 69.40625 92.371094 66.695312 C 92.679688 62.6875 89.304688 59.335938 85.375 59.363281 C 84.449219 59.332031 87.3125 59.351562 85.375 59.363281 M 49.25 66.03125 C 49.191406 65.789062 48.820312 65.515625 48.65625 65.347656 C 48.324219 65 47.980469 64.664062 47.660156 64.304688 C 46.730469 63.261719 45.945312 62.074219 45.300781 60.835938 C 44.136719 58.605469 43.554688 56.28125 43.347656 53.789062 C 42.925781 48.710938 44.65625 43.679688 48.179688 39.964844 C 52.230469 35.695312 58.273438 33.597656 64.097656 34.523438 C 64.785156 34.632812 65.464844 34.785156 66.140625 34.960938 C 66.457031 35.042969 66.769531 35.152344 67.082031 35.25 C 67.21875 35.292969 67.386719 35.410156 67.507812 35.292969 C 67.636719 35.171875 67.648438 34.925781 67.6875 34.765625 C 68.035156 33.347656 68.515625 31.984375 69.183594 30.6875 C 70.476562 28.179688 72.335938 25.96875 74.609375 24.296875 C 78.40625 21.496094 83.121094 20.300781 87.792969 20.839844 C 93.464844 21.496094 98.558594 24.945312 101.421875 29.867188 C 102.140625 31.097656 102.707031 32.414062 103.113281 33.78125 C 103.292969 34.398438 103.386719 35.050781 103.597656 35.660156 C 103.65625 35.820312 105.242188 35.277344 105.441406 35.230469 C 108.375 34.515625 111.480469 34.566406 114.402344 35.335938 C 119.871094 36.773438 124.457031 40.738281 126.699219 45.925781 C 127.90625 48.714844 128.398438 51.808594 128.132812 54.832031 C 127.902344 57.402344 127.386719 60.707031 124.628906 61.710938 C 122.167969 62.605469 119.441406 61.089844 118.867188 58.554688 C 118.527344 57.054688 119.234375 55.609375 119.394531 54.132812 C 119.539062 52.839844 119.390625 51.519531 118.996094 50.277344 C 117.300781 44.929688 111.214844 42.09375 106.015625 44.195312 C 104.75 44.710938 103.59375 45.503906 102.652344 46.492188 C 101.75 47.433594 101.167969 48.558594 99.929688 49.121094 C 97.535156 50.203125 94.511719 48.898438 93.867188 46.289062 C 93.710938 45.660156 93.683594 44.988281 93.796875 44.351562 C 93.933594 43.601562 94.324219 42.929688 94.582031 42.21875 C 95.078125 40.828125 95.238281 39.324219 95.0625 37.863281 C 94.75 35.210938 93.25 32.738281 91.070312 31.203125 C 88.726562 29.554688 85.730469 29.015625 82.960938 29.777344 C 80.433594 30.476562 78.265625 32.253906 77.035156 34.5625 C 75.695312 37.074219 75.570312 40.074219 76.660156 42.707031 C 77.167969 43.933594 77.527344 45.070312 77.128906 46.394531 C 76.816406 47.425781 76.113281 48.328125 75.183594 48.875 C 73.195312 50.035156 70.570312 49.4375 69.285156 47.53125 C 67.773438 45.289062 65.769531 43.808594 63.105469 43.238281 C 57.53125 42.042969 52.097656 46.570312 51.988281 52.1875 C 51.9375 54.71875 52.863281 57.269531 54.644531 59.085938 C 55.445312 59.898438 56.402344 60.542969 57.445312 61.011719 C 58.507812 61.488281 59.601562 61.660156 60.75 61.765625 C 61.644531 61.847656 62.476562 61.898438 63.269531 62.359375 C 64.246094 62.929688 64.976562 63.875 65.261719 64.96875 C 65.90625 67.4375 64.308594 70.070312 61.738281 70.4375 C 61.085938 70.53125 60.421875 70.507812 59.769531 70.597656 C 59.042969 70.699219 58.332031 70.882812 57.652344 71.152344 C 56.402344 71.640625 55.253906 72.40625 54.316406 73.363281 C 52.449219 75.269531 51.4375 77.917969 51.71875 80.589844 C 52.292969 86.148438 58.015625 89.988281 63.378906 88.359375 C 64.941406 87.886719 66.269531 86.921875 67.625 86.046875 C 69.039062 85.128906 74.269531 81.726562 75.46875 80.945312 C 75.605469 80.855469 76.414062 80.328125 76.683594 80.148438 C 76.800781 80.074219 77.589844 79.6875 77.320312 79.503906 C 76.195312 78.714844 75.121094 77.9375 74.167969 76.9375 C 73.101562 75.808594 72.210938 74.363281 71.460938 73.007812 C 70.429688 71.144531 70.132812 69.0625 69.96875 66.980469 C 69.605469 62.371094 71.625 57.730469 75.035156 54.644531 C 76.949219 52.90625 79.386719 51.535156 81.941406 51.042969 C 83.5 50.738281 85.007812 50.601562 86.59375 50.660156 C 92.136719 50.855469 97.292969 54.625 99.625 59.558594 C 100.222656 60.816406 100.710938 62.210938 100.898438 63.597656 C 100.917969 63.730469 100.929688 64.351562 101.214844 64.210938 C 101.527344 64.054688 101.824219 63.882812 102.136719 63.722656 C 102.816406 63.375 103.53125 63.085938 104.25 62.824219 C 107.039062 61.820312 110.125 61.566406 113.046875 62.03125 C 118.675781 62.929688 123.628906 66.601562 126.175781 71.683594 C 128.851562 77.023438 128.597656 83.503906 125.601562 88.652344 C 122.925781 93.25 117.976562 96.738281 112.636719 97.289062 C 110.335938 97.527344 108.117188 97.507812 105.851562 96.949219 C 103.066406 96.261719 100.488281 94.882812 98.335938 92.984375 C 97.238281 92.019531 96.332031 90.910156 95.460938 89.742188 C 94.59375 88.574219 93.65625 87.527344 93.527344 86.015625 C 93.300781 83.402344 95.460938 81.175781 98.074219 81.285156 C 99.480469 81.339844 100.59375 82.074219 101.449219 83.140625 C 102.105469 83.960938 102.710938 84.8125 103.410156 85.597656 C 104.074219 86.351562 104.742188 86.988281 105.617188 87.5 C 106.765625 88.171875 108.066406 88.582031 109.390625 88.703125 C 114.984375 89.21875 119.75 84.351562 119.257812 78.796875 C 118.757812 73.195312 113 69.332031 107.621094 70.921875 C 106.078125 71.375 104.773438 72.332031 103.4375 73.199219 C 101.992188 74.136719 100.550781 75.074219 99.105469 76.011719 C 96.957031 77.40625 94.808594 78.800781 92.660156 80.199219 C 88.457031 82.933594 70.550781 94.621094 69.636719 95.144531 C 67.089844 96.605469 64.226562 97.363281 61.300781 97.472656 C 55.652344 97.679688 50.113281 95.023438 46.664062 90.566406 C 43.0625 85.921875 41.964844 79.648438 43.828125 74.0625 C 44.355469 72.476562 45.113281 70.972656 46.058594 69.597656 C 46.507812 68.945312 46.996094 68.320312 47.535156 67.742188 C 47.8125 67.445312 48.097656 67.160156 48.382812 66.875 C 48.660156 66.59375 49.027344 66.347656 49.25 66.03125 C 49.210938 65.863281 49.222656 66.070312 49.25 66.03125 "/>
<path fill-rule="nonzero" fill="rgb(100%, 100%, 100%)" fill-opacity="1" d="M 71.125 115.085938 C 71.125 115.273438 71.058594 115.441406 70.925781 115.59375 C 70.609375 115.953125 70.226562 116.234375 69.78125 116.445312 C 69.335938 116.65625 68.851562 116.761719 68.320312 116.761719 C 67.839844 116.761719 67.382812 116.667969 66.953125 116.484375 C 66.527344 116.304688 66.160156 116.050781 65.851562 115.730469 C 65.542969 115.40625 65.300781 115.03125 65.121094 114.605469 C 64.9375 114.175781 64.847656 113.71875 64.847656 113.238281 C 64.847656 112.753906 64.9375 112.296875 65.121094 111.871094 C 65.300781 111.441406 65.542969 111.066406 65.851562 110.746094 C 66.160156 110.421875 66.527344 110.171875 66.953125 109.988281 C 67.382812 109.804688 67.839844 109.714844 68.320312 109.714844 C 68.851562 109.714844 69.335938 109.816406 69.78125 110.027344 C 70.226562 110.238281 70.609375 110.523438 70.925781 110.878906 C 71.058594 111.03125 71.125 111.199219 71.125 111.386719 C 71.125 111.59375 71.054688 111.769531 70.910156 111.910156 C 70.769531 112.054688 70.597656 112.125 70.398438 112.125 C 70.175781 112.125 69.976562 112.023438 69.800781 111.816406 C 69.652344 111.640625 69.449219 111.488281 69.1875 111.367188 C 68.929688 111.246094 68.644531 111.1875 68.335938 111.1875 C 68.046875 111.1875 67.777344 111.242188 67.53125 111.355469 C 67.28125 111.46875 67.066406 111.617188 66.882812 111.804688 C 66.699219 111.992188 66.554688 112.207031 66.453125 112.453125 C 66.351562 112.699219 66.300781 112.960938 66.300781 113.238281 C 66.300781 113.515625 66.351562 113.773438 66.453125 114.019531 C 66.554688 114.265625 66.699219 114.480469 66.882812 114.667969 C 67.066406 114.859375 67.28125 115.007812 67.53125 115.117188 C 67.777344 115.230469 68.046875 115.285156 68.335938 115.285156 C 68.644531 115.285156 68.929688 115.226562 69.1875 115.105469 C 69.449219 114.984375 69.652344 114.835938 69.800781 114.65625 C 69.976562 114.453125 70.175781 114.347656 70.398438 114.347656 C 70.597656 114.347656 70.769531 114.421875 70.910156 114.5625 C 71.054688 114.707031 71.125 114.878906 71.125 115.085938 "/>
<path fill-rule="nonzero" fill="rgb(100%, 100%, 100%)" fill-opacity="1" d="M 75.777344 116.761719 C 75.292969 116.761719 74.835938 116.667969 74.40625 116.488281 C 73.980469 116.300781 73.613281 116.050781 73.304688 115.730469 C 72.996094 115.40625 72.753906 115.03125 72.570312 114.605469 C 72.390625 114.175781 72.300781 113.71875 72.300781 113.238281 C 72.300781 112.753906 72.390625 112.296875 72.570312 111.871094 C 72.753906 111.441406 72.996094 111.066406 73.304688 110.746094 C 73.613281 110.421875 73.980469 110.171875 74.40625 109.988281 C 74.835938 109.804688 75.292969 109.714844 75.777344 109.714844 C 76.304688 109.714844 76.792969 109.820312 77.234375 110.03125 C 77.679688 110.238281 78.0625 110.523438 78.375 110.878906 C 78.511719 111.03125 78.578125 111.199219 78.578125 111.386719 C 78.578125 111.503906 78.550781 111.617188 78.5 111.730469 C 78.445312 111.839844 78.375 111.933594 78.296875 112.003906 L 76.238281 113.71875 C 76.105469 113.835938 75.957031 113.894531 75.789062 113.894531 C 75.613281 113.894531 75.460938 113.835938 75.332031 113.71875 C 75.207031 113.605469 75.140625 113.441406 75.140625 113.238281 C 75.140625 113.113281 75.167969 113.007812 75.222656 112.921875 C 75.273438 112.835938 75.335938 112.761719 75.40625 112.703125 L 76.859375 111.496094 C 76.664062 111.355469 76.488281 111.265625 76.324219 111.234375 C 76.160156 111.203125 75.984375 111.1875 75.789062 111.1875 C 75.5 111.1875 75.230469 111.242188 74.984375 111.355469 C 74.734375 111.46875 74.519531 111.617188 74.335938 111.804688 C 74.152344 111.992188 74.007812 112.207031 73.90625 112.453125 C 73.804688 112.699219 73.753906 112.960938 73.753906 113.238281 C 73.753906 113.511719 73.804688 113.777344 73.90625 114.019531 C 74.007812 114.265625 74.152344 114.480469 74.335938 114.671875 C 74.519531 114.859375 74.734375 115.007812 74.984375 115.117188 C 75.230469 115.230469 75.5 115.285156 75.789062 115.285156 C 76.097656 115.285156 76.382812 115.226562 76.640625 115.105469 C 76.902344 114.984375 77.105469 114.835938 77.253906 114.65625 C 77.433594 114.453125 77.628906 114.347656 77.851562 114.347656 C 78.050781 114.347656 78.222656 114.421875 78.367188 114.5625 C 78.503906 114.707031 78.578125 114.878906 78.578125 115.085938 C 78.578125 115.273438 78.511719 115.445312 78.375 115.59375 C 78.0625 115.953125 77.679688 116.234375 77.234375 116.445312 C 76.792969 116.65625 76.304688 116.761719 75.777344 116.761719 "/>
<path fill-rule="nonzero" fill="rgb(100%, 100%, 100%)" fill-opacity="1" d="M 86.105469 116.089844 C 86.105469 116.296875 86.042969 116.472656 85.914062 116.613281 C 85.789062 116.757812 85.605469 116.828125 85.378906 116.828125 C 85.152344 116.828125 84.96875 116.757812 84.84375 116.613281 C 84.714844 116.472656 84.652344 116.296875 84.652344 116.089844 L 84.652344 112.621094 C 84.652344 112.136719 84.507812 111.753906 84.214844 111.460938 C 83.925781 111.171875 83.546875 111.027344 83.078125 111.027344 C 82.613281 111.027344 82.234375 111.171875 81.945312 111.460938 C 81.652344 111.753906 81.507812 112.136719 81.507812 112.621094 L 81.507812 116.089844 C 81.507812 116.296875 81.445312 116.472656 81.316406 116.613281 C 81.1875 116.757812 81.007812 116.828125 80.78125 116.828125 C 80.550781 116.828125 80.375 116.757812 80.246094 116.613281 C 80.117188 116.472656 80.054688 116.296875 80.054688 116.089844 L 80.054688 112.648438 C 80.054688 112.210938 80.128906 111.8125 80.28125 111.457031 C 80.429688 111.097656 80.636719 110.789062 80.90625 110.53125 C 81.175781 110.273438 81.496094 110.070312 81.863281 109.929688 C 82.234375 109.785156 82.640625 109.714844 83.078125 109.714844 C 83.519531 109.714844 83.925781 109.785156 84.296875 109.929688 C 84.667969 110.070312 84.984375 110.273438 85.253906 110.53125 C 85.519531 110.789062 85.730469 111.097656 85.882812 111.457031 C 86.03125 111.8125 86.105469 112.210938 86.105469 112.648438 Z M 86.105469 116.089844 "/>
<path fill-rule="nonzero" fill="rgb(100%, 100%, 100%)" fill-opacity="1" d="M 90.441406 111.226562 C 90.246094 111.226562 90.089844 111.167969 89.964844 111.039062 C 89.839844 110.917969 89.78125 110.757812 89.78125 110.570312 C 89.78125 110.375 89.839844 110.214844 89.964844 110.089844 C 90.089844 109.964844 90.246094 109.902344 90.441406 109.902344 L 90.929688 109.902344 C 91.113281 109.902344 91.265625 109.964844 91.390625 110.089844 C 91.515625 110.214844 91.578125 110.375 91.578125 110.570312 C 91.578125 110.757812 91.515625 110.917969 91.390625 111.039062 C 91.265625 111.167969 91.113281 111.226562 90.929688 111.226562 Z M 87.890625 108.320312 C 87.890625 108.117188 87.957031 107.941406 88.082031 107.800781 C 88.210938 107.65625 88.386719 107.585938 88.617188 107.585938 C 88.847656 107.585938 89.023438 107.65625 89.152344 107.800781 C 89.277344 107.941406 89.34375 108.117188 89.34375 108.320312 L 89.34375 116.089844 C 89.34375 116.296875 89.277344 116.46875 89.152344 116.613281 C 89.023438 116.757812 88.847656 116.828125 88.617188 116.828125 C 88.386719 116.828125 88.210938 116.757812 88.082031 116.613281 C 87.957031 116.46875 87.890625 116.296875 87.890625 116.089844 Z M 87.890625 108.320312 "/>
<path fill-rule="nonzero" fill="rgb(100%, 100%, 100%)" fill-opacity="1" d="M 95.085938 111.226562 C 94.894531 111.226562 94.734375 111.167969 94.609375 111.039062 C 94.488281 110.917969 94.425781 110.757812 94.425781 110.570312 C 94.425781 110.375 94.488281 110.214844 94.609375 110.089844 C 94.734375 109.964844 94.894531 109.902344 95.085938 109.902344 L 95.574219 109.902344 C 95.761719 109.902344 95.914062 109.964844 96.035156 110.089844 C 96.160156 110.214844 96.222656 110.375 96.222656 110.570312 C 96.222656 110.757812 96.160156 110.917969 96.035156 111.039062 C 95.914062 111.167969 95.761719 111.226562 95.574219 111.226562 Z M 93.433594 110.664062 C 93.636719 110.664062 93.808594 110.730469 93.949219 110.859375 C 94.089844 110.988281 94.160156 111.15625 94.160156 111.363281 L 94.160156 116.089844 C 94.160156 116.296875 94.097656 116.46875 93.96875 116.613281 C 93.84375 116.757812 93.664062 116.828125 93.433594 116.828125 C 93.207031 116.828125 93.027344 116.757812 92.898438 116.613281 C 92.773438 116.46875 92.710938 116.296875 92.710938 116.089844 L 92.710938 111.507812 C 92.710938 111.277344 92.773438 111.078125 92.898438 110.914062 C 93.027344 110.75 93.207031 110.664062 93.433594 110.664062 "/>
<path fill-rule="nonzero" fill="rgb(100%, 100%, 100%)" fill-opacity="1" d="M 100.097656 116.761719 C 99.621094 116.761719 99.179688 116.667969 98.769531 116.480469 C 98.359375 116.289062 98.007812 116.039062 97.710938 115.722656 C 97.417969 115.40625 97.183594 115.035156 97.011719 114.609375 C 96.839844 114.1875 96.753906 113.734375 96.753906 113.25 C 96.753906 112.757812 96.84375 112.296875 97.027344 111.871094 C 97.207031 111.441406 97.449219 111.066406 97.761719 110.746094 C 98.066406 110.421875 98.433594 110.171875 98.863281 109.988281 C 99.289062 109.804688 99.746094 109.714844 100.230469 109.714844 C 100.722656 109.714844 101.179688 109.804688 101.601562 109.988281 C 102.027344 110.171875 102.390625 110.421875 102.699219 110.746094 C 103.007812 111.066406 103.253906 111.441406 103.433594 111.871094 C 103.613281 112.296875 103.703125 112.753906 103.703125 113.238281 L 103.703125 116.089844 C 103.703125 116.296875 103.636719 116.46875 103.507812 116.613281 C 103.375 116.757812 103.191406 116.828125 102.964844 116.828125 C 102.734375 116.828125 102.558594 116.757812 102.433594 116.613281 C 102.3125 116.46875 102.25 116.296875 102.25 116.089844 L 102.25 113.167969 C 102.25 112.910156 102.199219 112.664062 102.097656 112.425781 C 101.996094 112.191406 101.855469 111.980469 101.675781 111.796875 C 101.496094 111.617188 101.28125 111.46875 101.035156 111.355469 C 100.789062 111.242188 100.519531 111.1875 100.230469 111.1875 C 99.9375 111.1875 99.671875 111.242188 99.421875 111.355469 C 99.175781 111.46875 98.964844 111.617188 98.78125 111.804688 C 98.601562 111.992188 98.460938 112.207031 98.359375 112.453125 C 98.261719 112.699219 98.207031 112.960938 98.207031 113.238281 C 98.207031 113.503906 98.257812 113.761719 98.355469 114.015625 C 98.449219 114.265625 98.585938 114.480469 98.761719 114.671875 C 98.9375 114.859375 99.148438 115.007812 99.390625 115.117188 C 99.632812 115.230469 99.898438 115.285156 100.191406 115.285156 L 100.335938 115.285156 C 100.5625 115.285156 100.75 115.359375 100.898438 115.5 C 101.042969 115.644531 101.113281 115.820312 101.113281 116.023438 C 101.113281 116.230469 101.042969 116.402344 100.902344 116.546875 C 100.761719 116.6875 100.589844 116.761719 100.386719 116.761719 Z M 100.097656 116.761719 "/>
<path fill-rule="nonzero" fill="rgb(100%, 100%, 100%)" fill-opacity="1" d="M 106.980469 116.089844 C 106.980469 116.296875 106.914062 116.472656 106.789062 116.613281 C 106.660156 116.757812 106.480469 116.828125 106.253906 116.828125 C 106.023438 116.828125 105.84375 116.757812 105.71875 116.613281 C 105.589844 116.472656 105.527344 116.296875 105.527344 116.089844 L 105.527344 107.277344 C 105.527344 107.070312 105.589844 106.898438 105.71875 106.753906 C 105.84375 106.609375 106.023438 106.539062 106.253906 106.539062 C 106.480469 106.539062 106.660156 106.609375 106.789062 106.753906 C 106.914062 106.898438 106.980469 107.070312 106.980469 107.277344 Z M 106.980469 116.089844 "/>
<path fill-rule="nonzero" fill="rgb(100%, 100%, 100%)" fill-opacity="1" d="M 118.808594 115.246094 C 119.097656 115.246094 119.363281 115.195312 119.605469 115.085938 C 119.851562 114.980469 120.058594 114.832031 120.234375 114.648438 C 120.410156 114.46875 120.546875 114.253906 120.644531 114.007812 C 120.742188 113.761719 120.789062 113.503906 120.789062 113.238281 C 120.789062 112.96875 120.742188 112.710938 120.644531 112.46875 C 120.546875 112.21875 120.410156 112.007812 120.234375 111.824219 C 120.058594 111.640625 119.851562 111.496094 119.605469 111.386719 C 119.363281 111.28125 119.097656 111.226562 118.808594 111.226562 L 117.367188 111.226562 L 117.367188 115.246094 Z M 116.5625 109.914062 L 119.007812 109.914062 C 119.472656 109.914062 119.902344 110.003906 120.300781 110.175781 C 120.699219 110.351562 121.042969 110.585938 121.339844 110.886719 C 121.632812 111.1875 121.867188 111.539062 122.03125 111.945312 C 122.195312 112.351562 122.28125 112.78125 122.28125 113.238281 C 122.28125 113.691406 122.195312 114.121094 122.03125 114.53125 C 121.867188 114.9375 121.632812 115.289062 121.339844 115.585938 C 121.042969 115.886719 120.699219 116.125 120.300781 116.296875 C 119.902344 116.472656 119.472656 116.558594 119.007812 116.558594 L 117.367188 116.558594 L 117.367188 118.769531 C 117.367188 118.972656 117.304688 119.148438 117.175781 119.292969 C 117.050781 119.433594 116.871094 119.503906 116.640625 119.503906 C 116.414062 119.503906 116.234375 119.433594 116.105469 119.292969 C 115.976562 119.148438 115.914062 118.972656 115.914062 118.769531 L 115.914062 110.570312 C 115.914062 110.375 115.976562 110.214844 116.101562 110.097656 C 116.222656 109.976562 116.375 109.914062 116.5625 109.914062 "/>
<path fill-rule="nonzero" fill="rgb(100%, 100%, 100%)" fill-opacity="1" d="M 126.878906 116.761719 C 126.402344 116.761719 125.960938 116.667969 125.550781 116.480469 C 125.140625 116.289062 124.789062 116.039062 124.492188 115.722656 C 124.199219 115.40625 123.964844 115.035156 123.792969 114.609375 C 123.621094 114.1875 123.535156 113.734375 123.535156 113.25 C 123.535156 112.757812 123.625 112.296875 123.808594 111.871094 C 123.988281 111.441406 124.230469 111.066406 124.539062 110.746094 C 124.847656 110.421875 125.214844 110.171875 125.644531 109.988281 C 126.070312 109.804688 126.523438 109.714844 127.011719 109.714844 C 127.503906 109.714844 127.960938 109.804688 128.382812 109.988281 C 128.804688 110.171875 129.171875 110.421875 129.480469 110.746094 C 129.789062 111.066406 130.03125 111.441406 130.214844 111.871094 C 130.394531 112.296875 130.484375 112.753906 130.484375 113.238281 L 130.484375 116.089844 C 130.484375 116.296875 130.417969 116.46875 130.285156 116.613281 C 130.15625 116.757812 129.972656 116.828125 129.746094 116.828125 C 129.515625 116.828125 129.339844 116.757812 129.214844 116.613281 C 129.09375 116.46875 129.03125 116.296875 129.03125 116.089844 L 129.03125 113.167969 C 129.03125 112.910156 128.980469 112.664062 128.878906 112.425781 C 128.777344 112.191406 128.636719 111.980469 128.457031 111.796875 C 128.277344 111.617188 128.0625 111.46875 127.816406 111.355469 C 127.570312 111.242188 127.300781 111.1875 127.011719 111.1875 C 126.71875 111.1875 126.453125 111.242188 126.207031 111.355469 C 125.957031 111.46875 125.742188 111.617188 125.5625 111.804688 C 125.382812 111.992188 125.242188 112.207031 125.140625 112.453125 C 125.039062 112.699219 124.988281 112.960938 124.988281 113.238281 C 124.988281 113.503906 125.035156 113.761719 125.132812 114.015625 C 125.230469 114.265625 125.367188 114.480469 125.542969 114.671875 C 125.722656 114.859375 125.929688 115.007812 126.171875 115.117188 C 126.414062 115.230469 126.679688 115.285156 126.96875 115.285156 L 127.113281 115.285156 C 127.34375 115.285156 127.53125 115.359375 127.679688 115.5 C 127.824219 115.644531 127.894531 115.820312 127.894531 116.023438 C 127.894531 116.230469 127.824219 116.402344 127.683594 116.546875 C 127.542969 116.6875 127.371094 116.761719 127.167969 116.761719 Z M 126.878906 116.761719 "/>
<path fill-rule="nonzero" fill="rgb(100%, 100%, 100%)" fill-opacity="1" d="M 134.917969 111.226562 C 134.722656 111.226562 134.5625 111.167969 134.4375 111.039062 C 134.316406 110.917969 134.257812 110.757812 134.257812 110.570312 C 134.257812 110.375 134.316406 110.214844 134.4375 110.089844 C 134.5625 109.964844 134.722656 109.902344 134.917969 109.902344 L 135.40625 109.902344 C 135.589844 109.902344 135.746094 109.964844 135.867188 110.089844 C 135.988281 110.214844 136.054688 110.375 136.054688 110.570312 C 136.054688 110.757812 135.988281 110.917969 135.867188 111.039062 C 135.746094 111.167969 135.589844 111.226562 135.40625 111.226562 Z M 133.261719 110.664062 C 133.464844 110.664062 133.636719 110.730469 133.78125 110.859375 C 133.917969 110.988281 133.992188 111.15625 133.992188 111.363281 L 133.992188 116.089844 C 133.992188 116.296875 133.925781 116.46875 133.800781 116.613281 C 133.671875 116.757812 133.492188 116.828125 133.261719 116.828125 C 133.035156 116.828125 132.855469 116.757812 132.730469 116.613281 C 132.601562 116.46875 132.535156 116.296875 132.535156 116.089844 L 132.535156 111.507812 C 132.535156 111.277344 132.601562 111.078125 132.730469 110.914062 C 132.855469 110.75 133.035156 110.664062 133.261719 110.664062 "/>
<path fill-rule="nonzero" fill="rgb(100%, 100%, 100%)" fill-opacity="1" d="M 137.785156 116.828125 C 137.558594 116.828125 137.378906 116.757812 137.25 116.613281 C 137.121094 116.46875 137.0625 116.296875 137.0625 116.089844 L 137.0625 107.277344 C 137.0625 107.070312 137.121094 106.898438 137.25 106.753906 C 137.378906 106.613281 137.550781 106.539062 137.773438 106.539062 C 137.984375 106.539062 138.148438 106.609375 138.269531 106.746094 C 138.386719 106.886719 138.445312 107.050781 138.445312 107.234375 L 138.445312 107.398438 L 138.472656 107.25 L 138.472656 112.929688 L 141.484375 109.902344 C 141.554688 109.832031 141.640625 109.769531 141.742188 109.722656 C 141.84375 109.671875 141.957031 109.648438 142.078125 109.648438 C 142.300781 109.648438 142.472656 109.714844 142.601562 109.847656 C 142.726562 109.984375 142.792969 110.148438 142.792969 110.34375 C 142.792969 110.46875 142.769531 110.582031 142.722656 110.683594 C 142.671875 110.789062 142.613281 110.875 142.542969 110.945312 L 140.175781 113.171875 L 142.648438 115.515625 C 142.71875 115.585938 142.777344 115.671875 142.824219 115.773438 C 142.875 115.878906 142.898438 115.992188 142.898438 116.117188 C 142.898438 116.3125 142.835938 116.480469 142.707031 116.617188 C 142.578125 116.757812 142.410156 116.828125 142.199219 116.828125 C 142.066406 116.828125 141.945312 116.800781 141.835938 116.753906 C 141.722656 116.703125 141.636719 116.644531 141.566406 116.570312 L 138.484375 113.425781 L 138.484375 116.171875 C 138.484375 116.359375 138.425781 116.515625 138.292969 116.640625 C 138.164062 116.765625 137.996094 116.828125 137.785156 116.828125 "/>
<path fill-rule="nonzero" fill="rgb(100%, 100%, 100%)" fill-opacity="1" d="M 43.921875 127.703125 C 43.160156 127.703125 42.539062 127.460938 42.054688 126.976562 C 41.570312 126.492188 41.328125 125.886719 41.328125 125.164062 C 41.328125 124.402344 41.570312 123.78125 42.054688 123.296875 C 42.539062 122.8125 43.160156 122.570312 43.921875 122.570312 L 45.839844 122.570312 C 46.5625 122.570312 47.167969 122.8125 47.652344 123.296875 C 48.136719 123.78125 48.378906 124.402344 48.378906 125.164062 C 48.378906 125.886719 48.136719 126.492188 47.652344 126.976562 C 47.167969 127.460938 46.5625 127.703125 45.839844 127.703125 Z M 33.96875 123.816406 C 33.96875 122.570312 34.132812 121.136719 34.460938 119.511719 C 34.789062 117.890625 35.371094 116.359375 36.199219 114.925781 C 37.027344 113.492188 38.125 112.285156 39.488281 111.296875 C 40.855469 110.3125 42.574219 109.820312 44.644531 109.820312 L 44.75 109.820312 C 45.199219 109.820312 45.640625 109.847656 46.070312 109.898438 C 46.503906 109.949219 46.890625 110.074219 47.238281 110.261719 C 47.582031 110.453125 47.859375 110.726562 48.066406 111.089844 C 48.273438 111.453125 48.378906 111.929688 48.378906 112.515625 C 48.378906 114.105469 47.546875 114.902344 45.890625 114.902344 C 44.957031 114.902344 44.109375 115.132812 43.351562 115.597656 C 42.589844 116.066406 41.933594 116.707031 41.382812 117.515625 C 40.828125 118.328125 40.40625 119.273438 40.113281 120.339844 C 39.816406 121.414062 39.671875 122.570312 39.671875 123.816406 L 39.671875 146.515625 C 39.671875 147.3125 39.417969 147.984375 38.917969 148.535156 C 38.417969 149.089844 37.71875 149.367188 36.820312 149.367188 C 35.921875 149.367188 35.222656 149.089844 34.71875 148.535156 C 34.21875 147.984375 33.96875 147.3125 33.96875 146.515625 Z M 27.179688 125.007812 C 27.179688 124.246094 27.421875 123.625 27.90625 123.140625 C 28.390625 122.65625 29.011719 122.414062 29.769531 122.414062 C 30.496094 122.414062 31.101562 122.65625 31.585938 123.140625 C 32.070312 123.625 32.3125 124.246094 32.3125 125.007812 C 32.3125 125.730469 32.070312 126.335938 31.585938 126.820312 C 31.101562 127.304688 30.496094 127.546875 29.769531 127.546875 C 29.011719 127.546875 28.390625 127.304688 27.90625 126.820312 C 27.421875 126.335938 27.179688 125.730469 27.179688 125.007812 "/>
<path fill-rule="nonzero" fill="rgb(100%, 100%, 100%)" fill-opacity="1" d="M 57.480469 146.515625 C 57.480469 147.3125 57.226562 147.984375 56.726562 148.535156 C 56.226562 149.089844 55.527344 149.367188 54.628906 149.367188 C 53.730469 149.367188 53.03125 149.089844 52.527344 148.535156 C 52.027344 147.984375 51.777344 147.3125 51.777344 146.515625 L 51.777344 112.414062 C 51.777344 111.617188 52.027344 110.945312 52.527344 110.390625 C 53.03125 109.839844 53.730469 109.5625 54.628906 109.5625 C 55.527344 109.5625 56.226562 109.839844 56.726562 110.390625 C 57.226562 110.945312 57.480469 111.617188 57.480469 112.414062 Z M 57.480469 146.515625 "/>
<path fill-rule="nonzero" fill="rgb(100%, 100%, 100%)" fill-opacity="1" d="M 85.777344 135.476562 C 85.777344 134.40625 85.578125 133.394531 85.183594 132.445312 C 84.785156 131.496094 84.230469 130.65625 83.523438 129.929688 C 82.816406 129.207031 81.976562 128.625 81.011719 128.195312 C 80.042969 127.761719 78.988281 127.546875 77.847656 127.546875 C 76.707031 127.546875 75.652344 127.761719 74.6875 128.195312 C 73.71875 128.625 72.878906 129.207031 72.171875 129.929688 C 71.464844 130.65625 70.910156 131.496094 70.515625 132.445312 C 70.117188 133.394531 69.917969 134.40625 69.917969 135.476562 C 69.917969 136.546875 70.117188 137.558594 70.515625 138.507812 C 70.910156 139.460938 71.464844 140.296875 72.171875 141.023438 C 72.878906 141.746094 73.71875 142.328125 74.6875 142.757812 C 75.652344 143.191406 76.707031 143.40625 77.847656 143.40625 C 78.988281 143.40625 80.042969 143.191406 81.011719 142.757812 C 81.976562 142.328125 82.816406 141.746094 83.523438 141.023438 C 84.230469 140.296875 84.785156 139.460938 85.183594 138.507812 C 85.578125 137.558594 85.777344 136.546875 85.777344 135.476562 M 91.480469 135.476562 C 91.480469 137.34375 91.125 139.105469 90.417969 140.761719 C 89.707031 142.421875 88.75 143.875 87.542969 145.117188 C 86.332031 146.359375 84.898438 147.335938 83.238281 148.042969 C 81.582031 148.753906 79.78125 149.105469 77.847656 149.105469 C 75.949219 149.105469 74.160156 148.753906 72.484375 148.042969 C 70.808594 147.335938 69.363281 146.359375 68.15625 145.117188 C 66.945312 143.875 65.984375 142.421875 65.28125 140.761719 C 64.570312 139.105469 64.21875 137.34375 64.21875 135.476562 C 64.21875 133.609375 64.570312 131.847656 65.28125 130.1875 C 65.984375 128.53125 66.945312 127.078125 68.15625 125.835938 C 69.363281 124.589844 70.808594 123.617188 72.484375 122.910156 C 74.160156 122.199219 75.949219 121.84375 77.847656 121.84375 C 79.78125 121.84375 81.582031 122.199219 83.238281 122.910156 C 84.898438 123.617188 86.332031 124.589844 87.542969 125.835938 C 88.75 127.078125 89.707031 128.53125 90.417969 130.1875 C 91.125 131.847656 91.480469 133.609375 91.480469 135.476562 "/>
<path fill-rule="nonzero" fill="rgb(100%, 100%, 100%)" fill-opacity="1" d="M 108.246094 127.703125 C 107.488281 127.703125 106.863281 127.460938 106.378906 126.976562 C 105.898438 126.492188 105.65625 125.886719 105.65625 125.164062 C 105.65625 124.402344 105.898438 123.78125 106.378906 123.296875 C 106.863281 122.8125 107.488281 122.570312 108.246094 122.570312 L 110.164062 122.570312 C 110.890625 122.570312 111.492188 122.8125 111.976562 123.296875 C 112.464844 123.78125 112.707031 124.402344 112.707031 125.164062 C 112.707031 125.886719 112.464844 126.492188 111.976562 126.976562 C 111.492188 127.460938 110.890625 127.703125 110.164062 127.703125 Z M 101.769531 125.527344 C 102.5625 125.527344 103.238281 125.777344 103.789062 126.277344 C 104.339844 126.777344 104.617188 127.425781 104.617188 128.21875 L 104.617188 146.515625 C 104.617188 147.3125 104.367188 147.984375 103.867188 148.535156 C 103.367188 149.089844 102.667969 149.367188 101.769531 149.367188 C 100.867188 149.367188 100.167969 149.089844 99.667969 148.535156 C 99.167969 147.984375 98.917969 147.3125 98.917969 146.515625 L 98.917969 128.789062 C 98.917969 127.890625 99.167969 127.125 99.667969 126.484375 C 100.167969 125.84375 100.867188 125.527344 101.769531 125.527344 "/>
<path fill-rule="nonzero" fill="rgb(100%, 100%, 100%)" fill-opacity="1" d="M 128.511719 149.105469 C 126.644531 149.105469 124.910156 148.746094 123.300781 148.019531 C 121.695312 147.292969 120.3125 146.316406 119.15625 145.089844 C 117.996094 143.863281 117.082031 142.429688 116.410156 140.789062 C 115.734375 139.148438 115.398438 137.394531 115.398438 135.527344 C 115.398438 133.628906 115.753906 131.847656 116.460938 130.1875 C 117.167969 128.53125 118.128906 127.078125 119.335938 125.835938 C 120.546875 124.589844 121.988281 123.617188 123.664062 122.910156 C 125.339844 122.199219 127.128906 121.84375 129.027344 121.84375 C 130.964844 121.84375 132.761719 122.199219 134.421875 122.910156 C 136.078125 123.617188 137.511719 124.589844 138.71875 125.835938 C 139.929688 127.078125 140.890625 128.53125 141.597656 130.1875 C 142.304688 131.847656 142.660156 133.609375 142.660156 135.476562 L 142.660156 146.515625 C 142.660156 147.3125 142.402344 147.984375 141.882812 148.539062 C 141.363281 149.089844 140.65625 149.367188 139.757812 149.367188 C 138.859375 149.367188 138.167969 149.089844 137.683594 148.539062 C 137.199219 147.984375 136.957031 147.3125 136.957031 146.515625 L 136.957031 135.214844 C 136.957031 134.214844 136.761719 133.257812 136.363281 132.339844 C 135.964844 131.425781 135.410156 130.613281 134.703125 129.90625 C 133.996094 129.195312 133.15625 128.625 132.191406 128.195312 C 131.222656 127.761719 130.167969 127.546875 129.027344 127.546875 C 127.890625 127.546875 126.832031 127.761719 125.867188 128.195312 C 124.898438 128.625 124.0625 129.207031 123.355469 129.929688 C 122.644531 130.65625 122.09375 131.496094 121.695312 132.441406 C 121.296875 133.394531 121.101562 134.40625 121.101562 135.476562 C 121.101562 136.511719 121.289062 137.515625 121.671875 138.480469 C 122.050781 139.449219 122.585938 140.296875 123.277344 141.023438 C 123.96875 141.746094 124.789062 142.328125 125.738281 142.757812 C 126.6875 143.191406 127.734375 143.40625 128.875 143.40625 L 129.445312 143.40625 C 130.339844 143.40625 131.078125 143.683594 131.648438 144.234375 C 132.214844 144.789062 132.503906 145.460938 132.503906 146.257812 C 132.503906 147.050781 132.226562 147.726562 131.671875 148.277344 C 131.117188 148.832031 130.445312 149.105469 129.652344 149.105469 Z M 128.511719 149.105469 "/>
<path fill-rule="nonzero" fill="rgb(100%, 100%, 100%)" fill-opacity="1" d="M 139.441406 93.074219 C 139.609375 93.074219 139.773438 93.066406 139.929688 93.054688 C 140.082031 93.042969 140.21875 93.011719 140.335938 92.960938 C 140.457031 92.910156 140.550781 92.828125 140.621094 92.71875 C 140.695312 92.613281 140.730469 92.460938 140.730469 92.265625 C 140.730469 92.101562 140.699219 91.972656 140.632812 91.875 C 140.570312 91.777344 140.488281 91.703125 140.386719 91.652344 C 140.289062 91.597656 140.171875 91.5625 140.042969 91.542969 C 139.910156 91.523438 139.78125 91.515625 139.652344 91.515625 L 138.644531 91.515625 L 138.644531 93.074219 Z M 139.777344 90.898438 C 140.359375 90.898438 140.792969 91.015625 141.070312 91.246094 C 141.351562 91.476562 141.492188 91.828125 141.492188 92.300781 C 141.492188 92.738281 141.367188 93.0625 141.121094 93.269531 C 140.875 93.472656 140.570312 93.59375 140.203125 93.632812 L 141.601562 95.796875 L 140.785156 95.796875 L 139.453125 93.6875 L 138.644531 93.6875 L 138.644531 95.796875 L 137.882812 95.796875 L 137.882812 90.898438 Z M 136.320312 94.757812 C 136.496094 95.195312 136.738281 95.574219 137.046875 95.898438 C 137.359375 96.21875 137.726562 96.472656 138.144531 96.652344 C 138.570312 96.835938 139.027344 96.929688 139.519531 96.929688 C 140.003906 96.929688 140.457031 96.835938 140.875 96.652344 C 141.292969 96.472656 141.660156 96.21875 141.96875 95.898438 C 142.277344 95.574219 142.519531 95.195312 142.695312 94.757812 C 142.871094 94.320312 142.960938 93.847656 142.960938 93.332031 C 142.960938 92.832031 142.871094 92.363281 142.695312 91.929688 C 142.519531 91.496094 142.277344 91.121094 141.96875 90.804688 C 141.660156 90.484375 141.292969 90.234375 140.875 90.050781 C 140.457031 89.871094 140.003906 89.777344 139.519531 89.777344 C 139.027344 89.777344 138.570312 89.871094 138.144531 90.050781 C 137.726562 90.234375 137.359375 90.484375 137.046875 90.804688 C 136.738281 91.121094 136.496094 91.496094 136.320312 91.929688 C 136.144531 92.363281 136.054688 92.832031 136.054688 93.332031 C 136.054688 93.847656 136.144531 94.320312 136.320312 94.757812 M 135.632812 91.683594 C 135.855469 91.175781 136.160156 90.734375 136.542969 90.359375 C 136.929688 89.988281 137.378906 89.695312 137.886719 89.480469 C 138.398438 89.269531 138.941406 89.164062 139.519531 89.164062 C 140.09375 89.164062 140.636719 89.269531 141.144531 89.480469 C 141.652344 89.695312 142.097656 89.988281 142.476562 90.359375 C 142.859375 90.734375 143.160156 91.175781 143.386719 91.683594 C 143.609375 92.191406 143.722656 92.738281 143.722656 93.332031 C 143.722656 93.9375 143.609375 94.492188 143.386719 95.007812 C 143.160156 95.519531 142.859375 95.960938 142.476562 96.339844 C 142.097656 96.71875 141.652344 97.011719 141.144531 97.21875 C 140.636719 97.429688 140.09375 97.535156 139.519531 97.535156 C 138.941406 97.535156 138.398438 97.429688 137.886719 97.21875 C 137.378906 97.011719 136.929688 96.71875 136.542969 96.339844 C 136.160156 95.960938 135.855469 95.519531 135.632812 95.007812 C 135.40625 94.492188 135.292969 93.9375 135.292969 93.332031 C 135.292969 92.738281 135.40625 92.191406 135.632812 91.683594 "/>
</svg>
