<?xml version="1.0" encoding="UTF-8" standalone="no"?>
<!DOCTYPE svg PUBLIC "-//W3C//DTD SVG 1.1//EN"
 "http://www.w3.org/Graphics/SVG/1.1/DTD/svg11.dtd">
<!-- Generated by graphviz version 2.40.1 (20161225.0304)
 -->
<!-- Title: app_private.crm_prospect Pages: 1 -->
<svg width="840pt" height="622pt"
 viewBox="0.00 0.00 839.50 622.00" xmlns="http://www.w3.org/2000/svg" xmlns:xlink="http://www.w3.org/1999/xlink">
<g id="graph0" class="graph" transform="scale(1 1) rotate(0) translate(4 618)">
<title>app_private.crm_prospect</title>
<polygon fill="#ffffff" stroke="transparent" points="-4,4 -4,-618 835.5,-618 835.5,4 -4,4"/>
<!-- app_private.crm_prospect -->
<g id="node1" class="node">
<title>app_private.crm_prospect</title>
<polygon fill="#efefef" stroke="transparent" points="437,-195.5 437,-230.5 786,-230.5 786,-195.5 437,-195.5"/>
<polygon fill="none" stroke="#000000" points="437,-195.5 437,-230.5 786,-230.5 786,-195.5 437,-195.5"/>
<text text-anchor="start" x="443.694" y="-208.3" font-family="Arial Bold" font-size="18.00" fill="#000000">app_private.crm_prospect</text>
<text text-anchor="start" x="651.738" y="-208.3" font-family="Arial" font-size="14.00" fill="#000000">    </text>
<text text-anchor="start" x="685.9428" y="-208.3" font-family="Arial" font-size="14.00" fill="#666666">[BASE TABLE]</text>
<polygon fill="none" stroke="#000000" points="437,-165.5 437,-195.5 786,-195.5 786,-165.5 437,-165.5"/>
<text text-anchor="start" x="444" y="-176.9" font-family="Arial" font-size="14.00" fill="#000000">id </text>
<text text-anchor="start" x="458.7798" y="-176.9" font-family="Arial" font-size="14.00" fill="#666666">[integer]</text>
<polygon fill="none" stroke="#000000" points="437,-135.5 437,-165.5 786,-165.5 786,-135.5 437,-135.5"/>
<text text-anchor="start" x="444" y="-146.9" font-family="Arial" font-size="14.00" fill="#000000">cohort </text>
<text text-anchor="start" x="486.7896" y="-146.9" font-family="Arial" font-size="14.00" fill="#666666">[app_private.crm_cohort]</text>
<polygon fill="none" stroke="#000000" points="437,-105.5 437,-135.5 786,-135.5 786,-105.5 437,-105.5"/>
<text text-anchor="start" x="444" y="-116.9" font-family="Arial" font-size="14.00" fill="#000000">data </text>
<text text-anchor="start" x="475.129" y="-116.9" font-family="Arial" font-size="14.00" fill="#666666">[prospect_data]</text>
<polygon fill="none" stroke="#000000" points="437,-75.5 437,-105.5 786,-105.5 786,-75.5 437,-75.5"/>
<text text-anchor="start" x="444" y="-86.9" font-family="Arial" font-size="14.00" fill="#000000">created_at </text>
<text text-anchor="start" x="514.028" y="-86.9" font-family="Arial" font-size="14.00" fill="#666666">[timestamp with time zone]</text>
<polygon fill="none" stroke="#000000" points="437,-45.5 437,-75.5 786,-75.5 786,-45.5 437,-45.5"/>
<text text-anchor="start" x="444" y="-56.9" font-family="Arial" font-size="14.00" fill="#000000">updated_at </text>
<text text-anchor="start" x="517.9326" y="-56.9" font-family="Arial" font-size="14.00" fill="#666666">[timestamp with time zone]</text>
<polygon fill="none" stroke="#000000" stroke-width="3" points="435,-44.5 435,-232.5 787,-232.5 787,-44.5 435,-44.5"/>
</g>
<!-- app_private.crm_activity -->
<g id="node2" class="node">
<title>app_private.crm_activity</title>
<polygon fill="#efefef" stroke="transparent" points="444,-535.5 444,-570.5 779,-570.5 779,-535.5 444,-535.5"/>
<polygon fill="none" stroke="#000000" points="444,-535.5 444,-570.5 779,-570.5 779,-535.5 444,-535.5"/>
<text text-anchor="start" x="450.7041" y="-548.3" font-family="Arial Bold" font-size="18.00" fill="#000000">app_private.crm_activity</text>
<text text-anchor="start" x="644.7279" y="-548.3" font-family="Arial" font-size="14.00" fill="#000000">    </text>
<text text-anchor="start" x="678.9327" y="-548.3" font-family="Arial" font-size="14.00" fill="#666666">[BASE TABLE]</text>
<polygon fill="none" stroke="#000000" points="444,-505.5 444,-535.5 779,-535.5 779,-505.5 444,-505.5"/>
<text text-anchor="start" x="451" y="-516.9" font-family="Arial" font-size="14.00" fill="#000000">id    </text>
<text text-anchor="start" x="496.094" y="-516.9" font-family="Arial" font-size="14.00" fill="#666666">[integer]</text>
<polygon fill="none" stroke="#000000" points="444,-475.5 444,-505.5 779,-505.5 779,-475.5 444,-475.5"/>
<text text-anchor="start" x="451" y="-486.9" font-family="Arial" font-size="14.00" fill="#000000">prospect    </text>
<text text-anchor="start" x="538.8864" y="-486.9" font-family="Arial" font-size="14.00" fill="#666666">[integer]</text>
<polygon fill="none" stroke="#000000" points="444,-445.5 444,-475.5 779,-475.5 779,-445.5 444,-445.5"/>
<text text-anchor="start" x="451" y="-456.9" font-family="Arial" font-size="14.00" fill="#000000">origin    </text>
<text text-anchor="start" x="519.4264" y="-456.9" font-family="Arial" font-size="14.00" fill="#666666">[text]</text>
<polygon fill="none" stroke="#000000" points="444,-415.5 444,-445.5 779,-445.5 779,-415.5 444,-415.5"/>
<text text-anchor="start" x="451" y="-426.9" font-family="Arial" font-size="14.00" fill="#000000">note    </text>
<text text-anchor="start" x="512.4432" y="-426.9" font-family="Arial" font-size="14.00" fill="#666666">[text]</text>
<polygon fill="none" stroke="#000000" points="444,-385.5 444,-415.5 779,-415.5 779,-385.5 444,-385.5"/>
<text text-anchor="start" x="451" y="-396.9" font-family="Arial" font-size="14.00" fill="#000000">created_at    </text>
<text text-anchor="start" x="551.3422" y="-396.9" font-family="Arial" font-size="14.00" fill="#666666">[timestamp with time zone]</text>
<polygon fill="none" stroke="#000000" points="444,-355.5 444,-385.5 779,-385.5 779,-355.5 444,-355.5"/>
<text text-anchor="start" x="451" y="-366.9" font-family="Arial" font-size="14.00" fill="#000000">updated_at    </text>
<text text-anchor="start" x="555.2468" y="-366.9" font-family="Arial" font-size="14.00" fill="#666666">[timestamp with time zone]</text>
</g>
<!-- app_private.crm_activity&#45;&gt;app_private.crm_prospect -->
<g id="edge1" class="edge">
<title>app_private.crm_activity:prospect&#45;&gt;app_private.crm_prospect:id</title>
<path fill="none" stroke="#000000" d="M433.9833,-488.183C374.5784,-459.815 371.5927,-180.5 437,-180.5"/>
<polygon fill="#000000" stroke="#000000" points="434.2573,-488.2463 442.9858,-494.8842 439.1286,-489.3731 444,-490.5 444,-490.5 444,-490.5 439.1286,-489.3731 445.0142,-486.1158 434.2573,-488.2463 434.2573,-488.2463"/>
<text text-anchor="start" x="6.707" y="-500.5" font-family="Arial" font-size="10.00" fill="#000000">FOREIGN KEY (prospect) REFERENCES app_private.crm_prospect(id) ON DELETE CASCADE</text>
</g>
</g>
</svg>
