<?xml version="1.0" encoding="UTF-8" standalone="no"?>
<!DOCTYPE svg PUBLIC "-//W3C//DTD SVG 1.1//EN"
 "http://www.w3.org/Graphics/SVG/1.1/DTD/svg11.dtd">
<!-- Generated by graphviz version 2.40.1 (20161225.0304)
 -->
<!-- Title: app_private.pary_navrh Pages: 1 -->
<svg width="884pt" height="892pt"
 viewBox="0.00 0.00 884.00 892.00" xmlns="http://www.w3.org/2000/svg" xmlns:xlink="http://www.w3.org/1999/xlink">
<g id="graph0" class="graph" transform="scale(1 1) rotate(0) translate(4 888)">
<title>app_private.pary_navrh</title>
<polygon fill="#ffffff" stroke="transparent" points="-4,4 -4,-888 880,-888 880,4 -4,4"/>
<!-- app_private.pary_navrh -->
<g id="node1" class="node">
<title>app_private.pary_navrh</title>
<polygon fill="#efefef" stroke="transparent" points="500,-802.5 500,-837.5 830,-837.5 830,-802.5 500,-802.5"/>
<polygon fill="none" stroke="#000000" points="500,-802.5 500,-837.5 830,-837.5 830,-802.5 500,-802.5"/>
<text text-anchor="start" x="506.6881" y="-815.3" font-family="Arial Bold" font-size="18.00" fill="#000000">app_private.pary_navrh</text>
<text text-anchor="start" x="695.7439" y="-815.3" font-family="Arial" font-size="14.00" fill="#000000">    </text>
<text text-anchor="start" x="729.9487" y="-815.3" font-family="Arial" font-size="14.00" fill="#666666">[BASE TABLE]</text>
<polygon fill="none" stroke="#000000" points="500,-772.5 500,-802.5 830,-802.5 830,-772.5 500,-772.5"/>
<text text-anchor="start" x="507" y="-783.9" font-family="Arial" font-size="14.00" fill="#000000">pn_id </text>
<text text-anchor="start" x="545.1276" y="-783.9" font-family="Arial" font-size="14.00" fill="#666666">[bigint]</text>
<polygon fill="none" stroke="#000000" points="500,-742.5 500,-772.5 830,-772.5 830,-742.5 500,-742.5"/>
<text text-anchor="start" x="507" y="-753.9" font-family="Arial" font-size="14.00" fill="#000000">pn_navrhl </text>
<text text-anchor="start" x="572.3534" y="-753.9" font-family="Arial" font-size="14.00" fill="#666666">[bigint]</text>
<polygon fill="none" stroke="#000000" points="500,-712.5 500,-742.5 830,-742.5 830,-712.5 500,-712.5"/>
<text text-anchor="start" x="507" y="-723.9" font-family="Arial" font-size="14.00" fill="#000000">pn_partner </text>
<text text-anchor="start" x="578.5806" y="-723.9" font-family="Arial" font-size="14.00" fill="#666666">[bigint]</text>
<polygon fill="none" stroke="#000000" points="500,-682.5 500,-712.5 830,-712.5 830,-682.5 500,-682.5"/>
<text text-anchor="start" x="507" y="-693.9" font-family="Arial" font-size="14.00" fill="#000000">pn_partnerka </text>
<text text-anchor="start" x="593.3632" y="-693.9" font-family="Arial" font-size="14.00" fill="#666666">[bigint]</text>
<polygon fill="none" stroke="#000000" points="500,-652.5 500,-682.5 830,-682.5 830,-652.5 500,-652.5"/>
<text text-anchor="start" x="507" y="-663.9" font-family="Arial" font-size="14.00" fill="#000000">id </text>
<text text-anchor="start" x="521.7798" y="-663.9" font-family="Arial" font-size="14.00" fill="#666666">[bigint]</text>
<polygon fill="none" stroke="#000000" stroke-width="3" points="498.5,-651.5 498.5,-839.5 831.5,-839.5 831.5,-651.5 498.5,-651.5"/>
</g>
<!-- public.users -->
<g id="node2" class="node">
<title>public.users</title>
<polygon fill="#efefef" stroke="transparent" points="517,-492.5 517,-527.5 812,-527.5 812,-492.5 517,-492.5"/>
<polygon fill="none" stroke="#000000" points="517,-492.5 517,-527.5 812,-527.5 812,-492.5 517,-492.5"/>
<text text-anchor="start" x="552.7091" y="-505.3" font-family="Arial Bold" font-size="18.00" fill="#000000">public.users</text>
<text text-anchor="start" x="648.7229" y="-505.3" font-family="Arial" font-size="14.00" fill="#000000">    </text>
<text text-anchor="start" x="682.9277" y="-505.3" font-family="Arial" font-size="14.00" fill="#666666">[BASE TABLE]</text>
<polygon fill="none" stroke="#000000" points="517,-462.5 517,-492.5 812,-492.5 812,-462.5 517,-462.5"/>
<text text-anchor="start" x="524" y="-473.9" font-family="Arial" font-size="14.00" fill="#000000">u_id    </text>
<text text-anchor="start" x="584.6592" y="-473.9" font-family="Arial" font-size="14.00" fill="#666666">[bigint]</text>
<polygon fill="none" stroke="#000000" points="517,-432.5 517,-462.5 812,-462.5 812,-432.5 517,-432.5"/>
<text text-anchor="start" x="524" y="-443.9" font-family="Arial" font-size="14.00" fill="#000000">u_login    </text>
<text text-anchor="start" x="603.331" y="-443.9" font-family="Arial" font-size="14.00" fill="#666666">[citext]</text>
<polygon fill="none" stroke="#000000" points="517,-402.5 517,-432.5 812,-432.5 812,-402.5 517,-402.5"/>
<text text-anchor="start" x="524" y="-413.9" font-family="Arial" font-size="14.00" fill="#000000">u_pass    </text>
<text text-anchor="start" x="603.3352" y="-413.9" font-family="Arial" font-size="14.00" fill="#666666">[character(40)]</text>
<polygon fill="none" stroke="#000000" points="517,-372.5 517,-402.5 812,-402.5 812,-372.5 517,-372.5"/>
<text text-anchor="start" x="524" y="-383.9" font-family="Arial" font-size="14.00" fill="#000000">u_jmeno    </text>
<text text-anchor="start" x="611.885" y="-383.9" font-family="Arial" font-size="14.00" fill="#666666">[text]</text>
<polygon fill="none" stroke="#000000" points="517,-342.5 517,-372.5 812,-372.5 812,-342.5 517,-342.5"/>
<text text-anchor="start" x="524" y="-353.9" font-family="Arial" font-size="14.00" fill="#000000">u_prijmeni    </text>
<text text-anchor="start" x="622.7588" y="-353.9" font-family="Arial" font-size="14.00" fill="#666666">[text]</text>
<polygon fill="none" stroke="#000000" points="517,-312.5 517,-342.5 812,-342.5 812,-312.5 517,-312.5"/>
<text text-anchor="start" x="524" y="-323.9" font-family="Arial" font-size="14.00" fill="#000000">u_email    </text>
<text text-anchor="start" x="607.209" y="-323.9" font-family="Arial" font-size="14.00" fill="#666666">[citext]</text>
<polygon fill="none" stroke="#000000" points="517,-282.5 517,-312.5 812,-312.5 812,-282.5 517,-282.5"/>
<text text-anchor="start" x="524" y="-293.9" font-family="Arial" font-size="14.00" fill="#000000">updated_at    </text>
<text text-anchor="start" x="628.2468" y="-293.9" font-family="Arial" font-size="14.00" fill="#666666">[timestamp with time zone]</text>
<polygon fill="none" stroke="#000000" points="517,-252.5 517,-282.5 812,-282.5 812,-252.5 517,-252.5"/>
<text text-anchor="start" x="524" y="-263.9" font-family="Arial" font-size="14.00" fill="#000000">u_ban    </text>
<text text-anchor="start" x="597.1178" y="-263.9" font-family="Arial" font-size="14.00" fill="#666666">[boolean]</text>
<polygon fill="none" stroke="#000000" points="517,-222.5 517,-252.5 812,-252.5 812,-222.5 517,-222.5"/>
<text text-anchor="start" x="524" y="-233.9" font-family="Arial" font-size="14.00" fill="#000000">u_confirmed    </text>
<text text-anchor="start" x="635.2188" y="-233.9" font-family="Arial" font-size="14.00" fill="#666666">[boolean]</text>
<polygon fill="none" stroke="#000000" points="517,-192.5 517,-222.5 812,-222.5 812,-192.5 517,-192.5"/>
<text text-anchor="start" x="523.7041" y="-203.9" font-family="Arial" font-size="14.00" fill="#000000">u_created_at    </text>
<text text-anchor="start" x="639.6115" y="-203.9" font-family="Arial" font-size="14.00" fill="#666666">[timestamp with time zone]</text>
<polygon fill="none" stroke="#000000" points="517,-162.5 517,-192.5 812,-192.5 812,-162.5 517,-162.5"/>
<text text-anchor="start" x="524" y="-173.9" font-family="Arial" font-size="14.00" fill="#000000">id    </text>
<text text-anchor="start" x="569.094" y="-173.9" font-family="Arial" font-size="14.00" fill="#666666">[bigint]</text>
<polygon fill="none" stroke="#000000" points="517,-132.5 517,-162.5 812,-162.5 812,-132.5 517,-132.5"/>
<text text-anchor="start" x="524" y="-143.9" font-family="Arial" font-size="14.00" fill="#000000">tenant_id    </text>
<text text-anchor="start" x="615.7882" y="-143.9" font-family="Arial" font-size="14.00" fill="#666666">[bigint]</text>
<polygon fill="none" stroke="#000000" points="517,-102.5 517,-132.5 812,-132.5 812,-102.5 517,-102.5"/>
<text text-anchor="start" x="524" y="-113.9" font-family="Arial" font-size="14.00" fill="#000000">last_login    </text>
<text text-anchor="start" x="617.3282" y="-113.9" font-family="Arial" font-size="14.00" fill="#666666">[timestamp with time zone]</text>
<polygon fill="none" stroke="#000000" points="517,-72.5 517,-102.5 812,-102.5 812,-72.5 517,-72.5"/>
<text text-anchor="start" x="524" y="-83.9" font-family="Arial" font-size="14.00" fill="#000000">created_at    </text>
<text text-anchor="start" x="624.3422" y="-83.9" font-family="Arial" font-size="14.00" fill="#666666">[timestamp with time zone]</text>
<polygon fill="none" stroke="#000000" points="517,-42.5 517,-72.5 812,-72.5 812,-42.5 517,-42.5"/>
<text text-anchor="start" x="524" y="-53.9" font-family="Arial" font-size="14.00" fill="#000000">u_timestamp    </text>
<text text-anchor="start" x="638.3268" y="-53.9" font-family="Arial" font-size="14.00" fill="#666666">[timestamp with time zone]</text>
</g>
<!-- app_private.pary_navrh&#45;&gt;public.users -->
<g id="edge1" class="edge">
<title>app_private.pary_navrh:pn_navrhl&#45;&gt;public.users:u_id</title>
<path fill="none" stroke="#000000" d="M489.816,-756.6224C435.6256,-746.6521 457.9294,-654.204 500,-607 592.8737,-502.7939 719.1263,-675.2061 812,-571 839.6489,-539.9774 853.5556,-477.5 812,-477.5"/>
<polygon fill="#000000" stroke="#000000" points="490.0369,-756.6414 499.6136,-761.9834 495.0185,-757.0707 500,-757.5 500,-757.5 500,-757.5 495.0185,-757.0707 500.3864,-753.0166 490.0369,-756.6414 490.0369,-756.6414"/>
<text text-anchor="start" x="22.1655" y="-767.5" font-family="Arial" font-size="10.00" fill="#000000">FOREIGN KEY (pn_navrhl) REFERENCES users(u_id) ON UPDATE RESTRICT ON DELETE RESTRICT</text>
</g>
<!-- app_private.pary_navrh&#45;&gt;public.users -->
<g id="edge2" class="edge">
<title>app_private.pary_navrh:pn_partner&#45;&gt;public.users:u_id</title>
<path fill="none" stroke="#000000" d="M490.0018,-726.4099C448.9775,-716.681 466.8028,-644.2479 500,-607 592.8737,-502.7939 719.1263,-675.2061 812,-571 839.6489,-539.9774 853.5556,-477.5 812,-477.5"/>
<polygon fill="#000000" stroke="#000000" points="490.0589,-726.416 499.5122,-731.9735 495.0295,-726.958 500,-727.5 500,-727.5 500,-727.5 495.0295,-726.958 500.4878,-723.0265 490.0589,-726.416 490.0589,-726.416"/>
<text text-anchor="start" x="16.9415" y="-737.5" font-family="Arial" font-size="10.00" fill="#000000">FOREIGN KEY (pn_partner) REFERENCES users(u_id) ON UPDATE RESTRICT ON DELETE RESTRICT</text>
</g>
<!-- app_private.pary_navrh&#45;&gt;public.users -->
<g id="edge3" class="edge">
<title>app_private.pary_navrh:pn_partnerka&#45;&gt;public.users:u_id</title>
<path fill="none" stroke="#000000" d="M490.0697,-695.9804C462.4185,-686.4289 475.7471,-634.2122 500,-607 592.8737,-502.7939 719.1263,-675.2061 812,-571 839.6489,-539.9774 853.5556,-477.5 812,-477.5"/>
<polygon fill="#000000" stroke="#000000" points="490.1151,-695.9873 499.3193,-701.9482 495.0575,-696.7436 500,-697.5 500,-697.5 500,-697.5 495.0575,-696.7436 500.6807,-693.0518 490.1151,-695.9873 490.1151,-695.9873"/>
<text text-anchor="start" x="6.662" y="-707.5" font-family="Arial" font-size="10.00" fill="#000000">FOREIGN KEY (pn_partnerka) REFERENCES users(u_id) ON UPDATE RESTRICT ON DELETE RESTRICT</text>
</g>
</g>
</svg>
