<?xml version="1.0" encoding="UTF-8" standalone="no"?>
<!DOCTYPE svg PUBLIC "-//W3C//DTD SVG 1.1//EN"
 "http://www.w3.org/Graphics/SVG/1.1/DTD/svg11.dtd">
<!-- Generated by graphviz version 2.40.1 (20161225.0304)
 -->
<!-- Title: app_private.skupiny Pages: 1 -->
<svg width="1075pt" height="832pt"
 viewBox="0.00 0.00 1075.00 832.00" xmlns="http://www.w3.org/2000/svg" xmlns:xlink="http://www.w3.org/1999/xlink">
<g id="graph0" class="graph" transform="scale(1 1) rotate(0) translate(4 828)">
<title>app_private.skupiny</title>
<polygon fill="#ffffff" stroke="transparent" points="-4,4 -4,-828 1071,-828 1071,4 -4,4"/>
<!-- app_private.skupiny -->
<g id="node1" class="node">
<title>app_private.skupiny</title>
<polygon fill="#efefef" stroke="transparent" points="407,-742.5 407,-777.5 708,-777.5 708,-742.5 407,-742.5"/>
<polygon fill="none" stroke="#000000" points="407,-742.5 407,-777.5 708,-777.5 708,-742.5 407,-742.5"/>
<text text-anchor="start" x="413.6925" y="-755.3" font-family="Arial Bold" font-size="18.00" fill="#000000">app_private.skupiny</text>
<text text-anchor="start" x="573.7395" y="-755.3" font-family="Arial" font-size="14.00" fill="#000000">    </text>
<text text-anchor="start" x="607.9443" y="-755.3" font-family="Arial" font-size="14.00" fill="#666666">[BASE TABLE]</text>
<polygon fill="none" stroke="#000000" points="407,-712.5 407,-742.5 708,-742.5 708,-712.5 407,-712.5"/>
<text text-anchor="start" x="414" y="-723.9" font-family="Arial" font-size="14.00" fill="#000000">s_id </text>
<text text-anchor="start" x="443.5624" y="-723.9" font-family="Arial" font-size="14.00" fill="#666666">[bigint]</text>
<polygon fill="none" stroke="#000000" points="407,-682.5 407,-712.5 708,-712.5 708,-682.5 407,-682.5"/>
<text text-anchor="start" x="414" y="-693.9" font-family="Arial" font-size="14.00" fill="#000000">s_name </text>
<text text-anchor="start" x="467.6816" y="-693.9" font-family="Arial" font-size="14.00" fill="#666666">[text]</text>
<polygon fill="none" stroke="#000000" points="407,-652.5 407,-682.5 708,-682.5 708,-652.5 407,-652.5"/>
<text text-anchor="start" x="414" y="-663.9" font-family="Arial" font-size="14.00" fill="#000000">s_description </text>
<text text-anchor="start" x="500.3506" y="-663.9" font-family="Arial" font-size="14.00" fill="#666666">[text]</text>
<polygon fill="none" stroke="#000000" points="407,-622.5 407,-652.5 708,-652.5 708,-622.5 407,-622.5"/>
<text text-anchor="start" x="414" y="-633.9" font-family="Arial" font-size="14.00" fill="#000000">s_color_rgb </text>
<text text-anchor="start" x="491.014" y="-633.9" font-family="Arial" font-size="14.00" fill="#666666">[text]</text>
<polygon fill="none" stroke="#000000" points="407,-592.5 407,-622.5 708,-622.5 708,-592.5 407,-592.5"/>
<text text-anchor="start" x="414" y="-603.9" font-family="Arial" font-size="14.00" fill="#000000">s_location </text>
<text text-anchor="start" x="480.9074" y="-603.9" font-family="Arial" font-size="14.00" fill="#666666">[text]</text>
<polygon fill="none" stroke="#000000" points="407,-562.5 407,-592.5 708,-592.5 708,-562.5 407,-562.5"/>
<text text-anchor="start" x="414" y="-573.9" font-family="Arial" font-size="14.00" fill="#000000">s_visible </text>
<text text-anchor="start" x="471.5582" y="-573.9" font-family="Arial" font-size="14.00" fill="#666666">[boolean]</text>
<polygon fill="none" stroke="#000000" points="407,-532.5 407,-562.5 708,-562.5 708,-532.5 407,-532.5"/>
<text text-anchor="start" x="414" y="-543.9" font-family="Arial" font-size="14.00" fill="#000000">ordering </text>
<text text-anchor="start" x="469.2314" y="-543.9" font-family="Arial" font-size="14.00" fill="#666666">[integer]</text>
<polygon fill="none" stroke="#000000" points="407,-502.5 407,-532.5 708,-532.5 708,-502.5 407,-502.5"/>
<text text-anchor="start" x="414" y="-513.9" font-family="Arial" font-size="14.00" fill="#000000">cohort_group </text>
<text text-anchor="start" x="500.3632" y="-513.9" font-family="Arial" font-size="14.00" fill="#666666">[bigint]</text>
<polygon fill="none" stroke="#000000" points="407,-472.5 407,-502.5 708,-502.5 708,-472.5 407,-472.5"/>
<text text-anchor="start" x="414" y="-483.9" font-family="Arial" font-size="14.00" fill="#000000">id </text>
<text text-anchor="start" x="428.7798" y="-483.9" font-family="Arial" font-size="14.00" fill="#666666">[bigint]</text>
<polygon fill="none" stroke="#000000" points="407,-442.5 407,-472.5 708,-472.5 708,-442.5 407,-442.5"/>
<text text-anchor="start" x="414" y="-453.9" font-family="Arial" font-size="14.00" fill="#000000">tenant_id </text>
<text text-anchor="start" x="475.474" y="-453.9" font-family="Arial" font-size="14.00" fill="#666666">[bigint]</text>
<polygon fill="none" stroke="#000000" stroke-width="3" points="405,-441.5 405,-779.5 709,-779.5 709,-441.5 405,-441.5"/>
</g>
<!-- public.cohort_group -->
<g id="node2" class="node">
<title>public.cohort_group</title>
<polygon fill="#efefef" stroke="transparent" points="221,-252.5 221,-287.5 520,-287.5 520,-252.5 221,-252.5"/>
<polygon fill="none" stroke="#000000" points="221,-252.5 221,-287.5 520,-287.5 520,-252.5 221,-252.5"/>
<text text-anchor="start" x="227.6933" y="-265.3" font-family="Arial Bold" font-size="18.00" fill="#000000">public.cohort_group</text>
<text text-anchor="start" x="385.7387" y="-265.3" font-family="Arial" font-size="14.00" fill="#000000">    </text>
<text text-anchor="start" x="419.9435" y="-265.3" font-family="Arial" font-size="14.00" fill="#666666">[BASE TABLE]</text>
<polygon fill="none" stroke="#000000" points="221,-222.5 221,-252.5 520,-252.5 520,-222.5 221,-222.5"/>
<text text-anchor="start" x="228" y="-233.9" font-family="Arial" font-size="14.00" fill="#000000">id    </text>
<text text-anchor="start" x="273.094" y="-233.9" font-family="Arial" font-size="14.00" fill="#666666">[bigint]</text>
<polygon fill="none" stroke="#000000" points="221,-192.5 221,-222.5 520,-222.5 520,-192.5 221,-192.5"/>
<text text-anchor="start" x="228" y="-203.9" font-family="Arial" font-size="14.00" fill="#000000">name    </text>
<text text-anchor="start" x="297.2132" y="-203.9" font-family="Arial" font-size="14.00" fill="#666666">[text]</text>
<polygon fill="none" stroke="#000000" points="221,-162.5 221,-192.5 520,-192.5 520,-162.5 221,-162.5"/>
<text text-anchor="start" x="228" y="-173.9" font-family="Arial" font-size="14.00" fill="#000000">description    </text>
<text text-anchor="start" x="329.8822" y="-173.9" font-family="Arial" font-size="14.00" fill="#666666">[text]</text>
<polygon fill="none" stroke="#000000" points="221,-132.5 221,-162.5 520,-162.5 520,-132.5 221,-132.5"/>
<text text-anchor="start" x="228" y="-143.9" font-family="Arial" font-size="14.00" fill="#000000">ordering    </text>
<text text-anchor="start" x="313.5456" y="-143.9" font-family="Arial" font-size="14.00" fill="#666666">[integer]</text>
<polygon fill="none" stroke="#000000" points="221,-102.5 221,-132.5 520,-132.5 520,-102.5 221,-102.5"/>
<text text-anchor="start" x="228" y="-113.9" font-family="Arial" font-size="14.00" fill="#000000">is_public    </text>
<text text-anchor="start" x="316.655" y="-113.9" font-family="Arial" font-size="14.00" fill="#666666">[boolean]</text>
<polygon fill="none" stroke="#000000" points="221,-72.5 221,-102.5 520,-102.5 520,-72.5 221,-72.5"/>
<text text-anchor="start" x="228" y="-83.9" font-family="Arial" font-size="14.00" fill="#000000">tenant_id    </text>
<text text-anchor="start" x="319.7882" y="-83.9" font-family="Arial" font-size="14.00" fill="#666666">[bigint]</text>
</g>
<!-- app_private.skupiny&#45;&gt;public.cohort_group -->
<g id="edge1" class="edge">
<title>app_private.skupiny:cohort_group&#45;&gt;public.cohort_group:id</title>
<path fill="none" stroke="#000000" d="M396.8683,-516.437C357.2253,-507.2229 382.2135,-440.1818 407,-397 435.9539,-346.5581 491.0461,-381.4419 520,-331 540.6873,-294.9597 561.5556,-237.5 520,-237.5"/>
<polygon fill="#000000" stroke="#000000" points="397.0546,-516.4565 406.5304,-521.9754 402.0273,-516.9782 407,-517.5 407,-517.5 407,-517.5 402.0273,-516.9782 407.4696,-513.0246 397.0546,-516.4565 397.0546,-516.4565"/>
<text text-anchor="start" x="7.0355" y="-527.5" font-family="Arial" font-size="10.00" fill="#000000">FOREIGN KEY (cohort_group) REFERENCES cohort_group(id) ON DELETE SET NULL</text>
</g>
<!-- public.tenant -->
<g id="node3" class="node">
<title>public.tenant</title>
<polygon fill="#efefef" stroke="transparent" points="624,-282.5 624,-317.5 867,-317.5 867,-282.5 624,-282.5"/>
<polygon fill="none" stroke="#000000" points="624,-282.5 624,-317.5 867,-317.5 867,-282.5 624,-282.5"/>
<text text-anchor="start" x="630.6968" y="-295.3" font-family="Arial Bold" font-size="18.00" fill="#000000">public.tenant</text>
<text text-anchor="start" x="732.7352" y="-295.3" font-family="Arial" font-size="14.00" fill="#000000">    </text>
<text text-anchor="start" x="766.94" y="-295.3" font-family="Arial" font-size="14.00" fill="#666666">[BASE TABLE]</text>
<polygon fill="none" stroke="#000000" points="624,-252.5 624,-282.5 867,-282.5 867,-252.5 624,-252.5"/>
<text text-anchor="start" x="631" y="-263.9" font-family="Arial" font-size="14.00" fill="#000000">id    </text>
<text text-anchor="start" x="676.094" y="-263.9" font-family="Arial" font-size="14.00" fill="#666666">[bigint]</text>
<polygon fill="none" stroke="#000000" points="624,-222.5 624,-252.5 867,-252.5 867,-222.5 624,-222.5"/>
<text text-anchor="start" x="631" y="-233.9" font-family="Arial" font-size="14.00" fill="#000000">name    </text>
<text text-anchor="start" x="700.2132" y="-233.9" font-family="Arial" font-size="14.00" fill="#666666">[text]</text>
<polygon fill="none" stroke="#000000" points="624,-192.5 624,-222.5 867,-222.5 867,-192.5 624,-192.5"/>
<text text-anchor="start" x="631" y="-203.9" font-family="Arial" font-size="14.00" fill="#000000">origins    </text>
<text text-anchor="start" x="706.4264" y="-203.9" font-family="Arial" font-size="14.00" fill="#666666">[text[]]</text>
<polygon fill="none" stroke="#000000" points="624,-162.5 624,-192.5 867,-192.5 867,-162.5 624,-162.5"/>
<text text-anchor="start" x="631" y="-173.9" font-family="Arial" font-size="14.00" fill="#000000">cz_ico    </text>
<text text-anchor="start" x="704.8766" y="-173.9" font-family="Arial" font-size="14.00" fill="#666666">[text]</text>
<polygon fill="none" stroke="#000000" points="624,-132.5 624,-162.5 867,-162.5 867,-132.5 624,-132.5"/>
<text text-anchor="start" x="631" y="-143.9" font-family="Arial" font-size="14.00" fill="#000000">cz_dic    </text>
<text text-anchor="start" x="704.8766" y="-143.9" font-family="Arial" font-size="14.00" fill="#666666">[text]</text>
<polygon fill="none" stroke="#000000" points="624,-102.5 624,-132.5 867,-132.5 867,-102.5 624,-102.5"/>
<text text-anchor="start" x="631" y="-113.9" font-family="Arial" font-size="14.00" fill="#000000">address    </text>
<text text-anchor="start" x="714.9958" y="-113.9" font-family="Arial" font-size="14.00" fill="#666666">[address_domain]</text>
<polygon fill="none" stroke="#000000" points="624,-72.5 624,-102.5 867,-102.5 867,-72.5 624,-72.5"/>
<text text-anchor="start" x="631" y="-83.9" font-family="Arial" font-size="14.00" fill="#000000">description    </text>
<text text-anchor="start" x="732.8822" y="-83.9" font-family="Arial" font-size="14.00" fill="#666666">[text]</text>
<polygon fill="none" stroke="#000000" points="624,-42.5 624,-72.5 867,-72.5 867,-42.5 624,-42.5"/>
<text text-anchor="start" x="631" y="-53.9" font-family="Arial" font-size="14.00" fill="#000000">bank_account    </text>
<text text-anchor="start" x="752.3562" y="-53.9" font-family="Arial" font-size="14.00" fill="#666666">[text]</text>
</g>
<!-- app_private.skupiny&#45;&gt;public.tenant -->
<g id="edge2" class="edge">
<title>app_private.skupiny:tenant_id&#45;&gt;public.tenant:id</title>
<path fill="none" stroke="#000000" d="M717.8878,-454.9177C731.0455,-445.9897 720.4893,-415.9405 708,-397 685.6405,-363.0909 646.3595,-394.9091 624,-361 601.124,-326.3077 582.4444,-267.5 624,-267.5"/>
<polygon fill="#000000" stroke="#000000" points="717.6755,-454.9731 706.8629,-453.146 712.8377,-456.2365 708,-457.5 708,-457.5 708,-457.5 712.8377,-456.2365 709.1371,-461.854 717.6755,-454.9731 717.6755,-454.9731"/>
<text text-anchor="start" x="715.2065" y="-467.5" font-family="Arial" font-size="10.00" fill="#000000">FOREIGN KEY (tenant_id) REFERENCES tenant(id) ON DELETE CASCADE</text>
</g>
</g>
</svg>
