<?xml version="1.0" encoding="UTF-8" standalone="no"?>
<!DOCTYPE svg PUBLIC "-//W3C//DTD SVG 1.1//EN"
 "http://www.w3.org/Graphics/SVG/1.1/DTD/svg11.dtd">
<!-- Generated by graphviz version 2.40.1 (20161225.0304)
 -->
<!-- Title: app_private.app_table_overview Pages: 1 -->
<svg width="450pt" height="315pt"
 viewBox="0.00 0.00 450.00 315.00" xmlns="http://www.w3.org/2000/svg" xmlns:xlink="http://www.w3.org/1999/xlink">
<g id="graph0" class="graph" transform="scale(1 1) rotate(0) translate(4 311)">
<title>app_private.app_table_overview</title>
<polygon fill="#ffffff" stroke="transparent" points="-4,4 -4,-311 446,-311 446,4 -4,4"/>
<!-- app_private.app_table_overview -->
<g id="node1" class="node">
<title>app_private.app_table_overview</title>
<polygon fill="#efefef" stroke="transparent" points="46,-225.5 46,-260.5 396,-260.5 396,-225.5 46,-225.5"/>
<polygon fill="none" stroke="#000000" points="46,-225.5 46,-260.5 396,-260.5 396,-225.5 46,-225.5"/>
<text text-anchor="start" x="52.5781" y="-238.3" font-family="Arial Bold" font-size="18.00" fill="#000000">app_private.app_table_overview</text>
<text text-anchor="start" x="311.6575" y="-238.3" font-family="Arial" font-size="14.00" fill="#000000">    </text>
<text text-anchor="start" x="345.8623" y="-238.3" font-family="Arial" font-size="14.00" fill="#666666">[VIEW]</text>
<polygon fill="none" stroke="#000000" points="46,-195.5 46,-225.5 396,-225.5 396,-195.5 46,-195.5"/>
<text text-anchor="start" x="53" y="-206.9" font-family="Arial" font-size="14.00" fill="#000000">relname </text>
<text text-anchor="start" x="107.4488" y="-206.9" font-family="Arial" font-size="14.00" fill="#666666">[name]</text>
<polygon fill="none" stroke="#000000" points="46,-165.5 46,-195.5 396,-195.5 396,-165.5 46,-165.5"/>
<text text-anchor="start" x="53" y="-176.9" font-family="Arial" font-size="14.00" fill="#000000">rls </text>
<text text-anchor="start" x="71.6578" y="-176.9" font-family="Arial" font-size="14.00" fill="#666666">[text]</text>
<polygon fill="none" stroke="#000000" points="46,-135.5 46,-165.5 396,-165.5 396,-135.5 46,-135.5"/>
<text text-anchor="start" x="53" y="-146.9" font-family="Arial" font-size="14.00" fill="#000000">has_id </text>
<text text-anchor="start" x="98.1276" y="-146.9" font-family="Arial" font-size="14.00" fill="#666666">[text]</text>
<polygon fill="none" stroke="#000000" points="46,-105.5 46,-135.5 396,-135.5 396,-105.5 46,-105.5"/>
<text text-anchor="start" x="53" y="-116.9" font-family="Arial" font-size="14.00" fill="#000000">has_tenant </text>
<text text-anchor="start" x="126.15" y="-116.9" font-family="Arial" font-size="14.00" fill="#666666">[text]</text>
<polygon fill="none" stroke="#000000" points="46,-75.5 46,-105.5 396,-105.5 396,-75.5 46,-75.5"/>
<text text-anchor="start" x="53" y="-86.9" font-family="Arial" font-size="14.00" fill="#000000">wrong_acl </text>
<text text-anchor="start" x="120.6774" y="-86.9" font-family="Arial" font-size="14.00" fill="#666666">[information_schema.sql_identifier[]]</text>
<polygon fill="none" stroke="#000000" points="46,-45.5 46,-75.5 396,-75.5 396,-45.5 46,-45.5"/>
<text text-anchor="start" x="53" y="-56.9" font-family="Arial" font-size="14.00" fill="#000000">policies </text>
<text text-anchor="start" x="103.5582" y="-56.9" font-family="Arial" font-size="14.00" fill="#666666">[name[]]</text>
<polygon fill="none" stroke="#000000" stroke-width="3" points="44.5,-44.5 44.5,-262.5 397.5,-262.5 397.5,-44.5 44.5,-44.5"/>
</g>
</g>
</svg>
