<?xml version="1.0" encoding="UTF-8" standalone="no"?>
<!DOCTYPE svg PUBLIC "-//W3C//DTD SVG 1.1//EN"
 "http://www.w3.org/Graphics/SVG/1.1/DTD/svg11.dtd">
<!-- Generated by graphviz version 2.40.1 (20161225.0304)
 -->
<!-- Title: public.pg_stat_statements Pages: 1 -->
<svg width="400pt" height="1425pt"
 viewBox="0.00 0.00 400.00 1425.00" xmlns="http://www.w3.org/2000/svg" xmlns:xlink="http://www.w3.org/1999/xlink">
<g id="graph0" class="graph" transform="scale(1 1) rotate(0) translate(4 1421)">
<title>public.pg_stat_statements</title>
<polygon fill="#ffffff" stroke="transparent" points="-4,4 -4,-1421 396,-1421 396,4 -4,4"/>
<!-- public.pg_stat_statements -->
<g id="node1" class="node">
<title>public.pg_stat_statements</title>
<polygon fill="#efefef" stroke="transparent" points="46,-1335.5 46,-1370.5 346,-1370.5 346,-1335.5 46,-1335.5"/>
<polygon fill="none" stroke="#000000" points="46,-1335.5 46,-1370.5 346,-1370.5 346,-1335.5 46,-1335.5"/>
<text text-anchor="start" x="52.5837" y="-1348.3" font-family="Arial Bold" font-size="18.00" fill="#000000">public.pg_stat_statements</text>
<text text-anchor="start" x="261.6519" y="-1348.3" font-family="Arial" font-size="14.00" fill="#000000">    </text>
<text text-anchor="start" x="295.8567" y="-1348.3" font-family="Arial" font-size="14.00" fill="#666666">[VIEW]</text>
<polygon fill="none" stroke="#000000" points="46,-1305.5 46,-1335.5 346,-1335.5 346,-1305.5 46,-1305.5"/>
<text text-anchor="start" x="53" y="-1316.9" font-family="Arial" font-size="14.00" fill="#000000">userid </text>
<text text-anchor="start" x="95.0056" y="-1316.9" font-family="Arial" font-size="14.00" fill="#666666">[oid]</text>
<polygon fill="none" stroke="#000000" points="46,-1275.5 46,-1305.5 346,-1305.5 346,-1275.5 46,-1275.5"/>
<text text-anchor="start" x="53" y="-1286.9" font-family="Arial" font-size="14.00" fill="#000000">dbid </text>
<text text-anchor="start" x="83.345" y="-1286.9" font-family="Arial" font-size="14.00" fill="#666666">[oid]</text>
<polygon fill="none" stroke="#000000" points="46,-1245.5 46,-1275.5 346,-1275.5 346,-1245.5 46,-1245.5"/>
<text text-anchor="start" x="53" y="-1256.9" font-family="Arial" font-size="14.00" fill="#000000">toplevel </text>
<text text-anchor="start" x="105.1248" y="-1256.9" font-family="Arial" font-size="14.00" fill="#666666">[boolean]</text>
<polygon fill="none" stroke="#000000" points="46,-1215.5 46,-1245.5 346,-1245.5 346,-1215.5 46,-1215.5"/>
<text text-anchor="start" x="53" y="-1226.9" font-family="Arial" font-size="14.00" fill="#000000">queryid </text>
<text text-anchor="start" x="102.7882" y="-1226.9" font-family="Arial" font-size="14.00" fill="#666666">[bigint]</text>
<polygon fill="none" stroke="#000000" points="46,-1185.5 46,-1215.5 346,-1215.5 346,-1185.5 46,-1185.5"/>
<text text-anchor="start" x="53" y="-1196.9" font-family="Arial" font-size="14.00" fill="#000000">query </text>
<text text-anchor="start" x="91.899" y="-1196.9" font-family="Arial" font-size="14.00" fill="#666666">[text]</text>
<polygon fill="none" stroke="#000000" points="46,-1155.5 46,-1185.5 346,-1185.5 346,-1155.5 46,-1155.5"/>
<text text-anchor="start" x="53" y="-1166.9" font-family="Arial" font-size="14.00" fill="#000000">plans </text>
<text text-anchor="start" x="90.345" y="-1166.9" font-family="Arial" font-size="14.00" fill="#666666">[bigint]</text>
<polygon fill="none" stroke="#000000" points="46,-1125.5 46,-1155.5 346,-1155.5 346,-1125.5 46,-1125.5"/>
<text text-anchor="start" x="53" y="-1136.9" font-family="Arial" font-size="14.00" fill="#000000">total_plan_time </text>
<text text-anchor="start" x="151.8036" y="-1136.9" font-family="Arial" font-size="14.00" fill="#666666">[double precision]</text>
<polygon fill="none" stroke="#000000" points="46,-1095.5 46,-1125.5 346,-1125.5 346,-1095.5 46,-1095.5"/>
<text text-anchor="start" x="53" y="-1106.9" font-family="Arial" font-size="14.00" fill="#000000">min_plan_time </text>
<text text-anchor="start" x="147.9004" y="-1106.9" font-family="Arial" font-size="14.00" fill="#666666">[double precision]</text>
<polygon fill="none" stroke="#000000" points="46,-1065.5 46,-1095.5 346,-1095.5 346,-1065.5 46,-1065.5"/>
<text text-anchor="start" x="53" y="-1076.9" font-family="Arial" font-size="14.00" fill="#000000">max_plan_time </text>
<text text-anchor="start" x="151.7938" y="-1076.9" font-family="Arial" font-size="14.00" fill="#666666">[double precision]</text>
<polygon fill="none" stroke="#000000" points="46,-1035.5 46,-1065.5 346,-1065.5 346,-1035.5 46,-1035.5"/>
<text text-anchor="start" x="53" y="-1046.9" font-family="Arial" font-size="14.00" fill="#000000">mean_plan_time </text>
<text text-anchor="start" x="160.359" y="-1046.9" font-family="Arial" font-size="14.00" fill="#666666">[double precision]</text>
<polygon fill="none" stroke="#000000" points="46,-1005.5 46,-1035.5 346,-1035.5 346,-1005.5 46,-1005.5"/>
<text text-anchor="start" x="53" y="-1016.9" font-family="Arial" font-size="14.00" fill="#000000">stddev_plan_time </text>
<text text-anchor="start" x="166.589" y="-1016.9" font-family="Arial" font-size="14.00" fill="#666666">[double precision]</text>
<polygon fill="none" stroke="#000000" points="46,-975.5 46,-1005.5 346,-1005.5 346,-975.5 46,-975.5"/>
<text text-anchor="start" x="53" y="-986.9" font-family="Arial" font-size="14.00" fill="#000000">calls </text>
<text text-anchor="start" x="84.8864" y="-986.9" font-family="Arial" font-size="14.00" fill="#666666">[bigint]</text>
<polygon fill="none" stroke="#000000" points="46,-945.5 46,-975.5 346,-975.5 346,-945.5 46,-945.5"/>
<text text-anchor="start" x="53" y="-956.9" font-family="Arial" font-size="14.00" fill="#000000">total_exec_time </text>
<text text-anchor="start" x="154.9144" y="-956.9" font-family="Arial" font-size="14.00" fill="#666666">[double precision]</text>
<polygon fill="none" stroke="#000000" points="46,-915.5 46,-945.5 346,-945.5 346,-915.5 46,-915.5"/>
<text text-anchor="start" x="53" y="-926.9" font-family="Arial" font-size="14.00" fill="#000000">min_exec_time </text>
<text text-anchor="start" x="151.0112" y="-926.9" font-family="Arial" font-size="14.00" fill="#666666">[double precision]</text>
<polygon fill="none" stroke="#000000" points="46,-885.5 46,-915.5 346,-915.5 346,-885.5 46,-885.5"/>
<text text-anchor="start" x="53" y="-896.9" font-family="Arial" font-size="14.00" fill="#000000">max_exec_time </text>
<text text-anchor="start" x="154.9046" y="-896.9" font-family="Arial" font-size="14.00" fill="#666666">[double precision]</text>
<polygon fill="none" stroke="#000000" points="46,-855.5 46,-885.5 346,-885.5 346,-855.5 46,-855.5"/>
<text text-anchor="start" x="53" y="-866.9" font-family="Arial" font-size="14.00" fill="#000000">mean_exec_time </text>
<text text-anchor="start" x="163.4698" y="-866.9" font-family="Arial" font-size="14.00" fill="#666666">[double precision]</text>
<polygon fill="none" stroke="#000000" points="46,-825.5 46,-855.5 346,-855.5 346,-825.5 46,-825.5"/>
<text text-anchor="start" x="53" y="-836.9" font-family="Arial" font-size="14.00" fill="#000000">stddev_exec_time </text>
<text text-anchor="start" x="169.6998" y="-836.9" font-family="Arial" font-size="14.00" fill="#666666">[double precision]</text>
<polygon fill="none" stroke="#000000" points="46,-795.5 46,-825.5 346,-825.5 346,-795.5 46,-795.5"/>
<text text-anchor="start" x="53" y="-806.9" font-family="Arial" font-size="14.00" fill="#000000">rows </text>
<text text-anchor="start" x="86.4404" y="-806.9" font-family="Arial" font-size="14.00" fill="#666666">[bigint]</text>
<polygon fill="none" stroke="#000000" points="46,-765.5 46,-795.5 346,-795.5 346,-765.5 46,-765.5"/>
<text text-anchor="start" x="53" y="-776.9" font-family="Arial" font-size="14.00" fill="#000000">shared_blks_hit </text>
<text text-anchor="start" x="154.9158" y="-776.9" font-family="Arial" font-size="14.00" fill="#666666">[bigint]</text>
<polygon fill="none" stroke="#000000" points="46,-735.5 46,-765.5 346,-765.5 346,-735.5 46,-735.5"/>
<text text-anchor="start" x="53" y="-746.9" font-family="Arial" font-size="14.00" fill="#000000">shared_blks_read </text>
<text text-anchor="start" x="168.1444" y="-746.9" font-family="Arial" font-size="14.00" fill="#666666">[bigint]</text>
<polygon fill="none" stroke="#000000" points="46,-705.5 46,-735.5 346,-735.5 346,-705.5 46,-705.5"/>
<text text-anchor="start" x="53" y="-716.9" font-family="Arial" font-size="14.00" fill="#000000">shared_blks_dirtied </text>
<text text-anchor="start" x="178.2482" y="-716.9" font-family="Arial" font-size="14.00" fill="#666666">[bigint]</text>
<polygon fill="none" stroke="#000000" points="46,-675.5 46,-705.5 346,-705.5 346,-675.5 46,-675.5"/>
<text text-anchor="start" x="53" y="-686.9" font-family="Arial" font-size="14.00" fill="#000000">shared_blks_written </text>
<text text-anchor="start" x="181.3562" y="-686.9" font-family="Arial" font-size="14.00" fill="#666666">[bigint]</text>
<polygon fill="none" stroke="#000000" points="46,-645.5 46,-675.5 346,-675.5 346,-645.5 46,-645.5"/>
<text text-anchor="start" x="53" y="-656.9" font-family="Arial" font-size="14.00" fill="#000000">local_blks_hit </text>
<text text-anchor="start" x="140.9032" y="-656.9" font-family="Arial" font-size="14.00" fill="#666666">[bigint]</text>
<polygon fill="none" stroke="#000000" points="46,-615.5 46,-645.5 346,-645.5 346,-615.5 46,-615.5"/>
<text text-anchor="start" x="53" y="-626.9" font-family="Arial" font-size="14.00" fill="#000000">local_blks_read </text>
<text text-anchor="start" x="154.1318" y="-626.9" font-family="Arial" font-size="14.00" fill="#666666">[bigint]</text>
<polygon fill="none" stroke="#000000" points="46,-585.5 46,-615.5 346,-615.5 346,-585.5 46,-585.5"/>
<text text-anchor="start" x="53" y="-596.9" font-family="Arial" font-size="14.00" fill="#000000">local_blks_dirtied </text>
<text text-anchor="start" x="164.2356" y="-596.9" font-family="Arial" font-size="14.00" fill="#666666">[bigint]</text>
<polygon fill="none" stroke="#000000" points="46,-555.5 46,-585.5 346,-585.5 346,-555.5 46,-555.5"/>
<text text-anchor="start" x="53" y="-566.9" font-family="Arial" font-size="14.00" fill="#000000">local_blks_written </text>
<text text-anchor="start" x="167.3436" y="-566.9" font-family="Arial" font-size="14.00" fill="#666666">[bigint]</text>
<polygon fill="none" stroke="#000000" points="46,-525.5 46,-555.5 346,-555.5 346,-525.5 46,-525.5"/>
<text text-anchor="start" x="53" y="-536.9" font-family="Arial" font-size="14.00" fill="#000000">temp_blks_read </text>
<text text-anchor="start" x="156.4698" y="-536.9" font-family="Arial" font-size="14.00" fill="#666666">[bigint]</text>
<polygon fill="none" stroke="#000000" points="46,-495.5 46,-525.5 346,-525.5 346,-495.5 46,-495.5"/>
<text text-anchor="start" x="53" y="-506.9" font-family="Arial" font-size="14.00" fill="#000000">temp_blks_written </text>
<text text-anchor="start" x="169.6816" y="-506.9" font-family="Arial" font-size="14.00" fill="#666666">[bigint]</text>
<polygon fill="none" stroke="#000000" points="46,-465.5 46,-495.5 346,-495.5 346,-465.5 46,-465.5"/>
<text text-anchor="start" x="53" y="-476.9" font-family="Arial" font-size="14.00" fill="#000000">blk_read_time </text>
<text text-anchor="start" x="144.7938" y="-476.9" font-family="Arial" font-size="14.00" fill="#666666">[double precision]</text>
<polygon fill="none" stroke="#000000" points="46,-435.5 46,-465.5 346,-465.5 346,-435.5 46,-435.5"/>
<text text-anchor="start" x="53" y="-446.9" font-family="Arial" font-size="14.00" fill="#000000">blk_write_time </text>
<text text-anchor="start" x="146.3324" y="-446.9" font-family="Arial" font-size="14.00" fill="#666666">[double precision]</text>
<polygon fill="none" stroke="#000000" points="46,-405.5 46,-435.5 346,-435.5 346,-405.5 46,-405.5"/>
<text text-anchor="start" x="53" y="-416.9" font-family="Arial" font-size="14.00" fill="#000000">temp_blk_read_time </text>
<text text-anchor="start" x="183.6928" y="-416.9" font-family="Arial" font-size="14.00" fill="#666666">[double precision]</text>
<polygon fill="none" stroke="#000000" points="46,-375.5 46,-405.5 346,-405.5 346,-375.5 46,-375.5"/>
<text text-anchor="start" x="53" y="-386.9" font-family="Arial" font-size="14.00" fill="#000000">temp_blk_write_time </text>
<text text-anchor="start" x="185.2314" y="-386.9" font-family="Arial" font-size="14.00" fill="#666666">[double precision]</text>
<polygon fill="none" stroke="#000000" points="46,-345.5 46,-375.5 346,-375.5 346,-345.5 46,-345.5"/>
<text text-anchor="start" x="53" y="-356.9" font-family="Arial" font-size="14.00" fill="#000000">wal_records </text>
<text text-anchor="start" x="132.338" y="-356.9" font-family="Arial" font-size="14.00" fill="#666666">[bigint]</text>
<polygon fill="none" stroke="#000000" points="46,-315.5 46,-345.5 346,-345.5 346,-315.5 46,-315.5"/>
<text text-anchor="start" x="53" y="-326.9" font-family="Arial" font-size="14.00" fill="#000000">wal_fpi </text>
<text text-anchor="start" x="100.4488" y="-326.9" font-family="Arial" font-size="14.00" fill="#666666">[bigint]</text>
<polygon fill="none" stroke="#000000" points="46,-285.5 46,-315.5 346,-315.5 346,-285.5 46,-285.5"/>
<text text-anchor="start" x="53" y="-296.9" font-family="Arial" font-size="14.00" fill="#000000">wal_bytes </text>
<text text-anchor="start" x="119.1248" y="-296.9" font-family="Arial" font-size="14.00" fill="#666666">[numeric]</text>
<polygon fill="none" stroke="#000000" points="46,-255.5 46,-285.5 346,-285.5 346,-255.5 46,-255.5"/>
<text text-anchor="start" x="53" y="-266.9" font-family="Arial" font-size="14.00" fill="#000000">jit_functions </text>
<text text-anchor="start" x="130.7952" y="-266.9" font-family="Arial" font-size="14.00" fill="#666666">[bigint]</text>
<polygon fill="none" stroke="#000000" points="46,-225.5 46,-255.5 346,-255.5 346,-225.5 46,-225.5"/>
<text text-anchor="start" x="53" y="-236.9" font-family="Arial" font-size="14.00" fill="#000000">jit_generation_time </text>
<text text-anchor="start" x="175.136" y="-236.9" font-family="Arial" font-size="14.00" fill="#666666">[double precision]</text>
<polygon fill="none" stroke="#000000" points="46,-195.5 46,-225.5 346,-225.5 346,-195.5 46,-195.5"/>
<text text-anchor="start" x="53" y="-206.9" font-family="Arial" font-size="14.00" fill="#000000">jit_inlining_count </text>
<text text-anchor="start" x="160.3548" y="-206.9" font-family="Arial" font-size="14.00" fill="#666666">[bigint]</text>
<polygon fill="none" stroke="#000000" points="46,-165.5 46,-195.5 346,-195.5 346,-165.5 46,-165.5"/>
<text text-anchor="start" x="53" y="-176.9" font-family="Arial" font-size="14.00" fill="#000000">jit_inlining_time </text>
<text text-anchor="start" x="152.5568" y="-176.9" font-family="Arial" font-size="14.00" fill="#666666">[double precision]</text>
<polygon fill="none" stroke="#000000" points="46,-135.5 46,-165.5 346,-165.5 346,-135.5 46,-135.5"/>
<text text-anchor="start" x="53" y="-146.9" font-family="Arial" font-size="14.00" fill="#000000">jit_optimization_count </text>
<text text-anchor="start" x="191.4726" y="-146.9" font-family="Arial" font-size="14.00" fill="#666666">[bigint]</text>
<polygon fill="none" stroke="#000000" points="46,-105.5 46,-135.5 346,-135.5 346,-105.5 46,-105.5"/>
<text text-anchor="start" x="53" y="-116.9" font-family="Arial" font-size="14.00" fill="#000000">jit_optimization_time </text>
<text text-anchor="start" x="183.6746" y="-116.9" font-family="Arial" font-size="14.00" fill="#666666">[double precision]</text>
<polygon fill="none" stroke="#000000" points="46,-75.5 46,-105.5 346,-105.5 346,-75.5 46,-75.5"/>
<text text-anchor="start" x="53" y="-86.9" font-family="Arial" font-size="14.00" fill="#000000">jit_emission_count </text>
<text text-anchor="start" x="172.0196" y="-86.9" font-family="Arial" font-size="14.00" fill="#666666">[bigint]</text>
<polygon fill="none" stroke="#000000" points="46,-45.5 46,-75.5 346,-75.5 346,-45.5 46,-45.5"/>
<text text-anchor="start" x="53" y="-56.9" font-family="Arial" font-size="14.00" fill="#000000">jit_emission_time </text>
<text text-anchor="start" x="164.2216" y="-56.9" font-family="Arial" font-size="14.00" fill="#666666">[double precision]</text>
<polygon fill="none" stroke="#000000" stroke-width="3" points="44.5,-44.5 44.5,-1372.5 347.5,-1372.5 347.5,-44.5 44.5,-44.5"/>
</g>
</g>
</svg>
