<?xml version="1.0" encoding="UTF-8" standalone="no"?>
<!DOCTYPE svg PUBLIC "-//W3C//DTD SVG 1.1//EN"
 "http://www.w3.org/Graphics/SVG/1.1/DTD/svg11.dtd">
<!-- Generated by graphviz version 2.40.1 (20161225.0304)
 -->
<!-- Title: public.event_attendance Pages: 1 -->
<svg width="1584pt" height="1102pt"
 viewBox="0.00 0.00 1583.50 1102.00" xmlns="http://www.w3.org/2000/svg" xmlns:xlink="http://www.w3.org/1999/xlink">
<g id="graph0" class="graph" transform="scale(1 1) rotate(0) translate(4 1098)">
<title>public.event_attendance</title>
<polygon fill="#ffffff" stroke="transparent" points="-4,4 -4,-1098 1579.5,-1098 1579.5,4 -4,4"/>
<!-- public.event_attendance -->
<g id="node1" class="node">
<title>public.event_attendance</title>
<polygon fill="#efefef" stroke="transparent" points="581.5,-1012.5 581.5,-1047.5 917.5,-1047.5 917.5,-1012.5 581.5,-1012.5"/>
<polygon fill="none" stroke="#000000" points="581.5,-1012.5 581.5,-1047.5 917.5,-1047.5 917.5,-1012.5 581.5,-1012.5"/>
<text text-anchor="start" x="588.174" y="-1025.3" font-family="Arial Bold" font-size="18.00" fill="#000000">public.event_attendance</text>
<text text-anchor="start" x="783.258" y="-1025.3" font-family="Arial" font-size="14.00" fill="#000000">    </text>
<text text-anchor="start" x="817.4628" y="-1025.3" font-family="Arial" font-size="14.00" fill="#666666">[BASE TABLE]</text>
<polygon fill="none" stroke="#000000" points="581.5,-982.5 581.5,-1012.5 917.5,-1012.5 917.5,-982.5 581.5,-982.5"/>
<text text-anchor="start" x="588.5" y="-993.9" font-family="Arial" font-size="14.00" fill="#000000">id </text>
<text text-anchor="start" x="603.2798" y="-993.9" font-family="Arial" font-size="14.00" fill="#666666">[bigint]</text>
<polygon fill="none" stroke="#000000" points="581.5,-952.5 581.5,-982.5 917.5,-982.5 917.5,-952.5 581.5,-952.5"/>
<text text-anchor="start" x="588.5" y="-963.9" font-family="Arial" font-size="14.00" fill="#000000">tenant_id </text>
<text text-anchor="start" x="649.974" y="-963.9" font-family="Arial" font-size="14.00" fill="#666666">[bigint]</text>
<polygon fill="none" stroke="#000000" points="581.5,-922.5 581.5,-952.5 917.5,-952.5 917.5,-922.5 581.5,-922.5"/>
<text text-anchor="start" x="588.5" y="-933.9" font-family="Arial" font-size="14.00" fill="#000000">instance_id </text>
<text text-anchor="start" x="663.19" y="-933.9" font-family="Arial" font-size="14.00" fill="#666666">[bigint]</text>
<polygon fill="none" stroke="#000000" points="581.5,-892.5 581.5,-922.5 917.5,-922.5 917.5,-892.5 581.5,-892.5"/>
<text text-anchor="start" x="588.5" y="-903.9" font-family="Arial" font-size="14.00" fill="#000000">person_id </text>
<text text-anchor="start" x="653.8534" y="-903.9" font-family="Arial" font-size="14.00" fill="#666666">[bigint]</text>
<polygon fill="none" stroke="#000000" points="581.5,-862.5 581.5,-892.5 917.5,-892.5 917.5,-862.5 581.5,-862.5"/>
<text text-anchor="start" x="588.5" y="-873.9" font-family="Arial" font-size="14.00" fill="#000000">status </text>
<text text-anchor="start" x="629.737" y="-873.9" font-family="Arial" font-size="14.00" fill="#666666">[attendance_type]</text>
<polygon fill="none" stroke="#000000" points="581.5,-832.5 581.5,-862.5 917.5,-862.5 917.5,-832.5 581.5,-832.5"/>
<text text-anchor="start" x="588.5" y="-843.9" font-family="Arial" font-size="14.00" fill="#000000">note </text>
<text text-anchor="start" x="619.629" y="-843.9" font-family="Arial" font-size="14.00" fill="#666666">[text]</text>
<polygon fill="none" stroke="#000000" points="581.5,-802.5 581.5,-832.5 917.5,-832.5 917.5,-802.5 581.5,-802.5"/>
<text text-anchor="start" x="588.5" y="-813.9" font-family="Arial" font-size="14.00" fill="#000000">created_at </text>
<text text-anchor="start" x="658.528" y="-813.9" font-family="Arial" font-size="14.00" fill="#666666">[timestamp with time zone]</text>
<polygon fill="none" stroke="#000000" points="581.5,-772.5 581.5,-802.5 917.5,-802.5 917.5,-772.5 581.5,-772.5"/>
<text text-anchor="start" x="588.5" y="-783.9" font-family="Arial" font-size="14.00" fill="#000000">updated_at </text>
<text text-anchor="start" x="662.4326" y="-783.9" font-family="Arial" font-size="14.00" fill="#666666">[timestamp with time zone]</text>
<polygon fill="none" stroke="#000000" points="581.5,-742.5 581.5,-772.5 917.5,-772.5 917.5,-742.5 581.5,-742.5"/>
<text text-anchor="start" x="588.5" y="-753.9" font-family="Arial" font-size="14.00" fill="#000000">registration_id </text>
<text text-anchor="start" x="680.291" y="-753.9" font-family="Arial" font-size="14.00" fill="#666666">[bigint]</text>
<polygon fill="none" stroke="#000000" stroke-width="3" points="580,-741.5 580,-1049.5 919,-1049.5 919,-741.5 580,-741.5"/>
</g>
<!-- public.tenant -->
<g id="node2" class="node">
<title>public.tenant</title>
<polygon fill="#efefef" stroke="transparent" points="43.5,-432.5 43.5,-467.5 286.5,-467.5 286.5,-432.5 43.5,-432.5"/>
<polygon fill="none" stroke="#000000" points="43.5,-432.5 43.5,-467.5 286.5,-467.5 286.5,-432.5 43.5,-432.5"/>
<text text-anchor="start" x="50.1968" y="-445.3" font-family="Arial Bold" font-size="18.00" fill="#000000">public.tenant</text>
<text text-anchor="start" x="152.2352" y="-445.3" font-family="Arial" font-size="14.00" fill="#000000">    </text>
<text text-anchor="start" x="186.44" y="-445.3" font-family="Arial" font-size="14.00" fill="#666666">[BASE TABLE]</text>
<polygon fill="none" stroke="#000000" points="43.5,-402.5 43.5,-432.5 286.5,-432.5 286.5,-402.5 43.5,-402.5"/>
<text text-anchor="start" x="50.5" y="-413.9" font-family="Arial" font-size="14.00" fill="#000000">id    </text>
<text text-anchor="start" x="95.594" y="-413.9" font-family="Arial" font-size="14.00" fill="#666666">[bigint]</text>
<polygon fill="none" stroke="#000000" points="43.5,-372.5 43.5,-402.5 286.5,-402.5 286.5,-372.5 43.5,-372.5"/>
<text text-anchor="start" x="50.5" y="-383.9" font-family="Arial" font-size="14.00" fill="#000000">name    </text>
<text text-anchor="start" x="119.7132" y="-383.9" font-family="Arial" font-size="14.00" fill="#666666">[text]</text>
<polygon fill="none" stroke="#000000" points="43.5,-342.5 43.5,-372.5 286.5,-372.5 286.5,-342.5 43.5,-342.5"/>
<text text-anchor="start" x="50.5" y="-353.9" font-family="Arial" font-size="14.00" fill="#000000">origins    </text>
<text text-anchor="start" x="125.9264" y="-353.9" font-family="Arial" font-size="14.00" fill="#666666">[text[]]</text>
<polygon fill="none" stroke="#000000" points="43.5,-312.5 43.5,-342.5 286.5,-342.5 286.5,-312.5 43.5,-312.5"/>
<text text-anchor="start" x="50.5" y="-323.9" font-family="Arial" font-size="14.00" fill="#000000">cz_ico    </text>
<text text-anchor="start" x="124.3766" y="-323.9" font-family="Arial" font-size="14.00" fill="#666666">[text]</text>
<polygon fill="none" stroke="#000000" points="43.5,-282.5 43.5,-312.5 286.5,-312.5 286.5,-282.5 43.5,-282.5"/>
<text text-anchor="start" x="50.5" y="-293.9" font-family="Arial" font-size="14.00" fill="#000000">cz_dic    </text>
<text text-anchor="start" x="124.3766" y="-293.9" font-family="Arial" font-size="14.00" fill="#666666">[text]</text>
<polygon fill="none" stroke="#000000" points="43.5,-252.5 43.5,-282.5 286.5,-282.5 286.5,-252.5 43.5,-252.5"/>
<text text-anchor="start" x="50.5" y="-263.9" font-family="Arial" font-size="14.00" fill="#000000">address    </text>
<text text-anchor="start" x="134.4958" y="-263.9" font-family="Arial" font-size="14.00" fill="#666666">[address_domain]</text>
<polygon fill="none" stroke="#000000" points="43.5,-222.5 43.5,-252.5 286.5,-252.5 286.5,-222.5 43.5,-222.5"/>
<text text-anchor="start" x="50.5" y="-233.9" font-family="Arial" font-size="14.00" fill="#000000">description    </text>
<text text-anchor="start" x="152.3822" y="-233.9" font-family="Arial" font-size="14.00" fill="#666666">[text]</text>
<polygon fill="none" stroke="#000000" points="43.5,-192.5 43.5,-222.5 286.5,-222.5 286.5,-192.5 43.5,-192.5"/>
<text text-anchor="start" x="50.5" y="-203.9" font-family="Arial" font-size="14.00" fill="#000000">bank_account    </text>
<text text-anchor="start" x="171.8562" y="-203.9" font-family="Arial" font-size="14.00" fill="#666666">[text]</text>
</g>
<!-- public.event_attendance&#45;&gt;public.tenant -->
<g id="edge1" class="edge">
<title>public.event_attendance:tenant_id&#45;&gt;public.tenant:id</title>
<path fill="none" stroke="#000000" d="M571.0281,-967.3129C407.8291,-961.3753 411.0841,-815.03 338.5,-661 314.9137,-610.9477 341.8312,-417.5 286.5,-417.5"/>
<polygon fill="#000000" stroke="#000000" points="571.5016,-967.3213 581.4196,-971.9993 576.5008,-967.4106 581.5,-967.5 581.5,-967.5 581.5,-967.5 576.5008,-967.4106 581.5804,-963.0007 571.5016,-967.3213 571.5016,-967.3213"/>
<text text-anchor="start" x="117.5955" y="-977.5" font-family="Arial" font-size="10.00" fill="#000000">FOREIGN KEY (tenant_id) REFERENCES tenant(id) ON UPDATE CASCADE ON DELETE CASCADE</text>
</g>
<!-- public.event_instance -->
<g id="node3" class="node">
<title>public.event_instance</title>
<polygon fill="#efefef" stroke="transparent" points="390.5,-462.5 390.5,-497.5 704.5,-497.5 704.5,-462.5 390.5,-462.5"/>
<polygon fill="none" stroke="#000000" points="390.5,-462.5 390.5,-497.5 704.5,-497.5 704.5,-462.5 390.5,-462.5"/>
<text text-anchor="start" x="397.1873" y="-475.3" font-family="Arial Bold" font-size="18.00" fill="#000000">public.event_instance</text>
<text text-anchor="start" x="570.2447" y="-475.3" font-family="Arial" font-size="14.00" fill="#000000">    </text>
<text text-anchor="start" x="604.4495" y="-475.3" font-family="Arial" font-size="14.00" fill="#666666">[BASE TABLE]</text>
<polygon fill="none" stroke="#000000" points="390.5,-432.5 390.5,-462.5 704.5,-462.5 704.5,-432.5 390.5,-432.5"/>
<text text-anchor="start" x="397.5" y="-443.9" font-family="Arial" font-size="14.00" fill="#000000">id    </text>
<text text-anchor="start" x="442.594" y="-443.9" font-family="Arial" font-size="14.00" fill="#666666">[bigint]</text>
<polygon fill="none" stroke="#000000" points="390.5,-402.5 390.5,-432.5 704.5,-432.5 704.5,-402.5 390.5,-402.5"/>
<text text-anchor="start" x="397.5" y="-413.9" font-family="Arial" font-size="14.00" fill="#000000">tenant_id    </text>
<text text-anchor="start" x="489.2882" y="-413.9" font-family="Arial" font-size="14.00" fill="#666666">[bigint]</text>
<polygon fill="none" stroke="#000000" points="390.5,-372.5 390.5,-402.5 704.5,-402.5 704.5,-372.5 390.5,-372.5"/>
<text text-anchor="start" x="397.5" y="-383.9" font-family="Arial" font-size="14.00" fill="#000000">event_id    </text>
<text text-anchor="start" x="484.615" y="-383.9" font-family="Arial" font-size="14.00" fill="#666666">[bigint]</text>
<polygon fill="none" stroke="#000000" points="390.5,-342.5 390.5,-372.5 704.5,-372.5 704.5,-342.5 390.5,-342.5"/>
<text text-anchor="start" x="397.5" y="-353.9" font-family="Arial" font-size="14.00" fill="#000000">created_at    </text>
<text text-anchor="start" x="497.8422" y="-353.9" font-family="Arial" font-size="14.00" fill="#666666">[timestamp with time zone]</text>
<polygon fill="none" stroke="#000000" points="390.5,-312.5 390.5,-342.5 704.5,-342.5 704.5,-312.5 390.5,-312.5"/>
<text text-anchor="start" x="397.5" y="-323.9" font-family="Arial" font-size="14.00" fill="#000000">updated_at    </text>
<text text-anchor="start" x="501.7468" y="-323.9" font-family="Arial" font-size="14.00" fill="#666666">[timestamp with time zone]</text>
<polygon fill="none" stroke="#000000" points="390.5,-282.5 390.5,-312.5 704.5,-312.5 704.5,-282.5 390.5,-282.5"/>
<text text-anchor="start" x="397.5" y="-293.9" font-family="Arial" font-size="14.00" fill="#000000">since    </text>
<text text-anchor="start" x="464.3766" y="-293.9" font-family="Arial" font-size="14.00" fill="#666666">[timestamp with time zone]</text>
<polygon fill="none" stroke="#000000" points="390.5,-252.5 390.5,-282.5 704.5,-282.5 704.5,-252.5 390.5,-252.5"/>
<text text-anchor="start" x="397.5" y="-263.9" font-family="Arial" font-size="14.00" fill="#000000">until    </text>
<text text-anchor="start" x="457.3738" y="-263.9" font-family="Arial" font-size="14.00" fill="#666666">[timestamp with time zone]</text>
<polygon fill="none" stroke="#000000" points="390.5,-222.5 390.5,-252.5 704.5,-252.5 704.5,-222.5 390.5,-222.5"/>
<text text-anchor="start" x="397.5" y="-233.9" font-family="Arial" font-size="14.00" fill="#000000">range    </text>
<text text-anchor="start" x="467.4958" y="-233.9" font-family="Arial" font-size="14.00" fill="#666666">[tstzrange]</text>
<polygon fill="none" stroke="#000000" points="390.5,-192.5 390.5,-222.5 704.5,-222.5 704.5,-192.5 390.5,-192.5"/>
<text text-anchor="start" x="397.5" y="-203.9" font-family="Arial" font-size="14.00" fill="#000000">location_id    </text>
<text text-anchor="start" x="498.6108" y="-203.9" font-family="Arial" font-size="14.00" fill="#666666">[bigint]</text>
<polygon fill="none" stroke="#000000" points="390.5,-162.5 390.5,-192.5 704.5,-192.5 704.5,-162.5 390.5,-162.5"/>
<text text-anchor="start" x="397.5" y="-173.9" font-family="Arial" font-size="14.00" fill="#000000">is_cancelled    </text>
<text text-anchor="start" x="508.7202" y="-173.9" font-family="Arial" font-size="14.00" fill="#666666">[boolean]</text>
</g>
<!-- public.event_attendance&#45;&gt;public.event_instance -->
<g id="edge2" class="edge">
<title>public.event_attendance:instance_id&#45;&gt;public.event_instance:id</title>
<path fill="none" stroke="#000000" d="M571.4362,-937.0451C479.3428,-928.278 547.639,-794.6348 581.5,-697 610.4305,-613.5819 675.5695,-624.4181 704.5,-541 718.1164,-501.7386 746.0556,-447.5 704.5,-447.5"/>
<polygon fill="#000000" stroke="#000000" points="571.5102,-937.0484 581.2968,-941.9954 576.5051,-937.2742 581.5,-937.5 581.5,-937.5 581.5,-937.5 576.5051,-937.2742 581.7032,-933.0046 571.5102,-937.0484 571.5102,-937.0484"/>
<text text-anchor="start" x="68.148" y="-947.5" font-family="Arial" font-size="10.00" fill="#000000">FOREIGN KEY (instance_id) REFERENCES event_instance(id) ON UPDATE CASCADE ON DELETE CASCADE</text>
</g>
<!-- public.person -->
<g id="node4" class="node">
<title>public.person</title>
<polygon fill="#efefef" stroke="transparent" points="809.5,-582.5 809.5,-617.5 1092.5,-617.5 1092.5,-582.5 809.5,-582.5"/>
<polygon fill="none" stroke="#000000" points="809.5,-582.5 809.5,-617.5 1092.5,-617.5 1092.5,-582.5 809.5,-582.5"/>
<text text-anchor="start" x="833.7029" y="-595.3" font-family="Arial Bold" font-size="18.00" fill="#000000">public.person</text>
<text text-anchor="start" x="940.7291" y="-595.3" font-family="Arial" font-size="14.00" fill="#000000">    </text>
<text text-anchor="start" x="974.9339" y="-595.3" font-family="Arial" font-size="14.00" fill="#666666">[BASE TABLE]</text>
<polygon fill="none" stroke="#000000" points="809.5,-552.5 809.5,-582.5 1092.5,-582.5 1092.5,-552.5 809.5,-552.5"/>
<text text-anchor="start" x="816.5" y="-563.9" font-family="Arial" font-size="14.00" fill="#000000">id    </text>
<text text-anchor="start" x="861.594" y="-563.9" font-family="Arial" font-size="14.00" fill="#666666">[bigint]</text>
<polygon fill="none" stroke="#000000" points="809.5,-522.5 809.5,-552.5 1092.5,-552.5 1092.5,-522.5 809.5,-522.5"/>
<text text-anchor="start" x="816.5" y="-533.9" font-family="Arial" font-size="14.00" fill="#000000">first_name    </text>
<text text-anchor="start" x="916.0442" y="-533.9" font-family="Arial" font-size="14.00" fill="#666666">[text]</text>
<polygon fill="none" stroke="#000000" points="809.5,-492.5 809.5,-522.5 1092.5,-522.5 1092.5,-492.5 809.5,-492.5"/>
<text text-anchor="start" x="816.5" y="-503.9" font-family="Arial" font-size="14.00" fill="#000000">last_name    </text>
<text text-anchor="start" x="915.2756" y="-503.9" font-family="Arial" font-size="14.00" fill="#666666">[text]</text>
<polygon fill="none" stroke="#000000" points="809.5,-462.5 809.5,-492.5 1092.5,-492.5 1092.5,-462.5 809.5,-462.5"/>
<text text-anchor="start" x="816.5" y="-473.9" font-family="Arial" font-size="14.00" fill="#000000">gender    </text>
<text text-anchor="start" x="894.2784" y="-473.9" font-family="Arial" font-size="14.00" fill="#666666">[gender_type]</text>
<polygon fill="none" stroke="#000000" points="809.5,-432.5 809.5,-462.5 1092.5,-462.5 1092.5,-432.5 809.5,-432.5"/>
<text text-anchor="start" x="816.5" y="-443.9" font-family="Arial" font-size="14.00" fill="#000000">birth_date    </text>
<text text-anchor="start" x="912.9488" y="-443.9" font-family="Arial" font-size="14.00" fill="#666666">[date]</text>
<polygon fill="none" stroke="#000000" points="809.5,-402.5 809.5,-432.5 1092.5,-432.5 1092.5,-402.5 809.5,-402.5"/>
<text text-anchor="start" x="816.5" y="-413.9" font-family="Arial" font-size="14.00" fill="#000000">nationality    </text>
<text text-anchor="start" x="913.7188" y="-413.9" font-family="Arial" font-size="14.00" fill="#666666">[text]</text>
<polygon fill="none" stroke="#000000" points="809.5,-372.5 809.5,-402.5 1092.5,-402.5 1092.5,-372.5 809.5,-372.5"/>
<text text-anchor="start" x="816.5" y="-383.9" font-family="Arial" font-size="14.00" fill="#000000">tax_identification_number    </text>
<text text-anchor="start" x="1010.1886" y="-383.9" font-family="Arial" font-size="14.00" fill="#666666">[text]</text>
<polygon fill="none" stroke="#000000" points="809.5,-342.5 809.5,-372.5 1092.5,-372.5 1092.5,-342.5 809.5,-342.5"/>
<text text-anchor="start" x="816.5" y="-353.9" font-family="Arial" font-size="14.00" fill="#000000">national_id_number    </text>
<text text-anchor="start" x="973.6276" y="-353.9" font-family="Arial" font-size="14.00" fill="#666666">[text]</text>
<polygon fill="none" stroke="#000000" points="809.5,-312.5 809.5,-342.5 1092.5,-342.5 1092.5,-312.5 809.5,-312.5"/>
<text text-anchor="start" x="816.5" y="-323.9" font-family="Arial" font-size="14.00" fill="#000000">csts_id    </text>
<text text-anchor="start" x="894.2672" y="-323.9" font-family="Arial" font-size="14.00" fill="#666666">[text]</text>
<polygon fill="none" stroke="#000000" points="809.5,-282.5 809.5,-312.5 1092.5,-312.5 1092.5,-282.5 809.5,-282.5"/>
<text text-anchor="start" x="816.5" y="-293.9" font-family="Arial" font-size="14.00" fill="#000000">wdsf_id    </text>
<text text-anchor="start" x="898.1564" y="-293.9" font-family="Arial" font-size="14.00" fill="#666666">[text]</text>
<polygon fill="none" stroke="#000000" points="809.5,-252.5 809.5,-282.5 1092.5,-282.5 1092.5,-252.5 809.5,-252.5"/>
<text text-anchor="start" x="816.5" y="-263.9" font-family="Arial" font-size="14.00" fill="#000000">created_at    </text>
<text text-anchor="start" x="916.8422" y="-263.9" font-family="Arial" font-size="14.00" fill="#666666">[timestamp with time zone]</text>
<polygon fill="none" stroke="#000000" points="809.5,-222.5 809.5,-252.5 1092.5,-252.5 1092.5,-222.5 809.5,-222.5"/>
<text text-anchor="start" x="816.0344" y="-233.9" font-family="Arial" font-size="14.00" fill="#000000">updated_at    </text>
<text text-anchor="start" x="920.2812" y="-233.9" font-family="Arial" font-size="14.00" fill="#666666">[timestamp with time zone]</text>
<polygon fill="none" stroke="#000000" points="809.5,-192.5 809.5,-222.5 1092.5,-222.5 1092.5,-192.5 809.5,-192.5"/>
<text text-anchor="start" x="816.5" y="-203.9" font-family="Arial" font-size="14.00" fill="#000000">legacy_user_id    </text>
<text text-anchor="start" x="944.8394" y="-203.9" font-family="Arial" font-size="14.00" fill="#666666">[bigint]</text>
<polygon fill="none" stroke="#000000" points="809.5,-162.5 809.5,-192.5 1092.5,-192.5 1092.5,-162.5 809.5,-162.5"/>
<text text-anchor="start" x="816.5" y="-173.9" font-family="Arial" font-size="14.00" fill="#000000">prefix_title    </text>
<text text-anchor="start" x="914.4874" y="-173.9" font-family="Arial" font-size="14.00" fill="#666666">[text]</text>
<polygon fill="none" stroke="#000000" points="809.5,-132.5 809.5,-162.5 1092.5,-162.5 1092.5,-132.5 809.5,-132.5"/>
<text text-anchor="start" x="816.5" y="-143.9" font-family="Arial" font-size="14.00" fill="#000000">suffix_title    </text>
<text text-anchor="start" x="912.9348" y="-143.9" font-family="Arial" font-size="14.00" fill="#666666">[text]</text>
<polygon fill="none" stroke="#000000" points="809.5,-102.5 809.5,-132.5 1092.5,-132.5 1092.5,-102.5 809.5,-102.5"/>
<text text-anchor="start" x="816.5" y="-113.9" font-family="Arial" font-size="14.00" fill="#000000">bio    </text>
<text text-anchor="start" x="869.3766" y="-113.9" font-family="Arial" font-size="14.00" fill="#666666">[text]</text>
<polygon fill="none" stroke="#000000" points="809.5,-72.5 809.5,-102.5 1092.5,-102.5 1092.5,-72.5 809.5,-72.5"/>
<text text-anchor="start" x="816.5" y="-83.9" font-family="Arial" font-size="14.00" fill="#000000">email    </text>
<text text-anchor="start" x="884.1438" y="-83.9" font-family="Arial" font-size="14.00" fill="#666666">[citext]</text>
<polygon fill="none" stroke="#000000" points="809.5,-42.5 809.5,-72.5 1092.5,-72.5 1092.5,-42.5 809.5,-42.5"/>
<text text-anchor="start" x="816.5" y="-53.9" font-family="Arial" font-size="14.00" fill="#000000">phone    </text>
<text text-anchor="start" x="889.6178" y="-53.9" font-family="Arial" font-size="14.00" fill="#666666">[text]</text>
</g>
<!-- public.event_attendance&#45;&gt;public.person -->
<g id="edge3" class="edge">
<title>public.event_attendance:person_id&#45;&gt;public.person:id</title>
<path fill="none" stroke="#000000" d="M927.8644,-906.8954C1007.996,-897.0737 970.0661,-769.9315 917.5,-697 887.9157,-655.954 839.0843,-702.046 809.5,-661 785.202,-627.2884 767.9444,-567.5 809.5,-567.5"/>
<polygon fill="#000000" stroke="#000000" points="927.483,-906.9175 917.2379,-903.0076 922.4915,-907.2088 917.5,-907.5 917.5,-907.5 917.5,-907.5 922.4915,-907.2088 917.7621,-911.9924 927.483,-906.9175 927.483,-906.9175"/>
<text text-anchor="start" x="924.8245" y="-917.5" font-family="Arial" font-size="10.00" fill="#000000">FOREIGN KEY (person_id) REFERENCES person(id) ON UPDATE CASCADE ON DELETE CASCADE</text>
</g>
<!-- public.event_registration -->
<g id="node5" class="node">
<title>public.event_registration</title>
<polygon fill="#efefef" stroke="transparent" points="1196.5,-447.5 1196.5,-482.5 1532.5,-482.5 1532.5,-447.5 1196.5,-447.5"/>
<polygon fill="none" stroke="#000000" points="1196.5,-447.5 1196.5,-482.5 1532.5,-482.5 1532.5,-447.5 1196.5,-447.5"/>
<text text-anchor="start" x="1203.1938" y="-460.3" font-family="Arial Bold" font-size="18.00" fill="#000000">public.event_registration</text>
<text text-anchor="start" x="1398.2382" y="-460.3" font-family="Arial" font-size="14.00" fill="#000000">    </text>
<text text-anchor="start" x="1432.443" y="-460.3" font-family="Arial" font-size="14.00" fill="#666666">[BASE TABLE]</text>
<polygon fill="none" stroke="#000000" points="1196.5,-417.5 1196.5,-447.5 1532.5,-447.5 1532.5,-417.5 1196.5,-417.5"/>
<text text-anchor="start" x="1203.5" y="-428.9" font-family="Arial" font-size="14.00" fill="#000000">id    </text>
<text text-anchor="start" x="1248.594" y="-428.9" font-family="Arial" font-size="14.00" fill="#666666">[bigint]</text>
<polygon fill="none" stroke="#000000" points="1196.5,-387.5 1196.5,-417.5 1532.5,-417.5 1532.5,-387.5 1196.5,-387.5"/>
<text text-anchor="start" x="1203.5" y="-398.9" font-family="Arial" font-size="14.00" fill="#000000">tenant_id    </text>
<text text-anchor="start" x="1295.2882" y="-398.9" font-family="Arial" font-size="14.00" fill="#666666">[bigint]</text>
<polygon fill="none" stroke="#000000" points="1196.5,-357.5 1196.5,-387.5 1532.5,-387.5 1532.5,-357.5 1196.5,-357.5"/>
<text text-anchor="start" x="1203.5" y="-368.9" font-family="Arial" font-size="14.00" fill="#000000">event_id    </text>
<text text-anchor="start" x="1290.615" y="-368.9" font-family="Arial" font-size="14.00" fill="#666666">[bigint]</text>
<polygon fill="none" stroke="#000000" points="1196.5,-327.5 1196.5,-357.5 1532.5,-357.5 1532.5,-327.5 1196.5,-327.5"/>
<text text-anchor="start" x="1203.5" y="-338.9" font-family="Arial" font-size="14.00" fill="#000000">target_cohort_id    </text>
<text text-anchor="start" x="1338.8478" y="-338.9" font-family="Arial" font-size="14.00" fill="#666666">[bigint]</text>
<polygon fill="none" stroke="#000000" points="1196.5,-297.5 1196.5,-327.5 1532.5,-327.5 1532.5,-297.5 1196.5,-297.5"/>
<text text-anchor="start" x="1203.5" y="-308.9" font-family="Arial" font-size="14.00" fill="#000000">couple_id    </text>
<text text-anchor="start" x="1297.6136" y="-308.9" font-family="Arial" font-size="14.00" fill="#666666">[bigint]</text>
<polygon fill="none" stroke="#000000" points="1196.5,-267.5 1196.5,-297.5 1532.5,-297.5 1532.5,-267.5 1196.5,-267.5"/>
<text text-anchor="start" x="1203.5" y="-278.9" font-family="Arial" font-size="14.00" fill="#000000">person_id    </text>
<text text-anchor="start" x="1299.1676" y="-278.9" font-family="Arial" font-size="14.00" fill="#666666">[bigint]</text>
<polygon fill="none" stroke="#000000" points="1196.5,-237.5 1196.5,-267.5 1532.5,-267.5 1532.5,-237.5 1196.5,-237.5"/>
<text text-anchor="start" x="1203.5" y="-248.9" font-family="Arial" font-size="14.00" fill="#000000">note    </text>
<text text-anchor="start" x="1264.9432" y="-248.9" font-family="Arial" font-size="14.00" fill="#666666">[text]</text>
<polygon fill="none" stroke="#000000" points="1196.5,-207.5 1196.5,-237.5 1532.5,-237.5 1532.5,-207.5 1196.5,-207.5"/>
<text text-anchor="start" x="1203.5" y="-218.9" font-family="Arial" font-size="14.00" fill="#000000">created_at    </text>
<text text-anchor="start" x="1303.8422" y="-218.9" font-family="Arial" font-size="14.00" fill="#666666">[timestamp with time zone]</text>
<polygon fill="none" stroke="#000000" points="1196.5,-177.5 1196.5,-207.5 1532.5,-207.5 1532.5,-177.5 1196.5,-177.5"/>
<text text-anchor="start" x="1203.5" y="-188.9" font-family="Arial" font-size="14.00" fill="#000000">updated_at    </text>
<text text-anchor="start" x="1307.7468" y="-188.9" font-family="Arial" font-size="14.00" fill="#666666">[timestamp with time zone]</text>
</g>
<!-- public.event_attendance&#45;&gt;public.event_registration -->
<g id="edge4" class="edge">
<title>public.event_attendance:registration_id&#45;&gt;public.event_registration:id</title>
<path fill="none" stroke="#000000" d="M927.5968,-757.4619C1030.0908,-756.6555 1076.3848,-742.4798 1144.5,-661 1211.3011,-581.0921 1092.3479,-432.5 1196.5,-432.5"/>
<polygon fill="#000000" stroke="#000000" points="927.4999,-757.4622 917.483,-753 922.5,-757.4811 917.5,-757.5 917.5,-757.5 917.5,-757.5 922.5,-757.4811 917.517,-762 927.4999,-757.4622 927.4999,-757.4622"/>
<text text-anchor="start" x="924.933" y="-767.5" font-family="Arial" font-size="10.00" fill="#000000">FOREIGN KEY (registration_id) REFERENCES event_registration(id) ON UPDATE CASCADE ON DELETE CASCADE</text>
</g>
</g>
</svg>
