<?xml version="1.0" encoding="UTF-8" standalone="no"?>
<!DOCTYPE svg PUBLIC "-//W3C//DTD SVG 1.1//EN"
 "http://www.w3.org/Graphics/SVG/1.1/DTD/svg11.dtd">
<!-- Generated by graphviz version 2.40.1 (20161225.0304)
 -->
<!-- Title: public.person_invitation Pages: 1 -->
<svg width="1061pt" height="1072pt"
 viewBox="0.00 0.00 1061.00 1072.00" xmlns="http://www.w3.org/2000/svg" xmlns:xlink="http://www.w3.org/1999/xlink">
<g id="graph0" class="graph" transform="scale(1 1) rotate(0) translate(4 1068)">
<title>public.person_invitation</title>
<polygon fill="#ffffff" stroke="transparent" points="-4,4 -4,-1068 1057,-1068 1057,4 -4,4"/>
<!-- public.person_invitation -->
<g id="node1" class="node">
<title>public.person_invitation</title>
<polygon fill="#efefef" stroke="transparent" points="365,-982.5 365,-1017.5 694,-1017.5 694,-982.5 365,-982.5"/>
<polygon fill="none" stroke="#000000" points="365,-982.5 365,-1017.5 694,-1017.5 694,-982.5 365,-982.5"/>
<text text-anchor="start" x="371.6939" y="-995.3" font-family="Arial Bold" font-size="18.00" fill="#000000">public.person_invitation</text>
<text text-anchor="start" x="559.7381" y="-995.3" font-family="Arial" font-size="14.00" fill="#000000">    </text>
<text text-anchor="start" x="593.9429" y="-995.3" font-family="Arial" font-size="14.00" fill="#666666">[BASE TABLE]</text>
<polygon fill="none" stroke="#000000" points="365,-952.5 365,-982.5 694,-982.5 694,-952.5 365,-952.5"/>
<text text-anchor="start" x="372" y="-963.9" font-family="Arial" font-size="14.00" fill="#000000">id </text>
<text text-anchor="start" x="386.7798" y="-963.9" font-family="Arial" font-size="14.00" fill="#666666">[bigint]</text>
<polygon fill="none" stroke="#000000" points="365,-922.5 365,-952.5 694,-952.5 694,-922.5 365,-922.5"/>
<text text-anchor="start" x="372" y="-933.9" font-family="Arial" font-size="14.00" fill="#000000">access_token </text>
<text text-anchor="start" x="461.4768" y="-933.9" font-family="Arial" font-size="14.00" fill="#666666">[uuid]</text>
<polygon fill="none" stroke="#000000" points="365,-892.5 365,-922.5 694,-922.5 694,-892.5 365,-892.5"/>
<text text-anchor="start" x="372" y="-903.9" font-family="Arial" font-size="14.00" fill="#000000">person_id </text>
<text text-anchor="start" x="437.3534" y="-903.9" font-family="Arial" font-size="14.00" fill="#666666">[bigint]</text>
<polygon fill="none" stroke="#000000" points="365,-862.5 365,-892.5 694,-892.5 694,-862.5 365,-862.5"/>
<text text-anchor="start" x="372" y="-873.9" font-family="Arial" font-size="14.00" fill="#000000">tenant_id </text>
<text text-anchor="start" x="433.474" y="-873.9" font-family="Arial" font-size="14.00" fill="#666666">[bigint]</text>
<polygon fill="none" stroke="#000000" points="365,-832.5 365,-862.5 694,-862.5 694,-832.5 365,-832.5"/>
<text text-anchor="start" x="372" y="-843.9" font-family="Arial" font-size="14.00" fill="#000000">used_at </text>
<text text-anchor="start" x="425.6942" y="-843.9" font-family="Arial" font-size="14.00" fill="#666666">[timestamp with time zone]</text>
<polygon fill="none" stroke="#000000" points="365,-802.5 365,-832.5 694,-832.5 694,-802.5 365,-802.5"/>
<text text-anchor="start" x="372" y="-813.9" font-family="Arial" font-size="14.00" fill="#000000">created_at </text>
<text text-anchor="start" x="442.028" y="-813.9" font-family="Arial" font-size="14.00" fill="#666666">[timestamp with time zone]</text>
<polygon fill="none" stroke="#000000" points="365,-772.5 365,-802.5 694,-802.5 694,-772.5 365,-772.5"/>
<text text-anchor="start" x="372" y="-783.9" font-family="Arial" font-size="14.00" fill="#000000">updated_at </text>
<text text-anchor="start" x="445.9326" y="-783.9" font-family="Arial" font-size="14.00" fill="#666666">[timestamp with time zone]</text>
<polygon fill="none" stroke="#000000" points="365,-742.5 365,-772.5 694,-772.5 694,-742.5 365,-742.5"/>
<text text-anchor="start" x="372" y="-753.9" font-family="Arial" font-size="14.00" fill="#000000">email </text>
<text text-anchor="start" x="409.3296" y="-753.9" font-family="Arial" font-size="14.00" fill="#666666">[citext]</text>
<polygon fill="none" stroke="#000000" stroke-width="3" points="363,-741.5 363,-1019.5 695,-1019.5 695,-741.5 363,-741.5"/>
</g>
<!-- public.person -->
<g id="node2" class="node">
<title>public.person</title>
<polygon fill="#efefef" stroke="transparent" points="205,-582.5 205,-617.5 488,-617.5 488,-582.5 205,-582.5"/>
<polygon fill="none" stroke="#000000" points="205,-582.5 205,-617.5 488,-617.5 488,-582.5 205,-582.5"/>
<text text-anchor="start" x="229.2029" y="-595.3" font-family="Arial Bold" font-size="18.00" fill="#000000">public.person</text>
<text text-anchor="start" x="336.2291" y="-595.3" font-family="Arial" font-size="14.00" fill="#000000">    </text>
<text text-anchor="start" x="370.4339" y="-595.3" font-family="Arial" font-size="14.00" fill="#666666">[BASE TABLE]</text>
<polygon fill="none" stroke="#000000" points="205,-552.5 205,-582.5 488,-582.5 488,-552.5 205,-552.5"/>
<text text-anchor="start" x="212" y="-563.9" font-family="Arial" font-size="14.00" fill="#000000">id    </text>
<text text-anchor="start" x="257.094" y="-563.9" font-family="Arial" font-size="14.00" fill="#666666">[bigint]</text>
<polygon fill="none" stroke="#000000" points="205,-522.5 205,-552.5 488,-552.5 488,-522.5 205,-522.5"/>
<text text-anchor="start" x="212" y="-533.9" font-family="Arial" font-size="14.00" fill="#000000">first_name    </text>
<text text-anchor="start" x="311.5442" y="-533.9" font-family="Arial" font-size="14.00" fill="#666666">[text]</text>
<polygon fill="none" stroke="#000000" points="205,-492.5 205,-522.5 488,-522.5 488,-492.5 205,-492.5"/>
<text text-anchor="start" x="212" y="-503.9" font-family="Arial" font-size="14.00" fill="#000000">last_name    </text>
<text text-anchor="start" x="310.7756" y="-503.9" font-family="Arial" font-size="14.00" fill="#666666">[text]</text>
<polygon fill="none" stroke="#000000" points="205,-462.5 205,-492.5 488,-492.5 488,-462.5 205,-462.5"/>
<text text-anchor="start" x="212" y="-473.9" font-family="Arial" font-size="14.00" fill="#000000">gender    </text>
<text text-anchor="start" x="289.7784" y="-473.9" font-family="Arial" font-size="14.00" fill="#666666">[gender_type]</text>
<polygon fill="none" stroke="#000000" points="205,-432.5 205,-462.5 488,-462.5 488,-432.5 205,-432.5"/>
<text text-anchor="start" x="212" y="-443.9" font-family="Arial" font-size="14.00" fill="#000000">birth_date    </text>
<text text-anchor="start" x="308.4488" y="-443.9" font-family="Arial" font-size="14.00" fill="#666666">[date]</text>
<polygon fill="none" stroke="#000000" points="205,-402.5 205,-432.5 488,-432.5 488,-402.5 205,-402.5"/>
<text text-anchor="start" x="212" y="-413.9" font-family="Arial" font-size="14.00" fill="#000000">nationality    </text>
<text text-anchor="start" x="309.2188" y="-413.9" font-family="Arial" font-size="14.00" fill="#666666">[text]</text>
<polygon fill="none" stroke="#000000" points="205,-372.5 205,-402.5 488,-402.5 488,-372.5 205,-372.5"/>
<text text-anchor="start" x="212" y="-383.9" font-family="Arial" font-size="14.00" fill="#000000">tax_identification_number    </text>
<text text-anchor="start" x="405.6886" y="-383.9" font-family="Arial" font-size="14.00" fill="#666666">[text]</text>
<polygon fill="none" stroke="#000000" points="205,-342.5 205,-372.5 488,-372.5 488,-342.5 205,-342.5"/>
<text text-anchor="start" x="212" y="-353.9" font-family="Arial" font-size="14.00" fill="#000000">national_id_number    </text>
<text text-anchor="start" x="369.1276" y="-353.9" font-family="Arial" font-size="14.00" fill="#666666">[text]</text>
<polygon fill="none" stroke="#000000" points="205,-312.5 205,-342.5 488,-342.5 488,-312.5 205,-312.5"/>
<text text-anchor="start" x="212" y="-323.9" font-family="Arial" font-size="14.00" fill="#000000">csts_id    </text>
<text text-anchor="start" x="289.7672" y="-323.9" font-family="Arial" font-size="14.00" fill="#666666">[text]</text>
<polygon fill="none" stroke="#000000" points="205,-282.5 205,-312.5 488,-312.5 488,-282.5 205,-282.5"/>
<text text-anchor="start" x="212" y="-293.9" font-family="Arial" font-size="14.00" fill="#000000">wdsf_id    </text>
<text text-anchor="start" x="293.6564" y="-293.9" font-family="Arial" font-size="14.00" fill="#666666">[text]</text>
<polygon fill="none" stroke="#000000" points="205,-252.5 205,-282.5 488,-282.5 488,-252.5 205,-252.5"/>
<text text-anchor="start" x="212" y="-263.9" font-family="Arial" font-size="14.00" fill="#000000">created_at    </text>
<text text-anchor="start" x="312.3422" y="-263.9" font-family="Arial" font-size="14.00" fill="#666666">[timestamp with time zone]</text>
<polygon fill="none" stroke="#000000" points="205,-222.5 205,-252.5 488,-252.5 488,-222.5 205,-222.5"/>
<text text-anchor="start" x="211.5344" y="-233.9" font-family="Arial" font-size="14.00" fill="#000000">updated_at    </text>
<text text-anchor="start" x="315.7812" y="-233.9" font-family="Arial" font-size="14.00" fill="#666666">[timestamp with time zone]</text>
<polygon fill="none" stroke="#000000" points="205,-192.5 205,-222.5 488,-222.5 488,-192.5 205,-192.5"/>
<text text-anchor="start" x="212" y="-203.9" font-family="Arial" font-size="14.00" fill="#000000">legacy_user_id    </text>
<text text-anchor="start" x="340.3394" y="-203.9" font-family="Arial" font-size="14.00" fill="#666666">[bigint]</text>
<polygon fill="none" stroke="#000000" points="205,-162.5 205,-192.5 488,-192.5 488,-162.5 205,-162.5"/>
<text text-anchor="start" x="212" y="-173.9" font-family="Arial" font-size="14.00" fill="#000000">prefix_title    </text>
<text text-anchor="start" x="309.9874" y="-173.9" font-family="Arial" font-size="14.00" fill="#666666">[text]</text>
<polygon fill="none" stroke="#000000" points="205,-132.5 205,-162.5 488,-162.5 488,-132.5 205,-132.5"/>
<text text-anchor="start" x="212" y="-143.9" font-family="Arial" font-size="14.00" fill="#000000">suffix_title    </text>
<text text-anchor="start" x="308.4348" y="-143.9" font-family="Arial" font-size="14.00" fill="#666666">[text]</text>
<polygon fill="none" stroke="#000000" points="205,-102.5 205,-132.5 488,-132.5 488,-102.5 205,-102.5"/>
<text text-anchor="start" x="212" y="-113.9" font-family="Arial" font-size="14.00" fill="#000000">bio    </text>
<text text-anchor="start" x="264.8766" y="-113.9" font-family="Arial" font-size="14.00" fill="#666666">[text]</text>
<polygon fill="none" stroke="#000000" points="205,-72.5 205,-102.5 488,-102.5 488,-72.5 205,-72.5"/>
<text text-anchor="start" x="212" y="-83.9" font-family="Arial" font-size="14.00" fill="#000000">email    </text>
<text text-anchor="start" x="279.6438" y="-83.9" font-family="Arial" font-size="14.00" fill="#666666">[citext]</text>
<polygon fill="none" stroke="#000000" points="205,-42.5 205,-72.5 488,-72.5 488,-42.5 205,-42.5"/>
<text text-anchor="start" x="212" y="-53.9" font-family="Arial" font-size="14.00" fill="#000000">phone    </text>
<text text-anchor="start" x="285.1178" y="-53.9" font-family="Arial" font-size="14.00" fill="#666666">[text]</text>
</g>
<!-- public.person_invitation&#45;&gt;public.person -->
<g id="edge1" class="edge">
<title>public.person_invitation:person_id&#45;&gt;public.person:id</title>
<path fill="none" stroke="#000000" d="M354.6295,-906.8908C274.3992,-896.9967 311.0931,-768.9461 365,-697 399.1547,-651.416 453.8453,-706.584 488,-661 512.9178,-627.7439 529.5556,-567.5 488,-567.5"/>
<polygon fill="#000000" stroke="#000000" points="355.0172,-906.9135 364.7361,-911.9923 360.0086,-907.2068 365,-907.5 365,-907.5 365,-907.5 360.0086,-907.2068 365.2639,-903.0077 355.0172,-906.9135 355.0172,-906.9135"/>
<text text-anchor="start" x="7.4355" y="-917.5" font-family="Arial" font-size="10.00" fill="#000000">FOREIGN KEY (person_id) REFERENCES person(id) ON DELETE CASCADE</text>
</g>
<!-- public.tenant -->
<g id="node3" class="node">
<title>public.tenant</title>
<polygon fill="#efefef" stroke="transparent" points="592,-432.5 592,-467.5 835,-467.5 835,-432.5 592,-432.5"/>
<polygon fill="none" stroke="#000000" points="592,-432.5 592,-467.5 835,-467.5 835,-432.5 592,-432.5"/>
<text text-anchor="start" x="598.6968" y="-445.3" font-family="Arial Bold" font-size="18.00" fill="#000000">public.tenant</text>
<text text-anchor="start" x="700.7352" y="-445.3" font-family="Arial" font-size="14.00" fill="#000000">    </text>
<text text-anchor="start" x="734.94" y="-445.3" font-family="Arial" font-size="14.00" fill="#666666">[BASE TABLE]</text>
<polygon fill="none" stroke="#000000" points="592,-402.5 592,-432.5 835,-432.5 835,-402.5 592,-402.5"/>
<text text-anchor="start" x="599" y="-413.9" font-family="Arial" font-size="14.00" fill="#000000">id    </text>
<text text-anchor="start" x="644.094" y="-413.9" font-family="Arial" font-size="14.00" fill="#666666">[bigint]</text>
<polygon fill="none" stroke="#000000" points="592,-372.5 592,-402.5 835,-402.5 835,-372.5 592,-372.5"/>
<text text-anchor="start" x="599" y="-383.9" font-family="Arial" font-size="14.00" fill="#000000">name    </text>
<text text-anchor="start" x="668.2132" y="-383.9" font-family="Arial" font-size="14.00" fill="#666666">[text]</text>
<polygon fill="none" stroke="#000000" points="592,-342.5 592,-372.5 835,-372.5 835,-342.5 592,-342.5"/>
<text text-anchor="start" x="599" y="-353.9" font-family="Arial" font-size="14.00" fill="#000000">origins    </text>
<text text-anchor="start" x="674.4264" y="-353.9" font-family="Arial" font-size="14.00" fill="#666666">[text[]]</text>
<polygon fill="none" stroke="#000000" points="592,-312.5 592,-342.5 835,-342.5 835,-312.5 592,-312.5"/>
<text text-anchor="start" x="599" y="-323.9" font-family="Arial" font-size="14.00" fill="#000000">cz_ico    </text>
<text text-anchor="start" x="672.8766" y="-323.9" font-family="Arial" font-size="14.00" fill="#666666">[text]</text>
<polygon fill="none" stroke="#000000" points="592,-282.5 592,-312.5 835,-312.5 835,-282.5 592,-282.5"/>
<text text-anchor="start" x="599" y="-293.9" font-family="Arial" font-size="14.00" fill="#000000">cz_dic    </text>
<text text-anchor="start" x="672.8766" y="-293.9" font-family="Arial" font-size="14.00" fill="#666666">[text]</text>
<polygon fill="none" stroke="#000000" points="592,-252.5 592,-282.5 835,-282.5 835,-252.5 592,-252.5"/>
<text text-anchor="start" x="599" y="-263.9" font-family="Arial" font-size="14.00" fill="#000000">address    </text>
<text text-anchor="start" x="682.9958" y="-263.9" font-family="Arial" font-size="14.00" fill="#666666">[address_domain]</text>
<polygon fill="none" stroke="#000000" points="592,-222.5 592,-252.5 835,-252.5 835,-222.5 592,-222.5"/>
<text text-anchor="start" x="599" y="-233.9" font-family="Arial" font-size="14.00" fill="#000000">description    </text>
<text text-anchor="start" x="700.8822" y="-233.9" font-family="Arial" font-size="14.00" fill="#666666">[text]</text>
<polygon fill="none" stroke="#000000" points="592,-192.5 592,-222.5 835,-222.5 835,-192.5 592,-192.5"/>
<text text-anchor="start" x="599" y="-203.9" font-family="Arial" font-size="14.00" fill="#000000">bank_account    </text>
<text text-anchor="start" x="720.3562" y="-203.9" font-family="Arial" font-size="14.00" fill="#666666">[text]</text>
</g>
<!-- public.person_invitation&#45;&gt;public.tenant -->
<g id="edge2" class="edge">
<title>public.person_invitation:tenant_id&#45;&gt;public.tenant:id</title>
<path fill="none" stroke="#000000" d="M704.0671,-877.1018C848.4218,-865.0874 610.8787,-584.6883 592,-511 581.6867,-470.7446 550.4444,-417.5 592,-417.5"/>
<polygon fill="#000000" stroke="#000000" points="703.9922,-877.1047 693.8221,-873.0035 698.9961,-877.3023 694,-877.5 694,-877.5 694,-877.5 698.9961,-877.3023 694.1779,-881.9965 703.9922,-877.1047 703.9922,-877.1047"/>
<text text-anchor="start" x="701.2065" y="-887.5" font-family="Arial" font-size="10.00" fill="#000000">FOREIGN KEY (tenant_id) REFERENCES tenant(id) ON DELETE CASCADE</text>
</g>
</g>
</svg>
