<?xml version="1.0" encoding="UTF-8" standalone="no"?>
<!DOCTYPE svg PUBLIC "-//W3C//DTD SVG 1.1//EN"
 "http://www.w3.org/Graphics/SVG/1.1/DTD/svg11.dtd">
<!-- Generated by graphviz version 2.40.1 (20161225.0304)
 -->
<!-- Title: public.payment_recipient Pages: 1 -->
<svg width="1326pt" height="892pt"
 viewBox="0.00 0.00 1326.00 892.00" xmlns="http://www.w3.org/2000/svg" xmlns:xlink="http://www.w3.org/1999/xlink">
<g id="graph0" class="graph" transform="scale(1 1) rotate(0) translate(4 888)">
<title>public.payment_recipient</title>
<polygon fill="#ffffff" stroke="transparent" points="-4,4 -4,-888 1322,-888 1322,4 -4,4"/>
<!-- public.payment_recipient -->
<g id="node1" class="node">
<title>public.payment_recipient</title>
<polygon fill="#efefef" stroke="transparent" points="492,-802.5 492,-837.5 832,-837.5 832,-802.5 492,-802.5"/>
<polygon fill="none" stroke="#000000" points="492,-802.5 492,-837.5 832,-837.5 832,-802.5 492,-802.5"/>
<text text-anchor="start" x="498.6949" y="-815.3" font-family="Arial Bold" font-size="18.00" fill="#000000">public.payment_recipient</text>
<text text-anchor="start" x="697.7371" y="-815.3" font-family="Arial" font-size="14.00" fill="#000000">    </text>
<text text-anchor="start" x="731.9419" y="-815.3" font-family="Arial" font-size="14.00" fill="#666666">[BASE TABLE]</text>
<polygon fill="none" stroke="#000000" points="492,-772.5 492,-802.5 832,-802.5 832,-772.5 492,-772.5"/>
<text text-anchor="start" x="499" y="-783.9" font-family="Arial" font-size="14.00" fill="#000000">id </text>
<text text-anchor="start" x="513.7798" y="-783.9" font-family="Arial" font-size="14.00" fill="#666666">[bigint]</text>
<polygon fill="none" stroke="#000000" points="492,-742.5 492,-772.5 832,-772.5 832,-742.5 492,-742.5"/>
<text text-anchor="start" x="499" y="-753.9" font-family="Arial" font-size="14.00" fill="#000000">tenant_id </text>
<text text-anchor="start" x="560.474" y="-753.9" font-family="Arial" font-size="14.00" fill="#666666">[bigint]</text>
<polygon fill="none" stroke="#000000" points="492,-712.5 492,-742.5 832,-742.5 832,-712.5 492,-712.5"/>
<text text-anchor="start" x="499" y="-723.9" font-family="Arial" font-size="14.00" fill="#000000">payment_id </text>
<text text-anchor="start" x="575.244" y="-723.9" font-family="Arial" font-size="14.00" fill="#666666">[bigint]</text>
<polygon fill="none" stroke="#000000" points="492,-682.5 492,-712.5 832,-712.5 832,-682.5 492,-682.5"/>
<text text-anchor="start" x="499" y="-693.9" font-family="Arial" font-size="14.00" fill="#000000">account_id </text>
<text text-anchor="start" x="570.5834" y="-693.9" font-family="Arial" font-size="14.00" fill="#666666">[bigint]</text>
<polygon fill="none" stroke="#000000" points="492,-652.5 492,-682.5 832,-682.5 832,-652.5 492,-652.5"/>
<text text-anchor="start" x="499" y="-663.9" font-family="Arial" font-size="14.00" fill="#000000">amount </text>
<text text-anchor="start" x="549.5722" y="-663.9" font-family="Arial" font-size="14.00" fill="#666666">[numeric(19,4)]</text>
<polygon fill="none" stroke="#000000" stroke-width="3" points="490.5,-651.5 490.5,-839.5 833.5,-839.5 833.5,-651.5 490.5,-651.5"/>
</g>
<!-- public.tenant -->
<g id="node2" class="node">
<title>public.tenant</title>
<polygon fill="#efefef" stroke="transparent" points="173,-387.5 173,-422.5 416,-422.5 416,-387.5 173,-387.5"/>
<polygon fill="none" stroke="#000000" points="173,-387.5 173,-422.5 416,-422.5 416,-387.5 173,-387.5"/>
<text text-anchor="start" x="179.6968" y="-400.3" font-family="Arial Bold" font-size="18.00" fill="#000000">public.tenant</text>
<text text-anchor="start" x="281.7352" y="-400.3" font-family="Arial" font-size="14.00" fill="#000000">    </text>
<text text-anchor="start" x="315.94" y="-400.3" font-family="Arial" font-size="14.00" fill="#666666">[BASE TABLE]</text>
<polygon fill="none" stroke="#000000" points="173,-357.5 173,-387.5 416,-387.5 416,-357.5 173,-357.5"/>
<text text-anchor="start" x="180" y="-368.9" font-family="Arial" font-size="14.00" fill="#000000">id    </text>
<text text-anchor="start" x="225.094" y="-368.9" font-family="Arial" font-size="14.00" fill="#666666">[bigint]</text>
<polygon fill="none" stroke="#000000" points="173,-327.5 173,-357.5 416,-357.5 416,-327.5 173,-327.5"/>
<text text-anchor="start" x="180" y="-338.9" font-family="Arial" font-size="14.00" fill="#000000">name    </text>
<text text-anchor="start" x="249.2132" y="-338.9" font-family="Arial" font-size="14.00" fill="#666666">[text]</text>
<polygon fill="none" stroke="#000000" points="173,-297.5 173,-327.5 416,-327.5 416,-297.5 173,-297.5"/>
<text text-anchor="start" x="180" y="-308.9" font-family="Arial" font-size="14.00" fill="#000000">origins    </text>
<text text-anchor="start" x="255.4264" y="-308.9" font-family="Arial" font-size="14.00" fill="#666666">[text[]]</text>
<polygon fill="none" stroke="#000000" points="173,-267.5 173,-297.5 416,-297.5 416,-267.5 173,-267.5"/>
<text text-anchor="start" x="180" y="-278.9" font-family="Arial" font-size="14.00" fill="#000000">cz_ico    </text>
<text text-anchor="start" x="253.8766" y="-278.9" font-family="Arial" font-size="14.00" fill="#666666">[text]</text>
<polygon fill="none" stroke="#000000" points="173,-237.5 173,-267.5 416,-267.5 416,-237.5 173,-237.5"/>
<text text-anchor="start" x="180" y="-248.9" font-family="Arial" font-size="14.00" fill="#000000">cz_dic    </text>
<text text-anchor="start" x="253.8766" y="-248.9" font-family="Arial" font-size="14.00" fill="#666666">[text]</text>
<polygon fill="none" stroke="#000000" points="173,-207.5 173,-237.5 416,-237.5 416,-207.5 173,-207.5"/>
<text text-anchor="start" x="180" y="-218.9" font-family="Arial" font-size="14.00" fill="#000000">address    </text>
<text text-anchor="start" x="263.9958" y="-218.9" font-family="Arial" font-size="14.00" fill="#666666">[address_domain]</text>
<polygon fill="none" stroke="#000000" points="173,-177.5 173,-207.5 416,-207.5 416,-177.5 173,-177.5"/>
<text text-anchor="start" x="180" y="-188.9" font-family="Arial" font-size="14.00" fill="#000000">description    </text>
<text text-anchor="start" x="281.8822" y="-188.9" font-family="Arial" font-size="14.00" fill="#666666">[text]</text>
<polygon fill="none" stroke="#000000" points="173,-147.5 173,-177.5 416,-177.5 416,-147.5 173,-147.5"/>
<text text-anchor="start" x="180" y="-158.9" font-family="Arial" font-size="14.00" fill="#000000">bank_account    </text>
<text text-anchor="start" x="301.3562" y="-158.9" font-family="Arial" font-size="14.00" fill="#666666">[text]</text>
</g>
<!-- public.payment_recipient&#45;&gt;public.tenant -->
<g id="edge1" class="edge">
<title>public.payment_recipient:tenant_id&#45;&gt;public.tenant:id</title>
<path fill="none" stroke="#000000" d="M481.7572,-755.4286C412.9081,-725.1249 499.4594,-372.5 416,-372.5"/>
<polygon fill="#000000" stroke="#000000" points="482.1984,-755.5177 491.108,-761.9107 487.0992,-756.5089 492,-757.5 492,-757.5 492,-757.5 487.0992,-756.5089 492.892,-753.0893 482.1984,-755.5177 482.1984,-755.5177"/>
<text text-anchor="start" x="28.0955" y="-767.5" font-family="Arial" font-size="10.00" fill="#000000">FOREIGN KEY (tenant_id) REFERENCES tenant(id) ON UPDATE CASCADE ON DELETE CASCADE</text>
</g>
<!-- public.payment -->
<g id="node3" class="node">
<title>public.payment</title>
<polygon fill="#efefef" stroke="transparent" points="520,-492.5 520,-527.5 803,-527.5 803,-492.5 520,-492.5"/>
<polygon fill="none" stroke="#000000" points="520,-492.5 520,-527.5 803,-527.5 803,-492.5 520,-492.5"/>
<text text-anchor="start" x="537.2018" y="-505.3" font-family="Arial Bold" font-size="18.00" fill="#000000">public.payment</text>
<text text-anchor="start" x="658.2302" y="-505.3" font-family="Arial" font-size="14.00" fill="#000000">    </text>
<text text-anchor="start" x="692.435" y="-505.3" font-family="Arial" font-size="14.00" fill="#666666">[BASE TABLE]</text>
<polygon fill="none" stroke="#000000" points="520,-462.5 520,-492.5 803,-492.5 803,-462.5 520,-462.5"/>
<text text-anchor="start" x="527" y="-473.9" font-family="Arial" font-size="14.00" fill="#000000">id    </text>
<text text-anchor="start" x="572.094" y="-473.9" font-family="Arial" font-size="14.00" fill="#666666">[bigint]</text>
<polygon fill="none" stroke="#000000" points="520,-432.5 520,-462.5 803,-462.5 803,-432.5 520,-432.5"/>
<text text-anchor="start" x="527" y="-443.9" font-family="Arial" font-size="14.00" fill="#000000">tenant_id    </text>
<text text-anchor="start" x="618.7882" y="-443.9" font-family="Arial" font-size="14.00" fill="#666666">[bigint]</text>
<polygon fill="none" stroke="#000000" points="520,-402.5 520,-432.5 803,-432.5 803,-402.5 520,-402.5"/>
<text text-anchor="start" x="527" y="-413.9" font-family="Arial" font-size="14.00" fill="#000000">accounting_period_id    </text>
<text text-anchor="start" x="694.2496" y="-413.9" font-family="Arial" font-size="14.00" fill="#666666">[bigint]</text>
<polygon fill="none" stroke="#000000" points="520,-372.5 520,-402.5 803,-402.5 803,-372.5 520,-372.5"/>
<text text-anchor="start" x="527" y="-383.9" font-family="Arial" font-size="14.00" fill="#000000">cohort_subscription_id    </text>
<text text-anchor="start" x="701.2356" y="-383.9" font-family="Arial" font-size="14.00" fill="#666666">[bigint]</text>
<polygon fill="none" stroke="#000000" points="520,-342.5 520,-372.5 803,-372.5 803,-342.5 520,-342.5"/>
<text text-anchor="start" x="527" y="-353.9" font-family="Arial" font-size="14.00" fill="#000000">event_registration_id    </text>
<text text-anchor="start" x="691.1262" y="-353.9" font-family="Arial" font-size="14.00" fill="#666666">[bigint]</text>
<polygon fill="none" stroke="#000000" points="520,-312.5 520,-342.5 803,-342.5 803,-312.5 520,-312.5"/>
<text text-anchor="start" x="527" y="-323.9" font-family="Arial" font-size="14.00" fill="#000000">event_instance_id    </text>
<text text-anchor="start" x="674.0252" y="-323.9" font-family="Arial" font-size="14.00" fill="#666666">[bigint]</text>
<polygon fill="none" stroke="#000000" points="520,-282.5 520,-312.5 803,-312.5 803,-282.5 520,-282.5"/>
<text text-anchor="start" x="527" y="-293.9" font-family="Arial" font-size="14.00" fill="#000000">status    </text>
<text text-anchor="start" x="598.5512" y="-293.9" font-family="Arial" font-size="14.00" fill="#666666">[payment_status]</text>
<polygon fill="none" stroke="#000000" points="520,-252.5 520,-282.5 803,-282.5 803,-252.5 520,-252.5"/>
<text text-anchor="start" x="527" y="-263.9" font-family="Arial" font-size="14.00" fill="#000000">variable_symbol    </text>
<text text-anchor="start" x="662.324" y="-263.9" font-family="Arial" font-size="14.00" fill="#666666">[text]</text>
<polygon fill="none" stroke="#000000" points="520,-222.5 520,-252.5 803,-252.5 803,-222.5 520,-222.5"/>
<text text-anchor="start" x="527" y="-233.9" font-family="Arial" font-size="14.00" fill="#000000">specific_symbol    </text>
<text text-anchor="start" x="659.9888" y="-233.9" font-family="Arial" font-size="14.00" fill="#666666">[text]</text>
<polygon fill="none" stroke="#000000" points="520,-192.5 520,-222.5 803,-222.5 803,-192.5 520,-192.5"/>
<text text-anchor="start" x="527" y="-203.9" font-family="Arial" font-size="14.00" fill="#000000">is_auto_credit_allowed    </text>
<text text-anchor="start" x="703.5708" y="-203.9" font-family="Arial" font-size="14.00" fill="#666666">[boolean]</text>
<polygon fill="none" stroke="#000000" points="520,-162.5 520,-192.5 803,-192.5 803,-162.5 520,-162.5"/>
<text text-anchor="start" x="527" y="-173.9" font-family="Arial" font-size="14.00" fill="#000000">tags    </text>
<text text-anchor="start" x="587.6606" y="-173.9" font-family="Arial" font-size="14.00" fill="#666666">[text[]]</text>
<polygon fill="none" stroke="#000000" points="520,-132.5 520,-162.5 803,-162.5 803,-132.5 520,-132.5"/>
<text text-anchor="start" x="527" y="-143.9" font-family="Arial" font-size="14.00" fill="#000000">due_at    </text>
<text text-anchor="start" x="604.0084" y="-143.9" font-family="Arial" font-size="14.00" fill="#666666">[timestamp with time zone]</text>
<polygon fill="none" stroke="#000000" points="520,-102.5 520,-132.5 803,-132.5 803,-102.5 520,-102.5"/>
<text text-anchor="start" x="527" y="-113.9" font-family="Arial" font-size="14.00" fill="#000000">paid_at    </text>
<text text-anchor="start" x="607.115" y="-113.9" font-family="Arial" font-size="14.00" fill="#666666">[timestamp with time zone]</text>
<polygon fill="none" stroke="#000000" points="520,-72.5 520,-102.5 803,-102.5 803,-72.5 520,-72.5"/>
<text text-anchor="start" x="527" y="-83.9" font-family="Arial" font-size="14.00" fill="#000000">created_at    </text>
<text text-anchor="start" x="627.3422" y="-83.9" font-family="Arial" font-size="14.00" fill="#666666">[timestamp with time zone]</text>
<polygon fill="none" stroke="#000000" points="520,-42.5 520,-72.5 803,-72.5 803,-42.5 520,-42.5"/>
<text text-anchor="start" x="526.5344" y="-53.9" font-family="Arial" font-size="14.00" fill="#000000">updated_at    </text>
<text text-anchor="start" x="630.7812" y="-53.9" font-family="Arial" font-size="14.00" fill="#666666">[timestamp with time zone]</text>
</g>
<!-- public.payment_recipient&#45;&gt;public.payment -->
<g id="edge2" class="edge">
<title>public.payment_recipient:payment_id&#45;&gt;public.payment:id</title>
<path fill="none" stroke="#000000" d="M482.0019,-726.41C440.9785,-716.6818 458.8096,-644.254 492,-607 584.561,-503.1065 710.439,-674.8935 803,-571 830.6432,-539.9723 844.5556,-477.5 803,-477.5"/>
<polygon fill="#000000" stroke="#000000" points="482.0589,-726.4161 491.5122,-731.9735 487.0295,-726.958 492,-727.5 492,-727.5 492,-727.5 487.0295,-726.958 492.4878,-723.0265 482.0589,-726.4161 482.0589,-726.4161"/>
<text text-anchor="start" x="6.5455" y="-737.5" font-family="Arial" font-size="10.00" fill="#000000">FOREIGN KEY (payment_id) REFERENCES payment(id) ON UPDATE CASCADE ON DELETE CASCADE</text>
</g>
<!-- public.account -->
<g id="node4" class="node">
<title>public.account</title>
<polygon fill="#efefef" stroke="transparent" points="907,-372.5 907,-407.5 1190,-407.5 1190,-372.5 907,-372.5"/>
<polygon fill="none" stroke="#000000" points="907,-372.5 907,-407.5 1190,-407.5 1190,-372.5 907,-372.5"/>
<text text-anchor="start" x="927.1979" y="-385.3" font-family="Arial Bold" font-size="18.00" fill="#000000">public.account</text>
<text text-anchor="start" x="1042.2341" y="-385.3" font-family="Arial" font-size="14.00" fill="#000000">    </text>
<text text-anchor="start" x="1076.4389" y="-385.3" font-family="Arial" font-size="14.00" fill="#666666">[BASE TABLE]</text>
<polygon fill="none" stroke="#000000" points="907,-342.5 907,-372.5 1190,-372.5 1190,-342.5 907,-342.5"/>
<text text-anchor="start" x="914" y="-353.9" font-family="Arial" font-size="14.00" fill="#000000">id    </text>
<text text-anchor="start" x="959.094" y="-353.9" font-family="Arial" font-size="14.00" fill="#666666">[bigint]</text>
<polygon fill="none" stroke="#000000" points="907,-312.5 907,-342.5 1190,-342.5 1190,-312.5 907,-312.5"/>
<text text-anchor="start" x="914" y="-323.9" font-family="Arial" font-size="14.00" fill="#000000">tenant_id    </text>
<text text-anchor="start" x="1005.7882" y="-323.9" font-family="Arial" font-size="14.00" fill="#666666">[bigint]</text>
<polygon fill="none" stroke="#000000" points="907,-282.5 907,-312.5 1190,-312.5 1190,-282.5 907,-282.5"/>
<text text-anchor="start" x="914" y="-293.9" font-family="Arial" font-size="14.00" fill="#000000">person_id    </text>
<text text-anchor="start" x="1009.6676" y="-293.9" font-family="Arial" font-size="14.00" fill="#666666">[bigint]</text>
<polygon fill="none" stroke="#000000" points="907,-252.5 907,-282.5 1190,-282.5 1190,-252.5 907,-252.5"/>
<text text-anchor="start" x="914" y="-263.9" font-family="Arial" font-size="14.00" fill="#000000">opening_balance    </text>
<text text-anchor="start" x="1054.8092" y="-263.9" font-family="Arial" font-size="14.00" fill="#666666">[numeric(19,4)]</text>
<polygon fill="none" stroke="#000000" points="907,-222.5 907,-252.5 1190,-252.5 1190,-222.5 907,-222.5"/>
<text text-anchor="start" x="914" y="-233.9" font-family="Arial" font-size="14.00" fill="#000000">currency    </text>
<text text-anchor="start" x="1001.8738" y="-233.9" font-family="Arial" font-size="14.00" fill="#666666">[citext]</text>
<polygon fill="none" stroke="#000000" points="907,-192.5 907,-222.5 1190,-222.5 1190,-192.5 907,-192.5"/>
<text text-anchor="start" x="914" y="-203.9" font-family="Arial" font-size="14.00" fill="#000000">created_at    </text>
<text text-anchor="start" x="1014.3422" y="-203.9" font-family="Arial" font-size="14.00" fill="#666666">[timestamp with time zone]</text>
<polygon fill="none" stroke="#000000" points="907,-162.5 907,-192.5 1190,-192.5 1190,-162.5 907,-162.5"/>
<text text-anchor="start" x="913.5344" y="-173.9" font-family="Arial" font-size="14.00" fill="#000000">updated_at    </text>
<text text-anchor="start" x="1017.7812" y="-173.9" font-family="Arial" font-size="14.00" fill="#666666">[timestamp with time zone]</text>
</g>
<!-- public.payment_recipient&#45;&gt;public.account -->
<g id="edge3" class="edge">
<title>public.payment_recipient:account_id&#45;&gt;public.account:id</title>
<path fill="none" stroke="#000000" d="M841.8771,-695.3288C902.2412,-666.3721 833.2549,-357.5 907,-357.5"/>
<polygon fill="#000000" stroke="#000000" points="841.7668,-695.353 831.0338,-693.1049 836.8834,-696.4265 832,-697.5 832,-697.5 832,-697.5 836.8834,-696.4265 832.9662,-701.8951 841.7668,-695.353 841.7668,-695.353"/>
<text text-anchor="start" x="838.8745" y="-707.5" font-family="Arial" font-size="10.00" fill="#000000">FOREIGN KEY (account_id) REFERENCES account(id) ON UPDATE CASCADE ON DELETE CASCADE</text>
</g>
</g>
</svg>
