<?xml version="1.0" encoding="UTF-8" standalone="no"?>
<!DOCTYPE svg PUBLIC "-//W3C//DTD SVG 1.1//EN"
 "http://www.w3.org/Graphics/SVG/1.1/DTD/svg11.dtd">
<!-- Generated by graphviz version 2.40.1 (20161225.0304)
 -->
<!-- Title: public.aktuality Pages: 1 -->
<svg width="1225pt" height="1192pt"
 viewBox="0.00 0.00 1224.50 1192.00" xmlns="http://www.w3.org/2000/svg" xmlns:xlink="http://www.w3.org/1999/xlink">
<g id="graph0" class="graph" transform="scale(1 1) rotate(0) translate(4 1188)">
<title>public.aktuality</title>
<polygon fill="#ffffff" stroke="transparent" points="-4,4 -4,-1188 1220.5,-1188 1220.5,4 -4,4"/>
<!-- public.aktuality -->
<g id="node1" class="node">
<title>public.aktuality</title>
<polygon fill="#efefef" stroke="transparent" points="530,-1102.5 530,-1137.5 828,-1137.5 828,-1102.5 530,-1102.5"/>
<polygon fill="none" stroke="#000000" points="530,-1102.5 530,-1137.5 828,-1137.5 828,-1102.5 530,-1102.5"/>
<text text-anchor="start" x="556.2057" y="-1115.3" font-family="Arial Bold" font-size="18.00" fill="#000000">public.aktuality</text>
<text text-anchor="start" x="674.2263" y="-1115.3" font-family="Arial" font-size="14.00" fill="#000000">    </text>
<text text-anchor="start" x="708.4311" y="-1115.3" font-family="Arial" font-size="14.00" fill="#666666">[BASE TABLE]</text>
<polygon fill="none" stroke="#000000" points="530,-1072.5 530,-1102.5 828,-1102.5 828,-1072.5 530,-1072.5"/>
<text text-anchor="start" x="537" y="-1083.9" font-family="Arial" font-size="14.00" fill="#000000">at_id </text>
<text text-anchor="start" x="571.2356" y="-1083.9" font-family="Arial" font-size="14.00" fill="#666666">[bigint]</text>
<polygon fill="none" stroke="#000000" points="530,-1042.5 530,-1072.5 828,-1072.5 828,-1042.5 530,-1042.5"/>
<text text-anchor="start" x="537" y="-1053.9" font-family="Arial" font-size="14.00" fill="#000000">at_kdo </text>
<text text-anchor="start" x="582.9116" y="-1053.9" font-family="Arial" font-size="14.00" fill="#666666">[bigint]</text>
<polygon fill="none" stroke="#000000" points="530,-1012.5 530,-1042.5 828,-1042.5 828,-1012.5 530,-1012.5"/>
<text text-anchor="start" x="537" y="-1023.9" font-family="Arial" font-size="14.00" fill="#000000">at_kat </text>
<text text-anchor="start" x="579.0196" y="-1023.9" font-family="Arial" font-size="14.00" fill="#666666">[text]</text>
<polygon fill="none" stroke="#000000" points="530,-982.5 530,-1012.5 828,-1012.5 828,-982.5 530,-982.5"/>
<text text-anchor="start" x="537" y="-993.9" font-family="Arial" font-size="14.00" fill="#000000">at_jmeno </text>
<text text-anchor="start" x="598.4614" y="-993.9" font-family="Arial" font-size="14.00" fill="#666666">[text]</text>
<polygon fill="none" stroke="#000000" points="530,-952.5 530,-982.5 828,-982.5 828,-952.5 530,-952.5"/>
<text text-anchor="start" x="537" y="-963.9" font-family="Arial" font-size="14.00" fill="#000000">at_text </text>
<text text-anchor="start" x="582.9102" y="-963.9" font-family="Arial" font-size="14.00" fill="#666666">[text]</text>
<polygon fill="none" stroke="#000000" points="530,-922.5 530,-952.5 828,-952.5 828,-922.5 530,-922.5"/>
<text text-anchor="start" x="537" y="-933.9" font-family="Arial" font-size="14.00" fill="#000000">at_preview </text>
<text text-anchor="start" x="608.568" y="-933.9" font-family="Arial" font-size="14.00" fill="#666666">[text]</text>
<polygon fill="none" stroke="#000000" points="530,-892.5 530,-922.5 828,-922.5 828,-892.5 530,-892.5"/>
<text text-anchor="start" x="537" y="-903.9" font-family="Arial" font-size="14.00" fill="#000000">at_foto </text>
<text text-anchor="start" x="583.6928" y="-903.9" font-family="Arial" font-size="14.00" fill="#666666">[bigint]</text>
<polygon fill="none" stroke="#000000" points="530,-862.5 530,-892.5 828,-892.5 828,-862.5 530,-862.5"/>
<text text-anchor="start" x="537" y="-873.9" font-family="Arial" font-size="14.00" fill="#000000">at_foto_main </text>
<text text-anchor="start" x="621.8078" y="-873.9" font-family="Arial" font-size="14.00" fill="#666666">[bigint]</text>
<polygon fill="none" stroke="#000000" points="530,-832.5 530,-862.5 828,-862.5 828,-832.5 530,-832.5"/>
<text text-anchor="start" x="537" y="-843.9" font-family="Arial" font-size="14.00" fill="#000000">updated_at </text>
<text text-anchor="start" x="610.9326" y="-843.9" font-family="Arial" font-size="14.00" fill="#666666">[timestamp with time zone]</text>
<polygon fill="none" stroke="#000000" points="530,-802.5 530,-832.5 828,-832.5 828,-802.5 530,-802.5"/>
<text text-anchor="start" x="537" y="-813.9" font-family="Arial" font-size="14.00" fill="#000000">created_at </text>
<text text-anchor="start" x="607.028" y="-813.9" font-family="Arial" font-size="14.00" fill="#666666">[timestamp with time zone]</text>
<polygon fill="none" stroke="#000000" points="530,-772.5 530,-802.5 828,-802.5 828,-772.5 530,-772.5"/>
<text text-anchor="start" x="537" y="-783.9" font-family="Arial" font-size="14.00" fill="#000000">id </text>
<text text-anchor="start" x="551.7798" y="-783.9" font-family="Arial" font-size="14.00" fill="#666666">[bigint]</text>
<polygon fill="none" stroke="#000000" points="530,-742.5 530,-772.5 828,-772.5 828,-742.5 530,-742.5"/>
<text text-anchor="start" x="537" y="-753.9" font-family="Arial" font-size="14.00" fill="#000000">tenant_id </text>
<text text-anchor="start" x="598.474" y="-753.9" font-family="Arial" font-size="14.00" fill="#666666">[bigint]</text>
<polygon fill="none" stroke="#000000" points="530,-712.5 530,-742.5 828,-742.5 828,-712.5 530,-712.5"/>
<text text-anchor="start" x="537" y="-723.9" font-family="Arial" font-size="14.00" fill="#000000">title_photo_url </text>
<text text-anchor="start" x="628.8036" y="-723.9" font-family="Arial" font-size="14.00" fill="#666666">[text]</text>
<polygon fill="none" stroke="#000000" points="530,-682.5 530,-712.5 828,-712.5 828,-682.5 530,-682.5"/>
<text text-anchor="start" x="537" y="-693.9" font-family="Arial" font-size="14.00" fill="#000000">at_timestamp </text>
<text text-anchor="start" x="624.9032" y="-693.9" font-family="Arial" font-size="14.00" fill="#666666">[timestamp with time zone]</text>
<polygon fill="none" stroke="#000000" points="530,-652.5 530,-682.5 828,-682.5 828,-652.5 530,-652.5"/>
<text text-anchor="start" x="536.641" y="-663.9" font-family="Arial" font-size="14.00" fill="#000000">at_timestamp_add </text>
<text text-anchor="start" x="655.6746" y="-663.9" font-family="Arial" font-size="14.00" fill="#666666">[timestamp with time zone]</text>
<polygon fill="none" stroke="#000000" stroke-width="3" points="528.5,-651.5 528.5,-1139.5 829.5,-1139.5 829.5,-651.5 528.5,-651.5"/>
</g>
<!-- public.users -->
<g id="node2" class="node">
<title>public.users</title>
<polygon fill="#efefef" stroke="transparent" points="131,-492.5 131,-527.5 426,-527.5 426,-492.5 131,-492.5"/>
<polygon fill="none" stroke="#000000" points="131,-492.5 131,-527.5 426,-527.5 426,-492.5 131,-492.5"/>
<text text-anchor="start" x="166.7091" y="-505.3" font-family="Arial Bold" font-size="18.00" fill="#000000">public.users</text>
<text text-anchor="start" x="262.7229" y="-505.3" font-family="Arial" font-size="14.00" fill="#000000">    </text>
<text text-anchor="start" x="296.9277" y="-505.3" font-family="Arial" font-size="14.00" fill="#666666">[BASE TABLE]</text>
<polygon fill="none" stroke="#000000" points="131,-462.5 131,-492.5 426,-492.5 426,-462.5 131,-462.5"/>
<text text-anchor="start" x="138" y="-473.9" font-family="Arial" font-size="14.00" fill="#000000">u_id    </text>
<text text-anchor="start" x="198.6592" y="-473.9" font-family="Arial" font-size="14.00" fill="#666666">[bigint]</text>
<polygon fill="none" stroke="#000000" points="131,-432.5 131,-462.5 426,-462.5 426,-432.5 131,-432.5"/>
<text text-anchor="start" x="138" y="-443.9" font-family="Arial" font-size="14.00" fill="#000000">u_login    </text>
<text text-anchor="start" x="217.331" y="-443.9" font-family="Arial" font-size="14.00" fill="#666666">[citext]</text>
<polygon fill="none" stroke="#000000" points="131,-402.5 131,-432.5 426,-432.5 426,-402.5 131,-402.5"/>
<text text-anchor="start" x="138" y="-413.9" font-family="Arial" font-size="14.00" fill="#000000">u_pass    </text>
<text text-anchor="start" x="217.3352" y="-413.9" font-family="Arial" font-size="14.00" fill="#666666">[character(40)]</text>
<polygon fill="none" stroke="#000000" points="131,-372.5 131,-402.5 426,-402.5 426,-372.5 131,-372.5"/>
<text text-anchor="start" x="138" y="-383.9" font-family="Arial" font-size="14.00" fill="#000000">u_jmeno    </text>
<text text-anchor="start" x="225.885" y="-383.9" font-family="Arial" font-size="14.00" fill="#666666">[text]</text>
<polygon fill="none" stroke="#000000" points="131,-342.5 131,-372.5 426,-372.5 426,-342.5 131,-342.5"/>
<text text-anchor="start" x="138" y="-353.9" font-family="Arial" font-size="14.00" fill="#000000">u_prijmeni    </text>
<text text-anchor="start" x="236.7588" y="-353.9" font-family="Arial" font-size="14.00" fill="#666666">[text]</text>
<polygon fill="none" stroke="#000000" points="131,-312.5 131,-342.5 426,-342.5 426,-312.5 131,-312.5"/>
<text text-anchor="start" x="138" y="-323.9" font-family="Arial" font-size="14.00" fill="#000000">u_email    </text>
<text text-anchor="start" x="221.209" y="-323.9" font-family="Arial" font-size="14.00" fill="#666666">[citext]</text>
<polygon fill="none" stroke="#000000" points="131,-282.5 131,-312.5 426,-312.5 426,-282.5 131,-282.5"/>
<text text-anchor="start" x="138" y="-293.9" font-family="Arial" font-size="14.00" fill="#000000">updated_at    </text>
<text text-anchor="start" x="242.2468" y="-293.9" font-family="Arial" font-size="14.00" fill="#666666">[timestamp with time zone]</text>
<polygon fill="none" stroke="#000000" points="131,-252.5 131,-282.5 426,-282.5 426,-252.5 131,-252.5"/>
<text text-anchor="start" x="138" y="-263.9" font-family="Arial" font-size="14.00" fill="#000000">u_ban    </text>
<text text-anchor="start" x="211.1178" y="-263.9" font-family="Arial" font-size="14.00" fill="#666666">[boolean]</text>
<polygon fill="none" stroke="#000000" points="131,-222.5 131,-252.5 426,-252.5 426,-222.5 131,-222.5"/>
<text text-anchor="start" x="138" y="-233.9" font-family="Arial" font-size="14.00" fill="#000000">u_confirmed    </text>
<text text-anchor="start" x="249.2188" y="-233.9" font-family="Arial" font-size="14.00" fill="#666666">[boolean]</text>
<polygon fill="none" stroke="#000000" points="131,-192.5 131,-222.5 426,-222.5 426,-192.5 131,-192.5"/>
<text text-anchor="start" x="137.7041" y="-203.9" font-family="Arial" font-size="14.00" fill="#000000">u_created_at    </text>
<text text-anchor="start" x="253.6115" y="-203.9" font-family="Arial" font-size="14.00" fill="#666666">[timestamp with time zone]</text>
<polygon fill="none" stroke="#000000" points="131,-162.5 131,-192.5 426,-192.5 426,-162.5 131,-162.5"/>
<text text-anchor="start" x="138" y="-173.9" font-family="Arial" font-size="14.00" fill="#000000">id    </text>
<text text-anchor="start" x="183.094" y="-173.9" font-family="Arial" font-size="14.00" fill="#666666">[bigint]</text>
<polygon fill="none" stroke="#000000" points="131,-132.5 131,-162.5 426,-162.5 426,-132.5 131,-132.5"/>
<text text-anchor="start" x="138" y="-143.9" font-family="Arial" font-size="14.00" fill="#000000">tenant_id    </text>
<text text-anchor="start" x="229.7882" y="-143.9" font-family="Arial" font-size="14.00" fill="#666666">[bigint]</text>
<polygon fill="none" stroke="#000000" points="131,-102.5 131,-132.5 426,-132.5 426,-102.5 131,-102.5"/>
<text text-anchor="start" x="138" y="-113.9" font-family="Arial" font-size="14.00" fill="#000000">last_login    </text>
<text text-anchor="start" x="231.3282" y="-113.9" font-family="Arial" font-size="14.00" fill="#666666">[timestamp with time zone]</text>
<polygon fill="none" stroke="#000000" points="131,-72.5 131,-102.5 426,-102.5 426,-72.5 131,-72.5"/>
<text text-anchor="start" x="138" y="-83.9" font-family="Arial" font-size="14.00" fill="#000000">created_at    </text>
<text text-anchor="start" x="238.3422" y="-83.9" font-family="Arial" font-size="14.00" fill="#666666">[timestamp with time zone]</text>
<polygon fill="none" stroke="#000000" points="131,-42.5 131,-72.5 426,-72.5 426,-42.5 131,-42.5"/>
<text text-anchor="start" x="138" y="-53.9" font-family="Arial" font-size="14.00" fill="#000000">u_timestamp    </text>
<text text-anchor="start" x="252.3268" y="-53.9" font-family="Arial" font-size="14.00" fill="#666666">[timestamp with time zone]</text>
</g>
<!-- public.aktuality&#45;&gt;public.users -->
<g id="edge1" class="edge">
<title>public.aktuality:at_kdo&#45;&gt;public.users:u_id</title>
<path fill="none" stroke="#000000" d="M520.7165,-1053.1649C467.026,-1000.0894 488.1475,-477.5 426,-477.5"/>
<polygon fill="#000000" stroke="#000000" points="520.9392,-1053.2689 528.096,-1061.5774 525.4696,-1055.3844 530,-1057.5 530,-1057.5 530,-1057.5 525.4696,-1055.3844 531.904,-1053.4226 520.9392,-1053.2689 520.9392,-1053.2689"/>
<text text-anchor="start" x="66.109" y="-1067.5" font-family="Arial" font-size="10.00" fill="#000000">FOREIGN KEY (at_kdo) REFERENCES users(u_id) ON UPDATE RESTRICT ON DELETE RESTRICT</text>
</g>
<!-- public.galerie_foto -->
<g id="node3" class="node">
<title>public.galerie_foto</title>
<polygon fill="#efefef" stroke="transparent" points="530,-417.5 530,-452.5 827,-452.5 827,-417.5 530,-417.5"/>
<polygon fill="none" stroke="#000000" points="530,-417.5 530,-452.5 827,-452.5 827,-417.5 530,-417.5"/>
<text text-anchor="start" x="541.6972" y="-430.3" font-family="Arial Bold" font-size="18.00" fill="#000000">public.galerie_foto</text>
<text text-anchor="start" x="687.7348" y="-430.3" font-family="Arial" font-size="14.00" fill="#000000">    </text>
<text text-anchor="start" x="721.9396" y="-430.3" font-family="Arial" font-size="14.00" fill="#666666">[BASE TABLE]</text>
<polygon fill="none" stroke="#000000" points="530,-387.5 530,-417.5 827,-417.5 827,-387.5 530,-387.5"/>
<text text-anchor="start" x="537" y="-398.9" font-family="Arial" font-size="14.00" fill="#000000">gf_id    </text>
<text text-anchor="start" x="601.5498" y="-398.9" font-family="Arial" font-size="14.00" fill="#666666">[bigint]</text>
<polygon fill="none" stroke="#000000" points="530,-357.5 530,-387.5 827,-387.5 827,-357.5 530,-357.5"/>
<text text-anchor="start" x="537" y="-368.9" font-family="Arial" font-size="14.00" fill="#000000">gf_id_rodic    </text>
<text text-anchor="start" x="639.6648" y="-368.9" font-family="Arial" font-size="14.00" fill="#666666">[bigint]</text>
<polygon fill="none" stroke="#000000" points="530,-327.5 530,-357.5 827,-357.5 827,-327.5 530,-327.5"/>
<text text-anchor="start" x="537" y="-338.9" font-family="Arial" font-size="14.00" fill="#000000">gf_name    </text>
<text text-anchor="start" x="625.669" y="-338.9" font-family="Arial" font-size="14.00" fill="#666666">[text]</text>
<polygon fill="none" stroke="#000000" points="530,-297.5 530,-327.5 827,-327.5 827,-297.5 530,-297.5"/>
<text text-anchor="start" x="537" y="-308.9" font-family="Arial" font-size="14.00" fill="#000000">gf_path    </text>
<text text-anchor="start" x="617.899" y="-308.9" font-family="Arial" font-size="14.00" fill="#666666">[text]</text>
<polygon fill="none" stroke="#000000" points="530,-267.5 530,-297.5 827,-297.5 827,-267.5 530,-267.5"/>
<text text-anchor="start" x="537" y="-278.9" font-family="Arial" font-size="14.00" fill="#000000">gf_kdo    </text>
<text text-anchor="start" x="613.2258" y="-278.9" font-family="Arial" font-size="14.00" fill="#666666">[bigint]</text>
<polygon fill="none" stroke="#000000" points="530,-237.5 530,-267.5 827,-267.5 827,-237.5 530,-237.5"/>
<text text-anchor="start" x="537" y="-248.9" font-family="Arial" font-size="14.00" fill="#000000">updated_at    </text>
<text text-anchor="start" x="641.2468" y="-248.9" font-family="Arial" font-size="14.00" fill="#666666">[timestamp with time zone]</text>
<polygon fill="none" stroke="#000000" points="530,-207.5 530,-237.5 827,-237.5 827,-207.5 530,-207.5"/>
<text text-anchor="start" x="537" y="-218.9" font-family="Arial" font-size="14.00" fill="#000000">id    </text>
<text text-anchor="start" x="582.094" y="-218.9" font-family="Arial" font-size="14.00" fill="#666666">[bigint]</text>
<polygon fill="none" stroke="#000000" points="530,-177.5 530,-207.5 827,-207.5 827,-177.5 530,-177.5"/>
<text text-anchor="start" x="537" y="-188.9" font-family="Arial" font-size="14.00" fill="#000000">tenant_id    </text>
<text text-anchor="start" x="628.7882" y="-188.9" font-family="Arial" font-size="14.00" fill="#666666">[bigint]</text>
<polygon fill="none" stroke="#000000" points="530,-147.5 530,-177.5 827,-177.5 827,-147.5 530,-147.5"/>
<text text-anchor="start" x="537" y="-158.9" font-family="Arial" font-size="14.00" fill="#000000">created_at    </text>
<text text-anchor="start" x="637.3422" y="-158.9" font-family="Arial" font-size="14.00" fill="#666666">[timestamp with time zone]</text>
<polygon fill="none" stroke="#000000" points="530,-117.5 530,-147.5 827,-147.5 827,-117.5 530,-117.5"/>
<text text-anchor="start" x="536.5491" y="-128.9" font-family="Arial" font-size="14.00" fill="#000000">gf_timestamp    </text>
<text text-anchor="start" x="654.7665" y="-128.9" font-family="Arial" font-size="14.00" fill="#666666">[timestamp with time zone]</text>
</g>
<!-- public.aktuality&#45;&gt;public.galerie_foto -->
<g id="edge2" class="edge">
<title>public.aktuality:at_foto_main&#45;&gt;public.galerie_foto:gf_id</title>
<path fill="none" stroke="#000000" d="M519.8724,-877.064C412.8209,-867.5006 463.4751,-702.882 530,-607 610.3301,-491.2207 746.6699,-611.7793 827,-496 850.6887,-461.8575 868.5556,-402.5 827,-402.5"/>
<polygon fill="#000000" stroke="#000000" points="520.0093,-877.0698 529.8064,-881.9958 525.0046,-877.2849 530,-877.5 530,-877.5 530,-877.5 525.0046,-877.2849 530.1936,-873.0042 520.0093,-877.0698 520.0093,-877.0698"/>
<text text-anchor="start" x="6.9325" y="-887.5" font-family="Arial" font-size="10.00" fill="#000000">FOREIGN KEY (at_foto_main) REFERENCES galerie_foto(gf_id) ON UPDATE RESTRICT ON DELETE RESTRICT</text>
</g>
<!-- public.tenant -->
<g id="node4" class="node">
<title>public.tenant</title>
<polygon fill="#efefef" stroke="transparent" points="931,-387.5 931,-422.5 1174,-422.5 1174,-387.5 931,-387.5"/>
<polygon fill="none" stroke="#000000" points="931,-387.5 931,-422.5 1174,-422.5 1174,-387.5 931,-387.5"/>
<text text-anchor="start" x="937.6968" y="-400.3" font-family="Arial Bold" font-size="18.00" fill="#000000">public.tenant</text>
<text text-anchor="start" x="1039.7352" y="-400.3" font-family="Arial" font-size="14.00" fill="#000000">    </text>
<text text-anchor="start" x="1073.94" y="-400.3" font-family="Arial" font-size="14.00" fill="#666666">[BASE TABLE]</text>
<polygon fill="none" stroke="#000000" points="931,-357.5 931,-387.5 1174,-387.5 1174,-357.5 931,-357.5"/>
<text text-anchor="start" x="938" y="-368.9" font-family="Arial" font-size="14.00" fill="#000000">id    </text>
<text text-anchor="start" x="983.094" y="-368.9" font-family="Arial" font-size="14.00" fill="#666666">[bigint]</text>
<polygon fill="none" stroke="#000000" points="931,-327.5 931,-357.5 1174,-357.5 1174,-327.5 931,-327.5"/>
<text text-anchor="start" x="938" y="-338.9" font-family="Arial" font-size="14.00" fill="#000000">name    </text>
<text text-anchor="start" x="1007.2132" y="-338.9" font-family="Arial" font-size="14.00" fill="#666666">[text]</text>
<polygon fill="none" stroke="#000000" points="931,-297.5 931,-327.5 1174,-327.5 1174,-297.5 931,-297.5"/>
<text text-anchor="start" x="938" y="-308.9" font-family="Arial" font-size="14.00" fill="#000000">origins    </text>
<text text-anchor="start" x="1013.4264" y="-308.9" font-family="Arial" font-size="14.00" fill="#666666">[text[]]</text>
<polygon fill="none" stroke="#000000" points="931,-267.5 931,-297.5 1174,-297.5 1174,-267.5 931,-267.5"/>
<text text-anchor="start" x="938" y="-278.9" font-family="Arial" font-size="14.00" fill="#000000">cz_ico    </text>
<text text-anchor="start" x="1011.8766" y="-278.9" font-family="Arial" font-size="14.00" fill="#666666">[text]</text>
<polygon fill="none" stroke="#000000" points="931,-237.5 931,-267.5 1174,-267.5 1174,-237.5 931,-237.5"/>
<text text-anchor="start" x="938" y="-248.9" font-family="Arial" font-size="14.00" fill="#000000">cz_dic    </text>
<text text-anchor="start" x="1011.8766" y="-248.9" font-family="Arial" font-size="14.00" fill="#666666">[text]</text>
<polygon fill="none" stroke="#000000" points="931,-207.5 931,-237.5 1174,-237.5 1174,-207.5 931,-207.5"/>
<text text-anchor="start" x="938" y="-218.9" font-family="Arial" font-size="14.00" fill="#000000">address    </text>
<text text-anchor="start" x="1021.9958" y="-218.9" font-family="Arial" font-size="14.00" fill="#666666">[address_domain]</text>
<polygon fill="none" stroke="#000000" points="931,-177.5 931,-207.5 1174,-207.5 1174,-177.5 931,-177.5"/>
<text text-anchor="start" x="938" y="-188.9" font-family="Arial" font-size="14.00" fill="#000000">description    </text>
<text text-anchor="start" x="1039.8822" y="-188.9" font-family="Arial" font-size="14.00" fill="#666666">[text]</text>
<polygon fill="none" stroke="#000000" points="931,-147.5 931,-177.5 1174,-177.5 1174,-147.5 931,-147.5"/>
<text text-anchor="start" x="938" y="-158.9" font-family="Arial" font-size="14.00" fill="#000000">bank_account    </text>
<text text-anchor="start" x="1059.3562" y="-158.9" font-family="Arial" font-size="14.00" fill="#666666">[text]</text>
</g>
<!-- public.aktuality&#45;&gt;public.tenant -->
<g id="edge3" class="edge">
<title>public.aktuality:tenant_id&#45;&gt;public.tenant:id</title>
<path fill="none" stroke="#000000" d="M838.0989,-755.6101C910.7572,-726.5656 846.0681,-372.5 931,-372.5"/>
<polygon fill="#000000" stroke="#000000" points="837.8294,-755.6605 827.1722,-753.0768 832.9147,-756.5802 828,-757.5 828,-757.5 828,-757.5 832.9147,-756.5802 828.8278,-761.9232 837.8294,-755.6605 837.8294,-755.6605"/>
<text text-anchor="start" x="835.2065" y="-767.5" font-family="Arial" font-size="10.00" fill="#000000">FOREIGN KEY (tenant_id) REFERENCES tenant(id) ON DELETE CASCADE</text>
</g>
</g>
</svg>
