<?xml version="1.0" encoding="UTF-8" standalone="no"?>
<!DOCTYPE svg PUBLIC "-//W3C//DTD SVG 1.1//EN"
 "http://www.w3.org/Graphics/SVG/1.1/DTD/svg11.dtd">
<!-- Generated by graphviz version 2.40.1 (20161225.0304)
 -->
<!-- Title: public.galerie_dir Pages: 1 -->
<svg width="1034pt" height="1229pt"
 viewBox="0.00 0.00 1034.00 1229.00" xmlns="http://www.w3.org/2000/svg" xmlns:xlink="http://www.w3.org/1999/xlink">
<g id="graph0" class="graph" transform="scale(1 1) rotate(0) translate(4 1225)">
<title>public.galerie_dir</title>
<polygon fill="#ffffff" stroke="transparent" points="-4,4 -4,-1225 1030,-1225 1030,4 -4,4"/>
<!-- public.galerie_dir -->
<g id="node1" class="node">
<title>public.galerie_dir</title>
<polygon fill="#efefef" stroke="transparent" points="528,-682.5 528,-717.5 805,-717.5 805,-682.5 528,-682.5"/>
<polygon fill="none" stroke="#000000" points="528,-682.5 528,-717.5 805,-717.5 805,-682.5 528,-682.5"/>
<text text-anchor="start" x="534.7093" y="-695.3" font-family="Arial Bold" font-size="18.00" fill="#000000">public.galerie_dir</text>
<text text-anchor="start" x="670.7227" y="-695.3" font-family="Arial" font-size="14.00" fill="#000000">    </text>
<text text-anchor="start" x="704.9275" y="-695.3" font-family="Arial" font-size="14.00" fill="#666666">[BASE TABLE]</text>
<polygon fill="none" stroke="#000000" points="528,-652.5 528,-682.5 805,-682.5 805,-652.5 528,-652.5"/>
<text text-anchor="start" x="535" y="-663.9" font-family="Arial" font-size="14.00" fill="#000000">gd_id </text>
<text text-anchor="start" x="573.1276" y="-663.9" font-family="Arial" font-size="14.00" fill="#666666">[bigint]</text>
<polygon fill="none" stroke="#000000" points="528,-622.5 528,-652.5 805,-652.5 805,-622.5 528,-622.5"/>
<text text-anchor="start" x="535" y="-633.9" font-family="Arial" font-size="14.00" fill="#000000">gd_id_rodic </text>
<text text-anchor="start" x="611.2426" y="-633.9" font-family="Arial" font-size="14.00" fill="#666666">[bigint]</text>
<polygon fill="none" stroke="#000000" points="528,-592.5 528,-622.5 805,-622.5 805,-592.5 528,-592.5"/>
<text text-anchor="start" x="535" y="-603.9" font-family="Arial" font-size="14.00" fill="#000000">gd_name </text>
<text text-anchor="start" x="597.2468" y="-603.9" font-family="Arial" font-size="14.00" fill="#666666">[text]</text>
<polygon fill="none" stroke="#000000" points="528,-562.5 528,-592.5 805,-592.5 805,-562.5 528,-562.5"/>
<text text-anchor="start" x="535" y="-573.9" font-family="Arial" font-size="14.00" fill="#000000">gd_level </text>
<text text-anchor="start" x="591.0168" y="-573.9" font-family="Arial" font-size="14.00" fill="#666666">[smallint]</text>
<polygon fill="none" stroke="#000000" points="528,-532.5 528,-562.5 805,-562.5 805,-532.5 528,-532.5"/>
<text text-anchor="start" x="535" y="-543.9" font-family="Arial" font-size="14.00" fill="#000000">gd_path </text>
<text text-anchor="start" x="589.4768" y="-543.9" font-family="Arial" font-size="14.00" fill="#666666">[text]</text>
<polygon fill="none" stroke="#000000" points="528,-502.5 528,-532.5 805,-532.5 805,-502.5 528,-502.5"/>
<text text-anchor="start" x="535" y="-513.9" font-family="Arial" font-size="14.00" fill="#000000">gd_hidden </text>
<text text-anchor="start" x="604.258" y="-513.9" font-family="Arial" font-size="14.00" fill="#666666">[boolean]</text>
<polygon fill="none" stroke="#000000" points="528,-472.5 528,-502.5 805,-502.5 805,-472.5 528,-472.5"/>
<text text-anchor="start" x="535" y="-483.9" font-family="Arial" font-size="14.00" fill="#000000">id </text>
<text text-anchor="start" x="549.7798" y="-483.9" font-family="Arial" font-size="14.00" fill="#666666">[bigint]</text>
<polygon fill="none" stroke="#000000" points="528,-442.5 528,-472.5 805,-472.5 805,-442.5 528,-442.5"/>
<text text-anchor="start" x="535" y="-453.9" font-family="Arial" font-size="14.00" fill="#000000">tenant_id </text>
<text text-anchor="start" x="596.474" y="-453.9" font-family="Arial" font-size="14.00" fill="#666666">[bigint]</text>
<polygon fill="none" stroke="#000000" stroke-width="3" points="526,-441.5 526,-719.5 806,-719.5 806,-441.5 526,-441.5"/>
</g>
<!-- public.tenant -->
<g id="node3" class="node">
<title>public.tenant</title>
<polygon fill="#efefef" stroke="transparent" points="545,-282.5 545,-317.5 788,-317.5 788,-282.5 545,-282.5"/>
<polygon fill="none" stroke="#000000" points="545,-282.5 545,-317.5 788,-317.5 788,-282.5 545,-282.5"/>
<text text-anchor="start" x="551.6968" y="-295.3" font-family="Arial Bold" font-size="18.00" fill="#000000">public.tenant</text>
<text text-anchor="start" x="653.7352" y="-295.3" font-family="Arial" font-size="14.00" fill="#000000">    </text>
<text text-anchor="start" x="687.94" y="-295.3" font-family="Arial" font-size="14.00" fill="#666666">[BASE TABLE]</text>
<polygon fill="none" stroke="#000000" points="545,-252.5 545,-282.5 788,-282.5 788,-252.5 545,-252.5"/>
<text text-anchor="start" x="552" y="-263.9" font-family="Arial" font-size="14.00" fill="#000000">id    </text>
<text text-anchor="start" x="597.094" y="-263.9" font-family="Arial" font-size="14.00" fill="#666666">[bigint]</text>
<polygon fill="none" stroke="#000000" points="545,-222.5 545,-252.5 788,-252.5 788,-222.5 545,-222.5"/>
<text text-anchor="start" x="552" y="-233.9" font-family="Arial" font-size="14.00" fill="#000000">name    </text>
<text text-anchor="start" x="621.2132" y="-233.9" font-family="Arial" font-size="14.00" fill="#666666">[text]</text>
<polygon fill="none" stroke="#000000" points="545,-192.5 545,-222.5 788,-222.5 788,-192.5 545,-192.5"/>
<text text-anchor="start" x="552" y="-203.9" font-family="Arial" font-size="14.00" fill="#000000">origins    </text>
<text text-anchor="start" x="627.4264" y="-203.9" font-family="Arial" font-size="14.00" fill="#666666">[text[]]</text>
<polygon fill="none" stroke="#000000" points="545,-162.5 545,-192.5 788,-192.5 788,-162.5 545,-162.5"/>
<text text-anchor="start" x="552" y="-173.9" font-family="Arial" font-size="14.00" fill="#000000">cz_ico    </text>
<text text-anchor="start" x="625.8766" y="-173.9" font-family="Arial" font-size="14.00" fill="#666666">[text]</text>
<polygon fill="none" stroke="#000000" points="545,-132.5 545,-162.5 788,-162.5 788,-132.5 545,-132.5"/>
<text text-anchor="start" x="552" y="-143.9" font-family="Arial" font-size="14.00" fill="#000000">cz_dic    </text>
<text text-anchor="start" x="625.8766" y="-143.9" font-family="Arial" font-size="14.00" fill="#666666">[text]</text>
<polygon fill="none" stroke="#000000" points="545,-102.5 545,-132.5 788,-132.5 788,-102.5 545,-102.5"/>
<text text-anchor="start" x="552" y="-113.9" font-family="Arial" font-size="14.00" fill="#000000">address    </text>
<text text-anchor="start" x="635.9958" y="-113.9" font-family="Arial" font-size="14.00" fill="#666666">[address_domain]</text>
<polygon fill="none" stroke="#000000" points="545,-72.5 545,-102.5 788,-102.5 788,-72.5 545,-72.5"/>
<text text-anchor="start" x="552" y="-83.9" font-family="Arial" font-size="14.00" fill="#000000">description    </text>
<text text-anchor="start" x="653.8822" y="-83.9" font-family="Arial" font-size="14.00" fill="#666666">[text]</text>
<polygon fill="none" stroke="#000000" points="545,-42.5 545,-72.5 788,-72.5 788,-42.5 545,-42.5"/>
<text text-anchor="start" x="552" y="-53.9" font-family="Arial" font-size="14.00" fill="#000000">bank_account    </text>
<text text-anchor="start" x="673.3562" y="-53.9" font-family="Arial" font-size="14.00" fill="#666666">[text]</text>
</g>
<!-- public.galerie_dir&#45;&gt;public.tenant -->
<g id="edge2" class="edge">
<title>public.galerie_dir:tenant_id&#45;&gt;public.tenant:id</title>
<path fill="none" stroke="#000000" d="M666.1493,-432.4067C656.8563,-381.6441 574.0006,-415.2497 545,-361 525.409,-324.3523 503.4444,-267.5 545,-267.5"/>
<polygon fill="#000000" stroke="#000000" points="666.16,-432.5353 662.5159,-442.878 666.58,-437.5177 667,-442.5 667,-442.5 667,-442.5 666.58,-437.5177 671.4841,-442.122 666.16,-432.5353 666.16,-432.5353"/>
<text text-anchor="start" x="674.2065" y="-452.5" font-family="Arial" font-size="10.00" fill="#000000">FOREIGN KEY (tenant_id) REFERENCES tenant(id) ON DELETE CASCADE</text>
</g>
<!-- public.galerie_foto -->
<g id="node2" class="node">
<title>public.galerie_foto</title>
<polygon fill="#efefef" stroke="transparent" points="518,-1142.5 518,-1177.5 815,-1177.5 815,-1142.5 518,-1142.5"/>
<polygon fill="none" stroke="#000000" points="518,-1142.5 518,-1177.5 815,-1177.5 815,-1142.5 518,-1142.5"/>
<text text-anchor="start" x="529.6972" y="-1155.3" font-family="Arial Bold" font-size="18.00" fill="#000000">public.galerie_foto</text>
<text text-anchor="start" x="675.7348" y="-1155.3" font-family="Arial" font-size="14.00" fill="#000000">    </text>
<text text-anchor="start" x="709.9396" y="-1155.3" font-family="Arial" font-size="14.00" fill="#666666">[BASE TABLE]</text>
<polygon fill="none" stroke="#000000" points="518,-1112.5 518,-1142.5 815,-1142.5 815,-1112.5 518,-1112.5"/>
<text text-anchor="start" x="525" y="-1123.9" font-family="Arial" font-size="14.00" fill="#000000">gf_id    </text>
<text text-anchor="start" x="589.5498" y="-1123.9" font-family="Arial" font-size="14.00" fill="#666666">[bigint]</text>
<polygon fill="none" stroke="#000000" points="518,-1082.5 518,-1112.5 815,-1112.5 815,-1082.5 518,-1082.5"/>
<text text-anchor="start" x="525" y="-1093.9" font-family="Arial" font-size="14.00" fill="#000000">gf_id_rodic    </text>
<text text-anchor="start" x="627.6648" y="-1093.9" font-family="Arial" font-size="14.00" fill="#666666">[bigint]</text>
<polygon fill="none" stroke="#000000" points="518,-1052.5 518,-1082.5 815,-1082.5 815,-1052.5 518,-1052.5"/>
<text text-anchor="start" x="525" y="-1063.9" font-family="Arial" font-size="14.00" fill="#000000">gf_name    </text>
<text text-anchor="start" x="613.669" y="-1063.9" font-family="Arial" font-size="14.00" fill="#666666">[text]</text>
<polygon fill="none" stroke="#000000" points="518,-1022.5 518,-1052.5 815,-1052.5 815,-1022.5 518,-1022.5"/>
<text text-anchor="start" x="525" y="-1033.9" font-family="Arial" font-size="14.00" fill="#000000">gf_path    </text>
<text text-anchor="start" x="605.899" y="-1033.9" font-family="Arial" font-size="14.00" fill="#666666">[text]</text>
<polygon fill="none" stroke="#000000" points="518,-992.5 518,-1022.5 815,-1022.5 815,-992.5 518,-992.5"/>
<text text-anchor="start" x="525" y="-1003.9" font-family="Arial" font-size="14.00" fill="#000000">gf_kdo    </text>
<text text-anchor="start" x="601.2258" y="-1003.9" font-family="Arial" font-size="14.00" fill="#666666">[bigint]</text>
<polygon fill="none" stroke="#000000" points="518,-962.5 518,-992.5 815,-992.5 815,-962.5 518,-962.5"/>
<text text-anchor="start" x="525" y="-973.9" font-family="Arial" font-size="14.00" fill="#000000">updated_at    </text>
<text text-anchor="start" x="629.2468" y="-973.9" font-family="Arial" font-size="14.00" fill="#666666">[timestamp with time zone]</text>
<polygon fill="none" stroke="#000000" points="518,-932.5 518,-962.5 815,-962.5 815,-932.5 518,-932.5"/>
<text text-anchor="start" x="525" y="-943.9" font-family="Arial" font-size="14.00" fill="#000000">id    </text>
<text text-anchor="start" x="570.094" y="-943.9" font-family="Arial" font-size="14.00" fill="#666666">[bigint]</text>
<polygon fill="none" stroke="#000000" points="518,-902.5 518,-932.5 815,-932.5 815,-902.5 518,-902.5"/>
<text text-anchor="start" x="525" y="-913.9" font-family="Arial" font-size="14.00" fill="#000000">tenant_id    </text>
<text text-anchor="start" x="616.7882" y="-913.9" font-family="Arial" font-size="14.00" fill="#666666">[bigint]</text>
<polygon fill="none" stroke="#000000" points="518,-872.5 518,-902.5 815,-902.5 815,-872.5 518,-872.5"/>
<text text-anchor="start" x="525" y="-883.9" font-family="Arial" font-size="14.00" fill="#000000">created_at    </text>
<text text-anchor="start" x="625.3422" y="-883.9" font-family="Arial" font-size="14.00" fill="#666666">[timestamp with time zone]</text>
<polygon fill="none" stroke="#000000" points="518,-842.5 518,-872.5 815,-872.5 815,-842.5 518,-842.5"/>
<text text-anchor="start" x="524.5491" y="-853.9" font-family="Arial" font-size="14.00" fill="#000000">gf_timestamp    </text>
<text text-anchor="start" x="642.7665" y="-853.9" font-family="Arial" font-size="14.00" fill="#666666">[timestamp with time zone]</text>
</g>
<!-- public.galerie_foto&#45;&gt;public.galerie_dir -->
<g id="edge1" class="edge">
<title>public.galerie_foto:gf_id_rodic&#45;&gt;public.galerie_dir:gd_id</title>
<path fill="none" stroke="#000000" d="M508.0517,-1095.8564C423.253,-1066.9872 435.8722,-667.5 528,-667.5"/>
<polygon fill="#000000" stroke="#000000" points="508.1338,-1095.8698 517.2664,-1101.9398 513.0669,-1096.6849 518,-1097.5 518,-1097.5 518,-1097.5 513.0669,-1096.6849 518.7336,-1093.0602 508.1338,-1095.8698 508.1338,-1095.8698"/>
<text text-anchor="start" x="6.776" y="-1107.5" font-family="Arial" font-size="10.00" fill="#000000">FOREIGN KEY (gf_id_rodic) REFERENCES galerie_dir(gd_id) ON UPDATE RESTRICT ON DELETE RESTRICT</text>
</g>
</g>
</svg>
