<?xml version="1.0" encoding="UTF-8" standalone="no"?>
<!DOCTYPE svg PUBLIC "-//W3C//DTD SVG 1.1//EN"
 "http://www.w3.org/Graphics/SVG/1.1/DTD/svg11.dtd">
<!-- Generated by graphviz version 2.40.1 (20161225.0304)
 -->
<!-- Title: public.payment Pages: 1 -->
<svg width="2094pt" height="1469pt"
 viewBox="0.00 0.00 2093.50 1469.00" xmlns="http://www.w3.org/2000/svg" xmlns:xlink="http://www.w3.org/1999/xlink">
<g id="graph0" class="graph" transform="scale(1 1) rotate(0) translate(4 1465)">
<title>public.payment</title>
<polygon fill="#ffffff" stroke="transparent" points="-4,4 -4,-1465 2089.5,-1465 2089.5,4 -4,4"/>
<!-- public.payment -->
<g id="node1" class="node">
<title>public.payment</title>
<polygon fill="#efefef" stroke="transparent" points="879.5,-952.5 879.5,-987.5 1141.5,-987.5 1141.5,-952.5 879.5,-952.5"/>
<polygon fill="none" stroke="#000000" points="879.5,-952.5 879.5,-987.5 1141.5,-987.5 1141.5,-952.5 879.5,-952.5"/>
<text text-anchor="start" x="886.2018" y="-965.3" font-family="Arial Bold" font-size="18.00" fill="#000000">public.payment</text>
<text text-anchor="start" x="1007.2302" y="-965.3" font-family="Arial" font-size="14.00" fill="#000000">    </text>
<text text-anchor="start" x="1041.435" y="-965.3" font-family="Arial" font-size="14.00" fill="#666666">[BASE TABLE]</text>
<polygon fill="none" stroke="#000000" points="879.5,-922.5 879.5,-952.5 1141.5,-952.5 1141.5,-922.5 879.5,-922.5"/>
<text text-anchor="start" x="886.5" y="-933.9" font-family="Arial" font-size="14.00" fill="#000000">id </text>
<text text-anchor="start" x="901.2798" y="-933.9" font-family="Arial" font-size="14.00" fill="#666666">[bigint]</text>
<polygon fill="none" stroke="#000000" points="879.5,-892.5 879.5,-922.5 1141.5,-922.5 1141.5,-892.5 879.5,-892.5"/>
<text text-anchor="start" x="886.5" y="-903.9" font-family="Arial" font-size="14.00" fill="#000000">tenant_id </text>
<text text-anchor="start" x="947.974" y="-903.9" font-family="Arial" font-size="14.00" fill="#666666">[bigint]</text>
<polygon fill="none" stroke="#000000" points="879.5,-862.5 879.5,-892.5 1141.5,-892.5 1141.5,-862.5 879.5,-862.5"/>
<text text-anchor="start" x="886.5" y="-873.9" font-family="Arial" font-size="14.00" fill="#000000">accounting_period_id </text>
<text text-anchor="start" x="1023.4354" y="-873.9" font-family="Arial" font-size="14.00" fill="#666666">[bigint]</text>
<polygon fill="none" stroke="#000000" points="879.5,-832.5 879.5,-862.5 1141.5,-862.5 1141.5,-832.5 879.5,-832.5"/>
<text text-anchor="start" x="886.5" y="-843.9" font-family="Arial" font-size="14.00" fill="#000000">cohort_subscription_id </text>
<text text-anchor="start" x="1030.4214" y="-843.9" font-family="Arial" font-size="14.00" fill="#666666">[bigint]</text>
<polygon fill="none" stroke="#000000" points="879.5,-802.5 879.5,-832.5 1141.5,-832.5 1141.5,-802.5 879.5,-802.5"/>
<text text-anchor="start" x="886.5" y="-813.9" font-family="Arial" font-size="14.00" fill="#000000">event_registration_id </text>
<text text-anchor="start" x="1020.312" y="-813.9" font-family="Arial" font-size="14.00" fill="#666666">[bigint]</text>
<polygon fill="none" stroke="#000000" points="879.5,-772.5 879.5,-802.5 1141.5,-802.5 1141.5,-772.5 879.5,-772.5"/>
<text text-anchor="start" x="886.5" y="-783.9" font-family="Arial" font-size="14.00" fill="#000000">event_instance_id </text>
<text text-anchor="start" x="1003.211" y="-783.9" font-family="Arial" font-size="14.00" fill="#666666">[bigint]</text>
<polygon fill="none" stroke="#000000" points="879.5,-742.5 879.5,-772.5 1141.5,-772.5 1141.5,-742.5 879.5,-742.5"/>
<text text-anchor="start" x="886.5" y="-753.9" font-family="Arial" font-size="14.00" fill="#000000">status </text>
<text text-anchor="start" x="927.737" y="-753.9" font-family="Arial" font-size="14.00" fill="#666666">[payment_status]</text>
<polygon fill="none" stroke="#000000" points="879.5,-712.5 879.5,-742.5 1141.5,-742.5 1141.5,-712.5 879.5,-712.5"/>
<text text-anchor="start" x="886.5" y="-723.9" font-family="Arial" font-size="14.00" fill="#000000">variable_symbol </text>
<text text-anchor="start" x="991.5098" y="-723.9" font-family="Arial" font-size="14.00" fill="#666666">[text]</text>
<polygon fill="none" stroke="#000000" points="879.5,-682.5 879.5,-712.5 1141.5,-712.5 1141.5,-682.5 879.5,-682.5"/>
<text text-anchor="start" x="886.5" y="-693.9" font-family="Arial" font-size="14.00" fill="#000000">specific_symbol </text>
<text text-anchor="start" x="989.1746" y="-693.9" font-family="Arial" font-size="14.00" fill="#666666">[text]</text>
<polygon fill="none" stroke="#000000" points="879.5,-652.5 879.5,-682.5 1141.5,-682.5 1141.5,-652.5 879.5,-652.5"/>
<text text-anchor="start" x="886.5" y="-663.9" font-family="Arial" font-size="14.00" fill="#000000">is_auto_credit_allowed </text>
<text text-anchor="start" x="1032.7566" y="-663.9" font-family="Arial" font-size="14.00" fill="#666666">[boolean]</text>
<polygon fill="none" stroke="#000000" points="879.5,-622.5 879.5,-652.5 1141.5,-652.5 1141.5,-622.5 879.5,-622.5"/>
<text text-anchor="start" x="886.5" y="-633.9" font-family="Arial" font-size="14.00" fill="#000000">tags </text>
<text text-anchor="start" x="916.8464" y="-633.9" font-family="Arial" font-size="14.00" fill="#666666">[text[]]</text>
<polygon fill="none" stroke="#000000" points="879.5,-592.5 879.5,-622.5 1141.5,-622.5 1141.5,-592.5 879.5,-592.5"/>
<text text-anchor="start" x="886.5" y="-603.9" font-family="Arial" font-size="14.00" fill="#000000">due_at </text>
<text text-anchor="start" x="933.1942" y="-603.9" font-family="Arial" font-size="14.00" fill="#666666">[timestamp with time zone]</text>
<polygon fill="none" stroke="#000000" points="879.5,-562.5 879.5,-592.5 1141.5,-592.5 1141.5,-562.5 879.5,-562.5"/>
<text text-anchor="start" x="886.5" y="-573.9" font-family="Arial" font-size="14.00" fill="#000000">paid_at </text>
<text text-anchor="start" x="936.3008" y="-573.9" font-family="Arial" font-size="14.00" fill="#666666">[timestamp with time zone]</text>
<polygon fill="none" stroke="#000000" points="879.5,-532.5 879.5,-562.5 1141.5,-562.5 1141.5,-532.5 879.5,-532.5"/>
<text text-anchor="start" x="886.5" y="-543.9" font-family="Arial" font-size="14.00" fill="#000000">created_at </text>
<text text-anchor="start" x="956.528" y="-543.9" font-family="Arial" font-size="14.00" fill="#666666">[timestamp with time zone]</text>
<polygon fill="none" stroke="#000000" points="879.5,-502.5 879.5,-532.5 1141.5,-532.5 1141.5,-502.5 879.5,-502.5"/>
<text text-anchor="start" x="886.5" y="-513.9" font-family="Arial" font-size="14.00" fill="#000000">updated_at </text>
<text text-anchor="start" x="960.4326" y="-513.9" font-family="Arial" font-size="14.00" fill="#666666">[timestamp with time zone]</text>
<polygon fill="none" stroke="#000000" stroke-width="3" points="878,-501.5 878,-989.5 1143,-989.5 1143,-501.5 878,-501.5"/>
</g>
<!-- public.tenant -->
<g id="node5" class="node">
<title>public.tenant</title>
<polygon fill="#efefef" stroke="transparent" points="43.5,-312.5 43.5,-347.5 286.5,-347.5 286.5,-312.5 43.5,-312.5"/>
<polygon fill="none" stroke="#000000" points="43.5,-312.5 43.5,-347.5 286.5,-347.5 286.5,-312.5 43.5,-312.5"/>
<text text-anchor="start" x="50.1968" y="-325.3" font-family="Arial Bold" font-size="18.00" fill="#000000">public.tenant</text>
<text text-anchor="start" x="152.2352" y="-325.3" font-family="Arial" font-size="14.00" fill="#000000">    </text>
<text text-anchor="start" x="186.44" y="-325.3" font-family="Arial" font-size="14.00" fill="#666666">[BASE TABLE]</text>
<polygon fill="none" stroke="#000000" points="43.5,-282.5 43.5,-312.5 286.5,-312.5 286.5,-282.5 43.5,-282.5"/>
<text text-anchor="start" x="50.5" y="-293.9" font-family="Arial" font-size="14.00" fill="#000000">id    </text>
<text text-anchor="start" x="95.594" y="-293.9" font-family="Arial" font-size="14.00" fill="#666666">[bigint]</text>
<polygon fill="none" stroke="#000000" points="43.5,-252.5 43.5,-282.5 286.5,-282.5 286.5,-252.5 43.5,-252.5"/>
<text text-anchor="start" x="50.5" y="-263.9" font-family="Arial" font-size="14.00" fill="#000000">name    </text>
<text text-anchor="start" x="119.7132" y="-263.9" font-family="Arial" font-size="14.00" fill="#666666">[text]</text>
<polygon fill="none" stroke="#000000" points="43.5,-222.5 43.5,-252.5 286.5,-252.5 286.5,-222.5 43.5,-222.5"/>
<text text-anchor="start" x="50.5" y="-233.9" font-family="Arial" font-size="14.00" fill="#000000">origins    </text>
<text text-anchor="start" x="125.9264" y="-233.9" font-family="Arial" font-size="14.00" fill="#666666">[text[]]</text>
<polygon fill="none" stroke="#000000" points="43.5,-192.5 43.5,-222.5 286.5,-222.5 286.5,-192.5 43.5,-192.5"/>
<text text-anchor="start" x="50.5" y="-203.9" font-family="Arial" font-size="14.00" fill="#000000">cz_ico    </text>
<text text-anchor="start" x="124.3766" y="-203.9" font-family="Arial" font-size="14.00" fill="#666666">[text]</text>
<polygon fill="none" stroke="#000000" points="43.5,-162.5 43.5,-192.5 286.5,-192.5 286.5,-162.5 43.5,-162.5"/>
<text text-anchor="start" x="50.5" y="-173.9" font-family="Arial" font-size="14.00" fill="#000000">cz_dic    </text>
<text text-anchor="start" x="124.3766" y="-173.9" font-family="Arial" font-size="14.00" fill="#666666">[text]</text>
<polygon fill="none" stroke="#000000" points="43.5,-132.5 43.5,-162.5 286.5,-162.5 286.5,-132.5 43.5,-132.5"/>
<text text-anchor="start" x="50.5" y="-143.9" font-family="Arial" font-size="14.00" fill="#000000">address    </text>
<text text-anchor="start" x="134.4958" y="-143.9" font-family="Arial" font-size="14.00" fill="#666666">[address_domain]</text>
<polygon fill="none" stroke="#000000" points="43.5,-102.5 43.5,-132.5 286.5,-132.5 286.5,-102.5 43.5,-102.5"/>
<text text-anchor="start" x="50.5" y="-113.9" font-family="Arial" font-size="14.00" fill="#000000">description    </text>
<text text-anchor="start" x="152.3822" y="-113.9" font-family="Arial" font-size="14.00" fill="#666666">[text]</text>
<polygon fill="none" stroke="#000000" points="43.5,-72.5 43.5,-102.5 286.5,-102.5 286.5,-72.5 43.5,-72.5"/>
<text text-anchor="start" x="50.5" y="-83.9" font-family="Arial" font-size="14.00" fill="#000000">bank_account    </text>
<text text-anchor="start" x="171.8562" y="-83.9" font-family="Arial" font-size="14.00" fill="#666666">[text]</text>
</g>
<!-- public.payment&#45;&gt;public.tenant -->
<g id="edge4" class="edge">
<title>public.payment:tenant_id&#45;&gt;public.tenant:id</title>
<path fill="none" stroke="#000000" d="M869.18,-907.423C555.468,-902.7037 523.9665,-681.6401 338.5,-421 303.9708,-372.4753 346.056,-297.5 286.5,-297.5"/>
<polygon fill="#000000" stroke="#000000" points="869.5003,-907.4253 879.4664,-911.9999 874.5001,-907.4627 879.5,-907.5 879.5,-907.5 879.5,-907.5 874.5001,-907.4627 879.5336,-903.0001 869.5003,-907.4253 869.5003,-907.4253"/>
<text text-anchor="start" x="415.5955" y="-917.5" font-family="Arial" font-size="10.00" fill="#000000">FOREIGN KEY (tenant_id) REFERENCES tenant(id) ON UPDATE CASCADE ON DELETE CASCADE</text>
</g>
<!-- public.accounting_period -->
<g id="node6" class="node">
<title>public.accounting_period</title>
<polygon fill="#efefef" stroke="transparent" points="390.5,-312.5 390.5,-347.5 730.5,-347.5 730.5,-312.5 390.5,-312.5"/>
<polygon fill="none" stroke="#000000" points="390.5,-312.5 390.5,-347.5 730.5,-347.5 730.5,-312.5 390.5,-312.5"/>
<text text-anchor="start" x="397.1859" y="-325.3" font-family="Arial Bold" font-size="18.00" fill="#000000">public.accounting_period</text>
<text text-anchor="start" x="596.2461" y="-325.3" font-family="Arial" font-size="14.00" fill="#000000">    </text>
<text text-anchor="start" x="630.4509" y="-325.3" font-family="Arial" font-size="14.00" fill="#666666">[BASE TABLE]</text>
<polygon fill="none" stroke="#000000" points="390.5,-282.5 390.5,-312.5 730.5,-312.5 730.5,-282.5 390.5,-282.5"/>
<text text-anchor="start" x="397.5" y="-293.9" font-family="Arial" font-size="14.00" fill="#000000">id    </text>
<text text-anchor="start" x="442.594" y="-293.9" font-family="Arial" font-size="14.00" fill="#666666">[bigint]</text>
<polygon fill="none" stroke="#000000" points="390.5,-252.5 390.5,-282.5 730.5,-282.5 730.5,-252.5 390.5,-252.5"/>
<text text-anchor="start" x="397.5" y="-263.9" font-family="Arial" font-size="14.00" fill="#000000">tenant_id    </text>
<text text-anchor="start" x="489.2882" y="-263.9" font-family="Arial" font-size="14.00" fill="#666666">[bigint]</text>
<polygon fill="none" stroke="#000000" points="390.5,-222.5 390.5,-252.5 730.5,-252.5 730.5,-222.5 390.5,-222.5"/>
<text text-anchor="start" x="397.5" y="-233.9" font-family="Arial" font-size="14.00" fill="#000000">name    </text>
<text text-anchor="start" x="466.7132" y="-233.9" font-family="Arial" font-size="14.00" fill="#666666">[text]</text>
<polygon fill="none" stroke="#000000" points="390.5,-192.5 390.5,-222.5 730.5,-222.5 730.5,-192.5 390.5,-192.5"/>
<text text-anchor="start" x="397.5" y="-203.9" font-family="Arial" font-size="14.00" fill="#000000">since    </text>
<text text-anchor="start" x="464.3766" y="-203.9" font-family="Arial" font-size="14.00" fill="#666666">[timestamp with time zone]</text>
<polygon fill="none" stroke="#000000" points="390.5,-162.5 390.5,-192.5 730.5,-192.5 730.5,-162.5 390.5,-162.5"/>
<text text-anchor="start" x="397.5" y="-173.9" font-family="Arial" font-size="14.00" fill="#000000">until    </text>
<text text-anchor="start" x="457.3738" y="-173.9" font-family="Arial" font-size="14.00" fill="#666666">[timestamp with time zone]</text>
<polygon fill="none" stroke="#000000" points="390.5,-132.5 390.5,-162.5 730.5,-162.5 730.5,-132.5 390.5,-132.5"/>
<text text-anchor="start" x="397.5" y="-143.9" font-family="Arial" font-size="14.00" fill="#000000">range    </text>
<text text-anchor="start" x="467.4958" y="-143.9" font-family="Arial" font-size="14.00" fill="#666666">[tstzrange]</text>
<polygon fill="none" stroke="#000000" points="390.5,-102.5 390.5,-132.5 730.5,-132.5 730.5,-102.5 390.5,-102.5"/>
<text text-anchor="start" x="397.5" y="-113.9" font-family="Arial" font-size="14.00" fill="#000000">created_at    </text>
<text text-anchor="start" x="497.8422" y="-113.9" font-family="Arial" font-size="14.00" fill="#666666">[timestamp with time zone]</text>
<polygon fill="none" stroke="#000000" points="390.5,-72.5 390.5,-102.5 730.5,-102.5 730.5,-72.5 390.5,-72.5"/>
<text text-anchor="start" x="397.5" y="-83.9" font-family="Arial" font-size="14.00" fill="#000000">updated_at    </text>
<text text-anchor="start" x="501.7468" y="-83.9" font-family="Arial" font-size="14.00" fill="#666666">[timestamp with time zone]</text>
</g>
<!-- public.payment&#45;&gt;public.accounting_period -->
<g id="edge5" class="edge">
<title>public.payment:accounting_period_id&#45;&gt;public.accounting_period:id</title>
<path fill="none" stroke="#000000" d="M870.1036,-873.4866C811.2871,-822.2422 793.7881,-297.5 730.5,-297.5"/>
<polygon fill="#000000" stroke="#000000" points="870.3037,-873.572 877.7324,-881.6383 874.9019,-875.536 879.5,-877.5 879.5,-877.5 879.5,-877.5 874.9019,-875.536 881.2676,-873.3617 870.3037,-873.572 870.3037,-873.572"/>
<text text-anchor="start" x="530.0865" y="-887.5" font-family="Arial" font-size="10.00" fill="#000000">FOREIGN KEY (accounting_period_id) REFERENCES accounting_period(id)</text>
</g>
<!-- public.cohort_subscription -->
<g id="node7" class="node">
<title>public.cohort_subscription</title>
<polygon fill="#efefef" stroke="transparent" points="835.5,-342.5 835.5,-377.5 1184.5,-377.5 1184.5,-342.5 835.5,-342.5"/>
<polygon fill="none" stroke="#000000" points="835.5,-342.5 835.5,-377.5 1184.5,-377.5 1184.5,-342.5 835.5,-342.5"/>
<text text-anchor="start" x="842.1949" y="-355.3" font-family="Arial Bold" font-size="18.00" fill="#000000">public.cohort_subscription</text>
<text text-anchor="start" x="1050.2371" y="-355.3" font-family="Arial" font-size="14.00" fill="#000000">    </text>
<text text-anchor="start" x="1084.4419" y="-355.3" font-family="Arial" font-size="14.00" fill="#666666">[BASE TABLE]</text>
<polygon fill="none" stroke="#000000" points="835.5,-312.5 835.5,-342.5 1184.5,-342.5 1184.5,-312.5 835.5,-312.5"/>
<text text-anchor="start" x="842.5" y="-323.9" font-family="Arial" font-size="14.00" fill="#000000">id    </text>
<text text-anchor="start" x="887.594" y="-323.9" font-family="Arial" font-size="14.00" fill="#666666">[bigint]</text>
<polygon fill="none" stroke="#000000" points="835.5,-282.5 835.5,-312.5 1184.5,-312.5 1184.5,-282.5 835.5,-282.5"/>
<text text-anchor="start" x="842.5" y="-293.9" font-family="Arial" font-size="14.00" fill="#000000">cohort_id    </text>
<text text-anchor="start" x="934.2756" y="-293.9" font-family="Arial" font-size="14.00" fill="#666666">[bigint]</text>
<polygon fill="none" stroke="#000000" points="835.5,-252.5 835.5,-282.5 1184.5,-282.5 1184.5,-252.5 835.5,-252.5"/>
<text text-anchor="start" x="842.5" y="-263.9" font-family="Arial" font-size="14.00" fill="#000000">tenant_id    </text>
<text text-anchor="start" x="934.2882" y="-263.9" font-family="Arial" font-size="14.00" fill="#666666">[bigint]</text>
<polygon fill="none" stroke="#000000" points="835.5,-222.5 835.5,-252.5 1184.5,-252.5 1184.5,-222.5 835.5,-222.5"/>
<text text-anchor="start" x="842.5" y="-233.9" font-family="Arial" font-size="14.00" fill="#000000">account_id    </text>
<text text-anchor="start" x="944.3976" y="-233.9" font-family="Arial" font-size="14.00" fill="#666666">[bigint]</text>
<polygon fill="none" stroke="#000000" points="835.5,-192.5 835.5,-222.5 1184.5,-222.5 1184.5,-192.5 835.5,-192.5"/>
<text text-anchor="start" x="842.5" y="-203.9" font-family="Arial" font-size="14.00" fill="#000000">price    </text>
<text text-anchor="start" x="907.0372" y="-203.9" font-family="Arial" font-size="14.00" fill="#666666">[price]</text>
<polygon fill="none" stroke="#000000" points="835.5,-162.5 835.5,-192.5 1184.5,-192.5 1184.5,-162.5 835.5,-162.5"/>
<text text-anchor="start" x="842.5" y="-173.9" font-family="Arial" font-size="14.00" fill="#000000">active    </text>
<text text-anchor="start" x="913.2672" y="-173.9" font-family="Arial" font-size="14.00" fill="#666666">[boolean]</text>
<polygon fill="none" stroke="#000000" points="835.5,-132.5 835.5,-162.5 1184.5,-162.5 1184.5,-132.5 835.5,-132.5"/>
<text text-anchor="start" x="842.5" y="-143.9" font-family="Arial" font-size="14.00" fill="#000000">renews_on    </text>
<text text-anchor="start" x="945.1676" y="-143.9" font-family="Arial" font-size="14.00" fill="#666666">[timestamp with time zone]</text>
<polygon fill="none" stroke="#000000" points="835.5,-102.5 835.5,-132.5 1184.5,-132.5 1184.5,-102.5 835.5,-102.5"/>
<text text-anchor="start" x="842.5" y="-113.9" font-family="Arial" font-size="14.00" fill="#000000">interval    </text>
<text text-anchor="start" x="921.817" y="-113.9" font-family="Arial" font-size="14.00" fill="#666666">[interval]</text>
<polygon fill="none" stroke="#000000" points="835.5,-72.5 835.5,-102.5 1184.5,-102.5 1184.5,-72.5 835.5,-72.5"/>
<text text-anchor="start" x="842.5" y="-83.9" font-family="Arial" font-size="14.00" fill="#000000">created_at    </text>
<text text-anchor="start" x="942.8422" y="-83.9" font-family="Arial" font-size="14.00" fill="#666666">[timestamp with time zone]</text>
<polygon fill="none" stroke="#000000" points="835.5,-42.5 835.5,-72.5 1184.5,-72.5 1184.5,-42.5 835.5,-42.5"/>
<text text-anchor="start" x="842.5" y="-53.9" font-family="Arial" font-size="14.00" fill="#000000">updated_at    </text>
<text text-anchor="start" x="946.7468" y="-53.9" font-family="Arial" font-size="14.00" fill="#666666">[timestamp with time zone]</text>
</g>
<!-- public.payment&#45;&gt;public.cohort_subscription -->
<g id="edge6" class="edge">
<title>public.payment:cohort_subscription_id&#45;&gt;public.cohort_subscription:id</title>
<path fill="none" stroke="#000000" d="M869.1132,-847.1743C708.3576,-836.8589 766.5592,-584.0556 879.5,-457 970.1845,-354.9822 1093.8155,-523.0178 1184.5,-421 1212.1084,-389.9413 1226.0556,-327.5 1184.5,-327.5"/>
<polygon fill="#000000" stroke="#000000" points="869.5049,-847.1865 879.3589,-851.9978 874.5025,-847.3433 879.5,-847.5 879.5,-847.5 879.5,-847.5 874.5025,-847.3433 879.6411,-843.0022 869.5049,-847.1865 869.5049,-847.1865"/>
<text text-anchor="start" x="297.98" y="-857.5" font-family="Arial" font-size="10.00" fill="#000000">FOREIGN KEY (cohort_subscription_id) REFERENCES cohort_subscription(id) ON UPDATE CASCADE ON DELETE SET NULL</text>
</g>
<!-- public.event_registration -->
<g id="node8" class="node">
<title>public.event_registration</title>
<polygon fill="#efefef" stroke="transparent" points="1288.5,-327.5 1288.5,-362.5 1624.5,-362.5 1624.5,-327.5 1288.5,-327.5"/>
<polygon fill="none" stroke="#000000" points="1288.5,-327.5 1288.5,-362.5 1624.5,-362.5 1624.5,-327.5 1288.5,-327.5"/>
<text text-anchor="start" x="1295.1938" y="-340.3" font-family="Arial Bold" font-size="18.00" fill="#000000">public.event_registration</text>
<text text-anchor="start" x="1490.2382" y="-340.3" font-family="Arial" font-size="14.00" fill="#000000">    </text>
<text text-anchor="start" x="1524.443" y="-340.3" font-family="Arial" font-size="14.00" fill="#666666">[BASE TABLE]</text>
<polygon fill="none" stroke="#000000" points="1288.5,-297.5 1288.5,-327.5 1624.5,-327.5 1624.5,-297.5 1288.5,-297.5"/>
<text text-anchor="start" x="1295.5" y="-308.9" font-family="Arial" font-size="14.00" fill="#000000">id    </text>
<text text-anchor="start" x="1340.594" y="-308.9" font-family="Arial" font-size="14.00" fill="#666666">[bigint]</text>
<polygon fill="none" stroke="#000000" points="1288.5,-267.5 1288.5,-297.5 1624.5,-297.5 1624.5,-267.5 1288.5,-267.5"/>
<text text-anchor="start" x="1295.5" y="-278.9" font-family="Arial" font-size="14.00" fill="#000000">tenant_id    </text>
<text text-anchor="start" x="1387.2882" y="-278.9" font-family="Arial" font-size="14.00" fill="#666666">[bigint]</text>
<polygon fill="none" stroke="#000000" points="1288.5,-237.5 1288.5,-267.5 1624.5,-267.5 1624.5,-237.5 1288.5,-237.5"/>
<text text-anchor="start" x="1295.5" y="-248.9" font-family="Arial" font-size="14.00" fill="#000000">event_id    </text>
<text text-anchor="start" x="1382.615" y="-248.9" font-family="Arial" font-size="14.00" fill="#666666">[bigint]</text>
<polygon fill="none" stroke="#000000" points="1288.5,-207.5 1288.5,-237.5 1624.5,-237.5 1624.5,-207.5 1288.5,-207.5"/>
<text text-anchor="start" x="1295.5" y="-218.9" font-family="Arial" font-size="14.00" fill="#000000">target_cohort_id    </text>
<text text-anchor="start" x="1430.8478" y="-218.9" font-family="Arial" font-size="14.00" fill="#666666">[bigint]</text>
<polygon fill="none" stroke="#000000" points="1288.5,-177.5 1288.5,-207.5 1624.5,-207.5 1624.5,-177.5 1288.5,-177.5"/>
<text text-anchor="start" x="1295.5" y="-188.9" font-family="Arial" font-size="14.00" fill="#000000">couple_id    </text>
<text text-anchor="start" x="1389.6136" y="-188.9" font-family="Arial" font-size="14.00" fill="#666666">[bigint]</text>
<polygon fill="none" stroke="#000000" points="1288.5,-147.5 1288.5,-177.5 1624.5,-177.5 1624.5,-147.5 1288.5,-147.5"/>
<text text-anchor="start" x="1295.5" y="-158.9" font-family="Arial" font-size="14.00" fill="#000000">person_id    </text>
<text text-anchor="start" x="1391.1676" y="-158.9" font-family="Arial" font-size="14.00" fill="#666666">[bigint]</text>
<polygon fill="none" stroke="#000000" points="1288.5,-117.5 1288.5,-147.5 1624.5,-147.5 1624.5,-117.5 1288.5,-117.5"/>
<text text-anchor="start" x="1295.5" y="-128.9" font-family="Arial" font-size="14.00" fill="#000000">note    </text>
<text text-anchor="start" x="1356.9432" y="-128.9" font-family="Arial" font-size="14.00" fill="#666666">[text]</text>
<polygon fill="none" stroke="#000000" points="1288.5,-87.5 1288.5,-117.5 1624.5,-117.5 1624.5,-87.5 1288.5,-87.5"/>
<text text-anchor="start" x="1295.5" y="-98.9" font-family="Arial" font-size="14.00" fill="#000000">created_at    </text>
<text text-anchor="start" x="1395.8422" y="-98.9" font-family="Arial" font-size="14.00" fill="#666666">[timestamp with time zone]</text>
<polygon fill="none" stroke="#000000" points="1288.5,-57.5 1288.5,-87.5 1624.5,-87.5 1624.5,-57.5 1288.5,-57.5"/>
<text text-anchor="start" x="1295.5" y="-68.9" font-family="Arial" font-size="14.00" fill="#000000">updated_at    </text>
<text text-anchor="start" x="1399.7468" y="-68.9" font-family="Arial" font-size="14.00" fill="#666666">[timestamp with time zone]</text>
</g>
<!-- public.payment&#45;&gt;public.event_registration -->
<g id="edge7" class="edge">
<title>public.payment:event_registration_id&#45;&gt;public.event_registration:id</title>
<path fill="none" stroke="#000000" d="M1150.843,-813.1342C1203.3191,-763.7759 1233.2559,-312.5 1288.5,-312.5"/>
<polygon fill="#000000" stroke="#000000" points="1150.5597,-813.2666 1139.595,-813.4231 1146.0299,-815.3833 1141.5,-817.5 1141.5,-817.5 1141.5,-817.5 1146.0299,-815.3833 1143.405,-821.5769 1150.5597,-813.2666 1150.5597,-813.2666"/>
<text text-anchor="start" x="1148.9255" y="-827.5" font-family="Arial" font-size="10.00" fill="#000000">FOREIGN KEY (event_registration_id) REFERENCES event_registration(id) ON UPDATE CASCADE ON DELETE CASCADE</text>
</g>
<!-- public.event_instance -->
<g id="node9" class="node">
<title>public.event_instance</title>
<polygon fill="#efefef" stroke="transparent" points="1728.5,-342.5 1728.5,-377.5 2042.5,-377.5 2042.5,-342.5 1728.5,-342.5"/>
<polygon fill="none" stroke="#000000" points="1728.5,-342.5 1728.5,-377.5 2042.5,-377.5 2042.5,-342.5 1728.5,-342.5"/>
<text text-anchor="start" x="1735.1873" y="-355.3" font-family="Arial Bold" font-size="18.00" fill="#000000">public.event_instance</text>
<text text-anchor="start" x="1908.2447" y="-355.3" font-family="Arial" font-size="14.00" fill="#000000">    </text>
<text text-anchor="start" x="1942.4495" y="-355.3" font-family="Arial" font-size="14.00" fill="#666666">[BASE TABLE]</text>
<polygon fill="none" stroke="#000000" points="1728.5,-312.5 1728.5,-342.5 2042.5,-342.5 2042.5,-312.5 1728.5,-312.5"/>
<text text-anchor="start" x="1735.5" y="-323.9" font-family="Arial" font-size="14.00" fill="#000000">id    </text>
<text text-anchor="start" x="1780.594" y="-323.9" font-family="Arial" font-size="14.00" fill="#666666">[bigint]</text>
<polygon fill="none" stroke="#000000" points="1728.5,-282.5 1728.5,-312.5 2042.5,-312.5 2042.5,-282.5 1728.5,-282.5"/>
<text text-anchor="start" x="1735.5" y="-293.9" font-family="Arial" font-size="14.00" fill="#000000">tenant_id    </text>
<text text-anchor="start" x="1827.2882" y="-293.9" font-family="Arial" font-size="14.00" fill="#666666">[bigint]</text>
<polygon fill="none" stroke="#000000" points="1728.5,-252.5 1728.5,-282.5 2042.5,-282.5 2042.5,-252.5 1728.5,-252.5"/>
<text text-anchor="start" x="1735.5" y="-263.9" font-family="Arial" font-size="14.00" fill="#000000">event_id    </text>
<text text-anchor="start" x="1822.615" y="-263.9" font-family="Arial" font-size="14.00" fill="#666666">[bigint]</text>
<polygon fill="none" stroke="#000000" points="1728.5,-222.5 1728.5,-252.5 2042.5,-252.5 2042.5,-222.5 1728.5,-222.5"/>
<text text-anchor="start" x="1735.5" y="-233.9" font-family="Arial" font-size="14.00" fill="#000000">created_at    </text>
<text text-anchor="start" x="1835.8422" y="-233.9" font-family="Arial" font-size="14.00" fill="#666666">[timestamp with time zone]</text>
<polygon fill="none" stroke="#000000" points="1728.5,-192.5 1728.5,-222.5 2042.5,-222.5 2042.5,-192.5 1728.5,-192.5"/>
<text text-anchor="start" x="1735.5" y="-203.9" font-family="Arial" font-size="14.00" fill="#000000">updated_at    </text>
<text text-anchor="start" x="1839.7468" y="-203.9" font-family="Arial" font-size="14.00" fill="#666666">[timestamp with time zone]</text>
<polygon fill="none" stroke="#000000" points="1728.5,-162.5 1728.5,-192.5 2042.5,-192.5 2042.5,-162.5 1728.5,-162.5"/>
<text text-anchor="start" x="1735.5" y="-173.9" font-family="Arial" font-size="14.00" fill="#000000">since    </text>
<text text-anchor="start" x="1802.3766" y="-173.9" font-family="Arial" font-size="14.00" fill="#666666">[timestamp with time zone]</text>
<polygon fill="none" stroke="#000000" points="1728.5,-132.5 1728.5,-162.5 2042.5,-162.5 2042.5,-132.5 1728.5,-132.5"/>
<text text-anchor="start" x="1735.5" y="-143.9" font-family="Arial" font-size="14.00" fill="#000000">until    </text>
<text text-anchor="start" x="1795.3738" y="-143.9" font-family="Arial" font-size="14.00" fill="#666666">[timestamp with time zone]</text>
<polygon fill="none" stroke="#000000" points="1728.5,-102.5 1728.5,-132.5 2042.5,-132.5 2042.5,-102.5 1728.5,-102.5"/>
<text text-anchor="start" x="1735.5" y="-113.9" font-family="Arial" font-size="14.00" fill="#000000">range    </text>
<text text-anchor="start" x="1805.4958" y="-113.9" font-family="Arial" font-size="14.00" fill="#666666">[tstzrange]</text>
<polygon fill="none" stroke="#000000" points="1728.5,-72.5 1728.5,-102.5 2042.5,-102.5 2042.5,-72.5 1728.5,-72.5"/>
<text text-anchor="start" x="1735.5" y="-83.9" font-family="Arial" font-size="14.00" fill="#000000">location_id    </text>
<text text-anchor="start" x="1836.6108" y="-83.9" font-family="Arial" font-size="14.00" fill="#666666">[bigint]</text>
<polygon fill="none" stroke="#000000" points="1728.5,-42.5 1728.5,-72.5 2042.5,-72.5 2042.5,-42.5 1728.5,-42.5"/>
<text text-anchor="start" x="1735.5" y="-53.9" font-family="Arial" font-size="14.00" fill="#000000">is_cancelled    </text>
<text text-anchor="start" x="1846.7202" y="-53.9" font-family="Arial" font-size="14.00" fill="#666666">[boolean]</text>
</g>
<!-- public.payment&#45;&gt;public.event_instance -->
<g id="edge8" class="edge">
<title>public.payment:event_instance_id&#45;&gt;public.event_instance:id</title>
<path fill="none" stroke="#000000" d="M1151.5363,-787.4369C1430.9746,-783.8956 1484.6728,-631.5655 1676.5,-421 1708.5224,-385.8496 1680.9502,-327.5 1728.5,-327.5"/>
<polygon fill="#000000" stroke="#000000" points="1151.4998,-787.4371 1141.4717,-783.0001 1146.4999,-787.4685 1141.5,-787.5 1141.5,-787.5 1141.5,-787.5 1146.4999,-787.4685 1141.5283,-791.9999 1151.4998,-787.4371 1151.4998,-787.4371"/>
<text text-anchor="start" x="1148.1405" y="-797.5" font-family="Arial" font-size="10.00" fill="#000000">FOREIGN KEY (event_instance_id) REFERENCES event_instance(id) ON UPDATE CASCADE ON DELETE CASCADE</text>
</g>
<!-- public.transaction -->
<g id="node2" class="node">
<title>public.transaction</title>
<polygon fill="#efefef" stroke="transparent" points="443.5,-1382.5 443.5,-1417.5 744.5,-1417.5 744.5,-1382.5 443.5,-1382.5"/>
<polygon fill="none" stroke="#000000" points="443.5,-1382.5 443.5,-1417.5 744.5,-1417.5 744.5,-1382.5 443.5,-1382.5"/>
<text text-anchor="start" x="460.2005" y="-1395.3" font-family="Arial Bold" font-size="18.00" fill="#000000">public.transaction</text>
<text text-anchor="start" x="600.2315" y="-1395.3" font-family="Arial" font-size="14.00" fill="#000000">    </text>
<text text-anchor="start" x="634.4363" y="-1395.3" font-family="Arial" font-size="14.00" fill="#666666">[BASE TABLE]</text>
<polygon fill="none" stroke="#000000" points="443.5,-1352.5 443.5,-1382.5 744.5,-1382.5 744.5,-1352.5 443.5,-1352.5"/>
<text text-anchor="start" x="450.5" y="-1363.9" font-family="Arial" font-size="14.00" fill="#000000">id    </text>
<text text-anchor="start" x="495.594" y="-1363.9" font-family="Arial" font-size="14.00" fill="#666666">[bigint]</text>
<polygon fill="none" stroke="#000000" points="443.5,-1322.5 443.5,-1352.5 744.5,-1352.5 744.5,-1322.5 443.5,-1322.5"/>
<text text-anchor="start" x="450.5" y="-1333.9" font-family="Arial" font-size="14.00" fill="#000000">tenant_id    </text>
<text text-anchor="start" x="542.2882" y="-1333.9" font-family="Arial" font-size="14.00" fill="#666666">[bigint]</text>
<polygon fill="none" stroke="#000000" points="443.5,-1292.5 443.5,-1322.5 744.5,-1322.5 744.5,-1292.5 443.5,-1292.5"/>
<text text-anchor="start" x="450.5" y="-1303.9" font-family="Arial" font-size="14.00" fill="#000000">accounting_period_id    </text>
<text text-anchor="start" x="617.7496" y="-1303.9" font-family="Arial" font-size="14.00" fill="#666666">[bigint]</text>
<polygon fill="none" stroke="#000000" points="443.5,-1262.5 443.5,-1292.5 744.5,-1292.5 744.5,-1262.5 443.5,-1262.5"/>
<text text-anchor="start" x="450.5" y="-1273.9" font-family="Arial" font-size="14.00" fill="#000000">payment_id    </text>
<text text-anchor="start" x="557.0582" y="-1273.9" font-family="Arial" font-size="14.00" fill="#666666">[bigint]</text>
<polygon fill="none" stroke="#000000" points="443.5,-1232.5 443.5,-1262.5 744.5,-1262.5 744.5,-1232.5 443.5,-1232.5"/>
<text text-anchor="start" x="450.5" y="-1243.9" font-family="Arial" font-size="14.00" fill="#000000">source    </text>
<text text-anchor="start" x="526.7132" y="-1243.9" font-family="Arial" font-size="14.00" fill="#666666">[transaction_source]</text>
<polygon fill="none" stroke="#000000" points="443.5,-1202.5 443.5,-1232.5 744.5,-1232.5 744.5,-1202.5 443.5,-1202.5"/>
<text text-anchor="start" x="450.5" y="-1213.9" font-family="Arial" font-size="14.00" fill="#000000">created_at    </text>
<text text-anchor="start" x="550.8422" y="-1213.9" font-family="Arial" font-size="14.00" fill="#666666">[timestamp with time zone]</text>
<polygon fill="none" stroke="#000000" points="443.5,-1172.5 443.5,-1202.5 744.5,-1202.5 744.5,-1172.5 443.5,-1172.5"/>
<text text-anchor="start" x="450.5" y="-1183.9" font-family="Arial" font-size="14.00" fill="#000000">updated_at    </text>
<text text-anchor="start" x="554.7468" y="-1183.9" font-family="Arial" font-size="14.00" fill="#666666">[timestamp with time zone]</text>
<polygon fill="none" stroke="#000000" points="443.5,-1142.5 443.5,-1172.5 744.5,-1172.5 744.5,-1142.5 443.5,-1142.5"/>
<text text-anchor="start" x="450.5" y="-1153.9" font-family="Arial" font-size="14.00" fill="#000000">description    </text>
<text text-anchor="start" x="552.3822" y="-1153.9" font-family="Arial" font-size="14.00" fill="#666666">[text]</text>
<polygon fill="none" stroke="#000000" points="443.5,-1112.5 443.5,-1142.5 744.5,-1142.5 744.5,-1112.5 443.5,-1112.5"/>
<text text-anchor="start" x="450.4818" y="-1123.9" font-family="Arial" font-size="14.00" fill="#000000">effective_date    </text>
<text text-anchor="start" x="571.8338" y="-1123.9" font-family="Arial" font-size="14.00" fill="#666666">[timestamp with time zone]</text>
</g>
<!-- public.transaction&#45;&gt;public.payment -->
<g id="edge1" class="edge">
<title>public.transaction:payment_id&#45;&gt;public.payment:id</title>
<path fill="none" stroke="#000000" d="M754.84,-1276.9592C833.303,-1268.164 759.7097,-1153.9461 795.5,-1070 822.8458,-1005.8604 809.7743,-937.5 879.5,-937.5"/>
<polygon fill="#000000" stroke="#000000" points="754.4863,-1276.9776 744.2649,-1273.0061 749.4932,-1277.2388 744.5,-1277.5 744.5,-1277.5 744.5,-1277.5 749.4932,-1277.2388 744.7351,-1281.9939 754.4863,-1276.9776 754.4863,-1276.9776"/>
<text text-anchor="start" x="259.0455" y="-1287.5" font-family="Arial" font-size="10.00" fill="#000000">FOREIGN KEY (payment_id) REFERENCES payment(id) ON UPDATE CASCADE ON DELETE CASCADE</text>
</g>
<!-- public.payment_debtor -->
<g id="node3" class="node">
<title>public.payment_debtor</title>
<polygon fill="#efefef" stroke="transparent" points="848.5,-1307.5 848.5,-1342.5 1171.5,-1342.5 1171.5,-1307.5 848.5,-1307.5"/>
<polygon fill="none" stroke="#000000" points="848.5,-1307.5 848.5,-1342.5 1171.5,-1342.5 1171.5,-1307.5 848.5,-1307.5"/>
<text text-anchor="start" x="855.1891" y="-1320.3" font-family="Arial Bold" font-size="18.00" fill="#000000">public.payment_debtor</text>
<text text-anchor="start" x="1037.2429" y="-1320.3" font-family="Arial" font-size="14.00" fill="#000000">    </text>
<text text-anchor="start" x="1071.4477" y="-1320.3" font-family="Arial" font-size="14.00" fill="#666666">[BASE TABLE]</text>
<polygon fill="none" stroke="#000000" points="848.5,-1277.5 848.5,-1307.5 1171.5,-1307.5 1171.5,-1277.5 848.5,-1277.5"/>
<text text-anchor="start" x="855.5" y="-1288.9" font-family="Arial" font-size="14.00" fill="#000000">id    </text>
<text text-anchor="start" x="900.594" y="-1288.9" font-family="Arial" font-size="14.00" fill="#666666">[bigint]</text>
<polygon fill="none" stroke="#000000" points="848.5,-1247.5 848.5,-1277.5 1171.5,-1277.5 1171.5,-1247.5 848.5,-1247.5"/>
<text text-anchor="start" x="855.5" y="-1258.9" font-family="Arial" font-size="14.00" fill="#000000">tenant_id    </text>
<text text-anchor="start" x="947.2882" y="-1258.9" font-family="Arial" font-size="14.00" fill="#666666">[bigint]</text>
<polygon fill="none" stroke="#000000" points="848.5,-1217.5 848.5,-1247.5 1171.5,-1247.5 1171.5,-1217.5 848.5,-1217.5"/>
<text text-anchor="start" x="855.5" y="-1228.9" font-family="Arial" font-size="14.00" fill="#000000">payment_id    </text>
<text text-anchor="start" x="962.0582" y="-1228.9" font-family="Arial" font-size="14.00" fill="#666666">[bigint]</text>
<polygon fill="none" stroke="#000000" points="848.5,-1187.5 848.5,-1217.5 1171.5,-1217.5 1171.5,-1187.5 848.5,-1187.5"/>
<text text-anchor="start" x="855.5" y="-1198.9" font-family="Arial" font-size="14.00" fill="#000000">person_id    </text>
<text text-anchor="start" x="951.1676" y="-1198.9" font-family="Arial" font-size="14.00" fill="#666666">[bigint]</text>
</g>
<!-- public.payment_debtor&#45;&gt;public.payment -->
<g id="edge2" class="edge">
<title>public.payment_debtor:payment_id&#45;&gt;public.payment:id</title>
<path fill="none" stroke="#000000" d="M1181.6782,-1230.8657C1206.92,-1221.4714 1191.3366,-1173.7621 1171.5,-1145 1092.6752,-1030.7078 958.3248,-1148.2922 879.5,-1034 855.15,-998.6937 836.6111,-937.5 879.5,-937.5"/>
<polygon fill="#000000" stroke="#000000" points="1181.3735,-1230.9145 1170.7865,-1228.0569 1176.4368,-1231.7073 1171.5,-1232.5 1171.5,-1232.5 1171.5,-1232.5 1176.4368,-1231.7073 1172.2135,-1236.9431 1181.3735,-1230.9145 1181.3735,-1230.9145"/>
<text text-anchor="start" x="932.0455" y="-1216.5" font-family="Arial" font-size="10.00" fill="#000000">FOREIGN KEY (payment_id) REFERENCES payment(id) ON UPDATE CASCADE ON DELETE CASCADE</text>
</g>
<!-- public.payment_recipient -->
<g id="node4" class="node">
<title>public.payment_recipient</title>
<polygon fill="#efefef" stroke="transparent" points="1275.5,-1322.5 1275.5,-1357.5 1615.5,-1357.5 1615.5,-1322.5 1275.5,-1322.5"/>
<polygon fill="none" stroke="#000000" points="1275.5,-1322.5 1275.5,-1357.5 1615.5,-1357.5 1615.5,-1322.5 1275.5,-1322.5"/>
<text text-anchor="start" x="1282.1949" y="-1335.3" font-family="Arial Bold" font-size="18.00" fill="#000000">public.payment_recipient</text>
<text text-anchor="start" x="1481.2371" y="-1335.3" font-family="Arial" font-size="14.00" fill="#000000">    </text>
<text text-anchor="start" x="1515.4419" y="-1335.3" font-family="Arial" font-size="14.00" fill="#666666">[BASE TABLE]</text>
<polygon fill="none" stroke="#000000" points="1275.5,-1292.5 1275.5,-1322.5 1615.5,-1322.5 1615.5,-1292.5 1275.5,-1292.5"/>
<text text-anchor="start" x="1282.5" y="-1303.9" font-family="Arial" font-size="14.00" fill="#000000">id    </text>
<text text-anchor="start" x="1327.594" y="-1303.9" font-family="Arial" font-size="14.00" fill="#666666">[bigint]</text>
<polygon fill="none" stroke="#000000" points="1275.5,-1262.5 1275.5,-1292.5 1615.5,-1292.5 1615.5,-1262.5 1275.5,-1262.5"/>
<text text-anchor="start" x="1282.5" y="-1273.9" font-family="Arial" font-size="14.00" fill="#000000">tenant_id    </text>
<text text-anchor="start" x="1374.2882" y="-1273.9" font-family="Arial" font-size="14.00" fill="#666666">[bigint]</text>
<polygon fill="none" stroke="#000000" points="1275.5,-1232.5 1275.5,-1262.5 1615.5,-1262.5 1615.5,-1232.5 1275.5,-1232.5"/>
<text text-anchor="start" x="1282.5" y="-1243.9" font-family="Arial" font-size="14.00" fill="#000000">payment_id    </text>
<text text-anchor="start" x="1389.0582" y="-1243.9" font-family="Arial" font-size="14.00" fill="#666666">[bigint]</text>
<polygon fill="none" stroke="#000000" points="1275.5,-1202.5 1275.5,-1232.5 1615.5,-1232.5 1615.5,-1202.5 1275.5,-1202.5"/>
<text text-anchor="start" x="1282.5" y="-1213.9" font-family="Arial" font-size="14.00" fill="#000000">account_id    </text>
<text text-anchor="start" x="1384.3976" y="-1213.9" font-family="Arial" font-size="14.00" fill="#666666">[bigint]</text>
<polygon fill="none" stroke="#000000" points="1275.5,-1172.5 1275.5,-1202.5 1615.5,-1202.5 1615.5,-1172.5 1275.5,-1172.5"/>
<text text-anchor="start" x="1282.5" y="-1183.9" font-family="Arial" font-size="14.00" fill="#000000">amount    </text>
<text text-anchor="start" x="1363.3864" y="-1183.9" font-family="Arial" font-size="14.00" fill="#666666">[numeric(19,4)]</text>
</g>
<!-- public.payment_recipient&#45;&gt;public.payment -->
<g id="edge3" class="edge">
<title>public.payment_recipient:payment_id&#45;&gt;public.payment:id</title>
<path fill="none" stroke="#000000" d="M1265.2829,-1246.8917C1198.8218,-1238.3529 1255.4839,-1141.7016 1223.5,-1070 1195.2875,-1006.7532 1210.7539,-937.5 1141.5,-937.5"/>
<polygon fill="#000000" stroke="#000000" points="1265.5177,-1246.9056 1275.2325,-1251.992 1270.5088,-1247.2028 1275.5,-1247.5 1275.5,-1247.5 1275.5,-1247.5 1270.5088,-1247.2028 1275.7675,-1243.008 1265.5177,-1246.9056 1265.5177,-1246.9056"/>
<text text-anchor="start" x="1282.0455" y="-1257.5" font-family="Arial" font-size="10.00" fill="#000000">FOREIGN KEY (payment_id) REFERENCES payment(id) ON UPDATE CASCADE ON DELETE CASCADE</text>
</g>
</g>
</svg>
