<?xml version="1.0" encoding="UTF-8" standalone="no"?>
<!DOCTYPE svg PUBLIC "-//W3C//DTD SVG 1.1//EN"
 "http://www.w3.org/Graphics/SVG/1.1/DTD/svg11.dtd">
<!-- Generated by graphviz version 2.40.1 (20161225.0304)
 -->
<!-- Title: public.platby_category Pages: 1 -->
<svg width="1089pt" height="1379pt"
 viewBox="0.00 0.00 1089.00 1379.00" xmlns="http://www.w3.org/2000/svg" xmlns:xlink="http://www.w3.org/1999/xlink">
<g id="graph0" class="graph" transform="scale(1 1) rotate(0) translate(4 1375)">
<title>public.platby_category</title>
<polygon fill="#ffffff" stroke="transparent" points="-4,4 -4,-1375 1085,-1375 1085,4 -4,4"/>
<!-- public.platby_category -->
<g id="node1" class="node">
<title>public.platby_category</title>
<polygon fill="#efefef" stroke="transparent" points="289,-832.5 289,-867.5 609,-867.5 609,-832.5 289,-832.5"/>
<polygon fill="none" stroke="#000000" points="289,-832.5 289,-867.5 609,-867.5 609,-832.5 289,-832.5"/>
<text text-anchor="start" x="295.6912" y="-845.3" font-family="Arial Bold" font-size="18.00" fill="#000000">public.platby_category</text>
<text text-anchor="start" x="474.7408" y="-845.3" font-family="Arial" font-size="14.00" fill="#000000">    </text>
<text text-anchor="start" x="508.9456" y="-845.3" font-family="Arial" font-size="14.00" fill="#666666">[BASE TABLE]</text>
<polygon fill="none" stroke="#000000" points="289,-802.5 289,-832.5 609,-832.5 609,-802.5 289,-802.5"/>
<text text-anchor="start" x="296" y="-813.9" font-family="Arial" font-size="14.00" fill="#000000">pc_id </text>
<text text-anchor="start" x="333.345" y="-813.9" font-family="Arial" font-size="14.00" fill="#666666">[bigint]</text>
<polygon fill="none" stroke="#000000" points="289,-772.5 289,-802.5 609,-802.5 609,-772.5 289,-772.5"/>
<text text-anchor="start" x="296" y="-783.9" font-family="Arial" font-size="14.00" fill="#000000">pc_name </text>
<text text-anchor="start" x="357.4642" y="-783.9" font-family="Arial" font-size="14.00" fill="#666666">[text]</text>
<polygon fill="none" stroke="#000000" points="289,-742.5 289,-772.5 609,-772.5 609,-742.5 289,-742.5"/>
<text text-anchor="start" x="296" y="-753.9" font-family="Arial" font-size="14.00" fill="#000000">pc_symbol </text>
<text text-anchor="start" x="366.7882" y="-753.9" font-family="Arial" font-size="14.00" fill="#666666">[bigint]</text>
<polygon fill="none" stroke="#000000" points="289,-712.5 289,-742.5 609,-742.5 609,-712.5 289,-712.5"/>
<text text-anchor="start" x="296" y="-723.9" font-family="Arial" font-size="14.00" fill="#000000">pc_amount </text>
<text text-anchor="start" x="369.1374" y="-723.9" font-family="Arial" font-size="14.00" fill="#666666">[numeric(10,2)]</text>
<polygon fill="none" stroke="#000000" points="289,-682.5 289,-712.5 609,-712.5 609,-682.5 289,-682.5"/>
<text text-anchor="start" x="296" y="-693.9" font-family="Arial" font-size="14.00" fill="#000000">pc_date_due </text>
<text text-anchor="start" x="380.8246" y="-693.9" font-family="Arial" font-size="14.00" fill="#666666">[date]</text>
<polygon fill="none" stroke="#000000" points="289,-652.5 289,-682.5 609,-682.5 609,-652.5 289,-652.5"/>
<text text-anchor="start" x="296" y="-663.9" font-family="Arial" font-size="14.00" fill="#000000">pc_valid_from </text>
<text text-anchor="start" x="387.0112" y="-663.9" font-family="Arial" font-size="14.00" fill="#666666">[date]</text>
<polygon fill="none" stroke="#000000" points="289,-622.5 289,-652.5 609,-652.5 609,-622.5 289,-622.5"/>
<text text-anchor="start" x="296" y="-633.9" font-family="Arial" font-size="14.00" fill="#000000">pc_valid_to </text>
<text text-anchor="start" x="370.69" y="-633.9" font-family="Arial" font-size="14.00" fill="#666666">[date]</text>
<polygon fill="none" stroke="#000000" points="289,-592.5 289,-622.5 609,-622.5 609,-592.5 289,-592.5"/>
<text text-anchor="start" x="296" y="-603.9" font-family="Arial" font-size="14.00" fill="#000000">pc_use_base </text>
<text text-anchor="start" x="383.1514" y="-603.9" font-family="Arial" font-size="14.00" fill="#666666">[boolean]</text>
<polygon fill="none" stroke="#000000" points="289,-562.5 289,-592.5 609,-592.5 609,-562.5 289,-562.5"/>
<text text-anchor="start" x="296" y="-573.9" font-family="Arial" font-size="14.00" fill="#000000">pc_use_prefix </text>
<text text-anchor="start" x="387.0266" y="-573.9" font-family="Arial" font-size="14.00" fill="#666666">[boolean]</text>
<polygon fill="none" stroke="#000000" points="289,-532.5 289,-562.5 609,-562.5 609,-532.5 289,-532.5"/>
<text text-anchor="start" x="296" y="-543.9" font-family="Arial" font-size="14.00" fill="#000000">pc_archive </text>
<text text-anchor="start" x="367.5708" y="-543.9" font-family="Arial" font-size="14.00" fill="#666666">[boolean]</text>
<polygon fill="none" stroke="#000000" points="289,-502.5 289,-532.5 609,-532.5 609,-502.5 289,-502.5"/>
<text text-anchor="start" x="296" y="-513.9" font-family="Arial" font-size="14.00" fill="#000000">pc_visible </text>
<text text-anchor="start" x="361.3408" y="-513.9" font-family="Arial" font-size="14.00" fill="#666666">[boolean]</text>
<polygon fill="none" stroke="#000000" points="289,-472.5 289,-502.5 609,-502.5 609,-472.5 289,-472.5"/>
<text text-anchor="start" x="296" y="-483.9" font-family="Arial" font-size="14.00" fill="#000000">id </text>
<text text-anchor="start" x="310.7798" y="-483.9" font-family="Arial" font-size="14.00" fill="#666666">[bigint]</text>
<polygon fill="none" stroke="#000000" points="289,-442.5 289,-472.5 609,-472.5 609,-442.5 289,-442.5"/>
<text text-anchor="start" x="296" y="-453.9" font-family="Arial" font-size="14.00" fill="#000000">tenant_id </text>
<text text-anchor="start" x="357.474" y="-453.9" font-family="Arial" font-size="14.00" fill="#666666">[bigint]</text>
<polygon fill="none" stroke="#000000" stroke-width="3" points="287.5,-441.5 287.5,-869.5 610.5,-869.5 610.5,-441.5 287.5,-441.5"/>
</g>
<!-- public.tenant -->
<g id="node4" class="node">
<title>public.tenant</title>
<polygon fill="#efefef" stroke="transparent" points="327,-282.5 327,-317.5 570,-317.5 570,-282.5 327,-282.5"/>
<polygon fill="none" stroke="#000000" points="327,-282.5 327,-317.5 570,-317.5 570,-282.5 327,-282.5"/>
<text text-anchor="start" x="333.6968" y="-295.3" font-family="Arial Bold" font-size="18.00" fill="#000000">public.tenant</text>
<text text-anchor="start" x="435.7352" y="-295.3" font-family="Arial" font-size="14.00" fill="#000000">    </text>
<text text-anchor="start" x="469.94" y="-295.3" font-family="Arial" font-size="14.00" fill="#666666">[BASE TABLE]</text>
<polygon fill="none" stroke="#000000" points="327,-252.5 327,-282.5 570,-282.5 570,-252.5 327,-252.5"/>
<text text-anchor="start" x="334" y="-263.9" font-family="Arial" font-size="14.00" fill="#000000">id    </text>
<text text-anchor="start" x="379.094" y="-263.9" font-family="Arial" font-size="14.00" fill="#666666">[bigint]</text>
<polygon fill="none" stroke="#000000" points="327,-222.5 327,-252.5 570,-252.5 570,-222.5 327,-222.5"/>
<text text-anchor="start" x="334" y="-233.9" font-family="Arial" font-size="14.00" fill="#000000">name    </text>
<text text-anchor="start" x="403.2132" y="-233.9" font-family="Arial" font-size="14.00" fill="#666666">[text]</text>
<polygon fill="none" stroke="#000000" points="327,-192.5 327,-222.5 570,-222.5 570,-192.5 327,-192.5"/>
<text text-anchor="start" x="334" y="-203.9" font-family="Arial" font-size="14.00" fill="#000000">origins    </text>
<text text-anchor="start" x="409.4264" y="-203.9" font-family="Arial" font-size="14.00" fill="#666666">[text[]]</text>
<polygon fill="none" stroke="#000000" points="327,-162.5 327,-192.5 570,-192.5 570,-162.5 327,-162.5"/>
<text text-anchor="start" x="334" y="-173.9" font-family="Arial" font-size="14.00" fill="#000000">cz_ico    </text>
<text text-anchor="start" x="407.8766" y="-173.9" font-family="Arial" font-size="14.00" fill="#666666">[text]</text>
<polygon fill="none" stroke="#000000" points="327,-132.5 327,-162.5 570,-162.5 570,-132.5 327,-132.5"/>
<text text-anchor="start" x="334" y="-143.9" font-family="Arial" font-size="14.00" fill="#000000">cz_dic    </text>
<text text-anchor="start" x="407.8766" y="-143.9" font-family="Arial" font-size="14.00" fill="#666666">[text]</text>
<polygon fill="none" stroke="#000000" points="327,-102.5 327,-132.5 570,-132.5 570,-102.5 327,-102.5"/>
<text text-anchor="start" x="334" y="-113.9" font-family="Arial" font-size="14.00" fill="#000000">address    </text>
<text text-anchor="start" x="417.9958" y="-113.9" font-family="Arial" font-size="14.00" fill="#666666">[address_domain]</text>
<polygon fill="none" stroke="#000000" points="327,-72.5 327,-102.5 570,-102.5 570,-72.5 327,-72.5"/>
<text text-anchor="start" x="334" y="-83.9" font-family="Arial" font-size="14.00" fill="#000000">description    </text>
<text text-anchor="start" x="435.8822" y="-83.9" font-family="Arial" font-size="14.00" fill="#666666">[text]</text>
<polygon fill="none" stroke="#000000" points="327,-42.5 327,-72.5 570,-72.5 570,-42.5 327,-42.5"/>
<text text-anchor="start" x="334" y="-53.9" font-family="Arial" font-size="14.00" fill="#000000">bank_account    </text>
<text text-anchor="start" x="455.3562" y="-53.9" font-family="Arial" font-size="14.00" fill="#666666">[text]</text>
</g>
<!-- public.platby_category&#45;&gt;public.tenant -->
<g id="edge3" class="edge">
<title>public.platby_category:tenant_id&#45;&gt;public.tenant:id</title>
<path fill="none" stroke="#000000" d="M449.844,-432.4601C459.0639,-381.9439 541.2663,-414.9974 570,-361 589.5212,-324.315 611.5556,-267.5 570,-267.5"/>
<polygon fill="#000000" stroke="#000000" points="449.8378,-432.5352 444.5158,-442.123 449.4189,-437.5176 449,-442.5 449,-442.5 449,-442.5 449.4189,-437.5176 453.4842,-442.877 449.8378,-432.5352 449.8378,-432.5352"/>
<text text-anchor="start" x="97.2065" y="-452.5" font-family="Arial" font-size="10.00" fill="#000000">FOREIGN KEY (tenant_id) REFERENCES tenant(id) ON DELETE CASCADE</text>
</g>
<!-- public.platby_category_group -->
<g id="node2" class="node">
<title>public.platby_category_group</title>
<polygon fill="#efefef" stroke="transparent" points="43,-1217.5 43,-1252.5 419,-1252.5 419,-1217.5 43,-1217.5"/>
<polygon fill="none" stroke="#000000" points="43,-1217.5 43,-1252.5 419,-1252.5 419,-1217.5 43,-1217.5"/>
<text text-anchor="start" x="49.6796" y="-1230.3" font-family="Arial Bold" font-size="18.00" fill="#000000">public.platby_category_group</text>
<text text-anchor="start" x="284.7524" y="-1230.3" font-family="Arial" font-size="14.00" fill="#000000">    </text>
<text text-anchor="start" x="318.9572" y="-1230.3" font-family="Arial" font-size="14.00" fill="#666666">[BASE TABLE]</text>
<polygon fill="none" stroke="#000000" points="43,-1187.5 43,-1217.5 419,-1217.5 419,-1187.5 43,-1187.5"/>
<text text-anchor="start" x="50" y="-1198.9" font-family="Arial" font-size="14.00" fill="#000000">pcg_id    </text>
<text text-anchor="start" x="125.4418" y="-1198.9" font-family="Arial" font-size="14.00" fill="#666666">[bigint]</text>
<polygon fill="none" stroke="#000000" points="43,-1157.5 43,-1187.5 419,-1187.5 419,-1157.5 43,-1157.5"/>
<text text-anchor="start" x="50" y="-1168.9" font-family="Arial" font-size="14.00" fill="#000000">pcg_id_group    </text>
<text text-anchor="start" x="169.0154" y="-1168.9" font-family="Arial" font-size="14.00" fill="#666666">[bigint]</text>
<polygon fill="none" stroke="#000000" points="43,-1127.5 43,-1157.5 419,-1157.5 419,-1127.5 43,-1127.5"/>
<text text-anchor="start" x="50" y="-1138.9" font-family="Arial" font-size="14.00" fill="#000000">pcg_id_category    </text>
<text text-anchor="start" x="186.906" y="-1138.9" font-family="Arial" font-size="14.00" fill="#666666">[bigint]</text>
<polygon fill="none" stroke="#000000" points="43,-1097.5 43,-1127.5 419,-1127.5 419,-1097.5 43,-1097.5"/>
<text text-anchor="start" x="50" y="-1108.9" font-family="Arial" font-size="14.00" fill="#000000">id    </text>
<text text-anchor="start" x="95.094" y="-1108.9" font-family="Arial" font-size="14.00" fill="#666666">[bigint]</text>
<polygon fill="none" stroke="#000000" points="43,-1067.5 43,-1097.5 419,-1097.5 419,-1067.5 43,-1067.5"/>
<text text-anchor="start" x="50" y="-1078.9" font-family="Arial" font-size="14.00" fill="#000000">tenant_id    </text>
<text text-anchor="start" x="141.7882" y="-1078.9" font-family="Arial" font-size="14.00" fill="#666666">[bigint]</text>
</g>
<!-- public.platby_category_group&#45;&gt;public.platby_category -->
<g id="edge1" class="edge">
<title>public.platby_category_group:pcg_id_category&#45;&gt;public.platby_category:pc_id</title>
<path fill="none" stroke="#000000" d="M429.3002,-1141.3799C466.7631,-1132.2228 439.2436,-1068.904 419,-1025 387.1881,-956.0069 320.8119,-982.9931 289,-914 271.0415,-875.052 246.1111,-817.5 289,-817.5"/>
<polygon fill="#000000" stroke="#000000" points="428.9414,-1141.4188 418.5135,-1138.0264 423.9707,-1141.9594 419,-1142.5 419,-1142.5 419,-1142.5 423.9707,-1141.9594 419.4865,-1146.9736 428.9414,-1141.4188 428.9414,-1141.4188"/>
<text text-anchor="start" x="425.872" y="-1152.5" font-family="Arial" font-size="10.00" fill="#000000">FOREIGN KEY (pcg_id_category) REFERENCES platby_category(pc_id) ON UPDATE RESTRICT ON DELETE RESTRICT</text>
</g>
<!-- public.platby_item -->
<g id="node3" class="node">
<title>public.platby_item</title>
<polygon fill="#efefef" stroke="transparent" points="524,-1292.5 524,-1327.5 809,-1327.5 809,-1292.5 524,-1292.5"/>
<polygon fill="none" stroke="#000000" points="524,-1292.5 524,-1327.5 809,-1327.5 809,-1292.5 524,-1292.5"/>
<text text-anchor="start" x="530.7034" y="-1305.3" font-family="Arial Bold" font-size="18.00" fill="#000000">public.platby_item</text>
<text text-anchor="start" x="674.7286" y="-1305.3" font-family="Arial" font-size="14.00" fill="#000000">    </text>
<text text-anchor="start" x="708.9334" y="-1305.3" font-family="Arial" font-size="14.00" fill="#666666">[BASE TABLE]</text>
<polygon fill="none" stroke="#000000" points="524,-1262.5 524,-1292.5 809,-1292.5 809,-1262.5 524,-1262.5"/>
<text text-anchor="start" x="531" y="-1273.9" font-family="Arial" font-size="14.00" fill="#000000">pi_id    </text>
<text text-anchor="start" x="594.7658" y="-1273.9" font-family="Arial" font-size="14.00" fill="#666666">[bigint]</text>
<polygon fill="none" stroke="#000000" points="524,-1232.5 524,-1262.5 809,-1262.5 809,-1232.5 524,-1232.5"/>
<text text-anchor="start" x="531" y="-1243.9" font-family="Arial" font-size="14.00" fill="#000000">pi_id_user    </text>
<text text-anchor="start" x="629.7742" y="-1243.9" font-family="Arial" font-size="14.00" fill="#666666">[bigint]</text>
<polygon fill="none" stroke="#000000" points="524,-1202.5 524,-1232.5 809,-1232.5 809,-1202.5 524,-1202.5"/>
<text text-anchor="start" x="531" y="-1213.9" font-family="Arial" font-size="14.00" fill="#000000">pi_id_category    </text>
<text text-anchor="start" x="656.23" y="-1213.9" font-family="Arial" font-size="14.00" fill="#666666">[bigint]</text>
<polygon fill="none" stroke="#000000" points="524,-1172.5 524,-1202.5 809,-1202.5 809,-1172.5 524,-1172.5"/>
<text text-anchor="start" x="531" y="-1183.9" font-family="Arial" font-size="14.00" fill="#000000">pi_id_raw    </text>
<text text-anchor="start" x="625.0982" y="-1183.9" font-family="Arial" font-size="14.00" fill="#666666">[bigint]</text>
<polygon fill="none" stroke="#000000" points="524,-1142.5 524,-1172.5 809,-1172.5 809,-1142.5 524,-1142.5"/>
<text text-anchor="start" x="531" y="-1153.9" font-family="Arial" font-size="14.00" fill="#000000">pi_amount    </text>
<text text-anchor="start" x="630.5582" y="-1153.9" font-family="Arial" font-size="14.00" fill="#666666">[numeric(10,2)]</text>
<polygon fill="none" stroke="#000000" points="524,-1112.5 524,-1142.5 809,-1142.5 809,-1112.5 524,-1112.5"/>
<text text-anchor="start" x="531" y="-1123.9" font-family="Arial" font-size="14.00" fill="#000000">pi_date    </text>
<text text-anchor="start" x="611.115" y="-1123.9" font-family="Arial" font-size="14.00" fill="#666666">[date]</text>
<polygon fill="none" stroke="#000000" points="524,-1082.5 524,-1112.5 809,-1112.5 809,-1082.5 524,-1082.5"/>
<text text-anchor="start" x="531" y="-1093.9" font-family="Arial" font-size="14.00" fill="#000000">pi_prefix    </text>
<text text-anchor="start" x="618.0996" y="-1093.9" font-family="Arial" font-size="14.00" fill="#666666">[integer]</text>
<polygon fill="none" stroke="#000000" points="524,-1052.5 524,-1082.5 809,-1082.5 809,-1052.5 524,-1052.5"/>
<text text-anchor="start" x="531" y="-1063.9" font-family="Arial" font-size="14.00" fill="#000000">id    </text>
<text text-anchor="start" x="576.094" y="-1063.9" font-family="Arial" font-size="14.00" fill="#666666">[bigint]</text>
<polygon fill="none" stroke="#000000" points="524,-1022.5 524,-1052.5 809,-1052.5 809,-1022.5 524,-1022.5"/>
<text text-anchor="start" x="531" y="-1033.9" font-family="Arial" font-size="14.00" fill="#000000">tenant_id    </text>
<text text-anchor="start" x="622.7882" y="-1033.9" font-family="Arial" font-size="14.00" fill="#666666">[bigint]</text>
<polygon fill="none" stroke="#000000" points="524,-992.5 524,-1022.5 809,-1022.5 809,-992.5 524,-992.5"/>
<text text-anchor="start" x="531" y="-1003.9" font-family="Arial" font-size="14.00" fill="#000000">status    </text>
<text text-anchor="start" x="602.5512" y="-1003.9" font-family="Arial" font-size="14.00" fill="#666666">[payment_status]</text>
</g>
<!-- public.platby_item&#45;&gt;public.platby_category -->
<g id="edge2" class="edge">
<title>public.platby_item:pi_id_category&#45;&gt;public.platby_category:pc_id</title>
<path fill="none" stroke="#000000" d="M514.1312,-1215.1889C467.8012,-1191.7257 493.1583,-996.5562 524,-950 546.6577,-915.7978 586.3423,-948.2022 609,-914 632.6863,-878.2451 651.8889,-817.5 609,-817.5"/>
<polygon fill="#000000" stroke="#000000" points="514.2634,-1215.2197 522.9739,-1221.8815 519.1317,-1216.3599 524,-1217.5 524,-1217.5 524,-1217.5 519.1317,-1216.3599 525.0261,-1213.1185 514.2634,-1215.2197 514.2634,-1215.2197"/>
<text text-anchor="start" x="531.042" y="-1227.5" font-family="Arial" font-size="10.00" fill="#000000">FOREIGN KEY (pi_id_category) REFERENCES platby_category(pc_id) ON UPDATE RESTRICT ON DELETE RESTRICT</text>
</g>
</g>
</svg>
