<?xml version="1.0" encoding="UTF-8" standalone="no"?>
<!DOCTYPE svg PUBLIC "-//W3C//DTD SVG 1.1//EN"
 "http://www.w3.org/Graphics/SVG/1.1/DTD/svg11.dtd">
<!-- Generated by graphviz version 2.40.1 (20161225.0304)
 -->
<!-- Title: public.dokumenty Pages: 1 -->
<svg width="1117pt" height="1072pt"
 viewBox="0.00 0.00 1117.00 1072.00" xmlns="http://www.w3.org/2000/svg" xmlns:xlink="http://www.w3.org/1999/xlink">
<g id="graph0" class="graph" transform="scale(1 1) rotate(0) translate(4 1068)">
<title>public.dokumenty</title>
<polygon fill="#ffffff" stroke="transparent" points="-4,4 -4,-1068 1113,-1068 1113,4 -4,4"/>
<!-- public.dokumenty -->
<g id="node1" class="node">
<title>public.dokumenty</title>
<polygon fill="#efefef" stroke="transparent" points="469,-982.5 469,-1017.5 750,-1017.5 750,-982.5 469,-982.5"/>
<polygon fill="none" stroke="#000000" points="469,-982.5 469,-1017.5 750,-1017.5 750,-982.5 469,-982.5"/>
<text text-anchor="start" x="475.6987" y="-995.3" font-family="Arial Bold" font-size="18.00" fill="#000000">public.dokumenty</text>
<text text-anchor="start" x="615.7333" y="-995.3" font-family="Arial" font-size="14.00" fill="#000000">    </text>
<text text-anchor="start" x="649.9381" y="-995.3" font-family="Arial" font-size="14.00" fill="#666666">[BASE TABLE]</text>
<polygon fill="none" stroke="#000000" points="469,-952.5 469,-982.5 750,-982.5 750,-952.5 469,-952.5"/>
<text text-anchor="start" x="476" y="-963.9" font-family="Arial" font-size="14.00" fill="#000000">d_id </text>
<text text-anchor="start" x="506.345" y="-963.9" font-family="Arial" font-size="14.00" fill="#666666">[bigint]</text>
<polygon fill="none" stroke="#000000" points="469,-922.5 469,-952.5 750,-952.5 750,-922.5 469,-922.5"/>
<text text-anchor="start" x="476" y="-933.9" font-family="Arial" font-size="14.00" fill="#000000">d_path </text>
<text text-anchor="start" x="522.6942" y="-933.9" font-family="Arial" font-size="14.00" fill="#666666">[text]</text>
<polygon fill="none" stroke="#000000" points="469,-892.5 469,-922.5 750,-922.5 750,-892.5 469,-892.5"/>
<text text-anchor="start" x="476" y="-903.9" font-family="Arial" font-size="14.00" fill="#000000">d_name </text>
<text text-anchor="start" x="530.4642" y="-903.9" font-family="Arial" font-size="14.00" fill="#666666">[text]</text>
<polygon fill="none" stroke="#000000" points="469,-862.5 469,-892.5 750,-892.5 750,-862.5 469,-862.5"/>
<text text-anchor="start" x="476" y="-873.9" font-family="Arial" font-size="14.00" fill="#000000">d_filename </text>
<text text-anchor="start" x="548.3506" y="-873.9" font-family="Arial" font-size="14.00" fill="#666666">[text]</text>
<polygon fill="none" stroke="#000000" points="469,-832.5 469,-862.5 750,-862.5 750,-832.5 469,-832.5"/>
<text text-anchor="start" x="476" y="-843.9" font-family="Arial" font-size="14.00" fill="#000000">d_kategorie </text>
<text text-anchor="start" x="553.0266" y="-843.9" font-family="Arial" font-size="14.00" fill="#666666">[smallint]</text>
<polygon fill="none" stroke="#000000" points="469,-802.5 469,-832.5 750,-832.5 750,-802.5 469,-802.5"/>
<text text-anchor="start" x="476" y="-813.9" font-family="Arial" font-size="14.00" fill="#000000">d_kdo </text>
<text text-anchor="start" x="518.021" y="-813.9" font-family="Arial" font-size="14.00" fill="#666666">[bigint]</text>
<polygon fill="none" stroke="#000000" points="469,-772.5 469,-802.5 750,-802.5 750,-772.5 469,-772.5"/>
<text text-anchor="start" x="476" y="-783.9" font-family="Arial" font-size="14.00" fill="#000000">updated_at </text>
<text text-anchor="start" x="549.9326" y="-783.9" font-family="Arial" font-size="14.00" fill="#666666">[timestamp with time zone]</text>
<polygon fill="none" stroke="#000000" points="469,-742.5 469,-772.5 750,-772.5 750,-742.5 469,-742.5"/>
<text text-anchor="start" x="476" y="-753.9" font-family="Arial" font-size="14.00" fill="#000000">id </text>
<text text-anchor="start" x="490.7798" y="-753.9" font-family="Arial" font-size="14.00" fill="#666666">[bigint]</text>
<polygon fill="none" stroke="#000000" points="469,-712.5 469,-742.5 750,-742.5 750,-712.5 469,-712.5"/>
<text text-anchor="start" x="476" y="-723.9" font-family="Arial" font-size="14.00" fill="#000000">tenant_id </text>
<text text-anchor="start" x="537.474" y="-723.9" font-family="Arial" font-size="14.00" fill="#666666">[bigint]</text>
<polygon fill="none" stroke="#000000" points="469,-682.5 469,-712.5 750,-712.5 750,-682.5 469,-682.5"/>
<text text-anchor="start" x="476" y="-693.9" font-family="Arial" font-size="14.00" fill="#000000">created_at </text>
<text text-anchor="start" x="546.028" y="-693.9" font-family="Arial" font-size="14.00" fill="#666666">[timestamp with time zone]</text>
<polygon fill="none" stroke="#000000" points="469,-652.5 469,-682.5 750,-682.5 750,-652.5 469,-652.5"/>
<text text-anchor="start" x="476" y="-663.9" font-family="Arial" font-size="14.00" fill="#000000">d_timestamp </text>
<text text-anchor="start" x="560.0126" y="-663.9" font-family="Arial" font-size="14.00" fill="#666666">[timestamp with time zone]</text>
<polygon fill="none" stroke="#000000" stroke-width="3" points="467,-651.5 467,-1019.5 751,-1019.5 751,-651.5 467,-651.5"/>
</g>
<!-- public.users -->
<g id="node2" class="node">
<title>public.users</title>
<polygon fill="#efefef" stroke="transparent" points="276,-492.5 276,-527.5 571,-527.5 571,-492.5 276,-492.5"/>
<polygon fill="none" stroke="#000000" points="276,-492.5 276,-527.5 571,-527.5 571,-492.5 276,-492.5"/>
<text text-anchor="start" x="311.7091" y="-505.3" font-family="Arial Bold" font-size="18.00" fill="#000000">public.users</text>
<text text-anchor="start" x="407.7229" y="-505.3" font-family="Arial" font-size="14.00" fill="#000000">    </text>
<text text-anchor="start" x="441.9277" y="-505.3" font-family="Arial" font-size="14.00" fill="#666666">[BASE TABLE]</text>
<polygon fill="none" stroke="#000000" points="276,-462.5 276,-492.5 571,-492.5 571,-462.5 276,-462.5"/>
<text text-anchor="start" x="283" y="-473.9" font-family="Arial" font-size="14.00" fill="#000000">u_id    </text>
<text text-anchor="start" x="343.6592" y="-473.9" font-family="Arial" font-size="14.00" fill="#666666">[bigint]</text>
<polygon fill="none" stroke="#000000" points="276,-432.5 276,-462.5 571,-462.5 571,-432.5 276,-432.5"/>
<text text-anchor="start" x="283" y="-443.9" font-family="Arial" font-size="14.00" fill="#000000">u_login    </text>
<text text-anchor="start" x="362.331" y="-443.9" font-family="Arial" font-size="14.00" fill="#666666">[citext]</text>
<polygon fill="none" stroke="#000000" points="276,-402.5 276,-432.5 571,-432.5 571,-402.5 276,-402.5"/>
<text text-anchor="start" x="283" y="-413.9" font-family="Arial" font-size="14.00" fill="#000000">u_pass    </text>
<text text-anchor="start" x="362.3352" y="-413.9" font-family="Arial" font-size="14.00" fill="#666666">[character(40)]</text>
<polygon fill="none" stroke="#000000" points="276,-372.5 276,-402.5 571,-402.5 571,-372.5 276,-372.5"/>
<text text-anchor="start" x="283" y="-383.9" font-family="Arial" font-size="14.00" fill="#000000">u_jmeno    </text>
<text text-anchor="start" x="370.885" y="-383.9" font-family="Arial" font-size="14.00" fill="#666666">[text]</text>
<polygon fill="none" stroke="#000000" points="276,-342.5 276,-372.5 571,-372.5 571,-342.5 276,-342.5"/>
<text text-anchor="start" x="283" y="-353.9" font-family="Arial" font-size="14.00" fill="#000000">u_prijmeni    </text>
<text text-anchor="start" x="381.7588" y="-353.9" font-family="Arial" font-size="14.00" fill="#666666">[text]</text>
<polygon fill="none" stroke="#000000" points="276,-312.5 276,-342.5 571,-342.5 571,-312.5 276,-312.5"/>
<text text-anchor="start" x="283" y="-323.9" font-family="Arial" font-size="14.00" fill="#000000">u_email    </text>
<text text-anchor="start" x="366.209" y="-323.9" font-family="Arial" font-size="14.00" fill="#666666">[citext]</text>
<polygon fill="none" stroke="#000000" points="276,-282.5 276,-312.5 571,-312.5 571,-282.5 276,-282.5"/>
<text text-anchor="start" x="283" y="-293.9" font-family="Arial" font-size="14.00" fill="#000000">updated_at    </text>
<text text-anchor="start" x="387.2468" y="-293.9" font-family="Arial" font-size="14.00" fill="#666666">[timestamp with time zone]</text>
<polygon fill="none" stroke="#000000" points="276,-252.5 276,-282.5 571,-282.5 571,-252.5 276,-252.5"/>
<text text-anchor="start" x="283" y="-263.9" font-family="Arial" font-size="14.00" fill="#000000">u_ban    </text>
<text text-anchor="start" x="356.1178" y="-263.9" font-family="Arial" font-size="14.00" fill="#666666">[boolean]</text>
<polygon fill="none" stroke="#000000" points="276,-222.5 276,-252.5 571,-252.5 571,-222.5 276,-222.5"/>
<text text-anchor="start" x="283" y="-233.9" font-family="Arial" font-size="14.00" fill="#000000">u_confirmed    </text>
<text text-anchor="start" x="394.2188" y="-233.9" font-family="Arial" font-size="14.00" fill="#666666">[boolean]</text>
<polygon fill="none" stroke="#000000" points="276,-192.5 276,-222.5 571,-222.5 571,-192.5 276,-192.5"/>
<text text-anchor="start" x="282.7041" y="-203.9" font-family="Arial" font-size="14.00" fill="#000000">u_created_at    </text>
<text text-anchor="start" x="398.6115" y="-203.9" font-family="Arial" font-size="14.00" fill="#666666">[timestamp with time zone]</text>
<polygon fill="none" stroke="#000000" points="276,-162.5 276,-192.5 571,-192.5 571,-162.5 276,-162.5"/>
<text text-anchor="start" x="283" y="-173.9" font-family="Arial" font-size="14.00" fill="#000000">id    </text>
<text text-anchor="start" x="328.094" y="-173.9" font-family="Arial" font-size="14.00" fill="#666666">[bigint]</text>
<polygon fill="none" stroke="#000000" points="276,-132.5 276,-162.5 571,-162.5 571,-132.5 276,-132.5"/>
<text text-anchor="start" x="283" y="-143.9" font-family="Arial" font-size="14.00" fill="#000000">tenant_id    </text>
<text text-anchor="start" x="374.7882" y="-143.9" font-family="Arial" font-size="14.00" fill="#666666">[bigint]</text>
<polygon fill="none" stroke="#000000" points="276,-102.5 276,-132.5 571,-132.5 571,-102.5 276,-102.5"/>
<text text-anchor="start" x="283" y="-113.9" font-family="Arial" font-size="14.00" fill="#000000">last_login    </text>
<text text-anchor="start" x="376.3282" y="-113.9" font-family="Arial" font-size="14.00" fill="#666666">[timestamp with time zone]</text>
<polygon fill="none" stroke="#000000" points="276,-72.5 276,-102.5 571,-102.5 571,-72.5 276,-72.5"/>
<text text-anchor="start" x="283" y="-83.9" font-family="Arial" font-size="14.00" fill="#000000">created_at    </text>
<text text-anchor="start" x="383.3422" y="-83.9" font-family="Arial" font-size="14.00" fill="#666666">[timestamp with time zone]</text>
<polygon fill="none" stroke="#000000" points="276,-42.5 276,-72.5 571,-72.5 571,-42.5 276,-42.5"/>
<text text-anchor="start" x="283" y="-53.9" font-family="Arial" font-size="14.00" fill="#000000">u_timestamp    </text>
<text text-anchor="start" x="397.3268" y="-53.9" font-family="Arial" font-size="14.00" fill="#666666">[timestamp with time zone]</text>
</g>
<!-- public.dokumenty&#45;&gt;public.users -->
<g id="edge1" class="edge">
<title>public.dokumenty:d_kdo&#45;&gt;public.users:u_id</title>
<path fill="none" stroke="#000000" d="M458.6386,-816.8975C378.5541,-807.1095 417.0756,-680.3898 469,-607 496.7662,-567.7553 543.2338,-610.2447 571,-571 595.0013,-537.0766 612.5556,-477.5 571,-477.5"/>
<polygon fill="#000000" stroke="#000000" points="459.0169,-816.9194 468.7387,-821.9924 464.0084,-817.2097 469,-817.5 469,-817.5 469,-817.5 464.0084,-817.2097 469.2613,-813.0076 459.0169,-816.9194 459.0169,-816.9194"/>
<text text-anchor="start" x="7.4985" y="-827.5" font-family="Arial" font-size="10.00" fill="#000000">FOREIGN KEY (d_kdo) REFERENCES users(u_id) ON UPDATE RESTRICT ON DELETE RESTRICT</text>
</g>
<!-- public.tenant -->
<g id="node3" class="node">
<title>public.tenant</title>
<polygon fill="#efefef" stroke="transparent" points="675,-387.5 675,-422.5 918,-422.5 918,-387.5 675,-387.5"/>
<polygon fill="none" stroke="#000000" points="675,-387.5 675,-422.5 918,-422.5 918,-387.5 675,-387.5"/>
<text text-anchor="start" x="681.6968" y="-400.3" font-family="Arial Bold" font-size="18.00" fill="#000000">public.tenant</text>
<text text-anchor="start" x="783.7352" y="-400.3" font-family="Arial" font-size="14.00" fill="#000000">    </text>
<text text-anchor="start" x="817.94" y="-400.3" font-family="Arial" font-size="14.00" fill="#666666">[BASE TABLE]</text>
<polygon fill="none" stroke="#000000" points="675,-357.5 675,-387.5 918,-387.5 918,-357.5 675,-357.5"/>
<text text-anchor="start" x="682" y="-368.9" font-family="Arial" font-size="14.00" fill="#000000">id    </text>
<text text-anchor="start" x="727.094" y="-368.9" font-family="Arial" font-size="14.00" fill="#666666">[bigint]</text>
<polygon fill="none" stroke="#000000" points="675,-327.5 675,-357.5 918,-357.5 918,-327.5 675,-327.5"/>
<text text-anchor="start" x="682" y="-338.9" font-family="Arial" font-size="14.00" fill="#000000">name    </text>
<text text-anchor="start" x="751.2132" y="-338.9" font-family="Arial" font-size="14.00" fill="#666666">[text]</text>
<polygon fill="none" stroke="#000000" points="675,-297.5 675,-327.5 918,-327.5 918,-297.5 675,-297.5"/>
<text text-anchor="start" x="682" y="-308.9" font-family="Arial" font-size="14.00" fill="#000000">origins    </text>
<text text-anchor="start" x="757.4264" y="-308.9" font-family="Arial" font-size="14.00" fill="#666666">[text[]]</text>
<polygon fill="none" stroke="#000000" points="675,-267.5 675,-297.5 918,-297.5 918,-267.5 675,-267.5"/>
<text text-anchor="start" x="682" y="-278.9" font-family="Arial" font-size="14.00" fill="#000000">cz_ico    </text>
<text text-anchor="start" x="755.8766" y="-278.9" font-family="Arial" font-size="14.00" fill="#666666">[text]</text>
<polygon fill="none" stroke="#000000" points="675,-237.5 675,-267.5 918,-267.5 918,-237.5 675,-237.5"/>
<text text-anchor="start" x="682" y="-248.9" font-family="Arial" font-size="14.00" fill="#000000">cz_dic    </text>
<text text-anchor="start" x="755.8766" y="-248.9" font-family="Arial" font-size="14.00" fill="#666666">[text]</text>
<polygon fill="none" stroke="#000000" points="675,-207.5 675,-237.5 918,-237.5 918,-207.5 675,-207.5"/>
<text text-anchor="start" x="682" y="-218.9" font-family="Arial" font-size="14.00" fill="#000000">address    </text>
<text text-anchor="start" x="765.9958" y="-218.9" font-family="Arial" font-size="14.00" fill="#666666">[address_domain]</text>
<polygon fill="none" stroke="#000000" points="675,-177.5 675,-207.5 918,-207.5 918,-177.5 675,-177.5"/>
<text text-anchor="start" x="682" y="-188.9" font-family="Arial" font-size="14.00" fill="#000000">description    </text>
<text text-anchor="start" x="783.8822" y="-188.9" font-family="Arial" font-size="14.00" fill="#666666">[text]</text>
<polygon fill="none" stroke="#000000" points="675,-147.5 675,-177.5 918,-177.5 918,-147.5 675,-147.5"/>
<text text-anchor="start" x="682" y="-158.9" font-family="Arial" font-size="14.00" fill="#000000">bank_account    </text>
<text text-anchor="start" x="803.3562" y="-158.9" font-family="Arial" font-size="14.00" fill="#666666">[text]</text>
</g>
<!-- public.dokumenty&#45;&gt;public.tenant -->
<g id="edge2" class="edge">
<title>public.dokumenty:tenant_id&#45;&gt;public.tenant:id</title>
<path fill="none" stroke="#000000" d="M760.1268,-726.8472C846.8167,-714.6656 692.2797,-535.2815 675,-466 664.9436,-425.6796 633.4444,-372.5 675,-372.5"/>
<polygon fill="#000000" stroke="#000000" points="759.9793,-726.8566 749.7105,-723.0093 754.9896,-727.1783 750,-727.5 750,-727.5 750,-727.5 754.9896,-727.1783 750.2895,-731.9907 759.9793,-726.8566 759.9793,-726.8566"/>
<text text-anchor="start" x="757.2065" y="-737.5" font-family="Arial" font-size="10.00" fill="#000000">FOREIGN KEY (tenant_id) REFERENCES tenant(id) ON DELETE CASCADE</text>
</g>
</g>
</svg>
