<?xml version="1.0" encoding="UTF-8" standalone="no"?>
<!DOCTYPE svg PUBLIC "-//W3C//DTD SVG 1.1//EN"
 "http://www.w3.org/Graphics/SVG/1.1/DTD/svg11.dtd">
<!-- Generated by graphviz version 2.40.1 (20161225.0304)
 -->
<!-- Title: public.event_instance Pages: 1 -->
<svg width="1661pt" height="1949pt"
 viewBox="0.00 0.00 1661.00 1949.00" xmlns="http://www.w3.org/2000/svg" xmlns:xlink="http://www.w3.org/1999/xlink">
<g id="graph0" class="graph" transform="scale(1 1) rotate(0) translate(4 1945)">
<title>public.event_instance</title>
<polygon fill="#ffffff" stroke="transparent" points="-4,4 -4,-1945 1657,-1945 1657,4 -4,4"/>
<!-- public.event_instance -->
<g id="node1" class="node">
<title>public.event_instance</title>
<polygon fill="#efefef" stroke="transparent" points="685,-1252.5 685,-1287.5 999,-1287.5 999,-1252.5 685,-1252.5"/>
<polygon fill="none" stroke="#000000" points="685,-1252.5 685,-1287.5 999,-1287.5 999,-1252.5 685,-1252.5"/>
<text text-anchor="start" x="691.6873" y="-1265.3" font-family="Arial Bold" font-size="18.00" fill="#000000">public.event_instance</text>
<text text-anchor="start" x="864.7447" y="-1265.3" font-family="Arial" font-size="14.00" fill="#000000">    </text>
<text text-anchor="start" x="898.9495" y="-1265.3" font-family="Arial" font-size="14.00" fill="#666666">[BASE TABLE]</text>
<polygon fill="none" stroke="#000000" points="685,-1222.5 685,-1252.5 999,-1252.5 999,-1222.5 685,-1222.5"/>
<text text-anchor="start" x="692" y="-1233.9" font-family="Arial" font-size="14.00" fill="#000000">id </text>
<text text-anchor="start" x="706.7798" y="-1233.9" font-family="Arial" font-size="14.00" fill="#666666">[bigint]</text>
<polygon fill="none" stroke="#000000" points="685,-1192.5 685,-1222.5 999,-1222.5 999,-1192.5 685,-1192.5"/>
<text text-anchor="start" x="692" y="-1203.9" font-family="Arial" font-size="14.00" fill="#000000">tenant_id </text>
<text text-anchor="start" x="753.474" y="-1203.9" font-family="Arial" font-size="14.00" fill="#666666">[bigint]</text>
<polygon fill="none" stroke="#000000" points="685,-1162.5 685,-1192.5 999,-1192.5 999,-1162.5 685,-1162.5"/>
<text text-anchor="start" x="692" y="-1173.9" font-family="Arial" font-size="14.00" fill="#000000">event_id </text>
<text text-anchor="start" x="748.8008" y="-1173.9" font-family="Arial" font-size="14.00" fill="#666666">[bigint]</text>
<polygon fill="none" stroke="#000000" points="685,-1132.5 685,-1162.5 999,-1162.5 999,-1132.5 685,-1132.5"/>
<text text-anchor="start" x="692" y="-1143.9" font-family="Arial" font-size="14.00" fill="#000000">created_at </text>
<text text-anchor="start" x="762.028" y="-1143.9" font-family="Arial" font-size="14.00" fill="#666666">[timestamp with time zone]</text>
<polygon fill="none" stroke="#000000" points="685,-1102.5 685,-1132.5 999,-1132.5 999,-1102.5 685,-1102.5"/>
<text text-anchor="start" x="692" y="-1113.9" font-family="Arial" font-size="14.00" fill="#000000">updated_at </text>
<text text-anchor="start" x="765.9326" y="-1113.9" font-family="Arial" font-size="14.00" fill="#666666">[timestamp with time zone]</text>
<polygon fill="none" stroke="#000000" points="685,-1072.5 685,-1102.5 999,-1102.5 999,-1072.5 685,-1072.5"/>
<text text-anchor="start" x="692" y="-1083.9" font-family="Arial" font-size="14.00" fill="#000000">since </text>
<text text-anchor="start" x="728.5624" y="-1083.9" font-family="Arial" font-size="14.00" fill="#666666">[timestamp with time zone]</text>
<polygon fill="none" stroke="#000000" points="685,-1042.5 685,-1072.5 999,-1072.5 999,-1042.5 685,-1042.5"/>
<text text-anchor="start" x="692" y="-1053.9" font-family="Arial" font-size="14.00" fill="#000000">until </text>
<text text-anchor="start" x="721.5596" y="-1053.9" font-family="Arial" font-size="14.00" fill="#666666">[timestamp with time zone]</text>
<polygon fill="none" stroke="#000000" points="685,-1012.5 685,-1042.5 999,-1042.5 999,-1012.5 685,-1012.5"/>
<text text-anchor="start" x="692" y="-1023.9" font-family="Arial" font-size="14.00" fill="#000000">range </text>
<text text-anchor="start" x="731.6816" y="-1023.9" font-family="Arial" font-size="14.00" fill="#666666">[tstzrange]</text>
<polygon fill="none" stroke="#000000" points="685,-982.5 685,-1012.5 999,-1012.5 999,-982.5 685,-982.5"/>
<text text-anchor="start" x="692" y="-993.9" font-family="Arial" font-size="14.00" fill="#000000">location_id </text>
<text text-anchor="start" x="762.7966" y="-993.9" font-family="Arial" font-size="14.00" fill="#666666">[bigint]</text>
<polygon fill="none" stroke="#000000" points="685,-952.5 685,-982.5 999,-982.5 999,-952.5 685,-952.5"/>
<text text-anchor="start" x="692" y="-963.9" font-family="Arial" font-size="14.00" fill="#000000">is_cancelled </text>
<text text-anchor="start" x="772.906" y="-963.9" font-family="Arial" font-size="14.00" fill="#666666">[boolean]</text>
<polygon fill="none" stroke="#000000" stroke-width="3" points="683.5,-951.5 683.5,-1289.5 1000.5,-1289.5 1000.5,-951.5 683.5,-951.5"/>
</g>
<!-- public.tenant -->
<g id="node5" class="node">
<title>public.tenant</title>
<polygon fill="#efefef" stroke="transparent" points="353,-537.5 353,-572.5 596,-572.5 596,-537.5 353,-537.5"/>
<polygon fill="none" stroke="#000000" points="353,-537.5 353,-572.5 596,-572.5 596,-537.5 353,-537.5"/>
<text text-anchor="start" x="359.6968" y="-550.3" font-family="Arial Bold" font-size="18.00" fill="#000000">public.tenant</text>
<text text-anchor="start" x="461.7352" y="-550.3" font-family="Arial" font-size="14.00" fill="#000000">    </text>
<text text-anchor="start" x="495.94" y="-550.3" font-family="Arial" font-size="14.00" fill="#666666">[BASE TABLE]</text>
<polygon fill="none" stroke="#000000" points="353,-507.5 353,-537.5 596,-537.5 596,-507.5 353,-507.5"/>
<text text-anchor="start" x="360" y="-518.9" font-family="Arial" font-size="14.00" fill="#000000">id    </text>
<text text-anchor="start" x="405.094" y="-518.9" font-family="Arial" font-size="14.00" fill="#666666">[bigint]</text>
<polygon fill="none" stroke="#000000" points="353,-477.5 353,-507.5 596,-507.5 596,-477.5 353,-477.5"/>
<text text-anchor="start" x="360" y="-488.9" font-family="Arial" font-size="14.00" fill="#000000">name    </text>
<text text-anchor="start" x="429.2132" y="-488.9" font-family="Arial" font-size="14.00" fill="#666666">[text]</text>
<polygon fill="none" stroke="#000000" points="353,-447.5 353,-477.5 596,-477.5 596,-447.5 353,-447.5"/>
<text text-anchor="start" x="360" y="-458.9" font-family="Arial" font-size="14.00" fill="#000000">origins    </text>
<text text-anchor="start" x="435.4264" y="-458.9" font-family="Arial" font-size="14.00" fill="#666666">[text[]]</text>
<polygon fill="none" stroke="#000000" points="353,-417.5 353,-447.5 596,-447.5 596,-417.5 353,-417.5"/>
<text text-anchor="start" x="360" y="-428.9" font-family="Arial" font-size="14.00" fill="#000000">cz_ico    </text>
<text text-anchor="start" x="433.8766" y="-428.9" font-family="Arial" font-size="14.00" fill="#666666">[text]</text>
<polygon fill="none" stroke="#000000" points="353,-387.5 353,-417.5 596,-417.5 596,-387.5 353,-387.5"/>
<text text-anchor="start" x="360" y="-398.9" font-family="Arial" font-size="14.00" fill="#000000">cz_dic    </text>
<text text-anchor="start" x="433.8766" y="-398.9" font-family="Arial" font-size="14.00" fill="#666666">[text]</text>
<polygon fill="none" stroke="#000000" points="353,-357.5 353,-387.5 596,-387.5 596,-357.5 353,-357.5"/>
<text text-anchor="start" x="360" y="-368.9" font-family="Arial" font-size="14.00" fill="#000000">address    </text>
<text text-anchor="start" x="443.9958" y="-368.9" font-family="Arial" font-size="14.00" fill="#666666">[address_domain]</text>
<polygon fill="none" stroke="#000000" points="353,-327.5 353,-357.5 596,-357.5 596,-327.5 353,-327.5"/>
<text text-anchor="start" x="360" y="-338.9" font-family="Arial" font-size="14.00" fill="#000000">description    </text>
<text text-anchor="start" x="461.8822" y="-338.9" font-family="Arial" font-size="14.00" fill="#666666">[text]</text>
<polygon fill="none" stroke="#000000" points="353,-297.5 353,-327.5 596,-327.5 596,-297.5 353,-297.5"/>
<text text-anchor="start" x="360" y="-308.9" font-family="Arial" font-size="14.00" fill="#000000">bank_account    </text>
<text text-anchor="start" x="481.3562" y="-308.9" font-family="Arial" font-size="14.00" fill="#666666">[text]</text>
</g>
<!-- public.event_instance&#45;&gt;public.tenant -->
<g id="edge4" class="edge">
<title>public.event_instance:tenant_id&#45;&gt;public.tenant:id</title>
<path fill="none" stroke="#000000" d="M675.4861,-1203.4773C613.7592,-1147.3393 669.303,-522.5 596,-522.5"/>
<polygon fill="#000000" stroke="#000000" points="675.7895,-1203.6055 683.2475,-1211.6447 680.3948,-1205.5527 685,-1207.5 685,-1207.5 685,-1207.5 680.3948,-1205.5527 686.7525,-1203.3553 675.7895,-1203.6055 675.7895,-1203.6055"/>
<text text-anchor="start" x="221.0955" y="-1217.5" font-family="Arial" font-size="10.00" fill="#000000">FOREIGN KEY (tenant_id) REFERENCES tenant(id) ON UPDATE CASCADE ON DELETE CASCADE</text>
</g>
<!-- public.event -->
<g id="node6" class="node">
<title>public.event</title>
<polygon fill="#efefef" stroke="transparent" points="700,-792.5 700,-827.5 983,-827.5 983,-792.5 700,-792.5"/>
<polygon fill="none" stroke="#000000" points="700,-792.5 700,-827.5 983,-827.5 983,-792.5 700,-792.5"/>
<text text-anchor="start" x="729.701" y="-805.3" font-family="Arial Bold" font-size="18.00" fill="#000000">public.event</text>
<text text-anchor="start" x="825.731" y="-805.3" font-family="Arial" font-size="14.00" fill="#000000">    </text>
<text text-anchor="start" x="859.9358" y="-805.3" font-family="Arial" font-size="14.00" fill="#666666">[BASE TABLE]</text>
<polygon fill="none" stroke="#000000" points="700,-762.5 700,-792.5 983,-792.5 983,-762.5 700,-762.5"/>
<text text-anchor="start" x="707" y="-773.9" font-family="Arial" font-size="14.00" fill="#000000">id    </text>
<text text-anchor="start" x="752.094" y="-773.9" font-family="Arial" font-size="14.00" fill="#666666">[bigint]</text>
<polygon fill="none" stroke="#000000" points="700,-732.5 700,-762.5 983,-762.5 983,-732.5 700,-732.5"/>
<text text-anchor="start" x="707" y="-743.9" font-family="Arial" font-size="14.00" fill="#000000">name    </text>
<text text-anchor="start" x="776.2132" y="-743.9" font-family="Arial" font-size="14.00" fill="#666666">[text]</text>
<polygon fill="none" stroke="#000000" points="700,-702.5 700,-732.5 983,-732.5 983,-702.5 700,-702.5"/>
<text text-anchor="start" x="707" y="-713.9" font-family="Arial" font-size="14.00" fill="#000000">location_text    </text>
<text text-anchor="start" x="819.7854" y="-713.9" font-family="Arial" font-size="14.00" fill="#666666">[text]</text>
<polygon fill="none" stroke="#000000" points="700,-672.5 700,-702.5 983,-702.5 983,-672.5 700,-672.5"/>
<text text-anchor="start" x="707" y="-683.9" font-family="Arial" font-size="14.00" fill="#000000">description    </text>
<text text-anchor="start" x="808.8822" y="-683.9" font-family="Arial" font-size="14.00" fill="#666666">[text]</text>
<polygon fill="none" stroke="#000000" points="700,-642.5 700,-672.5 983,-672.5 983,-642.5 700,-642.5"/>
<text text-anchor="start" x="707" y="-653.9" font-family="Arial" font-size="14.00" fill="#000000">since    </text>
<text text-anchor="start" x="773.8766" y="-653.9" font-family="Arial" font-size="14.00" fill="#666666">[date]</text>
<polygon fill="none" stroke="#000000" points="700,-612.5 700,-642.5 983,-642.5 983,-612.5 700,-612.5"/>
<text text-anchor="start" x="707" y="-623.9" font-family="Arial" font-size="14.00" fill="#000000">until    </text>
<text text-anchor="start" x="766.8738" y="-623.9" font-family="Arial" font-size="14.00" fill="#666666">[date]</text>
<polygon fill="none" stroke="#000000" points="700,-582.5 700,-612.5 983,-612.5 983,-582.5 700,-582.5"/>
<text text-anchor="start" x="707" y="-593.9" font-family="Arial" font-size="14.00" fill="#000000">capacity    </text>
<text text-anchor="start" x="792.5498" y="-593.9" font-family="Arial" font-size="14.00" fill="#666666">[integer]</text>
<polygon fill="none" stroke="#000000" points="700,-552.5 700,-582.5 983,-582.5 983,-552.5 700,-552.5"/>
<text text-anchor="start" x="707" y="-563.9" font-family="Arial" font-size="14.00" fill="#000000">files_legacy    </text>
<text text-anchor="start" x="814.3282" y="-563.9" font-family="Arial" font-size="14.00" fill="#666666">[text]</text>
<polygon fill="none" stroke="#000000" points="700,-522.5 700,-552.5 983,-552.5 983,-522.5 700,-522.5"/>
<text text-anchor="start" x="706.5344" y="-533.9" font-family="Arial" font-size="14.00" fill="#000000">updated_at    </text>
<text text-anchor="start" x="810.7812" y="-533.9" font-family="Arial" font-size="14.00" fill="#666666">[timestamp with time zone]</text>
<polygon fill="none" stroke="#000000" points="700,-492.5 700,-522.5 983,-522.5 983,-492.5 700,-492.5"/>
<text text-anchor="start" x="707" y="-503.9" font-family="Arial" font-size="14.00" fill="#000000">is_locked    </text>
<text text-anchor="start" x="799.5484" y="-503.9" font-family="Arial" font-size="14.00" fill="#666666">[boolean]</text>
<polygon fill="none" stroke="#000000" points="700,-462.5 700,-492.5 983,-492.5 983,-462.5 700,-462.5"/>
<text text-anchor="start" x="707" y="-473.9" font-family="Arial" font-size="14.00" fill="#000000">is_visible    </text>
<text text-anchor="start" x="797.979" y="-473.9" font-family="Arial" font-size="14.00" fill="#666666">[boolean]</text>
<polygon fill="none" stroke="#000000" points="700,-432.5 700,-462.5 983,-462.5 983,-432.5 700,-432.5"/>
<text text-anchor="start" x="707" y="-443.9" font-family="Arial" font-size="14.00" fill="#000000">summary    </text>
<text text-anchor="start" x="798.7518" y="-443.9" font-family="Arial" font-size="14.00" fill="#666666">[text]</text>
<polygon fill="none" stroke="#000000" points="700,-402.5 700,-432.5 983,-432.5 983,-402.5 700,-402.5"/>
<text text-anchor="start" x="707" y="-413.9" font-family="Arial" font-size="14.00" fill="#000000">is_public    </text>
<text text-anchor="start" x="795.655" y="-413.9" font-family="Arial" font-size="14.00" fill="#666666">[boolean]</text>
<polygon fill="none" stroke="#000000" points="700,-372.5 700,-402.5 983,-402.5 983,-372.5 700,-372.5"/>
<text text-anchor="start" x="707" y="-383.9" font-family="Arial" font-size="14.00" fill="#000000">enable_notes    </text>
<text text-anchor="start" x="825.2454" y="-383.9" font-family="Arial" font-size="14.00" fill="#666666">[boolean]</text>
<polygon fill="none" stroke="#000000" points="700,-342.5 700,-372.5 983,-372.5 983,-342.5 700,-342.5"/>
<text text-anchor="start" x="707" y="-353.9" font-family="Arial" font-size="14.00" fill="#000000">tenant_id    </text>
<text text-anchor="start" x="798.7882" y="-353.9" font-family="Arial" font-size="14.00" fill="#666666">[bigint]</text>
<polygon fill="none" stroke="#000000" points="700,-312.5 700,-342.5 983,-342.5 983,-312.5 700,-312.5"/>
<text text-anchor="start" x="707" y="-323.9" font-family="Arial" font-size="14.00" fill="#000000">description_member    </text>
<text text-anchor="start" x="867.9944" y="-323.9" font-family="Arial" font-size="14.00" fill="#666666">[text]</text>
<polygon fill="none" stroke="#000000" points="700,-282.5 700,-312.5 983,-312.5 983,-282.5 700,-282.5"/>
<text text-anchor="start" x="707" y="-293.9" font-family="Arial" font-size="14.00" fill="#000000">title_image_legacy    </text>
<text text-anchor="start" x="857.1164" y="-293.9" font-family="Arial" font-size="14.00" fill="#666666">[text]</text>
<polygon fill="none" stroke="#000000" points="700,-252.5 700,-282.5 983,-282.5 983,-252.5 700,-252.5"/>
<text text-anchor="start" x="707" y="-263.9" font-family="Arial" font-size="14.00" fill="#000000">type    </text>
<text text-anchor="start" x="767.6606" y="-263.9" font-family="Arial" font-size="14.00" fill="#666666">[event_type]</text>
<polygon fill="none" stroke="#000000" points="700,-222.5 700,-252.5 983,-252.5 983,-222.5 700,-222.5"/>
<text text-anchor="start" x="707" y="-233.9" font-family="Arial" font-size="14.00" fill="#000000">payment_type    </text>
<text text-anchor="start" x="829.1248" y="-233.9" font-family="Arial" font-size="14.00" fill="#666666">[event_payment_type]</text>
<polygon fill="none" stroke="#000000" points="700,-192.5 700,-222.5 983,-222.5 983,-192.5 700,-192.5"/>
<text text-anchor="start" x="707" y="-203.9" font-family="Arial" font-size="14.00" fill="#000000">member_price    </text>
<text text-anchor="start" x="830.6494" y="-203.9" font-family="Arial" font-size="14.00" fill="#666666">[price]</text>
<polygon fill="none" stroke="#000000" points="700,-162.5 700,-192.5 983,-192.5 983,-162.5 700,-162.5"/>
<text text-anchor="start" x="707" y="-173.9" font-family="Arial" font-size="14.00" fill="#000000">guest_price    </text>
<text text-anchor="start" x="813.5582" y="-173.9" font-family="Arial" font-size="14.00" fill="#666666">[price]</text>
<polygon fill="none" stroke="#000000" points="700,-132.5 700,-162.5 983,-162.5 983,-132.5 700,-132.5"/>
<text text-anchor="start" x="707" y="-143.9" font-family="Arial" font-size="14.00" fill="#000000">location_id    </text>
<text text-anchor="start" x="808.1108" y="-143.9" font-family="Arial" font-size="14.00" fill="#666666">[bigint]</text>
<polygon fill="none" stroke="#000000" points="700,-102.5 700,-132.5 983,-132.5 983,-102.5 700,-102.5"/>
<text text-anchor="start" x="707" y="-113.9" font-family="Arial" font-size="14.00" fill="#000000">is_paid_by_tenant    </text>
<text text-anchor="start" x="854.8078" y="-113.9" font-family="Arial" font-size="14.00" fill="#666666">[boolean]</text>
<polygon fill="none" stroke="#000000" points="700,-72.5 700,-102.5 983,-102.5 983,-72.5 700,-72.5"/>
<text text-anchor="start" x="707" y="-83.9" font-family="Arial" font-size="14.00" fill="#000000">payment_recipient_id    </text>
<text text-anchor="start" x="874.2356" y="-83.9" font-family="Arial" font-size="14.00" fill="#666666">[bigint]</text>
<polygon fill="none" stroke="#000000" points="700,-42.5 700,-72.5 983,-72.5 983,-42.5 700,-42.5"/>
<text text-anchor="start" x="707" y="-53.9" font-family="Arial" font-size="14.00" fill="#000000">created_at    </text>
<text text-anchor="start" x="807.3422" y="-53.9" font-family="Arial" font-size="14.00" fill="#666666">[timestamp with time zone]</text>
</g>
<!-- public.event_instance&#45;&gt;public.event -->
<g id="edge5" class="edge">
<title>public.event_instance:event_id&#45;&gt;public.event:id</title>
<path fill="none" stroke="#000000" d="M674.8443,-1177.0419C567.1829,-1166.9994 607.587,-994.3278 685,-907 773.4958,-807.17 894.5042,-970.83 983,-871 1010.5659,-839.9036 1024.5556,-777.5 983,-777.5"/>
<polygon fill="#000000" stroke="#000000" points="675.0102,-1177.0493 684.7972,-1181.9954 680.0051,-1177.2747 685,-1177.5 685,-1177.5 685,-1177.5 680.0051,-1177.2747 685.2028,-1173.0046 675.0102,-1177.0493 675.0102,-1177.0493"/>
<text text-anchor="start" x="227.4335" y="-1187.5" font-family="Arial" font-size="10.00" fill="#000000">FOREIGN KEY (event_id) REFERENCES event(id) ON UPDATE CASCADE ON DELETE CASCADE</text>
</g>
<!-- public.tenant_location -->
<g id="node7" class="node">
<title>public.tenant_location</title>
<polygon fill="#efefef" stroke="transparent" points="1087,-537.5 1087,-572.5 1402,-572.5 1402,-537.5 1087,-537.5"/>
<polygon fill="none" stroke="#000000" points="1087,-537.5 1087,-572.5 1402,-572.5 1402,-537.5 1087,-537.5"/>
<text text-anchor="start" x="1093.686" y="-550.3" font-family="Arial Bold" font-size="18.00" fill="#000000">public.tenant_location</text>
<text text-anchor="start" x="1267.746" y="-550.3" font-family="Arial" font-size="14.00" fill="#000000">    </text>
<text text-anchor="start" x="1301.9508" y="-550.3" font-family="Arial" font-size="14.00" fill="#666666">[BASE TABLE]</text>
<polygon fill="none" stroke="#000000" points="1087,-507.5 1087,-537.5 1402,-537.5 1402,-507.5 1087,-507.5"/>
<text text-anchor="start" x="1094" y="-518.9" font-family="Arial" font-size="14.00" fill="#000000">id    </text>
<text text-anchor="start" x="1139.094" y="-518.9" font-family="Arial" font-size="14.00" fill="#666666">[bigint]</text>
<polygon fill="none" stroke="#000000" points="1087,-477.5 1087,-507.5 1402,-507.5 1402,-477.5 1087,-477.5"/>
<text text-anchor="start" x="1094" y="-488.9" font-family="Arial" font-size="14.00" fill="#000000">name    </text>
<text text-anchor="start" x="1163.2132" y="-488.9" font-family="Arial" font-size="14.00" fill="#666666">[text]</text>
<polygon fill="none" stroke="#000000" points="1087,-447.5 1087,-477.5 1402,-477.5 1402,-447.5 1087,-447.5"/>
<text text-anchor="start" x="1094" y="-458.9" font-family="Arial" font-size="14.00" fill="#000000">description    </text>
<text text-anchor="start" x="1195.8822" y="-458.9" font-family="Arial" font-size="14.00" fill="#666666">[text]</text>
<polygon fill="none" stroke="#000000" points="1087,-417.5 1087,-447.5 1402,-447.5 1402,-417.5 1087,-417.5"/>
<text text-anchor="start" x="1094" y="-428.9" font-family="Arial" font-size="14.00" fill="#000000">address    </text>
<text text-anchor="start" x="1177.9958" y="-428.9" font-family="Arial" font-size="14.00" fill="#666666">[address_domain]</text>
<polygon fill="none" stroke="#000000" points="1087,-387.5 1087,-417.5 1402,-417.5 1402,-387.5 1087,-387.5"/>
<text text-anchor="start" x="1094" y="-398.9" font-family="Arial" font-size="14.00" fill="#000000">is_public    </text>
<text text-anchor="start" x="1182.655" y="-398.9" font-family="Arial" font-size="14.00" fill="#666666">[boolean]</text>
<polygon fill="none" stroke="#000000" points="1087,-357.5 1087,-387.5 1402,-387.5 1402,-357.5 1087,-357.5"/>
<text text-anchor="start" x="1094" y="-368.9" font-family="Arial" font-size="14.00" fill="#000000">tenant_id    </text>
<text text-anchor="start" x="1185.7882" y="-368.9" font-family="Arial" font-size="14.00" fill="#666666">[bigint]</text>
<polygon fill="none" stroke="#000000" points="1087,-327.5 1087,-357.5 1402,-357.5 1402,-327.5 1087,-327.5"/>
<text text-anchor="start" x="1094" y="-338.9" font-family="Arial" font-size="14.00" fill="#000000">created_at    </text>
<text text-anchor="start" x="1194.3422" y="-338.9" font-family="Arial" font-size="14.00" fill="#666666">[timestamp with time zone]</text>
<polygon fill="none" stroke="#000000" points="1087,-297.5 1087,-327.5 1402,-327.5 1402,-297.5 1087,-297.5"/>
<text text-anchor="start" x="1094" y="-308.9" font-family="Arial" font-size="14.00" fill="#000000">updated_at    </text>
<text text-anchor="start" x="1198.2468" y="-308.9" font-family="Arial" font-size="14.00" fill="#666666">[timestamp with time zone]</text>
</g>
<!-- public.event_instance&#45;&gt;public.tenant_location -->
<g id="edge6" class="edge">
<title>public.event_instance:location_id&#45;&gt;public.tenant_location:id</title>
<path fill="none" stroke="#000000" d="M1008.9363,-995.9638C1098.1959,-966.4807 983.2127,-522.5 1087,-522.5"/>
<polygon fill="#000000" stroke="#000000" points="1008.8826,-995.972 998.3124,-993.0528 1003.9413,-996.736 999,-997.5 999,-997.5 999,-997.5 1003.9413,-996.736 999.6876,-1001.9472 1008.8826,-995.972 1008.8826,-995.972"/>
<text text-anchor="start" x="1006.152" y="-1007.5" font-family="Arial" font-size="10.00" fill="#000000">FOREIGN KEY (location_id) REFERENCES tenant_location(id)</text>
</g>
<!-- public.payment -->
<g id="node2" class="node">
<title>public.payment</title>
<polygon fill="#efefef" stroke="transparent" points="267,-1862.5 267,-1897.5 550,-1897.5 550,-1862.5 267,-1862.5"/>
<polygon fill="none" stroke="#000000" points="267,-1862.5 267,-1897.5 550,-1897.5 550,-1862.5 267,-1862.5"/>
<text text-anchor="start" x="284.2018" y="-1875.3" font-family="Arial Bold" font-size="18.00" fill="#000000">public.payment</text>
<text text-anchor="start" x="405.2302" y="-1875.3" font-family="Arial" font-size="14.00" fill="#000000">    </text>
<text text-anchor="start" x="439.435" y="-1875.3" font-family="Arial" font-size="14.00" fill="#666666">[BASE TABLE]</text>
<polygon fill="none" stroke="#000000" points="267,-1832.5 267,-1862.5 550,-1862.5 550,-1832.5 267,-1832.5"/>
<text text-anchor="start" x="274" y="-1843.9" font-family="Arial" font-size="14.00" fill="#000000">id    </text>
<text text-anchor="start" x="319.094" y="-1843.9" font-family="Arial" font-size="14.00" fill="#666666">[bigint]</text>
<polygon fill="none" stroke="#000000" points="267,-1802.5 267,-1832.5 550,-1832.5 550,-1802.5 267,-1802.5"/>
<text text-anchor="start" x="274" y="-1813.9" font-family="Arial" font-size="14.00" fill="#000000">tenant_id    </text>
<text text-anchor="start" x="365.7882" y="-1813.9" font-family="Arial" font-size="14.00" fill="#666666">[bigint]</text>
<polygon fill="none" stroke="#000000" points="267,-1772.5 267,-1802.5 550,-1802.5 550,-1772.5 267,-1772.5"/>
<text text-anchor="start" x="274" y="-1783.9" font-family="Arial" font-size="14.00" fill="#000000">accounting_period_id    </text>
<text text-anchor="start" x="441.2496" y="-1783.9" font-family="Arial" font-size="14.00" fill="#666666">[bigint]</text>
<polygon fill="none" stroke="#000000" points="267,-1742.5 267,-1772.5 550,-1772.5 550,-1742.5 267,-1742.5"/>
<text text-anchor="start" x="274" y="-1753.9" font-family="Arial" font-size="14.00" fill="#000000">cohort_subscription_id    </text>
<text text-anchor="start" x="448.2356" y="-1753.9" font-family="Arial" font-size="14.00" fill="#666666">[bigint]</text>
<polygon fill="none" stroke="#000000" points="267,-1712.5 267,-1742.5 550,-1742.5 550,-1712.5 267,-1712.5"/>
<text text-anchor="start" x="274" y="-1723.9" font-family="Arial" font-size="14.00" fill="#000000">event_registration_id    </text>
<text text-anchor="start" x="438.1262" y="-1723.9" font-family="Arial" font-size="14.00" fill="#666666">[bigint]</text>
<polygon fill="none" stroke="#000000" points="267,-1682.5 267,-1712.5 550,-1712.5 550,-1682.5 267,-1682.5"/>
<text text-anchor="start" x="274" y="-1693.9" font-family="Arial" font-size="14.00" fill="#000000">event_instance_id    </text>
<text text-anchor="start" x="421.0252" y="-1693.9" font-family="Arial" font-size="14.00" fill="#666666">[bigint]</text>
<polygon fill="none" stroke="#000000" points="267,-1652.5 267,-1682.5 550,-1682.5 550,-1652.5 267,-1652.5"/>
<text text-anchor="start" x="274" y="-1663.9" font-family="Arial" font-size="14.00" fill="#000000">status    </text>
<text text-anchor="start" x="345.5512" y="-1663.9" font-family="Arial" font-size="14.00" fill="#666666">[payment_status]</text>
<polygon fill="none" stroke="#000000" points="267,-1622.5 267,-1652.5 550,-1652.5 550,-1622.5 267,-1622.5"/>
<text text-anchor="start" x="274" y="-1633.9" font-family="Arial" font-size="14.00" fill="#000000">variable_symbol    </text>
<text text-anchor="start" x="409.324" y="-1633.9" font-family="Arial" font-size="14.00" fill="#666666">[text]</text>
<polygon fill="none" stroke="#000000" points="267,-1592.5 267,-1622.5 550,-1622.5 550,-1592.5 267,-1592.5"/>
<text text-anchor="start" x="274" y="-1603.9" font-family="Arial" font-size="14.00" fill="#000000">specific_symbol    </text>
<text text-anchor="start" x="406.9888" y="-1603.9" font-family="Arial" font-size="14.00" fill="#666666">[text]</text>
<polygon fill="none" stroke="#000000" points="267,-1562.5 267,-1592.5 550,-1592.5 550,-1562.5 267,-1562.5"/>
<text text-anchor="start" x="274" y="-1573.9" font-family="Arial" font-size="14.00" fill="#000000">is_auto_credit_allowed    </text>
<text text-anchor="start" x="450.5708" y="-1573.9" font-family="Arial" font-size="14.00" fill="#666666">[boolean]</text>
<polygon fill="none" stroke="#000000" points="267,-1532.5 267,-1562.5 550,-1562.5 550,-1532.5 267,-1532.5"/>
<text text-anchor="start" x="274" y="-1543.9" font-family="Arial" font-size="14.00" fill="#000000">tags    </text>
<text text-anchor="start" x="334.6606" y="-1543.9" font-family="Arial" font-size="14.00" fill="#666666">[text[]]</text>
<polygon fill="none" stroke="#000000" points="267,-1502.5 267,-1532.5 550,-1532.5 550,-1502.5 267,-1502.5"/>
<text text-anchor="start" x="274" y="-1513.9" font-family="Arial" font-size="14.00" fill="#000000">due_at    </text>
<text text-anchor="start" x="351.0084" y="-1513.9" font-family="Arial" font-size="14.00" fill="#666666">[timestamp with time zone]</text>
<polygon fill="none" stroke="#000000" points="267,-1472.5 267,-1502.5 550,-1502.5 550,-1472.5 267,-1472.5"/>
<text text-anchor="start" x="274" y="-1483.9" font-family="Arial" font-size="14.00" fill="#000000">paid_at    </text>
<text text-anchor="start" x="354.115" y="-1483.9" font-family="Arial" font-size="14.00" fill="#666666">[timestamp with time zone]</text>
<polygon fill="none" stroke="#000000" points="267,-1442.5 267,-1472.5 550,-1472.5 550,-1442.5 267,-1442.5"/>
<text text-anchor="start" x="274" y="-1453.9" font-family="Arial" font-size="14.00" fill="#000000">created_at    </text>
<text text-anchor="start" x="374.3422" y="-1453.9" font-family="Arial" font-size="14.00" fill="#666666">[timestamp with time zone]</text>
<polygon fill="none" stroke="#000000" points="267,-1412.5 267,-1442.5 550,-1442.5 550,-1412.5 267,-1412.5"/>
<text text-anchor="start" x="273.5344" y="-1423.9" font-family="Arial" font-size="14.00" fill="#000000">updated_at    </text>
<text text-anchor="start" x="377.7812" y="-1423.9" font-family="Arial" font-size="14.00" fill="#666666">[timestamp with time zone]</text>
</g>
<!-- public.payment&#45;&gt;public.event_instance -->
<g id="edge1" class="edge">
<title>public.payment:event_instance_id&#45;&gt;public.event_instance:id</title>
<path fill="none" stroke="#000000" d="M559.9379,-1695.7028C619.088,-1672.7021 576.3365,-1435.5737 601,-1370 625.5464,-1304.7378 615.2743,-1237.5 685,-1237.5"/>
<polygon fill="#000000" stroke="#000000" points="559.8404,-1695.7204 549.1992,-1693.0718 554.9202,-1696.6102 550,-1697.5 550,-1697.5 550,-1697.5 554.9202,-1696.6102 550.8008,-1701.9282 559.8404,-1695.7204 559.8404,-1695.7204"/>
<text text-anchor="start" x="6.6405" y="-1707.5" font-family="Arial" font-size="10.00" fill="#000000">FOREIGN KEY (event_instance_id) REFERENCES event_instance(id) ON UPDATE CASCADE ON DELETE CASCADE</text>
</g>
<!-- public.event_instance_trainer -->
<g id="node3" class="node">
<title>public.event_instance_trainer</title>
<polygon fill="#efefef" stroke="transparent" points="654,-1742.5 654,-1777.5 1029,-1777.5 1029,-1742.5 654,-1742.5"/>
<polygon fill="none" stroke="#000000" points="654,-1742.5 654,-1777.5 1029,-1777.5 1029,-1742.5 654,-1742.5"/>
<text text-anchor="start" x="660.6845" y="-1755.3" font-family="Arial Bold" font-size="18.00" fill="#000000">public.event_instance_trainer</text>
<text text-anchor="start" x="894.7475" y="-1755.3" font-family="Arial" font-size="14.00" fill="#000000">    </text>
<text text-anchor="start" x="928.9523" y="-1755.3" font-family="Arial" font-size="14.00" fill="#666666">[BASE TABLE]</text>
<polygon fill="none" stroke="#000000" points="654,-1712.5 654,-1742.5 1029,-1742.5 1029,-1712.5 654,-1712.5"/>
<text text-anchor="start" x="661" y="-1723.9" font-family="Arial" font-size="14.00" fill="#000000">id    </text>
<text text-anchor="start" x="706.094" y="-1723.9" font-family="Arial" font-size="14.00" fill="#666666">[bigint]</text>
<polygon fill="none" stroke="#000000" points="654,-1682.5 654,-1712.5 1029,-1712.5 1029,-1682.5 654,-1682.5"/>
<text text-anchor="start" x="661" y="-1693.9" font-family="Arial" font-size="14.00" fill="#000000">tenant_id    </text>
<text text-anchor="start" x="752.7882" y="-1693.9" font-family="Arial" font-size="14.00" fill="#666666">[bigint]</text>
<polygon fill="none" stroke="#000000" points="654,-1652.5 654,-1682.5 1029,-1682.5 1029,-1652.5 654,-1652.5"/>
<text text-anchor="start" x="661" y="-1663.9" font-family="Arial" font-size="14.00" fill="#000000">instance_id    </text>
<text text-anchor="start" x="766.0042" y="-1663.9" font-family="Arial" font-size="14.00" fill="#666666">[bigint]</text>
<polygon fill="none" stroke="#000000" points="654,-1622.5 654,-1652.5 1029,-1652.5 1029,-1622.5 654,-1622.5"/>
<text text-anchor="start" x="661" y="-1633.9" font-family="Arial" font-size="14.00" fill="#000000">person_id    </text>
<text text-anchor="start" x="756.6676" y="-1633.9" font-family="Arial" font-size="14.00" fill="#666666">[bigint]</text>
<polygon fill="none" stroke="#000000" points="654,-1592.5 654,-1622.5 1029,-1622.5 1029,-1592.5 654,-1592.5"/>
<text text-anchor="start" x="661" y="-1603.9" font-family="Arial" font-size="14.00" fill="#000000">created_at    </text>
<text text-anchor="start" x="761.3422" y="-1603.9" font-family="Arial" font-size="14.00" fill="#666666">[timestamp with time zone]</text>
<polygon fill="none" stroke="#000000" points="654,-1562.5 654,-1592.5 1029,-1592.5 1029,-1562.5 654,-1562.5"/>
<text text-anchor="start" x="661" y="-1573.9" font-family="Arial" font-size="14.00" fill="#000000">updated_at    </text>
<text text-anchor="start" x="765.2468" y="-1573.9" font-family="Arial" font-size="14.00" fill="#666666">[timestamp with time zone]</text>
<polygon fill="none" stroke="#000000" points="654,-1532.5 654,-1562.5 1029,-1562.5 1029,-1532.5 654,-1532.5"/>
<text text-anchor="start" x="661" y="-1543.9" font-family="Arial" font-size="14.00" fill="#000000">lesson_price    </text>
<text text-anchor="start" x="773.7742" y="-1543.9" font-family="Arial" font-size="14.00" fill="#666666">[price]</text>
</g>
<!-- public.event_instance_trainer&#45;&gt;public.event_instance -->
<g id="edge2" class="edge">
<title>public.event_instance_trainer:instance_id&#45;&gt;public.event_instance:id</title>
<path fill="none" stroke="#000000" d="M1039.3466,-1666.7831C1104.4853,-1657.1745 1069.735,-1553.2008 1029,-1490 938.0529,-1348.8946 775.9471,-1475.1054 685,-1334 661.7648,-1297.9503 642.1111,-1237.5 685,-1237.5"/>
<polygon fill="#000000" stroke="#000000" points="1038.9761,-1666.8087 1028.6889,-1663.0108 1033.988,-1667.1544 1029,-1667.5 1029,-1667.5 1029,-1667.5 1033.988,-1667.1544 1029.3111,-1671.9892 1038.9761,-1666.8087 1038.9761,-1666.8087"/>
<text text-anchor="start" x="775.648" y="-1651.5" font-family="Arial" font-size="10.00" fill="#000000">FOREIGN KEY (instance_id) REFERENCES event_instance(id) ON UPDATE CASCADE ON DELETE CASCADE</text>
</g>
<!-- public.event_attendance -->
<g id="node4" class="node">
<title>public.event_attendance</title>
<polygon fill="#efefef" stroke="transparent" points="1133,-1772.5 1133,-1807.5 1469,-1807.5 1469,-1772.5 1133,-1772.5"/>
<polygon fill="none" stroke="#000000" points="1133,-1772.5 1133,-1807.5 1469,-1807.5 1469,-1772.5 1133,-1772.5"/>
<text text-anchor="start" x="1139.674" y="-1785.3" font-family="Arial Bold" font-size="18.00" fill="#000000">public.event_attendance</text>
<text text-anchor="start" x="1334.758" y="-1785.3" font-family="Arial" font-size="14.00" fill="#000000">    </text>
<text text-anchor="start" x="1368.9628" y="-1785.3" font-family="Arial" font-size="14.00" fill="#666666">[BASE TABLE]</text>
<polygon fill="none" stroke="#000000" points="1133,-1742.5 1133,-1772.5 1469,-1772.5 1469,-1742.5 1133,-1742.5"/>
<text text-anchor="start" x="1140" y="-1753.9" font-family="Arial" font-size="14.00" fill="#000000">id    </text>
<text text-anchor="start" x="1185.094" y="-1753.9" font-family="Arial" font-size="14.00" fill="#666666">[bigint]</text>
<polygon fill="none" stroke="#000000" points="1133,-1712.5 1133,-1742.5 1469,-1742.5 1469,-1712.5 1133,-1712.5"/>
<text text-anchor="start" x="1140" y="-1723.9" font-family="Arial" font-size="14.00" fill="#000000">tenant_id    </text>
<text text-anchor="start" x="1231.7882" y="-1723.9" font-family="Arial" font-size="14.00" fill="#666666">[bigint]</text>
<polygon fill="none" stroke="#000000" points="1133,-1682.5 1133,-1712.5 1469,-1712.5 1469,-1682.5 1133,-1682.5"/>
<text text-anchor="start" x="1140" y="-1693.9" font-family="Arial" font-size="14.00" fill="#000000">instance_id    </text>
<text text-anchor="start" x="1245.0042" y="-1693.9" font-family="Arial" font-size="14.00" fill="#666666">[bigint]</text>
<polygon fill="none" stroke="#000000" points="1133,-1652.5 1133,-1682.5 1469,-1682.5 1469,-1652.5 1133,-1652.5"/>
<text text-anchor="start" x="1140" y="-1663.9" font-family="Arial" font-size="14.00" fill="#000000">person_id    </text>
<text text-anchor="start" x="1235.6676" y="-1663.9" font-family="Arial" font-size="14.00" fill="#666666">[bigint]</text>
<polygon fill="none" stroke="#000000" points="1133,-1622.5 1133,-1652.5 1469,-1652.5 1469,-1622.5 1133,-1622.5"/>
<text text-anchor="start" x="1140" y="-1633.9" font-family="Arial" font-size="14.00" fill="#000000">status    </text>
<text text-anchor="start" x="1211.5512" y="-1633.9" font-family="Arial" font-size="14.00" fill="#666666">[attendance_type]</text>
<polygon fill="none" stroke="#000000" points="1133,-1592.5 1133,-1622.5 1469,-1622.5 1469,-1592.5 1133,-1592.5"/>
<text text-anchor="start" x="1140" y="-1603.9" font-family="Arial" font-size="14.00" fill="#000000">note    </text>
<text text-anchor="start" x="1201.4432" y="-1603.9" font-family="Arial" font-size="14.00" fill="#666666">[text]</text>
<polygon fill="none" stroke="#000000" points="1133,-1562.5 1133,-1592.5 1469,-1592.5 1469,-1562.5 1133,-1562.5"/>
<text text-anchor="start" x="1140" y="-1573.9" font-family="Arial" font-size="14.00" fill="#000000">created_at    </text>
<text text-anchor="start" x="1240.3422" y="-1573.9" font-family="Arial" font-size="14.00" fill="#666666">[timestamp with time zone]</text>
<polygon fill="none" stroke="#000000" points="1133,-1532.5 1133,-1562.5 1469,-1562.5 1469,-1532.5 1133,-1532.5"/>
<text text-anchor="start" x="1140" y="-1543.9" font-family="Arial" font-size="14.00" fill="#000000">updated_at    </text>
<text text-anchor="start" x="1244.2468" y="-1543.9" font-family="Arial" font-size="14.00" fill="#666666">[timestamp with time zone]</text>
<polygon fill="none" stroke="#000000" points="1133,-1502.5 1133,-1532.5 1469,-1532.5 1469,-1502.5 1133,-1502.5"/>
<text text-anchor="start" x="1140" y="-1513.9" font-family="Arial" font-size="14.00" fill="#000000">registration_id    </text>
<text text-anchor="start" x="1262.1052" y="-1513.9" font-family="Arial" font-size="14.00" fill="#666666">[bigint]</text>
</g>
<!-- public.event_attendance&#45;&gt;public.event_instance -->
<g id="edge3" class="edge">
<title>public.event_attendance:instance_id&#45;&gt;public.event_instance:id</title>
<path fill="none" stroke="#000000" d="M1123.0489,-1695.7037C1063.7614,-1672.7145 1105.417,-1435.7009 1081,-1370 1056.8747,-1305.0841 1068.2539,-1237.5 999,-1237.5"/>
<polygon fill="#000000" stroke="#000000" points="1123.159,-1695.7235 1132.2006,-1701.9284 1128.0795,-1696.6118 1133,-1697.5 1133,-1697.5 1133,-1697.5 1128.0795,-1696.6118 1133.7994,-1693.0716 1123.159,-1695.7235 1123.159,-1695.7235"/>
<text text-anchor="start" x="1139.648" y="-1707.5" font-family="Arial" font-size="10.00" fill="#000000">FOREIGN KEY (instance_id) REFERENCES event_instance(id) ON UPDATE CASCADE ON DELETE CASCADE</text>
</g>
</g>
</svg>
