<?xml version="1.0" encoding="UTF-8" standalone="no"?>
<!DOCTYPE svg PUBLIC "-//W3C//DTD SVG 1.1//EN"
 "http://www.w3.org/Graphics/SVG/1.1/DTD/svg11.dtd">
<!-- Generated by graphviz version 2.40.1 (20161225.0304)
 -->
<!-- Title: public.payment_debtor Pages: 1 -->
<svg width="1300pt" height="952pt"
 viewBox="0.00 0.00 1300.00 952.00" xmlns="http://www.w3.org/2000/svg" xmlns:xlink="http://www.w3.org/1999/xlink">
<g id="graph0" class="graph" transform="scale(1 1) rotate(0) translate(4 948)">
<title>public.payment_debtor</title>
<polygon fill="#ffffff" stroke="transparent" points="-4,4 -4,-948 1296,-948 1296,4 -4,4"/>
<!-- public.payment_debtor -->
<g id="node1" class="node">
<title>public.payment_debtor</title>
<polygon fill="#efefef" stroke="transparent" points="492,-862.5 492,-897.5 815,-897.5 815,-862.5 492,-862.5"/>
<polygon fill="none" stroke="#000000" points="492,-862.5 492,-897.5 815,-897.5 815,-862.5 492,-862.5"/>
<text text-anchor="start" x="498.6891" y="-875.3" font-family="Arial Bold" font-size="18.00" fill="#000000">public.payment_debtor</text>
<text text-anchor="start" x="680.7429" y="-875.3" font-family="Arial" font-size="14.00" fill="#000000">    </text>
<text text-anchor="start" x="714.9477" y="-875.3" font-family="Arial" font-size="14.00" fill="#666666">[BASE TABLE]</text>
<polygon fill="none" stroke="#000000" points="492,-832.5 492,-862.5 815,-862.5 815,-832.5 492,-832.5"/>
<text text-anchor="start" x="499" y="-843.9" font-family="Arial" font-size="14.00" fill="#000000">id </text>
<text text-anchor="start" x="513.7798" y="-843.9" font-family="Arial" font-size="14.00" fill="#666666">[bigint]</text>
<polygon fill="none" stroke="#000000" points="492,-802.5 492,-832.5 815,-832.5 815,-802.5 492,-802.5"/>
<text text-anchor="start" x="499" y="-813.9" font-family="Arial" font-size="14.00" fill="#000000">tenant_id </text>
<text text-anchor="start" x="560.474" y="-813.9" font-family="Arial" font-size="14.00" fill="#666666">[bigint]</text>
<polygon fill="none" stroke="#000000" points="492,-772.5 492,-802.5 815,-802.5 815,-772.5 492,-772.5"/>
<text text-anchor="start" x="499" y="-783.9" font-family="Arial" font-size="14.00" fill="#000000">payment_id </text>
<text text-anchor="start" x="575.244" y="-783.9" font-family="Arial" font-size="14.00" fill="#666666">[bigint]</text>
<polygon fill="none" stroke="#000000" points="492,-742.5 492,-772.5 815,-772.5 815,-742.5 492,-742.5"/>
<text text-anchor="start" x="499" y="-753.9" font-family="Arial" font-size="14.00" fill="#000000">person_id </text>
<text text-anchor="start" x="564.3534" y="-753.9" font-family="Arial" font-size="14.00" fill="#666666">[bigint]</text>
<polygon fill="none" stroke="#000000" stroke-width="3" points="490,-741.5 490,-899.5 816,-899.5 816,-741.5 490,-741.5"/>
</g>
<!-- public.tenant -->
<g id="node2" class="node">
<title>public.tenant</title>
<polygon fill="#efefef" stroke="transparent" points="165,-432.5 165,-467.5 408,-467.5 408,-432.5 165,-432.5"/>
<polygon fill="none" stroke="#000000" points="165,-432.5 165,-467.5 408,-467.5 408,-432.5 165,-432.5"/>
<text text-anchor="start" x="171.6968" y="-445.3" font-family="Arial Bold" font-size="18.00" fill="#000000">public.tenant</text>
<text text-anchor="start" x="273.7352" y="-445.3" font-family="Arial" font-size="14.00" fill="#000000">    </text>
<text text-anchor="start" x="307.94" y="-445.3" font-family="Arial" font-size="14.00" fill="#666666">[BASE TABLE]</text>
<polygon fill="none" stroke="#000000" points="165,-402.5 165,-432.5 408,-432.5 408,-402.5 165,-402.5"/>
<text text-anchor="start" x="172" y="-413.9" font-family="Arial" font-size="14.00" fill="#000000">id    </text>
<text text-anchor="start" x="217.094" y="-413.9" font-family="Arial" font-size="14.00" fill="#666666">[bigint]</text>
<polygon fill="none" stroke="#000000" points="165,-372.5 165,-402.5 408,-402.5 408,-372.5 165,-372.5"/>
<text text-anchor="start" x="172" y="-383.9" font-family="Arial" font-size="14.00" fill="#000000">name    </text>
<text text-anchor="start" x="241.2132" y="-383.9" font-family="Arial" font-size="14.00" fill="#666666">[text]</text>
<polygon fill="none" stroke="#000000" points="165,-342.5 165,-372.5 408,-372.5 408,-342.5 165,-342.5"/>
<text text-anchor="start" x="172" y="-353.9" font-family="Arial" font-size="14.00" fill="#000000">origins    </text>
<text text-anchor="start" x="247.4264" y="-353.9" font-family="Arial" font-size="14.00" fill="#666666">[text[]]</text>
<polygon fill="none" stroke="#000000" points="165,-312.5 165,-342.5 408,-342.5 408,-312.5 165,-312.5"/>
<text text-anchor="start" x="172" y="-323.9" font-family="Arial" font-size="14.00" fill="#000000">cz_ico    </text>
<text text-anchor="start" x="245.8766" y="-323.9" font-family="Arial" font-size="14.00" fill="#666666">[text]</text>
<polygon fill="none" stroke="#000000" points="165,-282.5 165,-312.5 408,-312.5 408,-282.5 165,-282.5"/>
<text text-anchor="start" x="172" y="-293.9" font-family="Arial" font-size="14.00" fill="#000000">cz_dic    </text>
<text text-anchor="start" x="245.8766" y="-293.9" font-family="Arial" font-size="14.00" fill="#666666">[text]</text>
<polygon fill="none" stroke="#000000" points="165,-252.5 165,-282.5 408,-282.5 408,-252.5 165,-252.5"/>
<text text-anchor="start" x="172" y="-263.9" font-family="Arial" font-size="14.00" fill="#000000">address    </text>
<text text-anchor="start" x="255.9958" y="-263.9" font-family="Arial" font-size="14.00" fill="#666666">[address_domain]</text>
<polygon fill="none" stroke="#000000" points="165,-222.5 165,-252.5 408,-252.5 408,-222.5 165,-222.5"/>
<text text-anchor="start" x="172" y="-233.9" font-family="Arial" font-size="14.00" fill="#000000">description    </text>
<text text-anchor="start" x="273.8822" y="-233.9" font-family="Arial" font-size="14.00" fill="#666666">[text]</text>
<polygon fill="none" stroke="#000000" points="165,-192.5 165,-222.5 408,-222.5 408,-192.5 165,-192.5"/>
<text text-anchor="start" x="172" y="-203.9" font-family="Arial" font-size="14.00" fill="#000000">bank_account    </text>
<text text-anchor="start" x="293.3562" y="-203.9" font-family="Arial" font-size="14.00" fill="#666666">[text]</text>
</g>
<!-- public.payment_debtor&#45;&gt;public.tenant -->
<g id="edge1" class="edge">
<title>public.payment_debtor:tenant_id&#45;&gt;public.tenant:id</title>
<path fill="none" stroke="#000000" d="M481.7492,-815.5365C408.866,-785.3604 495.1024,-417.5 408,-417.5"/>
<polygon fill="#000000" stroke="#000000" points="482.1786,-815.6186 491.1534,-821.9197 487.0893,-816.5593 492,-817.5 492,-817.5 492,-817.5 487.0893,-816.5593 492.8466,-813.0803 482.1786,-815.6186 482.1786,-815.6186"/>
<text text-anchor="start" x="28.0955" y="-827.5" font-family="Arial" font-size="10.00" fill="#000000">FOREIGN KEY (tenant_id) REFERENCES tenant(id) ON UPDATE CASCADE ON DELETE CASCADE</text>
</g>
<!-- public.payment -->
<g id="node3" class="node">
<title>public.payment</title>
<polygon fill="#efefef" stroke="transparent" points="512,-537.5 512,-572.5 795,-572.5 795,-537.5 512,-537.5"/>
<polygon fill="none" stroke="#000000" points="512,-537.5 512,-572.5 795,-572.5 795,-537.5 512,-537.5"/>
<text text-anchor="start" x="529.2018" y="-550.3" font-family="Arial Bold" font-size="18.00" fill="#000000">public.payment</text>
<text text-anchor="start" x="650.2302" y="-550.3" font-family="Arial" font-size="14.00" fill="#000000">    </text>
<text text-anchor="start" x="684.435" y="-550.3" font-family="Arial" font-size="14.00" fill="#666666">[BASE TABLE]</text>
<polygon fill="none" stroke="#000000" points="512,-507.5 512,-537.5 795,-537.5 795,-507.5 512,-507.5"/>
<text text-anchor="start" x="519" y="-518.9" font-family="Arial" font-size="14.00" fill="#000000">id    </text>
<text text-anchor="start" x="564.094" y="-518.9" font-family="Arial" font-size="14.00" fill="#666666">[bigint]</text>
<polygon fill="none" stroke="#000000" points="512,-477.5 512,-507.5 795,-507.5 795,-477.5 512,-477.5"/>
<text text-anchor="start" x="519" y="-488.9" font-family="Arial" font-size="14.00" fill="#000000">tenant_id    </text>
<text text-anchor="start" x="610.7882" y="-488.9" font-family="Arial" font-size="14.00" fill="#666666">[bigint]</text>
<polygon fill="none" stroke="#000000" points="512,-447.5 512,-477.5 795,-477.5 795,-447.5 512,-447.5"/>
<text text-anchor="start" x="519" y="-458.9" font-family="Arial" font-size="14.00" fill="#000000">accounting_period_id    </text>
<text text-anchor="start" x="686.2496" y="-458.9" font-family="Arial" font-size="14.00" fill="#666666">[bigint]</text>
<polygon fill="none" stroke="#000000" points="512,-417.5 512,-447.5 795,-447.5 795,-417.5 512,-417.5"/>
<text text-anchor="start" x="519" y="-428.9" font-family="Arial" font-size="14.00" fill="#000000">cohort_subscription_id    </text>
<text text-anchor="start" x="693.2356" y="-428.9" font-family="Arial" font-size="14.00" fill="#666666">[bigint]</text>
<polygon fill="none" stroke="#000000" points="512,-387.5 512,-417.5 795,-417.5 795,-387.5 512,-387.5"/>
<text text-anchor="start" x="519" y="-398.9" font-family="Arial" font-size="14.00" fill="#000000">event_registration_id    </text>
<text text-anchor="start" x="683.1262" y="-398.9" font-family="Arial" font-size="14.00" fill="#666666">[bigint]</text>
<polygon fill="none" stroke="#000000" points="512,-357.5 512,-387.5 795,-387.5 795,-357.5 512,-357.5"/>
<text text-anchor="start" x="519" y="-368.9" font-family="Arial" font-size="14.00" fill="#000000">event_instance_id    </text>
<text text-anchor="start" x="666.0252" y="-368.9" font-family="Arial" font-size="14.00" fill="#666666">[bigint]</text>
<polygon fill="none" stroke="#000000" points="512,-327.5 512,-357.5 795,-357.5 795,-327.5 512,-327.5"/>
<text text-anchor="start" x="519" y="-338.9" font-family="Arial" font-size="14.00" fill="#000000">status    </text>
<text text-anchor="start" x="590.5512" y="-338.9" font-family="Arial" font-size="14.00" fill="#666666">[payment_status]</text>
<polygon fill="none" stroke="#000000" points="512,-297.5 512,-327.5 795,-327.5 795,-297.5 512,-297.5"/>
<text text-anchor="start" x="519" y="-308.9" font-family="Arial" font-size="14.00" fill="#000000">variable_symbol    </text>
<text text-anchor="start" x="654.324" y="-308.9" font-family="Arial" font-size="14.00" fill="#666666">[text]</text>
<polygon fill="none" stroke="#000000" points="512,-267.5 512,-297.5 795,-297.5 795,-267.5 512,-267.5"/>
<text text-anchor="start" x="519" y="-278.9" font-family="Arial" font-size="14.00" fill="#000000">specific_symbol    </text>
<text text-anchor="start" x="651.9888" y="-278.9" font-family="Arial" font-size="14.00" fill="#666666">[text]</text>
<polygon fill="none" stroke="#000000" points="512,-237.5 512,-267.5 795,-267.5 795,-237.5 512,-237.5"/>
<text text-anchor="start" x="519" y="-248.9" font-family="Arial" font-size="14.00" fill="#000000">is_auto_credit_allowed    </text>
<text text-anchor="start" x="695.5708" y="-248.9" font-family="Arial" font-size="14.00" fill="#666666">[boolean]</text>
<polygon fill="none" stroke="#000000" points="512,-207.5 512,-237.5 795,-237.5 795,-207.5 512,-207.5"/>
<text text-anchor="start" x="519" y="-218.9" font-family="Arial" font-size="14.00" fill="#000000">tags    </text>
<text text-anchor="start" x="579.6606" y="-218.9" font-family="Arial" font-size="14.00" fill="#666666">[text[]]</text>
<polygon fill="none" stroke="#000000" points="512,-177.5 512,-207.5 795,-207.5 795,-177.5 512,-177.5"/>
<text text-anchor="start" x="519" y="-188.9" font-family="Arial" font-size="14.00" fill="#000000">due_at    </text>
<text text-anchor="start" x="596.0084" y="-188.9" font-family="Arial" font-size="14.00" fill="#666666">[timestamp with time zone]</text>
<polygon fill="none" stroke="#000000" points="512,-147.5 512,-177.5 795,-177.5 795,-147.5 512,-147.5"/>
<text text-anchor="start" x="519" y="-158.9" font-family="Arial" font-size="14.00" fill="#000000">paid_at    </text>
<text text-anchor="start" x="599.115" y="-158.9" font-family="Arial" font-size="14.00" fill="#666666">[timestamp with time zone]</text>
<polygon fill="none" stroke="#000000" points="512,-117.5 512,-147.5 795,-147.5 795,-117.5 512,-117.5"/>
<text text-anchor="start" x="519" y="-128.9" font-family="Arial" font-size="14.00" fill="#000000">created_at    </text>
<text text-anchor="start" x="619.3422" y="-128.9" font-family="Arial" font-size="14.00" fill="#666666">[timestamp with time zone]</text>
<polygon fill="none" stroke="#000000" points="512,-87.5 512,-117.5 795,-117.5 795,-87.5 512,-87.5"/>
<text text-anchor="start" x="518.5344" y="-98.9" font-family="Arial" font-size="14.00" fill="#000000">updated_at    </text>
<text text-anchor="start" x="622.7812" y="-98.9" font-family="Arial" font-size="14.00" fill="#666666">[timestamp with time zone]</text>
</g>
<!-- public.payment_debtor&#45;&gt;public.payment -->
<g id="edge2" class="edge">
<title>public.payment_debtor:payment_id&#45;&gt;public.payment:id</title>
<path fill="none" stroke="#000000" d="M484.7289,-780.4119C466.4689,-738.2694 485.3554,-522.5 512,-522.5"/>
<polygon fill="#000000" stroke="#000000" points="484.8394,-780.5196 488.8588,-790.7223 488.4197,-784.0098 492,-787.5 492,-787.5 492,-787.5 488.4197,-784.0098 495.1412,-784.2777 484.8394,-780.5196 484.8394,-780.5196"/>
<text text-anchor="start" x="6.5455" y="-797.5" font-family="Arial" font-size="10.00" fill="#000000">FOREIGN KEY (payment_id) REFERENCES payment(id) ON UPDATE CASCADE ON DELETE CASCADE</text>
</g>
<!-- public.person -->
<g id="node4" class="node">
<title>public.person</title>
<polygon fill="#efefef" stroke="transparent" points="899,-582.5 899,-617.5 1182,-617.5 1182,-582.5 899,-582.5"/>
<polygon fill="none" stroke="#000000" points="899,-582.5 899,-617.5 1182,-617.5 1182,-582.5 899,-582.5"/>
<text text-anchor="start" x="923.2029" y="-595.3" font-family="Arial Bold" font-size="18.00" fill="#000000">public.person</text>
<text text-anchor="start" x="1030.2291" y="-595.3" font-family="Arial" font-size="14.00" fill="#000000">    </text>
<text text-anchor="start" x="1064.4339" y="-595.3" font-family="Arial" font-size="14.00" fill="#666666">[BASE TABLE]</text>
<polygon fill="none" stroke="#000000" points="899,-552.5 899,-582.5 1182,-582.5 1182,-552.5 899,-552.5"/>
<text text-anchor="start" x="906" y="-563.9" font-family="Arial" font-size="14.00" fill="#000000">id    </text>
<text text-anchor="start" x="951.094" y="-563.9" font-family="Arial" font-size="14.00" fill="#666666">[bigint]</text>
<polygon fill="none" stroke="#000000" points="899,-522.5 899,-552.5 1182,-552.5 1182,-522.5 899,-522.5"/>
<text text-anchor="start" x="906" y="-533.9" font-family="Arial" font-size="14.00" fill="#000000">first_name    </text>
<text text-anchor="start" x="1005.5442" y="-533.9" font-family="Arial" font-size="14.00" fill="#666666">[text]</text>
<polygon fill="none" stroke="#000000" points="899,-492.5 899,-522.5 1182,-522.5 1182,-492.5 899,-492.5"/>
<text text-anchor="start" x="906" y="-503.9" font-family="Arial" font-size="14.00" fill="#000000">last_name    </text>
<text text-anchor="start" x="1004.7756" y="-503.9" font-family="Arial" font-size="14.00" fill="#666666">[text]</text>
<polygon fill="none" stroke="#000000" points="899,-462.5 899,-492.5 1182,-492.5 1182,-462.5 899,-462.5"/>
<text text-anchor="start" x="906" y="-473.9" font-family="Arial" font-size="14.00" fill="#000000">gender    </text>
<text text-anchor="start" x="983.7784" y="-473.9" font-family="Arial" font-size="14.00" fill="#666666">[gender_type]</text>
<polygon fill="none" stroke="#000000" points="899,-432.5 899,-462.5 1182,-462.5 1182,-432.5 899,-432.5"/>
<text text-anchor="start" x="906" y="-443.9" font-family="Arial" font-size="14.00" fill="#000000">birth_date    </text>
<text text-anchor="start" x="1002.4488" y="-443.9" font-family="Arial" font-size="14.00" fill="#666666">[date]</text>
<polygon fill="none" stroke="#000000" points="899,-402.5 899,-432.5 1182,-432.5 1182,-402.5 899,-402.5"/>
<text text-anchor="start" x="906" y="-413.9" font-family="Arial" font-size="14.00" fill="#000000">nationality    </text>
<text text-anchor="start" x="1003.2188" y="-413.9" font-family="Arial" font-size="14.00" fill="#666666">[text]</text>
<polygon fill="none" stroke="#000000" points="899,-372.5 899,-402.5 1182,-402.5 1182,-372.5 899,-372.5"/>
<text text-anchor="start" x="906" y="-383.9" font-family="Arial" font-size="14.00" fill="#000000">tax_identification_number    </text>
<text text-anchor="start" x="1099.6886" y="-383.9" font-family="Arial" font-size="14.00" fill="#666666">[text]</text>
<polygon fill="none" stroke="#000000" points="899,-342.5 899,-372.5 1182,-372.5 1182,-342.5 899,-342.5"/>
<text text-anchor="start" x="906" y="-353.9" font-family="Arial" font-size="14.00" fill="#000000">national_id_number    </text>
<text text-anchor="start" x="1063.1276" y="-353.9" font-family="Arial" font-size="14.00" fill="#666666">[text]</text>
<polygon fill="none" stroke="#000000" points="899,-312.5 899,-342.5 1182,-342.5 1182,-312.5 899,-312.5"/>
<text text-anchor="start" x="906" y="-323.9" font-family="Arial" font-size="14.00" fill="#000000">csts_id    </text>
<text text-anchor="start" x="983.7672" y="-323.9" font-family="Arial" font-size="14.00" fill="#666666">[text]</text>
<polygon fill="none" stroke="#000000" points="899,-282.5 899,-312.5 1182,-312.5 1182,-282.5 899,-282.5"/>
<text text-anchor="start" x="906" y="-293.9" font-family="Arial" font-size="14.00" fill="#000000">wdsf_id    </text>
<text text-anchor="start" x="987.6564" y="-293.9" font-family="Arial" font-size="14.00" fill="#666666">[text]</text>
<polygon fill="none" stroke="#000000" points="899,-252.5 899,-282.5 1182,-282.5 1182,-252.5 899,-252.5"/>
<text text-anchor="start" x="906" y="-263.9" font-family="Arial" font-size="14.00" fill="#000000">created_at    </text>
<text text-anchor="start" x="1006.3422" y="-263.9" font-family="Arial" font-size="14.00" fill="#666666">[timestamp with time zone]</text>
<polygon fill="none" stroke="#000000" points="899,-222.5 899,-252.5 1182,-252.5 1182,-222.5 899,-222.5"/>
<text text-anchor="start" x="905.5344" y="-233.9" font-family="Arial" font-size="14.00" fill="#000000">updated_at    </text>
<text text-anchor="start" x="1009.7812" y="-233.9" font-family="Arial" font-size="14.00" fill="#666666">[timestamp with time zone]</text>
<polygon fill="none" stroke="#000000" points="899,-192.5 899,-222.5 1182,-222.5 1182,-192.5 899,-192.5"/>
<text text-anchor="start" x="906" y="-203.9" font-family="Arial" font-size="14.00" fill="#000000">legacy_user_id    </text>
<text text-anchor="start" x="1034.3394" y="-203.9" font-family="Arial" font-size="14.00" fill="#666666">[bigint]</text>
<polygon fill="none" stroke="#000000" points="899,-162.5 899,-192.5 1182,-192.5 1182,-162.5 899,-162.5"/>
<text text-anchor="start" x="906" y="-173.9" font-family="Arial" font-size="14.00" fill="#000000">prefix_title    </text>
<text text-anchor="start" x="1003.9874" y="-173.9" font-family="Arial" font-size="14.00" fill="#666666">[text]</text>
<polygon fill="none" stroke="#000000" points="899,-132.5 899,-162.5 1182,-162.5 1182,-132.5 899,-132.5"/>
<text text-anchor="start" x="906" y="-143.9" font-family="Arial" font-size="14.00" fill="#000000">suffix_title    </text>
<text text-anchor="start" x="1002.4348" y="-143.9" font-family="Arial" font-size="14.00" fill="#666666">[text]</text>
<polygon fill="none" stroke="#000000" points="899,-102.5 899,-132.5 1182,-132.5 1182,-102.5 899,-102.5"/>
<text text-anchor="start" x="906" y="-113.9" font-family="Arial" font-size="14.00" fill="#000000">bio    </text>
<text text-anchor="start" x="958.8766" y="-113.9" font-family="Arial" font-size="14.00" fill="#666666">[text]</text>
<polygon fill="none" stroke="#000000" points="899,-72.5 899,-102.5 1182,-102.5 1182,-72.5 899,-72.5"/>
<text text-anchor="start" x="906" y="-83.9" font-family="Arial" font-size="14.00" fill="#000000">email    </text>
<text text-anchor="start" x="973.6438" y="-83.9" font-family="Arial" font-size="14.00" fill="#666666">[citext]</text>
<polygon fill="none" stroke="#000000" points="899,-42.5 899,-72.5 1182,-72.5 1182,-42.5 899,-42.5"/>
<text text-anchor="start" x="906" y="-53.9" font-family="Arial" font-size="14.00" fill="#000000">phone    </text>
<text text-anchor="start" x="979.1178" y="-53.9" font-family="Arial" font-size="14.00" fill="#666666">[text]</text>
</g>
<!-- public.payment_debtor&#45;&gt;public.person -->
<g id="edge3" class="edge">
<title>public.payment_debtor:person_id&#45;&gt;public.person:id</title>
<path fill="none" stroke="#000000" d="M825.4135,-756.5673C899.3965,-742.2337 810.4579,-567.5 899,-567.5"/>
<polygon fill="#000000" stroke="#000000" points="824.9601,-756.6078 814.5985,-753.0179 819.9801,-757.0539 815,-757.5 815,-757.5 815,-757.5 819.9801,-757.0539 815.4015,-761.9821 824.9601,-756.6078 824.9601,-756.6078"/>
<text text-anchor="start" x="822.3245" y="-767.5" font-family="Arial" font-size="10.00" fill="#000000">FOREIGN KEY (person_id) REFERENCES person(id) ON UPDATE CASCADE ON DELETE CASCADE</text>
</g>
</g>
</svg>
