<?xml version="1.0" encoding="UTF-8" standalone="no"?>
<!DOCTYPE svg PUBLIC "-//W3C//DTD SVG 1.1//EN"
 "http://www.w3.org/Graphics/SVG/1.1/DTD/svg11.dtd">
<!-- Generated by graphviz version 2.40.1 (20161225.0304)
 -->
<!-- Title: public.platby_raw Pages: 1 -->
<svg width="1020pt" height="1199pt"
 viewBox="0.00 0.00 1020.00 1199.00" xmlns="http://www.w3.org/2000/svg" xmlns:xlink="http://www.w3.org/1999/xlink">
<g id="graph0" class="graph" transform="scale(1 1) rotate(0) translate(4 1195)">
<title>public.platby_raw</title>
<polygon fill="#ffffff" stroke="transparent" points="-4,4 -4,-1195 1016,-1195 1016,4 -4,4"/>
<!-- public.platby_raw -->
<g id="node1" class="node">
<title>public.platby_raw</title>
<polygon fill="#efefef" stroke="transparent" points="219,-652.5 219,-687.5 499,-687.5 499,-652.5 219,-652.5"/>
<polygon fill="none" stroke="#000000" points="219,-652.5 219,-687.5 499,-687.5 499,-652.5 219,-652.5"/>
<text text-anchor="start" x="225.7045" y="-665.3" font-family="Arial Bold" font-size="18.00" fill="#000000">public.platby_raw</text>
<text text-anchor="start" x="364.7275" y="-665.3" font-family="Arial" font-size="14.00" fill="#000000">    </text>
<text text-anchor="start" x="398.9323" y="-665.3" font-family="Arial" font-size="14.00" fill="#666666">[BASE TABLE]</text>
<polygon fill="none" stroke="#000000" points="219,-622.5 219,-652.5 499,-652.5 499,-622.5 219,-622.5"/>
<text text-anchor="start" x="226" y="-633.9" font-family="Arial" font-size="14.00" fill="#000000">pr_id </text>
<text text-anchor="start" x="261.0056" y="-633.9" font-family="Arial" font-size="14.00" fill="#666666">[bigint]</text>
<polygon fill="none" stroke="#000000" points="219,-592.5 219,-622.5 499,-622.5 499,-592.5 219,-592.5"/>
<text text-anchor="start" x="226" y="-603.9" font-family="Arial" font-size="14.00" fill="#000000">pr_raw </text>
<text text-anchor="start" x="272.6662" y="-603.9" font-family="Arial" font-size="14.00" fill="#666666">[bytea]</text>
<polygon fill="none" stroke="#000000" points="219,-562.5 219,-592.5 499,-592.5 499,-562.5 219,-562.5"/>
<text text-anchor="start" x="226" y="-573.9" font-family="Arial" font-size="14.00" fill="#000000">pr_hash </text>
<text text-anchor="start" x="280.4642" y="-573.9" font-family="Arial" font-size="14.00" fill="#666666">[text]</text>
<polygon fill="none" stroke="#000000" points="219,-532.5 219,-562.5 499,-562.5 499,-532.5 219,-532.5"/>
<text text-anchor="start" x="226" y="-543.9" font-family="Arial" font-size="14.00" fill="#000000">pr_sorted </text>
<text text-anchor="start" x="289.0154" y="-543.9" font-family="Arial" font-size="14.00" fill="#666666">[boolean]</text>
<polygon fill="none" stroke="#000000" points="219,-502.5 219,-532.5 499,-532.5 499,-502.5 219,-502.5"/>
<text text-anchor="start" x="226" y="-513.9" font-family="Arial" font-size="14.00" fill="#000000">pr_discarded </text>
<text text-anchor="start" x="310.7966" y="-513.9" font-family="Arial" font-size="14.00" fill="#666666">[boolean]</text>
<polygon fill="none" stroke="#000000" points="219,-472.5 219,-502.5 499,-502.5 499,-472.5 219,-472.5"/>
<text text-anchor="start" x="226" y="-483.9" font-family="Arial" font-size="14.00" fill="#000000">id </text>
<text text-anchor="start" x="240.7798" y="-483.9" font-family="Arial" font-size="14.00" fill="#666666">[bigint]</text>
<polygon fill="none" stroke="#000000" points="219,-442.5 219,-472.5 499,-472.5 499,-442.5 219,-442.5"/>
<text text-anchor="start" x="226" y="-453.9" font-family="Arial" font-size="14.00" fill="#000000">tenant_id </text>
<text text-anchor="start" x="287.474" y="-453.9" font-family="Arial" font-size="14.00" fill="#666666">[bigint]</text>
<polygon fill="none" stroke="#000000" stroke-width="3" points="217.5,-441.5 217.5,-689.5 500.5,-689.5 500.5,-441.5 217.5,-441.5"/>
</g>
<!-- public.tenant -->
<g id="node3" class="node">
<title>public.tenant</title>
<polygon fill="#efefef" stroke="transparent" points="237,-282.5 237,-317.5 480,-317.5 480,-282.5 237,-282.5"/>
<polygon fill="none" stroke="#000000" points="237,-282.5 237,-317.5 480,-317.5 480,-282.5 237,-282.5"/>
<text text-anchor="start" x="243.6968" y="-295.3" font-family="Arial Bold" font-size="18.00" fill="#000000">public.tenant</text>
<text text-anchor="start" x="345.7352" y="-295.3" font-family="Arial" font-size="14.00" fill="#000000">    </text>
<text text-anchor="start" x="379.94" y="-295.3" font-family="Arial" font-size="14.00" fill="#666666">[BASE TABLE]</text>
<polygon fill="none" stroke="#000000" points="237,-252.5 237,-282.5 480,-282.5 480,-252.5 237,-252.5"/>
<text text-anchor="start" x="244" y="-263.9" font-family="Arial" font-size="14.00" fill="#000000">id    </text>
<text text-anchor="start" x="289.094" y="-263.9" font-family="Arial" font-size="14.00" fill="#666666">[bigint]</text>
<polygon fill="none" stroke="#000000" points="237,-222.5 237,-252.5 480,-252.5 480,-222.5 237,-222.5"/>
<text text-anchor="start" x="244" y="-233.9" font-family="Arial" font-size="14.00" fill="#000000">name    </text>
<text text-anchor="start" x="313.2132" y="-233.9" font-family="Arial" font-size="14.00" fill="#666666">[text]</text>
<polygon fill="none" stroke="#000000" points="237,-192.5 237,-222.5 480,-222.5 480,-192.5 237,-192.5"/>
<text text-anchor="start" x="244" y="-203.9" font-family="Arial" font-size="14.00" fill="#000000">origins    </text>
<text text-anchor="start" x="319.4264" y="-203.9" font-family="Arial" font-size="14.00" fill="#666666">[text[]]</text>
<polygon fill="none" stroke="#000000" points="237,-162.5 237,-192.5 480,-192.5 480,-162.5 237,-162.5"/>
<text text-anchor="start" x="244" y="-173.9" font-family="Arial" font-size="14.00" fill="#000000">cz_ico    </text>
<text text-anchor="start" x="317.8766" y="-173.9" font-family="Arial" font-size="14.00" fill="#666666">[text]</text>
<polygon fill="none" stroke="#000000" points="237,-132.5 237,-162.5 480,-162.5 480,-132.5 237,-132.5"/>
<text text-anchor="start" x="244" y="-143.9" font-family="Arial" font-size="14.00" fill="#000000">cz_dic    </text>
<text text-anchor="start" x="317.8766" y="-143.9" font-family="Arial" font-size="14.00" fill="#666666">[text]</text>
<polygon fill="none" stroke="#000000" points="237,-102.5 237,-132.5 480,-132.5 480,-102.5 237,-102.5"/>
<text text-anchor="start" x="244" y="-113.9" font-family="Arial" font-size="14.00" fill="#000000">address    </text>
<text text-anchor="start" x="327.9958" y="-113.9" font-family="Arial" font-size="14.00" fill="#666666">[address_domain]</text>
<polygon fill="none" stroke="#000000" points="237,-72.5 237,-102.5 480,-102.5 480,-72.5 237,-72.5"/>
<text text-anchor="start" x="244" y="-83.9" font-family="Arial" font-size="14.00" fill="#000000">description    </text>
<text text-anchor="start" x="345.8822" y="-83.9" font-family="Arial" font-size="14.00" fill="#666666">[text]</text>
<polygon fill="none" stroke="#000000" points="237,-42.5 237,-72.5 480,-72.5 480,-42.5 237,-42.5"/>
<text text-anchor="start" x="244" y="-53.9" font-family="Arial" font-size="14.00" fill="#000000">bank_account    </text>
<text text-anchor="start" x="365.3562" y="-53.9" font-family="Arial" font-size="14.00" fill="#666666">[text]</text>
</g>
<!-- public.platby_raw&#45;&gt;public.tenant -->
<g id="edge2" class="edge">
<title>public.platby_raw:tenant_id&#45;&gt;public.tenant:id</title>
<path fill="none" stroke="#000000" d="M359.844,-432.4601C369.0639,-381.9439 451.2663,-414.9974 480,-361 499.5212,-324.315 521.5556,-267.5 480,-267.5"/>
<polygon fill="#000000" stroke="#000000" points="359.8378,-432.5352 354.5158,-442.123 359.4189,-437.5176 359,-442.5 359,-442.5 359,-442.5 359.4189,-437.5176 363.4842,-442.877 359.8378,-432.5352 359.8378,-432.5352"/>
<text text-anchor="start" x="7.2065" y="-452.5" font-family="Arial" font-size="10.00" fill="#000000">FOREIGN KEY (tenant_id) REFERENCES tenant(id) ON DELETE CASCADE</text>
</g>
<!-- public.platby_item -->
<g id="node2" class="node">
<title>public.platby_item</title>
<polygon fill="#efefef" stroke="transparent" points="216,-1112.5 216,-1147.5 501,-1147.5 501,-1112.5 216,-1112.5"/>
<polygon fill="none" stroke="#000000" points="216,-1112.5 216,-1147.5 501,-1147.5 501,-1112.5 216,-1112.5"/>
<text text-anchor="start" x="222.7034" y="-1125.3" font-family="Arial Bold" font-size="18.00" fill="#000000">public.platby_item</text>
<text text-anchor="start" x="366.7286" y="-1125.3" font-family="Arial" font-size="14.00" fill="#000000">    </text>
<text text-anchor="start" x="400.9334" y="-1125.3" font-family="Arial" font-size="14.00" fill="#666666">[BASE TABLE]</text>
<polygon fill="none" stroke="#000000" points="216,-1082.5 216,-1112.5 501,-1112.5 501,-1082.5 216,-1082.5"/>
<text text-anchor="start" x="223" y="-1093.9" font-family="Arial" font-size="14.00" fill="#000000">pi_id    </text>
<text text-anchor="start" x="286.7658" y="-1093.9" font-family="Arial" font-size="14.00" fill="#666666">[bigint]</text>
<polygon fill="none" stroke="#000000" points="216,-1052.5 216,-1082.5 501,-1082.5 501,-1052.5 216,-1052.5"/>
<text text-anchor="start" x="223" y="-1063.9" font-family="Arial" font-size="14.00" fill="#000000">pi_id_user    </text>
<text text-anchor="start" x="321.7742" y="-1063.9" font-family="Arial" font-size="14.00" fill="#666666">[bigint]</text>
<polygon fill="none" stroke="#000000" points="216,-1022.5 216,-1052.5 501,-1052.5 501,-1022.5 216,-1022.5"/>
<text text-anchor="start" x="223" y="-1033.9" font-family="Arial" font-size="14.00" fill="#000000">pi_id_category    </text>
<text text-anchor="start" x="348.23" y="-1033.9" font-family="Arial" font-size="14.00" fill="#666666">[bigint]</text>
<polygon fill="none" stroke="#000000" points="216,-992.5 216,-1022.5 501,-1022.5 501,-992.5 216,-992.5"/>
<text text-anchor="start" x="223" y="-1003.9" font-family="Arial" font-size="14.00" fill="#000000">pi_id_raw    </text>
<text text-anchor="start" x="317.0982" y="-1003.9" font-family="Arial" font-size="14.00" fill="#666666">[bigint]</text>
<polygon fill="none" stroke="#000000" points="216,-962.5 216,-992.5 501,-992.5 501,-962.5 216,-962.5"/>
<text text-anchor="start" x="223" y="-973.9" font-family="Arial" font-size="14.00" fill="#000000">pi_amount    </text>
<text text-anchor="start" x="322.5582" y="-973.9" font-family="Arial" font-size="14.00" fill="#666666">[numeric(10,2)]</text>
<polygon fill="none" stroke="#000000" points="216,-932.5 216,-962.5 501,-962.5 501,-932.5 216,-932.5"/>
<text text-anchor="start" x="223" y="-943.9" font-family="Arial" font-size="14.00" fill="#000000">pi_date    </text>
<text text-anchor="start" x="303.115" y="-943.9" font-family="Arial" font-size="14.00" fill="#666666">[date]</text>
<polygon fill="none" stroke="#000000" points="216,-902.5 216,-932.5 501,-932.5 501,-902.5 216,-902.5"/>
<text text-anchor="start" x="223" y="-913.9" font-family="Arial" font-size="14.00" fill="#000000">pi_prefix    </text>
<text text-anchor="start" x="310.0996" y="-913.9" font-family="Arial" font-size="14.00" fill="#666666">[integer]</text>
<polygon fill="none" stroke="#000000" points="216,-872.5 216,-902.5 501,-902.5 501,-872.5 216,-872.5"/>
<text text-anchor="start" x="223" y="-883.9" font-family="Arial" font-size="14.00" fill="#000000">id    </text>
<text text-anchor="start" x="268.094" y="-883.9" font-family="Arial" font-size="14.00" fill="#666666">[bigint]</text>
<polygon fill="none" stroke="#000000" points="216,-842.5 216,-872.5 501,-872.5 501,-842.5 216,-842.5"/>
<text text-anchor="start" x="223" y="-853.9" font-family="Arial" font-size="14.00" fill="#000000">tenant_id    </text>
<text text-anchor="start" x="314.7882" y="-853.9" font-family="Arial" font-size="14.00" fill="#666666">[bigint]</text>
<polygon fill="none" stroke="#000000" points="216,-812.5 216,-842.5 501,-842.5 501,-812.5 216,-812.5"/>
<text text-anchor="start" x="223" y="-823.9" font-family="Arial" font-size="14.00" fill="#000000">status    </text>
<text text-anchor="start" x="294.5512" y="-823.9" font-family="Arial" font-size="14.00" fill="#666666">[payment_status]</text>
</g>
<!-- public.platby_item&#45;&gt;public.platby_raw -->
<g id="edge1" class="edge">
<title>public.platby_item:pi_id_raw&#45;&gt;public.platby_raw:pr_id</title>
<path fill="none" stroke="#000000" d="M511.0507,-1006.9852C604.1406,-997.0766 568.4373,-846.5936 501,-770 417.505,-675.1684 302.495,-828.8316 219,-734 190.6581,-701.81 176.1111,-637.5 219,-637.5"/>
<polygon fill="#000000" stroke="#000000" points="510.9869,-1006.9884 500.7698,-1003.0059 505.9935,-1007.2442 501,-1007.5 501,-1007.5 501,-1007.5 505.9935,-1007.2442 501.2302,-1011.9941 510.9869,-1006.9884 510.9869,-1006.9884"/>
<text text-anchor="start" x="508.1145" y="-1017.5" font-family="Arial" font-size="10.00" fill="#000000">FOREIGN KEY (pi_id_raw) REFERENCES platby_raw(pr_id) ON UPDATE RESTRICT ON DELETE RESTRICT</text>
</g>
</g>
</svg>
