<?xml version="1.0" encoding="UTF-8" standalone="no"?>
<!DOCTYPE svg PUBLIC "-//W3C//DTD SVG 1.1//EN"
 "http://www.w3.org/Graphics/SVG/1.1/DTD/svg11.dtd">
<!-- Generated by graphviz version 2.40.1 (20161225.0304)
 -->
<!-- Title: public.form_responses Pages: 1 -->
<svg width="574pt" height="742pt"
 viewBox="0.00 0.00 574.00 742.00" xmlns="http://www.w3.org/2000/svg" xmlns:xlink="http://www.w3.org/1999/xlink">
<g id="graph0" class="graph" transform="scale(1 1) rotate(0) translate(4 738)">
<title>public.form_responses</title>
<polygon fill="#ffffff" stroke="transparent" points="-4,4 -4,-738 570,-738 570,4 -4,4"/>
<!-- public.form_responses -->
<g id="node1" class="node">
<title>public.form_responses</title>
<polygon fill="#efefef" stroke="transparent" points="198,-652.5 198,-687.5 520,-687.5 520,-652.5 198,-652.5"/>
<polygon fill="none" stroke="#000000" points="198,-652.5 198,-687.5 520,-687.5 520,-652.5 198,-652.5"/>
<text text-anchor="start" x="204.7003" y="-665.3" font-family="Arial Bold" font-size="18.00" fill="#000000">public.form_responses</text>
<text text-anchor="start" x="385.7317" y="-665.3" font-family="Arial" font-size="14.00" fill="#000000">    </text>
<text text-anchor="start" x="419.9365" y="-665.3" font-family="Arial" font-size="14.00" fill="#666666">[BASE TABLE]</text>
<polygon fill="none" stroke="#000000" points="198,-622.5 198,-652.5 520,-652.5 520,-622.5 198,-622.5"/>
<text text-anchor="start" x="205" y="-633.9" font-family="Arial" font-size="14.00" fill="#000000">id </text>
<text text-anchor="start" x="219.7798" y="-633.9" font-family="Arial" font-size="14.00" fill="#666666">[bigint]</text>
<polygon fill="none" stroke="#000000" points="198,-592.5 198,-622.5 520,-622.5 520,-592.5 198,-592.5"/>
<text text-anchor="start" x="205" y="-603.9" font-family="Arial" font-size="14.00" fill="#000000">type </text>
<text text-anchor="start" x="235.3464" y="-603.9" font-family="Arial" font-size="14.00" fill="#666666">[text]</text>
<polygon fill="none" stroke="#000000" points="198,-562.5 198,-592.5 520,-592.5 520,-562.5 198,-562.5"/>
<text text-anchor="start" x="205" y="-573.9" font-family="Arial" font-size="14.00" fill="#000000">data </text>
<text text-anchor="start" x="236.129" y="-573.9" font-family="Arial" font-size="14.00" fill="#666666">[jsonb]</text>
<polygon fill="none" stroke="#000000" points="198,-532.5 198,-562.5 520,-562.5 520,-532.5 198,-532.5"/>
<text text-anchor="start" x="205" y="-543.9" font-family="Arial" font-size="14.00" fill="#000000">url </text>
<text text-anchor="start" x="224.4404" y="-543.9" font-family="Arial" font-size="14.00" fill="#666666">[text]</text>
<polygon fill="none" stroke="#000000" points="198,-502.5 198,-532.5 520,-532.5 520,-502.5 198,-502.5"/>
<text text-anchor="start" x="205" y="-513.9" font-family="Arial" font-size="14.00" fill="#000000">created_at </text>
<text text-anchor="start" x="275.028" y="-513.9" font-family="Arial" font-size="14.00" fill="#666666">[timestamp with time zone]</text>
<polygon fill="none" stroke="#000000" points="198,-472.5 198,-502.5 520,-502.5 520,-472.5 198,-472.5"/>
<text text-anchor="start" x="205" y="-483.9" font-family="Arial" font-size="14.00" fill="#000000">updated_at </text>
<text text-anchor="start" x="278.9326" y="-483.9" font-family="Arial" font-size="14.00" fill="#666666">[timestamp with time zone]</text>
<polygon fill="none" stroke="#000000" points="198,-442.5 198,-472.5 520,-472.5 520,-442.5 198,-442.5"/>
<text text-anchor="start" x="205" y="-453.9" font-family="Arial" font-size="14.00" fill="#000000">tenant_id </text>
<text text-anchor="start" x="266.474" y="-453.9" font-family="Arial" font-size="14.00" fill="#666666">[bigint]</text>
<polygon fill="none" stroke="#000000" stroke-width="3" points="196.5,-441.5 196.5,-689.5 521.5,-689.5 521.5,-441.5 196.5,-441.5"/>
</g>
<!-- public.tenant -->
<g id="node2" class="node">
<title>public.tenant</title>
<polygon fill="#efefef" stroke="transparent" points="237,-282.5 237,-317.5 480,-317.5 480,-282.5 237,-282.5"/>
<polygon fill="none" stroke="#000000" points="237,-282.5 237,-317.5 480,-317.5 480,-282.5 237,-282.5"/>
<text text-anchor="start" x="243.6968" y="-295.3" font-family="Arial Bold" font-size="18.00" fill="#000000">public.tenant</text>
<text text-anchor="start" x="345.7352" y="-295.3" font-family="Arial" font-size="14.00" fill="#000000">    </text>
<text text-anchor="start" x="379.94" y="-295.3" font-family="Arial" font-size="14.00" fill="#666666">[BASE TABLE]</text>
<polygon fill="none" stroke="#000000" points="237,-252.5 237,-282.5 480,-282.5 480,-252.5 237,-252.5"/>
<text text-anchor="start" x="244" y="-263.9" font-family="Arial" font-size="14.00" fill="#000000">id    </text>
<text text-anchor="start" x="289.094" y="-263.9" font-family="Arial" font-size="14.00" fill="#666666">[bigint]</text>
<polygon fill="none" stroke="#000000" points="237,-222.5 237,-252.5 480,-252.5 480,-222.5 237,-222.5"/>
<text text-anchor="start" x="244" y="-233.9" font-family="Arial" font-size="14.00" fill="#000000">name    </text>
<text text-anchor="start" x="313.2132" y="-233.9" font-family="Arial" font-size="14.00" fill="#666666">[text]</text>
<polygon fill="none" stroke="#000000" points="237,-192.5 237,-222.5 480,-222.5 480,-192.5 237,-192.5"/>
<text text-anchor="start" x="244" y="-203.9" font-family="Arial" font-size="14.00" fill="#000000">origins    </text>
<text text-anchor="start" x="319.4264" y="-203.9" font-family="Arial" font-size="14.00" fill="#666666">[text[]]</text>
<polygon fill="none" stroke="#000000" points="237,-162.5 237,-192.5 480,-192.5 480,-162.5 237,-162.5"/>
<text text-anchor="start" x="244" y="-173.9" font-family="Arial" font-size="14.00" fill="#000000">cz_ico    </text>
<text text-anchor="start" x="317.8766" y="-173.9" font-family="Arial" font-size="14.00" fill="#666666">[text]</text>
<polygon fill="none" stroke="#000000" points="237,-132.5 237,-162.5 480,-162.5 480,-132.5 237,-132.5"/>
<text text-anchor="start" x="244" y="-143.9" font-family="Arial" font-size="14.00" fill="#000000">cz_dic    </text>
<text text-anchor="start" x="317.8766" y="-143.9" font-family="Arial" font-size="14.00" fill="#666666">[text]</text>
<polygon fill="none" stroke="#000000" points="237,-102.5 237,-132.5 480,-132.5 480,-102.5 237,-102.5"/>
<text text-anchor="start" x="244" y="-113.9" font-family="Arial" font-size="14.00" fill="#000000">address    </text>
<text text-anchor="start" x="327.9958" y="-113.9" font-family="Arial" font-size="14.00" fill="#666666">[address_domain]</text>
<polygon fill="none" stroke="#000000" points="237,-72.5 237,-102.5 480,-102.5 480,-72.5 237,-72.5"/>
<text text-anchor="start" x="244" y="-83.9" font-family="Arial" font-size="14.00" fill="#000000">description    </text>
<text text-anchor="start" x="345.8822" y="-83.9" font-family="Arial" font-size="14.00" fill="#666666">[text]</text>
<polygon fill="none" stroke="#000000" points="237,-42.5 237,-72.5 480,-72.5 480,-42.5 237,-42.5"/>
<text text-anchor="start" x="244" y="-53.9" font-family="Arial" font-size="14.00" fill="#000000">bank_account    </text>
<text text-anchor="start" x="365.3562" y="-53.9" font-family="Arial" font-size="14.00" fill="#666666">[text]</text>
</g>
<!-- public.form_responses&#45;&gt;public.tenant -->
<g id="edge1" class="edge">
<title>public.form_responses:tenant_id&#45;&gt;public.tenant:id</title>
<path fill="none" stroke="#000000" d="M359.844,-432.4601C369.0639,-381.9439 451.2663,-414.9974 480,-361 499.5212,-324.315 521.5556,-267.5 480,-267.5"/>
<polygon fill="#000000" stroke="#000000" points="359.8378,-432.5352 354.5158,-442.123 359.4189,-437.5176 359,-442.5 359,-442.5 359,-442.5 359.4189,-437.5176 363.4842,-442.877 359.8378,-432.5352 359.8378,-432.5352"/>
<text text-anchor="start" x="7.2065" y="-452.5" font-family="Arial" font-size="10.00" fill="#000000">FOREIGN KEY (tenant_id) REFERENCES tenant(id) ON DELETE CASCADE</text>
</g>
</g>
</svg>
