<?xml version="1.0" encoding="UTF-8" standalone="no"?>
<!DOCTYPE svg PUBLIC "-//W3C//DTD SVG 1.1//EN"
 "http://www.w3.org/Graphics/SVG/1.1/DTD/svg11.dtd">
<!-- Generated by graphviz version 2.40.1 (20161225.0304)
 -->
<!-- Title: public.attachment Pages: 1 -->
<svg width="1442pt" height="1199pt"
 viewBox="0.00 0.00 1442.00 1199.00" xmlns="http://www.w3.org/2000/svg" xmlns:xlink="http://www.w3.org/1999/xlink">
<g id="graph0" class="graph" transform="scale(1 1) rotate(0) translate(4 1195)">
<title>public.attachment</title>
<polygon fill="#ffffff" stroke="transparent" points="-4,4 -4,-1195 1438,-1195 1438,4 -4,4"/>
<!-- public.attachment -->
<g id="node1" class="node">
<title>public.attachment</title>
<polygon fill="#efefef" stroke="transparent" points="577,-862.5 577,-897.5 859,-897.5 859,-862.5 577,-862.5"/>
<polygon fill="none" stroke="#000000" points="577,-862.5 577,-897.5 859,-897.5 859,-862.5 577,-862.5"/>
<text text-anchor="start" x="583.6965" y="-875.3" font-family="Arial Bold" font-size="18.00" fill="#000000">public.attachment</text>
<text text-anchor="start" x="724.7355" y="-875.3" font-family="Arial" font-size="14.00" fill="#000000">    </text>
<text text-anchor="start" x="758.9403" y="-875.3" font-family="Arial" font-size="14.00" fill="#666666">[BASE TABLE]</text>
<polygon fill="none" stroke="#000000" points="577,-832.5 577,-862.5 859,-862.5 859,-832.5 577,-832.5"/>
<text text-anchor="start" x="584" y="-843.9" font-family="Arial" font-size="14.00" fill="#000000">object_name </text>
<text text-anchor="start" x="668.0266" y="-843.9" font-family="Arial" font-size="14.00" fill="#666666">[text]</text>
<polygon fill="none" stroke="#000000" points="577,-802.5 577,-832.5 859,-832.5 859,-802.5 577,-802.5"/>
<text text-anchor="start" x="584" y="-813.9" font-family="Arial" font-size="14.00" fill="#000000">preview_object_name </text>
<text text-anchor="start" x="724.0308" y="-813.9" font-family="Arial" font-size="14.00" fill="#666666">[text]</text>
<polygon fill="none" stroke="#000000" points="577,-772.5 577,-802.5 859,-802.5 859,-772.5 577,-772.5"/>
<text text-anchor="start" x="584" y="-783.9" font-family="Arial" font-size="14.00" fill="#000000">uploaded_by </text>
<text text-anchor="start" x="668.0406" y="-783.9" font-family="Arial" font-size="14.00" fill="#666666">[bigint]</text>
<polygon fill="none" stroke="#000000" points="577,-742.5 577,-772.5 859,-772.5 859,-742.5 577,-742.5"/>
<text text-anchor="start" x="584" y="-753.9" font-family="Arial" font-size="14.00" fill="#000000">uploaded_at </text>
<text text-anchor="start" x="664.9312" y="-753.9" font-family="Arial" font-size="14.00" fill="#666666">[timestamp with time zone]</text>
<polygon fill="none" stroke="#000000" points="577,-712.5 577,-742.5 859,-742.5 859,-712.5 577,-712.5"/>
<text text-anchor="start" x="584" y="-723.9" font-family="Arial" font-size="14.00" fill="#000000">thumbhash </text>
<text text-anchor="start" x="657.1374" y="-723.9" font-family="Arial" font-size="14.00" fill="#666666">[text]</text>
<polygon fill="none" stroke="#000000" points="577,-682.5 577,-712.5 859,-712.5 859,-682.5 577,-682.5"/>
<text text-anchor="start" x="584" y="-693.9" font-family="Arial" font-size="14.00" fill="#000000">width </text>
<text text-anchor="start" x="620.5596" y="-693.9" font-family="Arial" font-size="14.00" fill="#666666">[integer]</text>
<polygon fill="none" stroke="#000000" points="577,-652.5 577,-682.5 859,-682.5 859,-652.5 577,-652.5"/>
<text text-anchor="start" x="584" y="-663.9" font-family="Arial" font-size="14.00" fill="#000000">height </text>
<text text-anchor="start" x="626.0182" y="-663.9" font-family="Arial" font-size="14.00" fill="#666666">[integer]</text>
<polygon fill="none" stroke="#000000" stroke-width="3" points="575.5,-651.5 575.5,-899.5 860.5,-899.5 860.5,-651.5 575.5,-651.5"/>
</g>
<!-- public.users -->
<g id="node5" class="node">
<title>public.users</title>
<polygon fill="#efefef" stroke="transparent" points="570,-492.5 570,-527.5 865,-527.5 865,-492.5 570,-492.5"/>
<polygon fill="none" stroke="#000000" points="570,-492.5 570,-527.5 865,-527.5 865,-492.5 570,-492.5"/>
<text text-anchor="start" x="605.7091" y="-505.3" font-family="Arial Bold" font-size="18.00" fill="#000000">public.users</text>
<text text-anchor="start" x="701.7229" y="-505.3" font-family="Arial" font-size="14.00" fill="#000000">    </text>
<text text-anchor="start" x="735.9277" y="-505.3" font-family="Arial" font-size="14.00" fill="#666666">[BASE TABLE]</text>
<polygon fill="none" stroke="#000000" points="570,-462.5 570,-492.5 865,-492.5 865,-462.5 570,-462.5"/>
<text text-anchor="start" x="577" y="-473.9" font-family="Arial" font-size="14.00" fill="#000000">u_id    </text>
<text text-anchor="start" x="637.6592" y="-473.9" font-family="Arial" font-size="14.00" fill="#666666">[bigint]</text>
<polygon fill="none" stroke="#000000" points="570,-432.5 570,-462.5 865,-462.5 865,-432.5 570,-432.5"/>
<text text-anchor="start" x="577" y="-443.9" font-family="Arial" font-size="14.00" fill="#000000">u_login    </text>
<text text-anchor="start" x="656.331" y="-443.9" font-family="Arial" font-size="14.00" fill="#666666">[citext]</text>
<polygon fill="none" stroke="#000000" points="570,-402.5 570,-432.5 865,-432.5 865,-402.5 570,-402.5"/>
<text text-anchor="start" x="577" y="-413.9" font-family="Arial" font-size="14.00" fill="#000000">u_pass    </text>
<text text-anchor="start" x="656.3352" y="-413.9" font-family="Arial" font-size="14.00" fill="#666666">[character(40)]</text>
<polygon fill="none" stroke="#000000" points="570,-372.5 570,-402.5 865,-402.5 865,-372.5 570,-372.5"/>
<text text-anchor="start" x="577" y="-383.9" font-family="Arial" font-size="14.00" fill="#000000">u_jmeno    </text>
<text text-anchor="start" x="664.885" y="-383.9" font-family="Arial" font-size="14.00" fill="#666666">[text]</text>
<polygon fill="none" stroke="#000000" points="570,-342.5 570,-372.5 865,-372.5 865,-342.5 570,-342.5"/>
<text text-anchor="start" x="577" y="-353.9" font-family="Arial" font-size="14.00" fill="#000000">u_prijmeni    </text>
<text text-anchor="start" x="675.7588" y="-353.9" font-family="Arial" font-size="14.00" fill="#666666">[text]</text>
<polygon fill="none" stroke="#000000" points="570,-312.5 570,-342.5 865,-342.5 865,-312.5 570,-312.5"/>
<text text-anchor="start" x="577" y="-323.9" font-family="Arial" font-size="14.00" fill="#000000">u_email    </text>
<text text-anchor="start" x="660.209" y="-323.9" font-family="Arial" font-size="14.00" fill="#666666">[citext]</text>
<polygon fill="none" stroke="#000000" points="570,-282.5 570,-312.5 865,-312.5 865,-282.5 570,-282.5"/>
<text text-anchor="start" x="577" y="-293.9" font-family="Arial" font-size="14.00" fill="#000000">updated_at    </text>
<text text-anchor="start" x="681.2468" y="-293.9" font-family="Arial" font-size="14.00" fill="#666666">[timestamp with time zone]</text>
<polygon fill="none" stroke="#000000" points="570,-252.5 570,-282.5 865,-282.5 865,-252.5 570,-252.5"/>
<text text-anchor="start" x="577" y="-263.9" font-family="Arial" font-size="14.00" fill="#000000">u_ban    </text>
<text text-anchor="start" x="650.1178" y="-263.9" font-family="Arial" font-size="14.00" fill="#666666">[boolean]</text>
<polygon fill="none" stroke="#000000" points="570,-222.5 570,-252.5 865,-252.5 865,-222.5 570,-222.5"/>
<text text-anchor="start" x="577" y="-233.9" font-family="Arial" font-size="14.00" fill="#000000">u_confirmed    </text>
<text text-anchor="start" x="688.2188" y="-233.9" font-family="Arial" font-size="14.00" fill="#666666">[boolean]</text>
<polygon fill="none" stroke="#000000" points="570,-192.5 570,-222.5 865,-222.5 865,-192.5 570,-192.5"/>
<text text-anchor="start" x="576.7041" y="-203.9" font-family="Arial" font-size="14.00" fill="#000000">u_created_at    </text>
<text text-anchor="start" x="692.6115" y="-203.9" font-family="Arial" font-size="14.00" fill="#666666">[timestamp with time zone]</text>
<polygon fill="none" stroke="#000000" points="570,-162.5 570,-192.5 865,-192.5 865,-162.5 570,-162.5"/>
<text text-anchor="start" x="577" y="-173.9" font-family="Arial" font-size="14.00" fill="#000000">id    </text>
<text text-anchor="start" x="622.094" y="-173.9" font-family="Arial" font-size="14.00" fill="#666666">[bigint]</text>
<polygon fill="none" stroke="#000000" points="570,-132.5 570,-162.5 865,-162.5 865,-132.5 570,-132.5"/>
<text text-anchor="start" x="577" y="-143.9" font-family="Arial" font-size="14.00" fill="#000000">tenant_id    </text>
<text text-anchor="start" x="668.7882" y="-143.9" font-family="Arial" font-size="14.00" fill="#666666">[bigint]</text>
<polygon fill="none" stroke="#000000" points="570,-102.5 570,-132.5 865,-132.5 865,-102.5 570,-102.5"/>
<text text-anchor="start" x="577" y="-113.9" font-family="Arial" font-size="14.00" fill="#000000">last_login    </text>
<text text-anchor="start" x="670.3282" y="-113.9" font-family="Arial" font-size="14.00" fill="#666666">[timestamp with time zone]</text>
<polygon fill="none" stroke="#000000" points="570,-72.5 570,-102.5 865,-102.5 865,-72.5 570,-72.5"/>
<text text-anchor="start" x="577" y="-83.9" font-family="Arial" font-size="14.00" fill="#000000">created_at    </text>
<text text-anchor="start" x="677.3422" y="-83.9" font-family="Arial" font-size="14.00" fill="#666666">[timestamp with time zone]</text>
<polygon fill="none" stroke="#000000" points="570,-42.5 570,-72.5 865,-72.5 865,-42.5 570,-42.5"/>
<text text-anchor="start" x="577" y="-53.9" font-family="Arial" font-size="14.00" fill="#000000">u_timestamp    </text>
<text text-anchor="start" x="691.3268" y="-53.9" font-family="Arial" font-size="14.00" fill="#666666">[timestamp with time zone]</text>
</g>
<!-- public.attachment&#45;&gt;public.users -->
<g id="edge4" class="edge">
<title>public.attachment:uploaded_by&#45;&gt;public.users:u_id</title>
<path fill="none" stroke="#000000" d="M566.8313,-786.7877C499.2677,-776.808 526.2937,-664.4392 577,-607 662.37,-510.2944 779.63,-667.7056 865,-571 892.5016,-539.8467 906.5556,-477.5 865,-477.5"/>
<polygon fill="#000000" stroke="#000000" points="567.0244,-786.8012 576.6855,-791.989 572.0122,-787.1506 577,-787.5 577,-787.5 577,-787.5 572.0122,-787.1506 577.3145,-783.011 567.0244,-786.8012 567.0244,-786.8012"/>
<text text-anchor="start" x="201.537" y="-797.5" font-family="Arial" font-size="10.00" fill="#000000">FOREIGN KEY (uploaded_by) REFERENCES users(u_id) ON DELETE SET NULL</text>
</g>
<!-- public.location_attachment -->
<g id="node2" class="node">
<title>public.location_attachment</title>
<polygon fill="#efefef" stroke="transparent" points="92,-1097.5 92,-1132.5 446,-1132.5 446,-1097.5 92,-1097.5"/>
<polygon fill="none" stroke="#000000" points="92,-1097.5 92,-1132.5 446,-1132.5 446,-1097.5 92,-1097.5"/>
<text text-anchor="start" x="98.6857" y="-1110.3" font-family="Arial Bold" font-size="18.00" fill="#000000">public.location_attachment</text>
<text text-anchor="start" x="311.7463" y="-1110.3" font-family="Arial" font-size="14.00" fill="#000000">    </text>
<text text-anchor="start" x="345.9511" y="-1110.3" font-family="Arial" font-size="14.00" fill="#666666">[BASE TABLE]</text>
<polygon fill="none" stroke="#000000" points="92,-1067.5 92,-1097.5 446,-1097.5 446,-1067.5 92,-1067.5"/>
<text text-anchor="start" x="99" y="-1078.9" font-family="Arial" font-size="14.00" fill="#000000">location_id    </text>
<text text-anchor="start" x="200.1108" y="-1078.9" font-family="Arial" font-size="14.00" fill="#666666">[bigint]</text>
<polygon fill="none" stroke="#000000" points="92,-1037.5 92,-1067.5 446,-1067.5 446,-1037.5 92,-1037.5"/>
<text text-anchor="start" x="99" y="-1048.9" font-family="Arial" font-size="14.00" fill="#000000">object_name    </text>
<text text-anchor="start" x="213.3408" y="-1048.9" font-family="Arial" font-size="14.00" fill="#666666">[text]</text>
</g>
<!-- public.location_attachment&#45;&gt;public.attachment -->
<g id="edge1" class="edge">
<title>public.location_attachment:object_name&#45;&gt;public.attachment:object_name</title>
<path fill="none" stroke="#000000" d="M454.8362,-1047.4326C487.0184,-1015.8643 552.5029,-847.5 577,-847.5"/>
<polygon fill="#000000" stroke="#000000" points="454.6747,-1047.5251 443.7613,-1048.5964 450.3374,-1050.0126 446,-1052.5 446,-1052.5 446,-1052.5 450.3374,-1050.0126 448.2387,-1056.4036 454.6747,-1047.5251 454.6747,-1047.5251"/>
<text text-anchor="start" x="6.5875" y="-1062.5" font-family="Arial" font-size="10.00" fill="#000000">FOREIGN KEY (object_name) REFERENCES attachment(object_name) ON DELETE CASCADE</text>
</g>
<!-- public.room_attachment -->
<g id="node3" class="node">
<title>public.room_attachment</title>
<polygon fill="#efefef" stroke="transparent" points="551,-1097.5 551,-1132.5 884,-1132.5 884,-1097.5 551,-1097.5"/>
<polygon fill="none" stroke="#000000" points="551,-1097.5 551,-1132.5 884,-1132.5 884,-1097.5 551,-1097.5"/>
<text text-anchor="start" x="557.695" y="-1110.3" font-family="Arial Bold" font-size="18.00" fill="#000000">public.room_attachment</text>
<text text-anchor="start" x="749.737" y="-1110.3" font-family="Arial" font-size="14.00" fill="#000000">    </text>
<text text-anchor="start" x="783.9418" y="-1110.3" font-family="Arial" font-size="14.00" fill="#666666">[BASE TABLE]</text>
<polygon fill="none" stroke="#000000" points="551,-1067.5 551,-1097.5 884,-1097.5 884,-1067.5 551,-1067.5"/>
<text text-anchor="start" x="558" y="-1078.9" font-family="Arial" font-size="14.00" fill="#000000">room_id    </text>
<text text-anchor="start" x="642.763" y="-1078.9" font-family="Arial" font-size="14.00" fill="#666666">[bigint]</text>
<polygon fill="none" stroke="#000000" points="551,-1037.5 551,-1067.5 884,-1067.5 884,-1037.5 551,-1037.5"/>
<text text-anchor="start" x="558" y="-1048.9" font-family="Arial" font-size="14.00" fill="#000000">object_name    </text>
<text text-anchor="start" x="672.3408" y="-1048.9" font-family="Arial" font-size="14.00" fill="#666666">[text]</text>
</g>
<!-- public.room_attachment&#45;&gt;public.attachment -->
<g id="edge2" class="edge">
<title>public.room_attachment:object_name&#45;&gt;public.attachment:object_name</title>
<path fill="none" stroke="#000000" d="M717.2663,-1027.3385C707.8699,-966.7169 610.8254,-1007.0171 577,-944 556.7161,-906.2109 534.1111,-847.5 577,-847.5"/>
<polygon fill="#000000" stroke="#000000" points="717.2797,-1027.526 713.5117,-1037.8241 717.6399,-1032.513 718,-1037.5 718,-1037.5 718,-1037.5 717.6399,-1032.513 722.4883,-1037.1759 717.2797,-1027.526 717.2797,-1027.526"/>
<text text-anchor="start" x="501.5875" y="-1021.5" font-family="Arial" font-size="10.00" fill="#000000">FOREIGN KEY (object_name) REFERENCES attachment(object_name) ON DELETE CASCADE</text>
</g>
<!-- public.tenant_attachment -->
<g id="node4" class="node">
<title>public.tenant_attachment</title>
<polygon fill="#efefef" stroke="transparent" points="988,-1112.5 988,-1147.5 1330,-1147.5 1330,-1112.5 988,-1112.5"/>
<polygon fill="none" stroke="#000000" points="988,-1112.5 988,-1147.5 1330,-1147.5 1330,-1112.5 988,-1112.5"/>
<text text-anchor="start" x="994.6788" y="-1125.3" font-family="Arial Bold" font-size="18.00" fill="#000000">public.tenant_attachment</text>
<text text-anchor="start" x="1195.7532" y="-1125.3" font-family="Arial" font-size="14.00" fill="#000000">    </text>
<text text-anchor="start" x="1229.958" y="-1125.3" font-family="Arial" font-size="14.00" fill="#666666">[BASE TABLE]</text>
<polygon fill="none" stroke="#000000" points="988,-1082.5 988,-1112.5 1330,-1112.5 1330,-1082.5 988,-1082.5"/>
<text text-anchor="start" x="995" y="-1093.9" font-family="Arial" font-size="14.00" fill="#000000">tenant_id    </text>
<text text-anchor="start" x="1086.7882" y="-1093.9" font-family="Arial" font-size="14.00" fill="#666666">[bigint]</text>
<polygon fill="none" stroke="#000000" points="988,-1052.5 988,-1082.5 1330,-1082.5 1330,-1052.5 988,-1052.5"/>
<text text-anchor="start" x="995" y="-1063.9" font-family="Arial" font-size="14.00" fill="#000000">object_name    </text>
<text text-anchor="start" x="1109.3408" y="-1063.9" font-family="Arial" font-size="14.00" fill="#666666">[text]</text>
<polygon fill="none" stroke="#000000" points="988,-1022.5 988,-1052.5 1330,-1052.5 1330,-1022.5 988,-1022.5"/>
<text text-anchor="start" x="995" y="-1033.9" font-family="Arial" font-size="14.00" fill="#000000">type    </text>
<text text-anchor="start" x="1055.6606" y="-1033.9" font-family="Arial" font-size="14.00" fill="#666666">[tenant_attachment_type]</text>
</g>
<!-- public.tenant_attachment&#45;&gt;public.attachment -->
<g id="edge3" class="edge">
<title>public.tenant_attachment:object_name&#45;&gt;public.attachment:object_name</title>
<path fill="none" stroke="#000000" d="M982.2589,-1059.1444C957.5095,-1018.9587 862.127,-847.5 859,-847.5"/>
<polygon fill="#000000" stroke="#000000" points="982.3369,-1059.258 984.2911,-1070.0484 985.1685,-1063.379 988,-1067.5 988,-1067.5 988,-1067.5 985.1685,-1063.379 991.7089,-1064.9516 982.3369,-1059.258 982.3369,-1059.258"/>
<text text-anchor="start" x="994.5875" y="-1077.5" font-family="Arial" font-size="10.00" fill="#000000">FOREIGN KEY (object_name) REFERENCES attachment(object_name) ON DELETE CASCADE</text>
</g>
</g>
</svg>
