<?xml version="1.0" encoding="UTF-8" standalone="no"?>
<!DOCTYPE svg PUBLIC "-//W3C//DTD SVG 1.1//EN"
 "http://www.w3.org/Graphics/SVG/1.1/DTD/svg11.dtd">
<!-- Generated by graphviz version 2.40.1 (20161225.0304)
 -->
<!-- Title: public.user_proxy Pages: 1 -->
<svg width="1238pt" height="1132pt"
 viewBox="0.00 0.00 1238.00 1132.00" xmlns="http://www.w3.org/2000/svg" xmlns:xlink="http://www.w3.org/1999/xlink">
<g id="graph0" class="graph" transform="scale(1 1) rotate(0) translate(4 1128)">
<title>public.user_proxy</title>
<polygon fill="#ffffff" stroke="transparent" points="-4,4 -4,-1128 1234,-1128 1234,4 -4,4"/>
<!-- public.user_proxy -->
<g id="node1" class="node">
<title>public.user_proxy</title>
<polygon fill="#efefef" stroke="transparent" points="471,-1042.5 471,-1077.5 753,-1077.5 753,-1042.5 471,-1042.5"/>
<polygon fill="none" stroke="#000000" points="471,-1042.5 471,-1077.5 753,-1077.5 753,-1042.5 471,-1042.5"/>
<text text-anchor="start" x="477.7037" y="-1055.3" font-family="Arial Bold" font-size="18.00" fill="#000000">public.user_proxy</text>
<text text-anchor="start" x="618.7283" y="-1055.3" font-family="Arial" font-size="14.00" fill="#000000">    </text>
<text text-anchor="start" x="652.9331" y="-1055.3" font-family="Arial" font-size="14.00" fill="#666666">[BASE TABLE]</text>
<polygon fill="none" stroke="#000000" points="471,-1012.5 471,-1042.5 753,-1042.5 753,-1012.5 471,-1012.5"/>
<text text-anchor="start" x="478" y="-1023.9" font-family="Arial" font-size="14.00" fill="#000000">user_id </text>
<text text-anchor="start" x="527.7882" y="-1023.9" font-family="Arial" font-size="14.00" fill="#666666">[bigint]</text>
<polygon fill="none" stroke="#000000" points="471,-982.5 471,-1012.5 753,-1012.5 753,-982.5 471,-982.5"/>
<text text-anchor="start" x="478" y="-993.9" font-family="Arial" font-size="14.00" fill="#000000">person_id </text>
<text text-anchor="start" x="543.3534" y="-993.9" font-family="Arial" font-size="14.00" fill="#666666">[bigint]</text>
<polygon fill="none" stroke="#000000" points="471,-952.5 471,-982.5 753,-982.5 753,-952.5 471,-952.5"/>
<text text-anchor="start" x="478" y="-963.9" font-family="Arial" font-size="14.00" fill="#000000">created_at </text>
<text text-anchor="start" x="548.028" y="-963.9" font-family="Arial" font-size="14.00" fill="#666666">[timestamp with time zone]</text>
<polygon fill="none" stroke="#000000" points="471,-922.5 471,-952.5 753,-952.5 753,-922.5 471,-922.5"/>
<text text-anchor="start" x="478" y="-933.9" font-family="Arial" font-size="14.00" fill="#000000">updated_at </text>
<text text-anchor="start" x="551.9326" y="-933.9" font-family="Arial" font-size="14.00" fill="#666666">[timestamp with time zone]</text>
<polygon fill="none" stroke="#000000" points="471,-892.5 471,-922.5 753,-922.5 753,-892.5 471,-892.5"/>
<text text-anchor="start" x="478" y="-903.9" font-family="Arial" font-size="14.00" fill="#000000">id </text>
<text text-anchor="start" x="492.7798" y="-903.9" font-family="Arial" font-size="14.00" fill="#666666">[bigint]</text>
<polygon fill="none" stroke="#000000" points="471,-862.5 471,-892.5 753,-892.5 753,-862.5 471,-862.5"/>
<text text-anchor="start" x="478" y="-873.9" font-family="Arial" font-size="14.00" fill="#000000">since </text>
<text text-anchor="start" x="514.5624" y="-873.9" font-family="Arial" font-size="14.00" fill="#666666">[timestamp with time zone]</text>
<polygon fill="none" stroke="#000000" points="471,-832.5 471,-862.5 753,-862.5 753,-832.5 471,-832.5"/>
<text text-anchor="start" x="478" y="-843.9" font-family="Arial" font-size="14.00" fill="#000000">until </text>
<text text-anchor="start" x="507.5596" y="-843.9" font-family="Arial" font-size="14.00" fill="#666666">[timestamp with time zone]</text>
<polygon fill="none" stroke="#000000" points="471,-802.5 471,-832.5 753,-832.5 753,-802.5 471,-802.5"/>
<text text-anchor="start" x="478" y="-813.9" font-family="Arial" font-size="14.00" fill="#000000">active_range </text>
<text text-anchor="start" x="562.0266" y="-813.9" font-family="Arial" font-size="14.00" fill="#666666">[tstzrange]</text>
<polygon fill="none" stroke="#000000" points="471,-772.5 471,-802.5 753,-802.5 753,-772.5 471,-772.5"/>
<text text-anchor="start" x="478" y="-783.9" font-family="Arial" font-size="14.00" fill="#000000">status </text>
<text text-anchor="start" x="519.237" y="-783.9" font-family="Arial" font-size="14.00" fill="#666666">[relationship_status]</text>
<polygon fill="none" stroke="#000000" points="471,-742.5 471,-772.5 753,-772.5 753,-742.5 471,-742.5"/>
<text text-anchor="start" x="478" y="-753.9" font-family="Arial" font-size="14.00" fill="#000000">active </text>
<text text-anchor="start" x="518.453" y="-753.9" font-family="Arial" font-size="14.00" fill="#666666">[boolean]</text>
<polygon fill="none" stroke="#000000" stroke-width="3" points="469.5,-741.5 469.5,-1079.5 754.5,-1079.5 754.5,-741.5 469.5,-741.5"/>
</g>
<!-- public.users -->
<g id="node2" class="node">
<title>public.users</title>
<polygon fill="#efefef" stroke="transparent" points="268,-537.5 268,-572.5 563,-572.5 563,-537.5 268,-537.5"/>
<polygon fill="none" stroke="#000000" points="268,-537.5 268,-572.5 563,-572.5 563,-537.5 268,-537.5"/>
<text text-anchor="start" x="303.7091" y="-550.3" font-family="Arial Bold" font-size="18.00" fill="#000000">public.users</text>
<text text-anchor="start" x="399.7229" y="-550.3" font-family="Arial" font-size="14.00" fill="#000000">    </text>
<text text-anchor="start" x="433.9277" y="-550.3" font-family="Arial" font-size="14.00" fill="#666666">[BASE TABLE]</text>
<polygon fill="none" stroke="#000000" points="268,-507.5 268,-537.5 563,-537.5 563,-507.5 268,-507.5"/>
<text text-anchor="start" x="275" y="-518.9" font-family="Arial" font-size="14.00" fill="#000000">u_id    </text>
<text text-anchor="start" x="335.6592" y="-518.9" font-family="Arial" font-size="14.00" fill="#666666">[bigint]</text>
<polygon fill="none" stroke="#000000" points="268,-477.5 268,-507.5 563,-507.5 563,-477.5 268,-477.5"/>
<text text-anchor="start" x="275" y="-488.9" font-family="Arial" font-size="14.00" fill="#000000">u_login    </text>
<text text-anchor="start" x="354.331" y="-488.9" font-family="Arial" font-size="14.00" fill="#666666">[citext]</text>
<polygon fill="none" stroke="#000000" points="268,-447.5 268,-477.5 563,-477.5 563,-447.5 268,-447.5"/>
<text text-anchor="start" x="275" y="-458.9" font-family="Arial" font-size="14.00" fill="#000000">u_pass    </text>
<text text-anchor="start" x="354.3352" y="-458.9" font-family="Arial" font-size="14.00" fill="#666666">[character(40)]</text>
<polygon fill="none" stroke="#000000" points="268,-417.5 268,-447.5 563,-447.5 563,-417.5 268,-417.5"/>
<text text-anchor="start" x="275" y="-428.9" font-family="Arial" font-size="14.00" fill="#000000">u_jmeno    </text>
<text text-anchor="start" x="362.885" y="-428.9" font-family="Arial" font-size="14.00" fill="#666666">[text]</text>
<polygon fill="none" stroke="#000000" points="268,-387.5 268,-417.5 563,-417.5 563,-387.5 268,-387.5"/>
<text text-anchor="start" x="275" y="-398.9" font-family="Arial" font-size="14.00" fill="#000000">u_prijmeni    </text>
<text text-anchor="start" x="373.7588" y="-398.9" font-family="Arial" font-size="14.00" fill="#666666">[text]</text>
<polygon fill="none" stroke="#000000" points="268,-357.5 268,-387.5 563,-387.5 563,-357.5 268,-357.5"/>
<text text-anchor="start" x="275" y="-368.9" font-family="Arial" font-size="14.00" fill="#000000">u_email    </text>
<text text-anchor="start" x="358.209" y="-368.9" font-family="Arial" font-size="14.00" fill="#666666">[citext]</text>
<polygon fill="none" stroke="#000000" points="268,-327.5 268,-357.5 563,-357.5 563,-327.5 268,-327.5"/>
<text text-anchor="start" x="275" y="-338.9" font-family="Arial" font-size="14.00" fill="#000000">updated_at    </text>
<text text-anchor="start" x="379.2468" y="-338.9" font-family="Arial" font-size="14.00" fill="#666666">[timestamp with time zone]</text>
<polygon fill="none" stroke="#000000" points="268,-297.5 268,-327.5 563,-327.5 563,-297.5 268,-297.5"/>
<text text-anchor="start" x="275" y="-308.9" font-family="Arial" font-size="14.00" fill="#000000">u_ban    </text>
<text text-anchor="start" x="348.1178" y="-308.9" font-family="Arial" font-size="14.00" fill="#666666">[boolean]</text>
<polygon fill="none" stroke="#000000" points="268,-267.5 268,-297.5 563,-297.5 563,-267.5 268,-267.5"/>
<text text-anchor="start" x="275" y="-278.9" font-family="Arial" font-size="14.00" fill="#000000">u_confirmed    </text>
<text text-anchor="start" x="386.2188" y="-278.9" font-family="Arial" font-size="14.00" fill="#666666">[boolean]</text>
<polygon fill="none" stroke="#000000" points="268,-237.5 268,-267.5 563,-267.5 563,-237.5 268,-237.5"/>
<text text-anchor="start" x="274.7041" y="-248.9" font-family="Arial" font-size="14.00" fill="#000000">u_created_at    </text>
<text text-anchor="start" x="390.6115" y="-248.9" font-family="Arial" font-size="14.00" fill="#666666">[timestamp with time zone]</text>
<polygon fill="none" stroke="#000000" points="268,-207.5 268,-237.5 563,-237.5 563,-207.5 268,-207.5"/>
<text text-anchor="start" x="275" y="-218.9" font-family="Arial" font-size="14.00" fill="#000000">id    </text>
<text text-anchor="start" x="320.094" y="-218.9" font-family="Arial" font-size="14.00" fill="#666666">[bigint]</text>
<polygon fill="none" stroke="#000000" points="268,-177.5 268,-207.5 563,-207.5 563,-177.5 268,-177.5"/>
<text text-anchor="start" x="275" y="-188.9" font-family="Arial" font-size="14.00" fill="#000000">tenant_id    </text>
<text text-anchor="start" x="366.7882" y="-188.9" font-family="Arial" font-size="14.00" fill="#666666">[bigint]</text>
<polygon fill="none" stroke="#000000" points="268,-147.5 268,-177.5 563,-177.5 563,-147.5 268,-147.5"/>
<text text-anchor="start" x="275" y="-158.9" font-family="Arial" font-size="14.00" fill="#000000">last_login    </text>
<text text-anchor="start" x="368.3282" y="-158.9" font-family="Arial" font-size="14.00" fill="#666666">[timestamp with time zone]</text>
<polygon fill="none" stroke="#000000" points="268,-117.5 268,-147.5 563,-147.5 563,-117.5 268,-117.5"/>
<text text-anchor="start" x="275" y="-128.9" font-family="Arial" font-size="14.00" fill="#000000">created_at    </text>
<text text-anchor="start" x="375.3422" y="-128.9" font-family="Arial" font-size="14.00" fill="#666666">[timestamp with time zone]</text>
<polygon fill="none" stroke="#000000" points="268,-87.5 268,-117.5 563,-117.5 563,-87.5 268,-87.5"/>
<text text-anchor="start" x="275" y="-98.9" font-family="Arial" font-size="14.00" fill="#000000">u_timestamp    </text>
<text text-anchor="start" x="389.3268" y="-98.9" font-family="Arial" font-size="14.00" fill="#666666">[timestamp with time zone]</text>
</g>
<!-- public.user_proxy&#45;&gt;public.users -->
<g id="edge1" class="edge">
<title>public.user_proxy:user_id&#45;&gt;public.users:u_id</title>
<path fill="none" stroke="#000000" d="M460.6549,-1027.1521C328.3143,-1017.9356 411.9853,-827.5869 471,-697 493.4352,-647.3556 540.5648,-665.6444 563,-616 580.1133,-578.1318 604.5556,-522.5 563,-522.5"/>
<polygon fill="#000000" stroke="#000000" points="461.0056,-1027.1638 470.8487,-1031.9975 466.0028,-1027.3319 471,-1027.5 471,-1027.5 471,-1027.5 466.0028,-1027.3319 471.1513,-1023.0025 461.0056,-1027.1638 461.0056,-1027.1638"/>
<text text-anchor="start" x="7.3835" y="-1037.5" font-family="Arial" font-size="10.00" fill="#000000">FOREIGN KEY (user_id) REFERENCES users(u_id) ON UPDATE CASCADE ON DELETE CASCADE</text>
</g>
<!-- public.person -->
<g id="node3" class="node">
<title>public.person</title>
<polygon fill="#efefef" stroke="transparent" points="667,-582.5 667,-617.5 950,-617.5 950,-582.5 667,-582.5"/>
<polygon fill="none" stroke="#000000" points="667,-582.5 667,-617.5 950,-617.5 950,-582.5 667,-582.5"/>
<text text-anchor="start" x="691.2029" y="-595.3" font-family="Arial Bold" font-size="18.00" fill="#000000">public.person</text>
<text text-anchor="start" x="798.2291" y="-595.3" font-family="Arial" font-size="14.00" fill="#000000">    </text>
<text text-anchor="start" x="832.4339" y="-595.3" font-family="Arial" font-size="14.00" fill="#666666">[BASE TABLE]</text>
<polygon fill="none" stroke="#000000" points="667,-552.5 667,-582.5 950,-582.5 950,-552.5 667,-552.5"/>
<text text-anchor="start" x="674" y="-563.9" font-family="Arial" font-size="14.00" fill="#000000">id    </text>
<text text-anchor="start" x="719.094" y="-563.9" font-family="Arial" font-size="14.00" fill="#666666">[bigint]</text>
<polygon fill="none" stroke="#000000" points="667,-522.5 667,-552.5 950,-552.5 950,-522.5 667,-522.5"/>
<text text-anchor="start" x="674" y="-533.9" font-family="Arial" font-size="14.00" fill="#000000">first_name    </text>
<text text-anchor="start" x="773.5442" y="-533.9" font-family="Arial" font-size="14.00" fill="#666666">[text]</text>
<polygon fill="none" stroke="#000000" points="667,-492.5 667,-522.5 950,-522.5 950,-492.5 667,-492.5"/>
<text text-anchor="start" x="674" y="-503.9" font-family="Arial" font-size="14.00" fill="#000000">last_name    </text>
<text text-anchor="start" x="772.7756" y="-503.9" font-family="Arial" font-size="14.00" fill="#666666">[text]</text>
<polygon fill="none" stroke="#000000" points="667,-462.5 667,-492.5 950,-492.5 950,-462.5 667,-462.5"/>
<text text-anchor="start" x="674" y="-473.9" font-family="Arial" font-size="14.00" fill="#000000">gender    </text>
<text text-anchor="start" x="751.7784" y="-473.9" font-family="Arial" font-size="14.00" fill="#666666">[gender_type]</text>
<polygon fill="none" stroke="#000000" points="667,-432.5 667,-462.5 950,-462.5 950,-432.5 667,-432.5"/>
<text text-anchor="start" x="674" y="-443.9" font-family="Arial" font-size="14.00" fill="#000000">birth_date    </text>
<text text-anchor="start" x="770.4488" y="-443.9" font-family="Arial" font-size="14.00" fill="#666666">[date]</text>
<polygon fill="none" stroke="#000000" points="667,-402.5 667,-432.5 950,-432.5 950,-402.5 667,-402.5"/>
<text text-anchor="start" x="674" y="-413.9" font-family="Arial" font-size="14.00" fill="#000000">nationality    </text>
<text text-anchor="start" x="771.2188" y="-413.9" font-family="Arial" font-size="14.00" fill="#666666">[text]</text>
<polygon fill="none" stroke="#000000" points="667,-372.5 667,-402.5 950,-402.5 950,-372.5 667,-372.5"/>
<text text-anchor="start" x="674" y="-383.9" font-family="Arial" font-size="14.00" fill="#000000">tax_identification_number    </text>
<text text-anchor="start" x="867.6886" y="-383.9" font-family="Arial" font-size="14.00" fill="#666666">[text]</text>
<polygon fill="none" stroke="#000000" points="667,-342.5 667,-372.5 950,-372.5 950,-342.5 667,-342.5"/>
<text text-anchor="start" x="674" y="-353.9" font-family="Arial" font-size="14.00" fill="#000000">national_id_number    </text>
<text text-anchor="start" x="831.1276" y="-353.9" font-family="Arial" font-size="14.00" fill="#666666">[text]</text>
<polygon fill="none" stroke="#000000" points="667,-312.5 667,-342.5 950,-342.5 950,-312.5 667,-312.5"/>
<text text-anchor="start" x="674" y="-323.9" font-family="Arial" font-size="14.00" fill="#000000">csts_id    </text>
<text text-anchor="start" x="751.7672" y="-323.9" font-family="Arial" font-size="14.00" fill="#666666">[text]</text>
<polygon fill="none" stroke="#000000" points="667,-282.5 667,-312.5 950,-312.5 950,-282.5 667,-282.5"/>
<text text-anchor="start" x="674" y="-293.9" font-family="Arial" font-size="14.00" fill="#000000">wdsf_id    </text>
<text text-anchor="start" x="755.6564" y="-293.9" font-family="Arial" font-size="14.00" fill="#666666">[text]</text>
<polygon fill="none" stroke="#000000" points="667,-252.5 667,-282.5 950,-282.5 950,-252.5 667,-252.5"/>
<text text-anchor="start" x="674" y="-263.9" font-family="Arial" font-size="14.00" fill="#000000">created_at    </text>
<text text-anchor="start" x="774.3422" y="-263.9" font-family="Arial" font-size="14.00" fill="#666666">[timestamp with time zone]</text>
<polygon fill="none" stroke="#000000" points="667,-222.5 667,-252.5 950,-252.5 950,-222.5 667,-222.5"/>
<text text-anchor="start" x="673.5344" y="-233.9" font-family="Arial" font-size="14.00" fill="#000000">updated_at    </text>
<text text-anchor="start" x="777.7812" y="-233.9" font-family="Arial" font-size="14.00" fill="#666666">[timestamp with time zone]</text>
<polygon fill="none" stroke="#000000" points="667,-192.5 667,-222.5 950,-222.5 950,-192.5 667,-192.5"/>
<text text-anchor="start" x="674" y="-203.9" font-family="Arial" font-size="14.00" fill="#000000">legacy_user_id    </text>
<text text-anchor="start" x="802.3394" y="-203.9" font-family="Arial" font-size="14.00" fill="#666666">[bigint]</text>
<polygon fill="none" stroke="#000000" points="667,-162.5 667,-192.5 950,-192.5 950,-162.5 667,-162.5"/>
<text text-anchor="start" x="674" y="-173.9" font-family="Arial" font-size="14.00" fill="#000000">prefix_title    </text>
<text text-anchor="start" x="771.9874" y="-173.9" font-family="Arial" font-size="14.00" fill="#666666">[text]</text>
<polygon fill="none" stroke="#000000" points="667,-132.5 667,-162.5 950,-162.5 950,-132.5 667,-132.5"/>
<text text-anchor="start" x="674" y="-143.9" font-family="Arial" font-size="14.00" fill="#000000">suffix_title    </text>
<text text-anchor="start" x="770.4348" y="-143.9" font-family="Arial" font-size="14.00" fill="#666666">[text]</text>
<polygon fill="none" stroke="#000000" points="667,-102.5 667,-132.5 950,-132.5 950,-102.5 667,-102.5"/>
<text text-anchor="start" x="674" y="-113.9" font-family="Arial" font-size="14.00" fill="#000000">bio    </text>
<text text-anchor="start" x="726.8766" y="-113.9" font-family="Arial" font-size="14.00" fill="#666666">[text]</text>
<polygon fill="none" stroke="#000000" points="667,-72.5 667,-102.5 950,-102.5 950,-72.5 667,-72.5"/>
<text text-anchor="start" x="674" y="-83.9" font-family="Arial" font-size="14.00" fill="#000000">email    </text>
<text text-anchor="start" x="741.6438" y="-83.9" font-family="Arial" font-size="14.00" fill="#666666">[citext]</text>
<polygon fill="none" stroke="#000000" points="667,-42.5 667,-72.5 950,-72.5 950,-42.5 667,-42.5"/>
<text text-anchor="start" x="674" y="-53.9" font-family="Arial" font-size="14.00" fill="#000000">phone    </text>
<text text-anchor="start" x="747.1178" y="-53.9" font-family="Arial" font-size="14.00" fill="#666666">[text]</text>
</g>
<!-- public.user_proxy&#45;&gt;public.person -->
<g id="edge2" class="edge">
<title>public.user_proxy:person_id&#45;&gt;public.person:id</title>
<path fill="none" stroke="#000000" d="M763.1649,-997.1101C883.4045,-987.571 825.0406,-805.2544 753,-697 730.0439,-662.5043 689.9561,-695.4957 667,-661 643.9777,-626.4047 625.4444,-567.5 667,-567.5"/>
<polygon fill="#000000" stroke="#000000" points="762.9926,-997.1166 752.8275,-993.0033 757.9963,-997.3083 753,-997.5 753,-997.5 753,-997.5 757.9963,-997.3083 753.1725,-1001.9967 762.9926,-997.1166 762.9926,-997.1166"/>
<text text-anchor="start" x="760.3245" y="-1007.5" font-family="Arial" font-size="10.00" fill="#000000">FOREIGN KEY (person_id) REFERENCES person(id) ON UPDATE CASCADE ON DELETE CASCADE</text>
</g>
</g>
</svg>
