<?xml version="1.0" encoding="UTF-8" standalone="no"?>
<!DOCTYPE svg PUBLIC "-//W3C//DTD SVG 1.1//EN"
 "http://www.w3.org/Graphics/SVG/1.1/DTD/svg11.dtd">
<!-- Generated by graphviz version 2.40.1 (20161225.0304)
 -->
<!-- Title: public.account Pages: 1 -->
<svg width="1791pt" height="1949pt"
 viewBox="0.00 0.00 1791.00 1949.00" xmlns="http://www.w3.org/2000/svg" xmlns:xlink="http://www.w3.org/1999/xlink">
<g id="graph0" class="graph" transform="scale(1 1) rotate(0) translate(4 1945)">
<title>public.account</title>
<polygon fill="#ffffff" stroke="transparent" points="-4,4 -4,-1945 1787,-1945 1787,4 -4,4"/>
<!-- public.account -->
<g id="node1" class="node">
<title>public.account</title>
<polygon fill="#efefef" stroke="transparent" points="471,-952.5 471,-987.5 727,-987.5 727,-952.5 471,-952.5"/>
<polygon fill="none" stroke="#000000" points="471,-952.5 471,-987.5 727,-987.5 727,-952.5 471,-952.5"/>
<text text-anchor="start" x="477.6979" y="-965.3" font-family="Arial Bold" font-size="18.00" fill="#000000">public.account</text>
<text text-anchor="start" x="592.7341" y="-965.3" font-family="Arial" font-size="14.00" fill="#000000">    </text>
<text text-anchor="start" x="626.9389" y="-965.3" font-family="Arial" font-size="14.00" fill="#666666">[BASE TABLE]</text>
<polygon fill="none" stroke="#000000" points="471,-922.5 471,-952.5 727,-952.5 727,-922.5 471,-922.5"/>
<text text-anchor="start" x="478" y="-933.9" font-family="Arial" font-size="14.00" fill="#000000">id </text>
<text text-anchor="start" x="492.7798" y="-933.9" font-family="Arial" font-size="14.00" fill="#666666">[bigint]</text>
<polygon fill="none" stroke="#000000" points="471,-892.5 471,-922.5 727,-922.5 727,-892.5 471,-892.5"/>
<text text-anchor="start" x="478" y="-903.9" font-family="Arial" font-size="14.00" fill="#000000">tenant_id </text>
<text text-anchor="start" x="539.474" y="-903.9" font-family="Arial" font-size="14.00" fill="#666666">[bigint]</text>
<polygon fill="none" stroke="#000000" points="471,-862.5 471,-892.5 727,-892.5 727,-862.5 471,-862.5"/>
<text text-anchor="start" x="478" y="-873.9" font-family="Arial" font-size="14.00" fill="#000000">person_id </text>
<text text-anchor="start" x="543.3534" y="-873.9" font-family="Arial" font-size="14.00" fill="#666666">[bigint]</text>
<polygon fill="none" stroke="#000000" points="471,-832.5 471,-862.5 727,-862.5 727,-832.5 471,-832.5"/>
<text text-anchor="start" x="478" y="-843.9" font-family="Arial" font-size="14.00" fill="#000000">opening_balance </text>
<text text-anchor="start" x="588.495" y="-843.9" font-family="Arial" font-size="14.00" fill="#666666">[numeric(19,4)]</text>
<polygon fill="none" stroke="#000000" points="471,-802.5 471,-832.5 727,-832.5 727,-802.5 471,-802.5"/>
<text text-anchor="start" x="478" y="-813.9" font-family="Arial" font-size="14.00" fill="#000000">currency </text>
<text text-anchor="start" x="535.5596" y="-813.9" font-family="Arial" font-size="14.00" fill="#666666">[citext]</text>
<polygon fill="none" stroke="#000000" points="471,-772.5 471,-802.5 727,-802.5 727,-772.5 471,-772.5"/>
<text text-anchor="start" x="478" y="-783.9" font-family="Arial" font-size="14.00" fill="#000000">created_at </text>
<text text-anchor="start" x="548.028" y="-783.9" font-family="Arial" font-size="14.00" fill="#666666">[timestamp with time zone]</text>
<polygon fill="none" stroke="#000000" points="471,-742.5 471,-772.5 727,-772.5 727,-742.5 471,-742.5"/>
<text text-anchor="start" x="478" y="-753.9" font-family="Arial" font-size="14.00" fill="#000000">updated_at </text>
<text text-anchor="start" x="551.9326" y="-753.9" font-family="Arial" font-size="14.00" fill="#666666">[timestamp with time zone]</text>
<polygon fill="none" stroke="#000000" stroke-width="3" points="469.5,-741.5 469.5,-989.5 728.5,-989.5 728.5,-741.5 469.5,-741.5"/>
</g>
<!-- public.tenant -->
<g id="node6" class="node">
<title>public.tenant</title>
<polygon fill="#efefef" stroke="transparent" points="294,-432.5 294,-467.5 537,-467.5 537,-432.5 294,-432.5"/>
<polygon fill="none" stroke="#000000" points="294,-432.5 294,-467.5 537,-467.5 537,-432.5 294,-432.5"/>
<text text-anchor="start" x="300.6968" y="-445.3" font-family="Arial Bold" font-size="18.00" fill="#000000">public.tenant</text>
<text text-anchor="start" x="402.7352" y="-445.3" font-family="Arial" font-size="14.00" fill="#000000">    </text>
<text text-anchor="start" x="436.94" y="-445.3" font-family="Arial" font-size="14.00" fill="#666666">[BASE TABLE]</text>
<polygon fill="none" stroke="#000000" points="294,-402.5 294,-432.5 537,-432.5 537,-402.5 294,-402.5"/>
<text text-anchor="start" x="301" y="-413.9" font-family="Arial" font-size="14.00" fill="#000000">id    </text>
<text text-anchor="start" x="346.094" y="-413.9" font-family="Arial" font-size="14.00" fill="#666666">[bigint]</text>
<polygon fill="none" stroke="#000000" points="294,-372.5 294,-402.5 537,-402.5 537,-372.5 294,-372.5"/>
<text text-anchor="start" x="301" y="-383.9" font-family="Arial" font-size="14.00" fill="#000000">name    </text>
<text text-anchor="start" x="370.2132" y="-383.9" font-family="Arial" font-size="14.00" fill="#666666">[text]</text>
<polygon fill="none" stroke="#000000" points="294,-342.5 294,-372.5 537,-372.5 537,-342.5 294,-342.5"/>
<text text-anchor="start" x="301" y="-353.9" font-family="Arial" font-size="14.00" fill="#000000">origins    </text>
<text text-anchor="start" x="376.4264" y="-353.9" font-family="Arial" font-size="14.00" fill="#666666">[text[]]</text>
<polygon fill="none" stroke="#000000" points="294,-312.5 294,-342.5 537,-342.5 537,-312.5 294,-312.5"/>
<text text-anchor="start" x="301" y="-323.9" font-family="Arial" font-size="14.00" fill="#000000">cz_ico    </text>
<text text-anchor="start" x="374.8766" y="-323.9" font-family="Arial" font-size="14.00" fill="#666666">[text]</text>
<polygon fill="none" stroke="#000000" points="294,-282.5 294,-312.5 537,-312.5 537,-282.5 294,-282.5"/>
<text text-anchor="start" x="301" y="-293.9" font-family="Arial" font-size="14.00" fill="#000000">cz_dic    </text>
<text text-anchor="start" x="374.8766" y="-293.9" font-family="Arial" font-size="14.00" fill="#666666">[text]</text>
<polygon fill="none" stroke="#000000" points="294,-252.5 294,-282.5 537,-282.5 537,-252.5 294,-252.5"/>
<text text-anchor="start" x="301" y="-263.9" font-family="Arial" font-size="14.00" fill="#000000">address    </text>
<text text-anchor="start" x="384.9958" y="-263.9" font-family="Arial" font-size="14.00" fill="#666666">[address_domain]</text>
<polygon fill="none" stroke="#000000" points="294,-222.5 294,-252.5 537,-252.5 537,-222.5 294,-222.5"/>
<text text-anchor="start" x="301" y="-233.9" font-family="Arial" font-size="14.00" fill="#000000">description    </text>
<text text-anchor="start" x="402.8822" y="-233.9" font-family="Arial" font-size="14.00" fill="#666666">[text]</text>
<polygon fill="none" stroke="#000000" points="294,-192.5 294,-222.5 537,-222.5 537,-192.5 294,-192.5"/>
<text text-anchor="start" x="301" y="-203.9" font-family="Arial" font-size="14.00" fill="#000000">bank_account    </text>
<text text-anchor="start" x="422.3562" y="-203.9" font-family="Arial" font-size="14.00" fill="#666666">[text]</text>
</g>
<!-- public.account&#45;&gt;public.tenant -->
<g id="edge6" class="edge">
<title>public.account:tenant_id&#45;&gt;public.tenant:id</title>
<path fill="none" stroke="#000000" d="M460.8106,-906.5855C352.877,-885.8676 535.4571,-519.9619 537,-511 544.0505,-470.0469 578.5556,-417.5 537,-417.5"/>
<polygon fill="#000000" stroke="#000000" points="461.04,-906.6061 470.5977,-911.982 466.02,-907.053 471,-907.5 471,-907.5 471,-907.5 466.02,-907.053 471.4023,-903.018 461.04,-906.6061 461.04,-906.6061"/>
<text text-anchor="start" x="7.0955" y="-917.5" font-family="Arial" font-size="10.00" fill="#000000">FOREIGN KEY (tenant_id) REFERENCES tenant(id) ON UPDATE CASCADE ON DELETE CASCADE</text>
</g>
<!-- public.person -->
<g id="node7" class="node">
<title>public.person</title>
<polygon fill="#efefef" stroke="transparent" points="641,-582.5 641,-617.5 924,-617.5 924,-582.5 641,-582.5"/>
<polygon fill="none" stroke="#000000" points="641,-582.5 641,-617.5 924,-617.5 924,-582.5 641,-582.5"/>
<text text-anchor="start" x="665.2029" y="-595.3" font-family="Arial Bold" font-size="18.00" fill="#000000">public.person</text>
<text text-anchor="start" x="772.2291" y="-595.3" font-family="Arial" font-size="14.00" fill="#000000">    </text>
<text text-anchor="start" x="806.4339" y="-595.3" font-family="Arial" font-size="14.00" fill="#666666">[BASE TABLE]</text>
<polygon fill="none" stroke="#000000" points="641,-552.5 641,-582.5 924,-582.5 924,-552.5 641,-552.5"/>
<text text-anchor="start" x="648" y="-563.9" font-family="Arial" font-size="14.00" fill="#000000">id    </text>
<text text-anchor="start" x="693.094" y="-563.9" font-family="Arial" font-size="14.00" fill="#666666">[bigint]</text>
<polygon fill="none" stroke="#000000" points="641,-522.5 641,-552.5 924,-552.5 924,-522.5 641,-522.5"/>
<text text-anchor="start" x="648" y="-533.9" font-family="Arial" font-size="14.00" fill="#000000">first_name    </text>
<text text-anchor="start" x="747.5442" y="-533.9" font-family="Arial" font-size="14.00" fill="#666666">[text]</text>
<polygon fill="none" stroke="#000000" points="641,-492.5 641,-522.5 924,-522.5 924,-492.5 641,-492.5"/>
<text text-anchor="start" x="648" y="-503.9" font-family="Arial" font-size="14.00" fill="#000000">last_name    </text>
<text text-anchor="start" x="746.7756" y="-503.9" font-family="Arial" font-size="14.00" fill="#666666">[text]</text>
<polygon fill="none" stroke="#000000" points="641,-462.5 641,-492.5 924,-492.5 924,-462.5 641,-462.5"/>
<text text-anchor="start" x="648" y="-473.9" font-family="Arial" font-size="14.00" fill="#000000">gender    </text>
<text text-anchor="start" x="725.7784" y="-473.9" font-family="Arial" font-size="14.00" fill="#666666">[gender_type]</text>
<polygon fill="none" stroke="#000000" points="641,-432.5 641,-462.5 924,-462.5 924,-432.5 641,-432.5"/>
<text text-anchor="start" x="648" y="-443.9" font-family="Arial" font-size="14.00" fill="#000000">birth_date    </text>
<text text-anchor="start" x="744.4488" y="-443.9" font-family="Arial" font-size="14.00" fill="#666666">[date]</text>
<polygon fill="none" stroke="#000000" points="641,-402.5 641,-432.5 924,-432.5 924,-402.5 641,-402.5"/>
<text text-anchor="start" x="648" y="-413.9" font-family="Arial" font-size="14.00" fill="#000000">nationality    </text>
<text text-anchor="start" x="745.2188" y="-413.9" font-family="Arial" font-size="14.00" fill="#666666">[text]</text>
<polygon fill="none" stroke="#000000" points="641,-372.5 641,-402.5 924,-402.5 924,-372.5 641,-372.5"/>
<text text-anchor="start" x="648" y="-383.9" font-family="Arial" font-size="14.00" fill="#000000">tax_identification_number    </text>
<text text-anchor="start" x="841.6886" y="-383.9" font-family="Arial" font-size="14.00" fill="#666666">[text]</text>
<polygon fill="none" stroke="#000000" points="641,-342.5 641,-372.5 924,-372.5 924,-342.5 641,-342.5"/>
<text text-anchor="start" x="648" y="-353.9" font-family="Arial" font-size="14.00" fill="#000000">national_id_number    </text>
<text text-anchor="start" x="805.1276" y="-353.9" font-family="Arial" font-size="14.00" fill="#666666">[text]</text>
<polygon fill="none" stroke="#000000" points="641,-312.5 641,-342.5 924,-342.5 924,-312.5 641,-312.5"/>
<text text-anchor="start" x="648" y="-323.9" font-family="Arial" font-size="14.00" fill="#000000">csts_id    </text>
<text text-anchor="start" x="725.7672" y="-323.9" font-family="Arial" font-size="14.00" fill="#666666">[text]</text>
<polygon fill="none" stroke="#000000" points="641,-282.5 641,-312.5 924,-312.5 924,-282.5 641,-282.5"/>
<text text-anchor="start" x="648" y="-293.9" font-family="Arial" font-size="14.00" fill="#000000">wdsf_id    </text>
<text text-anchor="start" x="729.6564" y="-293.9" font-family="Arial" font-size="14.00" fill="#666666">[text]</text>
<polygon fill="none" stroke="#000000" points="641,-252.5 641,-282.5 924,-282.5 924,-252.5 641,-252.5"/>
<text text-anchor="start" x="648" y="-263.9" font-family="Arial" font-size="14.00" fill="#000000">created_at    </text>
<text text-anchor="start" x="748.3422" y="-263.9" font-family="Arial" font-size="14.00" fill="#666666">[timestamp with time zone]</text>
<polygon fill="none" stroke="#000000" points="641,-222.5 641,-252.5 924,-252.5 924,-222.5 641,-222.5"/>
<text text-anchor="start" x="647.5344" y="-233.9" font-family="Arial" font-size="14.00" fill="#000000">updated_at    </text>
<text text-anchor="start" x="751.7812" y="-233.9" font-family="Arial" font-size="14.00" fill="#666666">[timestamp with time zone]</text>
<polygon fill="none" stroke="#000000" points="641,-192.5 641,-222.5 924,-222.5 924,-192.5 641,-192.5"/>
<text text-anchor="start" x="648" y="-203.9" font-family="Arial" font-size="14.00" fill="#000000">legacy_user_id    </text>
<text text-anchor="start" x="776.3394" y="-203.9" font-family="Arial" font-size="14.00" fill="#666666">[bigint]</text>
<polygon fill="none" stroke="#000000" points="641,-162.5 641,-192.5 924,-192.5 924,-162.5 641,-162.5"/>
<text text-anchor="start" x="648" y="-173.9" font-family="Arial" font-size="14.00" fill="#000000">prefix_title    </text>
<text text-anchor="start" x="745.9874" y="-173.9" font-family="Arial" font-size="14.00" fill="#666666">[text]</text>
<polygon fill="none" stroke="#000000" points="641,-132.5 641,-162.5 924,-162.5 924,-132.5 641,-132.5"/>
<text text-anchor="start" x="648" y="-143.9" font-family="Arial" font-size="14.00" fill="#000000">suffix_title    </text>
<text text-anchor="start" x="744.4348" y="-143.9" font-family="Arial" font-size="14.00" fill="#666666">[text]</text>
<polygon fill="none" stroke="#000000" points="641,-102.5 641,-132.5 924,-132.5 924,-102.5 641,-102.5"/>
<text text-anchor="start" x="648" y="-113.9" font-family="Arial" font-size="14.00" fill="#000000">bio    </text>
<text text-anchor="start" x="700.8766" y="-113.9" font-family="Arial" font-size="14.00" fill="#666666">[text]</text>
<polygon fill="none" stroke="#000000" points="641,-72.5 641,-102.5 924,-102.5 924,-72.5 641,-72.5"/>
<text text-anchor="start" x="648" y="-83.9" font-family="Arial" font-size="14.00" fill="#000000">email    </text>
<text text-anchor="start" x="715.6438" y="-83.9" font-family="Arial" font-size="14.00" fill="#666666">[citext]</text>
<polygon fill="none" stroke="#000000" points="641,-42.5 641,-72.5 924,-72.5 924,-42.5 641,-42.5"/>
<text text-anchor="start" x="648" y="-53.9" font-family="Arial" font-size="14.00" fill="#000000">phone    </text>
<text text-anchor="start" x="721.1178" y="-53.9" font-family="Arial" font-size="14.00" fill="#666666">[text]</text>
</g>
<!-- public.account&#45;&gt;public.person -->
<g id="edge7" class="edge">
<title>public.account:person_id&#45;&gt;public.person:id</title>
<path fill="none" stroke="#000000" d="M737.1187,-876.8261C803.9903,-867.3782 769.4477,-760.7855 727,-697 704.0439,-662.5043 663.9561,-695.4957 641,-661 617.9777,-626.4047 599.4444,-567.5 641,-567.5"/>
<polygon fill="#000000" stroke="#000000" points="736.9779,-876.8354 726.7009,-873.0099 731.9889,-877.1677 727,-877.5 727,-877.5 727,-877.5 731.9889,-877.1677 727.2991,-881.9901 736.9779,-876.8354 736.9779,-876.8354"/>
<text text-anchor="start" x="734.3245" y="-887.5" font-family="Arial" font-size="10.00" fill="#000000">FOREIGN KEY (person_id) REFERENCES person(id) ON UPDATE CASCADE ON DELETE CASCADE</text>
</g>
<!-- public.posting -->
<g id="node2" class="node">
<title>public.posting</title>
<polygon fill="#efefef" stroke="transparent" points="70,-1607.5 70,-1642.5 353,-1642.5 353,-1607.5 70,-1607.5"/>
<polygon fill="none" stroke="#000000" points="70,-1607.5 70,-1642.5 353,-1642.5 353,-1607.5 70,-1607.5"/>
<text text-anchor="start" x="92.7008" y="-1620.3" font-family="Arial Bold" font-size="18.00" fill="#000000">public.posting</text>
<text text-anchor="start" x="202.7312" y="-1620.3" font-family="Arial" font-size="14.00" fill="#000000">    </text>
<text text-anchor="start" x="236.936" y="-1620.3" font-family="Arial" font-size="14.00" fill="#666666">[BASE TABLE]</text>
<polygon fill="none" stroke="#000000" points="70,-1577.5 70,-1607.5 353,-1607.5 353,-1577.5 70,-1577.5"/>
<text text-anchor="start" x="77" y="-1588.9" font-family="Arial" font-size="14.00" fill="#000000">id    </text>
<text text-anchor="start" x="122.094" y="-1588.9" font-family="Arial" font-size="14.00" fill="#666666">[bigint]</text>
<polygon fill="none" stroke="#000000" points="70,-1547.5 70,-1577.5 353,-1577.5 353,-1547.5 70,-1547.5"/>
<text text-anchor="start" x="77" y="-1558.9" font-family="Arial" font-size="14.00" fill="#000000">tenant_id    </text>
<text text-anchor="start" x="168.7882" y="-1558.9" font-family="Arial" font-size="14.00" fill="#666666">[bigint]</text>
<polygon fill="none" stroke="#000000" points="70,-1517.5 70,-1547.5 353,-1547.5 353,-1517.5 70,-1517.5"/>
<text text-anchor="start" x="77" y="-1528.9" font-family="Arial" font-size="14.00" fill="#000000">transaction_id    </text>
<text text-anchor="start" x="198.338" y="-1528.9" font-family="Arial" font-size="14.00" fill="#666666">[bigint]</text>
<polygon fill="none" stroke="#000000" points="70,-1487.5 70,-1517.5 353,-1517.5 353,-1487.5 70,-1487.5"/>
<text text-anchor="start" x="77" y="-1498.9" font-family="Arial" font-size="14.00" fill="#000000">account_id    </text>
<text text-anchor="start" x="178.8976" y="-1498.9" font-family="Arial" font-size="14.00" fill="#666666">[bigint]</text>
<polygon fill="none" stroke="#000000" points="70,-1457.5 70,-1487.5 353,-1487.5 353,-1457.5 70,-1457.5"/>
<text text-anchor="start" x="77" y="-1468.9" font-family="Arial" font-size="14.00" fill="#000000">original_account_id    </text>
<text text-anchor="start" x="231.791" y="-1468.9" font-family="Arial" font-size="14.00" fill="#666666">[bigint]</text>
<polygon fill="none" stroke="#000000" points="70,-1427.5 70,-1457.5 353,-1457.5 353,-1427.5 70,-1427.5"/>
<text text-anchor="start" x="77" y="-1438.9" font-family="Arial" font-size="14.00" fill="#000000">amount    </text>
<text text-anchor="start" x="157.8864" y="-1438.9" font-family="Arial" font-size="14.00" fill="#666666">[numeric(19,4)]</text>
<polygon fill="none" stroke="#000000" points="70,-1397.5 70,-1427.5 353,-1427.5 353,-1397.5 70,-1397.5"/>
<text text-anchor="start" x="77" y="-1408.9" font-family="Arial" font-size="14.00" fill="#000000">created_at    </text>
<text text-anchor="start" x="177.3422" y="-1408.9" font-family="Arial" font-size="14.00" fill="#666666">[timestamp with time zone]</text>
<polygon fill="none" stroke="#000000" points="70,-1367.5 70,-1397.5 353,-1397.5 353,-1367.5 70,-1367.5"/>
<text text-anchor="start" x="76.5344" y="-1378.9" font-family="Arial" font-size="14.00" fill="#000000">updated_at    </text>
<text text-anchor="start" x="180.7812" y="-1378.9" font-family="Arial" font-size="14.00" fill="#666666">[timestamp with time zone]</text>
</g>
<!-- public.posting&#45;&gt;public.account -->
<g id="edge1" class="edge">
<title>public.posting:account_id&#45;&gt;public.account:id</title>
<path fill="none" stroke="#000000" d="M361.8745,-1497.6038C399.9922,-1452.7104 390.9621,-1113.2529 404,-1070 423.045,-1006.8185 405.0105,-937.5 471,-937.5"/>
<polygon fill="#000000" stroke="#000000" points="361.7558,-1497.6692 350.8261,-1498.5599 357.3779,-1500.0846 353,-1502.5 353,-1502.5 353,-1502.5 357.3779,-1500.0846 355.1739,-1506.4401 361.7558,-1497.6692 361.7558,-1497.6692"/>
<text text-anchor="start" x="360.2665" y="-1512.5" font-family="Arial" font-size="10.00" fill="#000000">FOREIGN KEY (account_id) REFERENCES account(id)</text>
</g>
<!-- public.posting&#45;&gt;public.account -->
<g id="edge2" class="edge">
<title>public.posting:original_account_id&#45;&gt;public.account:id</title>
<path fill="none" stroke="#000000" d="M363.3251,-1470.9414C437.9368,-1446.9414 378.6884,-1152.6737 404,-1070 423.3184,-1006.9015 405.0105,-937.5 471,-937.5"/>
<polygon fill="#000000" stroke="#000000" points="362.888,-1471.0073 352.3283,-1468.0504 357.944,-1471.7537 353,-1472.5 353,-1472.5 353,-1472.5 357.944,-1471.7537 353.6717,-1476.9496 362.888,-1471.0073 362.888,-1471.0073"/>
<text text-anchor="start" x="360.376" y="-1482.5" font-family="Arial" font-size="10.00" fill="#000000">FOREIGN KEY (original_account_id) REFERENCES account(id)</text>
</g>
<!-- public.event -->
<g id="node3" class="node">
<title>public.event</title>
<polygon fill="#efefef" stroke="transparent" points="457,-1862.5 457,-1897.5 740,-1897.5 740,-1862.5 457,-1862.5"/>
<polygon fill="none" stroke="#000000" points="457,-1862.5 457,-1897.5 740,-1897.5 740,-1862.5 457,-1862.5"/>
<text text-anchor="start" x="486.701" y="-1875.3" font-family="Arial Bold" font-size="18.00" fill="#000000">public.event</text>
<text text-anchor="start" x="582.731" y="-1875.3" font-family="Arial" font-size="14.00" fill="#000000">    </text>
<text text-anchor="start" x="616.9358" y="-1875.3" font-family="Arial" font-size="14.00" fill="#666666">[BASE TABLE]</text>
<polygon fill="none" stroke="#000000" points="457,-1832.5 457,-1862.5 740,-1862.5 740,-1832.5 457,-1832.5"/>
<text text-anchor="start" x="464" y="-1843.9" font-family="Arial" font-size="14.00" fill="#000000">id    </text>
<text text-anchor="start" x="509.094" y="-1843.9" font-family="Arial" font-size="14.00" fill="#666666">[bigint]</text>
<polygon fill="none" stroke="#000000" points="457,-1802.5 457,-1832.5 740,-1832.5 740,-1802.5 457,-1802.5"/>
<text text-anchor="start" x="464" y="-1813.9" font-family="Arial" font-size="14.00" fill="#000000">name    </text>
<text text-anchor="start" x="533.2132" y="-1813.9" font-family="Arial" font-size="14.00" fill="#666666">[text]</text>
<polygon fill="none" stroke="#000000" points="457,-1772.5 457,-1802.5 740,-1802.5 740,-1772.5 457,-1772.5"/>
<text text-anchor="start" x="464" y="-1783.9" font-family="Arial" font-size="14.00" fill="#000000">location_text    </text>
<text text-anchor="start" x="576.7854" y="-1783.9" font-family="Arial" font-size="14.00" fill="#666666">[text]</text>
<polygon fill="none" stroke="#000000" points="457,-1742.5 457,-1772.5 740,-1772.5 740,-1742.5 457,-1742.5"/>
<text text-anchor="start" x="464" y="-1753.9" font-family="Arial" font-size="14.00" fill="#000000">description    </text>
<text text-anchor="start" x="565.8822" y="-1753.9" font-family="Arial" font-size="14.00" fill="#666666">[text]</text>
<polygon fill="none" stroke="#000000" points="457,-1712.5 457,-1742.5 740,-1742.5 740,-1712.5 457,-1712.5"/>
<text text-anchor="start" x="464" y="-1723.9" font-family="Arial" font-size="14.00" fill="#000000">since    </text>
<text text-anchor="start" x="530.8766" y="-1723.9" font-family="Arial" font-size="14.00" fill="#666666">[date]</text>
<polygon fill="none" stroke="#000000" points="457,-1682.5 457,-1712.5 740,-1712.5 740,-1682.5 457,-1682.5"/>
<text text-anchor="start" x="464" y="-1693.9" font-family="Arial" font-size="14.00" fill="#000000">until    </text>
<text text-anchor="start" x="523.8738" y="-1693.9" font-family="Arial" font-size="14.00" fill="#666666">[date]</text>
<polygon fill="none" stroke="#000000" points="457,-1652.5 457,-1682.5 740,-1682.5 740,-1652.5 457,-1652.5"/>
<text text-anchor="start" x="464" y="-1663.9" font-family="Arial" font-size="14.00" fill="#000000">capacity    </text>
<text text-anchor="start" x="549.5498" y="-1663.9" font-family="Arial" font-size="14.00" fill="#666666">[integer]</text>
<polygon fill="none" stroke="#000000" points="457,-1622.5 457,-1652.5 740,-1652.5 740,-1622.5 457,-1622.5"/>
<text text-anchor="start" x="464" y="-1633.9" font-family="Arial" font-size="14.00" fill="#000000">files_legacy    </text>
<text text-anchor="start" x="571.3282" y="-1633.9" font-family="Arial" font-size="14.00" fill="#666666">[text]</text>
<polygon fill="none" stroke="#000000" points="457,-1592.5 457,-1622.5 740,-1622.5 740,-1592.5 457,-1592.5"/>
<text text-anchor="start" x="463.5344" y="-1603.9" font-family="Arial" font-size="14.00" fill="#000000">updated_at    </text>
<text text-anchor="start" x="567.7812" y="-1603.9" font-family="Arial" font-size="14.00" fill="#666666">[timestamp with time zone]</text>
<polygon fill="none" stroke="#000000" points="457,-1562.5 457,-1592.5 740,-1592.5 740,-1562.5 457,-1562.5"/>
<text text-anchor="start" x="464" y="-1573.9" font-family="Arial" font-size="14.00" fill="#000000">is_locked    </text>
<text text-anchor="start" x="556.5484" y="-1573.9" font-family="Arial" font-size="14.00" fill="#666666">[boolean]</text>
<polygon fill="none" stroke="#000000" points="457,-1532.5 457,-1562.5 740,-1562.5 740,-1532.5 457,-1532.5"/>
<text text-anchor="start" x="464" y="-1543.9" font-family="Arial" font-size="14.00" fill="#000000">is_visible    </text>
<text text-anchor="start" x="554.979" y="-1543.9" font-family="Arial" font-size="14.00" fill="#666666">[boolean]</text>
<polygon fill="none" stroke="#000000" points="457,-1502.5 457,-1532.5 740,-1532.5 740,-1502.5 457,-1502.5"/>
<text text-anchor="start" x="464" y="-1513.9" font-family="Arial" font-size="14.00" fill="#000000">summary    </text>
<text text-anchor="start" x="555.7518" y="-1513.9" font-family="Arial" font-size="14.00" fill="#666666">[text]</text>
<polygon fill="none" stroke="#000000" points="457,-1472.5 457,-1502.5 740,-1502.5 740,-1472.5 457,-1472.5"/>
<text text-anchor="start" x="464" y="-1483.9" font-family="Arial" font-size="14.00" fill="#000000">is_public    </text>
<text text-anchor="start" x="552.655" y="-1483.9" font-family="Arial" font-size="14.00" fill="#666666">[boolean]</text>
<polygon fill="none" stroke="#000000" points="457,-1442.5 457,-1472.5 740,-1472.5 740,-1442.5 457,-1442.5"/>
<text text-anchor="start" x="464" y="-1453.9" font-family="Arial" font-size="14.00" fill="#000000">enable_notes    </text>
<text text-anchor="start" x="582.2454" y="-1453.9" font-family="Arial" font-size="14.00" fill="#666666">[boolean]</text>
<polygon fill="none" stroke="#000000" points="457,-1412.5 457,-1442.5 740,-1442.5 740,-1412.5 457,-1412.5"/>
<text text-anchor="start" x="464" y="-1423.9" font-family="Arial" font-size="14.00" fill="#000000">tenant_id    </text>
<text text-anchor="start" x="555.7882" y="-1423.9" font-family="Arial" font-size="14.00" fill="#666666">[bigint]</text>
<polygon fill="none" stroke="#000000" points="457,-1382.5 457,-1412.5 740,-1412.5 740,-1382.5 457,-1382.5"/>
<text text-anchor="start" x="464" y="-1393.9" font-family="Arial" font-size="14.00" fill="#000000">description_member    </text>
<text text-anchor="start" x="624.9944" y="-1393.9" font-family="Arial" font-size="14.00" fill="#666666">[text]</text>
<polygon fill="none" stroke="#000000" points="457,-1352.5 457,-1382.5 740,-1382.5 740,-1352.5 457,-1352.5"/>
<text text-anchor="start" x="464" y="-1363.9" font-family="Arial" font-size="14.00" fill="#000000">title_image_legacy    </text>
<text text-anchor="start" x="614.1164" y="-1363.9" font-family="Arial" font-size="14.00" fill="#666666">[text]</text>
<polygon fill="none" stroke="#000000" points="457,-1322.5 457,-1352.5 740,-1352.5 740,-1322.5 457,-1322.5"/>
<text text-anchor="start" x="464" y="-1333.9" font-family="Arial" font-size="14.00" fill="#000000">type    </text>
<text text-anchor="start" x="524.6606" y="-1333.9" font-family="Arial" font-size="14.00" fill="#666666">[event_type]</text>
<polygon fill="none" stroke="#000000" points="457,-1292.5 457,-1322.5 740,-1322.5 740,-1292.5 457,-1292.5"/>
<text text-anchor="start" x="464" y="-1303.9" font-family="Arial" font-size="14.00" fill="#000000">payment_type    </text>
<text text-anchor="start" x="586.1248" y="-1303.9" font-family="Arial" font-size="14.00" fill="#666666">[event_payment_type]</text>
<polygon fill="none" stroke="#000000" points="457,-1262.5 457,-1292.5 740,-1292.5 740,-1262.5 457,-1262.5"/>
<text text-anchor="start" x="464" y="-1273.9" font-family="Arial" font-size="14.00" fill="#000000">member_price    </text>
<text text-anchor="start" x="587.6494" y="-1273.9" font-family="Arial" font-size="14.00" fill="#666666">[price]</text>
<polygon fill="none" stroke="#000000" points="457,-1232.5 457,-1262.5 740,-1262.5 740,-1232.5 457,-1232.5"/>
<text text-anchor="start" x="464" y="-1243.9" font-family="Arial" font-size="14.00" fill="#000000">guest_price    </text>
<text text-anchor="start" x="570.5582" y="-1243.9" font-family="Arial" font-size="14.00" fill="#666666">[price]</text>
<polygon fill="none" stroke="#000000" points="457,-1202.5 457,-1232.5 740,-1232.5 740,-1202.5 457,-1202.5"/>
<text text-anchor="start" x="464" y="-1213.9" font-family="Arial" font-size="14.00" fill="#000000">location_id    </text>
<text text-anchor="start" x="565.1108" y="-1213.9" font-family="Arial" font-size="14.00" fill="#666666">[bigint]</text>
<polygon fill="none" stroke="#000000" points="457,-1172.5 457,-1202.5 740,-1202.5 740,-1172.5 457,-1172.5"/>
<text text-anchor="start" x="464" y="-1183.9" font-family="Arial" font-size="14.00" fill="#000000">is_paid_by_tenant    </text>
<text text-anchor="start" x="611.8078" y="-1183.9" font-family="Arial" font-size="14.00" fill="#666666">[boolean]</text>
<polygon fill="none" stroke="#000000" points="457,-1142.5 457,-1172.5 740,-1172.5 740,-1142.5 457,-1142.5"/>
<text text-anchor="start" x="464" y="-1153.9" font-family="Arial" font-size="14.00" fill="#000000">payment_recipient_id    </text>
<text text-anchor="start" x="631.2356" y="-1153.9" font-family="Arial" font-size="14.00" fill="#666666">[bigint]</text>
<polygon fill="none" stroke="#000000" points="457,-1112.5 457,-1142.5 740,-1142.5 740,-1112.5 457,-1112.5"/>
<text text-anchor="start" x="464" y="-1123.9" font-family="Arial" font-size="14.00" fill="#000000">created_at    </text>
<text text-anchor="start" x="564.3422" y="-1123.9" font-family="Arial" font-size="14.00" fill="#666666">[timestamp with time zone]</text>
</g>
<!-- public.event&#45;&gt;public.account -->
<g id="edge3" class="edge">
<title>public.event:payment_recipient_id&#45;&gt;public.account:id</title>
<path fill="none" stroke="#000000" d="M749.9378,-1155.9151C776.1777,-1146.4024 763.109,-1096.4076 740,-1070 660.5658,-979.227 550.4342,-1124.773 471,-1034 442.7559,-1001.7242 428.1111,-937.5 471,-937.5"/>
<polygon fill="#000000" stroke="#000000" points="749.8752,-1155.925 739.2913,-1153.0562 744.9376,-1156.7125 740,-1157.5 740,-1157.5 740,-1157.5 744.9376,-1156.7125 740.7087,-1161.9438 749.8752,-1155.925 749.8752,-1155.925"/>
<text text-anchor="start" x="746.9315" y="-1167.5" font-family="Arial" font-size="10.00" fill="#000000">FOREIGN KEY (payment_recipient_id) REFERENCES account(id)</text>
</g>
<!-- public.cohort_subscription -->
<g id="node4" class="node">
<title>public.cohort_subscription</title>
<polygon fill="#efefef" stroke="transparent" points="844,-1637.5 844,-1672.5 1193,-1672.5 1193,-1637.5 844,-1637.5"/>
<polygon fill="none" stroke="#000000" points="844,-1637.5 844,-1672.5 1193,-1672.5 1193,-1637.5 844,-1637.5"/>
<text text-anchor="start" x="850.6949" y="-1650.3" font-family="Arial Bold" font-size="18.00" fill="#000000">public.cohort_subscription</text>
<text text-anchor="start" x="1058.7371" y="-1650.3" font-family="Arial" font-size="14.00" fill="#000000">    </text>
<text text-anchor="start" x="1092.9419" y="-1650.3" font-family="Arial" font-size="14.00" fill="#666666">[BASE TABLE]</text>
<polygon fill="none" stroke="#000000" points="844,-1607.5 844,-1637.5 1193,-1637.5 1193,-1607.5 844,-1607.5"/>
<text text-anchor="start" x="851" y="-1618.9" font-family="Arial" font-size="14.00" fill="#000000">id    </text>
<text text-anchor="start" x="896.094" y="-1618.9" font-family="Arial" font-size="14.00" fill="#666666">[bigint]</text>
<polygon fill="none" stroke="#000000" points="844,-1577.5 844,-1607.5 1193,-1607.5 1193,-1577.5 844,-1577.5"/>
<text text-anchor="start" x="851" y="-1588.9" font-family="Arial" font-size="14.00" fill="#000000">cohort_id    </text>
<text text-anchor="start" x="942.7756" y="-1588.9" font-family="Arial" font-size="14.00" fill="#666666">[bigint]</text>
<polygon fill="none" stroke="#000000" points="844,-1547.5 844,-1577.5 1193,-1577.5 1193,-1547.5 844,-1547.5"/>
<text text-anchor="start" x="851" y="-1558.9" font-family="Arial" font-size="14.00" fill="#000000">tenant_id    </text>
<text text-anchor="start" x="942.7882" y="-1558.9" font-family="Arial" font-size="14.00" fill="#666666">[bigint]</text>
<polygon fill="none" stroke="#000000" points="844,-1517.5 844,-1547.5 1193,-1547.5 1193,-1517.5 844,-1517.5"/>
<text text-anchor="start" x="851" y="-1528.9" font-family="Arial" font-size="14.00" fill="#000000">account_id    </text>
<text text-anchor="start" x="952.8976" y="-1528.9" font-family="Arial" font-size="14.00" fill="#666666">[bigint]</text>
<polygon fill="none" stroke="#000000" points="844,-1487.5 844,-1517.5 1193,-1517.5 1193,-1487.5 844,-1487.5"/>
<text text-anchor="start" x="851" y="-1498.9" font-family="Arial" font-size="14.00" fill="#000000">price    </text>
<text text-anchor="start" x="915.5372" y="-1498.9" font-family="Arial" font-size="14.00" fill="#666666">[price]</text>
<polygon fill="none" stroke="#000000" points="844,-1457.5 844,-1487.5 1193,-1487.5 1193,-1457.5 844,-1457.5"/>
<text text-anchor="start" x="851" y="-1468.9" font-family="Arial" font-size="14.00" fill="#000000">active    </text>
<text text-anchor="start" x="921.7672" y="-1468.9" font-family="Arial" font-size="14.00" fill="#666666">[boolean]</text>
<polygon fill="none" stroke="#000000" points="844,-1427.5 844,-1457.5 1193,-1457.5 1193,-1427.5 844,-1427.5"/>
<text text-anchor="start" x="851" y="-1438.9" font-family="Arial" font-size="14.00" fill="#000000">renews_on    </text>
<text text-anchor="start" x="953.6676" y="-1438.9" font-family="Arial" font-size="14.00" fill="#666666">[timestamp with time zone]</text>
<polygon fill="none" stroke="#000000" points="844,-1397.5 844,-1427.5 1193,-1427.5 1193,-1397.5 844,-1397.5"/>
<text text-anchor="start" x="851" y="-1408.9" font-family="Arial" font-size="14.00" fill="#000000">interval    </text>
<text text-anchor="start" x="930.317" y="-1408.9" font-family="Arial" font-size="14.00" fill="#666666">[interval]</text>
<polygon fill="none" stroke="#000000" points="844,-1367.5 844,-1397.5 1193,-1397.5 1193,-1367.5 844,-1367.5"/>
<text text-anchor="start" x="851" y="-1378.9" font-family="Arial" font-size="14.00" fill="#000000">created_at    </text>
<text text-anchor="start" x="951.3422" y="-1378.9" font-family="Arial" font-size="14.00" fill="#666666">[timestamp with time zone]</text>
<polygon fill="none" stroke="#000000" points="844,-1337.5 844,-1367.5 1193,-1367.5 1193,-1337.5 844,-1337.5"/>
<text text-anchor="start" x="851" y="-1348.9" font-family="Arial" font-size="14.00" fill="#000000">updated_at    </text>
<text text-anchor="start" x="955.2468" y="-1348.9" font-family="Arial" font-size="14.00" fill="#666666">[timestamp with time zone]</text>
</g>
<!-- public.cohort_subscription&#45;&gt;public.account -->
<g id="edge4" class="edge">
<title>public.cohort_subscription:account_id&#45;&gt;public.account:id</title>
<path fill="none" stroke="#000000" d="M835.0532,-1527.8513C793.9507,-1482.3114 805.585,-1116.5384 792,-1070 773.6199,-1007.0346 792.5932,-937.5 727,-937.5"/>
<polygon fill="#000000" stroke="#000000" points="835.1264,-1527.8892 841.9252,-1536.4931 839.5632,-1530.1946 844,-1532.5 844,-1532.5 844,-1532.5 839.5632,-1530.1946 846.0748,-1528.5069 835.1264,-1527.8892 835.1264,-1527.8892"/>
<text text-anchor="start" x="850.8745" y="-1542.5" font-family="Arial" font-size="10.00" fill="#000000">FOREIGN KEY (account_id) REFERENCES account(id) ON UPDATE CASCADE ON DELETE CASCADE</text>
</g>
<!-- public.payment_recipient -->
<g id="node5" class="node">
<title>public.payment_recipient</title>
<polygon fill="#efefef" stroke="transparent" points="1297,-1562.5 1297,-1597.5 1637,-1597.5 1637,-1562.5 1297,-1562.5"/>
<polygon fill="none" stroke="#000000" points="1297,-1562.5 1297,-1597.5 1637,-1597.5 1637,-1562.5 1297,-1562.5"/>
<text text-anchor="start" x="1303.6949" y="-1575.3" font-family="Arial Bold" font-size="18.00" fill="#000000">public.payment_recipient</text>
<text text-anchor="start" x="1502.7371" y="-1575.3" font-family="Arial" font-size="14.00" fill="#000000">    </text>
<text text-anchor="start" x="1536.9419" y="-1575.3" font-family="Arial" font-size="14.00" fill="#666666">[BASE TABLE]</text>
<polygon fill="none" stroke="#000000" points="1297,-1532.5 1297,-1562.5 1637,-1562.5 1637,-1532.5 1297,-1532.5"/>
<text text-anchor="start" x="1304" y="-1543.9" font-family="Arial" font-size="14.00" fill="#000000">id    </text>
<text text-anchor="start" x="1349.094" y="-1543.9" font-family="Arial" font-size="14.00" fill="#666666">[bigint]</text>
<polygon fill="none" stroke="#000000" points="1297,-1502.5 1297,-1532.5 1637,-1532.5 1637,-1502.5 1297,-1502.5"/>
<text text-anchor="start" x="1304" y="-1513.9" font-family="Arial" font-size="14.00" fill="#000000">tenant_id    </text>
<text text-anchor="start" x="1395.7882" y="-1513.9" font-family="Arial" font-size="14.00" fill="#666666">[bigint]</text>
<polygon fill="none" stroke="#000000" points="1297,-1472.5 1297,-1502.5 1637,-1502.5 1637,-1472.5 1297,-1472.5"/>
<text text-anchor="start" x="1304" y="-1483.9" font-family="Arial" font-size="14.00" fill="#000000">payment_id    </text>
<text text-anchor="start" x="1410.5582" y="-1483.9" font-family="Arial" font-size="14.00" fill="#666666">[bigint]</text>
<polygon fill="none" stroke="#000000" points="1297,-1442.5 1297,-1472.5 1637,-1472.5 1637,-1442.5 1297,-1442.5"/>
<text text-anchor="start" x="1304" y="-1453.9" font-family="Arial" font-size="14.00" fill="#000000">account_id    </text>
<text text-anchor="start" x="1405.8976" y="-1453.9" font-family="Arial" font-size="14.00" fill="#666666">[bigint]</text>
<polygon fill="none" stroke="#000000" points="1297,-1412.5 1297,-1442.5 1637,-1442.5 1637,-1412.5 1297,-1412.5"/>
<text text-anchor="start" x="1304" y="-1423.9" font-family="Arial" font-size="14.00" fill="#000000">amount    </text>
<text text-anchor="start" x="1384.8864" y="-1423.9" font-family="Arial" font-size="14.00" fill="#666666">[numeric(19,4)]</text>
</g>
<!-- public.payment_recipient&#45;&gt;public.account -->
<g id="edge5" class="edge">
<title>public.payment_recipient:account_id&#45;&gt;public.account:id</title>
<path fill="none" stroke="#000000" d="M1286.7683,-1455.7593C1217.799,-1430.2543 1300.2568,-1132.1335 1245,-1070 1166.0405,-981.2141 845.8173,-937.5 727,-937.5"/>
<polygon fill="#000000" stroke="#000000" points="1287.1417,-1455.8227 1296.2452,-1461.9363 1292.0708,-1456.6614 1297,-1457.5 1297,-1457.5 1297,-1457.5 1292.0708,-1456.6614 1297.7548,-1453.0637 1287.1417,-1455.8227 1287.1417,-1455.8227"/>
<text text-anchor="start" x="1303.8745" y="-1467.5" font-family="Arial" font-size="10.00" fill="#000000">FOREIGN KEY (account_id) REFERENCES account(id) ON UPDATE CASCADE ON DELETE CASCADE</text>
</g>
</g>
</svg>
