<?xml version="1.0" encoding="UTF-8" standalone="no"?>
<!DOCTYPE svg PUBLIC "-//W3C//DTD SVG 1.1//EN"
 "http://www.w3.org/Graphics/SVG/1.1/DTD/svg11.dtd">
<!-- Generated by graphviz version 2.40.1 (20161225.0304)
 -->
<!-- Title: public.membership_application Pages: 1 -->
<svg width="1354pt" height="1402pt"
 viewBox="0.00 0.00 1354.00 1402.00" xmlns="http://www.w3.org/2000/svg" xmlns:xlink="http://www.w3.org/1999/xlink">
<g id="graph0" class="graph" transform="scale(1 1) rotate(0) translate(4 1398)">
<title>public.membership_application</title>
<polygon fill="#ffffff" stroke="transparent" points="-4,4 -4,-1398 1350,-1398 1350,4 -4,4"/>
<!-- public.membership_application -->
<g id="node1" class="node">
<title>public.membership_application</title>
<polygon fill="#efefef" stroke="transparent" points="471,-1312.5 471,-1347.5 859,-1347.5 859,-1312.5 471,-1312.5"/>
<polygon fill="none" stroke="#000000" points="471,-1312.5 471,-1347.5 859,-1347.5 859,-1312.5 471,-1312.5"/>
<text text-anchor="start" x="477.6964" y="-1325.3" font-family="Arial Bold" font-size="18.00" fill="#000000">public.membership_application</text>
<text text-anchor="start" x="724.7356" y="-1325.3" font-family="Arial" font-size="14.00" fill="#000000">    </text>
<text text-anchor="start" x="758.9404" y="-1325.3" font-family="Arial" font-size="14.00" fill="#666666">[BASE TABLE]</text>
<polygon fill="none" stroke="#000000" points="471,-1282.5 471,-1312.5 859,-1312.5 859,-1282.5 471,-1282.5"/>
<text text-anchor="start" x="478" y="-1293.9" font-family="Arial" font-size="14.00" fill="#000000">id </text>
<text text-anchor="start" x="492.7798" y="-1293.9" font-family="Arial" font-size="14.00" fill="#666666">[bigint]</text>
<polygon fill="none" stroke="#000000" points="471,-1252.5 471,-1282.5 859,-1282.5 859,-1252.5 471,-1252.5"/>
<text text-anchor="start" x="478" y="-1263.9" font-family="Arial" font-size="14.00" fill="#000000">tenant_id </text>
<text text-anchor="start" x="539.474" y="-1263.9" font-family="Arial" font-size="14.00" fill="#666666">[bigint]</text>
<polygon fill="none" stroke="#000000" points="471,-1222.5 471,-1252.5 859,-1252.5 859,-1222.5 471,-1222.5"/>
<text text-anchor="start" x="478" y="-1233.9" font-family="Arial" font-size="14.00" fill="#000000">first_name </text>
<text text-anchor="start" x="547.23" y="-1233.9" font-family="Arial" font-size="14.00" fill="#666666">[text]</text>
<polygon fill="none" stroke="#000000" points="471,-1192.5 471,-1222.5 859,-1222.5 859,-1192.5 471,-1192.5"/>
<text text-anchor="start" x="478" y="-1203.9" font-family="Arial" font-size="14.00" fill="#000000">middle_name </text>
<text text-anchor="start" x="565.9032" y="-1203.9" font-family="Arial" font-size="14.00" fill="#666666">[text]</text>
<polygon fill="none" stroke="#000000" points="471,-1162.5 471,-1192.5 859,-1192.5 859,-1162.5 471,-1162.5"/>
<text text-anchor="start" x="478" y="-1173.9" font-family="Arial" font-size="14.00" fill="#000000">last_name </text>
<text text-anchor="start" x="546.4614" y="-1173.9" font-family="Arial" font-size="14.00" fill="#666666">[text]</text>
<polygon fill="none" stroke="#000000" points="471,-1132.5 471,-1162.5 859,-1162.5 859,-1132.5 471,-1132.5"/>
<text text-anchor="start" x="478" y="-1143.9" font-family="Arial" font-size="14.00" fill="#000000">gender </text>
<text text-anchor="start" x="525.4642" y="-1143.9" font-family="Arial" font-size="14.00" fill="#666666">[gender_type]</text>
<polygon fill="none" stroke="#000000" points="471,-1102.5 471,-1132.5 859,-1132.5 859,-1102.5 471,-1102.5"/>
<text text-anchor="start" x="478" y="-1113.9" font-family="Arial" font-size="14.00" fill="#000000">birth_date </text>
<text text-anchor="start" x="544.1346" y="-1113.9" font-family="Arial" font-size="14.00" fill="#666666">[date]</text>
<polygon fill="none" stroke="#000000" points="471,-1072.5 471,-1102.5 859,-1102.5 859,-1072.5 471,-1072.5"/>
<text text-anchor="start" x="478" y="-1083.9" font-family="Arial" font-size="14.00" fill="#000000">nationality </text>
<text text-anchor="start" x="544.9046" y="-1083.9" font-family="Arial" font-size="14.00" fill="#666666">[text]</text>
<polygon fill="none" stroke="#000000" points="471,-1042.5 471,-1072.5 859,-1072.5 859,-1042.5 471,-1042.5"/>
<text text-anchor="start" x="478" y="-1053.9" font-family="Arial" font-size="14.00" fill="#000000">tax_identification_number </text>
<text text-anchor="start" x="641.3744" y="-1053.9" font-family="Arial" font-size="14.00" fill="#666666">[text]</text>
<polygon fill="none" stroke="#000000" points="471,-1012.5 471,-1042.5 859,-1042.5 859,-1012.5 471,-1012.5"/>
<text text-anchor="start" x="478" y="-1023.9" font-family="Arial" font-size="14.00" fill="#000000">national_id_number </text>
<text text-anchor="start" x="604.8134" y="-1023.9" font-family="Arial" font-size="14.00" fill="#666666">[text]</text>
<polygon fill="none" stroke="#000000" points="471,-982.5 471,-1012.5 859,-1012.5 859,-982.5 471,-982.5"/>
<text text-anchor="start" x="478" y="-993.9" font-family="Arial" font-size="14.00" fill="#000000">csts_id </text>
<text text-anchor="start" x="525.453" y="-993.9" font-family="Arial" font-size="14.00" fill="#666666">[text]</text>
<polygon fill="none" stroke="#000000" points="471,-952.5 471,-982.5 859,-982.5 859,-952.5 471,-952.5"/>
<text text-anchor="start" x="478" y="-963.9" font-family="Arial" font-size="14.00" fill="#000000">wdsf_id </text>
<text text-anchor="start" x="529.3422" y="-963.9" font-family="Arial" font-size="14.00" fill="#666666">[text]</text>
<polygon fill="none" stroke="#000000" points="471,-922.5 471,-952.5 859,-952.5 859,-922.5 471,-922.5"/>
<text text-anchor="start" x="478" y="-933.9" font-family="Arial" font-size="14.00" fill="#000000">prefix_title </text>
<text text-anchor="start" x="545.6732" y="-933.9" font-family="Arial" font-size="14.00" fill="#666666">[text]</text>
<polygon fill="none" stroke="#000000" points="471,-892.5 471,-922.5 859,-922.5 859,-892.5 471,-892.5"/>
<text text-anchor="start" x="478" y="-903.9" font-family="Arial" font-size="14.00" fill="#000000">suffix_title </text>
<text text-anchor="start" x="544.1206" y="-903.9" font-family="Arial" font-size="14.00" fill="#666666">[text]</text>
<polygon fill="none" stroke="#000000" points="471,-862.5 471,-892.5 859,-892.5 859,-862.5 471,-862.5"/>
<text text-anchor="start" x="478" y="-873.9" font-family="Arial" font-size="14.00" fill="#000000">bio </text>
<text text-anchor="start" x="500.5624" y="-873.9" font-family="Arial" font-size="14.00" fill="#666666">[text]</text>
<polygon fill="none" stroke="#000000" points="471,-832.5 471,-862.5 859,-862.5 859,-832.5 471,-832.5"/>
<text text-anchor="start" x="478" y="-843.9" font-family="Arial" font-size="14.00" fill="#000000">email </text>
<text text-anchor="start" x="515.3296" y="-843.9" font-family="Arial" font-size="14.00" fill="#666666">[citext]</text>
<polygon fill="none" stroke="#000000" points="471,-802.5 471,-832.5 859,-832.5 859,-802.5 471,-802.5"/>
<text text-anchor="start" x="478" y="-813.9" font-family="Arial" font-size="14.00" fill="#000000">phone </text>
<text text-anchor="start" x="520.8036" y="-813.9" font-family="Arial" font-size="14.00" fill="#666666">[text]</text>
<polygon fill="none" stroke="#000000" points="471,-772.5 471,-802.5 859,-802.5 859,-772.5 471,-772.5"/>
<text text-anchor="start" x="478" y="-783.9" font-family="Arial" font-size="14.00" fill="#000000">created_by </text>
<text text-anchor="start" x="551.1374" y="-783.9" font-family="Arial" font-size="14.00" fill="#666666">[bigint]</text>
<polygon fill="none" stroke="#000000" points="471,-742.5 471,-772.5 859,-772.5 859,-742.5 471,-742.5"/>
<text text-anchor="start" x="478" y="-753.9" font-family="Arial" font-size="14.00" fill="#000000">status </text>
<text text-anchor="start" x="519.237" y="-753.9" font-family="Arial" font-size="14.00" fill="#666666">[application_form_status]</text>
<polygon fill="none" stroke="#000000" points="471,-712.5 471,-742.5 859,-742.5 859,-712.5 471,-712.5"/>
<text text-anchor="start" x="478" y="-723.9" font-family="Arial" font-size="14.00" fill="#000000">note </text>
<text text-anchor="start" x="509.129" y="-723.9" font-family="Arial" font-size="14.00" fill="#666666">[text]</text>
<polygon fill="none" stroke="#000000" points="471,-682.5 471,-712.5 859,-712.5 859,-682.5 471,-682.5"/>
<text text-anchor="start" x="478" y="-693.9" font-family="Arial" font-size="14.00" fill="#000000">created_at </text>
<text text-anchor="start" x="548.028" y="-693.9" font-family="Arial" font-size="14.00" fill="#666666">[timestamp with time zone]</text>
<polygon fill="none" stroke="#000000" points="471,-652.5 471,-682.5 859,-682.5 859,-652.5 471,-652.5"/>
<text text-anchor="start" x="478" y="-663.9" font-family="Arial" font-size="14.00" fill="#000000">updated_at </text>
<text text-anchor="start" x="551.9326" y="-663.9" font-family="Arial" font-size="14.00" fill="#666666">[timestamp with time zone]</text>
<polygon fill="none" stroke="#000000" stroke-width="3" points="469.5,-651.5 469.5,-1349.5 860.5,-1349.5 860.5,-651.5 469.5,-651.5"/>
</g>
<!-- public.tenant -->
<g id="node2" class="node">
<title>public.tenant</title>
<polygon fill="#efefef" stroke="transparent" points="357,-387.5 357,-422.5 600,-422.5 600,-387.5 357,-387.5"/>
<polygon fill="none" stroke="#000000" points="357,-387.5 357,-422.5 600,-422.5 600,-387.5 357,-387.5"/>
<text text-anchor="start" x="363.6968" y="-400.3" font-family="Arial Bold" font-size="18.00" fill="#000000">public.tenant</text>
<text text-anchor="start" x="465.7352" y="-400.3" font-family="Arial" font-size="14.00" fill="#000000">    </text>
<text text-anchor="start" x="499.94" y="-400.3" font-family="Arial" font-size="14.00" fill="#666666">[BASE TABLE]</text>
<polygon fill="none" stroke="#000000" points="357,-357.5 357,-387.5 600,-387.5 600,-357.5 357,-357.5"/>
<text text-anchor="start" x="364" y="-368.9" font-family="Arial" font-size="14.00" fill="#000000">id    </text>
<text text-anchor="start" x="409.094" y="-368.9" font-family="Arial" font-size="14.00" fill="#666666">[bigint]</text>
<polygon fill="none" stroke="#000000" points="357,-327.5 357,-357.5 600,-357.5 600,-327.5 357,-327.5"/>
<text text-anchor="start" x="364" y="-338.9" font-family="Arial" font-size="14.00" fill="#000000">name    </text>
<text text-anchor="start" x="433.2132" y="-338.9" font-family="Arial" font-size="14.00" fill="#666666">[text]</text>
<polygon fill="none" stroke="#000000" points="357,-297.5 357,-327.5 600,-327.5 600,-297.5 357,-297.5"/>
<text text-anchor="start" x="364" y="-308.9" font-family="Arial" font-size="14.00" fill="#000000">origins    </text>
<text text-anchor="start" x="439.4264" y="-308.9" font-family="Arial" font-size="14.00" fill="#666666">[text[]]</text>
<polygon fill="none" stroke="#000000" points="357,-267.5 357,-297.5 600,-297.5 600,-267.5 357,-267.5"/>
<text text-anchor="start" x="364" y="-278.9" font-family="Arial" font-size="14.00" fill="#000000">cz_ico    </text>
<text text-anchor="start" x="437.8766" y="-278.9" font-family="Arial" font-size="14.00" fill="#666666">[text]</text>
<polygon fill="none" stroke="#000000" points="357,-237.5 357,-267.5 600,-267.5 600,-237.5 357,-237.5"/>
<text text-anchor="start" x="364" y="-248.9" font-family="Arial" font-size="14.00" fill="#000000">cz_dic    </text>
<text text-anchor="start" x="437.8766" y="-248.9" font-family="Arial" font-size="14.00" fill="#666666">[text]</text>
<polygon fill="none" stroke="#000000" points="357,-207.5 357,-237.5 600,-237.5 600,-207.5 357,-207.5"/>
<text text-anchor="start" x="364" y="-218.9" font-family="Arial" font-size="14.00" fill="#000000">address    </text>
<text text-anchor="start" x="447.9958" y="-218.9" font-family="Arial" font-size="14.00" fill="#666666">[address_domain]</text>
<polygon fill="none" stroke="#000000" points="357,-177.5 357,-207.5 600,-207.5 600,-177.5 357,-177.5"/>
<text text-anchor="start" x="364" y="-188.9" font-family="Arial" font-size="14.00" fill="#000000">description    </text>
<text text-anchor="start" x="465.8822" y="-188.9" font-family="Arial" font-size="14.00" fill="#666666">[text]</text>
<polygon fill="none" stroke="#000000" points="357,-147.5 357,-177.5 600,-177.5 600,-147.5 357,-147.5"/>
<text text-anchor="start" x="364" y="-158.9" font-family="Arial" font-size="14.00" fill="#000000">bank_account    </text>
<text text-anchor="start" x="485.3562" y="-158.9" font-family="Arial" font-size="14.00" fill="#666666">[text]</text>
</g>
<!-- public.membership_application&#45;&gt;public.tenant -->
<g id="edge1" class="edge">
<title>public.membership_application:tenant_id&#45;&gt;public.tenant:id</title>
<path fill="none" stroke="#000000" d="M460.8769,-1267.3414C181.8224,-1258.4485 365.9569,-877.431 471,-607 501.7533,-527.8264 569.2467,-545.1736 600,-466 615.0462,-427.264 641.5556,-372.5 600,-372.5"/>
<polygon fill="#000000" stroke="#000000" points="461.0012,-1267.3433 470.9295,-1271.9994 466.0006,-1267.4216 471,-1267.5 471,-1267.5 471,-1267.5 466.0006,-1267.4216 471.0705,-1263.0006 461.0012,-1267.3433 461.0012,-1267.3433"/>
<text text-anchor="start" x="7.0955" y="-1277.5" font-family="Arial" font-size="10.00" fill="#000000">FOREIGN KEY (tenant_id) REFERENCES tenant(id) ON UPDATE CASCADE ON DELETE CASCADE</text>
</g>
<!-- public.users -->
<g id="node3" class="node">
<title>public.users</title>
<polygon fill="#efefef" stroke="transparent" points="704,-492.5 704,-527.5 999,-527.5 999,-492.5 704,-492.5"/>
<polygon fill="none" stroke="#000000" points="704,-492.5 704,-527.5 999,-527.5 999,-492.5 704,-492.5"/>
<text text-anchor="start" x="739.7091" y="-505.3" font-family="Arial Bold" font-size="18.00" fill="#000000">public.users</text>
<text text-anchor="start" x="835.7229" y="-505.3" font-family="Arial" font-size="14.00" fill="#000000">    </text>
<text text-anchor="start" x="869.9277" y="-505.3" font-family="Arial" font-size="14.00" fill="#666666">[BASE TABLE]</text>
<polygon fill="none" stroke="#000000" points="704,-462.5 704,-492.5 999,-492.5 999,-462.5 704,-462.5"/>
<text text-anchor="start" x="711" y="-473.9" font-family="Arial" font-size="14.00" fill="#000000">u_id    </text>
<text text-anchor="start" x="771.6592" y="-473.9" font-family="Arial" font-size="14.00" fill="#666666">[bigint]</text>
<polygon fill="none" stroke="#000000" points="704,-432.5 704,-462.5 999,-462.5 999,-432.5 704,-432.5"/>
<text text-anchor="start" x="711" y="-443.9" font-family="Arial" font-size="14.00" fill="#000000">u_login    </text>
<text text-anchor="start" x="790.331" y="-443.9" font-family="Arial" font-size="14.00" fill="#666666">[citext]</text>
<polygon fill="none" stroke="#000000" points="704,-402.5 704,-432.5 999,-432.5 999,-402.5 704,-402.5"/>
<text text-anchor="start" x="711" y="-413.9" font-family="Arial" font-size="14.00" fill="#000000">u_pass    </text>
<text text-anchor="start" x="790.3352" y="-413.9" font-family="Arial" font-size="14.00" fill="#666666">[character(40)]</text>
<polygon fill="none" stroke="#000000" points="704,-372.5 704,-402.5 999,-402.5 999,-372.5 704,-372.5"/>
<text text-anchor="start" x="711" y="-383.9" font-family="Arial" font-size="14.00" fill="#000000">u_jmeno    </text>
<text text-anchor="start" x="798.885" y="-383.9" font-family="Arial" font-size="14.00" fill="#666666">[text]</text>
<polygon fill="none" stroke="#000000" points="704,-342.5 704,-372.5 999,-372.5 999,-342.5 704,-342.5"/>
<text text-anchor="start" x="711" y="-353.9" font-family="Arial" font-size="14.00" fill="#000000">u_prijmeni    </text>
<text text-anchor="start" x="809.7588" y="-353.9" font-family="Arial" font-size="14.00" fill="#666666">[text]</text>
<polygon fill="none" stroke="#000000" points="704,-312.5 704,-342.5 999,-342.5 999,-312.5 704,-312.5"/>
<text text-anchor="start" x="711" y="-323.9" font-family="Arial" font-size="14.00" fill="#000000">u_email    </text>
<text text-anchor="start" x="794.209" y="-323.9" font-family="Arial" font-size="14.00" fill="#666666">[citext]</text>
<polygon fill="none" stroke="#000000" points="704,-282.5 704,-312.5 999,-312.5 999,-282.5 704,-282.5"/>
<text text-anchor="start" x="711" y="-293.9" font-family="Arial" font-size="14.00" fill="#000000">updated_at    </text>
<text text-anchor="start" x="815.2468" y="-293.9" font-family="Arial" font-size="14.00" fill="#666666">[timestamp with time zone]</text>
<polygon fill="none" stroke="#000000" points="704,-252.5 704,-282.5 999,-282.5 999,-252.5 704,-252.5"/>
<text text-anchor="start" x="711" y="-263.9" font-family="Arial" font-size="14.00" fill="#000000">u_ban    </text>
<text text-anchor="start" x="784.1178" y="-263.9" font-family="Arial" font-size="14.00" fill="#666666">[boolean]</text>
<polygon fill="none" stroke="#000000" points="704,-222.5 704,-252.5 999,-252.5 999,-222.5 704,-222.5"/>
<text text-anchor="start" x="711" y="-233.9" font-family="Arial" font-size="14.00" fill="#000000">u_confirmed    </text>
<text text-anchor="start" x="822.2188" y="-233.9" font-family="Arial" font-size="14.00" fill="#666666">[boolean]</text>
<polygon fill="none" stroke="#000000" points="704,-192.5 704,-222.5 999,-222.5 999,-192.5 704,-192.5"/>
<text text-anchor="start" x="710.7041" y="-203.9" font-family="Arial" font-size="14.00" fill="#000000">u_created_at    </text>
<text text-anchor="start" x="826.6115" y="-203.9" font-family="Arial" font-size="14.00" fill="#666666">[timestamp with time zone]</text>
<polygon fill="none" stroke="#000000" points="704,-162.5 704,-192.5 999,-192.5 999,-162.5 704,-162.5"/>
<text text-anchor="start" x="711" y="-173.9" font-family="Arial" font-size="14.00" fill="#000000">id    </text>
<text text-anchor="start" x="756.094" y="-173.9" font-family="Arial" font-size="14.00" fill="#666666">[bigint]</text>
<polygon fill="none" stroke="#000000" points="704,-132.5 704,-162.5 999,-162.5 999,-132.5 704,-132.5"/>
<text text-anchor="start" x="711" y="-143.9" font-family="Arial" font-size="14.00" fill="#000000">tenant_id    </text>
<text text-anchor="start" x="802.7882" y="-143.9" font-family="Arial" font-size="14.00" fill="#666666">[bigint]</text>
<polygon fill="none" stroke="#000000" points="704,-102.5 704,-132.5 999,-132.5 999,-102.5 704,-102.5"/>
<text text-anchor="start" x="711" y="-113.9" font-family="Arial" font-size="14.00" fill="#000000">last_login    </text>
<text text-anchor="start" x="804.3282" y="-113.9" font-family="Arial" font-size="14.00" fill="#666666">[timestamp with time zone]</text>
<polygon fill="none" stroke="#000000" points="704,-72.5 704,-102.5 999,-102.5 999,-72.5 704,-72.5"/>
<text text-anchor="start" x="711" y="-83.9" font-family="Arial" font-size="14.00" fill="#000000">created_at    </text>
<text text-anchor="start" x="811.3422" y="-83.9" font-family="Arial" font-size="14.00" fill="#666666">[timestamp with time zone]</text>
<polygon fill="none" stroke="#000000" points="704,-42.5 704,-72.5 999,-72.5 999,-42.5 704,-42.5"/>
<text text-anchor="start" x="711" y="-53.9" font-family="Arial" font-size="14.00" fill="#000000">u_timestamp    </text>
<text text-anchor="start" x="825.3268" y="-53.9" font-family="Arial" font-size="14.00" fill="#666666">[timestamp with time zone]</text>
</g>
<!-- public.membership_application&#45;&gt;public.users -->
<g id="edge2" class="edge">
<title>public.membership_application:created_by&#45;&gt;public.users:u_id</title>
<path fill="none" stroke="#000000" d="M869.1502,-786.8032C936.4583,-777.0375 906.6566,-666.9937 859,-607 815.0107,-551.6229 747.9893,-626.3771 704,-571 678.1525,-538.4612 662.4444,-477.5 704,-477.5"/>
<polygon fill="#000000" stroke="#000000" points="868.9765,-786.815 858.6918,-783.0106 863.9883,-787.1575 859,-787.5 859,-787.5 859,-787.5 863.9883,-787.1575 859.3082,-791.9894 868.9765,-786.815 868.9765,-786.815"/>
<text text-anchor="start" x="866.0445" y="-797.5" font-family="Arial" font-size="10.00" fill="#000000">FOREIGN KEY (created_by) REFERENCES users(u_id) ON UPDATE CASCADE ON DELETE CASCADE</text>
</g>
</g>
</svg>
