<?xml version="1.0" encoding="UTF-8" standalone="no"?>
<!DOCTYPE svg PUBLIC "-//W3C//DTD SVG 1.1//EN"
 "http://www.w3.org/Graphics/SVG/1.1/DTD/svg11.dtd">
<!-- Generated by graphviz version 2.40.1 (20161225.0304)
 -->
<!-- Title: public.event Pages: 1 -->
<svg width="1940pt" height="1739pt"
 viewBox="0.00 0.00 1940.00 1739.00" xmlns="http://www.w3.org/2000/svg" xmlns:xlink="http://www.w3.org/1999/xlink">
<g id="graph0" class="graph" transform="scale(1 1) rotate(0) translate(4 1735)">
<title>public.event</title>
<polygon fill="#ffffff" stroke="transparent" points="-4,4 -4,-1735 1936,-1735 1936,4 -4,4"/>
<!-- public.event -->
<g id="node1" class="node">
<title>public.event</title>
<polygon fill="#efefef" stroke="transparent" points="835,-1192.5 835,-1227.5 1088,-1227.5 1088,-1192.5 835,-1192.5"/>
<polygon fill="none" stroke="#000000" points="835,-1192.5 835,-1227.5 1088,-1227.5 1088,-1192.5 835,-1192.5"/>
<text text-anchor="start" x="849.701" y="-1205.3" font-family="Arial Bold" font-size="18.00" fill="#000000">public.event</text>
<text text-anchor="start" x="945.731" y="-1205.3" font-family="Arial" font-size="14.00" fill="#000000">    </text>
<text text-anchor="start" x="979.9358" y="-1205.3" font-family="Arial" font-size="14.00" fill="#666666">[BASE TABLE]</text>
<polygon fill="none" stroke="#000000" points="835,-1162.5 835,-1192.5 1088,-1192.5 1088,-1162.5 835,-1162.5"/>
<text text-anchor="start" x="842" y="-1173.9" font-family="Arial" font-size="14.00" fill="#000000">id </text>
<text text-anchor="start" x="856.7798" y="-1173.9" font-family="Arial" font-size="14.00" fill="#666666">[bigint]</text>
<polygon fill="none" stroke="#000000" points="835,-1132.5 835,-1162.5 1088,-1162.5 1088,-1132.5 835,-1132.5"/>
<text text-anchor="start" x="842" y="-1143.9" font-family="Arial" font-size="14.00" fill="#000000">name </text>
<text text-anchor="start" x="880.899" y="-1143.9" font-family="Arial" font-size="14.00" fill="#666666">[text]</text>
<polygon fill="none" stroke="#000000" points="835,-1102.5 835,-1132.5 1088,-1132.5 1088,-1102.5 835,-1102.5"/>
<text text-anchor="start" x="842" y="-1113.9" font-family="Arial" font-size="14.00" fill="#000000">location_text </text>
<text text-anchor="start" x="924.4712" y="-1113.9" font-family="Arial" font-size="14.00" fill="#666666">[text]</text>
<polygon fill="none" stroke="#000000" points="835,-1072.5 835,-1102.5 1088,-1102.5 1088,-1072.5 835,-1072.5"/>
<text text-anchor="start" x="842" y="-1083.9" font-family="Arial" font-size="14.00" fill="#000000">description </text>
<text text-anchor="start" x="913.568" y="-1083.9" font-family="Arial" font-size="14.00" fill="#666666">[text]</text>
<polygon fill="none" stroke="#000000" points="835,-1042.5 835,-1072.5 1088,-1072.5 1088,-1042.5 835,-1042.5"/>
<text text-anchor="start" x="842" y="-1053.9" font-family="Arial" font-size="14.00" fill="#000000">since </text>
<text text-anchor="start" x="878.5624" y="-1053.9" font-family="Arial" font-size="14.00" fill="#666666">[date]</text>
<polygon fill="none" stroke="#000000" points="835,-1012.5 835,-1042.5 1088,-1042.5 1088,-1012.5 835,-1012.5"/>
<text text-anchor="start" x="842" y="-1023.9" font-family="Arial" font-size="14.00" fill="#000000">until </text>
<text text-anchor="start" x="871.5596" y="-1023.9" font-family="Arial" font-size="14.00" fill="#666666">[date]</text>
<polygon fill="none" stroke="#000000" points="835,-982.5 835,-1012.5 1088,-1012.5 1088,-982.5 835,-982.5"/>
<text text-anchor="start" x="842" y="-993.9" font-family="Arial" font-size="14.00" fill="#000000">capacity </text>
<text text-anchor="start" x="897.2356" y="-993.9" font-family="Arial" font-size="14.00" fill="#666666">[integer]</text>
<polygon fill="none" stroke="#000000" points="835,-952.5 835,-982.5 1088,-982.5 1088,-952.5 835,-952.5"/>
<text text-anchor="start" x="842" y="-963.9" font-family="Arial" font-size="14.00" fill="#000000">files_legacy </text>
<text text-anchor="start" x="919.014" y="-963.9" font-family="Arial" font-size="14.00" fill="#666666">[text]</text>
<polygon fill="none" stroke="#000000" points="835,-922.5 835,-952.5 1088,-952.5 1088,-922.5 835,-922.5"/>
<text text-anchor="start" x="841.6915" y="-933.9" font-family="Arial" font-size="14.00" fill="#000000">updated_at </text>
<text text-anchor="start" x="915.6241" y="-933.9" font-family="Arial" font-size="14.00" fill="#666666">[timestamp with time zone]</text>
<polygon fill="none" stroke="#000000" points="835,-892.5 835,-922.5 1088,-922.5 1088,-892.5 835,-892.5"/>
<text text-anchor="start" x="842" y="-903.9" font-family="Arial" font-size="14.00" fill="#000000">is_locked </text>
<text text-anchor="start" x="904.2342" y="-903.9" font-family="Arial" font-size="14.00" fill="#666666">[boolean]</text>
<polygon fill="none" stroke="#000000" points="835,-862.5 835,-892.5 1088,-892.5 1088,-862.5 835,-862.5"/>
<text text-anchor="start" x="842" y="-873.9" font-family="Arial" font-size="14.00" fill="#000000">is_visible </text>
<text text-anchor="start" x="902.6648" y="-873.9" font-family="Arial" font-size="14.00" fill="#666666">[boolean]</text>
<polygon fill="none" stroke="#000000" points="835,-832.5 835,-862.5 1088,-862.5 1088,-832.5 835,-832.5"/>
<text text-anchor="start" x="842" y="-843.9" font-family="Arial" font-size="14.00" fill="#000000">summary </text>
<text text-anchor="start" x="903.4376" y="-843.9" font-family="Arial" font-size="14.00" fill="#666666">[text]</text>
<polygon fill="none" stroke="#000000" points="835,-802.5 835,-832.5 1088,-832.5 1088,-802.5 835,-802.5"/>
<text text-anchor="start" x="842" y="-813.9" font-family="Arial" font-size="14.00" fill="#000000">is_public </text>
<text text-anchor="start" x="900.3408" y="-813.9" font-family="Arial" font-size="14.00" fill="#666666">[boolean]</text>
<polygon fill="none" stroke="#000000" points="835,-772.5 835,-802.5 1088,-802.5 1088,-772.5 835,-772.5"/>
<text text-anchor="start" x="842" y="-783.9" font-family="Arial" font-size="14.00" fill="#000000">enable_notes </text>
<text text-anchor="start" x="929.9312" y="-783.9" font-family="Arial" font-size="14.00" fill="#666666">[boolean]</text>
<polygon fill="none" stroke="#000000" points="835,-742.5 835,-772.5 1088,-772.5 1088,-742.5 835,-742.5"/>
<text text-anchor="start" x="842" y="-753.9" font-family="Arial" font-size="14.00" fill="#000000">tenant_id </text>
<text text-anchor="start" x="903.474" y="-753.9" font-family="Arial" font-size="14.00" fill="#666666">[bigint]</text>
<polygon fill="none" stroke="#000000" points="835,-712.5 835,-742.5 1088,-742.5 1088,-712.5 835,-712.5"/>
<text text-anchor="start" x="842" y="-723.9" font-family="Arial" font-size="14.00" fill="#000000">description_member </text>
<text text-anchor="start" x="972.6802" y="-723.9" font-family="Arial" font-size="14.00" fill="#666666">[text]</text>
<polygon fill="none" stroke="#000000" points="835,-682.5 835,-712.5 1088,-712.5 1088,-682.5 835,-682.5"/>
<text text-anchor="start" x="842" y="-693.9" font-family="Arial" font-size="14.00" fill="#000000">title_image_legacy </text>
<text text-anchor="start" x="961.8022" y="-693.9" font-family="Arial" font-size="14.00" fill="#666666">[text]</text>
<polygon fill="none" stroke="#000000" points="835,-652.5 835,-682.5 1088,-682.5 1088,-652.5 835,-652.5"/>
<text text-anchor="start" x="842" y="-663.9" font-family="Arial" font-size="14.00" fill="#000000">type </text>
<text text-anchor="start" x="872.3464" y="-663.9" font-family="Arial" font-size="14.00" fill="#666666">[event_type]</text>
<polygon fill="none" stroke="#000000" points="835,-622.5 835,-652.5 1088,-652.5 1088,-622.5 835,-622.5"/>
<text text-anchor="start" x="842" y="-633.9" font-family="Arial" font-size="14.00" fill="#000000">payment_type </text>
<text text-anchor="start" x="933.8106" y="-633.9" font-family="Arial" font-size="14.00" fill="#666666">[event_payment_type]</text>
<polygon fill="none" stroke="#000000" points="835,-592.5 835,-622.5 1088,-622.5 1088,-592.5 835,-592.5"/>
<text text-anchor="start" x="842" y="-603.9" font-family="Arial" font-size="14.00" fill="#000000">member_price </text>
<text text-anchor="start" x="935.3352" y="-603.9" font-family="Arial" font-size="14.00" fill="#666666">[price]</text>
<polygon fill="none" stroke="#000000" points="835,-562.5 835,-592.5 1088,-592.5 1088,-562.5 835,-562.5"/>
<text text-anchor="start" x="842" y="-573.9" font-family="Arial" font-size="14.00" fill="#000000">guest_price </text>
<text text-anchor="start" x="918.244" y="-573.9" font-family="Arial" font-size="14.00" fill="#666666">[price]</text>
<polygon fill="none" stroke="#000000" points="835,-532.5 835,-562.5 1088,-562.5 1088,-532.5 835,-532.5"/>
<text text-anchor="start" x="842" y="-543.9" font-family="Arial" font-size="14.00" fill="#000000">location_id </text>
<text text-anchor="start" x="912.7966" y="-543.9" font-family="Arial" font-size="14.00" fill="#666666">[bigint]</text>
<polygon fill="none" stroke="#000000" points="835,-502.5 835,-532.5 1088,-532.5 1088,-502.5 835,-502.5"/>
<text text-anchor="start" x="842" y="-513.9" font-family="Arial" font-size="14.00" fill="#000000">is_paid_by_tenant </text>
<text text-anchor="start" x="959.4936" y="-513.9" font-family="Arial" font-size="14.00" fill="#666666">[boolean]</text>
<polygon fill="none" stroke="#000000" points="835,-472.5 835,-502.5 1088,-502.5 1088,-472.5 835,-472.5"/>
<text text-anchor="start" x="842" y="-483.9" font-family="Arial" font-size="14.00" fill="#000000">payment_recipient_id </text>
<text text-anchor="start" x="978.9214" y="-483.9" font-family="Arial" font-size="14.00" fill="#666666">[bigint]</text>
<polygon fill="none" stroke="#000000" points="835,-442.5 835,-472.5 1088,-472.5 1088,-442.5 835,-442.5"/>
<text text-anchor="start" x="842" y="-453.9" font-family="Arial" font-size="14.00" fill="#000000">created_at </text>
<text text-anchor="start" x="912.028" y="-453.9" font-family="Arial" font-size="14.00" fill="#666666">[timestamp with time zone]</text>
<polygon fill="none" stroke="#000000" stroke-width="3" points="833,-441.5 833,-1229.5 1089,-1229.5 1089,-441.5 833,-441.5"/>
</g>
<!-- public.tenant -->
<g id="node6" class="node">
<title>public.tenant</title>
<polygon fill="#efefef" stroke="transparent" points="457,-282.5 457,-317.5 700,-317.5 700,-282.5 457,-282.5"/>
<polygon fill="none" stroke="#000000" points="457,-282.5 457,-317.5 700,-317.5 700,-282.5 457,-282.5"/>
<text text-anchor="start" x="463.6968" y="-295.3" font-family="Arial Bold" font-size="18.00" fill="#000000">public.tenant</text>
<text text-anchor="start" x="565.7352" y="-295.3" font-family="Arial" font-size="14.00" fill="#000000">    </text>
<text text-anchor="start" x="599.94" y="-295.3" font-family="Arial" font-size="14.00" fill="#666666">[BASE TABLE]</text>
<polygon fill="none" stroke="#000000" points="457,-252.5 457,-282.5 700,-282.5 700,-252.5 457,-252.5"/>
<text text-anchor="start" x="464" y="-263.9" font-family="Arial" font-size="14.00" fill="#000000">id    </text>
<text text-anchor="start" x="509.094" y="-263.9" font-family="Arial" font-size="14.00" fill="#666666">[bigint]</text>
<polygon fill="none" stroke="#000000" points="457,-222.5 457,-252.5 700,-252.5 700,-222.5 457,-222.5"/>
<text text-anchor="start" x="464" y="-233.9" font-family="Arial" font-size="14.00" fill="#000000">name    </text>
<text text-anchor="start" x="533.2132" y="-233.9" font-family="Arial" font-size="14.00" fill="#666666">[text]</text>
<polygon fill="none" stroke="#000000" points="457,-192.5 457,-222.5 700,-222.5 700,-192.5 457,-192.5"/>
<text text-anchor="start" x="464" y="-203.9" font-family="Arial" font-size="14.00" fill="#000000">origins    </text>
<text text-anchor="start" x="539.4264" y="-203.9" font-family="Arial" font-size="14.00" fill="#666666">[text[]]</text>
<polygon fill="none" stroke="#000000" points="457,-162.5 457,-192.5 700,-192.5 700,-162.5 457,-162.5"/>
<text text-anchor="start" x="464" y="-173.9" font-family="Arial" font-size="14.00" fill="#000000">cz_ico    </text>
<text text-anchor="start" x="537.8766" y="-173.9" font-family="Arial" font-size="14.00" fill="#666666">[text]</text>
<polygon fill="none" stroke="#000000" points="457,-132.5 457,-162.5 700,-162.5 700,-132.5 457,-132.5"/>
<text text-anchor="start" x="464" y="-143.9" font-family="Arial" font-size="14.00" fill="#000000">cz_dic    </text>
<text text-anchor="start" x="537.8766" y="-143.9" font-family="Arial" font-size="14.00" fill="#666666">[text]</text>
<polygon fill="none" stroke="#000000" points="457,-102.5 457,-132.5 700,-132.5 700,-102.5 457,-102.5"/>
<text text-anchor="start" x="464" y="-113.9" font-family="Arial" font-size="14.00" fill="#000000">address    </text>
<text text-anchor="start" x="547.9958" y="-113.9" font-family="Arial" font-size="14.00" fill="#666666">[address_domain]</text>
<polygon fill="none" stroke="#000000" points="457,-72.5 457,-102.5 700,-102.5 700,-72.5 457,-72.5"/>
<text text-anchor="start" x="464" y="-83.9" font-family="Arial" font-size="14.00" fill="#000000">description    </text>
<text text-anchor="start" x="565.8822" y="-83.9" font-family="Arial" font-size="14.00" fill="#666666">[text]</text>
<polygon fill="none" stroke="#000000" points="457,-42.5 457,-72.5 700,-72.5 700,-42.5 457,-42.5"/>
<text text-anchor="start" x="464" y="-53.9" font-family="Arial" font-size="14.00" fill="#000000">bank_account    </text>
<text text-anchor="start" x="585.3562" y="-53.9" font-family="Arial" font-size="14.00" fill="#666666">[text]</text>
</g>
<!-- public.event&#45;&gt;public.tenant -->
<g id="edge5" class="edge">
<title>public.event:tenant_id&#45;&gt;public.tenant:id</title>
<path fill="none" stroke="#000000" d="M825.7228,-752.9621C775.9183,-703.5642 753.2743,-267.5 700,-267.5"/>
<polygon fill="#000000" stroke="#000000" points="826.0171,-753.106 833.0227,-761.5423 830.5085,-755.303 835,-757.5 835,-757.5 835,-757.5 830.5085,-755.303 836.9773,-753.4577 826.0171,-753.106 826.0171,-753.106"/>
<text text-anchor="start" x="483.2065" y="-767.5" font-family="Arial" font-size="10.00" fill="#000000">FOREIGN KEY (tenant_id) REFERENCES tenant(id) ON DELETE CASCADE</text>
</g>
<!-- public.tenant_location -->
<g id="node7" class="node">
<title>public.tenant_location</title>
<polygon fill="#efefef" stroke="transparent" points="804,-282.5 804,-317.5 1119,-317.5 1119,-282.5 804,-282.5"/>
<polygon fill="none" stroke="#000000" points="804,-282.5 804,-317.5 1119,-317.5 1119,-282.5 804,-282.5"/>
<text text-anchor="start" x="810.686" y="-295.3" font-family="Arial Bold" font-size="18.00" fill="#000000">public.tenant_location</text>
<text text-anchor="start" x="984.746" y="-295.3" font-family="Arial" font-size="14.00" fill="#000000">    </text>
<text text-anchor="start" x="1018.9508" y="-295.3" font-family="Arial" font-size="14.00" fill="#666666">[BASE TABLE]</text>
<polygon fill="none" stroke="#000000" points="804,-252.5 804,-282.5 1119,-282.5 1119,-252.5 804,-252.5"/>
<text text-anchor="start" x="811" y="-263.9" font-family="Arial" font-size="14.00" fill="#000000">id    </text>
<text text-anchor="start" x="856.094" y="-263.9" font-family="Arial" font-size="14.00" fill="#666666">[bigint]</text>
<polygon fill="none" stroke="#000000" points="804,-222.5 804,-252.5 1119,-252.5 1119,-222.5 804,-222.5"/>
<text text-anchor="start" x="811" y="-233.9" font-family="Arial" font-size="14.00" fill="#000000">name    </text>
<text text-anchor="start" x="880.2132" y="-233.9" font-family="Arial" font-size="14.00" fill="#666666">[text]</text>
<polygon fill="none" stroke="#000000" points="804,-192.5 804,-222.5 1119,-222.5 1119,-192.5 804,-192.5"/>
<text text-anchor="start" x="811" y="-203.9" font-family="Arial" font-size="14.00" fill="#000000">description    </text>
<text text-anchor="start" x="912.8822" y="-203.9" font-family="Arial" font-size="14.00" fill="#666666">[text]</text>
<polygon fill="none" stroke="#000000" points="804,-162.5 804,-192.5 1119,-192.5 1119,-162.5 804,-162.5"/>
<text text-anchor="start" x="811" y="-173.9" font-family="Arial" font-size="14.00" fill="#000000">address    </text>
<text text-anchor="start" x="894.9958" y="-173.9" font-family="Arial" font-size="14.00" fill="#666666">[address_domain]</text>
<polygon fill="none" stroke="#000000" points="804,-132.5 804,-162.5 1119,-162.5 1119,-132.5 804,-132.5"/>
<text text-anchor="start" x="811" y="-143.9" font-family="Arial" font-size="14.00" fill="#000000">is_public    </text>
<text text-anchor="start" x="899.655" y="-143.9" font-family="Arial" font-size="14.00" fill="#666666">[boolean]</text>
<polygon fill="none" stroke="#000000" points="804,-102.5 804,-132.5 1119,-132.5 1119,-102.5 804,-102.5"/>
<text text-anchor="start" x="811" y="-113.9" font-family="Arial" font-size="14.00" fill="#000000">tenant_id    </text>
<text text-anchor="start" x="902.7882" y="-113.9" font-family="Arial" font-size="14.00" fill="#666666">[bigint]</text>
<polygon fill="none" stroke="#000000" points="804,-72.5 804,-102.5 1119,-102.5 1119,-72.5 804,-72.5"/>
<text text-anchor="start" x="811" y="-83.9" font-family="Arial" font-size="14.00" fill="#000000">created_at    </text>
<text text-anchor="start" x="911.3422" y="-83.9" font-family="Arial" font-size="14.00" fill="#666666">[timestamp with time zone]</text>
<polygon fill="none" stroke="#000000" points="804,-42.5 804,-72.5 1119,-72.5 1119,-42.5 804,-42.5"/>
<text text-anchor="start" x="811" y="-53.9" font-family="Arial" font-size="14.00" fill="#000000">updated_at    </text>
<text text-anchor="start" x="915.2468" y="-53.9" font-family="Arial" font-size="14.00" fill="#666666">[timestamp with time zone]</text>
</g>
<!-- public.event&#45;&gt;public.tenant_location -->
<g id="edge6" class="edge">
<title>public.event:location_id&#45;&gt;public.tenant_location:id</title>
<path fill="none" stroke="#000000" d="M825.023,-545.0794C769.2869,-517.7124 744.8212,-267.5 804,-267.5"/>
<polygon fill="#000000" stroke="#000000" points="825.2819,-545.1421 833.939,-551.8731 830.141,-546.3211 835,-547.5 835,-547.5 835,-547.5 830.141,-546.3211 836.061,-543.1269 825.2819,-545.1421 825.2819,-545.1421"/>
<text text-anchor="start" x="547.152" y="-557.5" font-family="Arial" font-size="10.00" fill="#000000">FOREIGN KEY (location_id) REFERENCES tenant_location(id)</text>
</g>
<!-- public.account -->
<g id="node8" class="node">
<title>public.account</title>
<polygon fill="#efefef" stroke="transparent" points="1223,-267.5 1223,-302.5 1506,-302.5 1506,-267.5 1223,-267.5"/>
<polygon fill="none" stroke="#000000" points="1223,-267.5 1223,-302.5 1506,-302.5 1506,-267.5 1223,-267.5"/>
<text text-anchor="start" x="1243.1979" y="-280.3" font-family="Arial Bold" font-size="18.00" fill="#000000">public.account</text>
<text text-anchor="start" x="1358.2341" y="-280.3" font-family="Arial" font-size="14.00" fill="#000000">    </text>
<text text-anchor="start" x="1392.4389" y="-280.3" font-family="Arial" font-size="14.00" fill="#666666">[BASE TABLE]</text>
<polygon fill="none" stroke="#000000" points="1223,-237.5 1223,-267.5 1506,-267.5 1506,-237.5 1223,-237.5"/>
<text text-anchor="start" x="1230" y="-248.9" font-family="Arial" font-size="14.00" fill="#000000">id    </text>
<text text-anchor="start" x="1275.094" y="-248.9" font-family="Arial" font-size="14.00" fill="#666666">[bigint]</text>
<polygon fill="none" stroke="#000000" points="1223,-207.5 1223,-237.5 1506,-237.5 1506,-207.5 1223,-207.5"/>
<text text-anchor="start" x="1230" y="-218.9" font-family="Arial" font-size="14.00" fill="#000000">tenant_id    </text>
<text text-anchor="start" x="1321.7882" y="-218.9" font-family="Arial" font-size="14.00" fill="#666666">[bigint]</text>
<polygon fill="none" stroke="#000000" points="1223,-177.5 1223,-207.5 1506,-207.5 1506,-177.5 1223,-177.5"/>
<text text-anchor="start" x="1230" y="-188.9" font-family="Arial" font-size="14.00" fill="#000000">person_id    </text>
<text text-anchor="start" x="1325.6676" y="-188.9" font-family="Arial" font-size="14.00" fill="#666666">[bigint]</text>
<polygon fill="none" stroke="#000000" points="1223,-147.5 1223,-177.5 1506,-177.5 1506,-147.5 1223,-147.5"/>
<text text-anchor="start" x="1230" y="-158.9" font-family="Arial" font-size="14.00" fill="#000000">opening_balance    </text>
<text text-anchor="start" x="1370.8092" y="-158.9" font-family="Arial" font-size="14.00" fill="#666666">[numeric(19,4)]</text>
<polygon fill="none" stroke="#000000" points="1223,-117.5 1223,-147.5 1506,-147.5 1506,-117.5 1223,-117.5"/>
<text text-anchor="start" x="1230" y="-128.9" font-family="Arial" font-size="14.00" fill="#000000">currency    </text>
<text text-anchor="start" x="1317.8738" y="-128.9" font-family="Arial" font-size="14.00" fill="#666666">[citext]</text>
<polygon fill="none" stroke="#000000" points="1223,-87.5 1223,-117.5 1506,-117.5 1506,-87.5 1223,-87.5"/>
<text text-anchor="start" x="1230" y="-98.9" font-family="Arial" font-size="14.00" fill="#000000">created_at    </text>
<text text-anchor="start" x="1330.3422" y="-98.9" font-family="Arial" font-size="14.00" fill="#666666">[timestamp with time zone]</text>
<polygon fill="none" stroke="#000000" points="1223,-57.5 1223,-87.5 1506,-87.5 1506,-57.5 1223,-57.5"/>
<text text-anchor="start" x="1229.5344" y="-68.9" font-family="Arial" font-size="14.00" fill="#000000">updated_at    </text>
<text text-anchor="start" x="1333.7812" y="-68.9" font-family="Arial" font-size="14.00" fill="#666666">[timestamp with time zone]</text>
</g>
<!-- public.event&#45;&gt;public.account -->
<g id="edge7" class="edge">
<title>public.event:payment_recipient_id&#45;&gt;public.account:id</title>
<path fill="none" stroke="#000000" d="M1098.2958,-486.9031C1153.5029,-480.0973 1139.758,-416.3591 1171,-361 1197.2819,-314.43 1169.5256,-252.5 1223,-252.5"/>
<polygon fill="#000000" stroke="#000000" points="1097.9832,-486.9211 1087.7395,-483.0075 1092.9916,-487.2106 1088,-487.5 1088,-487.5 1088,-487.5 1092.9916,-487.2106 1088.2605,-491.9925 1097.9832,-486.9211 1097.9832,-486.9211"/>
<text text-anchor="start" x="1094.9315" y="-497.5" font-family="Arial" font-size="10.00" fill="#000000">FOREIGN KEY (payment_recipient_id) REFERENCES account(id)</text>
</g>
<!-- public.event_instance -->
<g id="node2" class="node">
<title>public.event_instance</title>
<polygon fill="#efefef" stroke="transparent" points="151,-1652.5 151,-1687.5 465,-1687.5 465,-1652.5 151,-1652.5"/>
<polygon fill="none" stroke="#000000" points="151,-1652.5 151,-1687.5 465,-1687.5 465,-1652.5 151,-1652.5"/>
<text text-anchor="start" x="157.6873" y="-1665.3" font-family="Arial Bold" font-size="18.00" fill="#000000">public.event_instance</text>
<text text-anchor="start" x="330.7447" y="-1665.3" font-family="Arial" font-size="14.00" fill="#000000">    </text>
<text text-anchor="start" x="364.9495" y="-1665.3" font-family="Arial" font-size="14.00" fill="#666666">[BASE TABLE]</text>
<polygon fill="none" stroke="#000000" points="151,-1622.5 151,-1652.5 465,-1652.5 465,-1622.5 151,-1622.5"/>
<text text-anchor="start" x="158" y="-1633.9" font-family="Arial" font-size="14.00" fill="#000000">id    </text>
<text text-anchor="start" x="203.094" y="-1633.9" font-family="Arial" font-size="14.00" fill="#666666">[bigint]</text>
<polygon fill="none" stroke="#000000" points="151,-1592.5 151,-1622.5 465,-1622.5 465,-1592.5 151,-1592.5"/>
<text text-anchor="start" x="158" y="-1603.9" font-family="Arial" font-size="14.00" fill="#000000">tenant_id    </text>
<text text-anchor="start" x="249.7882" y="-1603.9" font-family="Arial" font-size="14.00" fill="#666666">[bigint]</text>
<polygon fill="none" stroke="#000000" points="151,-1562.5 151,-1592.5 465,-1592.5 465,-1562.5 151,-1562.5"/>
<text text-anchor="start" x="158" y="-1573.9" font-family="Arial" font-size="14.00" fill="#000000">event_id    </text>
<text text-anchor="start" x="245.115" y="-1573.9" font-family="Arial" font-size="14.00" fill="#666666">[bigint]</text>
<polygon fill="none" stroke="#000000" points="151,-1532.5 151,-1562.5 465,-1562.5 465,-1532.5 151,-1532.5"/>
<text text-anchor="start" x="158" y="-1543.9" font-family="Arial" font-size="14.00" fill="#000000">created_at    </text>
<text text-anchor="start" x="258.3422" y="-1543.9" font-family="Arial" font-size="14.00" fill="#666666">[timestamp with time zone]</text>
<polygon fill="none" stroke="#000000" points="151,-1502.5 151,-1532.5 465,-1532.5 465,-1502.5 151,-1502.5"/>
<text text-anchor="start" x="158" y="-1513.9" font-family="Arial" font-size="14.00" fill="#000000">updated_at    </text>
<text text-anchor="start" x="262.2468" y="-1513.9" font-family="Arial" font-size="14.00" fill="#666666">[timestamp with time zone]</text>
<polygon fill="none" stroke="#000000" points="151,-1472.5 151,-1502.5 465,-1502.5 465,-1472.5 151,-1472.5"/>
<text text-anchor="start" x="158" y="-1483.9" font-family="Arial" font-size="14.00" fill="#000000">since    </text>
<text text-anchor="start" x="224.8766" y="-1483.9" font-family="Arial" font-size="14.00" fill="#666666">[timestamp with time zone]</text>
<polygon fill="none" stroke="#000000" points="151,-1442.5 151,-1472.5 465,-1472.5 465,-1442.5 151,-1442.5"/>
<text text-anchor="start" x="158" y="-1453.9" font-family="Arial" font-size="14.00" fill="#000000">until    </text>
<text text-anchor="start" x="217.8738" y="-1453.9" font-family="Arial" font-size="14.00" fill="#666666">[timestamp with time zone]</text>
<polygon fill="none" stroke="#000000" points="151,-1412.5 151,-1442.5 465,-1442.5 465,-1412.5 151,-1412.5"/>
<text text-anchor="start" x="158" y="-1423.9" font-family="Arial" font-size="14.00" fill="#000000">range    </text>
<text text-anchor="start" x="227.9958" y="-1423.9" font-family="Arial" font-size="14.00" fill="#666666">[tstzrange]</text>
<polygon fill="none" stroke="#000000" points="151,-1382.5 151,-1412.5 465,-1412.5 465,-1382.5 151,-1382.5"/>
<text text-anchor="start" x="158" y="-1393.9" font-family="Arial" font-size="14.00" fill="#000000">location_id    </text>
<text text-anchor="start" x="259.1108" y="-1393.9" font-family="Arial" font-size="14.00" fill="#666666">[bigint]</text>
<polygon fill="none" stroke="#000000" points="151,-1352.5 151,-1382.5 465,-1382.5 465,-1352.5 151,-1352.5"/>
<text text-anchor="start" x="158" y="-1363.9" font-family="Arial" font-size="14.00" fill="#000000">is_cancelled    </text>
<text text-anchor="start" x="269.2202" y="-1363.9" font-family="Arial" font-size="14.00" fill="#666666">[boolean]</text>
</g>
<!-- public.event_instance&#45;&gt;public.event -->
<g id="edge1" class="edge">
<title>public.event_instance:event_id&#45;&gt;public.event:id</title>
<path fill="none" stroke="#000000" d="M475.2798,-1577.0296C577.4996,-1567.0603 442.7848,-1401.028 517,-1310 613.7508,-1191.3312 681.8889,-1177.5 835,-1177.5"/>
<polygon fill="#000000" stroke="#000000" points="474.9895,-1577.0428 464.7943,-1573.0047 469.9948,-1577.2714 465,-1577.5 465,-1577.5 465,-1577.5 469.9948,-1577.2714 465.2057,-1581.9953 474.9895,-1577.0428 474.9895,-1577.0428"/>
<text text-anchor="start" x="7.4335" y="-1587.5" font-family="Arial" font-size="10.00" fill="#000000">FOREIGN KEY (event_id) REFERENCES event(id) ON UPDATE CASCADE ON DELETE CASCADE</text>
</g>
<!-- public.event_registration -->
<g id="node3" class="node">
<title>public.event_registration</title>
<polygon fill="#efefef" stroke="transparent" points="569,-1637.5 569,-1672.5 905,-1672.5 905,-1637.5 569,-1637.5"/>
<polygon fill="none" stroke="#000000" points="569,-1637.5 569,-1672.5 905,-1672.5 905,-1637.5 569,-1637.5"/>
<text text-anchor="start" x="575.6938" y="-1650.3" font-family="Arial Bold" font-size="18.00" fill="#000000">public.event_registration</text>
<text text-anchor="start" x="770.7382" y="-1650.3" font-family="Arial" font-size="14.00" fill="#000000">    </text>
<text text-anchor="start" x="804.943" y="-1650.3" font-family="Arial" font-size="14.00" fill="#666666">[BASE TABLE]</text>
<polygon fill="none" stroke="#000000" points="569,-1607.5 569,-1637.5 905,-1637.5 905,-1607.5 569,-1607.5"/>
<text text-anchor="start" x="576" y="-1618.9" font-family="Arial" font-size="14.00" fill="#000000">id    </text>
<text text-anchor="start" x="621.094" y="-1618.9" font-family="Arial" font-size="14.00" fill="#666666">[bigint]</text>
<polygon fill="none" stroke="#000000" points="569,-1577.5 569,-1607.5 905,-1607.5 905,-1577.5 569,-1577.5"/>
<text text-anchor="start" x="576" y="-1588.9" font-family="Arial" font-size="14.00" fill="#000000">tenant_id    </text>
<text text-anchor="start" x="667.7882" y="-1588.9" font-family="Arial" font-size="14.00" fill="#666666">[bigint]</text>
<polygon fill="none" stroke="#000000" points="569,-1547.5 569,-1577.5 905,-1577.5 905,-1547.5 569,-1547.5"/>
<text text-anchor="start" x="576" y="-1558.9" font-family="Arial" font-size="14.00" fill="#000000">event_id    </text>
<text text-anchor="start" x="663.115" y="-1558.9" font-family="Arial" font-size="14.00" fill="#666666">[bigint]</text>
<polygon fill="none" stroke="#000000" points="569,-1517.5 569,-1547.5 905,-1547.5 905,-1517.5 569,-1517.5"/>
<text text-anchor="start" x="576" y="-1528.9" font-family="Arial" font-size="14.00" fill="#000000">target_cohort_id    </text>
<text text-anchor="start" x="711.3478" y="-1528.9" font-family="Arial" font-size="14.00" fill="#666666">[bigint]</text>
<polygon fill="none" stroke="#000000" points="569,-1487.5 569,-1517.5 905,-1517.5 905,-1487.5 569,-1487.5"/>
<text text-anchor="start" x="576" y="-1498.9" font-family="Arial" font-size="14.00" fill="#000000">couple_id    </text>
<text text-anchor="start" x="670.1136" y="-1498.9" font-family="Arial" font-size="14.00" fill="#666666">[bigint]</text>
<polygon fill="none" stroke="#000000" points="569,-1457.5 569,-1487.5 905,-1487.5 905,-1457.5 569,-1457.5"/>
<text text-anchor="start" x="576" y="-1468.9" font-family="Arial" font-size="14.00" fill="#000000">person_id    </text>
<text text-anchor="start" x="671.6676" y="-1468.9" font-family="Arial" font-size="14.00" fill="#666666">[bigint]</text>
<polygon fill="none" stroke="#000000" points="569,-1427.5 569,-1457.5 905,-1457.5 905,-1427.5 569,-1427.5"/>
<text text-anchor="start" x="576" y="-1438.9" font-family="Arial" font-size="14.00" fill="#000000">note    </text>
<text text-anchor="start" x="637.4432" y="-1438.9" font-family="Arial" font-size="14.00" fill="#666666">[text]</text>
<polygon fill="none" stroke="#000000" points="569,-1397.5 569,-1427.5 905,-1427.5 905,-1397.5 569,-1397.5"/>
<text text-anchor="start" x="576" y="-1408.9" font-family="Arial" font-size="14.00" fill="#000000">created_at    </text>
<text text-anchor="start" x="676.3422" y="-1408.9" font-family="Arial" font-size="14.00" fill="#666666">[timestamp with time zone]</text>
<polygon fill="none" stroke="#000000" points="569,-1367.5 569,-1397.5 905,-1397.5 905,-1367.5 569,-1367.5"/>
<text text-anchor="start" x="576" y="-1378.9" font-family="Arial" font-size="14.00" fill="#000000">updated_at    </text>
<text text-anchor="start" x="680.2468" y="-1378.9" font-family="Arial" font-size="14.00" fill="#666666">[timestamp with time zone]</text>
</g>
<!-- public.event_registration&#45;&gt;public.event -->
<g id="edge2" class="edge">
<title>public.event_registration:event_id&#45;&gt;public.event:id</title>
<path fill="none" stroke="#000000" d="M914.9523,-1559.7913C953.7453,-1536.4258 927.2469,-1368.7336 905,-1325 887.5475,-1290.6913 852.4525,-1308.3087 835,-1274 815.5542,-1235.7728 792.1111,-1177.5 835,-1177.5"/>
<polygon fill="#000000" stroke="#000000" points="914.649,-1559.8737 903.8182,-1558.158 909.8245,-1561.1869 905,-1562.5 905,-1562.5 905,-1562.5 909.8245,-1561.1869 906.1818,-1566.842 914.649,-1559.8737 914.649,-1559.8737"/>
<text text-anchor="start" x="912.4335" y="-1572.5" font-family="Arial" font-size="10.00" fill="#000000">FOREIGN KEY (event_id) REFERENCES event(id) ON UPDATE CASCADE ON DELETE CASCADE</text>
</g>
<!-- public.event_target_cohort -->
<g id="node4" class="node">
<title>public.event_target_cohort</title>
<polygon fill="#efefef" stroke="transparent" points="1010,-1592.5 1010,-1627.5 1363,-1627.5 1363,-1592.5 1010,-1592.5"/>
<polygon fill="none" stroke="#000000" points="1010,-1592.5 1010,-1627.5 1363,-1627.5 1363,-1592.5 1010,-1592.5"/>
<text text-anchor="start" x="1016.6807" y="-1605.3" font-family="Arial Bold" font-size="18.00" fill="#000000">public.event_target_cohort</text>
<text text-anchor="start" x="1228.7513" y="-1605.3" font-family="Arial" font-size="14.00" fill="#000000">    </text>
<text text-anchor="start" x="1262.9561" y="-1605.3" font-family="Arial" font-size="14.00" fill="#666666">[BASE TABLE]</text>
<polygon fill="none" stroke="#000000" points="1010,-1562.5 1010,-1592.5 1363,-1592.5 1363,-1562.5 1010,-1562.5"/>
<text text-anchor="start" x="1017" y="-1573.9" font-family="Arial" font-size="14.00" fill="#000000">id    </text>
<text text-anchor="start" x="1062.094" y="-1573.9" font-family="Arial" font-size="14.00" fill="#666666">[bigint]</text>
<polygon fill="none" stroke="#000000" points="1010,-1532.5 1010,-1562.5 1363,-1562.5 1363,-1532.5 1010,-1532.5"/>
<text text-anchor="start" x="1017" y="-1543.9" font-family="Arial" font-size="14.00" fill="#000000">tenant_id    </text>
<text text-anchor="start" x="1108.7882" y="-1543.9" font-family="Arial" font-size="14.00" fill="#666666">[bigint]</text>
<polygon fill="none" stroke="#000000" points="1010,-1502.5 1010,-1532.5 1363,-1532.5 1363,-1502.5 1010,-1502.5"/>
<text text-anchor="start" x="1017" y="-1513.9" font-family="Arial" font-size="14.00" fill="#000000">event_id    </text>
<text text-anchor="start" x="1104.115" y="-1513.9" font-family="Arial" font-size="14.00" fill="#666666">[bigint]</text>
<polygon fill="none" stroke="#000000" points="1010,-1472.5 1010,-1502.5 1363,-1502.5 1363,-1472.5 1010,-1472.5"/>
<text text-anchor="start" x="1017" y="-1483.9" font-family="Arial" font-size="14.00" fill="#000000">cohort_id    </text>
<text text-anchor="start" x="1108.7756" y="-1483.9" font-family="Arial" font-size="14.00" fill="#666666">[bigint]</text>
<polygon fill="none" stroke="#000000" points="1010,-1442.5 1010,-1472.5 1363,-1472.5 1363,-1442.5 1010,-1442.5"/>
<text text-anchor="start" x="1017" y="-1453.9" font-family="Arial" font-size="14.00" fill="#000000">created_at    </text>
<text text-anchor="start" x="1117.3422" y="-1453.9" font-family="Arial" font-size="14.00" fill="#666666">[timestamp with time zone]</text>
<polygon fill="none" stroke="#000000" points="1010,-1412.5 1010,-1442.5 1363,-1442.5 1363,-1412.5 1010,-1412.5"/>
<text text-anchor="start" x="1017" y="-1423.9" font-family="Arial" font-size="14.00" fill="#000000">updated_at    </text>
<text text-anchor="start" x="1121.2468" y="-1423.9" font-family="Arial" font-size="14.00" fill="#666666">[timestamp with time zone]</text>
</g>
<!-- public.event_target_cohort&#45;&gt;public.event -->
<g id="edge3" class="edge">
<title>public.event_target_cohort:event_id&#45;&gt;public.event:id</title>
<path fill="none" stroke="#000000" d="M999.8877,-1516.6949C949.3164,-1507.8661 989.3088,-1428.2783 1010,-1370 1028.3934,-1318.1936 1069.6066,-1325.8064 1088,-1274 1102.3497,-1233.5829 1130.8889,-1177.5 1088,-1177.5"/>
<polygon fill="#000000" stroke="#000000" points="1000.0315,-1516.7063 1009.6428,-1521.9858 1005.0158,-1517.1031 1010,-1517.5 1010,-1517.5 1010,-1517.5 1005.0158,-1517.1031 1010.3572,-1513.0142 1000.0315,-1516.7063 1000.0315,-1516.7063"/>
<text text-anchor="start" x="1017.4335" y="-1527.5" font-family="Arial" font-size="10.00" fill="#000000">FOREIGN KEY (event_id) REFERENCES event(id) ON UPDATE CASCADE ON DELETE CASCADE</text>
</g>
<!-- public.event_trainer -->
<g id="node5" class="node">
<title>public.event_trainer</title>
<polygon fill="#efefef" stroke="transparent" points="1467,-1622.5 1467,-1657.5 1765,-1657.5 1765,-1622.5 1467,-1622.5"/>
<polygon fill="none" stroke="#000000" points="1467,-1622.5 1467,-1657.5 1765,-1657.5 1765,-1622.5 1467,-1622.5"/>
<text text-anchor="start" x="1473.6982" y="-1635.3" font-family="Arial Bold" font-size="18.00" fill="#000000">public.event_trainer</text>
<text text-anchor="start" x="1630.7338" y="-1635.3" font-family="Arial" font-size="14.00" fill="#000000">    </text>
<text text-anchor="start" x="1664.9386" y="-1635.3" font-family="Arial" font-size="14.00" fill="#666666">[BASE TABLE]</text>
<polygon fill="none" stroke="#000000" points="1467,-1592.5 1467,-1622.5 1765,-1622.5 1765,-1592.5 1467,-1592.5"/>
<text text-anchor="start" x="1474" y="-1603.9" font-family="Arial" font-size="14.00" fill="#000000">id    </text>
<text text-anchor="start" x="1519.094" y="-1603.9" font-family="Arial" font-size="14.00" fill="#666666">[bigint]</text>
<polygon fill="none" stroke="#000000" points="1467,-1562.5 1467,-1592.5 1765,-1592.5 1765,-1562.5 1467,-1562.5"/>
<text text-anchor="start" x="1474" y="-1573.9" font-family="Arial" font-size="14.00" fill="#000000">tenant_id    </text>
<text text-anchor="start" x="1565.7882" y="-1573.9" font-family="Arial" font-size="14.00" fill="#666666">[bigint]</text>
<polygon fill="none" stroke="#000000" points="1467,-1532.5 1467,-1562.5 1765,-1562.5 1765,-1532.5 1467,-1532.5"/>
<text text-anchor="start" x="1474" y="-1543.9" font-family="Arial" font-size="14.00" fill="#000000">event_id    </text>
<text text-anchor="start" x="1561.115" y="-1543.9" font-family="Arial" font-size="14.00" fill="#666666">[bigint]</text>
<polygon fill="none" stroke="#000000" points="1467,-1502.5 1467,-1532.5 1765,-1532.5 1765,-1502.5 1467,-1502.5"/>
<text text-anchor="start" x="1474" y="-1513.9" font-family="Arial" font-size="14.00" fill="#000000">person_id    </text>
<text text-anchor="start" x="1569.6676" y="-1513.9" font-family="Arial" font-size="14.00" fill="#666666">[bigint]</text>
<polygon fill="none" stroke="#000000" points="1467,-1472.5 1467,-1502.5 1765,-1502.5 1765,-1472.5 1467,-1472.5"/>
<text text-anchor="start" x="1474" y="-1483.9" font-family="Arial" font-size="14.00" fill="#000000">created_at    </text>
<text text-anchor="start" x="1574.3422" y="-1483.9" font-family="Arial" font-size="14.00" fill="#666666">[timestamp with time zone]</text>
<polygon fill="none" stroke="#000000" points="1467,-1442.5 1467,-1472.5 1765,-1472.5 1765,-1442.5 1467,-1442.5"/>
<text text-anchor="start" x="1474" y="-1453.9" font-family="Arial" font-size="14.00" fill="#000000">updated_at    </text>
<text text-anchor="start" x="1578.2468" y="-1453.9" font-family="Arial" font-size="14.00" fill="#666666">[timestamp with time zone]</text>
<polygon fill="none" stroke="#000000" points="1467,-1412.5 1467,-1442.5 1765,-1442.5 1765,-1412.5 1467,-1412.5"/>
<text text-anchor="start" x="1474" y="-1423.9" font-family="Arial" font-size="14.00" fill="#000000">lessons_offered    </text>
<text text-anchor="start" x="1607.014" y="-1423.9" font-family="Arial" font-size="14.00" fill="#666666">[integer]</text>
<polygon fill="none" stroke="#000000" points="1467,-1382.5 1467,-1412.5 1765,-1412.5 1765,-1382.5 1467,-1382.5"/>
<text text-anchor="start" x="1474" y="-1393.9" font-family="Arial" font-size="14.00" fill="#000000">lesson_price    </text>
<text text-anchor="start" x="1586.7742" y="-1393.9" font-family="Arial" font-size="14.00" fill="#666666">[price]</text>
</g>
<!-- public.event_trainer&#45;&gt;public.event -->
<g id="edge4" class="edge">
<title>public.event_trainer:event_id&#45;&gt;public.event:id</title>
<path fill="none" stroke="#000000" d="M1456.9941,-1546.996C1367.0774,-1537.2933 1482.3547,-1389.8558 1415,-1310 1313.8979,-1190.1332 1244.811,-1177.5 1088,-1177.5"/>
<polygon fill="#000000" stroke="#000000" points="1457.0127,-1546.9968 1466.7736,-1551.9943 1462.0063,-1547.2484 1467,-1547.5 1467,-1547.5 1467,-1547.5 1462.0063,-1547.2484 1467.2264,-1543.0057 1457.0127,-1546.9968 1457.0127,-1546.9968"/>
<text text-anchor="start" x="1474.4335" y="-1557.5" font-family="Arial" font-size="10.00" fill="#000000">FOREIGN KEY (event_id) REFERENCES event(id) ON UPDATE CASCADE ON DELETE CASCADE</text>
</g>
</g>
</svg>
