<?xml version="1.0" encoding="UTF-8" standalone="no"?>
<!DOCTYPE svg PUBLIC "-//W3C//DTD SVG 1.1//EN"
 "http://www.w3.org/Graphics/SVG/1.1/DTD/svg11.dtd">
<!-- Generated by graphviz version 2.40.1 (20161225.0304)
 -->
<!-- Title: public.upozorneni_skupiny Pages: 1 -->
<svg width="1245pt" height="922pt"
 viewBox="0.00 0.00 1245.00 922.00" xmlns="http://www.w3.org/2000/svg" xmlns:xlink="http://www.w3.org/1999/xlink">
<g id="graph0" class="graph" transform="scale(1 1) rotate(0) translate(4 918)">
<title>public.upozorneni_skupiny</title>
<polygon fill="#ffffff" stroke="transparent" points="-4,4 -4,-918 1241,-918 1241,4 -4,4"/>
<!-- public.upozorneni_skupiny -->
<g id="node1" class="node">
<title>public.upozorneni_skupiny</title>
<polygon fill="#efefef" stroke="transparent" points="525,-832.5 525,-867.5 878,-867.5 878,-832.5 525,-832.5"/>
<polygon fill="none" stroke="#000000" points="525,-832.5 525,-867.5 878,-867.5 878,-832.5 525,-832.5"/>
<text text-anchor="start" x="531.687" y="-845.3" font-family="Arial Bold" font-size="18.00" fill="#000000">public.upozorneni_skupiny</text>
<text text-anchor="start" x="743.745" y="-845.3" font-family="Arial" font-size="14.00" fill="#000000">    </text>
<text text-anchor="start" x="777.9498" y="-845.3" font-family="Arial" font-size="14.00" fill="#666666">[BASE TABLE]</text>
<polygon fill="none" stroke="#000000" points="525,-802.5 525,-832.5 878,-832.5 878,-802.5 525,-802.5"/>
<text text-anchor="start" x="532" y="-813.9" font-family="Arial" font-size="14.00" fill="#000000">ups_id </text>
<text text-anchor="start" x="577.1276" y="-813.9" font-family="Arial" font-size="14.00" fill="#666666">[bigint]</text>
<polygon fill="none" stroke="#000000" points="525,-772.5 525,-802.5 878,-802.5 878,-772.5 525,-772.5"/>
<text text-anchor="start" x="532" y="-783.9" font-family="Arial" font-size="14.00" fill="#000000">ups_id_rodic </text>
<text text-anchor="start" x="615.2426" y="-783.9" font-family="Arial" font-size="14.00" fill="#666666">[bigint]</text>
<polygon fill="none" stroke="#000000" points="525,-742.5 525,-772.5 878,-772.5 878,-742.5 525,-742.5"/>
<text text-anchor="start" x="532" y="-753.9" font-family="Arial" font-size="14.00" fill="#000000">ups_id_skupina </text>
<text text-anchor="start" x="633.1472" y="-753.9" font-family="Arial" font-size="14.00" fill="#666666">[bigint]</text>
<polygon fill="none" stroke="#000000" points="525,-712.5 525,-742.5 878,-742.5 878,-712.5 525,-712.5"/>
<text text-anchor="start" x="532" y="-723.9" font-family="Arial" font-size="14.00" fill="#000000">ups_color </text>
<text text-anchor="start" x="596.5708" y="-723.9" font-family="Arial" font-size="14.00" fill="#666666">[text]</text>
<polygon fill="none" stroke="#000000" points="525,-682.5 525,-712.5 878,-712.5 878,-682.5 525,-682.5"/>
<text text-anchor="start" x="532" y="-693.9" font-family="Arial" font-size="14.00" fill="#000000">id </text>
<text text-anchor="start" x="546.7798" y="-693.9" font-family="Arial" font-size="14.00" fill="#666666">[bigint]</text>
<polygon fill="none" stroke="#000000" points="525,-652.5 525,-682.5 878,-682.5 878,-652.5 525,-652.5"/>
<text text-anchor="start" x="532" y="-663.9" font-family="Arial" font-size="14.00" fill="#000000">tenant_id </text>
<text text-anchor="start" x="593.474" y="-663.9" font-family="Arial" font-size="14.00" fill="#666666">[bigint]</text>
<polygon fill="none" stroke="#000000" stroke-width="3" points="523,-651.5 523,-869.5 879,-869.5 879,-651.5 523,-651.5"/>
</g>
<!-- public.upozorneni -->
<g id="node2" class="node">
<title>public.upozorneni</title>
<polygon fill="#efefef" stroke="transparent" points="143,-492.5 143,-527.5 475,-527.5 475,-492.5 143,-492.5"/>
<polygon fill="none" stroke="#000000" points="143,-492.5 143,-527.5 475,-527.5 475,-492.5 143,-492.5"/>
<text text-anchor="start" x="174.6965" y="-505.3" font-family="Arial Bold" font-size="18.00" fill="#000000">public.upozorneni</text>
<text text-anchor="start" x="315.7355" y="-505.3" font-family="Arial" font-size="14.00" fill="#000000">    </text>
<text text-anchor="start" x="349.9403" y="-505.3" font-family="Arial" font-size="14.00" fill="#666666">[BASE TABLE]</text>
<polygon fill="none" stroke="#000000" points="143,-462.5 143,-492.5 475,-492.5 475,-462.5 143,-462.5"/>
<text text-anchor="start" x="150" y="-473.9" font-family="Arial" font-size="14.00" fill="#000000">up_id    </text>
<text text-anchor="start" x="218.4418" y="-473.9" font-family="Arial" font-size="14.00" fill="#666666">[bigint]</text>
<polygon fill="none" stroke="#000000" points="143,-432.5 143,-462.5 475,-462.5 475,-432.5 143,-432.5"/>
<text text-anchor="start" x="150" y="-443.9" font-family="Arial" font-size="14.00" fill="#000000">up_kdo    </text>
<text text-anchor="start" x="230.1178" y="-443.9" font-family="Arial" font-size="14.00" fill="#666666">[bigint]</text>
<polygon fill="none" stroke="#000000" points="143,-402.5 143,-432.5 475,-432.5 475,-402.5 143,-402.5"/>
<text text-anchor="start" x="150" y="-413.9" font-family="Arial" font-size="14.00" fill="#000000">up_nadpis    </text>
<text text-anchor="start" x="248.7896" y="-413.9" font-family="Arial" font-size="14.00" fill="#666666">[text]</text>
<polygon fill="none" stroke="#000000" points="143,-372.5 143,-402.5 475,-402.5 475,-372.5 143,-372.5"/>
<text text-anchor="start" x="150" y="-383.9" font-family="Arial" font-size="14.00" fill="#000000">up_text    </text>
<text text-anchor="start" x="230.1164" y="-383.9" font-family="Arial" font-size="14.00" fill="#666666">[text]</text>
<polygon fill="none" stroke="#000000" points="143,-342.5 143,-372.5 475,-372.5 475,-342.5 143,-342.5"/>
<text text-anchor="start" x="150" y="-353.9" font-family="Arial" font-size="14.00" fill="#000000">up_lock    </text>
<text text-anchor="start" x="232.4418" y="-353.9" font-family="Arial" font-size="14.00" fill="#666666">[boolean]</text>
<polygon fill="none" stroke="#000000" points="143,-312.5 143,-342.5 475,-342.5 475,-312.5 143,-312.5"/>
<text text-anchor="start" x="150" y="-323.9" font-family="Arial" font-size="14.00" fill="#000000">updated_at    </text>
<text text-anchor="start" x="254.2468" y="-323.9" font-family="Arial" font-size="14.00" fill="#666666">[timestamp with time zone]</text>
<polygon fill="none" stroke="#000000" points="143,-282.5 143,-312.5 475,-312.5 475,-282.5 143,-282.5"/>
<text text-anchor="start" x="150" y="-293.9" font-family="Arial" font-size="14.00" fill="#000000">created_at    </text>
<text text-anchor="start" x="250.3422" y="-293.9" font-family="Arial" font-size="14.00" fill="#666666">[timestamp with time zone]</text>
<polygon fill="none" stroke="#000000" points="143,-252.5 143,-282.5 475,-282.5 475,-252.5 143,-252.5"/>
<text text-anchor="start" x="150" y="-263.9" font-family="Arial" font-size="14.00" fill="#000000">scheduled_since    </text>
<text text-anchor="start" x="288.4614" y="-263.9" font-family="Arial" font-size="14.00" fill="#666666">[timestamp with time zone]</text>
<polygon fill="none" stroke="#000000" points="143,-222.5 143,-252.5 475,-252.5 475,-222.5 143,-222.5"/>
<text text-anchor="start" x="150" y="-233.9" font-family="Arial" font-size="14.00" fill="#000000">scheduled_until    </text>
<text text-anchor="start" x="281.4586" y="-233.9" font-family="Arial" font-size="14.00" fill="#666666">[timestamp with time zone]</text>
<polygon fill="none" stroke="#000000" points="143,-192.5 143,-222.5 475,-222.5 475,-192.5 143,-192.5"/>
<text text-anchor="start" x="150" y="-203.9" font-family="Arial" font-size="14.00" fill="#000000">is_visible    </text>
<text text-anchor="start" x="240.979" y="-203.9" font-family="Arial" font-size="14.00" fill="#666666">[boolean]</text>
<polygon fill="none" stroke="#000000" points="143,-162.5 143,-192.5 475,-192.5 475,-162.5 143,-162.5"/>
<text text-anchor="start" x="150" y="-173.9" font-family="Arial" font-size="14.00" fill="#000000">id    </text>
<text text-anchor="start" x="195.094" y="-173.9" font-family="Arial" font-size="14.00" fill="#666666">[bigint]</text>
<polygon fill="none" stroke="#000000" points="143,-132.5 143,-162.5 475,-162.5 475,-132.5 143,-132.5"/>
<text text-anchor="start" x="150" y="-143.9" font-family="Arial" font-size="14.00" fill="#000000">tenant_id    </text>
<text text-anchor="start" x="241.7882" y="-143.9" font-family="Arial" font-size="14.00" fill="#666666">[bigint]</text>
<polygon fill="none" stroke="#000000" points="143,-102.5 143,-132.5 475,-132.5 475,-102.5 143,-102.5"/>
<text text-anchor="start" x="150" y="-113.9" font-family="Arial" font-size="14.00" fill="#000000">sticky    </text>
<text text-anchor="start" x="219.202" y="-113.9" font-family="Arial" font-size="14.00" fill="#666666">[boolean]</text>
<polygon fill="none" stroke="#000000" points="143,-72.5 143,-102.5 475,-102.5 475,-72.5 143,-72.5"/>
<text text-anchor="start" x="150" y="-83.9" font-family="Arial" font-size="14.00" fill="#000000">up_timestamp    </text>
<text text-anchor="start" x="272.1094" y="-83.9" font-family="Arial" font-size="14.00" fill="#666666">[timestamp with time zone]</text>
<polygon fill="none" stroke="#000000" points="143,-42.5 143,-72.5 475,-72.5 475,-42.5 143,-42.5"/>
<text text-anchor="start" x="149.5379" y="-53.9" font-family="Arial" font-size="14.00" fill="#000000">up_timestamp_add    </text>
<text text-anchor="start" x="302.7777" y="-53.9" font-family="Arial" font-size="14.00" fill="#666666">[timestamp with time zone]</text>
</g>
<!-- public.upozorneni_skupiny&#45;&gt;public.upozorneni -->
<g id="edge1" class="edge">
<title>public.upozorneni_skupiny:ups_id_rodic&#45;&gt;public.upozorneni:up_id</title>
<path fill="none" stroke="#000000" d="M514.7161,-786.8648C397.2676,-771.3679 610.8786,-477.5 475,-477.5"/>
<polygon fill="#000000" stroke="#000000" points="515.019,-786.8834 524.7225,-791.9914 520.0095,-787.1917 525,-787.5 525,-787.5 525,-787.5 520.0095,-787.1917 525.2775,-783.0086 515.019,-786.8834 515.019,-786.8834"/>
<text text-anchor="start" x="7.149" y="-797.5" font-family="Arial" font-size="10.00" fill="#000000">FOREIGN KEY (ups_id_rodic) REFERENCES upozorneni(up_id) ON UPDATE CASCADE ON DELETE CASCADE</text>
</g>
<!-- public.cohort -->
<g id="node3" class="node">
<title>public.cohort</title>
<polygon fill="#efefef" stroke="transparent" points="580,-402.5 580,-437.5 823,-437.5 823,-402.5 580,-402.5"/>
<polygon fill="none" stroke="#000000" points="580,-402.5 580,-437.5 823,-437.5 823,-402.5 580,-402.5"/>
<text text-anchor="start" x="586.7049" y="-415.3" font-family="Arial Bold" font-size="18.00" fill="#000000">public.cohort</text>
<text text-anchor="start" x="688.7271" y="-415.3" font-family="Arial" font-size="14.00" fill="#000000">    </text>
<text text-anchor="start" x="722.9319" y="-415.3" font-family="Arial" font-size="14.00" fill="#666666">[BASE TABLE]</text>
<polygon fill="none" stroke="#000000" points="580,-372.5 580,-402.5 823,-402.5 823,-372.5 580,-372.5"/>
<text text-anchor="start" x="587" y="-383.9" font-family="Arial" font-size="14.00" fill="#000000">id    </text>
<text text-anchor="start" x="632.094" y="-383.9" font-family="Arial" font-size="14.00" fill="#666666">[bigint]</text>
<polygon fill="none" stroke="#000000" points="580,-342.5 580,-372.5 823,-372.5 823,-342.5 580,-342.5"/>
<text text-anchor="start" x="587" y="-353.9" font-family="Arial" font-size="14.00" fill="#000000">tenant_id    </text>
<text text-anchor="start" x="678.7882" y="-353.9" font-family="Arial" font-size="14.00" fill="#666666">[bigint]</text>
<polygon fill="none" stroke="#000000" points="580,-312.5 580,-342.5 823,-342.5 823,-312.5 580,-312.5"/>
<text text-anchor="start" x="587" y="-323.9" font-family="Arial" font-size="14.00" fill="#000000">cohort_group_id    </text>
<text text-anchor="start" x="722.3492" y="-323.9" font-family="Arial" font-size="14.00" fill="#666666">[bigint]</text>
<polygon fill="none" stroke="#000000" points="580,-282.5 580,-312.5 823,-312.5 823,-282.5 580,-282.5"/>
<text text-anchor="start" x="587" y="-293.9" font-family="Arial" font-size="14.00" fill="#000000">name    </text>
<text text-anchor="start" x="656.2132" y="-293.9" font-family="Arial" font-size="14.00" fill="#666666">[text]</text>
<polygon fill="none" stroke="#000000" points="580,-252.5 580,-282.5 823,-282.5 823,-252.5 580,-252.5"/>
<text text-anchor="start" x="587" y="-263.9" font-family="Arial" font-size="14.00" fill="#000000">description    </text>
<text text-anchor="start" x="688.8822" y="-263.9" font-family="Arial" font-size="14.00" fill="#666666">[text]</text>
<polygon fill="none" stroke="#000000" points="580,-222.5 580,-252.5 823,-252.5 823,-222.5 580,-222.5"/>
<text text-anchor="start" x="587" y="-233.9" font-family="Arial" font-size="14.00" fill="#000000">color_rgb    </text>
<text text-anchor="start" x="679.5456" y="-233.9" font-family="Arial" font-size="14.00" fill="#666666">[text]</text>
<polygon fill="none" stroke="#000000" points="580,-192.5 580,-222.5 823,-222.5 823,-192.5 580,-192.5"/>
<text text-anchor="start" x="587" y="-203.9" font-family="Arial" font-size="14.00" fill="#000000">location    </text>
<text text-anchor="start" x="669.439" y="-203.9" font-family="Arial" font-size="14.00" fill="#666666">[text]</text>
<polygon fill="none" stroke="#000000" points="580,-162.5 580,-192.5 823,-192.5 823,-162.5 580,-162.5"/>
<text text-anchor="start" x="587" y="-173.9" font-family="Arial" font-size="14.00" fill="#000000">is_visible    </text>
<text text-anchor="start" x="677.979" y="-173.9" font-family="Arial" font-size="14.00" fill="#666666">[boolean]</text>
<polygon fill="none" stroke="#000000" points="580,-132.5 580,-162.5 823,-162.5 823,-132.5 580,-132.5"/>
<text text-anchor="start" x="587" y="-143.9" font-family="Arial" font-size="14.00" fill="#000000">ordering    </text>
<text text-anchor="start" x="672.5456" y="-143.9" font-family="Arial" font-size="14.00" fill="#666666">[integer]</text>
</g>
<!-- public.upozorneni_skupiny&#45;&gt;public.cohort -->
<g id="edge2" class="edge">
<title>public.upozorneni_skupiny:ups_id_skupina&#45;&gt;public.cohort:id</title>
<path fill="none" stroke="#000000" d="M514.8108,-756.7089C464.5985,-748.0283 517.2734,-669.6254 525,-607 531.1574,-557.0927 529.7143,-387.5 580,-387.5"/>
<polygon fill="#000000" stroke="#000000" points="515.03,-756.7259 524.6516,-761.9865 520.015,-757.1129 525,-757.5 525,-757.5 525,-757.5 520.015,-757.1129 525.3484,-753.0135 515.03,-756.7259 515.03,-756.7259"/>
<text text-anchor="start" x="255.323" y="-767.5" font-family="Arial" font-size="10.00" fill="#000000">FOREIGN KEY (ups_id_skupina) REFERENCES cohort(id)</text>
</g>
<!-- public.tenant -->
<g id="node4" class="node">
<title>public.tenant</title>
<polygon fill="#efefef" stroke="transparent" points="927,-387.5 927,-422.5 1170,-422.5 1170,-387.5 927,-387.5"/>
<polygon fill="none" stroke="#000000" points="927,-387.5 927,-422.5 1170,-422.5 1170,-387.5 927,-387.5"/>
<text text-anchor="start" x="933.6968" y="-400.3" font-family="Arial Bold" font-size="18.00" fill="#000000">public.tenant</text>
<text text-anchor="start" x="1035.7352" y="-400.3" font-family="Arial" font-size="14.00" fill="#000000">    </text>
<text text-anchor="start" x="1069.94" y="-400.3" font-family="Arial" font-size="14.00" fill="#666666">[BASE TABLE]</text>
<polygon fill="none" stroke="#000000" points="927,-357.5 927,-387.5 1170,-387.5 1170,-357.5 927,-357.5"/>
<text text-anchor="start" x="934" y="-368.9" font-family="Arial" font-size="14.00" fill="#000000">id    </text>
<text text-anchor="start" x="979.094" y="-368.9" font-family="Arial" font-size="14.00" fill="#666666">[bigint]</text>
<polygon fill="none" stroke="#000000" points="927,-327.5 927,-357.5 1170,-357.5 1170,-327.5 927,-327.5"/>
<text text-anchor="start" x="934" y="-338.9" font-family="Arial" font-size="14.00" fill="#000000">name    </text>
<text text-anchor="start" x="1003.2132" y="-338.9" font-family="Arial" font-size="14.00" fill="#666666">[text]</text>
<polygon fill="none" stroke="#000000" points="927,-297.5 927,-327.5 1170,-327.5 1170,-297.5 927,-297.5"/>
<text text-anchor="start" x="934" y="-308.9" font-family="Arial" font-size="14.00" fill="#000000">origins    </text>
<text text-anchor="start" x="1009.4264" y="-308.9" font-family="Arial" font-size="14.00" fill="#666666">[text[]]</text>
<polygon fill="none" stroke="#000000" points="927,-267.5 927,-297.5 1170,-297.5 1170,-267.5 927,-267.5"/>
<text text-anchor="start" x="934" y="-278.9" font-family="Arial" font-size="14.00" fill="#000000">cz_ico    </text>
<text text-anchor="start" x="1007.8766" y="-278.9" font-family="Arial" font-size="14.00" fill="#666666">[text]</text>
<polygon fill="none" stroke="#000000" points="927,-237.5 927,-267.5 1170,-267.5 1170,-237.5 927,-237.5"/>
<text text-anchor="start" x="934" y="-248.9" font-family="Arial" font-size="14.00" fill="#000000">cz_dic    </text>
<text text-anchor="start" x="1007.8766" y="-248.9" font-family="Arial" font-size="14.00" fill="#666666">[text]</text>
<polygon fill="none" stroke="#000000" points="927,-207.5 927,-237.5 1170,-237.5 1170,-207.5 927,-207.5"/>
<text text-anchor="start" x="934" y="-218.9" font-family="Arial" font-size="14.00" fill="#000000">address    </text>
<text text-anchor="start" x="1017.9958" y="-218.9" font-family="Arial" font-size="14.00" fill="#666666">[address_domain]</text>
<polygon fill="none" stroke="#000000" points="927,-177.5 927,-207.5 1170,-207.5 1170,-177.5 927,-177.5"/>
<text text-anchor="start" x="934" y="-188.9" font-family="Arial" font-size="14.00" fill="#000000">description    </text>
<text text-anchor="start" x="1035.8822" y="-188.9" font-family="Arial" font-size="14.00" fill="#666666">[text]</text>
<polygon fill="none" stroke="#000000" points="927,-147.5 927,-177.5 1170,-177.5 1170,-147.5 927,-147.5"/>
<text text-anchor="start" x="934" y="-158.9" font-family="Arial" font-size="14.00" fill="#000000">bank_account    </text>
<text text-anchor="start" x="1055.3562" y="-158.9" font-family="Arial" font-size="14.00" fill="#666666">[text]</text>
</g>
<!-- public.upozorneni_skupiny&#45;&gt;public.tenant -->
<g id="edge3" class="edge">
<title>public.upozorneni_skupiny:tenant_id&#45;&gt;public.tenant:id</title>
<path fill="none" stroke="#000000" d="M888.1324,-666.8504C999.3119,-651.5878 797.7267,-372.5 927,-372.5"/>
<polygon fill="#000000" stroke="#000000" points="887.9795,-666.8601 877.712,-663.0092 882.9898,-667.18 878,-667.5 878,-667.5 878,-667.5 882.9898,-667.18 878.288,-671.9908 887.9795,-666.8601 887.9795,-666.8601"/>
<text text-anchor="start" x="885.2065" y="-677.5" font-family="Arial" font-size="10.00" fill="#000000">FOREIGN KEY (tenant_id) REFERENCES tenant(id) ON DELETE CASCADE</text>
</g>
</g>
</svg>
