<?xml version="1.0" encoding="UTF-8" standalone="no"?>
<!DOCTYPE svg PUBLIC "-//W3C//DTD SVG 1.1//EN"
 "http://www.w3.org/Graphics/SVG/1.1/DTD/svg11.dtd">
<!-- Generated by graphviz version 2.40.1 (20161225.0304)
 -->
<!-- Title: public.tenant_trainer Pages: 1 -->
<svg width="1260pt" height="1342pt"
 viewBox="0.00 0.00 1260.00 1342.00" xmlns="http://www.w3.org/2000/svg" xmlns:xlink="http://www.w3.org/1999/xlink">
<g id="graph0" class="graph" transform="scale(1 1) rotate(0) translate(4 1338)">
<title>public.tenant_trainer</title>
<polygon fill="#ffffff" stroke="transparent" points="-4,4 -4,-1338 1256,-1338 1256,4 -4,4"/>
<!-- public.tenant_trainer -->
<g id="node1" class="node">
<title>public.tenant_trainer</title>
<polygon fill="#efefef" stroke="transparent" points="471,-1252.5 471,-1287.5 775,-1287.5 775,-1252.5 471,-1252.5"/>
<polygon fill="none" stroke="#000000" points="471,-1252.5 471,-1287.5 775,-1287.5 775,-1252.5 471,-1252.5"/>
<text text-anchor="start" x="477.694" y="-1265.3" font-family="Arial Bold" font-size="18.00" fill="#000000">public.tenant_trainer</text>
<text text-anchor="start" x="640.738" y="-1265.3" font-family="Arial" font-size="14.00" fill="#000000">    </text>
<text text-anchor="start" x="674.9428" y="-1265.3" font-family="Arial" font-size="14.00" fill="#666666">[BASE TABLE]</text>
<polygon fill="none" stroke="#000000" points="471,-1222.5 471,-1252.5 775,-1252.5 775,-1222.5 471,-1222.5"/>
<text text-anchor="start" x="478" y="-1233.9" font-family="Arial" font-size="14.00" fill="#000000">tenant_id </text>
<text text-anchor="start" x="539.474" y="-1233.9" font-family="Arial" font-size="14.00" fill="#666666">[bigint]</text>
<polygon fill="none" stroke="#000000" points="471,-1192.5 471,-1222.5 775,-1222.5 775,-1192.5 471,-1192.5"/>
<text text-anchor="start" x="478" y="-1203.9" font-family="Arial" font-size="14.00" fill="#000000">person_id </text>
<text text-anchor="start" x="543.3534" y="-1203.9" font-family="Arial" font-size="14.00" fill="#666666">[bigint]</text>
<polygon fill="none" stroke="#000000" points="471,-1162.5 471,-1192.5 775,-1192.5 775,-1162.5 471,-1162.5"/>
<text text-anchor="start" x="478" y="-1173.9" font-family="Arial" font-size="14.00" fill="#000000">since </text>
<text text-anchor="start" x="514.5624" y="-1173.9" font-family="Arial" font-size="14.00" fill="#666666">[timestamp with time zone]</text>
<polygon fill="none" stroke="#000000" points="471,-1132.5 471,-1162.5 775,-1162.5 775,-1132.5 471,-1132.5"/>
<text text-anchor="start" x="478" y="-1143.9" font-family="Arial" font-size="14.00" fill="#000000">until </text>
<text text-anchor="start" x="507.5596" y="-1143.9" font-family="Arial" font-size="14.00" fill="#666666">[timestamp with time zone]</text>
<polygon fill="none" stroke="#000000" points="471,-1102.5 471,-1132.5 775,-1132.5 775,-1102.5 471,-1102.5"/>
<text text-anchor="start" x="478" y="-1113.9" font-family="Arial" font-size="14.00" fill="#000000">created_at </text>
<text text-anchor="start" x="548.028" y="-1113.9" font-family="Arial" font-size="14.00" fill="#666666">[timestamp with time zone]</text>
<polygon fill="none" stroke="#000000" points="471,-1072.5 471,-1102.5 775,-1102.5 775,-1072.5 471,-1072.5"/>
<text text-anchor="start" x="478" y="-1083.9" font-family="Arial" font-size="14.00" fill="#000000">updated_at </text>
<text text-anchor="start" x="551.9326" y="-1083.9" font-family="Arial" font-size="14.00" fill="#666666">[timestamp with time zone]</text>
<polygon fill="none" stroke="#000000" points="471,-1042.5 471,-1072.5 775,-1072.5 775,-1042.5 471,-1042.5"/>
<text text-anchor="start" x="478" y="-1053.9" font-family="Arial" font-size="14.00" fill="#000000">id </text>
<text text-anchor="start" x="492.7798" y="-1053.9" font-family="Arial" font-size="14.00" fill="#666666">[bigint]</text>
<polygon fill="none" stroke="#000000" points="471,-1012.5 471,-1042.5 775,-1042.5 775,-1012.5 471,-1012.5"/>
<text text-anchor="start" x="478" y="-1023.9" font-family="Arial" font-size="14.00" fill="#000000">is_visible </text>
<text text-anchor="start" x="538.6648" y="-1023.9" font-family="Arial" font-size="14.00" fill="#666666">[boolean]</text>
<polygon fill="none" stroke="#000000" points="471,-982.5 471,-1012.5 775,-1012.5 775,-982.5 471,-982.5"/>
<text text-anchor="start" x="478" y="-993.9" font-family="Arial" font-size="14.00" fill="#000000">description </text>
<text text-anchor="start" x="549.568" y="-993.9" font-family="Arial" font-size="14.00" fill="#666666">[text]</text>
<polygon fill="none" stroke="#000000" points="471,-952.5 471,-982.5 775,-982.5 775,-952.5 471,-952.5"/>
<text text-anchor="start" x="478" y="-963.9" font-family="Arial" font-size="14.00" fill="#000000">active_range </text>
<text text-anchor="start" x="562.0266" y="-963.9" font-family="Arial" font-size="14.00" fill="#666666">[tstzrange]</text>
<polygon fill="none" stroke="#000000" points="471,-922.5 471,-952.5 775,-952.5 775,-922.5 471,-922.5"/>
<text text-anchor="start" x="478" y="-933.9" font-family="Arial" font-size="14.00" fill="#000000">member_price_45min </text>
<text text-anchor="start" x="617.2328" y="-933.9" font-family="Arial" font-size="14.00" fill="#666666">[price]</text>
<polygon fill="none" stroke="#000000" points="471,-892.5 471,-922.5 775,-922.5 775,-892.5 471,-892.5"/>
<text text-anchor="start" x="478" y="-903.9" font-family="Arial" font-size="14.00" fill="#000000">guest_price_45min </text>
<text text-anchor="start" x="600.1416" y="-903.9" font-family="Arial" font-size="14.00" fill="#666666">[price]</text>
<polygon fill="none" stroke="#000000" points="471,-862.5 471,-892.5 775,-892.5 775,-862.5 471,-862.5"/>
<text text-anchor="start" x="478" y="-873.9" font-family="Arial" font-size="14.00" fill="#000000">member_payout_45min </text>
<text text-anchor="start" x="628.9214" y="-873.9" font-family="Arial" font-size="14.00" fill="#666666">[price]</text>
<polygon fill="none" stroke="#000000" points="471,-832.5 471,-862.5 775,-862.5 775,-832.5 471,-832.5"/>
<text text-anchor="start" x="478" y="-843.9" font-family="Arial" font-size="14.00" fill="#000000">guest_payout_45min </text>
<text text-anchor="start" x="611.8302" y="-843.9" font-family="Arial" font-size="14.00" fill="#666666">[price]</text>
<polygon fill="none" stroke="#000000" points="471,-802.5 471,-832.5 775,-832.5 775,-802.5 471,-802.5"/>
<text text-anchor="start" x="478" y="-813.9" font-family="Arial" font-size="14.00" fill="#000000">create_payout_payments </text>
<text text-anchor="start" x="639.0574" y="-813.9" font-family="Arial" font-size="14.00" fill="#666666">[boolean]</text>
<polygon fill="none" stroke="#000000" points="471,-772.5 471,-802.5 775,-802.5 775,-772.5 471,-772.5"/>
<text text-anchor="start" x="478" y="-783.9" font-family="Arial" font-size="14.00" fill="#000000">status </text>
<text text-anchor="start" x="519.237" y="-783.9" font-family="Arial" font-size="14.00" fill="#666666">[relationship_status]</text>
<polygon fill="none" stroke="#000000" points="471,-742.5 471,-772.5 775,-772.5 775,-742.5 471,-742.5"/>
<text text-anchor="start" x="478" y="-753.9" font-family="Arial" font-size="14.00" fill="#000000">active </text>
<text text-anchor="start" x="518.453" y="-753.9" font-family="Arial" font-size="14.00" fill="#666666">[boolean]</text>
<polygon fill="none" stroke="#000000" stroke-width="3" points="469.5,-741.5 469.5,-1289.5 776.5,-1289.5 776.5,-741.5 469.5,-741.5"/>
</g>
<!-- public.tenant -->
<g id="node2" class="node">
<title>public.tenant</title>
<polygon fill="#efefef" stroke="transparent" points="318,-432.5 318,-467.5 561,-467.5 561,-432.5 318,-432.5"/>
<polygon fill="none" stroke="#000000" points="318,-432.5 318,-467.5 561,-467.5 561,-432.5 318,-432.5"/>
<text text-anchor="start" x="324.6968" y="-445.3" font-family="Arial Bold" font-size="18.00" fill="#000000">public.tenant</text>
<text text-anchor="start" x="426.7352" y="-445.3" font-family="Arial" font-size="14.00" fill="#000000">    </text>
<text text-anchor="start" x="460.94" y="-445.3" font-family="Arial" font-size="14.00" fill="#666666">[BASE TABLE]</text>
<polygon fill="none" stroke="#000000" points="318,-402.5 318,-432.5 561,-432.5 561,-402.5 318,-402.5"/>
<text text-anchor="start" x="325" y="-413.9" font-family="Arial" font-size="14.00" fill="#000000">id    </text>
<text text-anchor="start" x="370.094" y="-413.9" font-family="Arial" font-size="14.00" fill="#666666">[bigint]</text>
<polygon fill="none" stroke="#000000" points="318,-372.5 318,-402.5 561,-402.5 561,-372.5 318,-372.5"/>
<text text-anchor="start" x="325" y="-383.9" font-family="Arial" font-size="14.00" fill="#000000">name    </text>
<text text-anchor="start" x="394.2132" y="-383.9" font-family="Arial" font-size="14.00" fill="#666666">[text]</text>
<polygon fill="none" stroke="#000000" points="318,-342.5 318,-372.5 561,-372.5 561,-342.5 318,-342.5"/>
<text text-anchor="start" x="325" y="-353.9" font-family="Arial" font-size="14.00" fill="#000000">origins    </text>
<text text-anchor="start" x="400.4264" y="-353.9" font-family="Arial" font-size="14.00" fill="#666666">[text[]]</text>
<polygon fill="none" stroke="#000000" points="318,-312.5 318,-342.5 561,-342.5 561,-312.5 318,-312.5"/>
<text text-anchor="start" x="325" y="-323.9" font-family="Arial" font-size="14.00" fill="#000000">cz_ico    </text>
<text text-anchor="start" x="398.8766" y="-323.9" font-family="Arial" font-size="14.00" fill="#666666">[text]</text>
<polygon fill="none" stroke="#000000" points="318,-282.5 318,-312.5 561,-312.5 561,-282.5 318,-282.5"/>
<text text-anchor="start" x="325" y="-293.9" font-family="Arial" font-size="14.00" fill="#000000">cz_dic    </text>
<text text-anchor="start" x="398.8766" y="-293.9" font-family="Arial" font-size="14.00" fill="#666666">[text]</text>
<polygon fill="none" stroke="#000000" points="318,-252.5 318,-282.5 561,-282.5 561,-252.5 318,-252.5"/>
<text text-anchor="start" x="325" y="-263.9" font-family="Arial" font-size="14.00" fill="#000000">address    </text>
<text text-anchor="start" x="408.9958" y="-263.9" font-family="Arial" font-size="14.00" fill="#666666">[address_domain]</text>
<polygon fill="none" stroke="#000000" points="318,-222.5 318,-252.5 561,-252.5 561,-222.5 318,-222.5"/>
<text text-anchor="start" x="325" y="-233.9" font-family="Arial" font-size="14.00" fill="#000000">description    </text>
<text text-anchor="start" x="426.8822" y="-233.9" font-family="Arial" font-size="14.00" fill="#666666">[text]</text>
<polygon fill="none" stroke="#000000" points="318,-192.5 318,-222.5 561,-222.5 561,-192.5 318,-192.5"/>
<text text-anchor="start" x="325" y="-203.9" font-family="Arial" font-size="14.00" fill="#000000">bank_account    </text>
<text text-anchor="start" x="446.3562" y="-203.9" font-family="Arial" font-size="14.00" fill="#666666">[text]</text>
</g>
<!-- public.tenant_trainer&#45;&gt;public.tenant -->
<g id="edge1" class="edge">
<title>public.tenant_trainer:tenant_id&#45;&gt;public.tenant:id</title>
<path fill="none" stroke="#000000" d="M460.7163,-1237.304C236.2146,-1228.5404 418.1137,-927.7195 471,-697 500.1582,-569.7956 691.5035,-417.5 561,-417.5"/>
<polygon fill="#000000" stroke="#000000" points="461.0018,-1237.3093 470.9142,-1241.9992 466.0009,-1237.4047 471,-1237.5 471,-1237.5 471,-1237.5 466.0009,-1237.4047 471.0858,-1233.0008 461.0018,-1237.3093 461.0018,-1237.3093"/>
<text text-anchor="start" x="7.0955" y="-1247.5" font-family="Arial" font-size="10.00" fill="#000000">FOREIGN KEY (tenant_id) REFERENCES tenant(id) ON UPDATE CASCADE ON DELETE CASCADE</text>
</g>
<!-- public.person -->
<g id="node3" class="node">
<title>public.person</title>
<polygon fill="#efefef" stroke="transparent" points="665,-582.5 665,-617.5 948,-617.5 948,-582.5 665,-582.5"/>
<polygon fill="none" stroke="#000000" points="665,-582.5 665,-617.5 948,-617.5 948,-582.5 665,-582.5"/>
<text text-anchor="start" x="689.2029" y="-595.3" font-family="Arial Bold" font-size="18.00" fill="#000000">public.person</text>
<text text-anchor="start" x="796.2291" y="-595.3" font-family="Arial" font-size="14.00" fill="#000000">    </text>
<text text-anchor="start" x="830.4339" y="-595.3" font-family="Arial" font-size="14.00" fill="#666666">[BASE TABLE]</text>
<polygon fill="none" stroke="#000000" points="665,-552.5 665,-582.5 948,-582.5 948,-552.5 665,-552.5"/>
<text text-anchor="start" x="672" y="-563.9" font-family="Arial" font-size="14.00" fill="#000000">id    </text>
<text text-anchor="start" x="717.094" y="-563.9" font-family="Arial" font-size="14.00" fill="#666666">[bigint]</text>
<polygon fill="none" stroke="#000000" points="665,-522.5 665,-552.5 948,-552.5 948,-522.5 665,-522.5"/>
<text text-anchor="start" x="672" y="-533.9" font-family="Arial" font-size="14.00" fill="#000000">first_name    </text>
<text text-anchor="start" x="771.5442" y="-533.9" font-family="Arial" font-size="14.00" fill="#666666">[text]</text>
<polygon fill="none" stroke="#000000" points="665,-492.5 665,-522.5 948,-522.5 948,-492.5 665,-492.5"/>
<text text-anchor="start" x="672" y="-503.9" font-family="Arial" font-size="14.00" fill="#000000">last_name    </text>
<text text-anchor="start" x="770.7756" y="-503.9" font-family="Arial" font-size="14.00" fill="#666666">[text]</text>
<polygon fill="none" stroke="#000000" points="665,-462.5 665,-492.5 948,-492.5 948,-462.5 665,-462.5"/>
<text text-anchor="start" x="672" y="-473.9" font-family="Arial" font-size="14.00" fill="#000000">gender    </text>
<text text-anchor="start" x="749.7784" y="-473.9" font-family="Arial" font-size="14.00" fill="#666666">[gender_type]</text>
<polygon fill="none" stroke="#000000" points="665,-432.5 665,-462.5 948,-462.5 948,-432.5 665,-432.5"/>
<text text-anchor="start" x="672" y="-443.9" font-family="Arial" font-size="14.00" fill="#000000">birth_date    </text>
<text text-anchor="start" x="768.4488" y="-443.9" font-family="Arial" font-size="14.00" fill="#666666">[date]</text>
<polygon fill="none" stroke="#000000" points="665,-402.5 665,-432.5 948,-432.5 948,-402.5 665,-402.5"/>
<text text-anchor="start" x="672" y="-413.9" font-family="Arial" font-size="14.00" fill="#000000">nationality    </text>
<text text-anchor="start" x="769.2188" y="-413.9" font-family="Arial" font-size="14.00" fill="#666666">[text]</text>
<polygon fill="none" stroke="#000000" points="665,-372.5 665,-402.5 948,-402.5 948,-372.5 665,-372.5"/>
<text text-anchor="start" x="672" y="-383.9" font-family="Arial" font-size="14.00" fill="#000000">tax_identification_number    </text>
<text text-anchor="start" x="865.6886" y="-383.9" font-family="Arial" font-size="14.00" fill="#666666">[text]</text>
<polygon fill="none" stroke="#000000" points="665,-342.5 665,-372.5 948,-372.5 948,-342.5 665,-342.5"/>
<text text-anchor="start" x="672" y="-353.9" font-family="Arial" font-size="14.00" fill="#000000">national_id_number    </text>
<text text-anchor="start" x="829.1276" y="-353.9" font-family="Arial" font-size="14.00" fill="#666666">[text]</text>
<polygon fill="none" stroke="#000000" points="665,-312.5 665,-342.5 948,-342.5 948,-312.5 665,-312.5"/>
<text text-anchor="start" x="672" y="-323.9" font-family="Arial" font-size="14.00" fill="#000000">csts_id    </text>
<text text-anchor="start" x="749.7672" y="-323.9" font-family="Arial" font-size="14.00" fill="#666666">[text]</text>
<polygon fill="none" stroke="#000000" points="665,-282.5 665,-312.5 948,-312.5 948,-282.5 665,-282.5"/>
<text text-anchor="start" x="672" y="-293.9" font-family="Arial" font-size="14.00" fill="#000000">wdsf_id    </text>
<text text-anchor="start" x="753.6564" y="-293.9" font-family="Arial" font-size="14.00" fill="#666666">[text]</text>
<polygon fill="none" stroke="#000000" points="665,-252.5 665,-282.5 948,-282.5 948,-252.5 665,-252.5"/>
<text text-anchor="start" x="672" y="-263.9" font-family="Arial" font-size="14.00" fill="#000000">created_at    </text>
<text text-anchor="start" x="772.3422" y="-263.9" font-family="Arial" font-size="14.00" fill="#666666">[timestamp with time zone]</text>
<polygon fill="none" stroke="#000000" points="665,-222.5 665,-252.5 948,-252.5 948,-222.5 665,-222.5"/>
<text text-anchor="start" x="671.5344" y="-233.9" font-family="Arial" font-size="14.00" fill="#000000">updated_at    </text>
<text text-anchor="start" x="775.7812" y="-233.9" font-family="Arial" font-size="14.00" fill="#666666">[timestamp with time zone]</text>
<polygon fill="none" stroke="#000000" points="665,-192.5 665,-222.5 948,-222.5 948,-192.5 665,-192.5"/>
<text text-anchor="start" x="672" y="-203.9" font-family="Arial" font-size="14.00" fill="#000000">legacy_user_id    </text>
<text text-anchor="start" x="800.3394" y="-203.9" font-family="Arial" font-size="14.00" fill="#666666">[bigint]</text>
<polygon fill="none" stroke="#000000" points="665,-162.5 665,-192.5 948,-192.5 948,-162.5 665,-162.5"/>
<text text-anchor="start" x="672" y="-173.9" font-family="Arial" font-size="14.00" fill="#000000">prefix_title    </text>
<text text-anchor="start" x="769.9874" y="-173.9" font-family="Arial" font-size="14.00" fill="#666666">[text]</text>
<polygon fill="none" stroke="#000000" points="665,-132.5 665,-162.5 948,-162.5 948,-132.5 665,-132.5"/>
<text text-anchor="start" x="672" y="-143.9" font-family="Arial" font-size="14.00" fill="#000000">suffix_title    </text>
<text text-anchor="start" x="768.4348" y="-143.9" font-family="Arial" font-size="14.00" fill="#666666">[text]</text>
<polygon fill="none" stroke="#000000" points="665,-102.5 665,-132.5 948,-132.5 948,-102.5 665,-102.5"/>
<text text-anchor="start" x="672" y="-113.9" font-family="Arial" font-size="14.00" fill="#000000">bio    </text>
<text text-anchor="start" x="724.8766" y="-113.9" font-family="Arial" font-size="14.00" fill="#666666">[text]</text>
<polygon fill="none" stroke="#000000" points="665,-72.5 665,-102.5 948,-102.5 948,-72.5 665,-72.5"/>
<text text-anchor="start" x="672" y="-83.9" font-family="Arial" font-size="14.00" fill="#000000">email    </text>
<text text-anchor="start" x="739.6438" y="-83.9" font-family="Arial" font-size="14.00" fill="#666666">[citext]</text>
<polygon fill="none" stroke="#000000" points="665,-42.5 665,-72.5 948,-72.5 948,-42.5 665,-42.5"/>
<text text-anchor="start" x="672" y="-53.9" font-family="Arial" font-size="14.00" fill="#000000">phone    </text>
<text text-anchor="start" x="745.1178" y="-53.9" font-family="Arial" font-size="14.00" fill="#666666">[text]</text>
</g>
<!-- public.tenant_trainer&#45;&gt;public.person -->
<g id="edge2" class="edge">
<title>public.tenant_trainer:person_id&#45;&gt;public.person:id</title>
<path fill="none" stroke="#000000" d="M785.0837,-1207.277C999.0426,-1197.6394 906.151,-877.9181 775,-697 744.8083,-655.3516 695.1917,-702.6484 665,-661 640.61,-627.3549 623.4444,-567.5 665,-567.5"/>
<polygon fill="#000000" stroke="#000000" points="784.9976,-1207.2788 774.9005,-1203.0011 779.9988,-1207.3894 775,-1207.5 775,-1207.5 775,-1207.5 779.9988,-1207.3894 775.0995,-1211.9989 784.9976,-1207.2788 784.9976,-1207.2788"/>
<text text-anchor="start" x="782.3245" y="-1217.5" font-family="Arial" font-size="10.00" fill="#000000">FOREIGN KEY (person_id) REFERENCES person(id) ON UPDATE CASCADE ON DELETE CASCADE</text>
</g>
</g>
</svg>
