<?xml version="1.0" encoding="UTF-8" standalone="no"?>
<!DOCTYPE svg PUBLIC "-//W3C//DTD SVG 1.1//EN"
 "http://www.w3.org/Graphics/SVG/1.1/DTD/svg11.dtd">
<!-- Generated by graphviz version 2.40.1 (20161225.0304)
 -->
<!-- Title: public.platby_group Pages: 1 -->
<svg width="1195pt" height="1049pt"
 viewBox="0.00 0.00 1195.00 1049.00" xmlns="http://www.w3.org/2000/svg" xmlns:xlink="http://www.w3.org/1999/xlink">
<g id="graph0" class="graph" transform="scale(1 1) rotate(0) translate(4 1045)">
<title>public.platby_group</title>
<polygon fill="#ffffff" stroke="transparent" points="-4,4 -4,-1045 1191,-1045 1191,4 -4,4"/>
<!-- public.platby_group -->
<g id="node1" class="node">
<title>public.platby_group</title>
<polygon fill="#efefef" stroke="transparent" points="443,-652.5 443,-687.5 740,-687.5 740,-652.5 443,-652.5"/>
<polygon fill="none" stroke="#000000" points="443,-652.5 443,-687.5 740,-687.5 740,-652.5 443,-652.5"/>
<text text-anchor="start" x="449.6923" y="-665.3" font-family="Arial Bold" font-size="18.00" fill="#000000">public.platby_group</text>
<text text-anchor="start" x="605.7397" y="-665.3" font-family="Arial" font-size="14.00" fill="#000000">    </text>
<text text-anchor="start" x="639.9445" y="-665.3" font-family="Arial" font-size="14.00" fill="#666666">[BASE TABLE]</text>
<polygon fill="none" stroke="#000000" points="443,-622.5 443,-652.5 740,-652.5 740,-622.5 443,-622.5"/>
<text text-anchor="start" x="450" y="-633.9" font-family="Arial" font-size="14.00" fill="#000000">pg_id </text>
<text text-anchor="start" x="488.1276" y="-633.9" font-family="Arial" font-size="14.00" fill="#666666">[bigint]</text>
<polygon fill="none" stroke="#000000" points="443,-592.5 443,-622.5 740,-622.5 740,-592.5 443,-592.5"/>
<text text-anchor="start" x="450" y="-603.9" font-family="Arial" font-size="14.00" fill="#000000">pg_type </text>
<text text-anchor="start" x="503.6942" y="-603.9" font-family="Arial" font-size="14.00" fill="#666666">[numeric]</text>
<polygon fill="none" stroke="#000000" points="443,-562.5 443,-592.5 740,-592.5 740,-562.5 443,-562.5"/>
<text text-anchor="start" x="450" y="-573.9" font-family="Arial" font-size="14.00" fill="#000000">pg_name </text>
<text text-anchor="start" x="512.2468" y="-573.9" font-family="Arial" font-size="14.00" fill="#666666">[text]</text>
<polygon fill="none" stroke="#000000" points="443,-532.5 443,-562.5 740,-562.5 740,-532.5 443,-532.5"/>
<text text-anchor="start" x="450" y="-543.9" font-family="Arial" font-size="14.00" fill="#000000">pg_description </text>
<text text-anchor="start" x="544.9158" y="-543.9" font-family="Arial" font-size="14.00" fill="#666666">[text]</text>
<polygon fill="none" stroke="#000000" points="443,-502.5 443,-532.5 740,-532.5 740,-502.5 443,-502.5"/>
<text text-anchor="start" x="450" y="-513.9" font-family="Arial" font-size="14.00" fill="#000000">pg_base </text>
<text text-anchor="start" x="507.5862" y="-513.9" font-family="Arial" font-size="14.00" fill="#666666">[bigint]</text>
<polygon fill="none" stroke="#000000" points="443,-472.5 443,-502.5 740,-502.5 740,-472.5 443,-472.5"/>
<text text-anchor="start" x="450" y="-483.9" font-family="Arial" font-size="14.00" fill="#000000">id </text>
<text text-anchor="start" x="464.7798" y="-483.9" font-family="Arial" font-size="14.00" fill="#666666">[bigint]</text>
<polygon fill="none" stroke="#000000" points="443,-442.5 443,-472.5 740,-472.5 740,-442.5 443,-442.5"/>
<text text-anchor="start" x="450" y="-453.9" font-family="Arial" font-size="14.00" fill="#000000">tenant_id </text>
<text text-anchor="start" x="511.474" y="-453.9" font-family="Arial" font-size="14.00" fill="#666666">[bigint]</text>
<polygon fill="none" stroke="#000000" stroke-width="3" points="441,-441.5 441,-689.5 741,-689.5 741,-441.5 441,-441.5"/>
</g>
<!-- public.tenant -->
<g id="node4" class="node">
<title>public.tenant</title>
<polygon fill="#efefef" stroke="transparent" points="470,-282.5 470,-317.5 713,-317.5 713,-282.5 470,-282.5"/>
<polygon fill="none" stroke="#000000" points="470,-282.5 470,-317.5 713,-317.5 713,-282.5 470,-282.5"/>
<text text-anchor="start" x="476.6968" y="-295.3" font-family="Arial Bold" font-size="18.00" fill="#000000">public.tenant</text>
<text text-anchor="start" x="578.7352" y="-295.3" font-family="Arial" font-size="14.00" fill="#000000">    </text>
<text text-anchor="start" x="612.94" y="-295.3" font-family="Arial" font-size="14.00" fill="#666666">[BASE TABLE]</text>
<polygon fill="none" stroke="#000000" points="470,-252.5 470,-282.5 713,-282.5 713,-252.5 470,-252.5"/>
<text text-anchor="start" x="477" y="-263.9" font-family="Arial" font-size="14.00" fill="#000000">id    </text>
<text text-anchor="start" x="522.094" y="-263.9" font-family="Arial" font-size="14.00" fill="#666666">[bigint]</text>
<polygon fill="none" stroke="#000000" points="470,-222.5 470,-252.5 713,-252.5 713,-222.5 470,-222.5"/>
<text text-anchor="start" x="477" y="-233.9" font-family="Arial" font-size="14.00" fill="#000000">name    </text>
<text text-anchor="start" x="546.2132" y="-233.9" font-family="Arial" font-size="14.00" fill="#666666">[text]</text>
<polygon fill="none" stroke="#000000" points="470,-192.5 470,-222.5 713,-222.5 713,-192.5 470,-192.5"/>
<text text-anchor="start" x="477" y="-203.9" font-family="Arial" font-size="14.00" fill="#000000">origins    </text>
<text text-anchor="start" x="552.4264" y="-203.9" font-family="Arial" font-size="14.00" fill="#666666">[text[]]</text>
<polygon fill="none" stroke="#000000" points="470,-162.5 470,-192.5 713,-192.5 713,-162.5 470,-162.5"/>
<text text-anchor="start" x="477" y="-173.9" font-family="Arial" font-size="14.00" fill="#000000">cz_ico    </text>
<text text-anchor="start" x="550.8766" y="-173.9" font-family="Arial" font-size="14.00" fill="#666666">[text]</text>
<polygon fill="none" stroke="#000000" points="470,-132.5 470,-162.5 713,-162.5 713,-132.5 470,-132.5"/>
<text text-anchor="start" x="477" y="-143.9" font-family="Arial" font-size="14.00" fill="#000000">cz_dic    </text>
<text text-anchor="start" x="550.8766" y="-143.9" font-family="Arial" font-size="14.00" fill="#666666">[text]</text>
<polygon fill="none" stroke="#000000" points="470,-102.5 470,-132.5 713,-132.5 713,-102.5 470,-102.5"/>
<text text-anchor="start" x="477" y="-113.9" font-family="Arial" font-size="14.00" fill="#000000">address    </text>
<text text-anchor="start" x="560.9958" y="-113.9" font-family="Arial" font-size="14.00" fill="#666666">[address_domain]</text>
<polygon fill="none" stroke="#000000" points="470,-72.5 470,-102.5 713,-102.5 713,-72.5 470,-72.5"/>
<text text-anchor="start" x="477" y="-83.9" font-family="Arial" font-size="14.00" fill="#000000">description    </text>
<text text-anchor="start" x="578.8822" y="-83.9" font-family="Arial" font-size="14.00" fill="#666666">[text]</text>
<polygon fill="none" stroke="#000000" points="470,-42.5 470,-72.5 713,-72.5 713,-42.5 470,-42.5"/>
<text text-anchor="start" x="477" y="-53.9" font-family="Arial" font-size="14.00" fill="#000000">bank_account    </text>
<text text-anchor="start" x="598.3562" y="-53.9" font-family="Arial" font-size="14.00" fill="#666666">[text]</text>
</g>
<!-- public.platby_group&#45;&gt;public.tenant -->
<g id="edge3" class="edge">
<title>public.platby_group:tenant_id&#45;&gt;public.tenant:id</title>
<path fill="none" stroke="#000000" d="M591.1493,-432.4067C581.8563,-381.6441 499.0006,-415.2497 470,-361 450.409,-324.3523 428.4444,-267.5 470,-267.5"/>
<polygon fill="#000000" stroke="#000000" points="591.16,-432.5353 587.5159,-442.878 591.58,-437.5177 592,-442.5 592,-442.5 592,-442.5 591.58,-437.5177 596.4841,-442.122 591.16,-432.5353 591.16,-432.5353"/>
<text text-anchor="start" x="599.2065" y="-452.5" font-family="Arial" font-size="10.00" fill="#000000">FOREIGN KEY (tenant_id) REFERENCES tenant(id) ON DELETE CASCADE</text>
</g>
<!-- public.platby_category_group -->
<g id="node2" class="node">
<title>public.platby_category_group</title>
<polygon fill="#efefef" stroke="transparent" points="165,-962.5 165,-997.5 541,-997.5 541,-962.5 165,-962.5"/>
<polygon fill="none" stroke="#000000" points="165,-962.5 165,-997.5 541,-997.5 541,-962.5 165,-962.5"/>
<text text-anchor="start" x="171.6796" y="-975.3" font-family="Arial Bold" font-size="18.00" fill="#000000">public.platby_category_group</text>
<text text-anchor="start" x="406.7524" y="-975.3" font-family="Arial" font-size="14.00" fill="#000000">    </text>
<text text-anchor="start" x="440.9572" y="-975.3" font-family="Arial" font-size="14.00" fill="#666666">[BASE TABLE]</text>
<polygon fill="none" stroke="#000000" points="165,-932.5 165,-962.5 541,-962.5 541,-932.5 165,-932.5"/>
<text text-anchor="start" x="172" y="-943.9" font-family="Arial" font-size="14.00" fill="#000000">pcg_id    </text>
<text text-anchor="start" x="247.4418" y="-943.9" font-family="Arial" font-size="14.00" fill="#666666">[bigint]</text>
<polygon fill="none" stroke="#000000" points="165,-902.5 165,-932.5 541,-932.5 541,-902.5 165,-902.5"/>
<text text-anchor="start" x="172" y="-913.9" font-family="Arial" font-size="14.00" fill="#000000">pcg_id_group    </text>
<text text-anchor="start" x="291.0154" y="-913.9" font-family="Arial" font-size="14.00" fill="#666666">[bigint]</text>
<polygon fill="none" stroke="#000000" points="165,-872.5 165,-902.5 541,-902.5 541,-872.5 165,-872.5"/>
<text text-anchor="start" x="172" y="-883.9" font-family="Arial" font-size="14.00" fill="#000000">pcg_id_category    </text>
<text text-anchor="start" x="308.906" y="-883.9" font-family="Arial" font-size="14.00" fill="#666666">[bigint]</text>
<polygon fill="none" stroke="#000000" points="165,-842.5 165,-872.5 541,-872.5 541,-842.5 165,-842.5"/>
<text text-anchor="start" x="172" y="-853.9" font-family="Arial" font-size="14.00" fill="#000000">id    </text>
<text text-anchor="start" x="217.094" y="-853.9" font-family="Arial" font-size="14.00" fill="#666666">[bigint]</text>
<polygon fill="none" stroke="#000000" points="165,-812.5 165,-842.5 541,-842.5 541,-812.5 165,-812.5"/>
<text text-anchor="start" x="172" y="-823.9" font-family="Arial" font-size="14.00" fill="#000000">tenant_id    </text>
<text text-anchor="start" x="263.7882" y="-823.9" font-family="Arial" font-size="14.00" fill="#666666">[bigint]</text>
</g>
<!-- public.platby_category_group&#45;&gt;public.platby_group -->
<g id="edge1" class="edge">
<title>public.platby_category_group:pcg_id_group&#45;&gt;public.platby_group:pg_id</title>
<path fill="none" stroke="#000000" d="M551.2539,-916.6221C603.3493,-907.0088 576.3959,-820.7111 541,-770 514.4419,-731.9506 469.5581,-772.0494 443,-734 418.4523,-698.8309 400.1111,-637.5 443,-637.5"/>
<polygon fill="#000000" stroke="#000000" points="550.9635,-916.6468 540.6161,-913.0164 545.9818,-917.0734 541,-917.5 541,-917.5 541,-917.5 545.9818,-917.0734 541.3839,-921.9836 550.9635,-916.6468 550.9635,-916.6468"/>
<text text-anchor="start" x="7.3715" y="-927.5" font-family="Arial" font-size="10.00" fill="#000000">FOREIGN KEY (pcg_id_group) REFERENCES platby_group(pg_id) ON UPDATE RESTRICT ON DELETE RESTRICT</text>
</g>
<!-- public.platby_group_skupina -->
<g id="node3" class="node">
<title>public.platby_group_skupina</title>
<polygon fill="#efefef" stroke="transparent" points="646,-962.5 646,-997.5 1015,-997.5 1015,-962.5 646,-962.5"/>
<polygon fill="none" stroke="#000000" points="646,-962.5 646,-997.5 1015,-997.5 1015,-962.5 646,-962.5"/>
<text text-anchor="start" x="652.6797" y="-975.3" font-family="Arial Bold" font-size="18.00" fill="#000000">public.platby_group_skupina</text>
<text text-anchor="start" x="880.7523" y="-975.3" font-family="Arial" font-size="14.00" fill="#000000">    </text>
<text text-anchor="start" x="914.9571" y="-975.3" font-family="Arial" font-size="14.00" fill="#666666">[BASE TABLE]</text>
<polygon fill="none" stroke="#000000" points="646,-932.5 646,-962.5 1015,-962.5 1015,-932.5 646,-932.5"/>
<text text-anchor="start" x="653" y="-943.9" font-family="Arial" font-size="14.00" fill="#000000">pgs_id    </text>
<text text-anchor="start" x="728.4418" y="-943.9" font-family="Arial" font-size="14.00" fill="#666666">[bigint]</text>
<polygon fill="none" stroke="#000000" points="646,-902.5 646,-932.5 1015,-932.5 1015,-902.5 646,-902.5"/>
<text text-anchor="start" x="653" y="-913.9" font-family="Arial" font-size="14.00" fill="#000000">pgs_id_skupina    </text>
<text text-anchor="start" x="784.4614" y="-913.9" font-family="Arial" font-size="14.00" fill="#666666">[bigint]</text>
<polygon fill="none" stroke="#000000" points="646,-872.5 646,-902.5 1015,-902.5 1015,-872.5 646,-872.5"/>
<text text-anchor="start" x="653" y="-883.9" font-family="Arial" font-size="14.00" fill="#000000">pgs_id_group    </text>
<text text-anchor="start" x="772.0154" y="-883.9" font-family="Arial" font-size="14.00" fill="#666666">[bigint]</text>
<polygon fill="none" stroke="#000000" points="646,-842.5 646,-872.5 1015,-872.5 1015,-842.5 646,-842.5"/>
<text text-anchor="start" x="653" y="-853.9" font-family="Arial" font-size="14.00" fill="#000000">id    </text>
<text text-anchor="start" x="698.094" y="-853.9" font-family="Arial" font-size="14.00" fill="#666666">[bigint]</text>
<polygon fill="none" stroke="#000000" points="646,-812.5 646,-842.5 1015,-842.5 1015,-812.5 646,-812.5"/>
<text text-anchor="start" x="653" y="-823.9" font-family="Arial" font-size="14.00" fill="#000000">tenant_id    </text>
<text text-anchor="start" x="744.7882" y="-823.9" font-family="Arial" font-size="14.00" fill="#666666">[bigint]</text>
</g>
<!-- public.platby_group_skupina&#45;&gt;public.platby_group -->
<g id="edge2" class="edge">
<title>public.platby_group_skupina:pgs_id_group&#45;&gt;public.platby_group:pg_id</title>
<path fill="none" stroke="#000000" d="M635.5815,-886.3126C597.1748,-876.6185 618.6009,-809.8329 646,-770 671.3534,-733.141 714.6466,-770.859 740,-734 764.3062,-698.6635 782.8889,-637.5 740,-637.5"/>
<polygon fill="#000000" stroke="#000000" points="636.0643,-886.3675 645.4904,-891.9711 641.0322,-886.9338 646,-887.5 646,-887.5 646,-887.5 641.0322,-886.9338 646.5096,-883.0289 636.0643,-886.3675 636.0643,-886.3675"/>
<text text-anchor="start" x="653.3715" y="-897.5" font-family="Arial" font-size="10.00" fill="#000000">FOREIGN KEY (pgs_id_group) REFERENCES platby_group(pg_id) ON UPDATE RESTRICT ON DELETE RESTRICT</text>
</g>
</g>
</svg>
