<?xml version="1.0" encoding="UTF-8" standalone="no"?>
<!DOCTYPE svg PUBLIC "-//W3C//DTD SVG 1.1//EN"
 "http://www.w3.org/Graphics/SVG/1.1/DTD/svg11.dtd">
<!-- Generated by graphviz version 2.40.1 (20161225.0304)
 -->
<!-- Title: public.event_trainer Pages: 1 -->
<svg width="1317pt" height="1649pt"
 viewBox="0.00 0.00 1317.00 1649.00" xmlns="http://www.w3.org/2000/svg" xmlns:xlink="http://www.w3.org/1999/xlink">
<g id="graph0" class="graph" transform="scale(1 1) rotate(0) translate(4 1645)">
<title>public.event_trainer</title>
<polygon fill="#ffffff" stroke="transparent" points="-4,4 -4,-1645 1313,-1645 1313,4 -4,4"/>
<!-- public.event_trainer -->
<g id="node1" class="node">
<title>public.event_trainer</title>
<polygon fill="#efefef" stroke="transparent" points="471,-1192.5 471,-1227.5 769,-1227.5 769,-1192.5 471,-1192.5"/>
<polygon fill="none" stroke="#000000" points="471,-1192.5 471,-1227.5 769,-1227.5 769,-1192.5 471,-1192.5"/>
<text text-anchor="start" x="477.6982" y="-1205.3" font-family="Arial Bold" font-size="18.00" fill="#000000">public.event_trainer</text>
<text text-anchor="start" x="634.7338" y="-1205.3" font-family="Arial" font-size="14.00" fill="#000000">    </text>
<text text-anchor="start" x="668.9386" y="-1205.3" font-family="Arial" font-size="14.00" fill="#666666">[BASE TABLE]</text>
<polygon fill="none" stroke="#000000" points="471,-1162.5 471,-1192.5 769,-1192.5 769,-1162.5 471,-1162.5"/>
<text text-anchor="start" x="478" y="-1173.9" font-family="Arial" font-size="14.00" fill="#000000">id </text>
<text text-anchor="start" x="492.7798" y="-1173.9" font-family="Arial" font-size="14.00" fill="#666666">[bigint]</text>
<polygon fill="none" stroke="#000000" points="471,-1132.5 471,-1162.5 769,-1162.5 769,-1132.5 471,-1132.5"/>
<text text-anchor="start" x="478" y="-1143.9" font-family="Arial" font-size="14.00" fill="#000000">tenant_id </text>
<text text-anchor="start" x="539.474" y="-1143.9" font-family="Arial" font-size="14.00" fill="#666666">[bigint]</text>
<polygon fill="none" stroke="#000000" points="471,-1102.5 471,-1132.5 769,-1132.5 769,-1102.5 471,-1102.5"/>
<text text-anchor="start" x="478" y="-1113.9" font-family="Arial" font-size="14.00" fill="#000000">event_id </text>
<text text-anchor="start" x="534.8008" y="-1113.9" font-family="Arial" font-size="14.00" fill="#666666">[bigint]</text>
<polygon fill="none" stroke="#000000" points="471,-1072.5 471,-1102.5 769,-1102.5 769,-1072.5 471,-1072.5"/>
<text text-anchor="start" x="478" y="-1083.9" font-family="Arial" font-size="14.00" fill="#000000">person_id </text>
<text text-anchor="start" x="543.3534" y="-1083.9" font-family="Arial" font-size="14.00" fill="#666666">[bigint]</text>
<polygon fill="none" stroke="#000000" points="471,-1042.5 471,-1072.5 769,-1072.5 769,-1042.5 471,-1042.5"/>
<text text-anchor="start" x="478" y="-1053.9" font-family="Arial" font-size="14.00" fill="#000000">created_at </text>
<text text-anchor="start" x="548.028" y="-1053.9" font-family="Arial" font-size="14.00" fill="#666666">[timestamp with time zone]</text>
<polygon fill="none" stroke="#000000" points="471,-1012.5 471,-1042.5 769,-1042.5 769,-1012.5 471,-1012.5"/>
<text text-anchor="start" x="478" y="-1023.9" font-family="Arial" font-size="14.00" fill="#000000">updated_at </text>
<text text-anchor="start" x="551.9326" y="-1023.9" font-family="Arial" font-size="14.00" fill="#666666">[timestamp with time zone]</text>
<polygon fill="none" stroke="#000000" points="471,-982.5 471,-1012.5 769,-1012.5 769,-982.5 471,-982.5"/>
<text text-anchor="start" x="478" y="-993.9" font-family="Arial" font-size="14.00" fill="#000000">lessons_offered </text>
<text text-anchor="start" x="580.6998" y="-993.9" font-family="Arial" font-size="14.00" fill="#666666">[integer]</text>
<polygon fill="none" stroke="#000000" points="471,-952.5 471,-982.5 769,-982.5 769,-952.5 471,-952.5"/>
<text text-anchor="start" x="478" y="-963.9" font-family="Arial" font-size="14.00" fill="#000000">lesson_price </text>
<text text-anchor="start" x="560.46" y="-963.9" font-family="Arial" font-size="14.00" fill="#666666">[price]</text>
<polygon fill="none" stroke="#000000" stroke-width="3" points="469.5,-951.5 469.5,-1229.5 770.5,-1229.5 770.5,-951.5 469.5,-951.5"/>
</g>
<!-- public.tenant -->
<g id="node3" class="node">
<title>public.tenant</title>
<polygon fill="#efefef" stroke="transparent" points="131,-537.5 131,-572.5 374,-572.5 374,-537.5 131,-537.5"/>
<polygon fill="none" stroke="#000000" points="131,-537.5 131,-572.5 374,-572.5 374,-537.5 131,-537.5"/>
<text text-anchor="start" x="137.6968" y="-550.3" font-family="Arial Bold" font-size="18.00" fill="#000000">public.tenant</text>
<text text-anchor="start" x="239.7352" y="-550.3" font-family="Arial" font-size="14.00" fill="#000000">    </text>
<text text-anchor="start" x="273.94" y="-550.3" font-family="Arial" font-size="14.00" fill="#666666">[BASE TABLE]</text>
<polygon fill="none" stroke="#000000" points="131,-507.5 131,-537.5 374,-537.5 374,-507.5 131,-507.5"/>
<text text-anchor="start" x="138" y="-518.9" font-family="Arial" font-size="14.00" fill="#000000">id    </text>
<text text-anchor="start" x="183.094" y="-518.9" font-family="Arial" font-size="14.00" fill="#666666">[bigint]</text>
<polygon fill="none" stroke="#000000" points="131,-477.5 131,-507.5 374,-507.5 374,-477.5 131,-477.5"/>
<text text-anchor="start" x="138" y="-488.9" font-family="Arial" font-size="14.00" fill="#000000">name    </text>
<text text-anchor="start" x="207.2132" y="-488.9" font-family="Arial" font-size="14.00" fill="#666666">[text]</text>
<polygon fill="none" stroke="#000000" points="131,-447.5 131,-477.5 374,-477.5 374,-447.5 131,-447.5"/>
<text text-anchor="start" x="138" y="-458.9" font-family="Arial" font-size="14.00" fill="#000000">origins    </text>
<text text-anchor="start" x="213.4264" y="-458.9" font-family="Arial" font-size="14.00" fill="#666666">[text[]]</text>
<polygon fill="none" stroke="#000000" points="131,-417.5 131,-447.5 374,-447.5 374,-417.5 131,-417.5"/>
<text text-anchor="start" x="138" y="-428.9" font-family="Arial" font-size="14.00" fill="#000000">cz_ico    </text>
<text text-anchor="start" x="211.8766" y="-428.9" font-family="Arial" font-size="14.00" fill="#666666">[text]</text>
<polygon fill="none" stroke="#000000" points="131,-387.5 131,-417.5 374,-417.5 374,-387.5 131,-387.5"/>
<text text-anchor="start" x="138" y="-398.9" font-family="Arial" font-size="14.00" fill="#000000">cz_dic    </text>
<text text-anchor="start" x="211.8766" y="-398.9" font-family="Arial" font-size="14.00" fill="#666666">[text]</text>
<polygon fill="none" stroke="#000000" points="131,-357.5 131,-387.5 374,-387.5 374,-357.5 131,-357.5"/>
<text text-anchor="start" x="138" y="-368.9" font-family="Arial" font-size="14.00" fill="#000000">address    </text>
<text text-anchor="start" x="221.9958" y="-368.9" font-family="Arial" font-size="14.00" fill="#666666">[address_domain]</text>
<polygon fill="none" stroke="#000000" points="131,-327.5 131,-357.5 374,-357.5 374,-327.5 131,-327.5"/>
<text text-anchor="start" x="138" y="-338.9" font-family="Arial" font-size="14.00" fill="#000000">description    </text>
<text text-anchor="start" x="239.8822" y="-338.9" font-family="Arial" font-size="14.00" fill="#666666">[text]</text>
<polygon fill="none" stroke="#000000" points="131,-297.5 131,-327.5 374,-327.5 374,-297.5 131,-297.5"/>
<text text-anchor="start" x="138" y="-308.9" font-family="Arial" font-size="14.00" fill="#000000">bank_account    </text>
<text text-anchor="start" x="259.3562" y="-308.9" font-family="Arial" font-size="14.00" fill="#666666">[text]</text>
</g>
<!-- public.event_trainer&#45;&gt;public.tenant -->
<g id="edge2" class="edge">
<title>public.event_trainer:tenant_id&#45;&gt;public.tenant:id</title>
<path fill="none" stroke="#000000" d="M461.4933,-1143.1752C404.7059,-1087.955 440.8444,-522.5 374,-522.5"/>
<polygon fill="#000000" stroke="#000000" points="461.8976,-1143.359 469.1366,-1151.5961 466.4488,-1145.4295 471,-1147.5 471,-1147.5 471,-1147.5 466.4488,-1145.4295 472.8634,-1143.4039 461.8976,-1143.359 461.8976,-1143.359"/>
<text text-anchor="start" x="7.0955" y="-1157.5" font-family="Arial" font-size="10.00" fill="#000000">FOREIGN KEY (tenant_id) REFERENCES tenant(id) ON UPDATE CASCADE ON DELETE CASCADE</text>
</g>
<!-- public.event -->
<g id="node4" class="node">
<title>public.event</title>
<polygon fill="#efefef" stroke="transparent" points="478,-792.5 478,-827.5 761,-827.5 761,-792.5 478,-792.5"/>
<polygon fill="none" stroke="#000000" points="478,-792.5 478,-827.5 761,-827.5 761,-792.5 478,-792.5"/>
<text text-anchor="start" x="507.701" y="-805.3" font-family="Arial Bold" font-size="18.00" fill="#000000">public.event</text>
<text text-anchor="start" x="603.731" y="-805.3" font-family="Arial" font-size="14.00" fill="#000000">    </text>
<text text-anchor="start" x="637.9358" y="-805.3" font-family="Arial" font-size="14.00" fill="#666666">[BASE TABLE]</text>
<polygon fill="none" stroke="#000000" points="478,-762.5 478,-792.5 761,-792.5 761,-762.5 478,-762.5"/>
<text text-anchor="start" x="485" y="-773.9" font-family="Arial" font-size="14.00" fill="#000000">id    </text>
<text text-anchor="start" x="530.094" y="-773.9" font-family="Arial" font-size="14.00" fill="#666666">[bigint]</text>
<polygon fill="none" stroke="#000000" points="478,-732.5 478,-762.5 761,-762.5 761,-732.5 478,-732.5"/>
<text text-anchor="start" x="485" y="-743.9" font-family="Arial" font-size="14.00" fill="#000000">name    </text>
<text text-anchor="start" x="554.2132" y="-743.9" font-family="Arial" font-size="14.00" fill="#666666">[text]</text>
<polygon fill="none" stroke="#000000" points="478,-702.5 478,-732.5 761,-732.5 761,-702.5 478,-702.5"/>
<text text-anchor="start" x="485" y="-713.9" font-family="Arial" font-size="14.00" fill="#000000">location_text    </text>
<text text-anchor="start" x="597.7854" y="-713.9" font-family="Arial" font-size="14.00" fill="#666666">[text]</text>
<polygon fill="none" stroke="#000000" points="478,-672.5 478,-702.5 761,-702.5 761,-672.5 478,-672.5"/>
<text text-anchor="start" x="485" y="-683.9" font-family="Arial" font-size="14.00" fill="#000000">description    </text>
<text text-anchor="start" x="586.8822" y="-683.9" font-family="Arial" font-size="14.00" fill="#666666">[text]</text>
<polygon fill="none" stroke="#000000" points="478,-642.5 478,-672.5 761,-672.5 761,-642.5 478,-642.5"/>
<text text-anchor="start" x="485" y="-653.9" font-family="Arial" font-size="14.00" fill="#000000">since    </text>
<text text-anchor="start" x="551.8766" y="-653.9" font-family="Arial" font-size="14.00" fill="#666666">[date]</text>
<polygon fill="none" stroke="#000000" points="478,-612.5 478,-642.5 761,-642.5 761,-612.5 478,-612.5"/>
<text text-anchor="start" x="485" y="-623.9" font-family="Arial" font-size="14.00" fill="#000000">until    </text>
<text text-anchor="start" x="544.8738" y="-623.9" font-family="Arial" font-size="14.00" fill="#666666">[date]</text>
<polygon fill="none" stroke="#000000" points="478,-582.5 478,-612.5 761,-612.5 761,-582.5 478,-582.5"/>
<text text-anchor="start" x="485" y="-593.9" font-family="Arial" font-size="14.00" fill="#000000">capacity    </text>
<text text-anchor="start" x="570.5498" y="-593.9" font-family="Arial" font-size="14.00" fill="#666666">[integer]</text>
<polygon fill="none" stroke="#000000" points="478,-552.5 478,-582.5 761,-582.5 761,-552.5 478,-552.5"/>
<text text-anchor="start" x="485" y="-563.9" font-family="Arial" font-size="14.00" fill="#000000">files_legacy    </text>
<text text-anchor="start" x="592.3282" y="-563.9" font-family="Arial" font-size="14.00" fill="#666666">[text]</text>
<polygon fill="none" stroke="#000000" points="478,-522.5 478,-552.5 761,-552.5 761,-522.5 478,-522.5"/>
<text text-anchor="start" x="484.5344" y="-533.9" font-family="Arial" font-size="14.00" fill="#000000">updated_at    </text>
<text text-anchor="start" x="588.7812" y="-533.9" font-family="Arial" font-size="14.00" fill="#666666">[timestamp with time zone]</text>
<polygon fill="none" stroke="#000000" points="478,-492.5 478,-522.5 761,-522.5 761,-492.5 478,-492.5"/>
<text text-anchor="start" x="485" y="-503.9" font-family="Arial" font-size="14.00" fill="#000000">is_locked    </text>
<text text-anchor="start" x="577.5484" y="-503.9" font-family="Arial" font-size="14.00" fill="#666666">[boolean]</text>
<polygon fill="none" stroke="#000000" points="478,-462.5 478,-492.5 761,-492.5 761,-462.5 478,-462.5"/>
<text text-anchor="start" x="485" y="-473.9" font-family="Arial" font-size="14.00" fill="#000000">is_visible    </text>
<text text-anchor="start" x="575.979" y="-473.9" font-family="Arial" font-size="14.00" fill="#666666">[boolean]</text>
<polygon fill="none" stroke="#000000" points="478,-432.5 478,-462.5 761,-462.5 761,-432.5 478,-432.5"/>
<text text-anchor="start" x="485" y="-443.9" font-family="Arial" font-size="14.00" fill="#000000">summary    </text>
<text text-anchor="start" x="576.7518" y="-443.9" font-family="Arial" font-size="14.00" fill="#666666">[text]</text>
<polygon fill="none" stroke="#000000" points="478,-402.5 478,-432.5 761,-432.5 761,-402.5 478,-402.5"/>
<text text-anchor="start" x="485" y="-413.9" font-family="Arial" font-size="14.00" fill="#000000">is_public    </text>
<text text-anchor="start" x="573.655" y="-413.9" font-family="Arial" font-size="14.00" fill="#666666">[boolean]</text>
<polygon fill="none" stroke="#000000" points="478,-372.5 478,-402.5 761,-402.5 761,-372.5 478,-372.5"/>
<text text-anchor="start" x="485" y="-383.9" font-family="Arial" font-size="14.00" fill="#000000">enable_notes    </text>
<text text-anchor="start" x="603.2454" y="-383.9" font-family="Arial" font-size="14.00" fill="#666666">[boolean]</text>
<polygon fill="none" stroke="#000000" points="478,-342.5 478,-372.5 761,-372.5 761,-342.5 478,-342.5"/>
<text text-anchor="start" x="485" y="-353.9" font-family="Arial" font-size="14.00" fill="#000000">tenant_id    </text>
<text text-anchor="start" x="576.7882" y="-353.9" font-family="Arial" font-size="14.00" fill="#666666">[bigint]</text>
<polygon fill="none" stroke="#000000" points="478,-312.5 478,-342.5 761,-342.5 761,-312.5 478,-312.5"/>
<text text-anchor="start" x="485" y="-323.9" font-family="Arial" font-size="14.00" fill="#000000">description_member    </text>
<text text-anchor="start" x="645.9944" y="-323.9" font-family="Arial" font-size="14.00" fill="#666666">[text]</text>
<polygon fill="none" stroke="#000000" points="478,-282.5 478,-312.5 761,-312.5 761,-282.5 478,-282.5"/>
<text text-anchor="start" x="485" y="-293.9" font-family="Arial" font-size="14.00" fill="#000000">title_image_legacy    </text>
<text text-anchor="start" x="635.1164" y="-293.9" font-family="Arial" font-size="14.00" fill="#666666">[text]</text>
<polygon fill="none" stroke="#000000" points="478,-252.5 478,-282.5 761,-282.5 761,-252.5 478,-252.5"/>
<text text-anchor="start" x="485" y="-263.9" font-family="Arial" font-size="14.00" fill="#000000">type    </text>
<text text-anchor="start" x="545.6606" y="-263.9" font-family="Arial" font-size="14.00" fill="#666666">[event_type]</text>
<polygon fill="none" stroke="#000000" points="478,-222.5 478,-252.5 761,-252.5 761,-222.5 478,-222.5"/>
<text text-anchor="start" x="485" y="-233.9" font-family="Arial" font-size="14.00" fill="#000000">payment_type    </text>
<text text-anchor="start" x="607.1248" y="-233.9" font-family="Arial" font-size="14.00" fill="#666666">[event_payment_type]</text>
<polygon fill="none" stroke="#000000" points="478,-192.5 478,-222.5 761,-222.5 761,-192.5 478,-192.5"/>
<text text-anchor="start" x="485" y="-203.9" font-family="Arial" font-size="14.00" fill="#000000">member_price    </text>
<text text-anchor="start" x="608.6494" y="-203.9" font-family="Arial" font-size="14.00" fill="#666666">[price]</text>
<polygon fill="none" stroke="#000000" points="478,-162.5 478,-192.5 761,-192.5 761,-162.5 478,-162.5"/>
<text text-anchor="start" x="485" y="-173.9" font-family="Arial" font-size="14.00" fill="#000000">guest_price    </text>
<text text-anchor="start" x="591.5582" y="-173.9" font-family="Arial" font-size="14.00" fill="#666666">[price]</text>
<polygon fill="none" stroke="#000000" points="478,-132.5 478,-162.5 761,-162.5 761,-132.5 478,-132.5"/>
<text text-anchor="start" x="485" y="-143.9" font-family="Arial" font-size="14.00" fill="#000000">location_id    </text>
<text text-anchor="start" x="586.1108" y="-143.9" font-family="Arial" font-size="14.00" fill="#666666">[bigint]</text>
<polygon fill="none" stroke="#000000" points="478,-102.5 478,-132.5 761,-132.5 761,-102.5 478,-102.5"/>
<text text-anchor="start" x="485" y="-113.9" font-family="Arial" font-size="14.00" fill="#000000">is_paid_by_tenant    </text>
<text text-anchor="start" x="632.8078" y="-113.9" font-family="Arial" font-size="14.00" fill="#666666">[boolean]</text>
<polygon fill="none" stroke="#000000" points="478,-72.5 478,-102.5 761,-102.5 761,-72.5 478,-72.5"/>
<text text-anchor="start" x="485" y="-83.9" font-family="Arial" font-size="14.00" fill="#000000">payment_recipient_id    </text>
<text text-anchor="start" x="652.2356" y="-83.9" font-family="Arial" font-size="14.00" fill="#666666">[bigint]</text>
<polygon fill="none" stroke="#000000" points="478,-42.5 478,-72.5 761,-72.5 761,-42.5 478,-42.5"/>
<text text-anchor="start" x="485" y="-53.9" font-family="Arial" font-size="14.00" fill="#000000">created_at    </text>
<text text-anchor="start" x="585.3422" y="-53.9" font-family="Arial" font-size="14.00" fill="#666666">[timestamp with time zone]</text>
</g>
<!-- public.event_trainer&#45;&gt;public.event -->
<g id="edge3" class="edge">
<title>public.event_trainer:event_id&#45;&gt;public.event:id</title>
<path fill="none" stroke="#000000" d="M460.6038,-1116.8699C379.9603,-1106.6393 411.4747,-974.3716 471,-907 556.995,-809.6696 675.005,-968.3304 761,-871 788.5148,-839.8584 802.5556,-777.5 761,-777.5"/>
<polygon fill="#000000" stroke="#000000" points="461.0183,-1116.8949 470.7277,-1121.9918 466.0092,-1117.1975 471,-1117.5 471,-1117.5 471,-1117.5 466.0092,-1117.1975 471.2723,-1113.0082 461.0183,-1116.8949 461.0183,-1116.8949"/>
<text text-anchor="start" x="13.4335" y="-1127.5" font-family="Arial" font-size="10.00" fill="#000000">FOREIGN KEY (event_id) REFERENCES event(id) ON UPDATE CASCADE ON DELETE CASCADE</text>
</g>
<!-- public.person -->
<g id="node5" class="node">
<title>public.person</title>
<polygon fill="#efefef" stroke="transparent" points="865,-687.5 865,-722.5 1148,-722.5 1148,-687.5 865,-687.5"/>
<polygon fill="none" stroke="#000000" points="865,-687.5 865,-722.5 1148,-722.5 1148,-687.5 865,-687.5"/>
<text text-anchor="start" x="889.2029" y="-700.3" font-family="Arial Bold" font-size="18.00" fill="#000000">public.person</text>
<text text-anchor="start" x="996.2291" y="-700.3" font-family="Arial" font-size="14.00" fill="#000000">    </text>
<text text-anchor="start" x="1030.4339" y="-700.3" font-family="Arial" font-size="14.00" fill="#666666">[BASE TABLE]</text>
<polygon fill="none" stroke="#000000" points="865,-657.5 865,-687.5 1148,-687.5 1148,-657.5 865,-657.5"/>
<text text-anchor="start" x="872" y="-668.9" font-family="Arial" font-size="14.00" fill="#000000">id    </text>
<text text-anchor="start" x="917.094" y="-668.9" font-family="Arial" font-size="14.00" fill="#666666">[bigint]</text>
<polygon fill="none" stroke="#000000" points="865,-627.5 865,-657.5 1148,-657.5 1148,-627.5 865,-627.5"/>
<text text-anchor="start" x="872" y="-638.9" font-family="Arial" font-size="14.00" fill="#000000">first_name    </text>
<text text-anchor="start" x="971.5442" y="-638.9" font-family="Arial" font-size="14.00" fill="#666666">[text]</text>
<polygon fill="none" stroke="#000000" points="865,-597.5 865,-627.5 1148,-627.5 1148,-597.5 865,-597.5"/>
<text text-anchor="start" x="872" y="-608.9" font-family="Arial" font-size="14.00" fill="#000000">last_name    </text>
<text text-anchor="start" x="970.7756" y="-608.9" font-family="Arial" font-size="14.00" fill="#666666">[text]</text>
<polygon fill="none" stroke="#000000" points="865,-567.5 865,-597.5 1148,-597.5 1148,-567.5 865,-567.5"/>
<text text-anchor="start" x="872" y="-578.9" font-family="Arial" font-size="14.00" fill="#000000">gender    </text>
<text text-anchor="start" x="949.7784" y="-578.9" font-family="Arial" font-size="14.00" fill="#666666">[gender_type]</text>
<polygon fill="none" stroke="#000000" points="865,-537.5 865,-567.5 1148,-567.5 1148,-537.5 865,-537.5"/>
<text text-anchor="start" x="872" y="-548.9" font-family="Arial" font-size="14.00" fill="#000000">birth_date    </text>
<text text-anchor="start" x="968.4488" y="-548.9" font-family="Arial" font-size="14.00" fill="#666666">[date]</text>
<polygon fill="none" stroke="#000000" points="865,-507.5 865,-537.5 1148,-537.5 1148,-507.5 865,-507.5"/>
<text text-anchor="start" x="872" y="-518.9" font-family="Arial" font-size="14.00" fill="#000000">nationality    </text>
<text text-anchor="start" x="969.2188" y="-518.9" font-family="Arial" font-size="14.00" fill="#666666">[text]</text>
<polygon fill="none" stroke="#000000" points="865,-477.5 865,-507.5 1148,-507.5 1148,-477.5 865,-477.5"/>
<text text-anchor="start" x="872" y="-488.9" font-family="Arial" font-size="14.00" fill="#000000">tax_identification_number    </text>
<text text-anchor="start" x="1065.6886" y="-488.9" font-family="Arial" font-size="14.00" fill="#666666">[text]</text>
<polygon fill="none" stroke="#000000" points="865,-447.5 865,-477.5 1148,-477.5 1148,-447.5 865,-447.5"/>
<text text-anchor="start" x="872" y="-458.9" font-family="Arial" font-size="14.00" fill="#000000">national_id_number    </text>
<text text-anchor="start" x="1029.1276" y="-458.9" font-family="Arial" font-size="14.00" fill="#666666">[text]</text>
<polygon fill="none" stroke="#000000" points="865,-417.5 865,-447.5 1148,-447.5 1148,-417.5 865,-417.5"/>
<text text-anchor="start" x="872" y="-428.9" font-family="Arial" font-size="14.00" fill="#000000">csts_id    </text>
<text text-anchor="start" x="949.7672" y="-428.9" font-family="Arial" font-size="14.00" fill="#666666">[text]</text>
<polygon fill="none" stroke="#000000" points="865,-387.5 865,-417.5 1148,-417.5 1148,-387.5 865,-387.5"/>
<text text-anchor="start" x="872" y="-398.9" font-family="Arial" font-size="14.00" fill="#000000">wdsf_id    </text>
<text text-anchor="start" x="953.6564" y="-398.9" font-family="Arial" font-size="14.00" fill="#666666">[text]</text>
<polygon fill="none" stroke="#000000" points="865,-357.5 865,-387.5 1148,-387.5 1148,-357.5 865,-357.5"/>
<text text-anchor="start" x="872" y="-368.9" font-family="Arial" font-size="14.00" fill="#000000">created_at    </text>
<text text-anchor="start" x="972.3422" y="-368.9" font-family="Arial" font-size="14.00" fill="#666666">[timestamp with time zone]</text>
<polygon fill="none" stroke="#000000" points="865,-327.5 865,-357.5 1148,-357.5 1148,-327.5 865,-327.5"/>
<text text-anchor="start" x="871.5344" y="-338.9" font-family="Arial" font-size="14.00" fill="#000000">updated_at    </text>
<text text-anchor="start" x="975.7812" y="-338.9" font-family="Arial" font-size="14.00" fill="#666666">[timestamp with time zone]</text>
<polygon fill="none" stroke="#000000" points="865,-297.5 865,-327.5 1148,-327.5 1148,-297.5 865,-297.5"/>
<text text-anchor="start" x="872" y="-308.9" font-family="Arial" font-size="14.00" fill="#000000">legacy_user_id    </text>
<text text-anchor="start" x="1000.3394" y="-308.9" font-family="Arial" font-size="14.00" fill="#666666">[bigint]</text>
<polygon fill="none" stroke="#000000" points="865,-267.5 865,-297.5 1148,-297.5 1148,-267.5 865,-267.5"/>
<text text-anchor="start" x="872" y="-278.9" font-family="Arial" font-size="14.00" fill="#000000">prefix_title    </text>
<text text-anchor="start" x="969.9874" y="-278.9" font-family="Arial" font-size="14.00" fill="#666666">[text]</text>
<polygon fill="none" stroke="#000000" points="865,-237.5 865,-267.5 1148,-267.5 1148,-237.5 865,-237.5"/>
<text text-anchor="start" x="872" y="-248.9" font-family="Arial" font-size="14.00" fill="#000000">suffix_title    </text>
<text text-anchor="start" x="968.4348" y="-248.9" font-family="Arial" font-size="14.00" fill="#666666">[text]</text>
<polygon fill="none" stroke="#000000" points="865,-207.5 865,-237.5 1148,-237.5 1148,-207.5 865,-207.5"/>
<text text-anchor="start" x="872" y="-218.9" font-family="Arial" font-size="14.00" fill="#000000">bio    </text>
<text text-anchor="start" x="924.8766" y="-218.9" font-family="Arial" font-size="14.00" fill="#666666">[text]</text>
<polygon fill="none" stroke="#000000" points="865,-177.5 865,-207.5 1148,-207.5 1148,-177.5 865,-177.5"/>
<text text-anchor="start" x="872" y="-188.9" font-family="Arial" font-size="14.00" fill="#000000">email    </text>
<text text-anchor="start" x="939.6438" y="-188.9" font-family="Arial" font-size="14.00" fill="#666666">[citext]</text>
<polygon fill="none" stroke="#000000" points="865,-147.5 865,-177.5 1148,-177.5 1148,-147.5 865,-147.5"/>
<text text-anchor="start" x="872" y="-158.9" font-family="Arial" font-size="14.00" fill="#000000">phone    </text>
<text text-anchor="start" x="945.1178" y="-158.9" font-family="Arial" font-size="14.00" fill="#666666">[text]</text>
</g>
<!-- public.event_trainer&#45;&gt;public.person -->
<g id="edge4" class="edge">
<title>public.event_trainer:person_id&#45;&gt;public.person:id</title>
<path fill="none" stroke="#000000" d="M779.2546,-1085.6498C856.6541,-1055.7114 774.04,-672.5 865,-672.5"/>
<polygon fill="#000000" stroke="#000000" points="778.8411,-1085.7243 768.2009,-1083.0715 773.9205,-1086.6121 769,-1087.5 769,-1087.5 769,-1087.5 773.9205,-1086.6121 769.7991,-1091.9285 778.8411,-1085.7243 778.8411,-1085.7243"/>
<text text-anchor="start" x="776.3245" y="-1097.5" font-family="Arial" font-size="10.00" fill="#000000">FOREIGN KEY (person_id) REFERENCES person(id) ON UPDATE CASCADE ON DELETE CASCADE</text>
</g>
<!-- public.event_lesson_demand -->
<g id="node2" class="node">
<title>public.event_lesson_demand</title>
<polygon fill="#efefef" stroke="transparent" points="433,-1562.5 433,-1597.5 807,-1597.5 807,-1562.5 433,-1562.5"/>
<polygon fill="none" stroke="#000000" points="433,-1562.5 433,-1597.5 807,-1597.5 807,-1562.5 433,-1562.5"/>
<text text-anchor="start" x="439.6768" y="-1575.3" font-family="Arial Bold" font-size="18.00" fill="#000000">public.event_lesson_demand</text>
<text text-anchor="start" x="672.7552" y="-1575.3" font-family="Arial" font-size="14.00" fill="#000000">    </text>
<text text-anchor="start" x="706.96" y="-1575.3" font-family="Arial" font-size="14.00" fill="#666666">[BASE TABLE]</text>
<polygon fill="none" stroke="#000000" points="433,-1532.5 433,-1562.5 807,-1562.5 807,-1532.5 433,-1532.5"/>
<text text-anchor="start" x="440" y="-1543.9" font-family="Arial" font-size="14.00" fill="#000000">id    </text>
<text text-anchor="start" x="485.094" y="-1543.9" font-family="Arial" font-size="14.00" fill="#666666">[bigint]</text>
<polygon fill="none" stroke="#000000" points="433,-1502.5 433,-1532.5 807,-1532.5 807,-1502.5 433,-1502.5"/>
<text text-anchor="start" x="440" y="-1513.9" font-family="Arial" font-size="14.00" fill="#000000">tenant_id    </text>
<text text-anchor="start" x="531.7882" y="-1513.9" font-family="Arial" font-size="14.00" fill="#666666">[bigint]</text>
<polygon fill="none" stroke="#000000" points="433,-1472.5 433,-1502.5 807,-1502.5 807,-1472.5 433,-1472.5"/>
<text text-anchor="start" x="440" y="-1483.9" font-family="Arial" font-size="14.00" fill="#000000">trainer_id    </text>
<text text-anchor="start" x="532.5428" y="-1483.9" font-family="Arial" font-size="14.00" fill="#666666">[bigint]</text>
<polygon fill="none" stroke="#000000" points="433,-1442.5 433,-1472.5 807,-1472.5 807,-1442.5 433,-1442.5"/>
<text text-anchor="start" x="440" y="-1453.9" font-family="Arial" font-size="14.00" fill="#000000">registration_id    </text>
<text text-anchor="start" x="562.1052" y="-1453.9" font-family="Arial" font-size="14.00" fill="#666666">[bigint]</text>
<polygon fill="none" stroke="#000000" points="433,-1412.5 433,-1442.5 807,-1442.5 807,-1412.5 433,-1412.5"/>
<text text-anchor="start" x="440" y="-1423.9" font-family="Arial" font-size="14.00" fill="#000000">lesson_count    </text>
<text text-anchor="start" x="556.6802" y="-1423.9" font-family="Arial" font-size="14.00" fill="#666666">[integer]</text>
<polygon fill="none" stroke="#000000" points="433,-1382.5 433,-1412.5 807,-1412.5 807,-1382.5 433,-1382.5"/>
<text text-anchor="start" x="440" y="-1393.9" font-family="Arial" font-size="14.00" fill="#000000">created_at    </text>
<text text-anchor="start" x="540.3422" y="-1393.9" font-family="Arial" font-size="14.00" fill="#666666">[timestamp with time zone]</text>
<polygon fill="none" stroke="#000000" points="433,-1352.5 433,-1382.5 807,-1382.5 807,-1352.5 433,-1352.5"/>
<text text-anchor="start" x="440" y="-1363.9" font-family="Arial" font-size="14.00" fill="#000000">updated_at    </text>
<text text-anchor="start" x="544.2468" y="-1363.9" font-family="Arial" font-size="14.00" fill="#666666">[timestamp with time zone]</text>
</g>
<!-- public.event_lesson_demand&#45;&gt;public.event_trainer -->
<g id="edge1" class="edge">
<title>public.event_lesson_demand:trainer_id&#45;&gt;public.event_trainer:id</title>
<path fill="none" stroke="#000000" d="M817.2326,-1486.9106C943.8144,-1471.9577 904.2846,-1177.5 769,-1177.5"/>
<polygon fill="#000000" stroke="#000000" points="816.9835,-1486.9249 806.7412,-1483.0074 811.9917,-1487.2124 807,-1487.5 807,-1487.5 807,-1487.5 811.9917,-1487.2124 807.2588,-1491.9926 816.9835,-1486.9249 816.9835,-1486.9249"/>
<text text-anchor="start" x="813.549" y="-1497.5" font-family="Arial" font-size="10.00" fill="#000000">FOREIGN KEY (trainer_id) REFERENCES event_trainer(id) ON UPDATE CASCADE ON DELETE CASCADE</text>
</g>
</g>
</svg>
