<?xml version="1.0" encoding="utf-8"?>
<!-- Generator: Adobe Illustrator 15.1.0, SVG Export Plug-In . SVG Version: 6.00 Build 0)  -->
<!DOCTYPE svg PUBLIC "-//W3C//DTD SVG 1.1//EN" "http://www.w3.org/Graphics/SVG/1.1/DTD/svg11.dtd">
<svg version="1.1" id="Vrstva_1" xmlns="http://www.w3.org/2000/svg" xmlns:xlink="http://www.w3.org/1999/xlink" x="0px" y="0px"
	 width="126.19px" height="140.212px" viewBox="0 0 126.19 140.212" enable-background="new 0 0 126.19 140.212"
	 xml:space="preserve">
<g>
	<path fill-rule="evenodd" clip-rule="evenodd" fill="#E94C26" d="M61.968,137.924C35.114,137.489,2.32,120.787,2.299,82.505
		L2.278,2.296h59.69V137.924z"/>
	<path fill-rule="evenodd" clip-rule="evenodd" fill="#226BB3" d="M64.223,2.296h59.689v80.209
		c-0.023,38.293-32.671,54.994-59.689,55.419V2.296z"/>
	<path fill-rule="evenodd" clip-rule="evenodd" d="M64.147,16.243c0.745-0.887,1.295-1.324,2.186-1.99
		c0.816-0.739-0.08-1.826-1.223-1.396c0.594-0.704,1.99-1.629,3.945-1.857c4.987-4.315,14.852-4.219,16.373-2.089
		c0.914,0.365,4.971-0.448,7.607,1.608c1.816,1.417,2.087,3.773,1.375,5.55c-1.156-2.683-3.675-1.974-5.531-1.338
		c-2.906,0.994-3.293,0.722-5.63,1.288c2.054-0.236,3.108-0.08,5.231,0.416c4.145,0.968,5.68,0.977,7.635,0.371
		c-0.473,0.946-1.367,1.797-4.318,1.939c-2.668,1.185-4.288,0.75-6.056,0.597c-2.463,1.558-3.872,2.072-5.717,3.131
		c-2.935,1.855-4.976,3.068-4.677,7.191c0.102,0.828,1.93,1.932,2.918-0.344c0.674,1.766,0.248,4.055-1.885,5.658
		c1.418,2.927,3.209,5.913,7.691,8.035c2.227,0.994,5.35,0.468,3.611-1.699c-2.314-1.841-4.803-3.996-5.521-6.834
		c-0.344-1.356-0.916-4.358,2.259-6.416c7.857-4.401,13.032-2.315,12.831-8.715c1.335,0.635,1.666,1.983,2.055,2.743
		c6.496-3.163,16.795-6.445,21.668-16.393c4.438,17.391-10.249,20.03-17.361,22.859c5.424-0.522,12.448-2.288,18.318-8.496
		c0.018,11.396-6.415,14.265-16.854,16.521c5.24,0.245,13.853-0.6,16.69-4.237c0.014,11.432-9.705,11.766-15.531,12.716
		c6.629,0.995,9.887,1.496,15.51-1.655c-0.382,10.542-8.166,10.876-16.546,10.212c4.757,1.938,11.106,4.301,16.758,1.155
		c-1.907,12.186-11.171,9.636-20.19,7.354c4.158,2.903,7.318,6.585,17.793,5.334c-4.049,9.902-14.011,9.698-24.654,3.263
		c4.393,6.282,9.662,9.93,18.38,9.545c-7.483,7.555-20.624,3.56-28.999-2.528c0.463,2.332,2.135,3.966,3.057,5.096
		c-4.281-0.842-6.167-3.837-7.792-2.988c-2.206,1.154,0.573,7.658,13.574,9.862c-0.875,0.319-1.802,0.549-2.661,0.767
		c1.032,1.359,2.778,2.816,6.43,2.57c3.092-0.213,4.512-2.178,7.44-3.903c3.899-1.698,5.354,0.575,6.681,2.757
		c1.93,0.344,3.305,1.083,3.792,2.957c0.249,2.85-0.604,4.281-2.12,6.09c-0.314-0.84-0.566-2.027-1.123-2.751
		c0.73,1.736,0.806,5.303-1.639,7.837c-0.294-1.094-0.694-2.188-1.331-3.283c-0.418,1.082-0.796,2.38-2.068,2.249
		c-1.849-0.247-1.431-3.247-3.413-3.839c-2.23-0.525-3.594-0.691-6.169-0.24c-3.807,0.666-4.683,4.707-6.569,4.702
		c-1.059-0.003-1.893-1.022-2.545-2.042c-0.39,1.142-0.607,2.281-0.912,3.422c-1.611-1.407-1.723-3.383-1.487-5.309
		c0.114-0.937,0.787-2.303,1.673-2.621c2.477-0.889,5.514,0.654,5.946-0.67c0.253-0.775-2.392-2.023-4.825-2.109
		c-1.874,0.103-2.944,0.265-3.949,0.691c-0.479,2.537-0.781,3.386-2.152,5.301c0.465-6.517-5.461-12.186-8.054-10.779
		c-1.833,0.994-2.649,5.518-2.376,8.434c0.273,2.917,4.042,2.545,5.201-0.433c-0.204,4.789-2.57,7.608-5.825,8.312
		c0.011,2.699,1.824,5.476,4.817,5.838c11.427,0.421,12.08-6.211,21.778-6.281c10.243-0.072,9.202,10.811,3.392,15.865
		c1.445-12.95-10.758-2.002-14.047,0.066c1.902,7.76-3.836,9.227-6.625,9.256c1.258-1.736,2.869-4.962,0.506-6.74
		c-3.072-2.31-3.22,0.606-9.91-2.361c-0.344-0.153-1.227-0.072-0.988,0.834c1.049,3.984,3.729,4.777,6.729,5.889
		c-1.86,2.91-6.85,1.867-7.829,1.27c-0.11,3.397-1.159,4.414-2.673,6.477l-2.096,0.037L64.147,16.243z M77.821,69.117
		c-0.066,0.229,1.875,1.027,3.422,0.181c0.725-0.396,1.342-1.216,1.46-2.324c3.876,0.185,4.594-2.297,5.048-3.754
		c4.525-0.214,5.055-2.927,4.633-5.804c5.151-0.647,4.728-5.647,3.941-7.027c5.084-2.223,2.771-6.761,2.351-7.487
		c1.815-1.595,1.774-2.996,1.734-3.483c-0.168-2.022-2.363-3.631-2.925-3.001c-0.364,0.406,4.495,2.776,0.097,6.337
		c1.859,3.2,1.212,5.892-2.304,7.21c0.969,2.838,1.129,6.106-3.846,6.877c0.419,3.575,0.277,5.057-4.321,5.599
		c-0.759,2.453-1.924,4.063-5.074,3.801C81.694,70.228,77.981,68.564,77.821,69.117"/>
	<polygon fill-rule="evenodd" clip-rule="evenodd" fill="#FFD300" points="31.162,100.544 43,89.751 32.922,82.704 21.059,93.47 	
		"/>
	<polygon fill-rule="evenodd" clip-rule="evenodd" fill="#FFD300" points="32.155,67.199 44.03,56.291 33.861,49.181 21.965,60.062 
			"/>
	<polygon fill-rule="evenodd" clip-rule="evenodd" fill="#FFD300" points="33.185,33.718 44.94,22.867 34.795,15.81 23.034,26.64 	
		"/>
	<polygon fill-rule="evenodd" clip-rule="evenodd" fill="#FFD300" points="12.043,52.946 23.837,42.293 13.743,35.135 1.619,45.923 
			"/>
	<polygon fill-rule="evenodd" clip-rule="evenodd" fill="#FFD300" points="2.082,80.023 2.005,78.288 12.822,68.484 22.734,75.708 
		10.994,86.337 	"/>
	<path fill-rule="evenodd" clip-rule="evenodd" fill="#FFD300" d="M13.135,116.976c-2.425-2.854-5.167-6.66-6.84-10.234l5.502-4.903
		l10.056,7.247L13.135,116.976z"/>
	<path fill-rule="evenodd" clip-rule="evenodd" fill="#FFD300" d="M32.7,131.811c-3.65-1.763-7.654-4.145-10.736-6.56l10.071-9.316
		l10.175,7.122L32.7,131.811z"/>
	<path fill-rule="evenodd" clip-rule="evenodd" fill="#FFD300" d="M61.966,137.097v1.013c-5.643-0.034-11.711-0.565-16.757-1.705
		l7.062-6.454L61.966,137.097z"/>
	<polygon fill-rule="evenodd" clip-rule="evenodd" fill="#FFD300" points="62.12,103.19 62.351,104.575 51.35,114.665 
		41.013,107.535 52.835,96.639 	"/>
	<polygon fill-rule="evenodd" clip-rule="evenodd" fill="#FFD300" points="62.043,68.959 62.043,72.078 52.023,81.335 
		42.367,74.226 54.058,63.261 	"/>
	<polygon fill-rule="evenodd" clip-rule="evenodd" fill="#FFD300" points="61.966,34.81 61.966,39.541 53.199,47.724 43.368,40.545 
		54.921,29.696 	"/>
	<polygon fill-rule="evenodd" clip-rule="evenodd" fill="#FFD300" points="50.18,1.874 62.043,1.874 62.043,7.055 54.092,14.26 
		44.374,7.341 	"/>
	<polygon fill-rule="evenodd" clip-rule="evenodd" fill="#FFD300" points="2.746,12.58 13.272,19.684 25.184,8.714 14.674,1.643 	
		"/>
	<path fill-rule="evenodd" clip-rule="evenodd" d="M44.121,136.001l1.661,0.297l6.279-5.73l9.927,6.992l-0.002-1.855l-8.789-6.184
		l7.53-6.931l1.261,0.936l-0.002-4.124L44.121,136.001z M21.04,124.544l40.946-37.7V88.8l-7.833,7.252l7.833,5.562v1.823
		l-8.977-6.334l-11.283,10.355l9.644,6.745l10.616-9.776v1.898l-28.11,25.601c-0.415-0.175-0.772-0.372-1.174-0.55l8.835-8.166
		l-9.636-6.735l-9.738,9.007C21.731,125.141,21.458,124.903,21.04,124.544 M61.986,54.661L61.986,54.661L5.909,105.45
		c0.013,0.667,0.242,1.227,0.577,1.633l5.253-4.705l9.594,6.707l-8.337,7.535c0.259,0.44,0.556,0.815,0.859,1.186l48.133-44.052
		v-1.938l-9.713,8.979l-9.503-6.647l11.46-10.426l7.754,5.498l0.002-1.866l-6.608-4.676l6.606-5.947V54.661z M2.859,95.233
		l59.128-53.956v-1.924l-8.615,7.983l-9.601-6.714l11.4-10.388l6.814,4.823v-1.825l-5.699-4.013l5.701-5.341v-1.938L2.216,76.612
		l-0.001,1.803l10.472-9.467l9.682,6.76l-11.279,10.32l-8.875-6.175v1.896l7.695,5.358l-7.307,6.604
		C2.577,94.312,2.646,94.834,2.859,95.233 M2.216,59.763l1.048,0.693l7.468-6.822l-8.516-5.911v-1.775l9.692,6.611l11.409-10.422
		l-9.478-6.617L2.216,45.941v-1.7L48.458,2.087h2.058l-5.584,5.099l9.411,6.609l7.645-7.048v1.889L2.216,63.197V59.763z
		 M14.841,2.087h2.464l8.232,5.699l6.217-5.699h2.133L2.216,30.854v-1.892l0.985-0.851l-0.985-0.665v-1.863l2.174,1.438l7.464-6.794
		l-9.638-6.723v-1.911l10.5-9.509L14.841,2.087L3.458,12.426l9.603,6.717L24.433,8.792L14.841,2.087z M24.488,41.069l-9.469-6.623
		l7.469-6.806l9.465,6.61L24.488,41.069z M33.127,33.177l-9.457-6.615l11.376-10.366l9.452,6.593L33.127,33.177z M53.216,14.825
		l-9.399-6.622l-7.663,6.983l9.454,6.59L53.216,14.825z M32.174,66.736l-9.65-6.75l11.433-10.419l9.631,6.725L32.174,66.736z
		 M44.74,55.236l-9.62-6.729l7.481-6.818l9.61,6.71L44.74,55.236z M23.538,74.638l-9.671-6.765l7.486-6.821l9.661,6.745
		L23.538,74.638z M31.181,100.081l11.299-10.33l-9.539-6.662L21.617,93.392L31.181,100.081z M43.634,88.694l7.493-6.85l-9.513-6.644
		l-7.507,6.829L43.634,88.694z M42.68,122.163l-9.634-6.739l7.527-6.907l9.65,6.738L42.68,122.163z M22.482,108.036l7.536-6.891
		l-9.575-6.686l-7.549,6.867L22.482,108.036z"/>
	<path fill-rule="evenodd" clip-rule="evenodd" fill="#FFD300" d="M111.417,92.813c1.377,0.16,2.279,0.807,2.691,2.309
		c0.234,2.02-0.555,3.479-1.237,4.505c-0.146-1.405-0.608-2.812-1.212-4.218c-0.103,1.355-0.184,2.143-1.375,2.186
		c-1.514-0.257-1.281-1.074-2.23-1.125c-1.463-0.078-1.942,1.898-7.742-0.17c2.344,2.109,6.511,1.736,8.124,1.502
		c3.37,0.02,3.266,4.387,1.553,7.008c-0.293-1.537-0.859-3.075-1.612-4.614c-0.184,1.427-0.689,4.018-1.863,4.001
		c-1.135,0.021-1.169-2.982-3.02-3.551c-1.658-0.494-3.529-1.254-7.412-0.307s-4.514,4.406-5.847,4.396
		c-1.58-0.132-2.326-2.379-2.787-3.209c-0.462,1.424-0.752,2.848-0.87,4.27c-0.539-0.831-0.746-2.231-0.582-3.799
		c0.08-0.762,0.361-1.667,1.396-2.186c1.663-0.836,5.884,1.113,6.245-1.338c0.284-1.927-4.15-3.081-6.032-2.965
		c-1.442,0.092-2.718,0.302-3.538,0.656c-0.129-0.888-0.24-2.184-0.57-3.293c3.498-0.426,4.754,0.535,5.905,0.649
		c-1.011-1.061-1.914-1.51-2.948-1.804c1.48-0.525,2.005-0.627,3.059-0.98c0.767,1.023,3.176,3.03,7.023,3.104
		c2.707,0.054,5.201-2.106,7.311-3.638c2.039-1.484,3.969-0.918,5.082,0.131c0.053,0.049,0.854,1.023,1.201,1.668l-1.222,0.069
		c-0.626-0.839-1.206-1.187-1.991-1.687l1.104,1.893c-0.657,0.229-1.082,0.363-3.525,1.762c-1.635,0.824-2.963,0.63-4.002,0.396
		c0.572,0.648,2.563,1.002,4.727-0.037C108.959,92.349,110.017,92.651,111.417,92.813"/>
	<path fill-rule="evenodd" clip-rule="evenodd" fill="#FFD300" d="M94.172,14.923c-1.824-2.388-4.176-1.051-6.934-0.288
		c-1.729,0.579-4.148,0.524-5.974,1.485c-1.181,0.621-2.034,0.348-2.17,0.941c-0.159,0.693,1.653,0.245,3.389,0.243
		c1.091,0,5.351,1.025,8.361,1.289c-3.012,1.042-6.051-0.254-8.524-0.506c-3.019-0.31-3.848,0.202-4-0.729
		c-0.207-1.268,1.957-1.079,2.545-1.845c0.442-0.575,0.354-1.254,1.147-1.633c3.243-1.543,2.959-3.289,3.133-4.274
		C90.147,9.321,94.516,10.161,94.172,14.923"/>
	<path fill-rule="evenodd" clip-rule="evenodd" d="M85.747,13.019c-0.061-0.56,0.697-2.174,1.689-1.307
		C88.034,12.236,86.297,12.798,85.747,13.019"/>
	<path fill-rule="evenodd" clip-rule="evenodd" fill="#E73B22" d="M81.513,16.696c2.374-0.529,4.696-0.347,8.245,0.541
		c1.62,0.406,2.844,0.632,5.147,0.256c-1.839,1.191-4.621,0.523-6.802,0.16C85.922,17.291,84.856,16.933,81.513,16.696"/>
	<path fill-rule="evenodd" clip-rule="evenodd" fill="#FFFFFF" d="M82.154,12.472c-0.546-0.228-1.427,0.029-2.356,0.515
		c-1.838,0.963-3.026-0.188-3.242-1.272l1.163,0.004c-0.028,0.392,0.112,0.865,0.747,1.009c1.24-0.035,1.301-1.009,0.954-1.435
		C81.836,10.58,82.257,12.505,82.154,12.472"/>
	<path fill-rule="evenodd" clip-rule="evenodd" d="M0,0h126.19v82.915c-0.024,40.135-34.844,57.322-63.09,57.297
		C35.03,140.237,0.045,123.05,0.022,82.915L0,0z M61.969,137.923V2.296H2.278l0.021,80.209
		C2.32,120.787,35.114,137.489,61.969,137.923 M64.223,2.296v135.628c27.019-0.425,59.666-17.126,59.689-55.419V2.296H64.223z"/>
	<polygon fill-rule="evenodd" clip-rule="evenodd" fill="#FFD500" points="2.19,27.35 3.282,28.115 2.19,29.068 	"/>
	<polygon fill="none" stroke="#1D1D1B" stroke-width="0.216" stroke-miterlimit="22.926" points="2.19,27.35 3.282,28.115 
		2.19,29.068 	"/>
	<polygon fill-rule="evenodd" clip-rule="evenodd" fill="#FFD300" points="34.575,11.5 33.521,9.66 31.58,9.659 32.55,7.964 
		31.58,6.267 33.521,6.267 34.574,4.427 35.628,6.267 37.569,6.269 36.598,7.964 37.569,9.66 35.627,9.66 	"/>
	<polygon fill-rule="evenodd" clip-rule="evenodd" fill="#FFD300" points="13.543,30.814 12.489,28.975 10.547,28.974 
		11.518,27.278 10.547,25.582 12.489,25.582 13.542,23.743 14.595,25.582 16.537,25.583 15.566,27.277 16.537,28.975 14.595,28.975 
			"/>
	<polygon fill-rule="evenodd" clip-rule="evenodd" fill="#FFD300" points="33.428,44.877 32.374,43.038 30.433,43.038 
		31.403,41.342 30.433,39.646 32.374,39.646 33.427,37.807 34.48,39.646 36.422,39.646 35.451,41.342 36.422,43.038 34.479,43.038 	
		"/>
	<polygon fill-rule="evenodd" clip-rule="evenodd" fill="#FFD300" points="32.621,78.39 31.567,76.551 29.625,76.55 30.596,74.854 
		29.625,73.157 31.567,73.157 32.62,71.319 33.673,73.157 35.615,73.157 34.645,74.854 35.615,76.551 33.673,76.551 	"/>
	<polygon fill-rule="evenodd" clip-rule="evenodd" fill="#FFD300" points="31.381,111.847 30.328,110.007 28.386,110.007 
		29.356,108.312 28.386,106.614 30.328,106.614 31.38,104.774 32.434,106.614 34.375,106.615 33.405,108.311 34.375,110.007 
		32.434,110.007 	"/>
	<polygon fill-rule="evenodd" clip-rule="evenodd" fill="#FFD300" points="11.375,97.778 10.321,95.938 8.379,95.938 9.351,94.243 
		8.379,92.546 10.322,92.546 11.374,90.706 12.428,92.546 14.37,92.547 13.398,94.241 14.37,95.938 12.428,95.938 	"/>
	<polygon fill-rule="evenodd" clip-rule="evenodd" fill="#FFD300" points="54.612,25.602 53.559,23.762 51.617,23.762 
		52.588,22.067 51.617,20.37 53.559,20.37 54.612,18.53 55.665,20.37 57.607,20.37 56.636,22.066 57.607,23.762 55.665,23.762 	"/>
	<polygon fill-rule="evenodd" clip-rule="evenodd" fill="#FFD300" points="12.326,64.335 11.271,62.495 9.331,62.495 10.302,60.8 
		9.331,59.104 11.272,59.104 12.325,57.265 13.379,59.104 15.32,59.104 14.35,60.799 15.32,62.495 13.379,62.495 	"/>
	<polygon fill-rule="evenodd" clip-rule="evenodd" fill="#FFD300" points="53.713,59.134 52.66,57.294 50.718,57.294 51.689,55.6 
		50.718,53.902 52.66,53.902 53.712,52.063 54.767,53.902 56.708,53.902 55.737,55.598 56.708,57.294 54.767,57.294 	"/>
	<polygon fill-rule="evenodd" clip-rule="evenodd" fill="#FFD300" points="52.706,92.44 51.651,90.602 49.71,90.601 50.681,88.906 
		49.71,87.208 51.652,87.208 52.705,85.369 53.759,87.208 55.7,87.21 54.729,88.905 55.7,90.602 53.758,90.602 	"/>
	<polygon fill-rule="evenodd" clip-rule="evenodd" fill="#FFD300" points="51.548,126.026 50.494,124.188 48.553,124.187 
		49.523,122.491 48.553,120.795 50.495,120.795 51.546,118.955 52.6,120.795 54.542,120.795 53.571,122.49 54.542,124.188 
		52.6,124.188 	"/>
</g>
</svg>
