<?xml version="1.0" encoding="UTF-8" standalone="no"?>
  <svg
    viewBox="0 0 381.82217 111.78744"
    fill="currentColor"
    width="381.822"
    height="111.787"
  >
    <path d="M46.686 106.787c21.897-41.521 31.043-68.837 67.227-78.786l-.684-1.08c-.11-.135-.48-.675-.591-.809-38.354 3.205-57.476 4.862-97.296.23-.352.562-.69 1.133-1.019 1.71l.133.028c13.296 3.04 36.356 5.082 43.397 17.135 9.509 14.51-9.439 44.146-16.389 58.968 1.574.827 3.579 1.901 5.222 2.604" />
    <path d="M35.905 100.478c8.613-14.25 25.498-41.742 15.774-54.986C45.35 58.584 28.643 61.637 5 62.187c3.641 13.712 19.063 29.906 30.905 38.291M56.25 8.887a7.55 7.55 0 1 1 .74 15.081 7.55 7.55 0 0 1-.74-15.081M81.425 5.012a9.45 9.45 0 0 1 9.901 8.975c.257 5.213-3.762 9.646-8.975 9.902-5.212.255-9.646-3.763-9.902-8.976a9.45 9.45 0 0 1 8.976-9.901M106.05 49.884h10.564V78.04h8.998V49.884h10.666v-7.28h-30.229zm35.43 28.156h8.999v-8.695l4.7-5.207 9.353 13.902h10.767l-14.002-20.726 13.142-14.658h-10.413L150.48 57.972V42.656h-8.998zm48.525-17.743c0 10.363 8.189 18.147 19.107 18.147 10.97 0 19.158-7.835 19.158-18.147 0-10.261-8.188-17.945-19.158-17.945-10.918 0-19.107 7.633-19.107 17.945zm9.2.05c0-5.964 4.55-10.463 10.009-10.463 5.46 0 9.807 4.499 9.807 10.463 0 5.965-4.348 10.565-9.807 10.565-5.41 0-10.01-4.6-10.01-10.565zm35.179 17.693h24.011v-7.532h-15.013V42.656h-8.998zm25.878-35.384 13.093 24.213v11.17h8.947V66.617l12.839-23.96h-8.997l-8.342 15.417-8.542-15.417zm39.526 35.384h8.038v-23l8.491 19.462h5.864l8.492-19.462.051 23h7.937V42.605h-9.807l-9.604 21.078-9.604-21.078h-9.858zm47.361 0h8.998V68.08h6.42c9.048 0 14.255-4.801 14.255-13.092 0-7.886-5.207-12.333-14.255-12.333H347.15zm8.998-17.035V49.732h5.966c3.942 0 6.217 1.87 6.217 5.56 0 3.74-2.275 5.713-6.217 5.713z" />
  </svg>
