<?xml version="1.0" encoding="UTF-8" standalone="no"?>
<!DOCTYPE svg PUBLIC "-//W3C//DTD SVG 1.1//EN"
 "http://www.w3.org/Graphics/SVG/1.1/DTD/svg11.dtd">
<!-- Generated by graphviz version 2.40.1 (20161225.0304)
 -->
<!-- Title: app_private.meta_fks Pages: 1 -->
<svg width="422pt" height="345pt"
 viewBox="0.00 0.00 422.00 345.00" xmlns="http://www.w3.org/2000/svg" xmlns:xlink="http://www.w3.org/1999/xlink">
<g id="graph0" class="graph" transform="scale(1 1) rotate(0) translate(4 341)">
<title>app_private.meta_fks</title>
<polygon fill="#ffffff" stroke="transparent" points="-4,4 -4,-341 418,-341 418,4 -4,4"/>
<!-- app_private.meta_fks -->
<g id="node1" class="node">
<title>app_private.meta_fks</title>
<polygon fill="#efefef" stroke="transparent" points="46,-255.5 46,-290.5 368,-290.5 368,-255.5 46,-255.5"/>
<polygon fill="none" stroke="#000000" points="46,-255.5 46,-290.5 368,-290.5 368,-255.5 46,-255.5"/>
<text text-anchor="start" x="82.0931" y="-268.3" font-family="Arial Bold" font-size="18.00" fill="#000000">app_private.meta_fks</text>
<text text-anchor="start" x="254.1425" y="-268.3" font-family="Arial" font-size="14.00" fill="#000000">    </text>
<text text-anchor="start" x="288.3473" y="-268.3" font-family="Arial" font-size="14.00" fill="#666666">[VIEW]</text>
<polygon fill="none" stroke="#000000" points="46,-225.5 46,-255.5 368,-255.5 368,-225.5 46,-225.5"/>
<text text-anchor="start" x="53" y="-236.9" font-family="Arial" font-size="14.00" fill="#000000">table_schema </text>
<text text-anchor="start" x="144.0266" y="-236.9" font-family="Arial" font-size="14.00" fill="#666666">[text]</text>
<polygon fill="none" stroke="#000000" points="46,-195.5 46,-225.5 368,-225.5 368,-195.5 46,-195.5"/>
<text text-anchor="start" x="53" y="-206.9" font-family="Arial" font-size="14.00" fill="#000000">table_name </text>
<text text-anchor="start" x="130.0266" y="-206.9" font-family="Arial" font-size="14.00" fill="#666666">[text]</text>
<polygon fill="none" stroke="#000000" points="46,-165.5 46,-195.5 368,-195.5 368,-165.5 46,-165.5"/>
<text text-anchor="start" x="52.9741" y="-176.9" font-family="Arial" font-size="14.00" fill="#000000">column_name </text>
<text text-anchor="start" x="144.7707" y="-176.9" font-family="Arial" font-size="14.00" fill="#666666">[information_schema.sql_identifier]</text>
<polygon fill="none" stroke="#000000" points="46,-135.5 46,-165.5 368,-165.5 368,-135.5 46,-135.5"/>
<text text-anchor="start" x="53" y="-146.9" font-family="Arial" font-size="14.00" fill="#000000">constraint_name </text>
<text text-anchor="start" x="160.3604" y="-146.9" font-family="Arial" font-size="14.00" fill="#666666">[name]</text>
<polygon fill="none" stroke="#000000" points="46,-105.5 46,-135.5 368,-135.5 368,-105.5 46,-105.5"/>
<text text-anchor="start" x="53" y="-116.9" font-family="Arial" font-size="14.00" fill="#000000">confupdtype </text>
<text text-anchor="start" x="133.15" y="-116.9" font-family="Arial" font-size="14.00" fill="#666666">[&quot;char&quot;]</text>
<polygon fill="none" stroke="#000000" points="46,-75.5 46,-105.5 368,-105.5 368,-75.5 46,-75.5"/>
<text text-anchor="start" x="53" y="-86.9" font-family="Arial" font-size="14.00" fill="#000000">confdeltype </text>
<text text-anchor="start" x="128.474" y="-86.9" font-family="Arial" font-size="14.00" fill="#666666">[&quot;char&quot;]</text>
<polygon fill="none" stroke="#000000" points="46,-45.5 46,-75.5 368,-75.5 368,-45.5 46,-45.5"/>
<text text-anchor="start" x="53" y="-56.9" font-family="Arial" font-size="14.00" fill="#000000">pg_get_constraintdef </text>
<text text-anchor="start" x="187.6114" y="-56.9" font-family="Arial" font-size="14.00" fill="#666666">[text]</text>
<polygon fill="none" stroke="#000000" stroke-width="3" points="44.5,-44.5 44.5,-292.5 369.5,-292.5 369.5,-44.5 44.5,-44.5"/>
</g>
</g>
</svg>
