<?xml version="1.0" encoding="UTF-8" standalone="no"?>
<!DOCTYPE svg PUBLIC "-//W3C//DTD SVG 1.1//EN"
 "http://www.w3.org/Graphics/SVG/1.1/DTD/svg11.dtd">
<!-- Generated by graphviz version 2.40.1 (20161225.0304)
 -->
<!-- Title: app_private.crm_activity Pages: 1 -->
<svg width="837pt" height="622pt"
 viewBox="0.00 0.00 836.50 622.00" xmlns="http://www.w3.org/2000/svg" xmlns:xlink="http://www.w3.org/1999/xlink">
<g id="graph0" class="graph" transform="scale(1 1) rotate(0) translate(4 618)">
<title>app_private.crm_activity</title>
<polygon fill="#ffffff" stroke="transparent" points="-4,4 -4,-618 832.5,-618 832.5,4 -4,4"/>
<!-- app_private.crm_activity -->
<g id="node1" class="node">
<title>app_private.crm_activity</title>
<polygon fill="#efefef" stroke="transparent" points="444,-532.5 444,-567.5 779,-567.5 779,-532.5 444,-532.5"/>
<polygon fill="none" stroke="#000000" points="444,-532.5 444,-567.5 779,-567.5 779,-532.5 444,-532.5"/>
<text text-anchor="start" x="450.7041" y="-545.3" font-family="Arial Bold" font-size="18.00" fill="#000000">app_private.crm_activity</text>
<text text-anchor="start" x="644.7279" y="-545.3" font-family="Arial" font-size="14.00" fill="#000000">    </text>
<text text-anchor="start" x="678.9327" y="-545.3" font-family="Arial" font-size="14.00" fill="#666666">[BASE TABLE]</text>
<polygon fill="none" stroke="#000000" points="444,-502.5 444,-532.5 779,-532.5 779,-502.5 444,-502.5"/>
<text text-anchor="start" x="451" y="-513.9" font-family="Arial" font-size="14.00" fill="#000000">id </text>
<text text-anchor="start" x="465.7798" y="-513.9" font-family="Arial" font-size="14.00" fill="#666666">[integer]</text>
<polygon fill="none" stroke="#000000" points="444,-472.5 444,-502.5 779,-502.5 779,-472.5 444,-472.5"/>
<text text-anchor="start" x="451" y="-483.9" font-family="Arial" font-size="14.00" fill="#000000">prospect </text>
<text text-anchor="start" x="508.5722" y="-483.9" font-family="Arial" font-size="14.00" fill="#666666">[integer]</text>
<polygon fill="none" stroke="#000000" points="444,-442.5 444,-472.5 779,-472.5 779,-442.5 444,-442.5"/>
<text text-anchor="start" x="451" y="-453.9" font-family="Arial" font-size="14.00" fill="#000000">origin </text>
<text text-anchor="start" x="489.1122" y="-453.9" font-family="Arial" font-size="14.00" fill="#666666">[text]</text>
<polygon fill="none" stroke="#000000" points="444,-412.5 444,-442.5 779,-442.5 779,-412.5 444,-412.5"/>
<text text-anchor="start" x="451" y="-423.9" font-family="Arial" font-size="14.00" fill="#000000">note </text>
<text text-anchor="start" x="482.129" y="-423.9" font-family="Arial" font-size="14.00" fill="#666666">[text]</text>
<polygon fill="none" stroke="#000000" points="444,-382.5 444,-412.5 779,-412.5 779,-382.5 444,-382.5"/>
<text text-anchor="start" x="451" y="-393.9" font-family="Arial" font-size="14.00" fill="#000000">created_at </text>
<text text-anchor="start" x="521.028" y="-393.9" font-family="Arial" font-size="14.00" fill="#666666">[timestamp with time zone]</text>
<polygon fill="none" stroke="#000000" points="444,-352.5 444,-382.5 779,-382.5 779,-352.5 444,-352.5"/>
<text text-anchor="start" x="451" y="-363.9" font-family="Arial" font-size="14.00" fill="#000000">updated_at </text>
<text text-anchor="start" x="524.9326" y="-363.9" font-family="Arial" font-size="14.00" fill="#666666">[timestamp with time zone]</text>
<polygon fill="none" stroke="#000000" stroke-width="3" points="442,-351.5 442,-569.5 780,-569.5 780,-351.5 442,-351.5"/>
</g>
<!-- app_private.crm_prospect -->
<g id="node2" class="node">
<title>app_private.crm_prospect</title>
<polygon fill="#efefef" stroke="transparent" points="437,-192.5 437,-227.5 786,-227.5 786,-192.5 437,-192.5"/>
<polygon fill="none" stroke="#000000" points="437,-192.5 437,-227.5 786,-227.5 786,-192.5 437,-192.5"/>
<text text-anchor="start" x="443.694" y="-205.3" font-family="Arial Bold" font-size="18.00" fill="#000000">app_private.crm_prospect</text>
<text text-anchor="start" x="651.738" y="-205.3" font-family="Arial" font-size="14.00" fill="#000000">    </text>
<text text-anchor="start" x="685.9428" y="-205.3" font-family="Arial" font-size="14.00" fill="#666666">[BASE TABLE]</text>
<polygon fill="none" stroke="#000000" points="437,-162.5 437,-192.5 786,-192.5 786,-162.5 437,-162.5"/>
<text text-anchor="start" x="444" y="-173.9" font-family="Arial" font-size="14.00" fill="#000000">id    </text>
<text text-anchor="start" x="489.094" y="-173.9" font-family="Arial" font-size="14.00" fill="#666666">[integer]</text>
<polygon fill="none" stroke="#000000" points="437,-132.5 437,-162.5 786,-162.5 786,-132.5 437,-132.5"/>
<text text-anchor="start" x="444" y="-143.9" font-family="Arial" font-size="14.00" fill="#000000">cohort    </text>
<text text-anchor="start" x="517.1038" y="-143.9" font-family="Arial" font-size="14.00" fill="#666666">[app_private.crm_cohort]</text>
<polygon fill="none" stroke="#000000" points="437,-102.5 437,-132.5 786,-132.5 786,-102.5 437,-102.5"/>
<text text-anchor="start" x="444" y="-113.9" font-family="Arial" font-size="14.00" fill="#000000">data    </text>
<text text-anchor="start" x="505.4432" y="-113.9" font-family="Arial" font-size="14.00" fill="#666666">[prospect_data]</text>
<polygon fill="none" stroke="#000000" points="437,-72.5 437,-102.5 786,-102.5 786,-72.5 437,-72.5"/>
<text text-anchor="start" x="444" y="-83.9" font-family="Arial" font-size="14.00" fill="#000000">created_at    </text>
<text text-anchor="start" x="544.3422" y="-83.9" font-family="Arial" font-size="14.00" fill="#666666">[timestamp with time zone]</text>
<polygon fill="none" stroke="#000000" points="437,-42.5 437,-72.5 786,-72.5 786,-42.5 437,-42.5"/>
<text text-anchor="start" x="444" y="-53.9" font-family="Arial" font-size="14.00" fill="#000000">updated_at    </text>
<text text-anchor="start" x="548.2468" y="-53.9" font-family="Arial" font-size="14.00" fill="#666666">[timestamp with time zone]</text>
</g>
<!-- app_private.crm_activity&#45;&gt;app_private.crm_prospect -->
<g id="edge1" class="edge">
<title>app_private.crm_activity:prospect&#45;&gt;app_private.crm_prospect:id</title>
<path fill="none" stroke="#000000" d="M433.9833,-485.183C374.5784,-456.815 371.5927,-177.5 437,-177.5"/>
<polygon fill="#000000" stroke="#000000" points="434.2573,-485.2463 442.9858,-491.8842 439.1286,-486.3731 444,-487.5 444,-487.5 444,-487.5 439.1286,-486.3731 445.0142,-483.1158 434.2573,-485.2463 434.2573,-485.2463"/>
<text text-anchor="start" x="6.707" y="-497.5" font-family="Arial" font-size="10.00" fill="#000000">FOREIGN KEY (prospect) REFERENCES app_private.crm_prospect(id) ON DELETE CASCADE</text>
</g>
</g>
</svg>
