<?xml version="1.0" encoding="UTF-8" standalone="no"?>
<!DOCTYPE svg PUBLIC "-//W3C//DTD SVG 1.1//EN"
 "http://www.w3.org/Graphics/SVG/1.1/DTD/svg11.dtd">
<!-- Generated by graphviz version 2.40.1 (20161225.0304)
 -->
<!-- Title: graphile_worker._private_job_queues Pages: 1 -->
<svg width="541pt" height="285pt"
 viewBox="0.00 0.00 541.00 285.00" xmlns="http://www.w3.org/2000/svg" xmlns:xlink="http://www.w3.org/1999/xlink">
<g id="graph0" class="graph" transform="scale(1 1) rotate(0) translate(4 281)">
<title>graphile_worker._private_job_queues</title>
<polygon fill="#ffffff" stroke="transparent" points="-4,4 -4,-281 537,-281 537,4 -4,4"/>
<!-- graphile_worker._private_job_queues -->
<g id="node1" class="node">
<title>graphile_worker._private_job_queues</title>
<polygon fill="#efefef" stroke="transparent" points="46.5,-195.5 46.5,-230.5 487.5,-230.5 487.5,-195.5 46.5,-195.5"/>
<polygon fill="none" stroke="#000000" points="46.5,-195.5 46.5,-230.5 487.5,-230.5 487.5,-195.5 46.5,-195.5"/>
<text text-anchor="start" x="53.1788" y="-208.3" font-family="Arial Bold" font-size="18.00" fill="#000000">graphile_worker._private_job_queues</text>
<text text-anchor="start" x="353.2532" y="-208.3" font-family="Arial" font-size="14.00" fill="#000000">    </text>
<text text-anchor="start" x="387.458" y="-208.3" font-family="Arial" font-size="14.00" fill="#666666">[BASE TABLE]</text>
<polygon fill="none" stroke="#000000" points="46.5,-165.5 46.5,-195.5 487.5,-195.5 487.5,-165.5 46.5,-165.5"/>
<text text-anchor="start" x="53.5" y="-176.9" font-family="Arial" font-size="14.00" fill="#000000">id </text>
<text text-anchor="start" x="68.2798" y="-176.9" font-family="Arial" font-size="14.00" fill="#666666">[integer]</text>
<polygon fill="none" stroke="#000000" points="46.5,-135.5 46.5,-165.5 487.5,-165.5 487.5,-135.5 46.5,-135.5"/>
<text text-anchor="start" x="53.5" y="-146.9" font-family="Arial" font-size="14.00" fill="#000000">queue_name </text>
<text text-anchor="start" x="139.0946" y="-146.9" font-family="Arial" font-size="14.00" fill="#666666">[text]</text>
<polygon fill="none" stroke="#000000" points="46.5,-105.5 46.5,-135.5 487.5,-135.5 487.5,-105.5 46.5,-105.5"/>
<text text-anchor="start" x="53.5" y="-116.9" font-family="Arial" font-size="14.00" fill="#000000">locked_at </text>
<text text-anchor="start" x="117.3008" y="-116.9" font-family="Arial" font-size="14.00" fill="#666666">[timestamp with time zone]</text>
<polygon fill="none" stroke="#000000" points="46.5,-75.5 46.5,-105.5 487.5,-105.5 487.5,-75.5 46.5,-75.5"/>
<text text-anchor="start" x="53.5" y="-86.9" font-family="Arial" font-size="14.00" fill="#000000">locked_by </text>
<text text-anchor="start" x="120.4102" y="-86.9" font-family="Arial" font-size="14.00" fill="#666666">[text]</text>
<polygon fill="none" stroke="#000000" points="46.5,-45.5 46.5,-75.5 487.5,-75.5 487.5,-45.5 46.5,-45.5"/>
<text text-anchor="start" x="53.5" y="-56.9" font-family="Arial" font-size="14.00" fill="#000000">is_available </text>
<text text-anchor="start" x="130.5126" y="-56.9" font-family="Arial" font-size="14.00" fill="#666666">[boolean]</text>
<polygon fill="none" stroke="#000000" stroke-width="3" points="44.5,-44.5 44.5,-232.5 488.5,-232.5 488.5,-44.5 44.5,-44.5"/>
</g>
</g>
</svg>
