<?xml version="1.0" encoding="UTF-8" standalone="no"?>
<!DOCTYPE svg PUBLIC "-//W3C//DTD SVG 1.1//EN"
 "http://www.w3.org/Graphics/SVG/1.1/DTD/svg11.dtd">
<!-- Generated by graphviz version 2.40.1 (20161225.0304)
 -->
<!-- Title: public.event_lesson_demand Pages: 1 -->
<svg width="1398pt" height="772pt"
 viewBox="0.00 0.00 1398.00 772.00" xmlns="http://www.w3.org/2000/svg" xmlns:xlink="http://www.w3.org/1999/xlink">
<g id="graph0" class="graph" transform="scale(1 1) rotate(0) translate(4 768)">
<title>public.event_lesson_demand</title>
<polygon fill="#ffffff" stroke="transparent" points="-4,4 -4,-768 1394,-768 1394,4 -4,4"/>
<!-- public.event_lesson_demand -->
<g id="node1" class="node">
<title>public.event_lesson_demand</title>
<polygon fill="#efefef" stroke="transparent" points="471,-682.5 471,-717.5 845,-717.5 845,-682.5 471,-682.5"/>
<polygon fill="none" stroke="#000000" points="471,-682.5 471,-717.5 845,-717.5 845,-682.5 471,-682.5"/>
<text text-anchor="start" x="477.6768" y="-695.3" font-family="Arial Bold" font-size="18.00" fill="#000000">public.event_lesson_demand</text>
<text text-anchor="start" x="710.7552" y="-695.3" font-family="Arial" font-size="14.00" fill="#000000">    </text>
<text text-anchor="start" x="744.96" y="-695.3" font-family="Arial" font-size="14.00" fill="#666666">[BASE TABLE]</text>
<polygon fill="none" stroke="#000000" points="471,-652.5 471,-682.5 845,-682.5 845,-652.5 471,-652.5"/>
<text text-anchor="start" x="478" y="-663.9" font-family="Arial" font-size="14.00" fill="#000000">id </text>
<text text-anchor="start" x="492.7798" y="-663.9" font-family="Arial" font-size="14.00" fill="#666666">[bigint]</text>
<polygon fill="none" stroke="#000000" points="471,-622.5 471,-652.5 845,-652.5 845,-622.5 471,-622.5"/>
<text text-anchor="start" x="478" y="-633.9" font-family="Arial" font-size="14.00" fill="#000000">tenant_id </text>
<text text-anchor="start" x="539.474" y="-633.9" font-family="Arial" font-size="14.00" fill="#666666">[bigint]</text>
<polygon fill="none" stroke="#000000" points="471,-592.5 471,-622.5 845,-622.5 845,-592.5 471,-592.5"/>
<text text-anchor="start" x="478" y="-603.9" font-family="Arial" font-size="14.00" fill="#000000">trainer_id </text>
<text text-anchor="start" x="540.2286" y="-603.9" font-family="Arial" font-size="14.00" fill="#666666">[bigint]</text>
<polygon fill="none" stroke="#000000" points="471,-562.5 471,-592.5 845,-592.5 845,-562.5 471,-562.5"/>
<text text-anchor="start" x="478" y="-573.9" font-family="Arial" font-size="14.00" fill="#000000">registration_id </text>
<text text-anchor="start" x="569.791" y="-573.9" font-family="Arial" font-size="14.00" fill="#666666">[bigint]</text>
<polygon fill="none" stroke="#000000" points="471,-532.5 471,-562.5 845,-562.5 845,-532.5 471,-532.5"/>
<text text-anchor="start" x="478" y="-543.9" font-family="Arial" font-size="14.00" fill="#000000">lesson_count </text>
<text text-anchor="start" x="564.366" y="-543.9" font-family="Arial" font-size="14.00" fill="#666666">[integer]</text>
<polygon fill="none" stroke="#000000" points="471,-502.5 471,-532.5 845,-532.5 845,-502.5 471,-502.5"/>
<text text-anchor="start" x="478" y="-513.9" font-family="Arial" font-size="14.00" fill="#000000">created_at </text>
<text text-anchor="start" x="548.028" y="-513.9" font-family="Arial" font-size="14.00" fill="#666666">[timestamp with time zone]</text>
<polygon fill="none" stroke="#000000" points="471,-472.5 471,-502.5 845,-502.5 845,-472.5 471,-472.5"/>
<text text-anchor="start" x="478" y="-483.9" font-family="Arial" font-size="14.00" fill="#000000">updated_at </text>
<text text-anchor="start" x="551.9326" y="-483.9" font-family="Arial" font-size="14.00" fill="#666666">[timestamp with time zone]</text>
<polygon fill="none" stroke="#000000" stroke-width="3" points="469.5,-471.5 469.5,-719.5 846.5,-719.5 846.5,-471.5 469.5,-471.5"/>
</g>
<!-- public.tenant -->
<g id="node2" class="node">
<title>public.tenant</title>
<polygon fill="#efefef" stroke="transparent" points="162,-297.5 162,-332.5 405,-332.5 405,-297.5 162,-297.5"/>
<polygon fill="none" stroke="#000000" points="162,-297.5 162,-332.5 405,-332.5 405,-297.5 162,-297.5"/>
<text text-anchor="start" x="168.6968" y="-310.3" font-family="Arial Bold" font-size="18.00" fill="#000000">public.tenant</text>
<text text-anchor="start" x="270.7352" y="-310.3" font-family="Arial" font-size="14.00" fill="#000000">    </text>
<text text-anchor="start" x="304.94" y="-310.3" font-family="Arial" font-size="14.00" fill="#666666">[BASE TABLE]</text>
<polygon fill="none" stroke="#000000" points="162,-267.5 162,-297.5 405,-297.5 405,-267.5 162,-267.5"/>
<text text-anchor="start" x="169" y="-278.9" font-family="Arial" font-size="14.00" fill="#000000">id    </text>
<text text-anchor="start" x="214.094" y="-278.9" font-family="Arial" font-size="14.00" fill="#666666">[bigint]</text>
<polygon fill="none" stroke="#000000" points="162,-237.5 162,-267.5 405,-267.5 405,-237.5 162,-237.5"/>
<text text-anchor="start" x="169" y="-248.9" font-family="Arial" font-size="14.00" fill="#000000">name    </text>
<text text-anchor="start" x="238.2132" y="-248.9" font-family="Arial" font-size="14.00" fill="#666666">[text]</text>
<polygon fill="none" stroke="#000000" points="162,-207.5 162,-237.5 405,-237.5 405,-207.5 162,-207.5"/>
<text text-anchor="start" x="169" y="-218.9" font-family="Arial" font-size="14.00" fill="#000000">origins    </text>
<text text-anchor="start" x="244.4264" y="-218.9" font-family="Arial" font-size="14.00" fill="#666666">[text[]]</text>
<polygon fill="none" stroke="#000000" points="162,-177.5 162,-207.5 405,-207.5 405,-177.5 162,-177.5"/>
<text text-anchor="start" x="169" y="-188.9" font-family="Arial" font-size="14.00" fill="#000000">cz_ico    </text>
<text text-anchor="start" x="242.8766" y="-188.9" font-family="Arial" font-size="14.00" fill="#666666">[text]</text>
<polygon fill="none" stroke="#000000" points="162,-147.5 162,-177.5 405,-177.5 405,-147.5 162,-147.5"/>
<text text-anchor="start" x="169" y="-158.9" font-family="Arial" font-size="14.00" fill="#000000">cz_dic    </text>
<text text-anchor="start" x="242.8766" y="-158.9" font-family="Arial" font-size="14.00" fill="#666666">[text]</text>
<polygon fill="none" stroke="#000000" points="162,-117.5 162,-147.5 405,-147.5 405,-117.5 162,-117.5"/>
<text text-anchor="start" x="169" y="-128.9" font-family="Arial" font-size="14.00" fill="#000000">address    </text>
<text text-anchor="start" x="252.9958" y="-128.9" font-family="Arial" font-size="14.00" fill="#666666">[address_domain]</text>
<polygon fill="none" stroke="#000000" points="162,-87.5 162,-117.5 405,-117.5 405,-87.5 162,-87.5"/>
<text text-anchor="start" x="169" y="-98.9" font-family="Arial" font-size="14.00" fill="#000000">description    </text>
<text text-anchor="start" x="270.8822" y="-98.9" font-family="Arial" font-size="14.00" fill="#666666">[text]</text>
<polygon fill="none" stroke="#000000" points="162,-57.5 162,-87.5 405,-87.5 405,-57.5 162,-57.5"/>
<text text-anchor="start" x="169" y="-68.9" font-family="Arial" font-size="14.00" fill="#000000">bank_account    </text>
<text text-anchor="start" x="290.3562" y="-68.9" font-family="Arial" font-size="14.00" fill="#666666">[text]</text>
</g>
<!-- public.event_lesson_demand&#45;&gt;public.tenant -->
<g id="edge1" class="edge">
<title>public.event_lesson_demand:tenant_id&#45;&gt;public.tenant:id</title>
<path fill="none" stroke="#000000" d="M461.2124,-635.4152C398.8953,-606.3218 481.6361,-282.5 405,-282.5"/>
<polygon fill="#000000" stroke="#000000" points="461.2194,-635.4166 470.0625,-641.9013 466.1097,-636.4583 471,-637.5 471,-637.5 471,-637.5 466.1097,-636.4583 471.9375,-633.0987 461.2194,-635.4166 461.2194,-635.4166"/>
<text text-anchor="start" x="7.0955" y="-647.5" font-family="Arial" font-size="10.00" fill="#000000">FOREIGN KEY (tenant_id) REFERENCES tenant(id) ON UPDATE CASCADE ON DELETE CASCADE</text>
</g>
<!-- public.event_trainer -->
<g id="node3" class="node">
<title>public.event_trainer</title>
<polygon fill="#efefef" stroke="transparent" points="509,-297.5 509,-332.5 807,-332.5 807,-297.5 509,-297.5"/>
<polygon fill="none" stroke="#000000" points="509,-297.5 509,-332.5 807,-332.5 807,-297.5 509,-297.5"/>
<text text-anchor="start" x="515.6982" y="-310.3" font-family="Arial Bold" font-size="18.00" fill="#000000">public.event_trainer</text>
<text text-anchor="start" x="672.7338" y="-310.3" font-family="Arial" font-size="14.00" fill="#000000">    </text>
<text text-anchor="start" x="706.9386" y="-310.3" font-family="Arial" font-size="14.00" fill="#666666">[BASE TABLE]</text>
<polygon fill="none" stroke="#000000" points="509,-267.5 509,-297.5 807,-297.5 807,-267.5 509,-267.5"/>
<text text-anchor="start" x="516" y="-278.9" font-family="Arial" font-size="14.00" fill="#000000">id    </text>
<text text-anchor="start" x="561.094" y="-278.9" font-family="Arial" font-size="14.00" fill="#666666">[bigint]</text>
<polygon fill="none" stroke="#000000" points="509,-237.5 509,-267.5 807,-267.5 807,-237.5 509,-237.5"/>
<text text-anchor="start" x="516" y="-248.9" font-family="Arial" font-size="14.00" fill="#000000">tenant_id    </text>
<text text-anchor="start" x="607.7882" y="-248.9" font-family="Arial" font-size="14.00" fill="#666666">[bigint]</text>
<polygon fill="none" stroke="#000000" points="509,-207.5 509,-237.5 807,-237.5 807,-207.5 509,-207.5"/>
<text text-anchor="start" x="516" y="-218.9" font-family="Arial" font-size="14.00" fill="#000000">event_id    </text>
<text text-anchor="start" x="603.115" y="-218.9" font-family="Arial" font-size="14.00" fill="#666666">[bigint]</text>
<polygon fill="none" stroke="#000000" points="509,-177.5 509,-207.5 807,-207.5 807,-177.5 509,-177.5"/>
<text text-anchor="start" x="516" y="-188.9" font-family="Arial" font-size="14.00" fill="#000000">person_id    </text>
<text text-anchor="start" x="611.6676" y="-188.9" font-family="Arial" font-size="14.00" fill="#666666">[bigint]</text>
<polygon fill="none" stroke="#000000" points="509,-147.5 509,-177.5 807,-177.5 807,-147.5 509,-147.5"/>
<text text-anchor="start" x="516" y="-158.9" font-family="Arial" font-size="14.00" fill="#000000">created_at    </text>
<text text-anchor="start" x="616.3422" y="-158.9" font-family="Arial" font-size="14.00" fill="#666666">[timestamp with time zone]</text>
<polygon fill="none" stroke="#000000" points="509,-117.5 509,-147.5 807,-147.5 807,-117.5 509,-117.5"/>
<text text-anchor="start" x="516" y="-128.9" font-family="Arial" font-size="14.00" fill="#000000">updated_at    </text>
<text text-anchor="start" x="620.2468" y="-128.9" font-family="Arial" font-size="14.00" fill="#666666">[timestamp with time zone]</text>
<polygon fill="none" stroke="#000000" points="509,-87.5 509,-117.5 807,-117.5 807,-87.5 509,-87.5"/>
<text text-anchor="start" x="516" y="-98.9" font-family="Arial" font-size="14.00" fill="#000000">lessons_offered    </text>
<text text-anchor="start" x="649.014" y="-98.9" font-family="Arial" font-size="14.00" fill="#666666">[integer]</text>
<polygon fill="none" stroke="#000000" points="509,-57.5 509,-87.5 807,-87.5 807,-57.5 509,-57.5"/>
<text text-anchor="start" x="516" y="-68.9" font-family="Arial" font-size="14.00" fill="#000000">lesson_price    </text>
<text text-anchor="start" x="628.7742" y="-68.9" font-family="Arial" font-size="14.00" fill="#666666">[price]</text>
</g>
<!-- public.event_lesson_demand&#45;&gt;public.event_trainer -->
<g id="edge2" class="edge">
<title>public.event_lesson_demand:trainer_id&#45;&gt;public.event_trainer:id</title>
<path fill="none" stroke="#000000" d="M852.6319,-601.008C874.9859,-555.2025 840.3037,-282.5 807,-282.5"/>
<polygon fill="#000000" stroke="#000000" points="852.617,-601.0207 842.0843,-604.0723 848.8085,-604.2603 845,-607.5 845,-607.5 845,-607.5 848.8085,-604.2603 847.9157,-610.9277 852.617,-601.0207 852.617,-601.0207"/>
<text text-anchor="start" x="851.549" y="-617.5" font-family="Arial" font-size="10.00" fill="#000000">FOREIGN KEY (trainer_id) REFERENCES event_trainer(id) ON UPDATE CASCADE ON DELETE CASCADE</text>
</g>
<!-- public.event_registration -->
<g id="node4" class="node">
<title>public.event_registration</title>
<polygon fill="#efefef" stroke="transparent" points="911,-312.5 911,-347.5 1247,-347.5 1247,-312.5 911,-312.5"/>
<polygon fill="none" stroke="#000000" points="911,-312.5 911,-347.5 1247,-347.5 1247,-312.5 911,-312.5"/>
<text text-anchor="start" x="917.6938" y="-325.3" font-family="Arial Bold" font-size="18.00" fill="#000000">public.event_registration</text>
<text text-anchor="start" x="1112.7382" y="-325.3" font-family="Arial" font-size="14.00" fill="#000000">    </text>
<text text-anchor="start" x="1146.943" y="-325.3" font-family="Arial" font-size="14.00" fill="#666666">[BASE TABLE]</text>
<polygon fill="none" stroke="#000000" points="911,-282.5 911,-312.5 1247,-312.5 1247,-282.5 911,-282.5"/>
<text text-anchor="start" x="918" y="-293.9" font-family="Arial" font-size="14.00" fill="#000000">id    </text>
<text text-anchor="start" x="963.094" y="-293.9" font-family="Arial" font-size="14.00" fill="#666666">[bigint]</text>
<polygon fill="none" stroke="#000000" points="911,-252.5 911,-282.5 1247,-282.5 1247,-252.5 911,-252.5"/>
<text text-anchor="start" x="918" y="-263.9" font-family="Arial" font-size="14.00" fill="#000000">tenant_id    </text>
<text text-anchor="start" x="1009.7882" y="-263.9" font-family="Arial" font-size="14.00" fill="#666666">[bigint]</text>
<polygon fill="none" stroke="#000000" points="911,-222.5 911,-252.5 1247,-252.5 1247,-222.5 911,-222.5"/>
<text text-anchor="start" x="918" y="-233.9" font-family="Arial" font-size="14.00" fill="#000000">event_id    </text>
<text text-anchor="start" x="1005.115" y="-233.9" font-family="Arial" font-size="14.00" fill="#666666">[bigint]</text>
<polygon fill="none" stroke="#000000" points="911,-192.5 911,-222.5 1247,-222.5 1247,-192.5 911,-192.5"/>
<text text-anchor="start" x="918" y="-203.9" font-family="Arial" font-size="14.00" fill="#000000">target_cohort_id    </text>
<text text-anchor="start" x="1053.3478" y="-203.9" font-family="Arial" font-size="14.00" fill="#666666">[bigint]</text>
<polygon fill="none" stroke="#000000" points="911,-162.5 911,-192.5 1247,-192.5 1247,-162.5 911,-162.5"/>
<text text-anchor="start" x="918" y="-173.9" font-family="Arial" font-size="14.00" fill="#000000">couple_id    </text>
<text text-anchor="start" x="1012.1136" y="-173.9" font-family="Arial" font-size="14.00" fill="#666666">[bigint]</text>
<polygon fill="none" stroke="#000000" points="911,-132.5 911,-162.5 1247,-162.5 1247,-132.5 911,-132.5"/>
<text text-anchor="start" x="918" y="-143.9" font-family="Arial" font-size="14.00" fill="#000000">person_id    </text>
<text text-anchor="start" x="1013.6676" y="-143.9" font-family="Arial" font-size="14.00" fill="#666666">[bigint]</text>
<polygon fill="none" stroke="#000000" points="911,-102.5 911,-132.5 1247,-132.5 1247,-102.5 911,-102.5"/>
<text text-anchor="start" x="918" y="-113.9" font-family="Arial" font-size="14.00" fill="#000000">note    </text>
<text text-anchor="start" x="979.4432" y="-113.9" font-family="Arial" font-size="14.00" fill="#666666">[text]</text>
<polygon fill="none" stroke="#000000" points="911,-72.5 911,-102.5 1247,-102.5 1247,-72.5 911,-72.5"/>
<text text-anchor="start" x="918" y="-83.9" font-family="Arial" font-size="14.00" fill="#000000">created_at    </text>
<text text-anchor="start" x="1018.3422" y="-83.9" font-family="Arial" font-size="14.00" fill="#666666">[timestamp with time zone]</text>
<polygon fill="none" stroke="#000000" points="911,-42.5 911,-72.5 1247,-72.5 1247,-42.5 911,-42.5"/>
<text text-anchor="start" x="918" y="-53.9" font-family="Arial" font-size="14.00" fill="#000000">updated_at    </text>
<text text-anchor="start" x="1022.2468" y="-53.9" font-family="Arial" font-size="14.00" fill="#666666">[timestamp with time zone]</text>
</g>
<!-- public.event_lesson_demand&#45;&gt;public.event_registration -->
<g id="edge3" class="edge">
<title>public.event_lesson_demand:registration_id&#45;&gt;public.event_registration:id</title>
<path fill="none" stroke="#000000" d="M855.113,-576.839C962.3643,-561.8652 786.766,-297.5 911,-297.5"/>
<polygon fill="#000000" stroke="#000000" points="854.9787,-576.8477 844.7065,-573.0096 849.9894,-577.1738 845,-577.5 845,-577.5 845,-577.5 849.9894,-577.1738 845.2935,-581.9904 854.9787,-576.8477 854.9787,-576.8477"/>
<text text-anchor="start" x="852.433" y="-587.5" font-family="Arial" font-size="10.00" fill="#000000">FOREIGN KEY (registration_id) REFERENCES event_registration(id) ON UPDATE CASCADE ON DELETE CASCADE</text>
</g>
</g>
</svg>
