<?xml version="1.0" encoding="UTF-8" standalone="no"?>
<!DOCTYPE svg PUBLIC "-//W3C//DTD SVG 1.1//EN"
 "http://www.w3.org/Graphics/SVG/1.1/DTD/svg11.dtd">
<!-- Generated by graphviz version 2.40.1 (20161225.0304)
 -->
<!-- Title: public.platby_category_group Pages: 1 -->
<svg width="1491pt" height="832pt"
 viewBox="0.00 0.00 1491.00 832.00" xmlns="http://www.w3.org/2000/svg" xmlns:xlink="http://www.w3.org/1999/xlink">
<g id="graph0" class="graph" transform="scale(1 1) rotate(0) translate(4 828)">
<title>public.platby_category_group</title>
<polygon fill="#ffffff" stroke="transparent" points="-4,4 -4,-828 1487,-828 1487,4 -4,4"/>
<!-- public.platby_category_group -->
<g id="node1" class="node">
<title>public.platby_category_group</title>
<polygon fill="#efefef" stroke="transparent" points="541,-742.5 541,-777.5 917,-777.5 917,-742.5 541,-742.5"/>
<polygon fill="none" stroke="#000000" points="541,-742.5 541,-777.5 917,-777.5 917,-742.5 541,-742.5"/>
<text text-anchor="start" x="547.6796" y="-755.3" font-family="Arial Bold" font-size="18.00" fill="#000000">public.platby_category_group</text>
<text text-anchor="start" x="782.7524" y="-755.3" font-family="Arial" font-size="14.00" fill="#000000">    </text>
<text text-anchor="start" x="816.9572" y="-755.3" font-family="Arial" font-size="14.00" fill="#666666">[BASE TABLE]</text>
<polygon fill="none" stroke="#000000" points="541,-712.5 541,-742.5 917,-742.5 917,-712.5 541,-712.5"/>
<text text-anchor="start" x="548" y="-723.9" font-family="Arial" font-size="14.00" fill="#000000">pcg_id </text>
<text text-anchor="start" x="593.1276" y="-723.9" font-family="Arial" font-size="14.00" fill="#666666">[bigint]</text>
<polygon fill="none" stroke="#000000" points="541,-682.5 541,-712.5 917,-712.5 917,-682.5 541,-682.5"/>
<text text-anchor="start" x="548" y="-693.9" font-family="Arial" font-size="14.00" fill="#000000">pcg_id_group </text>
<text text-anchor="start" x="636.7012" y="-693.9" font-family="Arial" font-size="14.00" fill="#666666">[bigint]</text>
<polygon fill="none" stroke="#000000" points="541,-652.5 541,-682.5 917,-682.5 917,-652.5 541,-652.5"/>
<text text-anchor="start" x="548" y="-663.9" font-family="Arial" font-size="14.00" fill="#000000">pcg_id_category </text>
<text text-anchor="start" x="654.5918" y="-663.9" font-family="Arial" font-size="14.00" fill="#666666">[bigint]</text>
<polygon fill="none" stroke="#000000" points="541,-622.5 541,-652.5 917,-652.5 917,-622.5 541,-622.5"/>
<text text-anchor="start" x="548" y="-633.9" font-family="Arial" font-size="14.00" fill="#000000">id </text>
<text text-anchor="start" x="562.7798" y="-633.9" font-family="Arial" font-size="14.00" fill="#666666">[bigint]</text>
<polygon fill="none" stroke="#000000" points="541,-592.5 541,-622.5 917,-622.5 917,-592.5 541,-592.5"/>
<text text-anchor="start" x="548" y="-603.9" font-family="Arial" font-size="14.00" fill="#000000">tenant_id </text>
<text text-anchor="start" x="609.474" y="-603.9" font-family="Arial" font-size="14.00" fill="#666666">[bigint]</text>
<polygon fill="none" stroke="#000000" stroke-width="3" points="539.5,-591.5 539.5,-779.5 918.5,-779.5 918.5,-591.5 539.5,-591.5"/>
</g>
<!-- public.platby_group -->
<g id="node2" class="node">
<title>public.platby_group</title>
<polygon fill="#efefef" stroke="transparent" points="168,-342.5 168,-377.5 465,-377.5 465,-342.5 168,-342.5"/>
<polygon fill="none" stroke="#000000" points="168,-342.5 168,-377.5 465,-377.5 465,-342.5 168,-342.5"/>
<text text-anchor="start" x="174.6923" y="-355.3" font-family="Arial Bold" font-size="18.00" fill="#000000">public.platby_group</text>
<text text-anchor="start" x="330.7397" y="-355.3" font-family="Arial" font-size="14.00" fill="#000000">    </text>
<text text-anchor="start" x="364.9445" y="-355.3" font-family="Arial" font-size="14.00" fill="#666666">[BASE TABLE]</text>
<polygon fill="none" stroke="#000000" points="168,-312.5 168,-342.5 465,-342.5 465,-312.5 168,-312.5"/>
<text text-anchor="start" x="175" y="-323.9" font-family="Arial" font-size="14.00" fill="#000000">pg_id    </text>
<text text-anchor="start" x="243.4418" y="-323.9" font-family="Arial" font-size="14.00" fill="#666666">[bigint]</text>
<polygon fill="none" stroke="#000000" points="168,-282.5 168,-312.5 465,-312.5 465,-282.5 168,-282.5"/>
<text text-anchor="start" x="175" y="-293.9" font-family="Arial" font-size="14.00" fill="#000000">pg_type    </text>
<text text-anchor="start" x="259.0084" y="-293.9" font-family="Arial" font-size="14.00" fill="#666666">[numeric]</text>
<polygon fill="none" stroke="#000000" points="168,-252.5 168,-282.5 465,-282.5 465,-252.5 168,-252.5"/>
<text text-anchor="start" x="175" y="-263.9" font-family="Arial" font-size="14.00" fill="#000000">pg_name    </text>
<text text-anchor="start" x="267.561" y="-263.9" font-family="Arial" font-size="14.00" fill="#666666">[text]</text>
<polygon fill="none" stroke="#000000" points="168,-222.5 168,-252.5 465,-252.5 465,-222.5 168,-222.5"/>
<text text-anchor="start" x="175" y="-233.9" font-family="Arial" font-size="14.00" fill="#000000">pg_description    </text>
<text text-anchor="start" x="300.23" y="-233.9" font-family="Arial" font-size="14.00" fill="#666666">[text]</text>
<polygon fill="none" stroke="#000000" points="168,-192.5 168,-222.5 465,-222.5 465,-192.5 168,-192.5"/>
<text text-anchor="start" x="175" y="-203.9" font-family="Arial" font-size="14.00" fill="#000000">pg_base    </text>
<text text-anchor="start" x="262.9004" y="-203.9" font-family="Arial" font-size="14.00" fill="#666666">[bigint]</text>
<polygon fill="none" stroke="#000000" points="168,-162.5 168,-192.5 465,-192.5 465,-162.5 168,-162.5"/>
<text text-anchor="start" x="175" y="-173.9" font-family="Arial" font-size="14.00" fill="#000000">id    </text>
<text text-anchor="start" x="220.094" y="-173.9" font-family="Arial" font-size="14.00" fill="#666666">[bigint]</text>
<polygon fill="none" stroke="#000000" points="168,-132.5 168,-162.5 465,-162.5 465,-132.5 168,-132.5"/>
<text text-anchor="start" x="175" y="-143.9" font-family="Arial" font-size="14.00" fill="#000000">tenant_id    </text>
<text text-anchor="start" x="266.7882" y="-143.9" font-family="Arial" font-size="14.00" fill="#666666">[bigint]</text>
</g>
<!-- public.platby_category_group&#45;&gt;public.platby_group -->
<g id="edge1" class="edge">
<title>public.platby_category_group:pcg_id_group&#45;&gt;public.platby_group:pg_id</title>
<path fill="none" stroke="#000000" d="M531.1257,-695.5093C464.6323,-666.3863 545.3321,-327.5 465,-327.5"/>
<polygon fill="#000000" stroke="#000000" points="531.1972,-695.5236 540.1106,-701.9112 536.0986,-696.5118 541,-697.5 541,-697.5 541,-697.5 536.0986,-696.5118 541.8894,-693.0888 531.1972,-695.5236 531.1972,-695.5236"/>
<text text-anchor="start" x="7.3715" y="-707.5" font-family="Arial" font-size="10.00" fill="#000000">FOREIGN KEY (pcg_id_group) REFERENCES platby_group(pg_id) ON UPDATE RESTRICT ON DELETE RESTRICT</text>
</g>
<!-- public.platby_category -->
<g id="node3" class="node">
<title>public.platby_category</title>
<polygon fill="#efefef" stroke="transparent" points="569,-432.5 569,-467.5 889,-467.5 889,-432.5 569,-432.5"/>
<polygon fill="none" stroke="#000000" points="569,-432.5 569,-467.5 889,-467.5 889,-432.5 569,-432.5"/>
<text text-anchor="start" x="575.6912" y="-445.3" font-family="Arial Bold" font-size="18.00" fill="#000000">public.platby_category</text>
<text text-anchor="start" x="754.7408" y="-445.3" font-family="Arial" font-size="14.00" fill="#000000">    </text>
<text text-anchor="start" x="788.9456" y="-445.3" font-family="Arial" font-size="14.00" fill="#666666">[BASE TABLE]</text>
<polygon fill="none" stroke="#000000" points="569,-402.5 569,-432.5 889,-432.5 889,-402.5 569,-402.5"/>
<text text-anchor="start" x="576" y="-413.9" font-family="Arial" font-size="14.00" fill="#000000">pc_id    </text>
<text text-anchor="start" x="643.6592" y="-413.9" font-family="Arial" font-size="14.00" fill="#666666">[bigint]</text>
<polygon fill="none" stroke="#000000" points="569,-372.5 569,-402.5 889,-402.5 889,-372.5 569,-372.5"/>
<text text-anchor="start" x="576" y="-383.9" font-family="Arial" font-size="14.00" fill="#000000">pc_name    </text>
<text text-anchor="start" x="667.7784" y="-383.9" font-family="Arial" font-size="14.00" fill="#666666">[text]</text>
<polygon fill="none" stroke="#000000" points="569,-342.5 569,-372.5 889,-372.5 889,-342.5 569,-342.5"/>
<text text-anchor="start" x="576" y="-353.9" font-family="Arial" font-size="14.00" fill="#000000">pc_symbol    </text>
<text text-anchor="start" x="677.1024" y="-353.9" font-family="Arial" font-size="14.00" fill="#666666">[bigint]</text>
<polygon fill="none" stroke="#000000" points="569,-312.5 569,-342.5 889,-342.5 889,-312.5 569,-312.5"/>
<text text-anchor="start" x="576" y="-323.9" font-family="Arial" font-size="14.00" fill="#000000">pc_amount    </text>
<text text-anchor="start" x="679.4516" y="-323.9" font-family="Arial" font-size="14.00" fill="#666666">[numeric(10,2)]</text>
<polygon fill="none" stroke="#000000" points="569,-282.5 569,-312.5 889,-312.5 889,-282.5 569,-282.5"/>
<text text-anchor="start" x="576" y="-293.9" font-family="Arial" font-size="14.00" fill="#000000">pc_date_due    </text>
<text text-anchor="start" x="691.1388" y="-293.9" font-family="Arial" font-size="14.00" fill="#666666">[date]</text>
<polygon fill="none" stroke="#000000" points="569,-252.5 569,-282.5 889,-282.5 889,-252.5 569,-252.5"/>
<text text-anchor="start" x="576" y="-263.9" font-family="Arial" font-size="14.00" fill="#000000">pc_valid_from    </text>
<text text-anchor="start" x="697.3254" y="-263.9" font-family="Arial" font-size="14.00" fill="#666666">[date]</text>
<polygon fill="none" stroke="#000000" points="569,-222.5 569,-252.5 889,-252.5 889,-222.5 569,-222.5"/>
<text text-anchor="start" x="576" y="-233.9" font-family="Arial" font-size="14.00" fill="#000000">pc_valid_to    </text>
<text text-anchor="start" x="681.0042" y="-233.9" font-family="Arial" font-size="14.00" fill="#666666">[date]</text>
<polygon fill="none" stroke="#000000" points="569,-192.5 569,-222.5 889,-222.5 889,-192.5 569,-192.5"/>
<text text-anchor="start" x="576" y="-203.9" font-family="Arial" font-size="14.00" fill="#000000">pc_use_base    </text>
<text text-anchor="start" x="693.4656" y="-203.9" font-family="Arial" font-size="14.00" fill="#666666">[boolean]</text>
<polygon fill="none" stroke="#000000" points="569,-162.5 569,-192.5 889,-192.5 889,-162.5 569,-162.5"/>
<text text-anchor="start" x="576" y="-173.9" font-family="Arial" font-size="14.00" fill="#000000">pc_use_prefix    </text>
<text text-anchor="start" x="697.3408" y="-173.9" font-family="Arial" font-size="14.00" fill="#666666">[boolean]</text>
<polygon fill="none" stroke="#000000" points="569,-132.5 569,-162.5 889,-162.5 889,-132.5 569,-132.5"/>
<text text-anchor="start" x="576" y="-143.9" font-family="Arial" font-size="14.00" fill="#000000">pc_archive    </text>
<text text-anchor="start" x="677.885" y="-143.9" font-family="Arial" font-size="14.00" fill="#666666">[boolean]</text>
<polygon fill="none" stroke="#000000" points="569,-102.5 569,-132.5 889,-132.5 889,-102.5 569,-102.5"/>
<text text-anchor="start" x="576" y="-113.9" font-family="Arial" font-size="14.00" fill="#000000">pc_visible    </text>
<text text-anchor="start" x="671.655" y="-113.9" font-family="Arial" font-size="14.00" fill="#666666">[boolean]</text>
<polygon fill="none" stroke="#000000" points="569,-72.5 569,-102.5 889,-102.5 889,-72.5 569,-72.5"/>
<text text-anchor="start" x="576" y="-83.9" font-family="Arial" font-size="14.00" fill="#000000">id    </text>
<text text-anchor="start" x="621.094" y="-83.9" font-family="Arial" font-size="14.00" fill="#666666">[bigint]</text>
<polygon fill="none" stroke="#000000" points="569,-42.5 569,-72.5 889,-72.5 889,-42.5 569,-42.5"/>
<text text-anchor="start" x="576" y="-53.9" font-family="Arial" font-size="14.00" fill="#000000">tenant_id    </text>
<text text-anchor="start" x="667.7882" y="-53.9" font-family="Arial" font-size="14.00" fill="#666666">[bigint]</text>
</g>
<!-- public.platby_category_group&#45;&gt;public.platby_category -->
<g id="edge2" class="edge">
<title>public.platby_category_group:pcg_id_category&#45;&gt;public.platby_category:pc_id</title>
<path fill="none" stroke="#000000" d="M926.7787,-664.5182C969.1776,-636.312 941.2998,-417.5 889,-417.5"/>
<polygon fill="#000000" stroke="#000000" points="926.5652,-664.5833 915.6875,-663.1957 921.7826,-666.0416 917,-667.5 917,-667.5 917,-667.5 921.7826,-666.0416 918.3125,-671.8043 926.5652,-664.5833 926.5652,-664.5833"/>
<text text-anchor="start" x="923.872" y="-677.5" font-family="Arial" font-size="10.00" fill="#000000">FOREIGN KEY (pcg_id_category) REFERENCES platby_category(pc_id) ON UPDATE RESTRICT ON DELETE RESTRICT</text>
</g>
<!-- public.tenant -->
<g id="node4" class="node">
<title>public.tenant</title>
<polygon fill="#efefef" stroke="transparent" points="994,-357.5 994,-392.5 1237,-392.5 1237,-357.5 994,-357.5"/>
<polygon fill="none" stroke="#000000" points="994,-357.5 994,-392.5 1237,-392.5 1237,-357.5 994,-357.5"/>
<text text-anchor="start" x="1000.6968" y="-370.3" font-family="Arial Bold" font-size="18.00" fill="#000000">public.tenant</text>
<text text-anchor="start" x="1102.7352" y="-370.3" font-family="Arial" font-size="14.00" fill="#000000">    </text>
<text text-anchor="start" x="1136.94" y="-370.3" font-family="Arial" font-size="14.00" fill="#666666">[BASE TABLE]</text>
<polygon fill="none" stroke="#000000" points="994,-327.5 994,-357.5 1237,-357.5 1237,-327.5 994,-327.5"/>
<text text-anchor="start" x="1001" y="-338.9" font-family="Arial" font-size="14.00" fill="#000000">id    </text>
<text text-anchor="start" x="1046.094" y="-338.9" font-family="Arial" font-size="14.00" fill="#666666">[bigint]</text>
<polygon fill="none" stroke="#000000" points="994,-297.5 994,-327.5 1237,-327.5 1237,-297.5 994,-297.5"/>
<text text-anchor="start" x="1001" y="-308.9" font-family="Arial" font-size="14.00" fill="#000000">name    </text>
<text text-anchor="start" x="1070.2132" y="-308.9" font-family="Arial" font-size="14.00" fill="#666666">[text]</text>
<polygon fill="none" stroke="#000000" points="994,-267.5 994,-297.5 1237,-297.5 1237,-267.5 994,-267.5"/>
<text text-anchor="start" x="1001" y="-278.9" font-family="Arial" font-size="14.00" fill="#000000">origins    </text>
<text text-anchor="start" x="1076.4264" y="-278.9" font-family="Arial" font-size="14.00" fill="#666666">[text[]]</text>
<polygon fill="none" stroke="#000000" points="994,-237.5 994,-267.5 1237,-267.5 1237,-237.5 994,-237.5"/>
<text text-anchor="start" x="1001" y="-248.9" font-family="Arial" font-size="14.00" fill="#000000">cz_ico    </text>
<text text-anchor="start" x="1074.8766" y="-248.9" font-family="Arial" font-size="14.00" fill="#666666">[text]</text>
<polygon fill="none" stroke="#000000" points="994,-207.5 994,-237.5 1237,-237.5 1237,-207.5 994,-207.5"/>
<text text-anchor="start" x="1001" y="-218.9" font-family="Arial" font-size="14.00" fill="#000000">cz_dic    </text>
<text text-anchor="start" x="1074.8766" y="-218.9" font-family="Arial" font-size="14.00" fill="#666666">[text]</text>
<polygon fill="none" stroke="#000000" points="994,-177.5 994,-207.5 1237,-207.5 1237,-177.5 994,-177.5"/>
<text text-anchor="start" x="1001" y="-188.9" font-family="Arial" font-size="14.00" fill="#000000">address    </text>
<text text-anchor="start" x="1084.9958" y="-188.9" font-family="Arial" font-size="14.00" fill="#666666">[address_domain]</text>
<polygon fill="none" stroke="#000000" points="994,-147.5 994,-177.5 1237,-177.5 1237,-147.5 994,-147.5"/>
<text text-anchor="start" x="1001" y="-158.9" font-family="Arial" font-size="14.00" fill="#000000">description    </text>
<text text-anchor="start" x="1102.8822" y="-158.9" font-family="Arial" font-size="14.00" fill="#666666">[text]</text>
<polygon fill="none" stroke="#000000" points="994,-117.5 994,-147.5 1237,-147.5 1237,-117.5 994,-117.5"/>
<text text-anchor="start" x="1001" y="-128.9" font-family="Arial" font-size="14.00" fill="#000000">bank_account    </text>
<text text-anchor="start" x="1122.3562" y="-128.9" font-family="Arial" font-size="14.00" fill="#666666">[text]</text>
</g>
<!-- public.platby_category_group&#45;&gt;public.tenant -->
<g id="edge3" class="edge">
<title>public.platby_category_group:tenant_id&#45;&gt;public.tenant:id</title>
<path fill="none" stroke="#000000" d="M927.0452,-606.831C1030.0375,-592.2001 874.9443,-342.5 994,-342.5"/>
<polygon fill="#000000" stroke="#000000" points="926.9779,-606.8354 916.7009,-603.0099 921.9889,-607.1677 917,-607.5 917,-607.5 917,-607.5 921.9889,-607.1677 917.2991,-611.9901 926.9779,-606.8354 926.9779,-606.8354"/>
<text text-anchor="start" x="924.2065" y="-617.5" font-family="Arial" font-size="10.00" fill="#000000">FOREIGN KEY (tenant_id) REFERENCES tenant(id) ON DELETE CASCADE</text>
</g>
</g>
</svg>
