<?xml version="1.0" encoding="UTF-8" standalone="no"?>
<!DOCTYPE svg PUBLIC "-//W3C//DTD SVG 1.1//EN"
 "http://www.w3.org/Graphics/SVG/1.1/DTD/svg11.dtd">
<!-- Generated by graphviz version 2.40.1 (20161225.0304)
 -->
<!-- Title: public.platby_group_skupina Pages: 1 -->
<svg width="1277pt" height="712pt"
 viewBox="0.00 0.00 1277.00 712.00" xmlns="http://www.w3.org/2000/svg" xmlns:xlink="http://www.w3.org/1999/xlink">
<g id="graph0" class="graph" transform="scale(1 1) rotate(0) translate(4 708)">
<title>public.platby_group_skupina</title>
<polygon fill="#ffffff" stroke="transparent" points="-4,4 -4,-708 1273,-708 1273,4 -4,4"/>
<!-- public.platby_group_skupina -->
<g id="node1" class="node">
<title>public.platby_group_skupina</title>
<polygon fill="#efefef" stroke="transparent" points="541,-622.5 541,-657.5 910,-657.5 910,-622.5 541,-622.5"/>
<polygon fill="none" stroke="#000000" points="541,-622.5 541,-657.5 910,-657.5 910,-622.5 541,-622.5"/>
<text text-anchor="start" x="547.6797" y="-635.3" font-family="Arial Bold" font-size="18.00" fill="#000000">public.platby_group_skupina</text>
<text text-anchor="start" x="775.7523" y="-635.3" font-family="Arial" font-size="14.00" fill="#000000">    </text>
<text text-anchor="start" x="809.9571" y="-635.3" font-family="Arial" font-size="14.00" fill="#666666">[BASE TABLE]</text>
<polygon fill="none" stroke="#000000" points="541,-592.5 541,-622.5 910,-622.5 910,-592.5 541,-592.5"/>
<text text-anchor="start" x="548" y="-603.9" font-family="Arial" font-size="14.00" fill="#000000">pgs_id </text>
<text text-anchor="start" x="593.1276" y="-603.9" font-family="Arial" font-size="14.00" fill="#666666">[bigint]</text>
<polygon fill="none" stroke="#000000" points="541,-562.5 541,-592.5 910,-592.5 910,-562.5 541,-562.5"/>
<text text-anchor="start" x="548" y="-573.9" font-family="Arial" font-size="14.00" fill="#000000">pgs_id_skupina </text>
<text text-anchor="start" x="649.1472" y="-573.9" font-family="Arial" font-size="14.00" fill="#666666">[bigint]</text>
<polygon fill="none" stroke="#000000" points="541,-532.5 541,-562.5 910,-562.5 910,-532.5 541,-532.5"/>
<text text-anchor="start" x="548" y="-543.9" font-family="Arial" font-size="14.00" fill="#000000">pgs_id_group </text>
<text text-anchor="start" x="636.7012" y="-543.9" font-family="Arial" font-size="14.00" fill="#666666">[bigint]</text>
<polygon fill="none" stroke="#000000" points="541,-502.5 541,-532.5 910,-532.5 910,-502.5 541,-502.5"/>
<text text-anchor="start" x="548" y="-513.9" font-family="Arial" font-size="14.00" fill="#000000">id </text>
<text text-anchor="start" x="562.7798" y="-513.9" font-family="Arial" font-size="14.00" fill="#666666">[bigint]</text>
<polygon fill="none" stroke="#000000" points="541,-472.5 541,-502.5 910,-502.5 910,-472.5 541,-472.5"/>
<text text-anchor="start" x="548" y="-483.9" font-family="Arial" font-size="14.00" fill="#000000">tenant_id </text>
<text text-anchor="start" x="609.474" y="-483.9" font-family="Arial" font-size="14.00" fill="#666666">[bigint]</text>
<polygon fill="none" stroke="#000000" stroke-width="3" points="539,-471.5 539,-659.5 911,-659.5 911,-471.5 539,-471.5"/>
</g>
<!-- public.cohort -->
<g id="node2" class="node">
<title>public.cohort</title>
<polygon fill="#efefef" stroke="transparent" points="230,-312.5 230,-347.5 473,-347.5 473,-312.5 230,-312.5"/>
<polygon fill="none" stroke="#000000" points="230,-312.5 230,-347.5 473,-347.5 473,-312.5 230,-312.5"/>
<text text-anchor="start" x="236.7049" y="-325.3" font-family="Arial Bold" font-size="18.00" fill="#000000">public.cohort</text>
<text text-anchor="start" x="338.7271" y="-325.3" font-family="Arial" font-size="14.00" fill="#000000">    </text>
<text text-anchor="start" x="372.9319" y="-325.3" font-family="Arial" font-size="14.00" fill="#666666">[BASE TABLE]</text>
<polygon fill="none" stroke="#000000" points="230,-282.5 230,-312.5 473,-312.5 473,-282.5 230,-282.5"/>
<text text-anchor="start" x="237" y="-293.9" font-family="Arial" font-size="14.00" fill="#000000">id    </text>
<text text-anchor="start" x="282.094" y="-293.9" font-family="Arial" font-size="14.00" fill="#666666">[bigint]</text>
<polygon fill="none" stroke="#000000" points="230,-252.5 230,-282.5 473,-282.5 473,-252.5 230,-252.5"/>
<text text-anchor="start" x="237" y="-263.9" font-family="Arial" font-size="14.00" fill="#000000">tenant_id    </text>
<text text-anchor="start" x="328.7882" y="-263.9" font-family="Arial" font-size="14.00" fill="#666666">[bigint]</text>
<polygon fill="none" stroke="#000000" points="230,-222.5 230,-252.5 473,-252.5 473,-222.5 230,-222.5"/>
<text text-anchor="start" x="237" y="-233.9" font-family="Arial" font-size="14.00" fill="#000000">cohort_group_id    </text>
<text text-anchor="start" x="372.3492" y="-233.9" font-family="Arial" font-size="14.00" fill="#666666">[bigint]</text>
<polygon fill="none" stroke="#000000" points="230,-192.5 230,-222.5 473,-222.5 473,-192.5 230,-192.5"/>
<text text-anchor="start" x="237" y="-203.9" font-family="Arial" font-size="14.00" fill="#000000">name    </text>
<text text-anchor="start" x="306.2132" y="-203.9" font-family="Arial" font-size="14.00" fill="#666666">[text]</text>
<polygon fill="none" stroke="#000000" points="230,-162.5 230,-192.5 473,-192.5 473,-162.5 230,-162.5"/>
<text text-anchor="start" x="237" y="-173.9" font-family="Arial" font-size="14.00" fill="#000000">description    </text>
<text text-anchor="start" x="338.8822" y="-173.9" font-family="Arial" font-size="14.00" fill="#666666">[text]</text>
<polygon fill="none" stroke="#000000" points="230,-132.5 230,-162.5 473,-162.5 473,-132.5 230,-132.5"/>
<text text-anchor="start" x="237" y="-143.9" font-family="Arial" font-size="14.00" fill="#000000">color_rgb    </text>
<text text-anchor="start" x="329.5456" y="-143.9" font-family="Arial" font-size="14.00" fill="#666666">[text]</text>
<polygon fill="none" stroke="#000000" points="230,-102.5 230,-132.5 473,-132.5 473,-102.5 230,-102.5"/>
<text text-anchor="start" x="237" y="-113.9" font-family="Arial" font-size="14.00" fill="#000000">location    </text>
<text text-anchor="start" x="319.439" y="-113.9" font-family="Arial" font-size="14.00" fill="#666666">[text]</text>
<polygon fill="none" stroke="#000000" points="230,-72.5 230,-102.5 473,-102.5 473,-72.5 230,-72.5"/>
<text text-anchor="start" x="237" y="-83.9" font-family="Arial" font-size="14.00" fill="#000000">is_visible    </text>
<text text-anchor="start" x="327.979" y="-83.9" font-family="Arial" font-size="14.00" fill="#666666">[boolean]</text>
<polygon fill="none" stroke="#000000" points="230,-42.5 230,-72.5 473,-72.5 473,-42.5 230,-42.5"/>
<text text-anchor="start" x="237" y="-53.9" font-family="Arial" font-size="14.00" fill="#000000">ordering    </text>
<text text-anchor="start" x="322.5456" y="-53.9" font-family="Arial" font-size="14.00" fill="#666666">[integer]</text>
</g>
<!-- public.platby_group_skupina&#45;&gt;public.cohort -->
<g id="edge1" class="edge">
<title>public.platby_group_skupina:pgs_id_skupina&#45;&gt;public.cohort:id</title>
<path fill="none" stroke="#000000" d="M530.8662,-576.839C423.3401,-561.8652 597.435,-297.5 473,-297.5"/>
<polygon fill="#000000" stroke="#000000" points="531.0212,-576.849 540.7071,-581.9905 536.0106,-577.1745 541,-577.5 541,-577.5 541,-577.5 536.0106,-577.1745 541.2929,-573.0095 531.0212,-576.849 531.0212,-576.849"/>
<text text-anchor="start" x="271.323" y="-587.5" font-family="Arial" font-size="10.00" fill="#000000">FOREIGN KEY (pgs_id_skupina) REFERENCES cohort(id)</text>
</g>
<!-- public.platby_group -->
<g id="node3" class="node">
<title>public.platby_group</title>
<polygon fill="#efefef" stroke="transparent" points="577,-282.5 577,-317.5 874,-317.5 874,-282.5 577,-282.5"/>
<polygon fill="none" stroke="#000000" points="577,-282.5 577,-317.5 874,-317.5 874,-282.5 577,-282.5"/>
<text text-anchor="start" x="583.6923" y="-295.3" font-family="Arial Bold" font-size="18.00" fill="#000000">public.platby_group</text>
<text text-anchor="start" x="739.7397" y="-295.3" font-family="Arial" font-size="14.00" fill="#000000">    </text>
<text text-anchor="start" x="773.9445" y="-295.3" font-family="Arial" font-size="14.00" fill="#666666">[BASE TABLE]</text>
<polygon fill="none" stroke="#000000" points="577,-252.5 577,-282.5 874,-282.5 874,-252.5 577,-252.5"/>
<text text-anchor="start" x="584" y="-263.9" font-family="Arial" font-size="14.00" fill="#000000">pg_id    </text>
<text text-anchor="start" x="652.4418" y="-263.9" font-family="Arial" font-size="14.00" fill="#666666">[bigint]</text>
<polygon fill="none" stroke="#000000" points="577,-222.5 577,-252.5 874,-252.5 874,-222.5 577,-222.5"/>
<text text-anchor="start" x="584" y="-233.9" font-family="Arial" font-size="14.00" fill="#000000">pg_type    </text>
<text text-anchor="start" x="668.0084" y="-233.9" font-family="Arial" font-size="14.00" fill="#666666">[numeric]</text>
<polygon fill="none" stroke="#000000" points="577,-192.5 577,-222.5 874,-222.5 874,-192.5 577,-192.5"/>
<text text-anchor="start" x="584" y="-203.9" font-family="Arial" font-size="14.00" fill="#000000">pg_name    </text>
<text text-anchor="start" x="676.561" y="-203.9" font-family="Arial" font-size="14.00" fill="#666666">[text]</text>
<polygon fill="none" stroke="#000000" points="577,-162.5 577,-192.5 874,-192.5 874,-162.5 577,-162.5"/>
<text text-anchor="start" x="584" y="-173.9" font-family="Arial" font-size="14.00" fill="#000000">pg_description    </text>
<text text-anchor="start" x="709.23" y="-173.9" font-family="Arial" font-size="14.00" fill="#666666">[text]</text>
<polygon fill="none" stroke="#000000" points="577,-132.5 577,-162.5 874,-162.5 874,-132.5 577,-132.5"/>
<text text-anchor="start" x="584" y="-143.9" font-family="Arial" font-size="14.00" fill="#000000">pg_base    </text>
<text text-anchor="start" x="671.9004" y="-143.9" font-family="Arial" font-size="14.00" fill="#666666">[bigint]</text>
<polygon fill="none" stroke="#000000" points="577,-102.5 577,-132.5 874,-132.5 874,-102.5 577,-102.5"/>
<text text-anchor="start" x="584" y="-113.9" font-family="Arial" font-size="14.00" fill="#000000">id    </text>
<text text-anchor="start" x="629.094" y="-113.9" font-family="Arial" font-size="14.00" fill="#666666">[bigint]</text>
<polygon fill="none" stroke="#000000" points="577,-72.5 577,-102.5 874,-102.5 874,-72.5 577,-72.5"/>
<text text-anchor="start" x="584" y="-83.9" font-family="Arial" font-size="14.00" fill="#000000">tenant_id    </text>
<text text-anchor="start" x="675.7882" y="-83.9" font-family="Arial" font-size="14.00" fill="#666666">[bigint]</text>
</g>
<!-- public.platby_group_skupina&#45;&gt;public.platby_group -->
<g id="edge2" class="edge">
<title>public.platby_group_skupina:pgs_id_group&#45;&gt;public.platby_group:pg_id</title>
<path fill="none" stroke="#000000" d="M533.7821,-540.2972C516.481,-496.4708 548.6347,-267.5 577,-267.5"/>
<polygon fill="#000000" stroke="#000000" points="533.9215,-540.4363 537.8213,-550.6853 537.4608,-543.9682 541,-547.5 541,-547.5 541,-547.5 537.4608,-543.9682 544.1787,-544.3147 533.9215,-540.4363 533.9215,-540.4363"/>
<text text-anchor="start" x="7.3715" y="-557.5" font-family="Arial" font-size="10.00" fill="#000000">FOREIGN KEY (pgs_id_group) REFERENCES platby_group(pg_id) ON UPDATE RESTRICT ON DELETE RESTRICT</text>
</g>
<!-- public.tenant -->
<g id="node4" class="node">
<title>public.tenant</title>
<polygon fill="#efefef" stroke="transparent" points="978,-297.5 978,-332.5 1221,-332.5 1221,-297.5 978,-297.5"/>
<polygon fill="none" stroke="#000000" points="978,-297.5 978,-332.5 1221,-332.5 1221,-297.5 978,-297.5"/>
<text text-anchor="start" x="984.6968" y="-310.3" font-family="Arial Bold" font-size="18.00" fill="#000000">public.tenant</text>
<text text-anchor="start" x="1086.7352" y="-310.3" font-family="Arial" font-size="14.00" fill="#000000">    </text>
<text text-anchor="start" x="1120.94" y="-310.3" font-family="Arial" font-size="14.00" fill="#666666">[BASE TABLE]</text>
<polygon fill="none" stroke="#000000" points="978,-267.5 978,-297.5 1221,-297.5 1221,-267.5 978,-267.5"/>
<text text-anchor="start" x="985" y="-278.9" font-family="Arial" font-size="14.00" fill="#000000">id    </text>
<text text-anchor="start" x="1030.094" y="-278.9" font-family="Arial" font-size="14.00" fill="#666666">[bigint]</text>
<polygon fill="none" stroke="#000000" points="978,-237.5 978,-267.5 1221,-267.5 1221,-237.5 978,-237.5"/>
<text text-anchor="start" x="985" y="-248.9" font-family="Arial" font-size="14.00" fill="#000000">name    </text>
<text text-anchor="start" x="1054.2132" y="-248.9" font-family="Arial" font-size="14.00" fill="#666666">[text]</text>
<polygon fill="none" stroke="#000000" points="978,-207.5 978,-237.5 1221,-237.5 1221,-207.5 978,-207.5"/>
<text text-anchor="start" x="985" y="-218.9" font-family="Arial" font-size="14.00" fill="#000000">origins    </text>
<text text-anchor="start" x="1060.4264" y="-218.9" font-family="Arial" font-size="14.00" fill="#666666">[text[]]</text>
<polygon fill="none" stroke="#000000" points="978,-177.5 978,-207.5 1221,-207.5 1221,-177.5 978,-177.5"/>
<text text-anchor="start" x="985" y="-188.9" font-family="Arial" font-size="14.00" fill="#000000">cz_ico    </text>
<text text-anchor="start" x="1058.8766" y="-188.9" font-family="Arial" font-size="14.00" fill="#666666">[text]</text>
<polygon fill="none" stroke="#000000" points="978,-147.5 978,-177.5 1221,-177.5 1221,-147.5 978,-147.5"/>
<text text-anchor="start" x="985" y="-158.9" font-family="Arial" font-size="14.00" fill="#000000">cz_dic    </text>
<text text-anchor="start" x="1058.8766" y="-158.9" font-family="Arial" font-size="14.00" fill="#666666">[text]</text>
<polygon fill="none" stroke="#000000" points="978,-117.5 978,-147.5 1221,-147.5 1221,-117.5 978,-117.5"/>
<text text-anchor="start" x="985" y="-128.9" font-family="Arial" font-size="14.00" fill="#000000">address    </text>
<text text-anchor="start" x="1068.9958" y="-128.9" font-family="Arial" font-size="14.00" fill="#666666">[address_domain]</text>
<polygon fill="none" stroke="#000000" points="978,-87.5 978,-117.5 1221,-117.5 1221,-87.5 978,-87.5"/>
<text text-anchor="start" x="985" y="-98.9" font-family="Arial" font-size="14.00" fill="#000000">description    </text>
<text text-anchor="start" x="1086.8822" y="-98.9" font-family="Arial" font-size="14.00" fill="#666666">[text]</text>
<polygon fill="none" stroke="#000000" points="978,-57.5 978,-87.5 1221,-87.5 1221,-57.5 978,-57.5"/>
<text text-anchor="start" x="985" y="-68.9" font-family="Arial" font-size="14.00" fill="#000000">bank_account    </text>
<text text-anchor="start" x="1106.3562" y="-68.9" font-family="Arial" font-size="14.00" fill="#666666">[text]</text>
</g>
<!-- public.platby_group_skupina&#45;&gt;public.tenant -->
<g id="edge3" class="edge">
<title>public.platby_group_skupina:tenant_id&#45;&gt;public.tenant:id</title>
<path fill="none" stroke="#000000" d="M920.2684,-486.586C996.6421,-471.7972 885.7569,-282.5 978,-282.5"/>
<polygon fill="#000000" stroke="#000000" points="919.9606,-486.6133 909.601,-483.0177 914.9803,-487.0567 910,-487.5 910,-487.5 910,-487.5 914.9803,-487.0567 910.399,-491.9823 919.9606,-486.6133 919.9606,-486.6133"/>
<text text-anchor="start" x="917.2065" y="-497.5" font-family="Arial" font-size="10.00" fill="#000000">FOREIGN KEY (tenant_id) REFERENCES tenant(id) ON DELETE CASCADE</text>
</g>
</g>
</svg>
