<?xml version="1.0" encoding="UTF-8" standalone="no"?>
<!DOCTYPE svg PUBLIC "-//W3C//DTD SVG 1.1//EN"
 "http://www.w3.org/Graphics/SVG/1.1/DTD/svg11.dtd">
<!-- Generated by graphviz version 2.40.1 (20161225.0304)
 -->
<!-- Title: public.event_target_cohort Pages: 1 -->
<svg width="1271pt" height="1649pt"
 viewBox="0.00 0.00 1270.50 1649.00" xmlns="http://www.w3.org/2000/svg" xmlns:xlink="http://www.w3.org/1999/xlink">
<g id="graph0" class="graph" transform="scale(1 1) rotate(0) translate(4 1645)">
<title>public.event_target_cohort</title>
<polygon fill="#ffffff" stroke="transparent" points="-4,4 -4,-1645 1266.5,-1645 1266.5,4 -4,4"/>
<!-- public.event_target_cohort -->
<g id="node1" class="node">
<title>public.event_target_cohort</title>
<polygon fill="#efefef" stroke="transparent" points="555,-1132.5 555,-1167.5 908,-1167.5 908,-1132.5 555,-1132.5"/>
<polygon fill="none" stroke="#000000" points="555,-1132.5 555,-1167.5 908,-1167.5 908,-1132.5 555,-1132.5"/>
<text text-anchor="start" x="561.6807" y="-1145.3" font-family="Arial Bold" font-size="18.00" fill="#000000">public.event_target_cohort</text>
<text text-anchor="start" x="773.7513" y="-1145.3" font-family="Arial" font-size="14.00" fill="#000000">    </text>
<text text-anchor="start" x="807.9561" y="-1145.3" font-family="Arial" font-size="14.00" fill="#666666">[BASE TABLE]</text>
<polygon fill="none" stroke="#000000" points="555,-1102.5 555,-1132.5 908,-1132.5 908,-1102.5 555,-1102.5"/>
<text text-anchor="start" x="562" y="-1113.9" font-family="Arial" font-size="14.00" fill="#000000">id </text>
<text text-anchor="start" x="576.7798" y="-1113.9" font-family="Arial" font-size="14.00" fill="#666666">[bigint]</text>
<polygon fill="none" stroke="#000000" points="555,-1072.5 555,-1102.5 908,-1102.5 908,-1072.5 555,-1072.5"/>
<text text-anchor="start" x="562" y="-1083.9" font-family="Arial" font-size="14.00" fill="#000000">tenant_id </text>
<text text-anchor="start" x="623.474" y="-1083.9" font-family="Arial" font-size="14.00" fill="#666666">[bigint]</text>
<polygon fill="none" stroke="#000000" points="555,-1042.5 555,-1072.5 908,-1072.5 908,-1042.5 555,-1042.5"/>
<text text-anchor="start" x="562" y="-1053.9" font-family="Arial" font-size="14.00" fill="#000000">event_id </text>
<text text-anchor="start" x="618.8008" y="-1053.9" font-family="Arial" font-size="14.00" fill="#666666">[bigint]</text>
<polygon fill="none" stroke="#000000" points="555,-1012.5 555,-1042.5 908,-1042.5 908,-1012.5 555,-1012.5"/>
<text text-anchor="start" x="562" y="-1023.9" font-family="Arial" font-size="14.00" fill="#000000">cohort_id </text>
<text text-anchor="start" x="623.4614" y="-1023.9" font-family="Arial" font-size="14.00" fill="#666666">[bigint]</text>
<polygon fill="none" stroke="#000000" points="555,-982.5 555,-1012.5 908,-1012.5 908,-982.5 555,-982.5"/>
<text text-anchor="start" x="562" y="-993.9" font-family="Arial" font-size="14.00" fill="#000000">created_at </text>
<text text-anchor="start" x="632.028" y="-993.9" font-family="Arial" font-size="14.00" fill="#666666">[timestamp with time zone]</text>
<polygon fill="none" stroke="#000000" points="555,-952.5 555,-982.5 908,-982.5 908,-952.5 555,-952.5"/>
<text text-anchor="start" x="562" y="-963.9" font-family="Arial" font-size="14.00" fill="#000000">updated_at </text>
<text text-anchor="start" x="635.9326" y="-963.9" font-family="Arial" font-size="14.00" fill="#666666">[timestamp with time zone]</text>
<polygon fill="none" stroke="#000000" stroke-width="3" points="553,-951.5 553,-1169.5 909,-1169.5 909,-951.5 553,-951.5"/>
</g>
<!-- public.tenant -->
<g id="node3" class="node">
<title>public.tenant</title>
<polygon fill="#efefef" stroke="transparent" points="243,-537.5 243,-572.5 486,-572.5 486,-537.5 243,-537.5"/>
<polygon fill="none" stroke="#000000" points="243,-537.5 243,-572.5 486,-572.5 486,-537.5 243,-537.5"/>
<text text-anchor="start" x="249.6968" y="-550.3" font-family="Arial Bold" font-size="18.00" fill="#000000">public.tenant</text>
<text text-anchor="start" x="351.7352" y="-550.3" font-family="Arial" font-size="14.00" fill="#000000">    </text>
<text text-anchor="start" x="385.94" y="-550.3" font-family="Arial" font-size="14.00" fill="#666666">[BASE TABLE]</text>
<polygon fill="none" stroke="#000000" points="243,-507.5 243,-537.5 486,-537.5 486,-507.5 243,-507.5"/>
<text text-anchor="start" x="250" y="-518.9" font-family="Arial" font-size="14.00" fill="#000000">id    </text>
<text text-anchor="start" x="295.094" y="-518.9" font-family="Arial" font-size="14.00" fill="#666666">[bigint]</text>
<polygon fill="none" stroke="#000000" points="243,-477.5 243,-507.5 486,-507.5 486,-477.5 243,-477.5"/>
<text text-anchor="start" x="250" y="-488.9" font-family="Arial" font-size="14.00" fill="#000000">name    </text>
<text text-anchor="start" x="319.2132" y="-488.9" font-family="Arial" font-size="14.00" fill="#666666">[text]</text>
<polygon fill="none" stroke="#000000" points="243,-447.5 243,-477.5 486,-477.5 486,-447.5 243,-447.5"/>
<text text-anchor="start" x="250" y="-458.9" font-family="Arial" font-size="14.00" fill="#000000">origins    </text>
<text text-anchor="start" x="325.4264" y="-458.9" font-family="Arial" font-size="14.00" fill="#666666">[text[]]</text>
<polygon fill="none" stroke="#000000" points="243,-417.5 243,-447.5 486,-447.5 486,-417.5 243,-417.5"/>
<text text-anchor="start" x="250" y="-428.9" font-family="Arial" font-size="14.00" fill="#000000">cz_ico    </text>
<text text-anchor="start" x="323.8766" y="-428.9" font-family="Arial" font-size="14.00" fill="#666666">[text]</text>
<polygon fill="none" stroke="#000000" points="243,-387.5 243,-417.5 486,-417.5 486,-387.5 243,-387.5"/>
<text text-anchor="start" x="250" y="-398.9" font-family="Arial" font-size="14.00" fill="#000000">cz_dic    </text>
<text text-anchor="start" x="323.8766" y="-398.9" font-family="Arial" font-size="14.00" fill="#666666">[text]</text>
<polygon fill="none" stroke="#000000" points="243,-357.5 243,-387.5 486,-387.5 486,-357.5 243,-357.5"/>
<text text-anchor="start" x="250" y="-368.9" font-family="Arial" font-size="14.00" fill="#000000">address    </text>
<text text-anchor="start" x="333.9958" y="-368.9" font-family="Arial" font-size="14.00" fill="#666666">[address_domain]</text>
<polygon fill="none" stroke="#000000" points="243,-327.5 243,-357.5 486,-357.5 486,-327.5 243,-327.5"/>
<text text-anchor="start" x="250" y="-338.9" font-family="Arial" font-size="14.00" fill="#000000">description    </text>
<text text-anchor="start" x="351.8822" y="-338.9" font-family="Arial" font-size="14.00" fill="#666666">[text]</text>
<polygon fill="none" stroke="#000000" points="243,-297.5 243,-327.5 486,-327.5 486,-297.5 243,-297.5"/>
<text text-anchor="start" x="250" y="-308.9" font-family="Arial" font-size="14.00" fill="#000000">bank_account    </text>
<text text-anchor="start" x="371.3562" y="-308.9" font-family="Arial" font-size="14.00" fill="#666666">[text]</text>
</g>
<!-- public.event_target_cohort&#45;&gt;public.tenant -->
<g id="edge2" class="edge">
<title>public.event_target_cohort:tenant_id&#45;&gt;public.tenant:id</title>
<path fill="none" stroke="#000000" d="M544.9863,-1086.1662C438.6832,-1055.9512 608.9062,-522.5 486,-522.5"/>
<polygon fill="#000000" stroke="#000000" points="545.0875,-1086.1796 554.4058,-1091.9606 550.0438,-1086.8398 555,-1087.5 555,-1087.5 555,-1087.5 550.0438,-1086.8398 555.5942,-1083.0394 545.0875,-1086.1796 545.0875,-1086.1796"/>
<text text-anchor="start" x="91.0955" y="-1097.5" font-family="Arial" font-size="10.00" fill="#000000">FOREIGN KEY (tenant_id) REFERENCES tenant(id) ON UPDATE CASCADE ON DELETE CASCADE</text>
</g>
<!-- public.event -->
<g id="node4" class="node">
<title>public.event</title>
<polygon fill="#efefef" stroke="transparent" points="590,-792.5 590,-827.5 873,-827.5 873,-792.5 590,-792.5"/>
<polygon fill="none" stroke="#000000" points="590,-792.5 590,-827.5 873,-827.5 873,-792.5 590,-792.5"/>
<text text-anchor="start" x="619.701" y="-805.3" font-family="Arial Bold" font-size="18.00" fill="#000000">public.event</text>
<text text-anchor="start" x="715.731" y="-805.3" font-family="Arial" font-size="14.00" fill="#000000">    </text>
<text text-anchor="start" x="749.9358" y="-805.3" font-family="Arial" font-size="14.00" fill="#666666">[BASE TABLE]</text>
<polygon fill="none" stroke="#000000" points="590,-762.5 590,-792.5 873,-792.5 873,-762.5 590,-762.5"/>
<text text-anchor="start" x="597" y="-773.9" font-family="Arial" font-size="14.00" fill="#000000">id    </text>
<text text-anchor="start" x="642.094" y="-773.9" font-family="Arial" font-size="14.00" fill="#666666">[bigint]</text>
<polygon fill="none" stroke="#000000" points="590,-732.5 590,-762.5 873,-762.5 873,-732.5 590,-732.5"/>
<text text-anchor="start" x="597" y="-743.9" font-family="Arial" font-size="14.00" fill="#000000">name    </text>
<text text-anchor="start" x="666.2132" y="-743.9" font-family="Arial" font-size="14.00" fill="#666666">[text]</text>
<polygon fill="none" stroke="#000000" points="590,-702.5 590,-732.5 873,-732.5 873,-702.5 590,-702.5"/>
<text text-anchor="start" x="597" y="-713.9" font-family="Arial" font-size="14.00" fill="#000000">location_text    </text>
<text text-anchor="start" x="709.7854" y="-713.9" font-family="Arial" font-size="14.00" fill="#666666">[text]</text>
<polygon fill="none" stroke="#000000" points="590,-672.5 590,-702.5 873,-702.5 873,-672.5 590,-672.5"/>
<text text-anchor="start" x="597" y="-683.9" font-family="Arial" font-size="14.00" fill="#000000">description    </text>
<text text-anchor="start" x="698.8822" y="-683.9" font-family="Arial" font-size="14.00" fill="#666666">[text]</text>
<polygon fill="none" stroke="#000000" points="590,-642.5 590,-672.5 873,-672.5 873,-642.5 590,-642.5"/>
<text text-anchor="start" x="597" y="-653.9" font-family="Arial" font-size="14.00" fill="#000000">since    </text>
<text text-anchor="start" x="663.8766" y="-653.9" font-family="Arial" font-size="14.00" fill="#666666">[date]</text>
<polygon fill="none" stroke="#000000" points="590,-612.5 590,-642.5 873,-642.5 873,-612.5 590,-612.5"/>
<text text-anchor="start" x="597" y="-623.9" font-family="Arial" font-size="14.00" fill="#000000">until    </text>
<text text-anchor="start" x="656.8738" y="-623.9" font-family="Arial" font-size="14.00" fill="#666666">[date]</text>
<polygon fill="none" stroke="#000000" points="590,-582.5 590,-612.5 873,-612.5 873,-582.5 590,-582.5"/>
<text text-anchor="start" x="597" y="-593.9" font-family="Arial" font-size="14.00" fill="#000000">capacity    </text>
<text text-anchor="start" x="682.5498" y="-593.9" font-family="Arial" font-size="14.00" fill="#666666">[integer]</text>
<polygon fill="none" stroke="#000000" points="590,-552.5 590,-582.5 873,-582.5 873,-552.5 590,-552.5"/>
<text text-anchor="start" x="597" y="-563.9" font-family="Arial" font-size="14.00" fill="#000000">files_legacy    </text>
<text text-anchor="start" x="704.3282" y="-563.9" font-family="Arial" font-size="14.00" fill="#666666">[text]</text>
<polygon fill="none" stroke="#000000" points="590,-522.5 590,-552.5 873,-552.5 873,-522.5 590,-522.5"/>
<text text-anchor="start" x="596.5344" y="-533.9" font-family="Arial" font-size="14.00" fill="#000000">updated_at    </text>
<text text-anchor="start" x="700.7812" y="-533.9" font-family="Arial" font-size="14.00" fill="#666666">[timestamp with time zone]</text>
<polygon fill="none" stroke="#000000" points="590,-492.5 590,-522.5 873,-522.5 873,-492.5 590,-492.5"/>
<text text-anchor="start" x="597" y="-503.9" font-family="Arial" font-size="14.00" fill="#000000">is_locked    </text>
<text text-anchor="start" x="689.5484" y="-503.9" font-family="Arial" font-size="14.00" fill="#666666">[boolean]</text>
<polygon fill="none" stroke="#000000" points="590,-462.5 590,-492.5 873,-492.5 873,-462.5 590,-462.5"/>
<text text-anchor="start" x="597" y="-473.9" font-family="Arial" font-size="14.00" fill="#000000">is_visible    </text>
<text text-anchor="start" x="687.979" y="-473.9" font-family="Arial" font-size="14.00" fill="#666666">[boolean]</text>
<polygon fill="none" stroke="#000000" points="590,-432.5 590,-462.5 873,-462.5 873,-432.5 590,-432.5"/>
<text text-anchor="start" x="597" y="-443.9" font-family="Arial" font-size="14.00" fill="#000000">summary    </text>
<text text-anchor="start" x="688.7518" y="-443.9" font-family="Arial" font-size="14.00" fill="#666666">[text]</text>
<polygon fill="none" stroke="#000000" points="590,-402.5 590,-432.5 873,-432.5 873,-402.5 590,-402.5"/>
<text text-anchor="start" x="597" y="-413.9" font-family="Arial" font-size="14.00" fill="#000000">is_public    </text>
<text text-anchor="start" x="685.655" y="-413.9" font-family="Arial" font-size="14.00" fill="#666666">[boolean]</text>
<polygon fill="none" stroke="#000000" points="590,-372.5 590,-402.5 873,-402.5 873,-372.5 590,-372.5"/>
<text text-anchor="start" x="597" y="-383.9" font-family="Arial" font-size="14.00" fill="#000000">enable_notes    </text>
<text text-anchor="start" x="715.2454" y="-383.9" font-family="Arial" font-size="14.00" fill="#666666">[boolean]</text>
<polygon fill="none" stroke="#000000" points="590,-342.5 590,-372.5 873,-372.5 873,-342.5 590,-342.5"/>
<text text-anchor="start" x="597" y="-353.9" font-family="Arial" font-size="14.00" fill="#000000">tenant_id    </text>
<text text-anchor="start" x="688.7882" y="-353.9" font-family="Arial" font-size="14.00" fill="#666666">[bigint]</text>
<polygon fill="none" stroke="#000000" points="590,-312.5 590,-342.5 873,-342.5 873,-312.5 590,-312.5"/>
<text text-anchor="start" x="597" y="-323.9" font-family="Arial" font-size="14.00" fill="#000000">description_member    </text>
<text text-anchor="start" x="757.9944" y="-323.9" font-family="Arial" font-size="14.00" fill="#666666">[text]</text>
<polygon fill="none" stroke="#000000" points="590,-282.5 590,-312.5 873,-312.5 873,-282.5 590,-282.5"/>
<text text-anchor="start" x="597" y="-293.9" font-family="Arial" font-size="14.00" fill="#000000">title_image_legacy    </text>
<text text-anchor="start" x="747.1164" y="-293.9" font-family="Arial" font-size="14.00" fill="#666666">[text]</text>
<polygon fill="none" stroke="#000000" points="590,-252.5 590,-282.5 873,-282.5 873,-252.5 590,-252.5"/>
<text text-anchor="start" x="597" y="-263.9" font-family="Arial" font-size="14.00" fill="#000000">type    </text>
<text text-anchor="start" x="657.6606" y="-263.9" font-family="Arial" font-size="14.00" fill="#666666">[event_type]</text>
<polygon fill="none" stroke="#000000" points="590,-222.5 590,-252.5 873,-252.5 873,-222.5 590,-222.5"/>
<text text-anchor="start" x="597" y="-233.9" font-family="Arial" font-size="14.00" fill="#000000">payment_type    </text>
<text text-anchor="start" x="719.1248" y="-233.9" font-family="Arial" font-size="14.00" fill="#666666">[event_payment_type]</text>
<polygon fill="none" stroke="#000000" points="590,-192.5 590,-222.5 873,-222.5 873,-192.5 590,-192.5"/>
<text text-anchor="start" x="597" y="-203.9" font-family="Arial" font-size="14.00" fill="#000000">member_price    </text>
<text text-anchor="start" x="720.6494" y="-203.9" font-family="Arial" font-size="14.00" fill="#666666">[price]</text>
<polygon fill="none" stroke="#000000" points="590,-162.5 590,-192.5 873,-192.5 873,-162.5 590,-162.5"/>
<text text-anchor="start" x="597" y="-173.9" font-family="Arial" font-size="14.00" fill="#000000">guest_price    </text>
<text text-anchor="start" x="703.5582" y="-173.9" font-family="Arial" font-size="14.00" fill="#666666">[price]</text>
<polygon fill="none" stroke="#000000" points="590,-132.5 590,-162.5 873,-162.5 873,-132.5 590,-132.5"/>
<text text-anchor="start" x="597" y="-143.9" font-family="Arial" font-size="14.00" fill="#000000">location_id    </text>
<text text-anchor="start" x="698.1108" y="-143.9" font-family="Arial" font-size="14.00" fill="#666666">[bigint]</text>
<polygon fill="none" stroke="#000000" points="590,-102.5 590,-132.5 873,-132.5 873,-102.5 590,-102.5"/>
<text text-anchor="start" x="597" y="-113.9" font-family="Arial" font-size="14.00" fill="#000000">is_paid_by_tenant    </text>
<text text-anchor="start" x="744.8078" y="-113.9" font-family="Arial" font-size="14.00" fill="#666666">[boolean]</text>
<polygon fill="none" stroke="#000000" points="590,-72.5 590,-102.5 873,-102.5 873,-72.5 590,-72.5"/>
<text text-anchor="start" x="597" y="-83.9" font-family="Arial" font-size="14.00" fill="#000000">payment_recipient_id    </text>
<text text-anchor="start" x="764.2356" y="-83.9" font-family="Arial" font-size="14.00" fill="#666666">[bigint]</text>
<polygon fill="none" stroke="#000000" points="590,-42.5 590,-72.5 873,-72.5 873,-42.5 590,-42.5"/>
<text text-anchor="start" x="597" y="-53.9" font-family="Arial" font-size="14.00" fill="#000000">created_at    </text>
<text text-anchor="start" x="697.3422" y="-53.9" font-family="Arial" font-size="14.00" fill="#666666">[timestamp with time zone]</text>
</g>
<!-- public.event_target_cohort&#45;&gt;public.event -->
<g id="edge3" class="edge">
<title>public.event_target_cohort:event_id&#45;&gt;public.event:id</title>
<path fill="none" stroke="#000000" d="M547.76,-1050.2972C530.3126,-1006.4708 561.6474,-777.5 590,-777.5"/>
<polygon fill="#000000" stroke="#000000" points="547.9107,-1050.4471 551.8262,-1060.6902 551.4554,-1053.9736 555,-1057.5 555,-1057.5 555,-1057.5 551.4554,-1053.9736 558.1738,-1054.3098 547.9107,-1050.4471 547.9107,-1050.4471"/>
<text text-anchor="start" x="97.4335" y="-1067.5" font-family="Arial" font-size="10.00" fill="#000000">FOREIGN KEY (event_id) REFERENCES event(id) ON UPDATE CASCADE ON DELETE CASCADE</text>
</g>
<!-- public.cohort -->
<g id="node5" class="node">
<title>public.cohort</title>
<polygon fill="#efefef" stroke="transparent" points="977,-552.5 977,-587.5 1220,-587.5 1220,-552.5 977,-552.5"/>
<polygon fill="none" stroke="#000000" points="977,-552.5 977,-587.5 1220,-587.5 1220,-552.5 977,-552.5"/>
<text text-anchor="start" x="983.7049" y="-565.3" font-family="Arial Bold" font-size="18.00" fill="#000000">public.cohort</text>
<text text-anchor="start" x="1085.7271" y="-565.3" font-family="Arial" font-size="14.00" fill="#000000">    </text>
<text text-anchor="start" x="1119.9319" y="-565.3" font-family="Arial" font-size="14.00" fill="#666666">[BASE TABLE]</text>
<polygon fill="none" stroke="#000000" points="977,-522.5 977,-552.5 1220,-552.5 1220,-522.5 977,-522.5"/>
<text text-anchor="start" x="984" y="-533.9" font-family="Arial" font-size="14.00" fill="#000000">id    </text>
<text text-anchor="start" x="1029.094" y="-533.9" font-family="Arial" font-size="14.00" fill="#666666">[bigint]</text>
<polygon fill="none" stroke="#000000" points="977,-492.5 977,-522.5 1220,-522.5 1220,-492.5 977,-492.5"/>
<text text-anchor="start" x="984" y="-503.9" font-family="Arial" font-size="14.00" fill="#000000">tenant_id    </text>
<text text-anchor="start" x="1075.7882" y="-503.9" font-family="Arial" font-size="14.00" fill="#666666">[bigint]</text>
<polygon fill="none" stroke="#000000" points="977,-462.5 977,-492.5 1220,-492.5 1220,-462.5 977,-462.5"/>
<text text-anchor="start" x="984" y="-473.9" font-family="Arial" font-size="14.00" fill="#000000">cohort_group_id    </text>
<text text-anchor="start" x="1119.3492" y="-473.9" font-family="Arial" font-size="14.00" fill="#666666">[bigint]</text>
<polygon fill="none" stroke="#000000" points="977,-432.5 977,-462.5 1220,-462.5 1220,-432.5 977,-432.5"/>
<text text-anchor="start" x="984" y="-443.9" font-family="Arial" font-size="14.00" fill="#000000">name    </text>
<text text-anchor="start" x="1053.2132" y="-443.9" font-family="Arial" font-size="14.00" fill="#666666">[text]</text>
<polygon fill="none" stroke="#000000" points="977,-402.5 977,-432.5 1220,-432.5 1220,-402.5 977,-402.5"/>
<text text-anchor="start" x="984" y="-413.9" font-family="Arial" font-size="14.00" fill="#000000">description    </text>
<text text-anchor="start" x="1085.8822" y="-413.9" font-family="Arial" font-size="14.00" fill="#666666">[text]</text>
<polygon fill="none" stroke="#000000" points="977,-372.5 977,-402.5 1220,-402.5 1220,-372.5 977,-372.5"/>
<text text-anchor="start" x="984" y="-383.9" font-family="Arial" font-size="14.00" fill="#000000">color_rgb    </text>
<text text-anchor="start" x="1076.5456" y="-383.9" font-family="Arial" font-size="14.00" fill="#666666">[text]</text>
<polygon fill="none" stroke="#000000" points="977,-342.5 977,-372.5 1220,-372.5 1220,-342.5 977,-342.5"/>
<text text-anchor="start" x="984" y="-353.9" font-family="Arial" font-size="14.00" fill="#000000">location    </text>
<text text-anchor="start" x="1066.439" y="-353.9" font-family="Arial" font-size="14.00" fill="#666666">[text]</text>
<polygon fill="none" stroke="#000000" points="977,-312.5 977,-342.5 1220,-342.5 1220,-312.5 977,-312.5"/>
<text text-anchor="start" x="984" y="-323.9" font-family="Arial" font-size="14.00" fill="#000000">is_visible    </text>
<text text-anchor="start" x="1074.979" y="-323.9" font-family="Arial" font-size="14.00" fill="#666666">[boolean]</text>
<polygon fill="none" stroke="#000000" points="977,-282.5 977,-312.5 1220,-312.5 1220,-282.5 977,-282.5"/>
<text text-anchor="start" x="984" y="-293.9" font-family="Arial" font-size="14.00" fill="#000000">ordering    </text>
<text text-anchor="start" x="1069.5456" y="-293.9" font-family="Arial" font-size="14.00" fill="#666666">[integer]</text>
</g>
<!-- public.event_target_cohort&#45;&gt;public.cohort -->
<g id="edge4" class="edge">
<title>public.event_target_cohort:cohort_id&#45;&gt;public.cohort:id</title>
<path fill="none" stroke="#000000" d="M918.1096,-1025.9153C1008.2283,-995.5011 870.6879,-537.5 977,-537.5"/>
<polygon fill="#000000" stroke="#000000" points="917.8794,-1025.9513 907.3031,-1023.0543 912.9397,-1026.7256 908,-1027.5 908,-1027.5 908,-1027.5 912.9397,-1026.7256 908.6969,-1031.9457 917.8794,-1025.9513 917.8794,-1025.9513"/>
<text text-anchor="start" x="915.4965" y="-1037.5" font-family="Arial" font-size="10.00" fill="#000000">FOREIGN KEY (cohort_id) REFERENCES cohort(id)</text>
</g>
<!-- public.event_registration -->
<g id="node2" class="node">
<title>public.event_registration</title>
<polygon fill="#efefef" stroke="transparent" points="564,-1562.5 564,-1597.5 900,-1597.5 900,-1562.5 564,-1562.5"/>
<polygon fill="none" stroke="#000000" points="564,-1562.5 564,-1597.5 900,-1597.5 900,-1562.5 564,-1562.5"/>
<text text-anchor="start" x="570.6938" y="-1575.3" font-family="Arial Bold" font-size="18.00" fill="#000000">public.event_registration</text>
<text text-anchor="start" x="765.7382" y="-1575.3" font-family="Arial" font-size="14.00" fill="#000000">    </text>
<text text-anchor="start" x="799.943" y="-1575.3" font-family="Arial" font-size="14.00" fill="#666666">[BASE TABLE]</text>
<polygon fill="none" stroke="#000000" points="564,-1532.5 564,-1562.5 900,-1562.5 900,-1532.5 564,-1532.5"/>
<text text-anchor="start" x="571" y="-1543.9" font-family="Arial" font-size="14.00" fill="#000000">id    </text>
<text text-anchor="start" x="616.094" y="-1543.9" font-family="Arial" font-size="14.00" fill="#666666">[bigint]</text>
<polygon fill="none" stroke="#000000" points="564,-1502.5 564,-1532.5 900,-1532.5 900,-1502.5 564,-1502.5"/>
<text text-anchor="start" x="571" y="-1513.9" font-family="Arial" font-size="14.00" fill="#000000">tenant_id    </text>
<text text-anchor="start" x="662.7882" y="-1513.9" font-family="Arial" font-size="14.00" fill="#666666">[bigint]</text>
<polygon fill="none" stroke="#000000" points="564,-1472.5 564,-1502.5 900,-1502.5 900,-1472.5 564,-1472.5"/>
<text text-anchor="start" x="571" y="-1483.9" font-family="Arial" font-size="14.00" fill="#000000">event_id    </text>
<text text-anchor="start" x="658.115" y="-1483.9" font-family="Arial" font-size="14.00" fill="#666666">[bigint]</text>
<polygon fill="none" stroke="#000000" points="564,-1442.5 564,-1472.5 900,-1472.5 900,-1442.5 564,-1442.5"/>
<text text-anchor="start" x="571" y="-1453.9" font-family="Arial" font-size="14.00" fill="#000000">target_cohort_id    </text>
<text text-anchor="start" x="706.3478" y="-1453.9" font-family="Arial" font-size="14.00" fill="#666666">[bigint]</text>
<polygon fill="none" stroke="#000000" points="564,-1412.5 564,-1442.5 900,-1442.5 900,-1412.5 564,-1412.5"/>
<text text-anchor="start" x="571" y="-1423.9" font-family="Arial" font-size="14.00" fill="#000000">couple_id    </text>
<text text-anchor="start" x="665.1136" y="-1423.9" font-family="Arial" font-size="14.00" fill="#666666">[bigint]</text>
<polygon fill="none" stroke="#000000" points="564,-1382.5 564,-1412.5 900,-1412.5 900,-1382.5 564,-1382.5"/>
<text text-anchor="start" x="571" y="-1393.9" font-family="Arial" font-size="14.00" fill="#000000">person_id    </text>
<text text-anchor="start" x="666.6676" y="-1393.9" font-family="Arial" font-size="14.00" fill="#666666">[bigint]</text>
<polygon fill="none" stroke="#000000" points="564,-1352.5 564,-1382.5 900,-1382.5 900,-1352.5 564,-1352.5"/>
<text text-anchor="start" x="571" y="-1363.9" font-family="Arial" font-size="14.00" fill="#000000">note    </text>
<text text-anchor="start" x="632.4432" y="-1363.9" font-family="Arial" font-size="14.00" fill="#666666">[text]</text>
<polygon fill="none" stroke="#000000" points="564,-1322.5 564,-1352.5 900,-1352.5 900,-1322.5 564,-1322.5"/>
<text text-anchor="start" x="571" y="-1333.9" font-family="Arial" font-size="14.00" fill="#000000">created_at    </text>
<text text-anchor="start" x="671.3422" y="-1333.9" font-family="Arial" font-size="14.00" fill="#666666">[timestamp with time zone]</text>
<polygon fill="none" stroke="#000000" points="564,-1292.5 564,-1322.5 900,-1322.5 900,-1292.5 564,-1292.5"/>
<text text-anchor="start" x="571" y="-1303.9" font-family="Arial" font-size="14.00" fill="#000000">updated_at    </text>
<text text-anchor="start" x="675.2468" y="-1303.9" font-family="Arial" font-size="14.00" fill="#666666">[timestamp with time zone]</text>
</g>
<!-- public.event_registration&#45;&gt;public.event_target_cohort -->
<g id="edge1" class="edge">
<title>public.event_registration:target_cohort_id&#45;&gt;public.event_target_cohort:id</title>
<path fill="none" stroke="#000000" d="M553.749,-1456.8763C474.2081,-1446.7497 504.687,-1315.8441 564,-1250 615.4435,-1192.892 856.5565,-1271.108 908,-1214 936.7054,-1182.1338 950.8889,-1117.5 908,-1117.5"/>
<polygon fill="#000000" stroke="#000000" points="554.0185,-1456.8926 563.7267,-1461.9917 559.0092,-1457.1963 564,-1457.5 564,-1457.5 564,-1457.5 559.0092,-1457.1963 564.2733,-1453.0083 554.0185,-1456.8926 554.0185,-1456.8926"/>
<text text-anchor="start" x="6.974" y="-1467.5" font-family="Arial" font-size="10.00" fill="#000000">FOREIGN KEY (target_cohort_id) REFERENCES event_target_cohort(id) ON UPDATE CASCADE ON DELETE CASCADE</text>
</g>
</g>
</svg>
