<?xml version="1.0" encoding="UTF-8" standalone="no"?>
<!DOCTYPE svg PUBLIC "-//W3C//DTD SVG 1.1//EN"
 "http://www.w3.org/Graphics/SVG/1.1/DTD/svg11.dtd">
<!-- Generated by graphviz version 2.40.1 (20161225.0304)
 -->
<!-- Title: public.room Pages: 1 -->
<svg width="882pt" height="749pt"
 viewBox="0.00 0.00 882.00 749.00" xmlns="http://www.w3.org/2000/svg" xmlns:xlink="http://www.w3.org/1999/xlink">
<g id="graph0" class="graph" transform="scale(1 1) rotate(0) translate(4 745)">
<title>public.room</title>
<polygon fill="#ffffff" stroke="transparent" points="-4,4 -4,-745 878,-745 878,4 -4,4"/>
<!-- public.room -->
<g id="node1" class="node">
<title>public.room</title>
<polygon fill="#efefef" stroke="transparent" points="242,-442.5 242,-477.5 476,-477.5 476,-442.5 242,-442.5"/>
<polygon fill="none" stroke="#000000" points="242,-442.5 242,-477.5 476,-477.5 476,-442.5 242,-442.5"/>
<text text-anchor="start" x="248.713" y="-455.3" font-family="Arial Bold" font-size="18.00" fill="#000000">public.room</text>
<text text-anchor="start" x="341.719" y="-455.3" font-family="Arial" font-size="14.00" fill="#000000">    </text>
<text text-anchor="start" x="375.9238" y="-455.3" font-family="Arial" font-size="14.00" fill="#666666">[BASE TABLE]</text>
<polygon fill="none" stroke="#000000" points="242,-412.5 242,-442.5 476,-442.5 476,-412.5 242,-412.5"/>
<text text-anchor="start" x="249" y="-423.9" font-family="Arial" font-size="14.00" fill="#000000">id </text>
<text text-anchor="start" x="263.7798" y="-423.9" font-family="Arial" font-size="14.00" fill="#666666">[bigint]</text>
<polygon fill="none" stroke="#000000" points="242,-382.5 242,-412.5 476,-412.5 476,-382.5 242,-382.5"/>
<text text-anchor="start" x="249" y="-393.9" font-family="Arial" font-size="14.00" fill="#000000">name </text>
<text text-anchor="start" x="287.899" y="-393.9" font-family="Arial" font-size="14.00" fill="#666666">[text]</text>
<polygon fill="none" stroke="#000000" points="242,-352.5 242,-382.5 476,-382.5 476,-352.5 242,-352.5"/>
<text text-anchor="start" x="249" y="-363.9" font-family="Arial" font-size="14.00" fill="#000000">description </text>
<text text-anchor="start" x="320.568" y="-363.9" font-family="Arial" font-size="14.00" fill="#666666">[jsonb]</text>
<polygon fill="none" stroke="#000000" points="242,-322.5 242,-352.5 476,-352.5 476,-322.5 242,-322.5"/>
<text text-anchor="start" x="249" y="-333.9" font-family="Arial" font-size="14.00" fill="#000000">location </text>
<text text-anchor="start" x="301.1248" y="-333.9" font-family="Arial" font-size="14.00" fill="#666666">[bigint]</text>
<polygon fill="none" stroke="#000000" stroke-width="3" points="240.5,-321.5 240.5,-479.5 477.5,-479.5 477.5,-321.5 240.5,-321.5"/>
</g>
<!-- public.location -->
<g id="node3" class="node">
<title>public.location</title>
<polygon fill="#efefef" stroke="transparent" points="231,-162.5 231,-197.5 486,-197.5 486,-162.5 231,-162.5"/>
<polygon fill="none" stroke="#000000" points="231,-162.5 231,-197.5 486,-197.5 486,-162.5 231,-162.5"/>
<text text-anchor="start" x="237.7037" y="-175.3" font-family="Arial Bold" font-size="18.00" fill="#000000">public.location</text>
<text text-anchor="start" x="351.7283" y="-175.3" font-family="Arial" font-size="14.00" fill="#000000">    </text>
<text text-anchor="start" x="385.9331" y="-175.3" font-family="Arial" font-size="14.00" fill="#666666">[BASE TABLE]</text>
<polygon fill="none" stroke="#000000" points="231,-132.5 231,-162.5 486,-162.5 486,-132.5 231,-132.5"/>
<text text-anchor="start" x="238" y="-143.9" font-family="Arial" font-size="14.00" fill="#000000">id    </text>
<text text-anchor="start" x="283.094" y="-143.9" font-family="Arial" font-size="14.00" fill="#666666">[bigint]</text>
<polygon fill="none" stroke="#000000" points="231,-102.5 231,-132.5 486,-132.5 486,-102.5 231,-102.5"/>
<text text-anchor="start" x="238" y="-113.9" font-family="Arial" font-size="14.00" fill="#000000">name    </text>
<text text-anchor="start" x="307.2132" y="-113.9" font-family="Arial" font-size="14.00" fill="#666666">[text]</text>
<polygon fill="none" stroke="#000000" points="231,-72.5 231,-102.5 486,-102.5 486,-72.5 231,-72.5"/>
<text text-anchor="start" x="238" y="-83.9" font-family="Arial" font-size="14.00" fill="#000000">description    </text>
<text text-anchor="start" x="339.8822" y="-83.9" font-family="Arial" font-size="14.00" fill="#666666">[jsonb]</text>
<polygon fill="none" stroke="#000000" points="231,-42.5 231,-72.5 486,-72.5 486,-42.5 231,-42.5"/>
<text text-anchor="start" x="238" y="-53.9" font-family="Arial" font-size="14.00" fill="#000000">address    </text>
<text text-anchor="start" x="321.9958" y="-53.9" font-family="Arial" font-size="14.00" fill="#666666">[address_domain]</text>
</g>
<!-- public.room&#45;&gt;public.location -->
<g id="edge2" class="edge">
<title>public.room:location&#45;&gt;public.location:id</title>
<path fill="none" stroke="#000000" d="M359.8251,-312.4619C369.1855,-259.9823 455.5975,-296.6345 486,-241 505.9274,-204.5341 527.5556,-147.5 486,-147.5"/>
<polygon fill="#000000" stroke="#000000" points="359.8193,-312.5336 354.5151,-322.1313 359.4097,-317.5168 359,-322.5 359,-322.5 359,-322.5 359.4097,-317.5168 363.4849,-322.8687 359.8193,-312.5336 359.8193,-312.5336"/>
<text text-anchor="start" x="7.216" y="-332.5" font-family="Arial" font-size="10.00" fill="#000000">FOREIGN KEY (location) REFERENCES location(id) ON DELETE CASCADE</text>
</g>
<!-- public.room_attachment -->
<g id="node2" class="node">
<title>public.room_attachment</title>
<polygon fill="#efefef" stroke="transparent" points="192,-662.5 192,-697.5 525,-697.5 525,-662.5 192,-662.5"/>
<polygon fill="none" stroke="#000000" points="192,-662.5 192,-697.5 525,-697.5 525,-662.5 192,-662.5"/>
<text text-anchor="start" x="198.695" y="-675.3" font-family="Arial Bold" font-size="18.00" fill="#000000">public.room_attachment</text>
<text text-anchor="start" x="390.737" y="-675.3" font-family="Arial" font-size="14.00" fill="#000000">    </text>
<text text-anchor="start" x="424.9418" y="-675.3" font-family="Arial" font-size="14.00" fill="#666666">[BASE TABLE]</text>
<polygon fill="none" stroke="#000000" points="192,-632.5 192,-662.5 525,-662.5 525,-632.5 192,-632.5"/>
<text text-anchor="start" x="199" y="-643.9" font-family="Arial" font-size="14.00" fill="#000000">room_id    </text>
<text text-anchor="start" x="283.763" y="-643.9" font-family="Arial" font-size="14.00" fill="#666666">[bigint]</text>
<polygon fill="none" stroke="#000000" points="192,-602.5 192,-632.5 525,-632.5 525,-602.5 192,-602.5"/>
<text text-anchor="start" x="199" y="-613.9" font-family="Arial" font-size="14.00" fill="#000000">object_name    </text>
<text text-anchor="start" x="313.3408" y="-613.9" font-family="Arial" font-size="14.00" fill="#666666">[text]</text>
</g>
<!-- public.room_attachment&#45;&gt;public.room -->
<g id="edge1" class="edge">
<title>public.room_attachment:room_id&#45;&gt;public.room:id</title>
<path fill="none" stroke="#000000" d="M534.9403,-645.913C561.1945,-636.3876 548.1948,-586.3323 525,-560 441.1925,-464.8561 325.8075,-619.1439 242,-524 213.651,-491.8163 199.1111,-427.5 242,-427.5"/>
<polygon fill="#000000" stroke="#000000" points="534.8749,-645.9233 524.2905,-643.0563 529.9375,-646.7117 525,-647.5 525,-647.5 525,-647.5 529.9375,-646.7117 525.7095,-651.9437 534.8749,-645.9233 534.8749,-645.9233"/>
<text text-anchor="start" x="532.2245" y="-657.5" font-family="Arial" font-size="10.00" fill="#000000">FOREIGN KEY (room_id) REFERENCES room(id) ON DELETE CASCADE</text>
</g>
</g>
</svg>
