<?xml version="1.0" encoding="UTF-8" standalone="no"?>
<!DOCTYPE svg PUBLIC "-//W3C//DTD SVG 1.1//EN"
 "http://www.w3.org/Graphics/SVG/1.1/DTD/svg11.dtd">
<!-- Generated by graphviz version 2.40.1 (20161225.0304)
 -->
<!-- Title: public.tenant_location Pages: 1 -->
<svg width="801pt" height="1679pt"
 viewBox="0.00 0.00 800.50 1679.00" xmlns="http://www.w3.org/2000/svg" xmlns:xlink="http://www.w3.org/1999/xlink">
<g id="graph0" class="graph" transform="scale(1 1) rotate(0) translate(4 1675)">
<title>public.tenant_location</title>
<polygon fill="#ffffff" stroke="transparent" points="-4,4 -4,-1675 796.5,-1675 796.5,4 -4,4"/>
<!-- public.tenant_location -->
<g id="node1" class="node">
<title>public.tenant_location</title>
<polygon fill="#efefef" stroke="transparent" points="249,-682.5 249,-717.5 564,-717.5 564,-682.5 249,-682.5"/>
<polygon fill="none" stroke="#000000" points="249,-682.5 249,-717.5 564,-717.5 564,-682.5 249,-682.5"/>
<text text-anchor="start" x="255.686" y="-695.3" font-family="Arial Bold" font-size="18.00" fill="#000000">public.tenant_location</text>
<text text-anchor="start" x="429.746" y="-695.3" font-family="Arial" font-size="14.00" fill="#000000">    </text>
<text text-anchor="start" x="463.9508" y="-695.3" font-family="Arial" font-size="14.00" fill="#666666">[BASE TABLE]</text>
<polygon fill="none" stroke="#000000" points="249,-652.5 249,-682.5 564,-682.5 564,-652.5 249,-652.5"/>
<text text-anchor="start" x="256" y="-663.9" font-family="Arial" font-size="14.00" fill="#000000">id </text>
<text text-anchor="start" x="270.7798" y="-663.9" font-family="Arial" font-size="14.00" fill="#666666">[bigint]</text>
<polygon fill="none" stroke="#000000" points="249,-622.5 249,-652.5 564,-652.5 564,-622.5 249,-622.5"/>
<text text-anchor="start" x="256" y="-633.9" font-family="Arial" font-size="14.00" fill="#000000">name </text>
<text text-anchor="start" x="294.899" y="-633.9" font-family="Arial" font-size="14.00" fill="#666666">[text]</text>
<polygon fill="none" stroke="#000000" points="249,-592.5 249,-622.5 564,-622.5 564,-592.5 249,-592.5"/>
<text text-anchor="start" x="256" y="-603.9" font-family="Arial" font-size="14.00" fill="#000000">description </text>
<text text-anchor="start" x="327.568" y="-603.9" font-family="Arial" font-size="14.00" fill="#666666">[text]</text>
<polygon fill="none" stroke="#000000" points="249,-562.5 249,-592.5 564,-592.5 564,-562.5 249,-562.5"/>
<text text-anchor="start" x="256" y="-573.9" font-family="Arial" font-size="14.00" fill="#000000">address </text>
<text text-anchor="start" x="309.6816" y="-573.9" font-family="Arial" font-size="14.00" fill="#666666">[address_domain]</text>
<polygon fill="none" stroke="#000000" points="249,-532.5 249,-562.5 564,-562.5 564,-532.5 249,-532.5"/>
<text text-anchor="start" x="256" y="-543.9" font-family="Arial" font-size="14.00" fill="#000000">is_public </text>
<text text-anchor="start" x="314.3408" y="-543.9" font-family="Arial" font-size="14.00" fill="#666666">[boolean]</text>
<polygon fill="none" stroke="#000000" points="249,-502.5 249,-532.5 564,-532.5 564,-502.5 249,-502.5"/>
<text text-anchor="start" x="256" y="-513.9" font-family="Arial" font-size="14.00" fill="#000000">tenant_id </text>
<text text-anchor="start" x="317.474" y="-513.9" font-family="Arial" font-size="14.00" fill="#666666">[bigint]</text>
<polygon fill="none" stroke="#000000" points="249,-472.5 249,-502.5 564,-502.5 564,-472.5 249,-472.5"/>
<text text-anchor="start" x="256" y="-483.9" font-family="Arial" font-size="14.00" fill="#000000">created_at </text>
<text text-anchor="start" x="326.028" y="-483.9" font-family="Arial" font-size="14.00" fill="#666666">[timestamp with time zone]</text>
<polygon fill="none" stroke="#000000" points="249,-442.5 249,-472.5 564,-472.5 564,-442.5 249,-442.5"/>
<text text-anchor="start" x="256" y="-453.9" font-family="Arial" font-size="14.00" fill="#000000">updated_at </text>
<text text-anchor="start" x="329.9326" y="-453.9" font-family="Arial" font-size="14.00" fill="#666666">[timestamp with time zone]</text>
<polygon fill="none" stroke="#000000" stroke-width="3" points="247,-441.5 247,-719.5 565,-719.5 565,-441.5 247,-441.5"/>
</g>
<!-- public.tenant -->
<g id="node4" class="node">
<title>public.tenant</title>
<polygon fill="#efefef" stroke="transparent" points="285,-282.5 285,-317.5 528,-317.5 528,-282.5 285,-282.5"/>
<polygon fill="none" stroke="#000000" points="285,-282.5 285,-317.5 528,-317.5 528,-282.5 285,-282.5"/>
<text text-anchor="start" x="291.6968" y="-295.3" font-family="Arial Bold" font-size="18.00" fill="#000000">public.tenant</text>
<text text-anchor="start" x="393.7352" y="-295.3" font-family="Arial" font-size="14.00" fill="#000000">    </text>
<text text-anchor="start" x="427.94" y="-295.3" font-family="Arial" font-size="14.00" fill="#666666">[BASE TABLE]</text>
<polygon fill="none" stroke="#000000" points="285,-252.5 285,-282.5 528,-282.5 528,-252.5 285,-252.5"/>
<text text-anchor="start" x="292" y="-263.9" font-family="Arial" font-size="14.00" fill="#000000">id    </text>
<text text-anchor="start" x="337.094" y="-263.9" font-family="Arial" font-size="14.00" fill="#666666">[bigint]</text>
<polygon fill="none" stroke="#000000" points="285,-222.5 285,-252.5 528,-252.5 528,-222.5 285,-222.5"/>
<text text-anchor="start" x="292" y="-233.9" font-family="Arial" font-size="14.00" fill="#000000">name    </text>
<text text-anchor="start" x="361.2132" y="-233.9" font-family="Arial" font-size="14.00" fill="#666666">[text]</text>
<polygon fill="none" stroke="#000000" points="285,-192.5 285,-222.5 528,-222.5 528,-192.5 285,-192.5"/>
<text text-anchor="start" x="292" y="-203.9" font-family="Arial" font-size="14.00" fill="#000000">origins    </text>
<text text-anchor="start" x="367.4264" y="-203.9" font-family="Arial" font-size="14.00" fill="#666666">[text[]]</text>
<polygon fill="none" stroke="#000000" points="285,-162.5 285,-192.5 528,-192.5 528,-162.5 285,-162.5"/>
<text text-anchor="start" x="292" y="-173.9" font-family="Arial" font-size="14.00" fill="#000000">cz_ico    </text>
<text text-anchor="start" x="365.8766" y="-173.9" font-family="Arial" font-size="14.00" fill="#666666">[text]</text>
<polygon fill="none" stroke="#000000" points="285,-132.5 285,-162.5 528,-162.5 528,-132.5 285,-132.5"/>
<text text-anchor="start" x="292" y="-143.9" font-family="Arial" font-size="14.00" fill="#000000">cz_dic    </text>
<text text-anchor="start" x="365.8766" y="-143.9" font-family="Arial" font-size="14.00" fill="#666666">[text]</text>
<polygon fill="none" stroke="#000000" points="285,-102.5 285,-132.5 528,-132.5 528,-102.5 285,-102.5"/>
<text text-anchor="start" x="292" y="-113.9" font-family="Arial" font-size="14.00" fill="#000000">address    </text>
<text text-anchor="start" x="375.9958" y="-113.9" font-family="Arial" font-size="14.00" fill="#666666">[address_domain]</text>
<polygon fill="none" stroke="#000000" points="285,-72.5 285,-102.5 528,-102.5 528,-72.5 285,-72.5"/>
<text text-anchor="start" x="292" y="-83.9" font-family="Arial" font-size="14.00" fill="#000000">description    </text>
<text text-anchor="start" x="393.8822" y="-83.9" font-family="Arial" font-size="14.00" fill="#666666">[text]</text>
<polygon fill="none" stroke="#000000" points="285,-42.5 285,-72.5 528,-72.5 528,-42.5 285,-42.5"/>
<text text-anchor="start" x="292" y="-53.9" font-family="Arial" font-size="14.00" fill="#000000">bank_account    </text>
<text text-anchor="start" x="413.3562" y="-53.9" font-family="Arial" font-size="14.00" fill="#666666">[text]</text>
</g>
<!-- public.tenant_location&#45;&gt;public.tenant -->
<g id="edge3" class="edge">
<title>public.tenant_location:tenant_id&#45;&gt;public.tenant:id</title>
<path fill="none" stroke="#000000" d="M238.908,-516.7828C139.0673,-502.1191 176.2508,-267.5 285,-267.5"/>
<polygon fill="#000000" stroke="#000000" points="239.0252,-516.7911 248.681,-521.9887 244.0126,-517.1455 249,-517.5 249,-517.5 249,-517.5 244.0126,-517.1455 249.319,-513.0113 239.0252,-516.7911 239.0252,-516.7911"/>
<text text-anchor="start" x="7.4875" y="-527.5" font-family="Arial" font-size="10.00" fill="#000000">FOREIGN KEY (tenant_id) REFERENCES tenant(id)</text>
</g>
<!-- public.event_instance -->
<g id="node2" class="node">
<title>public.event_instance</title>
<polygon fill="#efefef" stroke="transparent" points="48,-1367.5 48,-1402.5 362,-1402.5 362,-1367.5 48,-1367.5"/>
<polygon fill="none" stroke="#000000" points="48,-1367.5 48,-1402.5 362,-1402.5 362,-1367.5 48,-1367.5"/>
<text text-anchor="start" x="54.6873" y="-1380.3" font-family="Arial Bold" font-size="18.00" fill="#000000">public.event_instance</text>
<text text-anchor="start" x="227.7447" y="-1380.3" font-family="Arial" font-size="14.00" fill="#000000">    </text>
<text text-anchor="start" x="261.9495" y="-1380.3" font-family="Arial" font-size="14.00" fill="#666666">[BASE TABLE]</text>
<polygon fill="none" stroke="#000000" points="48,-1337.5 48,-1367.5 362,-1367.5 362,-1337.5 48,-1337.5"/>
<text text-anchor="start" x="55" y="-1348.9" font-family="Arial" font-size="14.00" fill="#000000">id    </text>
<text text-anchor="start" x="100.094" y="-1348.9" font-family="Arial" font-size="14.00" fill="#666666">[bigint]</text>
<polygon fill="none" stroke="#000000" points="48,-1307.5 48,-1337.5 362,-1337.5 362,-1307.5 48,-1307.5"/>
<text text-anchor="start" x="55" y="-1318.9" font-family="Arial" font-size="14.00" fill="#000000">tenant_id    </text>
<text text-anchor="start" x="146.7882" y="-1318.9" font-family="Arial" font-size="14.00" fill="#666666">[bigint]</text>
<polygon fill="none" stroke="#000000" points="48,-1277.5 48,-1307.5 362,-1307.5 362,-1277.5 48,-1277.5"/>
<text text-anchor="start" x="55" y="-1288.9" font-family="Arial" font-size="14.00" fill="#000000">event_id    </text>
<text text-anchor="start" x="142.115" y="-1288.9" font-family="Arial" font-size="14.00" fill="#666666">[bigint]</text>
<polygon fill="none" stroke="#000000" points="48,-1247.5 48,-1277.5 362,-1277.5 362,-1247.5 48,-1247.5"/>
<text text-anchor="start" x="55" y="-1258.9" font-family="Arial" font-size="14.00" fill="#000000">created_at    </text>
<text text-anchor="start" x="155.3422" y="-1258.9" font-family="Arial" font-size="14.00" fill="#666666">[timestamp with time zone]</text>
<polygon fill="none" stroke="#000000" points="48,-1217.5 48,-1247.5 362,-1247.5 362,-1217.5 48,-1217.5"/>
<text text-anchor="start" x="55" y="-1228.9" font-family="Arial" font-size="14.00" fill="#000000">updated_at    </text>
<text text-anchor="start" x="159.2468" y="-1228.9" font-family="Arial" font-size="14.00" fill="#666666">[timestamp with time zone]</text>
<polygon fill="none" stroke="#000000" points="48,-1187.5 48,-1217.5 362,-1217.5 362,-1187.5 48,-1187.5"/>
<text text-anchor="start" x="55" y="-1198.9" font-family="Arial" font-size="14.00" fill="#000000">since    </text>
<text text-anchor="start" x="121.8766" y="-1198.9" font-family="Arial" font-size="14.00" fill="#666666">[timestamp with time zone]</text>
<polygon fill="none" stroke="#000000" points="48,-1157.5 48,-1187.5 362,-1187.5 362,-1157.5 48,-1157.5"/>
<text text-anchor="start" x="55" y="-1168.9" font-family="Arial" font-size="14.00" fill="#000000">until    </text>
<text text-anchor="start" x="114.8738" y="-1168.9" font-family="Arial" font-size="14.00" fill="#666666">[timestamp with time zone]</text>
<polygon fill="none" stroke="#000000" points="48,-1127.5 48,-1157.5 362,-1157.5 362,-1127.5 48,-1127.5"/>
<text text-anchor="start" x="55" y="-1138.9" font-family="Arial" font-size="14.00" fill="#000000">range    </text>
<text text-anchor="start" x="124.9958" y="-1138.9" font-family="Arial" font-size="14.00" fill="#666666">[tstzrange]</text>
<polygon fill="none" stroke="#000000" points="48,-1097.5 48,-1127.5 362,-1127.5 362,-1097.5 48,-1097.5"/>
<text text-anchor="start" x="55" y="-1108.9" font-family="Arial" font-size="14.00" fill="#000000">location_id    </text>
<text text-anchor="start" x="156.1108" y="-1108.9" font-family="Arial" font-size="14.00" fill="#666666">[bigint]</text>
<polygon fill="none" stroke="#000000" points="48,-1067.5 48,-1097.5 362,-1097.5 362,-1067.5 48,-1067.5"/>
<text text-anchor="start" x="55" y="-1078.9" font-family="Arial" font-size="14.00" fill="#000000">is_cancelled    </text>
<text text-anchor="start" x="166.2202" y="-1078.9" font-family="Arial" font-size="14.00" fill="#666666">[boolean]</text>
</g>
<!-- public.event_instance&#45;&gt;public.tenant_location -->
<g id="edge1" class="edge">
<title>public.event_instance:location_id&#45;&gt;public.tenant_location:id</title>
<path fill="none" stroke="#000000" d="M372.0964,-1112.0923C547.9585,-1096.993 48.5322,-667.5 249,-667.5"/>
<polygon fill="#000000" stroke="#000000" points="371.9919,-1112.0965 361.8184,-1108.0037 366.9959,-1112.2982 362,-1112.5 362,-1112.5 362,-1112.5 366.9959,-1112.2982 362.1816,-1116.9963 371.9919,-1112.0965 371.9919,-1112.0965"/>
<text text-anchor="start" x="369.152" y="-1122.5" font-family="Arial" font-size="10.00" fill="#000000">FOREIGN KEY (location_id) REFERENCES tenant_location(id)</text>
</g>
<!-- public.event -->
<g id="node3" class="node">
<title>public.event</title>
<polygon fill="#efefef" stroke="transparent" points="467,-1592.5 467,-1627.5 750,-1627.5 750,-1592.5 467,-1592.5"/>
<polygon fill="none" stroke="#000000" points="467,-1592.5 467,-1627.5 750,-1627.5 750,-1592.5 467,-1592.5"/>
<text text-anchor="start" x="496.701" y="-1605.3" font-family="Arial Bold" font-size="18.00" fill="#000000">public.event</text>
<text text-anchor="start" x="592.731" y="-1605.3" font-family="Arial" font-size="14.00" fill="#000000">    </text>
<text text-anchor="start" x="626.9358" y="-1605.3" font-family="Arial" font-size="14.00" fill="#666666">[BASE TABLE]</text>
<polygon fill="none" stroke="#000000" points="467,-1562.5 467,-1592.5 750,-1592.5 750,-1562.5 467,-1562.5"/>
<text text-anchor="start" x="474" y="-1573.9" font-family="Arial" font-size="14.00" fill="#000000">id    </text>
<text text-anchor="start" x="519.094" y="-1573.9" font-family="Arial" font-size="14.00" fill="#666666">[bigint]</text>
<polygon fill="none" stroke="#000000" points="467,-1532.5 467,-1562.5 750,-1562.5 750,-1532.5 467,-1532.5"/>
<text text-anchor="start" x="474" y="-1543.9" font-family="Arial" font-size="14.00" fill="#000000">name    </text>
<text text-anchor="start" x="543.2132" y="-1543.9" font-family="Arial" font-size="14.00" fill="#666666">[text]</text>
<polygon fill="none" stroke="#000000" points="467,-1502.5 467,-1532.5 750,-1532.5 750,-1502.5 467,-1502.5"/>
<text text-anchor="start" x="474" y="-1513.9" font-family="Arial" font-size="14.00" fill="#000000">location_text    </text>
<text text-anchor="start" x="586.7854" y="-1513.9" font-family="Arial" font-size="14.00" fill="#666666">[text]</text>
<polygon fill="none" stroke="#000000" points="467,-1472.5 467,-1502.5 750,-1502.5 750,-1472.5 467,-1472.5"/>
<text text-anchor="start" x="474" y="-1483.9" font-family="Arial" font-size="14.00" fill="#000000">description    </text>
<text text-anchor="start" x="575.8822" y="-1483.9" font-family="Arial" font-size="14.00" fill="#666666">[text]</text>
<polygon fill="none" stroke="#000000" points="467,-1442.5 467,-1472.5 750,-1472.5 750,-1442.5 467,-1442.5"/>
<text text-anchor="start" x="474" y="-1453.9" font-family="Arial" font-size="14.00" fill="#000000">since    </text>
<text text-anchor="start" x="540.8766" y="-1453.9" font-family="Arial" font-size="14.00" fill="#666666">[date]</text>
<polygon fill="none" stroke="#000000" points="467,-1412.5 467,-1442.5 750,-1442.5 750,-1412.5 467,-1412.5"/>
<text text-anchor="start" x="474" y="-1423.9" font-family="Arial" font-size="14.00" fill="#000000">until    </text>
<text text-anchor="start" x="533.8738" y="-1423.9" font-family="Arial" font-size="14.00" fill="#666666">[date]</text>
<polygon fill="none" stroke="#000000" points="467,-1382.5 467,-1412.5 750,-1412.5 750,-1382.5 467,-1382.5"/>
<text text-anchor="start" x="474" y="-1393.9" font-family="Arial" font-size="14.00" fill="#000000">capacity    </text>
<text text-anchor="start" x="559.5498" y="-1393.9" font-family="Arial" font-size="14.00" fill="#666666">[integer]</text>
<polygon fill="none" stroke="#000000" points="467,-1352.5 467,-1382.5 750,-1382.5 750,-1352.5 467,-1352.5"/>
<text text-anchor="start" x="474" y="-1363.9" font-family="Arial" font-size="14.00" fill="#000000">files_legacy    </text>
<text text-anchor="start" x="581.3282" y="-1363.9" font-family="Arial" font-size="14.00" fill="#666666">[text]</text>
<polygon fill="none" stroke="#000000" points="467,-1322.5 467,-1352.5 750,-1352.5 750,-1322.5 467,-1322.5"/>
<text text-anchor="start" x="473.5344" y="-1333.9" font-family="Arial" font-size="14.00" fill="#000000">updated_at    </text>
<text text-anchor="start" x="577.7812" y="-1333.9" font-family="Arial" font-size="14.00" fill="#666666">[timestamp with time zone]</text>
<polygon fill="none" stroke="#000000" points="467,-1292.5 467,-1322.5 750,-1322.5 750,-1292.5 467,-1292.5"/>
<text text-anchor="start" x="474" y="-1303.9" font-family="Arial" font-size="14.00" fill="#000000">is_locked    </text>
<text text-anchor="start" x="566.5484" y="-1303.9" font-family="Arial" font-size="14.00" fill="#666666">[boolean]</text>
<polygon fill="none" stroke="#000000" points="467,-1262.5 467,-1292.5 750,-1292.5 750,-1262.5 467,-1262.5"/>
<text text-anchor="start" x="474" y="-1273.9" font-family="Arial" font-size="14.00" fill="#000000">is_visible    </text>
<text text-anchor="start" x="564.979" y="-1273.9" font-family="Arial" font-size="14.00" fill="#666666">[boolean]</text>
<polygon fill="none" stroke="#000000" points="467,-1232.5 467,-1262.5 750,-1262.5 750,-1232.5 467,-1232.5"/>
<text text-anchor="start" x="474" y="-1243.9" font-family="Arial" font-size="14.00" fill="#000000">summary    </text>
<text text-anchor="start" x="565.7518" y="-1243.9" font-family="Arial" font-size="14.00" fill="#666666">[text]</text>
<polygon fill="none" stroke="#000000" points="467,-1202.5 467,-1232.5 750,-1232.5 750,-1202.5 467,-1202.5"/>
<text text-anchor="start" x="474" y="-1213.9" font-family="Arial" font-size="14.00" fill="#000000">is_public    </text>
<text text-anchor="start" x="562.655" y="-1213.9" font-family="Arial" font-size="14.00" fill="#666666">[boolean]</text>
<polygon fill="none" stroke="#000000" points="467,-1172.5 467,-1202.5 750,-1202.5 750,-1172.5 467,-1172.5"/>
<text text-anchor="start" x="474" y="-1183.9" font-family="Arial" font-size="14.00" fill="#000000">enable_notes    </text>
<text text-anchor="start" x="592.2454" y="-1183.9" font-family="Arial" font-size="14.00" fill="#666666">[boolean]</text>
<polygon fill="none" stroke="#000000" points="467,-1142.5 467,-1172.5 750,-1172.5 750,-1142.5 467,-1142.5"/>
<text text-anchor="start" x="474" y="-1153.9" font-family="Arial" font-size="14.00" fill="#000000">tenant_id    </text>
<text text-anchor="start" x="565.7882" y="-1153.9" font-family="Arial" font-size="14.00" fill="#666666">[bigint]</text>
<polygon fill="none" stroke="#000000" points="467,-1112.5 467,-1142.5 750,-1142.5 750,-1112.5 467,-1112.5"/>
<text text-anchor="start" x="474" y="-1123.9" font-family="Arial" font-size="14.00" fill="#000000">description_member    </text>
<text text-anchor="start" x="634.9944" y="-1123.9" font-family="Arial" font-size="14.00" fill="#666666">[text]</text>
<polygon fill="none" stroke="#000000" points="467,-1082.5 467,-1112.5 750,-1112.5 750,-1082.5 467,-1082.5"/>
<text text-anchor="start" x="474" y="-1093.9" font-family="Arial" font-size="14.00" fill="#000000">title_image_legacy    </text>
<text text-anchor="start" x="624.1164" y="-1093.9" font-family="Arial" font-size="14.00" fill="#666666">[text]</text>
<polygon fill="none" stroke="#000000" points="467,-1052.5 467,-1082.5 750,-1082.5 750,-1052.5 467,-1052.5"/>
<text text-anchor="start" x="474" y="-1063.9" font-family="Arial" font-size="14.00" fill="#000000">type    </text>
<text text-anchor="start" x="534.6606" y="-1063.9" font-family="Arial" font-size="14.00" fill="#666666">[event_type]</text>
<polygon fill="none" stroke="#000000" points="467,-1022.5 467,-1052.5 750,-1052.5 750,-1022.5 467,-1022.5"/>
<text text-anchor="start" x="474" y="-1033.9" font-family="Arial" font-size="14.00" fill="#000000">payment_type    </text>
<text text-anchor="start" x="596.1248" y="-1033.9" font-family="Arial" font-size="14.00" fill="#666666">[event_payment_type]</text>
<polygon fill="none" stroke="#000000" points="467,-992.5 467,-1022.5 750,-1022.5 750,-992.5 467,-992.5"/>
<text text-anchor="start" x="474" y="-1003.9" font-family="Arial" font-size="14.00" fill="#000000">member_price    </text>
<text text-anchor="start" x="597.6494" y="-1003.9" font-family="Arial" font-size="14.00" fill="#666666">[price]</text>
<polygon fill="none" stroke="#000000" points="467,-962.5 467,-992.5 750,-992.5 750,-962.5 467,-962.5"/>
<text text-anchor="start" x="474" y="-973.9" font-family="Arial" font-size="14.00" fill="#000000">guest_price    </text>
<text text-anchor="start" x="580.5582" y="-973.9" font-family="Arial" font-size="14.00" fill="#666666">[price]</text>
<polygon fill="none" stroke="#000000" points="467,-932.5 467,-962.5 750,-962.5 750,-932.5 467,-932.5"/>
<text text-anchor="start" x="474" y="-943.9" font-family="Arial" font-size="14.00" fill="#000000">location_id    </text>
<text text-anchor="start" x="575.1108" y="-943.9" font-family="Arial" font-size="14.00" fill="#666666">[bigint]</text>
<polygon fill="none" stroke="#000000" points="467,-902.5 467,-932.5 750,-932.5 750,-902.5 467,-902.5"/>
<text text-anchor="start" x="474" y="-913.9" font-family="Arial" font-size="14.00" fill="#000000">is_paid_by_tenant    </text>
<text text-anchor="start" x="621.8078" y="-913.9" font-family="Arial" font-size="14.00" fill="#666666">[boolean]</text>
<polygon fill="none" stroke="#000000" points="467,-872.5 467,-902.5 750,-902.5 750,-872.5 467,-872.5"/>
<text text-anchor="start" x="474" y="-883.9" font-family="Arial" font-size="14.00" fill="#000000">payment_recipient_id    </text>
<text text-anchor="start" x="641.2356" y="-883.9" font-family="Arial" font-size="14.00" fill="#666666">[bigint]</text>
<polygon fill="none" stroke="#000000" points="467,-842.5 467,-872.5 750,-872.5 750,-842.5 467,-842.5"/>
<text text-anchor="start" x="474" y="-853.9" font-family="Arial" font-size="14.00" fill="#000000">created_at    </text>
<text text-anchor="start" x="574.3422" y="-853.9" font-family="Arial" font-size="14.00" fill="#666666">[timestamp with time zone]</text>
</g>
<!-- public.event&#45;&gt;public.tenant_location -->
<g id="edge2" class="edge">
<title>public.event:location_id&#45;&gt;public.tenant_location:id</title>
<path fill="none" stroke="#000000" d="M456.747,-946.6226C404.6602,-937.0155 431.6887,-850.77 467,-800 493.2566,-762.2487 537.7434,-801.7513 564,-764 588.4891,-728.79 606.8889,-667.5 564,-667.5"/>
<polygon fill="#000000" stroke="#000000" points="457.0364,-946.6473 466.6163,-951.9836 462.0182,-947.0737 467,-947.5 467,-947.5 467,-947.5 462.0182,-947.0737 467.3837,-943.0164 457.0364,-946.6473 457.0364,-946.6473"/>
<text text-anchor="start" x="179.152" y="-957.5" font-family="Arial" font-size="10.00" fill="#000000">FOREIGN KEY (location_id) REFERENCES tenant_location(id)</text>
</g>
</g>
</svg>
