<?xml version="1.0" encoding="UTF-8" standalone="no"?>
<!DOCTYPE svg PUBLIC "-//W3C//DTD SVG 1.1//EN"
 "http://www.w3.org/Graphics/SVG/1.1/DTD/svg11.dtd">
<!-- Generated by graphviz version 2.40.1 (20161225.0304)
 -->
<!-- Title: public.upozorneni Pages: 1 -->
<svg width="1334pt" height="1529pt"
 viewBox="0.00 0.00 1334.00 1529.00" xmlns="http://www.w3.org/2000/svg" xmlns:xlink="http://www.w3.org/1999/xlink">
<g id="graph0" class="graph" transform="scale(1 1) rotate(0) translate(4 1525)">
<title>public.upozorneni</title>
<polygon fill="#ffffff" stroke="transparent" points="-4,4 -4,-1525 1330,-1525 1330,4 -4,4"/>
<!-- public.upozorneni -->
<g id="node1" class="node">
<title>public.upozorneni</title>
<polygon fill="#efefef" stroke="transparent" points="474,-1102.5 474,-1137.5 776,-1137.5 776,-1102.5 474,-1102.5"/>
<polygon fill="none" stroke="#000000" points="474,-1102.5 474,-1137.5 776,-1137.5 776,-1102.5 474,-1102.5"/>
<text text-anchor="start" x="490.6965" y="-1115.3" font-family="Arial Bold" font-size="18.00" fill="#000000">public.upozorneni</text>
<text text-anchor="start" x="631.7355" y="-1115.3" font-family="Arial" font-size="14.00" fill="#000000">    </text>
<text text-anchor="start" x="665.9403" y="-1115.3" font-family="Arial" font-size="14.00" fill="#666666">[BASE TABLE]</text>
<polygon fill="none" stroke="#000000" points="474,-1072.5 474,-1102.5 776,-1102.5 776,-1072.5 474,-1072.5"/>
<text text-anchor="start" x="481" y="-1083.9" font-family="Arial" font-size="14.00" fill="#000000">up_id </text>
<text text-anchor="start" x="519.1276" y="-1083.9" font-family="Arial" font-size="14.00" fill="#666666">[bigint]</text>
<polygon fill="none" stroke="#000000" points="474,-1042.5 474,-1072.5 776,-1072.5 776,-1042.5 474,-1042.5"/>
<text text-anchor="start" x="481" y="-1053.9" font-family="Arial" font-size="14.00" fill="#000000">up_kdo </text>
<text text-anchor="start" x="530.8036" y="-1053.9" font-family="Arial" font-size="14.00" fill="#666666">[bigint]</text>
<polygon fill="none" stroke="#000000" points="474,-1012.5 474,-1042.5 776,-1042.5 776,-1012.5 474,-1012.5"/>
<text text-anchor="start" x="481" y="-1023.9" font-family="Arial" font-size="14.00" fill="#000000">up_nadpis </text>
<text text-anchor="start" x="549.4754" y="-1023.9" font-family="Arial" font-size="14.00" fill="#666666">[text]</text>
<polygon fill="none" stroke="#000000" points="474,-982.5 474,-1012.5 776,-1012.5 776,-982.5 474,-982.5"/>
<text text-anchor="start" x="481" y="-993.9" font-family="Arial" font-size="14.00" fill="#000000">up_text </text>
<text text-anchor="start" x="530.8022" y="-993.9" font-family="Arial" font-size="14.00" fill="#666666">[text]</text>
<polygon fill="none" stroke="#000000" points="474,-952.5 474,-982.5 776,-982.5 776,-952.5 474,-952.5"/>
<text text-anchor="start" x="481" y="-963.9" font-family="Arial" font-size="14.00" fill="#000000">up_lock </text>
<text text-anchor="start" x="533.1276" y="-963.9" font-family="Arial" font-size="14.00" fill="#666666">[boolean]</text>
<polygon fill="none" stroke="#000000" points="474,-922.5 474,-952.5 776,-952.5 776,-922.5 474,-922.5"/>
<text text-anchor="start" x="481" y="-933.9" font-family="Arial" font-size="14.00" fill="#000000">updated_at </text>
<text text-anchor="start" x="554.9326" y="-933.9" font-family="Arial" font-size="14.00" fill="#666666">[timestamp with time zone]</text>
<polygon fill="none" stroke="#000000" points="474,-892.5 474,-922.5 776,-922.5 776,-892.5 474,-892.5"/>
<text text-anchor="start" x="481" y="-903.9" font-family="Arial" font-size="14.00" fill="#000000">created_at </text>
<text text-anchor="start" x="551.028" y="-903.9" font-family="Arial" font-size="14.00" fill="#666666">[timestamp with time zone]</text>
<polygon fill="none" stroke="#000000" points="474,-862.5 474,-892.5 776,-892.5 776,-862.5 474,-862.5"/>
<text text-anchor="start" x="481" y="-873.9" font-family="Arial" font-size="14.00" fill="#000000">scheduled_since </text>
<text text-anchor="start" x="589.1472" y="-873.9" font-family="Arial" font-size="14.00" fill="#666666">[timestamp with time zone]</text>
<polygon fill="none" stroke="#000000" points="474,-832.5 474,-862.5 776,-862.5 776,-832.5 474,-832.5"/>
<text text-anchor="start" x="481" y="-843.9" font-family="Arial" font-size="14.00" fill="#000000">scheduled_until </text>
<text text-anchor="start" x="582.1444" y="-843.9" font-family="Arial" font-size="14.00" fill="#666666">[timestamp with time zone]</text>
<polygon fill="none" stroke="#000000" points="474,-802.5 474,-832.5 776,-832.5 776,-802.5 474,-802.5"/>
<text text-anchor="start" x="481" y="-813.9" font-family="Arial" font-size="14.00" fill="#000000">is_visible </text>
<text text-anchor="start" x="541.6648" y="-813.9" font-family="Arial" font-size="14.00" fill="#666666">[boolean]</text>
<polygon fill="none" stroke="#000000" points="474,-772.5 474,-802.5 776,-802.5 776,-772.5 474,-772.5"/>
<text text-anchor="start" x="481" y="-783.9" font-family="Arial" font-size="14.00" fill="#000000">id </text>
<text text-anchor="start" x="495.7798" y="-783.9" font-family="Arial" font-size="14.00" fill="#666666">[bigint]</text>
<polygon fill="none" stroke="#000000" points="474,-742.5 474,-772.5 776,-772.5 776,-742.5 474,-742.5"/>
<text text-anchor="start" x="481" y="-753.9" font-family="Arial" font-size="14.00" fill="#000000">tenant_id </text>
<text text-anchor="start" x="542.474" y="-753.9" font-family="Arial" font-size="14.00" fill="#666666">[bigint]</text>
<polygon fill="none" stroke="#000000" points="474,-712.5 474,-742.5 776,-742.5 776,-712.5 474,-712.5"/>
<text text-anchor="start" x="481" y="-723.9" font-family="Arial" font-size="14.00" fill="#000000">sticky </text>
<text text-anchor="start" x="519.8878" y="-723.9" font-family="Arial" font-size="14.00" fill="#666666">[boolean]</text>
<polygon fill="none" stroke="#000000" points="474,-682.5 474,-712.5 776,-712.5 776,-682.5 474,-682.5"/>
<text text-anchor="start" x="481" y="-693.9" font-family="Arial" font-size="14.00" fill="#000000">up_timestamp </text>
<text text-anchor="start" x="572.7952" y="-693.9" font-family="Arial" font-size="14.00" fill="#666666">[timestamp with time zone]</text>
<polygon fill="none" stroke="#000000" points="474,-652.5 474,-682.5 776,-682.5 776,-652.5 474,-652.5"/>
<text text-anchor="start" x="480.695" y="-663.9" font-family="Arial" font-size="14.00" fill="#000000">up_timestamp_add </text>
<text text-anchor="start" x="603.6206" y="-663.9" font-family="Arial" font-size="14.00" fill="#666666">[timestamp with time zone]</text>
<polygon fill="none" stroke="#000000" stroke-width="3" points="472.5,-651.5 472.5,-1139.5 777.5,-1139.5 777.5,-651.5 472.5,-651.5"/>
</g>
<!-- public.users -->
<g id="node3" class="node">
<title>public.users</title>
<polygon fill="#efefef" stroke="transparent" points="291,-492.5 291,-527.5 586,-527.5 586,-492.5 291,-492.5"/>
<polygon fill="none" stroke="#000000" points="291,-492.5 291,-527.5 586,-527.5 586,-492.5 291,-492.5"/>
<text text-anchor="start" x="326.7091" y="-505.3" font-family="Arial Bold" font-size="18.00" fill="#000000">public.users</text>
<text text-anchor="start" x="422.7229" y="-505.3" font-family="Arial" font-size="14.00" fill="#000000">    </text>
<text text-anchor="start" x="456.9277" y="-505.3" font-family="Arial" font-size="14.00" fill="#666666">[BASE TABLE]</text>
<polygon fill="none" stroke="#000000" points="291,-462.5 291,-492.5 586,-492.5 586,-462.5 291,-462.5"/>
<text text-anchor="start" x="298" y="-473.9" font-family="Arial" font-size="14.00" fill="#000000">u_id    </text>
<text text-anchor="start" x="358.6592" y="-473.9" font-family="Arial" font-size="14.00" fill="#666666">[bigint]</text>
<polygon fill="none" stroke="#000000" points="291,-432.5 291,-462.5 586,-462.5 586,-432.5 291,-432.5"/>
<text text-anchor="start" x="298" y="-443.9" font-family="Arial" font-size="14.00" fill="#000000">u_login    </text>
<text text-anchor="start" x="377.331" y="-443.9" font-family="Arial" font-size="14.00" fill="#666666">[citext]</text>
<polygon fill="none" stroke="#000000" points="291,-402.5 291,-432.5 586,-432.5 586,-402.5 291,-402.5"/>
<text text-anchor="start" x="298" y="-413.9" font-family="Arial" font-size="14.00" fill="#000000">u_pass    </text>
<text text-anchor="start" x="377.3352" y="-413.9" font-family="Arial" font-size="14.00" fill="#666666">[character(40)]</text>
<polygon fill="none" stroke="#000000" points="291,-372.5 291,-402.5 586,-402.5 586,-372.5 291,-372.5"/>
<text text-anchor="start" x="298" y="-383.9" font-family="Arial" font-size="14.00" fill="#000000">u_jmeno    </text>
<text text-anchor="start" x="385.885" y="-383.9" font-family="Arial" font-size="14.00" fill="#666666">[text]</text>
<polygon fill="none" stroke="#000000" points="291,-342.5 291,-372.5 586,-372.5 586,-342.5 291,-342.5"/>
<text text-anchor="start" x="298" y="-353.9" font-family="Arial" font-size="14.00" fill="#000000">u_prijmeni    </text>
<text text-anchor="start" x="396.7588" y="-353.9" font-family="Arial" font-size="14.00" fill="#666666">[text]</text>
<polygon fill="none" stroke="#000000" points="291,-312.5 291,-342.5 586,-342.5 586,-312.5 291,-312.5"/>
<text text-anchor="start" x="298" y="-323.9" font-family="Arial" font-size="14.00" fill="#000000">u_email    </text>
<text text-anchor="start" x="381.209" y="-323.9" font-family="Arial" font-size="14.00" fill="#666666">[citext]</text>
<polygon fill="none" stroke="#000000" points="291,-282.5 291,-312.5 586,-312.5 586,-282.5 291,-282.5"/>
<text text-anchor="start" x="298" y="-293.9" font-family="Arial" font-size="14.00" fill="#000000">updated_at    </text>
<text text-anchor="start" x="402.2468" y="-293.9" font-family="Arial" font-size="14.00" fill="#666666">[timestamp with time zone]</text>
<polygon fill="none" stroke="#000000" points="291,-252.5 291,-282.5 586,-282.5 586,-252.5 291,-252.5"/>
<text text-anchor="start" x="298" y="-263.9" font-family="Arial" font-size="14.00" fill="#000000">u_ban    </text>
<text text-anchor="start" x="371.1178" y="-263.9" font-family="Arial" font-size="14.00" fill="#666666">[boolean]</text>
<polygon fill="none" stroke="#000000" points="291,-222.5 291,-252.5 586,-252.5 586,-222.5 291,-222.5"/>
<text text-anchor="start" x="298" y="-233.9" font-family="Arial" font-size="14.00" fill="#000000">u_confirmed    </text>
<text text-anchor="start" x="409.2188" y="-233.9" font-family="Arial" font-size="14.00" fill="#666666">[boolean]</text>
<polygon fill="none" stroke="#000000" points="291,-192.5 291,-222.5 586,-222.5 586,-192.5 291,-192.5"/>
<text text-anchor="start" x="297.7041" y="-203.9" font-family="Arial" font-size="14.00" fill="#000000">u_created_at    </text>
<text text-anchor="start" x="413.6115" y="-203.9" font-family="Arial" font-size="14.00" fill="#666666">[timestamp with time zone]</text>
<polygon fill="none" stroke="#000000" points="291,-162.5 291,-192.5 586,-192.5 586,-162.5 291,-162.5"/>
<text text-anchor="start" x="298" y="-173.9" font-family="Arial" font-size="14.00" fill="#000000">id    </text>
<text text-anchor="start" x="343.094" y="-173.9" font-family="Arial" font-size="14.00" fill="#666666">[bigint]</text>
<polygon fill="none" stroke="#000000" points="291,-132.5 291,-162.5 586,-162.5 586,-132.5 291,-132.5"/>
<text text-anchor="start" x="298" y="-143.9" font-family="Arial" font-size="14.00" fill="#000000">tenant_id    </text>
<text text-anchor="start" x="389.7882" y="-143.9" font-family="Arial" font-size="14.00" fill="#666666">[bigint]</text>
<polygon fill="none" stroke="#000000" points="291,-102.5 291,-132.5 586,-132.5 586,-102.5 291,-102.5"/>
<text text-anchor="start" x="298" y="-113.9" font-family="Arial" font-size="14.00" fill="#000000">last_login    </text>
<text text-anchor="start" x="391.3282" y="-113.9" font-family="Arial" font-size="14.00" fill="#666666">[timestamp with time zone]</text>
<polygon fill="none" stroke="#000000" points="291,-72.5 291,-102.5 586,-102.5 586,-72.5 291,-72.5"/>
<text text-anchor="start" x="298" y="-83.9" font-family="Arial" font-size="14.00" fill="#000000">created_at    </text>
<text text-anchor="start" x="398.3422" y="-83.9" font-family="Arial" font-size="14.00" fill="#666666">[timestamp with time zone]</text>
<polygon fill="none" stroke="#000000" points="291,-42.5 291,-72.5 586,-72.5 586,-42.5 291,-42.5"/>
<text text-anchor="start" x="298" y="-53.9" font-family="Arial" font-size="14.00" fill="#000000">u_timestamp    </text>
<text text-anchor="start" x="412.3268" y="-53.9" font-family="Arial" font-size="14.00" fill="#666666">[timestamp with time zone]</text>
</g>
<!-- public.upozorneni&#45;&gt;public.users -->
<g id="edge2" class="edge">
<title>public.upozorneni:up_kdo&#45;&gt;public.users:u_id</title>
<path fill="none" stroke="#000000" d="M463.981,-1057.2491C276.6005,-1047.6693 358.0721,-766.0319 474,-607 504.7998,-564.7484 555.2002,-613.2516 586,-571 610.4788,-537.4195 627.5556,-477.5 586,-477.5"/>
<polygon fill="#000000" stroke="#000000" points="464.0031,-1057.2496 473.8873,-1061.9986 469.0016,-1057.3748 474,-1057.5 474,-1057.5 474,-1057.5 469.0016,-1057.3748 474.1127,-1053.0014 464.0031,-1057.2496 464.0031,-1057.2496"/>
<text text-anchor="start" x="6.719" y="-1067.5" font-family="Arial" font-size="10.00" fill="#000000">FOREIGN KEY (up_kdo) REFERENCES users(u_id) ON UPDATE RESTRICT ON DELETE RESTRICT</text>
</g>
<!-- public.tenant -->
<g id="node4" class="node">
<title>public.tenant</title>
<polygon fill="#efefef" stroke="transparent" points="690,-387.5 690,-422.5 933,-422.5 933,-387.5 690,-387.5"/>
<polygon fill="none" stroke="#000000" points="690,-387.5 690,-422.5 933,-422.5 933,-387.5 690,-387.5"/>
<text text-anchor="start" x="696.6968" y="-400.3" font-family="Arial Bold" font-size="18.00" fill="#000000">public.tenant</text>
<text text-anchor="start" x="798.7352" y="-400.3" font-family="Arial" font-size="14.00" fill="#000000">    </text>
<text text-anchor="start" x="832.94" y="-400.3" font-family="Arial" font-size="14.00" fill="#666666">[BASE TABLE]</text>
<polygon fill="none" stroke="#000000" points="690,-357.5 690,-387.5 933,-387.5 933,-357.5 690,-357.5"/>
<text text-anchor="start" x="697" y="-368.9" font-family="Arial" font-size="14.00" fill="#000000">id    </text>
<text text-anchor="start" x="742.094" y="-368.9" font-family="Arial" font-size="14.00" fill="#666666">[bigint]</text>
<polygon fill="none" stroke="#000000" points="690,-327.5 690,-357.5 933,-357.5 933,-327.5 690,-327.5"/>
<text text-anchor="start" x="697" y="-338.9" font-family="Arial" font-size="14.00" fill="#000000">name    </text>
<text text-anchor="start" x="766.2132" y="-338.9" font-family="Arial" font-size="14.00" fill="#666666">[text]</text>
<polygon fill="none" stroke="#000000" points="690,-297.5 690,-327.5 933,-327.5 933,-297.5 690,-297.5"/>
<text text-anchor="start" x="697" y="-308.9" font-family="Arial" font-size="14.00" fill="#000000">origins    </text>
<text text-anchor="start" x="772.4264" y="-308.9" font-family="Arial" font-size="14.00" fill="#666666">[text[]]</text>
<polygon fill="none" stroke="#000000" points="690,-267.5 690,-297.5 933,-297.5 933,-267.5 690,-267.5"/>
<text text-anchor="start" x="697" y="-278.9" font-family="Arial" font-size="14.00" fill="#000000">cz_ico    </text>
<text text-anchor="start" x="770.8766" y="-278.9" font-family="Arial" font-size="14.00" fill="#666666">[text]</text>
<polygon fill="none" stroke="#000000" points="690,-237.5 690,-267.5 933,-267.5 933,-237.5 690,-237.5"/>
<text text-anchor="start" x="697" y="-248.9" font-family="Arial" font-size="14.00" fill="#000000">cz_dic    </text>
<text text-anchor="start" x="770.8766" y="-248.9" font-family="Arial" font-size="14.00" fill="#666666">[text]</text>
<polygon fill="none" stroke="#000000" points="690,-207.5 690,-237.5 933,-237.5 933,-207.5 690,-207.5"/>
<text text-anchor="start" x="697" y="-218.9" font-family="Arial" font-size="14.00" fill="#000000">address    </text>
<text text-anchor="start" x="780.9958" y="-218.9" font-family="Arial" font-size="14.00" fill="#666666">[address_domain]</text>
<polygon fill="none" stroke="#000000" points="690,-177.5 690,-207.5 933,-207.5 933,-177.5 690,-177.5"/>
<text text-anchor="start" x="697" y="-188.9" font-family="Arial" font-size="14.00" fill="#000000">description    </text>
<text text-anchor="start" x="798.8822" y="-188.9" font-family="Arial" font-size="14.00" fill="#666666">[text]</text>
<polygon fill="none" stroke="#000000" points="690,-147.5 690,-177.5 933,-177.5 933,-147.5 690,-147.5"/>
<text text-anchor="start" x="697" y="-158.9" font-family="Arial" font-size="14.00" fill="#000000">bank_account    </text>
<text text-anchor="start" x="818.3562" y="-158.9" font-family="Arial" font-size="14.00" fill="#666666">[text]</text>
</g>
<!-- public.upozorneni&#45;&gt;public.tenant -->
<g id="edge3" class="edge">
<title>public.upozorneni:tenant_id&#45;&gt;public.tenant:id</title>
<path fill="none" stroke="#000000" d="M786.3656,-757.0843C915.8148,-746.0916 705.2525,-520.2983 690,-466 678.762,-425.9929 648.4444,-372.5 690,-372.5"/>
<polygon fill="#000000" stroke="#000000" points="785.992,-757.0992 775.8197,-753.0036 780.996,-757.2996 776,-757.5 776,-757.5 776,-757.5 780.996,-757.2996 776.1803,-761.9964 785.992,-757.0992 785.992,-757.0992"/>
<text text-anchor="start" x="783.2065" y="-767.5" font-family="Arial" font-size="10.00" fill="#000000">FOREIGN KEY (tenant_id) REFERENCES tenant(id) ON DELETE CASCADE</text>
</g>
<!-- public.upozorneni_skupiny -->
<g id="node2" class="node">
<title>public.upozorneni_skupiny</title>
<polygon fill="#efefef" stroke="transparent" points="448,-1442.5 448,-1477.5 801,-1477.5 801,-1442.5 448,-1442.5"/>
<polygon fill="none" stroke="#000000" points="448,-1442.5 448,-1477.5 801,-1477.5 801,-1442.5 448,-1442.5"/>
<text text-anchor="start" x="454.687" y="-1455.3" font-family="Arial Bold" font-size="18.00" fill="#000000">public.upozorneni_skupiny</text>
<text text-anchor="start" x="666.745" y="-1455.3" font-family="Arial" font-size="14.00" fill="#000000">    </text>
<text text-anchor="start" x="700.9498" y="-1455.3" font-family="Arial" font-size="14.00" fill="#666666">[BASE TABLE]</text>
<polygon fill="none" stroke="#000000" points="448,-1412.5 448,-1442.5 801,-1442.5 801,-1412.5 448,-1412.5"/>
<text text-anchor="start" x="455" y="-1423.9" font-family="Arial" font-size="14.00" fill="#000000">ups_id    </text>
<text text-anchor="start" x="530.4418" y="-1423.9" font-family="Arial" font-size="14.00" fill="#666666">[bigint]</text>
<polygon fill="none" stroke="#000000" points="448,-1382.5 448,-1412.5 801,-1412.5 801,-1382.5 448,-1382.5"/>
<text text-anchor="start" x="455" y="-1393.9" font-family="Arial" font-size="14.00" fill="#000000">ups_id_rodic    </text>
<text text-anchor="start" x="568.5568" y="-1393.9" font-family="Arial" font-size="14.00" fill="#666666">[bigint]</text>
<polygon fill="none" stroke="#000000" points="448,-1352.5 448,-1382.5 801,-1382.5 801,-1352.5 448,-1352.5"/>
<text text-anchor="start" x="455" y="-1363.9" font-family="Arial" font-size="14.00" fill="#000000">ups_id_skupina    </text>
<text text-anchor="start" x="586.4614" y="-1363.9" font-family="Arial" font-size="14.00" fill="#666666">[bigint]</text>
<polygon fill="none" stroke="#000000" points="448,-1322.5 448,-1352.5 801,-1352.5 801,-1322.5 448,-1322.5"/>
<text text-anchor="start" x="455" y="-1333.9" font-family="Arial" font-size="14.00" fill="#000000">ups_color    </text>
<text text-anchor="start" x="549.885" y="-1333.9" font-family="Arial" font-size="14.00" fill="#666666">[text]</text>
<polygon fill="none" stroke="#000000" points="448,-1292.5 448,-1322.5 801,-1322.5 801,-1292.5 448,-1292.5"/>
<text text-anchor="start" x="455" y="-1303.9" font-family="Arial" font-size="14.00" fill="#000000">id    </text>
<text text-anchor="start" x="500.094" y="-1303.9" font-family="Arial" font-size="14.00" fill="#666666">[bigint]</text>
<polygon fill="none" stroke="#000000" points="448,-1262.5 448,-1292.5 801,-1292.5 801,-1262.5 448,-1262.5"/>
<text text-anchor="start" x="455" y="-1273.9" font-family="Arial" font-size="14.00" fill="#000000">tenant_id    </text>
<text text-anchor="start" x="546.7882" y="-1273.9" font-family="Arial" font-size="14.00" fill="#666666">[bigint]</text>
</g>
<!-- public.upozorneni_skupiny&#45;&gt;public.upozorneni -->
<g id="edge1" class="edge">
<title>public.upozorneni_skupiny:ups_id_rodic&#45;&gt;public.upozorneni:up_id</title>
<path fill="none" stroke="#000000" d="M811.0022,-1396.7973C877.4775,-1386.9526 851.2775,-1276.1164 801,-1220 752.2168,-1165.5514 522.7832,-1238.4486 474,-1184 445.3804,-1152.0567 431.1111,-1087.5 474,-1087.5"/>
<polygon fill="#000000" stroke="#000000" points="810.9754,-1396.7991 800.6846,-1393.0111 805.9877,-1397.1496 801,-1397.5 801,-1397.5 801,-1397.5 805.9877,-1397.1496 801.3154,-1401.9889 810.9754,-1396.7991 810.9754,-1396.7991"/>
<text text-anchor="start" x="808.149" y="-1407.5" font-family="Arial" font-size="10.00" fill="#000000">FOREIGN KEY (ups_id_rodic) REFERENCES upozorneni(up_id) ON UPDATE CASCADE ON DELETE CASCADE</text>
</g>
</g>
</svg>
