<?xml version="1.0" encoding="UTF-8" standalone="no"?>
<!DOCTYPE svg PUBLIC "-//W3C//DTD SVG 1.1//EN"
 "http://www.w3.org/Graphics/SVG/1.1/DTD/svg11.dtd">
<!-- Generated by graphviz version 2.40.1 (20161225.0304)
 -->
<!-- Title: public.galerie_foto Pages: 1 -->
<svg width="1240pt" height="1649pt"
 viewBox="0.00 0.00 1239.50 1649.00" xmlns="http://www.w3.org/2000/svg" xmlns:xlink="http://www.w3.org/1999/xlink">
<g id="graph0" class="graph" transform="scale(1 1) rotate(0) translate(4 1645)">
<title>public.galerie_foto</title>
<polygon fill="#ffffff" stroke="transparent" points="-4,4 -4,-1645 1235.5,-1645 1235.5,4 -4,4"/>
<!-- public.galerie_foto -->
<g id="node1" class="node">
<title>public.galerie_foto</title>
<polygon fill="#efefef" stroke="transparent" points="551,-952.5 551,-987.5 838,-987.5 838,-952.5 551,-952.5"/>
<polygon fill="none" stroke="#000000" points="551,-952.5 551,-987.5 838,-987.5 838,-952.5 551,-952.5"/>
<text text-anchor="start" x="557.6972" y="-965.3" font-family="Arial Bold" font-size="18.00" fill="#000000">public.galerie_foto</text>
<text text-anchor="start" x="703.7348" y="-965.3" font-family="Arial" font-size="14.00" fill="#000000">    </text>
<text text-anchor="start" x="737.9396" y="-965.3" font-family="Arial" font-size="14.00" fill="#666666">[BASE TABLE]</text>
<polygon fill="none" stroke="#000000" points="551,-922.5 551,-952.5 838,-952.5 838,-922.5 551,-922.5"/>
<text text-anchor="start" x="558" y="-933.9" font-family="Arial" font-size="14.00" fill="#000000">gf_id </text>
<text text-anchor="start" x="592.2356" y="-933.9" font-family="Arial" font-size="14.00" fill="#666666">[bigint]</text>
<polygon fill="none" stroke="#000000" points="551,-892.5 551,-922.5 838,-922.5 838,-892.5 551,-892.5"/>
<text text-anchor="start" x="558" y="-903.9" font-family="Arial" font-size="14.00" fill="#000000">gf_id_rodic </text>
<text text-anchor="start" x="630.3506" y="-903.9" font-family="Arial" font-size="14.00" fill="#666666">[bigint]</text>
<polygon fill="none" stroke="#000000" points="551,-862.5 551,-892.5 838,-892.5 838,-862.5 551,-862.5"/>
<text text-anchor="start" x="558" y="-873.9" font-family="Arial" font-size="14.00" fill="#000000">gf_name </text>
<text text-anchor="start" x="616.3548" y="-873.9" font-family="Arial" font-size="14.00" fill="#666666">[text]</text>
<polygon fill="none" stroke="#000000" points="551,-832.5 551,-862.5 838,-862.5 838,-832.5 551,-832.5"/>
<text text-anchor="start" x="558" y="-843.9" font-family="Arial" font-size="14.00" fill="#000000">gf_path </text>
<text text-anchor="start" x="608.5848" y="-843.9" font-family="Arial" font-size="14.00" fill="#666666">[text]</text>
<polygon fill="none" stroke="#000000" points="551,-802.5 551,-832.5 838,-832.5 838,-802.5 551,-802.5"/>
<text text-anchor="start" x="558" y="-813.9" font-family="Arial" font-size="14.00" fill="#000000">gf_kdo </text>
<text text-anchor="start" x="603.9116" y="-813.9" font-family="Arial" font-size="14.00" fill="#666666">[bigint]</text>
<polygon fill="none" stroke="#000000" points="551,-772.5 551,-802.5 838,-802.5 838,-772.5 551,-772.5"/>
<text text-anchor="start" x="558" y="-783.9" font-family="Arial" font-size="14.00" fill="#000000">updated_at </text>
<text text-anchor="start" x="631.9326" y="-783.9" font-family="Arial" font-size="14.00" fill="#666666">[timestamp with time zone]</text>
<polygon fill="none" stroke="#000000" points="551,-742.5 551,-772.5 838,-772.5 838,-742.5 551,-742.5"/>
<text text-anchor="start" x="558" y="-753.9" font-family="Arial" font-size="14.00" fill="#000000">id </text>
<text text-anchor="start" x="572.7798" y="-753.9" font-family="Arial" font-size="14.00" fill="#666666">[bigint]</text>
<polygon fill="none" stroke="#000000" points="551,-712.5 551,-742.5 838,-742.5 838,-712.5 551,-712.5"/>
<text text-anchor="start" x="558" y="-723.9" font-family="Arial" font-size="14.00" fill="#000000">tenant_id </text>
<text text-anchor="start" x="619.474" y="-723.9" font-family="Arial" font-size="14.00" fill="#666666">[bigint]</text>
<polygon fill="none" stroke="#000000" points="551,-682.5 551,-712.5 838,-712.5 838,-682.5 551,-682.5"/>
<text text-anchor="start" x="558" y="-693.9" font-family="Arial" font-size="14.00" fill="#000000">created_at </text>
<text text-anchor="start" x="628.028" y="-693.9" font-family="Arial" font-size="14.00" fill="#666666">[timestamp with time zone]</text>
<polygon fill="none" stroke="#000000" points="551,-652.5 551,-682.5 838,-682.5 838,-652.5 551,-652.5"/>
<text text-anchor="start" x="558" y="-663.9" font-family="Arial" font-size="14.00" fill="#000000">gf_timestamp </text>
<text text-anchor="start" x="645.9032" y="-663.9" font-family="Arial" font-size="14.00" fill="#666666">[timestamp with time zone]</text>
<polygon fill="none" stroke="#000000" stroke-width="3" points="549,-651.5 549,-989.5 839,-989.5 839,-651.5 549,-651.5"/>
</g>
<!-- public.galerie_dir -->
<g id="node3" class="node">
<title>public.galerie_dir</title>
<polygon fill="#efefef" stroke="transparent" points="166,-387.5 166,-422.5 443,-422.5 443,-387.5 166,-387.5"/>
<polygon fill="none" stroke="#000000" points="166,-387.5 166,-422.5 443,-422.5 443,-387.5 166,-387.5"/>
<text text-anchor="start" x="172.7093" y="-400.3" font-family="Arial Bold" font-size="18.00" fill="#000000">public.galerie_dir</text>
<text text-anchor="start" x="308.7227" y="-400.3" font-family="Arial" font-size="14.00" fill="#000000">    </text>
<text text-anchor="start" x="342.9275" y="-400.3" font-family="Arial" font-size="14.00" fill="#666666">[BASE TABLE]</text>
<polygon fill="none" stroke="#000000" points="166,-357.5 166,-387.5 443,-387.5 443,-357.5 166,-357.5"/>
<text text-anchor="start" x="173" y="-368.9" font-family="Arial" font-size="14.00" fill="#000000">gd_id    </text>
<text text-anchor="start" x="241.4418" y="-368.9" font-family="Arial" font-size="14.00" fill="#666666">[bigint]</text>
<polygon fill="none" stroke="#000000" points="166,-327.5 166,-357.5 443,-357.5 443,-327.5 166,-327.5"/>
<text text-anchor="start" x="173" y="-338.9" font-family="Arial" font-size="14.00" fill="#000000">gd_id_rodic    </text>
<text text-anchor="start" x="279.5568" y="-338.9" font-family="Arial" font-size="14.00" fill="#666666">[bigint]</text>
<polygon fill="none" stroke="#000000" points="166,-297.5 166,-327.5 443,-327.5 443,-297.5 166,-297.5"/>
<text text-anchor="start" x="173" y="-308.9" font-family="Arial" font-size="14.00" fill="#000000">gd_name    </text>
<text text-anchor="start" x="265.561" y="-308.9" font-family="Arial" font-size="14.00" fill="#666666">[text]</text>
<polygon fill="none" stroke="#000000" points="166,-267.5 166,-297.5 443,-297.5 443,-267.5 166,-267.5"/>
<text text-anchor="start" x="173" y="-278.9" font-family="Arial" font-size="14.00" fill="#000000">gd_level    </text>
<text text-anchor="start" x="259.331" y="-278.9" font-family="Arial" font-size="14.00" fill="#666666">[smallint]</text>
<polygon fill="none" stroke="#000000" points="166,-237.5 166,-267.5 443,-267.5 443,-237.5 166,-237.5"/>
<text text-anchor="start" x="173" y="-248.9" font-family="Arial" font-size="14.00" fill="#000000">gd_path    </text>
<text text-anchor="start" x="257.791" y="-248.9" font-family="Arial" font-size="14.00" fill="#666666">[text]</text>
<polygon fill="none" stroke="#000000" points="166,-207.5 166,-237.5 443,-237.5 443,-207.5 166,-207.5"/>
<text text-anchor="start" x="173" y="-218.9" font-family="Arial" font-size="14.00" fill="#000000">gd_hidden    </text>
<text text-anchor="start" x="272.5722" y="-218.9" font-family="Arial" font-size="14.00" fill="#666666">[boolean]</text>
<polygon fill="none" stroke="#000000" points="166,-177.5 166,-207.5 443,-207.5 443,-177.5 166,-177.5"/>
<text text-anchor="start" x="173" y="-188.9" font-family="Arial" font-size="14.00" fill="#000000">id    </text>
<text text-anchor="start" x="218.094" y="-188.9" font-family="Arial" font-size="14.00" fill="#666666">[bigint]</text>
<polygon fill="none" stroke="#000000" points="166,-147.5 166,-177.5 443,-177.5 443,-147.5 166,-147.5"/>
<text text-anchor="start" x="173" y="-158.9" font-family="Arial" font-size="14.00" fill="#000000">tenant_id    </text>
<text text-anchor="start" x="264.7882" y="-158.9" font-family="Arial" font-size="14.00" fill="#666666">[bigint]</text>
</g>
<!-- public.galerie_foto&#45;&gt;public.galerie_dir -->
<g id="edge2" class="edge">
<title>public.galerie_foto:gf_id_rodic&#45;&gt;public.galerie_dir:gd_id</title>
<path fill="none" stroke="#000000" d="M541.6898,-902.8749C491.5886,-850.5844 500.3271,-372.5 443,-372.5"/>
<polygon fill="#000000" stroke="#000000" points="542.0442,-903.0509 548.9979,-911.5301 546.5221,-905.2755 551,-907.5 551,-907.5 551,-907.5 546.5221,-905.2755 553.0021,-903.4699 542.0442,-903.0509 542.0442,-903.0509"/>
<text text-anchor="start" x="39.776" y="-917.5" font-family="Arial" font-size="10.00" fill="#000000">FOREIGN KEY (gf_id_rodic) REFERENCES galerie_dir(gd_id) ON UPDATE RESTRICT ON DELETE RESTRICT</text>
</g>
<!-- public.users -->
<g id="node4" class="node">
<title>public.users</title>
<polygon fill="#efefef" stroke="transparent" points="547,-492.5 547,-527.5 842,-527.5 842,-492.5 547,-492.5"/>
<polygon fill="none" stroke="#000000" points="547,-492.5 547,-527.5 842,-527.5 842,-492.5 547,-492.5"/>
<text text-anchor="start" x="582.7091" y="-505.3" font-family="Arial Bold" font-size="18.00" fill="#000000">public.users</text>
<text text-anchor="start" x="678.7229" y="-505.3" font-family="Arial" font-size="14.00" fill="#000000">    </text>
<text text-anchor="start" x="712.9277" y="-505.3" font-family="Arial" font-size="14.00" fill="#666666">[BASE TABLE]</text>
<polygon fill="none" stroke="#000000" points="547,-462.5 547,-492.5 842,-492.5 842,-462.5 547,-462.5"/>
<text text-anchor="start" x="554" y="-473.9" font-family="Arial" font-size="14.00" fill="#000000">u_id    </text>
<text text-anchor="start" x="614.6592" y="-473.9" font-family="Arial" font-size="14.00" fill="#666666">[bigint]</text>
<polygon fill="none" stroke="#000000" points="547,-432.5 547,-462.5 842,-462.5 842,-432.5 547,-432.5"/>
<text text-anchor="start" x="554" y="-443.9" font-family="Arial" font-size="14.00" fill="#000000">u_login    </text>
<text text-anchor="start" x="633.331" y="-443.9" font-family="Arial" font-size="14.00" fill="#666666">[citext]</text>
<polygon fill="none" stroke="#000000" points="547,-402.5 547,-432.5 842,-432.5 842,-402.5 547,-402.5"/>
<text text-anchor="start" x="554" y="-413.9" font-family="Arial" font-size="14.00" fill="#000000">u_pass    </text>
<text text-anchor="start" x="633.3352" y="-413.9" font-family="Arial" font-size="14.00" fill="#666666">[character(40)]</text>
<polygon fill="none" stroke="#000000" points="547,-372.5 547,-402.5 842,-402.5 842,-372.5 547,-372.5"/>
<text text-anchor="start" x="554" y="-383.9" font-family="Arial" font-size="14.00" fill="#000000">u_jmeno    </text>
<text text-anchor="start" x="641.885" y="-383.9" font-family="Arial" font-size="14.00" fill="#666666">[text]</text>
<polygon fill="none" stroke="#000000" points="547,-342.5 547,-372.5 842,-372.5 842,-342.5 547,-342.5"/>
<text text-anchor="start" x="554" y="-353.9" font-family="Arial" font-size="14.00" fill="#000000">u_prijmeni    </text>
<text text-anchor="start" x="652.7588" y="-353.9" font-family="Arial" font-size="14.00" fill="#666666">[text]</text>
<polygon fill="none" stroke="#000000" points="547,-312.5 547,-342.5 842,-342.5 842,-312.5 547,-312.5"/>
<text text-anchor="start" x="554" y="-323.9" font-family="Arial" font-size="14.00" fill="#000000">u_email    </text>
<text text-anchor="start" x="637.209" y="-323.9" font-family="Arial" font-size="14.00" fill="#666666">[citext]</text>
<polygon fill="none" stroke="#000000" points="547,-282.5 547,-312.5 842,-312.5 842,-282.5 547,-282.5"/>
<text text-anchor="start" x="554" y="-293.9" font-family="Arial" font-size="14.00" fill="#000000">updated_at    </text>
<text text-anchor="start" x="658.2468" y="-293.9" font-family="Arial" font-size="14.00" fill="#666666">[timestamp with time zone]</text>
<polygon fill="none" stroke="#000000" points="547,-252.5 547,-282.5 842,-282.5 842,-252.5 547,-252.5"/>
<text text-anchor="start" x="554" y="-263.9" font-family="Arial" font-size="14.00" fill="#000000">u_ban    </text>
<text text-anchor="start" x="627.1178" y="-263.9" font-family="Arial" font-size="14.00" fill="#666666">[boolean]</text>
<polygon fill="none" stroke="#000000" points="547,-222.5 547,-252.5 842,-252.5 842,-222.5 547,-222.5"/>
<text text-anchor="start" x="554" y="-233.9" font-family="Arial" font-size="14.00" fill="#000000">u_confirmed    </text>
<text text-anchor="start" x="665.2188" y="-233.9" font-family="Arial" font-size="14.00" fill="#666666">[boolean]</text>
<polygon fill="none" stroke="#000000" points="547,-192.5 547,-222.5 842,-222.5 842,-192.5 547,-192.5"/>
<text text-anchor="start" x="553.7041" y="-203.9" font-family="Arial" font-size="14.00" fill="#000000">u_created_at    </text>
<text text-anchor="start" x="669.6115" y="-203.9" font-family="Arial" font-size="14.00" fill="#666666">[timestamp with time zone]</text>
<polygon fill="none" stroke="#000000" points="547,-162.5 547,-192.5 842,-192.5 842,-162.5 547,-162.5"/>
<text text-anchor="start" x="554" y="-173.9" font-family="Arial" font-size="14.00" fill="#000000">id    </text>
<text text-anchor="start" x="599.094" y="-173.9" font-family="Arial" font-size="14.00" fill="#666666">[bigint]</text>
<polygon fill="none" stroke="#000000" points="547,-132.5 547,-162.5 842,-162.5 842,-132.5 547,-132.5"/>
<text text-anchor="start" x="554" y="-143.9" font-family="Arial" font-size="14.00" fill="#000000">tenant_id    </text>
<text text-anchor="start" x="645.7882" y="-143.9" font-family="Arial" font-size="14.00" fill="#666666">[bigint]</text>
<polygon fill="none" stroke="#000000" points="547,-102.5 547,-132.5 842,-132.5 842,-102.5 547,-102.5"/>
<text text-anchor="start" x="554" y="-113.9" font-family="Arial" font-size="14.00" fill="#000000">last_login    </text>
<text text-anchor="start" x="647.3282" y="-113.9" font-family="Arial" font-size="14.00" fill="#666666">[timestamp with time zone]</text>
<polygon fill="none" stroke="#000000" points="547,-72.5 547,-102.5 842,-102.5 842,-72.5 547,-72.5"/>
<text text-anchor="start" x="554" y="-83.9" font-family="Arial" font-size="14.00" fill="#000000">created_at    </text>
<text text-anchor="start" x="654.3422" y="-83.9" font-family="Arial" font-size="14.00" fill="#666666">[timestamp with time zone]</text>
<polygon fill="none" stroke="#000000" points="547,-42.5 547,-72.5 842,-72.5 842,-42.5 547,-42.5"/>
<text text-anchor="start" x="554" y="-53.9" font-family="Arial" font-size="14.00" fill="#000000">u_timestamp    </text>
<text text-anchor="start" x="668.3268" y="-53.9" font-family="Arial" font-size="14.00" fill="#666666">[timestamp with time zone]</text>
</g>
<!-- public.galerie_foto&#45;&gt;public.users -->
<g id="edge3" class="edge">
<title>public.galerie_foto:gf_kdo&#45;&gt;public.users:u_id</title>
<path fill="none" stroke="#000000" d="M540.8468,-815.3288C475.239,-786.3721 474.9811,-477.5 547,-477.5"/>
<polygon fill="#000000" stroke="#000000" points="541.2211,-815.4088 550.059,-821.9005 546.1105,-816.4544 551,-817.5 551,-817.5 551,-817.5 546.1105,-816.4544 551.941,-813.0995 541.2211,-815.4088 541.2211,-815.4088"/>
<text text-anchor="start" x="87.109" y="-827.5" font-family="Arial" font-size="10.00" fill="#000000">FOREIGN KEY (gf_kdo) REFERENCES users(u_id) ON UPDATE RESTRICT ON DELETE RESTRICT</text>
</g>
<!-- public.tenant -->
<g id="node5" class="node">
<title>public.tenant</title>
<polygon fill="#efefef" stroke="transparent" points="946,-387.5 946,-422.5 1189,-422.5 1189,-387.5 946,-387.5"/>
<polygon fill="none" stroke="#000000" points="946,-387.5 946,-422.5 1189,-422.5 1189,-387.5 946,-387.5"/>
<text text-anchor="start" x="952.6968" y="-400.3" font-family="Arial Bold" font-size="18.00" fill="#000000">public.tenant</text>
<text text-anchor="start" x="1054.7352" y="-400.3" font-family="Arial" font-size="14.00" fill="#000000">    </text>
<text text-anchor="start" x="1088.94" y="-400.3" font-family="Arial" font-size="14.00" fill="#666666">[BASE TABLE]</text>
<polygon fill="none" stroke="#000000" points="946,-357.5 946,-387.5 1189,-387.5 1189,-357.5 946,-357.5"/>
<text text-anchor="start" x="953" y="-368.9" font-family="Arial" font-size="14.00" fill="#000000">id    </text>
<text text-anchor="start" x="998.094" y="-368.9" font-family="Arial" font-size="14.00" fill="#666666">[bigint]</text>
<polygon fill="none" stroke="#000000" points="946,-327.5 946,-357.5 1189,-357.5 1189,-327.5 946,-327.5"/>
<text text-anchor="start" x="953" y="-338.9" font-family="Arial" font-size="14.00" fill="#000000">name    </text>
<text text-anchor="start" x="1022.2132" y="-338.9" font-family="Arial" font-size="14.00" fill="#666666">[text]</text>
<polygon fill="none" stroke="#000000" points="946,-297.5 946,-327.5 1189,-327.5 1189,-297.5 946,-297.5"/>
<text text-anchor="start" x="953" y="-308.9" font-family="Arial" font-size="14.00" fill="#000000">origins    </text>
<text text-anchor="start" x="1028.4264" y="-308.9" font-family="Arial" font-size="14.00" fill="#666666">[text[]]</text>
<polygon fill="none" stroke="#000000" points="946,-267.5 946,-297.5 1189,-297.5 1189,-267.5 946,-267.5"/>
<text text-anchor="start" x="953" y="-278.9" font-family="Arial" font-size="14.00" fill="#000000">cz_ico    </text>
<text text-anchor="start" x="1026.8766" y="-278.9" font-family="Arial" font-size="14.00" fill="#666666">[text]</text>
<polygon fill="none" stroke="#000000" points="946,-237.5 946,-267.5 1189,-267.5 1189,-237.5 946,-237.5"/>
<text text-anchor="start" x="953" y="-248.9" font-family="Arial" font-size="14.00" fill="#000000">cz_dic    </text>
<text text-anchor="start" x="1026.8766" y="-248.9" font-family="Arial" font-size="14.00" fill="#666666">[text]</text>
<polygon fill="none" stroke="#000000" points="946,-207.5 946,-237.5 1189,-237.5 1189,-207.5 946,-207.5"/>
<text text-anchor="start" x="953" y="-218.9" font-family="Arial" font-size="14.00" fill="#000000">address    </text>
<text text-anchor="start" x="1036.9958" y="-218.9" font-family="Arial" font-size="14.00" fill="#666666">[address_domain]</text>
<polygon fill="none" stroke="#000000" points="946,-177.5 946,-207.5 1189,-207.5 1189,-177.5 946,-177.5"/>
<text text-anchor="start" x="953" y="-188.9" font-family="Arial" font-size="14.00" fill="#000000">description    </text>
<text text-anchor="start" x="1054.8822" y="-188.9" font-family="Arial" font-size="14.00" fill="#666666">[text]</text>
<polygon fill="none" stroke="#000000" points="946,-147.5 946,-177.5 1189,-177.5 1189,-147.5 946,-147.5"/>
<text text-anchor="start" x="953" y="-158.9" font-family="Arial" font-size="14.00" fill="#000000">bank_account    </text>
<text text-anchor="start" x="1074.3562" y="-158.9" font-family="Arial" font-size="14.00" fill="#666666">[text]</text>
</g>
<!-- public.galerie_foto&#45;&gt;public.tenant -->
<g id="edge4" class="edge">
<title>public.galerie_foto:tenant_id&#45;&gt;public.tenant:id</title>
<path fill="none" stroke="#000000" d="M848.0295,-726.8972C908.1442,-719.1456 873.24,-638.1306 894,-571 920.9442,-483.872 854.8009,-372.5 946,-372.5"/>
<polygon fill="#000000" stroke="#000000" points="847.982,-726.9 837.73,-723.0081 842.991,-727.2 838,-727.5 838,-727.5 838,-727.5 842.991,-727.2 838.27,-731.9919 847.982,-726.9 847.982,-726.9"/>
<text text-anchor="start" x="845.2065" y="-737.5" font-family="Arial" font-size="10.00" fill="#000000">FOREIGN KEY (tenant_id) REFERENCES tenant(id) ON DELETE CASCADE</text>
</g>
<!-- public.aktuality -->
<g id="node2" class="node">
<title>public.aktuality</title>
<polygon fill="#efefef" stroke="transparent" points="530,-1562.5 530,-1597.5 859,-1597.5 859,-1562.5 530,-1562.5"/>
<polygon fill="none" stroke="#000000" points="530,-1562.5 530,-1597.5 859,-1597.5 859,-1562.5 530,-1562.5"/>
<text text-anchor="start" x="571.7057" y="-1575.3" font-family="Arial Bold" font-size="18.00" fill="#000000">public.aktuality</text>
<text text-anchor="start" x="689.7263" y="-1575.3" font-family="Arial" font-size="14.00" fill="#000000">    </text>
<text text-anchor="start" x="723.9311" y="-1575.3" font-family="Arial" font-size="14.00" fill="#666666">[BASE TABLE]</text>
<polygon fill="none" stroke="#000000" points="530,-1532.5 530,-1562.5 859,-1562.5 859,-1532.5 530,-1532.5"/>
<text text-anchor="start" x="537" y="-1543.9" font-family="Arial" font-size="14.00" fill="#000000">at_id    </text>
<text text-anchor="start" x="601.5498" y="-1543.9" font-family="Arial" font-size="14.00" fill="#666666">[bigint]</text>
<polygon fill="none" stroke="#000000" points="530,-1502.5 530,-1532.5 859,-1532.5 859,-1502.5 530,-1502.5"/>
<text text-anchor="start" x="537" y="-1513.9" font-family="Arial" font-size="14.00" fill="#000000">at_kdo    </text>
<text text-anchor="start" x="613.2258" y="-1513.9" font-family="Arial" font-size="14.00" fill="#666666">[bigint]</text>
<polygon fill="none" stroke="#000000" points="530,-1472.5 530,-1502.5 859,-1502.5 859,-1472.5 530,-1472.5"/>
<text text-anchor="start" x="537" y="-1483.9" font-family="Arial" font-size="14.00" fill="#000000">at_kat    </text>
<text text-anchor="start" x="609.3338" y="-1483.9" font-family="Arial" font-size="14.00" fill="#666666">[text]</text>
<polygon fill="none" stroke="#000000" points="530,-1442.5 530,-1472.5 859,-1472.5 859,-1442.5 530,-1442.5"/>
<text text-anchor="start" x="537" y="-1453.9" font-family="Arial" font-size="14.00" fill="#000000">at_jmeno    </text>
<text text-anchor="start" x="628.7756" y="-1453.9" font-family="Arial" font-size="14.00" fill="#666666">[text]</text>
<polygon fill="none" stroke="#000000" points="530,-1412.5 530,-1442.5 859,-1442.5 859,-1412.5 530,-1412.5"/>
<text text-anchor="start" x="537" y="-1423.9" font-family="Arial" font-size="14.00" fill="#000000">at_text    </text>
<text text-anchor="start" x="613.2244" y="-1423.9" font-family="Arial" font-size="14.00" fill="#666666">[text]</text>
<polygon fill="none" stroke="#000000" points="530,-1382.5 530,-1412.5 859,-1412.5 859,-1382.5 530,-1382.5"/>
<text text-anchor="start" x="537" y="-1393.9" font-family="Arial" font-size="14.00" fill="#000000">at_preview    </text>
<text text-anchor="start" x="638.8822" y="-1393.9" font-family="Arial" font-size="14.00" fill="#666666">[text]</text>
<polygon fill="none" stroke="#000000" points="530,-1352.5 530,-1382.5 859,-1382.5 859,-1352.5 530,-1352.5"/>
<text text-anchor="start" x="537" y="-1363.9" font-family="Arial" font-size="14.00" fill="#000000">at_foto    </text>
<text text-anchor="start" x="614.007" y="-1363.9" font-family="Arial" font-size="14.00" fill="#666666">[bigint]</text>
<polygon fill="none" stroke="#000000" points="530,-1322.5 530,-1352.5 859,-1352.5 859,-1322.5 530,-1322.5"/>
<text text-anchor="start" x="537" y="-1333.9" font-family="Arial" font-size="14.00" fill="#000000">at_foto_main    </text>
<text text-anchor="start" x="652.122" y="-1333.9" font-family="Arial" font-size="14.00" fill="#666666">[bigint]</text>
<polygon fill="none" stroke="#000000" points="530,-1292.5 530,-1322.5 859,-1322.5 859,-1292.5 530,-1292.5"/>
<text text-anchor="start" x="537" y="-1303.9" font-family="Arial" font-size="14.00" fill="#000000">updated_at    </text>
<text text-anchor="start" x="641.2468" y="-1303.9" font-family="Arial" font-size="14.00" fill="#666666">[timestamp with time zone]</text>
<polygon fill="none" stroke="#000000" points="530,-1262.5 530,-1292.5 859,-1292.5 859,-1262.5 530,-1262.5"/>
<text text-anchor="start" x="537" y="-1273.9" font-family="Arial" font-size="14.00" fill="#000000">created_at    </text>
<text text-anchor="start" x="637.3422" y="-1273.9" font-family="Arial" font-size="14.00" fill="#666666">[timestamp with time zone]</text>
<polygon fill="none" stroke="#000000" points="530,-1232.5 530,-1262.5 859,-1262.5 859,-1232.5 530,-1232.5"/>
<text text-anchor="start" x="537" y="-1243.9" font-family="Arial" font-size="14.00" fill="#000000">id    </text>
<text text-anchor="start" x="582.094" y="-1243.9" font-family="Arial" font-size="14.00" fill="#666666">[bigint]</text>
<polygon fill="none" stroke="#000000" points="530,-1202.5 530,-1232.5 859,-1232.5 859,-1202.5 530,-1202.5"/>
<text text-anchor="start" x="537" y="-1213.9" font-family="Arial" font-size="14.00" fill="#000000">tenant_id    </text>
<text text-anchor="start" x="628.7882" y="-1213.9" font-family="Arial" font-size="14.00" fill="#666666">[bigint]</text>
<polygon fill="none" stroke="#000000" points="530,-1172.5 530,-1202.5 859,-1202.5 859,-1172.5 530,-1172.5"/>
<text text-anchor="start" x="537" y="-1183.9" font-family="Arial" font-size="14.00" fill="#000000">title_photo_url    </text>
<text text-anchor="start" x="659.1178" y="-1183.9" font-family="Arial" font-size="14.00" fill="#666666">[text]</text>
<polygon fill="none" stroke="#000000" points="530,-1142.5 530,-1172.5 859,-1172.5 859,-1142.5 530,-1142.5"/>
<text text-anchor="start" x="537" y="-1153.9" font-family="Arial" font-size="14.00" fill="#000000">at_timestamp    </text>
<text text-anchor="start" x="655.2174" y="-1153.9" font-family="Arial" font-size="14.00" fill="#666666">[timestamp with time zone]</text>
<polygon fill="none" stroke="#000000" points="530,-1112.5 530,-1142.5 859,-1142.5 859,-1112.5 530,-1112.5"/>
<text text-anchor="start" x="536.9839" y="-1123.9" font-family="Arial" font-size="14.00" fill="#000000">at_timestamp_add    </text>
<text text-anchor="start" x="686.3317" y="-1123.9" font-family="Arial" font-size="14.00" fill="#666666">[timestamp with time zone]</text>
</g>
<!-- public.aktuality&#45;&gt;public.galerie_foto -->
<g id="edge1" class="edge">
<title>public.aktuality:at_foto_main&#45;&gt;public.galerie_foto:gf_id</title>
<path fill="none" stroke="#000000" d="M519.7964,-1337.0482C352.8576,-1322.0276 376.4544,-937.5 551,-937.5"/>
<polygon fill="#000000" stroke="#000000" points="520.0098,-1337.0576 529.8009,-1341.9956 525.0049,-1337.2788 530,-1337.5 530,-1337.5 530,-1337.5 525.0049,-1337.2788 530.1991,-1333.0044 520.0098,-1337.0576 520.0098,-1337.0576"/>
<text text-anchor="start" x="6.9325" y="-1347.5" font-family="Arial" font-size="10.00" fill="#000000">FOREIGN KEY (at_foto_main) REFERENCES galerie_foto(gf_id) ON UPDATE RESTRICT ON DELETE RESTRICT</text>
</g>
</g>
</svg>
