<?xml version="1.0" encoding="UTF-8" standalone="no"?>
<!DOCTYPE svg PUBLIC "-//W3C//DTD SVG 1.1//EN"
 "http://www.w3.org/Graphics/SVG/1.1/DTD/svg11.dtd">
<!-- Generated by graphviz version 2.40.1 (20161225.0304)
 -->
<!-- Title: public.location Pages: 1 -->
<svg width="868pt" height="532pt"
 viewBox="0.00 0.00 868.00 532.00" xmlns="http://www.w3.org/2000/svg" xmlns:xlink="http://www.w3.org/1999/xlink">
<g id="graph0" class="graph" transform="scale(1 1) rotate(0) translate(4 528)">
<title>public.location</title>
<polygon fill="#ffffff" stroke="transparent" points="-4,4 -4,-528 864,-528 864,4 -4,4"/>
<!-- public.location -->
<g id="node1" class="node">
<title>public.location</title>
<polygon fill="#efefef" stroke="transparent" points="291,-165.5 291,-200.5 546,-200.5 546,-165.5 291,-165.5"/>
<polygon fill="none" stroke="#000000" points="291,-165.5 291,-200.5 546,-200.5 546,-165.5 291,-165.5"/>
<text text-anchor="start" x="297.7037" y="-178.3" font-family="Arial Bold" font-size="18.00" fill="#000000">public.location</text>
<text text-anchor="start" x="411.7283" y="-178.3" font-family="Arial" font-size="14.00" fill="#000000">    </text>
<text text-anchor="start" x="445.9331" y="-178.3" font-family="Arial" font-size="14.00" fill="#666666">[BASE TABLE]</text>
<polygon fill="none" stroke="#000000" points="291,-135.5 291,-165.5 546,-165.5 546,-135.5 291,-135.5"/>
<text text-anchor="start" x="298" y="-146.9" font-family="Arial" font-size="14.00" fill="#000000">id </text>
<text text-anchor="start" x="312.7798" y="-146.9" font-family="Arial" font-size="14.00" fill="#666666">[bigint]</text>
<polygon fill="none" stroke="#000000" points="291,-105.5 291,-135.5 546,-135.5 546,-105.5 291,-105.5"/>
<text text-anchor="start" x="298" y="-116.9" font-family="Arial" font-size="14.00" fill="#000000">name </text>
<text text-anchor="start" x="336.899" y="-116.9" font-family="Arial" font-size="14.00" fill="#666666">[text]</text>
<polygon fill="none" stroke="#000000" points="291,-75.5 291,-105.5 546,-105.5 546,-75.5 291,-75.5"/>
<text text-anchor="start" x="298" y="-86.9" font-family="Arial" font-size="14.00" fill="#000000">description </text>
<text text-anchor="start" x="369.568" y="-86.9" font-family="Arial" font-size="14.00" fill="#666666">[jsonb]</text>
<polygon fill="none" stroke="#000000" points="291,-45.5 291,-75.5 546,-75.5 546,-45.5 291,-45.5"/>
<text text-anchor="start" x="298" y="-56.9" font-family="Arial" font-size="14.00" fill="#000000">address </text>
<text text-anchor="start" x="351.6816" y="-56.9" font-family="Arial" font-size="14.00" fill="#666666">[address_domain]</text>
<polygon fill="none" stroke="#000000" stroke-width="3" points="289,-44.5 289,-202.5 547,-202.5 547,-44.5 289,-44.5"/>
</g>
<!-- public.location_attachment -->
<g id="node2" class="node">
<title>public.location_attachment</title>
<polygon fill="#efefef" stroke="transparent" points="43,-415.5 43,-450.5 397,-450.5 397,-415.5 43,-415.5"/>
<polygon fill="none" stroke="#000000" points="43,-415.5 43,-450.5 397,-450.5 397,-415.5 43,-415.5"/>
<text text-anchor="start" x="49.6857" y="-428.3" font-family="Arial Bold" font-size="18.00" fill="#000000">public.location_attachment</text>
<text text-anchor="start" x="262.7463" y="-428.3" font-family="Arial" font-size="14.00" fill="#000000">    </text>
<text text-anchor="start" x="296.9511" y="-428.3" font-family="Arial" font-size="14.00" fill="#666666">[BASE TABLE]</text>
<polygon fill="none" stroke="#000000" points="43,-385.5 43,-415.5 397,-415.5 397,-385.5 43,-385.5"/>
<text text-anchor="start" x="50" y="-396.9" font-family="Arial" font-size="14.00" fill="#000000">location_id    </text>
<text text-anchor="start" x="151.1108" y="-396.9" font-family="Arial" font-size="14.00" fill="#666666">[bigint]</text>
<polygon fill="none" stroke="#000000" points="43,-355.5 43,-385.5 397,-385.5 397,-355.5 43,-355.5"/>
<text text-anchor="start" x="50" y="-366.9" font-family="Arial" font-size="14.00" fill="#000000">object_name    </text>
<text text-anchor="start" x="164.3408" y="-366.9" font-family="Arial" font-size="14.00" fill="#666666">[text]</text>
</g>
<!-- public.location_attachment&#45;&gt;public.location -->
<g id="edge1" class="edge">
<title>public.location_attachment:location_id&#45;&gt;public.location:id</title>
<path fill="none" stroke="#000000" d="M407.0893,-398.9209C431.8364,-389.8336 413.9634,-343.545 397,-313 370.0557,-264.4829 317.9443,-295.5171 291,-247 270.177,-209.5052 248.1111,-150.5 291,-150.5"/>
<polygon fill="#000000" stroke="#000000" points="406.8797,-398.9536 396.3041,-396.0541 401.9399,-399.7268 397,-400.5 397,-400.5 397,-400.5 401.9399,-399.7268 397.6959,-404.9459 406.8797,-398.9536 406.8797,-398.9536"/>
<text text-anchor="start" x="403.5475" y="-410.5" font-family="Arial" font-size="10.00" fill="#000000">FOREIGN KEY (location_id) REFERENCES location(id) ON DELETE CASCADE</text>
</g>
<!-- public.room -->
<g id="node3" class="node">
<title>public.room</title>
<polygon fill="#efefef" stroke="transparent" points="501,-445.5 501,-480.5 735,-480.5 735,-445.5 501,-445.5"/>
<polygon fill="none" stroke="#000000" points="501,-445.5 501,-480.5 735,-480.5 735,-445.5 501,-445.5"/>
<text text-anchor="start" x="507.713" y="-458.3" font-family="Arial Bold" font-size="18.00" fill="#000000">public.room</text>
<text text-anchor="start" x="600.719" y="-458.3" font-family="Arial" font-size="14.00" fill="#000000">    </text>
<text text-anchor="start" x="634.9238" y="-458.3" font-family="Arial" font-size="14.00" fill="#666666">[BASE TABLE]</text>
<polygon fill="none" stroke="#000000" points="501,-415.5 501,-445.5 735,-445.5 735,-415.5 501,-415.5"/>
<text text-anchor="start" x="508" y="-426.9" font-family="Arial" font-size="14.00" fill="#000000">id    </text>
<text text-anchor="start" x="553.094" y="-426.9" font-family="Arial" font-size="14.00" fill="#666666">[bigint]</text>
<polygon fill="none" stroke="#000000" points="501,-385.5 501,-415.5 735,-415.5 735,-385.5 501,-385.5"/>
<text text-anchor="start" x="508" y="-396.9" font-family="Arial" font-size="14.00" fill="#000000">name    </text>
<text text-anchor="start" x="577.2132" y="-396.9" font-family="Arial" font-size="14.00" fill="#666666">[text]</text>
<polygon fill="none" stroke="#000000" points="501,-355.5 501,-385.5 735,-385.5 735,-355.5 501,-355.5"/>
<text text-anchor="start" x="508" y="-366.9" font-family="Arial" font-size="14.00" fill="#000000">description    </text>
<text text-anchor="start" x="609.8822" y="-366.9" font-family="Arial" font-size="14.00" fill="#666666">[jsonb]</text>
<polygon fill="none" stroke="#000000" points="501,-325.5 501,-355.5 735,-355.5 735,-325.5 501,-325.5"/>
<text text-anchor="start" x="508" y="-336.9" font-family="Arial" font-size="14.00" fill="#000000">location    </text>
<text text-anchor="start" x="590.439" y="-336.9" font-family="Arial" font-size="14.00" fill="#666666">[bigint]</text>
</g>
<!-- public.room&#45;&gt;public.location -->
<g id="edge2" class="edge">
<title>public.room:location&#45;&gt;public.location:id</title>
<path fill="none" stroke="#000000" d="M491.1508,-337.6785C480.3228,-328.9898 491.8323,-302.0745 501,-283 512.095,-259.9154 534.905,-270.0846 546,-247 564.579,-208.3441 588.8889,-150.5 546,-150.5"/>
<polygon fill="#000000" stroke="#000000" points="491.3867,-337.746 499.7607,-344.826 496.1933,-339.123 501,-340.5 501,-340.5 501,-340.5 496.1933,-339.123 502.2393,-336.174 491.3867,-337.746 491.3867,-337.746"/>
<text text-anchor="start" x="508.216" y="-350.5" font-family="Arial" font-size="10.00" fill="#000000">FOREIGN KEY (location) REFERENCES location(id) ON DELETE CASCADE</text>
</g>
</g>
</svg>
