<?xml version="1.0" encoding="UTF-8" standalone="no"?>
<!DOCTYPE svg PUBLIC "-//W3C//DTD SVG 1.1//EN"
 "http://www.w3.org/Graphics/SVG/1.1/DTD/svg11.dtd">
<!-- Generated by graphviz version 2.40.1 (20161225.0304)
 -->
<!-- Title: public.auth_details_view Pages: 1 -->
<svg width="386pt" height="345pt"
 viewBox="0.00 0.00 386.00 345.00" xmlns="http://www.w3.org/2000/svg" xmlns:xlink="http://www.w3.org/1999/xlink">
<g id="graph0" class="graph" transform="scale(1 1) rotate(0) translate(4 341)">
<title>public.auth_details_view</title>
<polygon fill="#ffffff" stroke="transparent" points="-4,4 -4,-341 382,-341 382,4 -4,4"/>
<!-- public.auth_details_view -->
<g id="node1" class="node">
<title>public.auth_details_view</title>
<polygon fill="#efefef" stroke="transparent" points="46,-255.5 46,-290.5 332,-290.5 332,-255.5 46,-255.5"/>
<polygon fill="none" stroke="#000000" points="46,-255.5 46,-290.5 332,-290.5 332,-255.5 46,-255.5"/>
<text text-anchor="start" x="52.5947" y="-268.3" font-family="Arial Bold" font-size="18.00" fill="#000000">public.auth_details_view</text>
<text text-anchor="start" x="247.6409" y="-268.3" font-family="Arial" font-size="14.00" fill="#000000">    </text>
<text text-anchor="start" x="281.8457" y="-268.3" font-family="Arial" font-size="14.00" fill="#666666">[VIEW]</text>
<polygon fill="none" stroke="#000000" points="46,-225.5 46,-255.5 332,-255.5 332,-225.5 46,-225.5"/>
<text text-anchor="start" x="53" y="-236.9" font-family="Arial" font-size="14.00" fill="#000000">person_id </text>
<text text-anchor="start" x="118.3534" y="-236.9" font-family="Arial" font-size="14.00" fill="#666666">[bigint]</text>
<polygon fill="none" stroke="#000000" points="46,-195.5 46,-225.5 332,-225.5 332,-195.5 46,-195.5"/>
<text text-anchor="start" x="53" y="-206.9" font-family="Arial" font-size="14.00" fill="#000000">couple_ids </text>
<text text-anchor="start" x="123.7994" y="-206.9" font-family="Arial" font-size="14.00" fill="#666666">[bigint[]]</text>
<polygon fill="none" stroke="#000000" points="46,-165.5 46,-195.5 332,-195.5 332,-165.5 46,-165.5"/>
<text text-anchor="start" x="53" y="-176.9" font-family="Arial" font-size="14.00" fill="#000000">cohort_memberships </text>
<text text-anchor="start" x="187.5736" y="-176.9" font-family="Arial" font-size="14.00" fill="#666666">[bigint[]]</text>
<polygon fill="none" stroke="#000000" points="46,-135.5 46,-165.5 332,-165.5 332,-135.5 46,-135.5"/>
<text text-anchor="start" x="53" y="-146.9" font-family="Arial" font-size="14.00" fill="#000000">tenant_memberships </text>
<text text-anchor="start" x="187.5862" y="-146.9" font-family="Arial" font-size="14.00" fill="#666666">[bigint[]]</text>
<polygon fill="none" stroke="#000000" points="46,-105.5 46,-135.5 332,-135.5 332,-105.5 46,-105.5"/>
<text text-anchor="start" x="53" y="-116.9" font-family="Arial" font-size="14.00" fill="#000000">tenant_trainers </text>
<text text-anchor="start" x="150.251" y="-116.9" font-family="Arial" font-size="14.00" fill="#666666">[bigint[]]</text>
<polygon fill="none" stroke="#000000" points="46,-75.5 46,-105.5 332,-105.5 332,-75.5 46,-75.5"/>
<text text-anchor="start" x="53" y="-86.9" font-family="Arial" font-size="14.00" fill="#000000">tenant_administrators </text>
<text text-anchor="start" x="191.474" y="-86.9" font-family="Arial" font-size="14.00" fill="#666666">[bigint[]]</text>
<polygon fill="none" stroke="#000000" points="46,-45.5 46,-75.5 332,-75.5 332,-45.5 46,-45.5"/>
<text text-anchor="start" x="53" y="-56.9" font-family="Arial" font-size="14.00" fill="#000000">allowed_tenants </text>
<text text-anchor="start" x="158.035" y="-56.9" font-family="Arial" font-size="14.00" fill="#666666">[bigint[]]</text>
<polygon fill="none" stroke="#000000" stroke-width="3" points="44.5,-44.5 44.5,-292.5 333.5,-292.5 333.5,-44.5 44.5,-44.5"/>
</g>
</g>
</svg>
