<?xml version="1.0" encoding="UTF-8" standalone="no"?>
<!DOCTYPE svg PUBLIC "-//W3C//DTD SVG 1.1//EN"
 "http://www.w3.org/Graphics/SVG/1.1/DTD/svg11.dtd">
<!-- Generated by graphviz version 2.40.1 (20161225.0304)
 -->
<!-- Title: public.couple Pages: 1 -->
<svg width="862pt" height="1589pt"
 viewBox="0.00 0.00 862.00 1589.00" xmlns="http://www.w3.org/2000/svg" xmlns:xlink="http://www.w3.org/1999/xlink">
<g id="graph0" class="graph" transform="scale(1 1) rotate(0) translate(4 1585)">
<title>public.couple</title>
<polygon fill="#ffffff" stroke="transparent" points="-4,4 -4,-1585 858,-1585 858,4 -4,4"/>
<!-- public.couple -->
<g id="node1" class="node">
<title>public.couple</title>
<polygon fill="#efefef" stroke="transparent" points="516,-1072.5 516,-1107.5 769,-1107.5 769,-1072.5 516,-1072.5"/>
<polygon fill="none" stroke="#000000" points="516,-1072.5 516,-1107.5 769,-1107.5 769,-1072.5 516,-1072.5"/>
<text text-anchor="start" x="526.2019" y="-1085.3" font-family="Arial Bold" font-size="18.00" fill="#000000">public.couple</text>
<text text-anchor="start" x="631.2301" y="-1085.3" font-family="Arial" font-size="14.00" fill="#000000">    </text>
<text text-anchor="start" x="665.4349" y="-1085.3" font-family="Arial" font-size="14.00" fill="#666666">[BASE TABLE]</text>
<polygon fill="none" stroke="#000000" points="516,-1042.5 516,-1072.5 769,-1072.5 769,-1042.5 516,-1042.5"/>
<text text-anchor="start" x="523" y="-1053.9" font-family="Arial" font-size="14.00" fill="#000000">id </text>
<text text-anchor="start" x="537.7798" y="-1053.9" font-family="Arial" font-size="14.00" fill="#666666">[bigint]</text>
<polygon fill="none" stroke="#000000" points="516,-1012.5 516,-1042.5 769,-1042.5 769,-1012.5 516,-1012.5"/>
<text text-anchor="start" x="523" y="-1023.9" font-family="Arial" font-size="14.00" fill="#000000">man_id </text>
<text text-anchor="start" x="572.7882" y="-1023.9" font-family="Arial" font-size="14.00" fill="#666666">[bigint]</text>
<polygon fill="none" stroke="#000000" points="516,-982.5 516,-1012.5 769,-1012.5 769,-982.5 516,-982.5"/>
<text text-anchor="start" x="523" y="-993.9" font-family="Arial" font-size="14.00" fill="#000000">woman_id </text>
<text text-anchor="start" x="590.6774" y="-993.9" font-family="Arial" font-size="14.00" fill="#666666">[bigint]</text>
<polygon fill="none" stroke="#000000" points="516,-952.5 516,-982.5 769,-982.5 769,-952.5 516,-952.5"/>
<text text-anchor="start" x="523" y="-963.9" font-family="Arial" font-size="14.00" fill="#000000">since </text>
<text text-anchor="start" x="559.5624" y="-963.9" font-family="Arial" font-size="14.00" fill="#666666">[timestamp with time zone]</text>
<polygon fill="none" stroke="#000000" points="516,-922.5 516,-952.5 769,-952.5 769,-922.5 516,-922.5"/>
<text text-anchor="start" x="523" y="-933.9" font-family="Arial" font-size="14.00" fill="#000000">until </text>
<text text-anchor="start" x="552.5596" y="-933.9" font-family="Arial" font-size="14.00" fill="#666666">[timestamp with time zone]</text>
<polygon fill="none" stroke="#000000" points="516,-892.5 516,-922.5 769,-922.5 769,-892.5 516,-892.5"/>
<text text-anchor="start" x="523" y="-903.9" font-family="Arial" font-size="14.00" fill="#000000">created_at </text>
<text text-anchor="start" x="593.028" y="-903.9" font-family="Arial" font-size="14.00" fill="#666666">[timestamp with time zone]</text>
<polygon fill="none" stroke="#000000" points="516,-862.5 516,-892.5 769,-892.5 769,-862.5 516,-862.5"/>
<text text-anchor="start" x="522.6915" y="-873.9" font-family="Arial" font-size="14.00" fill="#000000">updated_at </text>
<text text-anchor="start" x="596.6241" y="-873.9" font-family="Arial" font-size="14.00" fill="#666666">[timestamp with time zone]</text>
<polygon fill="none" stroke="#000000" points="516,-832.5 516,-862.5 769,-862.5 769,-832.5 516,-832.5"/>
<text text-anchor="start" x="523" y="-843.9" font-family="Arial" font-size="14.00" fill="#000000">legacy_pary_id </text>
<text text-anchor="start" x="621.0252" y="-843.9" font-family="Arial" font-size="14.00" fill="#666666">[bigint]</text>
<polygon fill="none" stroke="#000000" points="516,-802.5 516,-832.5 769,-832.5 769,-802.5 516,-802.5"/>
<text text-anchor="start" x="523" y="-813.9" font-family="Arial" font-size="14.00" fill="#000000">active_range </text>
<text text-anchor="start" x="607.0266" y="-813.9" font-family="Arial" font-size="14.00" fill="#666666">[tstzrange]</text>
<polygon fill="none" stroke="#000000" points="516,-772.5 516,-802.5 769,-802.5 769,-772.5 516,-772.5"/>
<text text-anchor="start" x="523" y="-783.9" font-family="Arial" font-size="14.00" fill="#000000">status </text>
<text text-anchor="start" x="564.237" y="-783.9" font-family="Arial" font-size="14.00" fill="#666666">[relationship_status]</text>
<polygon fill="none" stroke="#000000" points="516,-742.5 516,-772.5 769,-772.5 769,-742.5 516,-742.5"/>
<text text-anchor="start" x="523" y="-753.9" font-family="Arial" font-size="14.00" fill="#000000">active </text>
<text text-anchor="start" x="563.453" y="-753.9" font-family="Arial" font-size="14.00" fill="#666666">[boolean]</text>
<polygon fill="none" stroke="#000000" stroke-width="3" points="514,-741.5 514,-1109.5 770,-1109.5 770,-741.5 514,-741.5"/>
</g>
<!-- public.person -->
<g id="node3" class="node">
<title>public.person</title>
<polygon fill="#efefef" stroke="transparent" points="501,-582.5 501,-617.5 784,-617.5 784,-582.5 501,-582.5"/>
<polygon fill="none" stroke="#000000" points="501,-582.5 501,-617.5 784,-617.5 784,-582.5 501,-582.5"/>
<text text-anchor="start" x="525.2029" y="-595.3" font-family="Arial Bold" font-size="18.00" fill="#000000">public.person</text>
<text text-anchor="start" x="632.2291" y="-595.3" font-family="Arial" font-size="14.00" fill="#000000">    </text>
<text text-anchor="start" x="666.4339" y="-595.3" font-family="Arial" font-size="14.00" fill="#666666">[BASE TABLE]</text>
<polygon fill="none" stroke="#000000" points="501,-552.5 501,-582.5 784,-582.5 784,-552.5 501,-552.5"/>
<text text-anchor="start" x="508" y="-563.9" font-family="Arial" font-size="14.00" fill="#000000">id    </text>
<text text-anchor="start" x="553.094" y="-563.9" font-family="Arial" font-size="14.00" fill="#666666">[bigint]</text>
<polygon fill="none" stroke="#000000" points="501,-522.5 501,-552.5 784,-552.5 784,-522.5 501,-522.5"/>
<text text-anchor="start" x="508" y="-533.9" font-family="Arial" font-size="14.00" fill="#000000">first_name    </text>
<text text-anchor="start" x="607.5442" y="-533.9" font-family="Arial" font-size="14.00" fill="#666666">[text]</text>
<polygon fill="none" stroke="#000000" points="501,-492.5 501,-522.5 784,-522.5 784,-492.5 501,-492.5"/>
<text text-anchor="start" x="508" y="-503.9" font-family="Arial" font-size="14.00" fill="#000000">last_name    </text>
<text text-anchor="start" x="606.7756" y="-503.9" font-family="Arial" font-size="14.00" fill="#666666">[text]</text>
<polygon fill="none" stroke="#000000" points="501,-462.5 501,-492.5 784,-492.5 784,-462.5 501,-462.5"/>
<text text-anchor="start" x="508" y="-473.9" font-family="Arial" font-size="14.00" fill="#000000">gender    </text>
<text text-anchor="start" x="585.7784" y="-473.9" font-family="Arial" font-size="14.00" fill="#666666">[gender_type]</text>
<polygon fill="none" stroke="#000000" points="501,-432.5 501,-462.5 784,-462.5 784,-432.5 501,-432.5"/>
<text text-anchor="start" x="508" y="-443.9" font-family="Arial" font-size="14.00" fill="#000000">birth_date    </text>
<text text-anchor="start" x="604.4488" y="-443.9" font-family="Arial" font-size="14.00" fill="#666666">[date]</text>
<polygon fill="none" stroke="#000000" points="501,-402.5 501,-432.5 784,-432.5 784,-402.5 501,-402.5"/>
<text text-anchor="start" x="508" y="-413.9" font-family="Arial" font-size="14.00" fill="#000000">nationality    </text>
<text text-anchor="start" x="605.2188" y="-413.9" font-family="Arial" font-size="14.00" fill="#666666">[text]</text>
<polygon fill="none" stroke="#000000" points="501,-372.5 501,-402.5 784,-402.5 784,-372.5 501,-372.5"/>
<text text-anchor="start" x="508" y="-383.9" font-family="Arial" font-size="14.00" fill="#000000">tax_identification_number    </text>
<text text-anchor="start" x="701.6886" y="-383.9" font-family="Arial" font-size="14.00" fill="#666666">[text]</text>
<polygon fill="none" stroke="#000000" points="501,-342.5 501,-372.5 784,-372.5 784,-342.5 501,-342.5"/>
<text text-anchor="start" x="508" y="-353.9" font-family="Arial" font-size="14.00" fill="#000000">national_id_number    </text>
<text text-anchor="start" x="665.1276" y="-353.9" font-family="Arial" font-size="14.00" fill="#666666">[text]</text>
<polygon fill="none" stroke="#000000" points="501,-312.5 501,-342.5 784,-342.5 784,-312.5 501,-312.5"/>
<text text-anchor="start" x="508" y="-323.9" font-family="Arial" font-size="14.00" fill="#000000">csts_id    </text>
<text text-anchor="start" x="585.7672" y="-323.9" font-family="Arial" font-size="14.00" fill="#666666">[text]</text>
<polygon fill="none" stroke="#000000" points="501,-282.5 501,-312.5 784,-312.5 784,-282.5 501,-282.5"/>
<text text-anchor="start" x="508" y="-293.9" font-family="Arial" font-size="14.00" fill="#000000">wdsf_id    </text>
<text text-anchor="start" x="589.6564" y="-293.9" font-family="Arial" font-size="14.00" fill="#666666">[text]</text>
<polygon fill="none" stroke="#000000" points="501,-252.5 501,-282.5 784,-282.5 784,-252.5 501,-252.5"/>
<text text-anchor="start" x="508" y="-263.9" font-family="Arial" font-size="14.00" fill="#000000">created_at    </text>
<text text-anchor="start" x="608.3422" y="-263.9" font-family="Arial" font-size="14.00" fill="#666666">[timestamp with time zone]</text>
<polygon fill="none" stroke="#000000" points="501,-222.5 501,-252.5 784,-252.5 784,-222.5 501,-222.5"/>
<text text-anchor="start" x="507.5344" y="-233.9" font-family="Arial" font-size="14.00" fill="#000000">updated_at    </text>
<text text-anchor="start" x="611.7812" y="-233.9" font-family="Arial" font-size="14.00" fill="#666666">[timestamp with time zone]</text>
<polygon fill="none" stroke="#000000" points="501,-192.5 501,-222.5 784,-222.5 784,-192.5 501,-192.5"/>
<text text-anchor="start" x="508" y="-203.9" font-family="Arial" font-size="14.00" fill="#000000">legacy_user_id    </text>
<text text-anchor="start" x="636.3394" y="-203.9" font-family="Arial" font-size="14.00" fill="#666666">[bigint]</text>
<polygon fill="none" stroke="#000000" points="501,-162.5 501,-192.5 784,-192.5 784,-162.5 501,-162.5"/>
<text text-anchor="start" x="508" y="-173.9" font-family="Arial" font-size="14.00" fill="#000000">prefix_title    </text>
<text text-anchor="start" x="605.9874" y="-173.9" font-family="Arial" font-size="14.00" fill="#666666">[text]</text>
<polygon fill="none" stroke="#000000" points="501,-132.5 501,-162.5 784,-162.5 784,-132.5 501,-132.5"/>
<text text-anchor="start" x="508" y="-143.9" font-family="Arial" font-size="14.00" fill="#000000">suffix_title    </text>
<text text-anchor="start" x="604.4348" y="-143.9" font-family="Arial" font-size="14.00" fill="#666666">[text]</text>
<polygon fill="none" stroke="#000000" points="501,-102.5 501,-132.5 784,-132.5 784,-102.5 501,-102.5"/>
<text text-anchor="start" x="508" y="-113.9" font-family="Arial" font-size="14.00" fill="#000000">bio    </text>
<text text-anchor="start" x="560.8766" y="-113.9" font-family="Arial" font-size="14.00" fill="#666666">[text]</text>
<polygon fill="none" stroke="#000000" points="501,-72.5 501,-102.5 784,-102.5 784,-72.5 501,-72.5"/>
<text text-anchor="start" x="508" y="-83.9" font-family="Arial" font-size="14.00" fill="#000000">email    </text>
<text text-anchor="start" x="575.6438" y="-83.9" font-family="Arial" font-size="14.00" fill="#666666">[citext]</text>
<polygon fill="none" stroke="#000000" points="501,-42.5 501,-72.5 784,-72.5 784,-42.5 501,-42.5"/>
<text text-anchor="start" x="508" y="-53.9" font-family="Arial" font-size="14.00" fill="#000000">phone    </text>
<text text-anchor="start" x="581.1178" y="-53.9" font-family="Arial" font-size="14.00" fill="#666666">[text]</text>
</g>
<!-- public.couple&#45;&gt;public.person -->
<g id="edge2" class="edge">
<title>public.couple:man_id&#45;&gt;public.person:id</title>
<path fill="none" stroke="#000000" d="M506.102,-1026.0123C412.8566,-997.4603 402.1193,-567.5 501,-567.5"/>
<polygon fill="#000000" stroke="#000000" points="506.1111,-1026.0136 515.3311,-1031.95 511.0555,-1026.7568 516,-1027.5 516,-1027.5 516,-1027.5 511.0555,-1026.7568 516.6689,-1023.05 506.1111,-1026.0136 506.1111,-1026.0136"/>
<text text-anchor="start" x="56.8835" y="-1037.5" font-family="Arial" font-size="10.00" fill="#000000">FOREIGN KEY (man_id) REFERENCES person(id) ON UPDATE CASCADE ON DELETE CASCADE</text>
</g>
<!-- public.couple&#45;&gt;public.person -->
<g id="edge3" class="edge">
<title>public.couple:woman_id&#45;&gt;public.person:id</title>
<path fill="none" stroke="#000000" d="M505.9528,-995.8564C419.4468,-966.9872 408.8411,-567.5 501,-567.5"/>
<polygon fill="#000000" stroke="#000000" points="506.1312,-995.8855 515.2735,-1001.941 511.0656,-996.6927 516,-997.5 516,-997.5 516,-997.5 511.0656,-996.6927 516.7265,-993.059 506.1312,-995.8855 506.1312,-995.8855"/>
<text text-anchor="start" x="44.4945" y="-1007.5" font-family="Arial" font-size="10.00" fill="#000000">FOREIGN KEY (woman_id) REFERENCES person(id) ON UPDATE CASCADE ON DELETE CASCADE</text>
</g>
<!-- public.event_registration -->
<g id="node2" class="node">
<title>public.event_registration</title>
<polygon fill="#efefef" stroke="transparent" points="475,-1502.5 475,-1537.5 811,-1537.5 811,-1502.5 475,-1502.5"/>
<polygon fill="none" stroke="#000000" points="475,-1502.5 475,-1537.5 811,-1537.5 811,-1502.5 475,-1502.5"/>
<text text-anchor="start" x="481.6938" y="-1515.3" font-family="Arial Bold" font-size="18.00" fill="#000000">public.event_registration</text>
<text text-anchor="start" x="676.7382" y="-1515.3" font-family="Arial" font-size="14.00" fill="#000000">    </text>
<text text-anchor="start" x="710.943" y="-1515.3" font-family="Arial" font-size="14.00" fill="#666666">[BASE TABLE]</text>
<polygon fill="none" stroke="#000000" points="475,-1472.5 475,-1502.5 811,-1502.5 811,-1472.5 475,-1472.5"/>
<text text-anchor="start" x="482" y="-1483.9" font-family="Arial" font-size="14.00" fill="#000000">id    </text>
<text text-anchor="start" x="527.094" y="-1483.9" font-family="Arial" font-size="14.00" fill="#666666">[bigint]</text>
<polygon fill="none" stroke="#000000" points="475,-1442.5 475,-1472.5 811,-1472.5 811,-1442.5 475,-1442.5"/>
<text text-anchor="start" x="482" y="-1453.9" font-family="Arial" font-size="14.00" fill="#000000">tenant_id    </text>
<text text-anchor="start" x="573.7882" y="-1453.9" font-family="Arial" font-size="14.00" fill="#666666">[bigint]</text>
<polygon fill="none" stroke="#000000" points="475,-1412.5 475,-1442.5 811,-1442.5 811,-1412.5 475,-1412.5"/>
<text text-anchor="start" x="482" y="-1423.9" font-family="Arial" font-size="14.00" fill="#000000">event_id    </text>
<text text-anchor="start" x="569.115" y="-1423.9" font-family="Arial" font-size="14.00" fill="#666666">[bigint]</text>
<polygon fill="none" stroke="#000000" points="475,-1382.5 475,-1412.5 811,-1412.5 811,-1382.5 475,-1382.5"/>
<text text-anchor="start" x="482" y="-1393.9" font-family="Arial" font-size="14.00" fill="#000000">target_cohort_id    </text>
<text text-anchor="start" x="617.3478" y="-1393.9" font-family="Arial" font-size="14.00" fill="#666666">[bigint]</text>
<polygon fill="none" stroke="#000000" points="475,-1352.5 475,-1382.5 811,-1382.5 811,-1352.5 475,-1352.5"/>
<text text-anchor="start" x="482" y="-1363.9" font-family="Arial" font-size="14.00" fill="#000000">couple_id    </text>
<text text-anchor="start" x="576.1136" y="-1363.9" font-family="Arial" font-size="14.00" fill="#666666">[bigint]</text>
<polygon fill="none" stroke="#000000" points="475,-1322.5 475,-1352.5 811,-1352.5 811,-1322.5 475,-1322.5"/>
<text text-anchor="start" x="482" y="-1333.9" font-family="Arial" font-size="14.00" fill="#000000">person_id    </text>
<text text-anchor="start" x="577.6676" y="-1333.9" font-family="Arial" font-size="14.00" fill="#666666">[bigint]</text>
<polygon fill="none" stroke="#000000" points="475,-1292.5 475,-1322.5 811,-1322.5 811,-1292.5 475,-1292.5"/>
<text text-anchor="start" x="482" y="-1303.9" font-family="Arial" font-size="14.00" fill="#000000">note    </text>
<text text-anchor="start" x="543.4432" y="-1303.9" font-family="Arial" font-size="14.00" fill="#666666">[text]</text>
<polygon fill="none" stroke="#000000" points="475,-1262.5 475,-1292.5 811,-1292.5 811,-1262.5 475,-1262.5"/>
<text text-anchor="start" x="482" y="-1273.9" font-family="Arial" font-size="14.00" fill="#000000">created_at    </text>
<text text-anchor="start" x="582.3422" y="-1273.9" font-family="Arial" font-size="14.00" fill="#666666">[timestamp with time zone]</text>
<polygon fill="none" stroke="#000000" points="475,-1232.5 475,-1262.5 811,-1262.5 811,-1232.5 475,-1232.5"/>
<text text-anchor="start" x="482" y="-1243.9" font-family="Arial" font-size="14.00" fill="#000000">updated_at    </text>
<text text-anchor="start" x="586.2468" y="-1243.9" font-family="Arial" font-size="14.00" fill="#666666">[timestamp with time zone]</text>
</g>
<!-- public.event_registration&#45;&gt;public.couple -->
<g id="edge1" class="edge">
<title>public.event_registration:couple_id&#45;&gt;public.couple:id</title>
<path fill="none" stroke="#000000" d="M464.9999,-1366.7992C398.5533,-1356.9801 425.0655,-1246.4219 475,-1190 562.2453,-1091.4199 681.7547,-1252.5801 769,-1154 797.4243,-1121.8828 811.8889,-1057.5 769,-1057.5"/>
<polygon fill="#000000" stroke="#000000" points="465.0245,-1366.8008 474.6854,-1371.989 470.0122,-1367.1504 475,-1367.5 475,-1367.5 475,-1367.5 470.0122,-1367.1504 475.3146,-1363.011 465.0245,-1366.8008 465.0245,-1366.8008"/>
<text text-anchor="start" x="7.4345" y="-1377.5" font-family="Arial" font-size="10.00" fill="#000000">FOREIGN KEY (couple_id) REFERENCES couple(id) ON UPDATE CASCADE ON DELETE CASCADE</text>
</g>
</g>
</svg>
