<?xml version="1.0" encoding="UTF-8" standalone="no"?>
<!DOCTYPE svg PUBLIC "-//W3C//DTD SVG 1.1//EN"
 "http://www.w3.org/Graphics/SVG/1.1/DTD/svg11.dtd">
<!-- Generated by graphviz version 2.40.1 (20161225.0304)
 -->
<!-- Title: public.location_attachment Pages: 1 -->
<svg width="1180pt" height="562pt"
 viewBox="0.00 0.00 1180.00 562.00" xmlns="http://www.w3.org/2000/svg" xmlns:xlink="http://www.w3.org/1999/xlink">
<g id="graph0" class="graph" transform="scale(1 1) rotate(0) translate(4 558)">
<title>public.location_attachment</title>
<polygon fill="#ffffff" stroke="transparent" points="-4,4 -4,-558 1176,-558 1176,4 -4,4"/>
<!-- public.location_attachment -->
<g id="node1" class="node">
<title>public.location_attachment</title>
<polygon fill="#efefef" stroke="transparent" points="372,-472.5 372,-507.5 726,-507.5 726,-472.5 372,-472.5"/>
<polygon fill="none" stroke="#000000" points="372,-472.5 372,-507.5 726,-507.5 726,-472.5 372,-472.5"/>
<text text-anchor="start" x="378.6857" y="-485.3" font-family="Arial Bold" font-size="18.00" fill="#000000">public.location_attachment</text>
<text text-anchor="start" x="591.7463" y="-485.3" font-family="Arial" font-size="14.00" fill="#000000">    </text>
<text text-anchor="start" x="625.9511" y="-485.3" font-family="Arial" font-size="14.00" fill="#666666">[BASE TABLE]</text>
<polygon fill="none" stroke="#000000" points="372,-442.5 372,-472.5 726,-472.5 726,-442.5 372,-442.5"/>
<text text-anchor="start" x="379" y="-453.9" font-family="Arial" font-size="14.00" fill="#000000">location_id </text>
<text text-anchor="start" x="449.7966" y="-453.9" font-family="Arial" font-size="14.00" fill="#666666">[bigint]</text>
<polygon fill="none" stroke="#000000" points="372,-412.5 372,-442.5 726,-442.5 726,-412.5 372,-412.5"/>
<text text-anchor="start" x="379" y="-423.9" font-family="Arial" font-size="14.00" fill="#000000">object_name </text>
<text text-anchor="start" x="463.0266" y="-423.9" font-family="Arial" font-size="14.00" fill="#666666">[text]</text>
<polygon fill="none" stroke="#000000" stroke-width="3" points="370.5,-411.5 370.5,-509.5 727.5,-509.5 727.5,-411.5 370.5,-411.5"/>
</g>
<!-- public.location -->
<g id="node2" class="node">
<title>public.location</title>
<polygon fill="#efefef" stroke="transparent" points="233,-207.5 233,-242.5 488,-242.5 488,-207.5 233,-207.5"/>
<polygon fill="none" stroke="#000000" points="233,-207.5 233,-242.5 488,-242.5 488,-207.5 233,-207.5"/>
<text text-anchor="start" x="239.7037" y="-220.3" font-family="Arial Bold" font-size="18.00" fill="#000000">public.location</text>
<text text-anchor="start" x="353.7283" y="-220.3" font-family="Arial" font-size="14.00" fill="#000000">    </text>
<text text-anchor="start" x="387.9331" y="-220.3" font-family="Arial" font-size="14.00" fill="#666666">[BASE TABLE]</text>
<polygon fill="none" stroke="#000000" points="233,-177.5 233,-207.5 488,-207.5 488,-177.5 233,-177.5"/>
<text text-anchor="start" x="240" y="-188.9" font-family="Arial" font-size="14.00" fill="#000000">id    </text>
<text text-anchor="start" x="285.094" y="-188.9" font-family="Arial" font-size="14.00" fill="#666666">[bigint]</text>
<polygon fill="none" stroke="#000000" points="233,-147.5 233,-177.5 488,-177.5 488,-147.5 233,-147.5"/>
<text text-anchor="start" x="240" y="-158.9" font-family="Arial" font-size="14.00" fill="#000000">name    </text>
<text text-anchor="start" x="309.2132" y="-158.9" font-family="Arial" font-size="14.00" fill="#666666">[text]</text>
<polygon fill="none" stroke="#000000" points="233,-117.5 233,-147.5 488,-147.5 488,-117.5 233,-117.5"/>
<text text-anchor="start" x="240" y="-128.9" font-family="Arial" font-size="14.00" fill="#000000">description    </text>
<text text-anchor="start" x="341.8822" y="-128.9" font-family="Arial" font-size="14.00" fill="#666666">[jsonb]</text>
<polygon fill="none" stroke="#000000" points="233,-87.5 233,-117.5 488,-117.5 488,-87.5 233,-87.5"/>
<text text-anchor="start" x="240" y="-98.9" font-family="Arial" font-size="14.00" fill="#000000">address    </text>
<text text-anchor="start" x="323.9958" y="-98.9" font-family="Arial" font-size="14.00" fill="#666666">[address_domain]</text>
</g>
<!-- public.location_attachment&#45;&gt;public.location -->
<g id="edge1" class="edge">
<title>public.location_attachment:location_id&#45;&gt;public.location:id</title>
<path fill="none" stroke="#000000" d="M361.9252,-456.0001C335.9728,-446.9729 355.2203,-399.1825 372,-367 401.0712,-311.243 458.9288,-341.757 488,-286 507.2121,-249.1522 529.5556,-192.5 488,-192.5"/>
<polygon fill="#000000" stroke="#000000" points="362.109,-456.0274 371.3373,-461.9509 367.0545,-456.7637 372,-457.5 372,-457.5 372,-457.5 367.0545,-456.7637 372.6627,-453.0491 362.109,-456.0274 362.109,-456.0274"/>
<text text-anchor="start" x="6.5475" y="-467.5" font-family="Arial" font-size="10.00" fill="#000000">FOREIGN KEY (location_id) REFERENCES location(id) ON DELETE CASCADE</text>
</g>
<!-- public.attachment -->
<g id="node3" class="node">
<title>public.attachment</title>
<polygon fill="#efefef" stroke="transparent" points="592,-252.5 592,-287.5 882,-287.5 882,-252.5 592,-252.5"/>
<polygon fill="none" stroke="#000000" points="592,-252.5 592,-287.5 882,-287.5 882,-252.5 592,-252.5"/>
<text text-anchor="start" x="602.6965" y="-265.3" font-family="Arial Bold" font-size="18.00" fill="#000000">public.attachment</text>
<text text-anchor="start" x="743.7355" y="-265.3" font-family="Arial" font-size="14.00" fill="#000000">    </text>
<text text-anchor="start" x="777.9403" y="-265.3" font-family="Arial" font-size="14.00" fill="#666666">[BASE TABLE]</text>
<polygon fill="none" stroke="#000000" points="592,-222.5 592,-252.5 882,-252.5 882,-222.5 592,-222.5"/>
<text text-anchor="start" x="599" y="-233.9" font-family="Arial" font-size="14.00" fill="#000000">object_name    </text>
<text text-anchor="start" x="713.3408" y="-233.9" font-family="Arial" font-size="14.00" fill="#666666">[text]</text>
<polygon fill="none" stroke="#000000" points="592,-192.5 592,-222.5 882,-222.5 882,-192.5 592,-192.5"/>
<text text-anchor="start" x="599" y="-203.9" font-family="Arial" font-size="14.00" fill="#000000">preview_object_name    </text>
<text text-anchor="start" x="769.345" y="-203.9" font-family="Arial" font-size="14.00" fill="#666666">[text]</text>
<polygon fill="none" stroke="#000000" points="592,-162.5 592,-192.5 882,-192.5 882,-162.5 592,-162.5"/>
<text text-anchor="start" x="599" y="-173.9" font-family="Arial" font-size="14.00" fill="#000000">uploaded_by    </text>
<text text-anchor="start" x="713.3548" y="-173.9" font-family="Arial" font-size="14.00" fill="#666666">[bigint]</text>
<polygon fill="none" stroke="#000000" points="592,-132.5 592,-162.5 882,-162.5 882,-132.5 592,-132.5"/>
<text text-anchor="start" x="598.5351" y="-143.9" font-family="Arial" font-size="14.00" fill="#000000">uploaded_at    </text>
<text text-anchor="start" x="709.7805" y="-143.9" font-family="Arial" font-size="14.00" fill="#666666">[timestamp with time zone]</text>
<polygon fill="none" stroke="#000000" points="592,-102.5 592,-132.5 882,-132.5 882,-102.5 592,-102.5"/>
<text text-anchor="start" x="599" y="-113.9" font-family="Arial" font-size="14.00" fill="#000000">thumbhash    </text>
<text text-anchor="start" x="702.4516" y="-113.9" font-family="Arial" font-size="14.00" fill="#666666">[text]</text>
<polygon fill="none" stroke="#000000" points="592,-72.5 592,-102.5 882,-102.5 882,-72.5 592,-72.5"/>
<text text-anchor="start" x="599" y="-83.9" font-family="Arial" font-size="14.00" fill="#000000">width    </text>
<text text-anchor="start" x="665.8738" y="-83.9" font-family="Arial" font-size="14.00" fill="#666666">[integer]</text>
<polygon fill="none" stroke="#000000" points="592,-42.5 592,-72.5 882,-72.5 882,-42.5 592,-42.5"/>
<text text-anchor="start" x="599" y="-53.9" font-family="Arial" font-size="14.00" fill="#000000">height    </text>
<text text-anchor="start" x="671.3324" y="-53.9" font-family="Arial" font-size="14.00" fill="#666666">[integer]</text>
</g>
<!-- public.location_attachment&#45;&gt;public.attachment -->
<g id="edge2" class="edge">
<title>public.location_attachment:object_name&#45;&gt;public.attachment:object_name</title>
<path fill="none" stroke="#000000" d="M735.9842,-424.8491C749.4567,-415.697 739.8053,-385.0038 726,-367 688.4754,-318.0636 629.5246,-379.9364 592,-331 566.7135,-298.0234 550.4444,-237.5 592,-237.5"/>
<polygon fill="#000000" stroke="#000000" points="735.6651,-424.9337 724.8452,-423.1507 730.8326,-426.2169 726,-427.5 726,-427.5 726,-427.5 730.8326,-426.2169 727.1548,-431.8493 735.6651,-424.9337 735.6651,-424.9337"/>
<text text-anchor="start" x="732.5875" y="-437.5" font-family="Arial" font-size="10.00" fill="#000000">FOREIGN KEY (object_name) REFERENCES attachment(object_name) ON DELETE CASCADE</text>
</g>
</g>
</svg>
