<?xml version="1.0" encoding="UTF-8" standalone="no"?>
<!DOCTYPE svg PUBLIC "-//W3C//DTD SVG 1.1//EN"
 "http://www.w3.org/Graphics/SVG/1.1/DTD/svg11.dtd">
<!-- Generated by graphviz version 2.40.1 (20161225.0304)
 -->
<!-- Title: public.otp_token Pages: 1 -->
<svg width="998pt" height="982pt"
 viewBox="0.00 0.00 998.00 982.00" xmlns="http://www.w3.org/2000/svg" xmlns:xlink="http://www.w3.org/1999/xlink">
<g id="graph0" class="graph" transform="scale(1 1) rotate(0) translate(4 978)">
<title>public.otp_token</title>
<polygon fill="#ffffff" stroke="transparent" points="-4,4 -4,-978 994,-978 994,4 -4,4"/>
<!-- public.otp_token -->
<g id="node1" class="node">
<title>public.otp_token</title>
<polygon fill="#efefef" stroke="transparent" points="359,-892.5 359,-927.5 631,-927.5 631,-892.5 359,-892.5"/>
<polygon fill="none" stroke="#000000" points="359,-892.5 359,-927.5 631,-927.5 631,-892.5 359,-892.5"/>
<text text-anchor="start" x="365.6906" y="-905.3" font-family="Arial Bold" font-size="18.00" fill="#000000">public.otp_token</text>
<text text-anchor="start" x="496.7414" y="-905.3" font-family="Arial" font-size="14.00" fill="#000000">    </text>
<text text-anchor="start" x="530.9462" y="-905.3" font-family="Arial" font-size="14.00" fill="#666666">[BASE TABLE]</text>
<polygon fill="none" stroke="#000000" points="359,-862.5 359,-892.5 631,-892.5 631,-862.5 359,-862.5"/>
<text text-anchor="start" x="366" y="-873.9" font-family="Arial" font-size="14.00" fill="#000000">id </text>
<text text-anchor="start" x="380.7798" y="-873.9" font-family="Arial" font-size="14.00" fill="#666666">[bigint]</text>
<polygon fill="none" stroke="#000000" points="359,-832.5 359,-862.5 631,-862.5 631,-832.5 359,-832.5"/>
<text text-anchor="start" x="366" y="-843.9" font-family="Arial" font-size="14.00" fill="#000000">access_token </text>
<text text-anchor="start" x="455.4768" y="-843.9" font-family="Arial" font-size="14.00" fill="#666666">[uuid]</text>
<polygon fill="none" stroke="#000000" points="359,-802.5 359,-832.5 631,-832.5 631,-802.5 359,-802.5"/>
<text text-anchor="start" x="366" y="-813.9" font-family="Arial" font-size="14.00" fill="#000000">user_id </text>
<text text-anchor="start" x="415.7882" y="-813.9" font-family="Arial" font-size="14.00" fill="#666666">[bigint]</text>
<polygon fill="none" stroke="#000000" points="359,-772.5 359,-802.5 631,-802.5 631,-772.5 359,-772.5"/>
<text text-anchor="start" x="366" y="-783.9" font-family="Arial" font-size="14.00" fill="#000000">tenant_id </text>
<text text-anchor="start" x="427.474" y="-783.9" font-family="Arial" font-size="14.00" fill="#666666">[bigint]</text>
<polygon fill="none" stroke="#000000" points="359,-742.5 359,-772.5 631,-772.5 631,-742.5 359,-742.5"/>
<text text-anchor="start" x="366" y="-753.9" font-family="Arial" font-size="14.00" fill="#000000">expires_at </text>
<text text-anchor="start" x="434.4614" y="-753.9" font-family="Arial" font-size="14.00" fill="#666666">[timestamp with time zone]</text>
<polygon fill="none" stroke="#000000" points="359,-712.5 359,-742.5 631,-742.5 631,-712.5 359,-712.5"/>
<text text-anchor="start" x="366" y="-723.9" font-family="Arial" font-size="14.00" fill="#000000">used_at </text>
<text text-anchor="start" x="419.6942" y="-723.9" font-family="Arial" font-size="14.00" fill="#666666">[timestamp with time zone]</text>
<polygon fill="none" stroke="#000000" points="359,-682.5 359,-712.5 631,-712.5 631,-682.5 359,-682.5"/>
<text text-anchor="start" x="366" y="-693.9" font-family="Arial" font-size="14.00" fill="#000000">created_at </text>
<text text-anchor="start" x="436.028" y="-693.9" font-family="Arial" font-size="14.00" fill="#666666">[timestamp with time zone]</text>
<polygon fill="none" stroke="#000000" points="359,-652.5 359,-682.5 631,-682.5 631,-652.5 359,-652.5"/>
<text text-anchor="start" x="366" y="-663.9" font-family="Arial" font-size="14.00" fill="#000000">updated_at </text>
<text text-anchor="start" x="439.9326" y="-663.9" font-family="Arial" font-size="14.00" fill="#666666">[timestamp with time zone]</text>
<polygon fill="none" stroke="#000000" stroke-width="3" points="357.5,-651.5 357.5,-929.5 632.5,-929.5 632.5,-651.5 357.5,-651.5"/>
</g>
<!-- public.users -->
<g id="node2" class="node">
<title>public.users</title>
<polygon fill="#efefef" stroke="transparent" points="161,-492.5 161,-527.5 456,-527.5 456,-492.5 161,-492.5"/>
<polygon fill="none" stroke="#000000" points="161,-492.5 161,-527.5 456,-527.5 456,-492.5 161,-492.5"/>
<text text-anchor="start" x="196.7091" y="-505.3" font-family="Arial Bold" font-size="18.00" fill="#000000">public.users</text>
<text text-anchor="start" x="292.7229" y="-505.3" font-family="Arial" font-size="14.00" fill="#000000">    </text>
<text text-anchor="start" x="326.9277" y="-505.3" font-family="Arial" font-size="14.00" fill="#666666">[BASE TABLE]</text>
<polygon fill="none" stroke="#000000" points="161,-462.5 161,-492.5 456,-492.5 456,-462.5 161,-462.5"/>
<text text-anchor="start" x="168" y="-473.9" font-family="Arial" font-size="14.00" fill="#000000">u_id    </text>
<text text-anchor="start" x="228.6592" y="-473.9" font-family="Arial" font-size="14.00" fill="#666666">[bigint]</text>
<polygon fill="none" stroke="#000000" points="161,-432.5 161,-462.5 456,-462.5 456,-432.5 161,-432.5"/>
<text text-anchor="start" x="168" y="-443.9" font-family="Arial" font-size="14.00" fill="#000000">u_login    </text>
<text text-anchor="start" x="247.331" y="-443.9" font-family="Arial" font-size="14.00" fill="#666666">[citext]</text>
<polygon fill="none" stroke="#000000" points="161,-402.5 161,-432.5 456,-432.5 456,-402.5 161,-402.5"/>
<text text-anchor="start" x="168" y="-413.9" font-family="Arial" font-size="14.00" fill="#000000">u_pass    </text>
<text text-anchor="start" x="247.3352" y="-413.9" font-family="Arial" font-size="14.00" fill="#666666">[character(40)]</text>
<polygon fill="none" stroke="#000000" points="161,-372.5 161,-402.5 456,-402.5 456,-372.5 161,-372.5"/>
<text text-anchor="start" x="168" y="-383.9" font-family="Arial" font-size="14.00" fill="#000000">u_jmeno    </text>
<text text-anchor="start" x="255.885" y="-383.9" font-family="Arial" font-size="14.00" fill="#666666">[text]</text>
<polygon fill="none" stroke="#000000" points="161,-342.5 161,-372.5 456,-372.5 456,-342.5 161,-342.5"/>
<text text-anchor="start" x="168" y="-353.9" font-family="Arial" font-size="14.00" fill="#000000">u_prijmeni    </text>
<text text-anchor="start" x="266.7588" y="-353.9" font-family="Arial" font-size="14.00" fill="#666666">[text]</text>
<polygon fill="none" stroke="#000000" points="161,-312.5 161,-342.5 456,-342.5 456,-312.5 161,-312.5"/>
<text text-anchor="start" x="168" y="-323.9" font-family="Arial" font-size="14.00" fill="#000000">u_email    </text>
<text text-anchor="start" x="251.209" y="-323.9" font-family="Arial" font-size="14.00" fill="#666666">[citext]</text>
<polygon fill="none" stroke="#000000" points="161,-282.5 161,-312.5 456,-312.5 456,-282.5 161,-282.5"/>
<text text-anchor="start" x="168" y="-293.9" font-family="Arial" font-size="14.00" fill="#000000">updated_at    </text>
<text text-anchor="start" x="272.2468" y="-293.9" font-family="Arial" font-size="14.00" fill="#666666">[timestamp with time zone]</text>
<polygon fill="none" stroke="#000000" points="161,-252.5 161,-282.5 456,-282.5 456,-252.5 161,-252.5"/>
<text text-anchor="start" x="168" y="-263.9" font-family="Arial" font-size="14.00" fill="#000000">u_ban    </text>
<text text-anchor="start" x="241.1178" y="-263.9" font-family="Arial" font-size="14.00" fill="#666666">[boolean]</text>
<polygon fill="none" stroke="#000000" points="161,-222.5 161,-252.5 456,-252.5 456,-222.5 161,-222.5"/>
<text text-anchor="start" x="168" y="-233.9" font-family="Arial" font-size="14.00" fill="#000000">u_confirmed    </text>
<text text-anchor="start" x="279.2188" y="-233.9" font-family="Arial" font-size="14.00" fill="#666666">[boolean]</text>
<polygon fill="none" stroke="#000000" points="161,-192.5 161,-222.5 456,-222.5 456,-192.5 161,-192.5"/>
<text text-anchor="start" x="167.7041" y="-203.9" font-family="Arial" font-size="14.00" fill="#000000">u_created_at    </text>
<text text-anchor="start" x="283.6115" y="-203.9" font-family="Arial" font-size="14.00" fill="#666666">[timestamp with time zone]</text>
<polygon fill="none" stroke="#000000" points="161,-162.5 161,-192.5 456,-192.5 456,-162.5 161,-162.5"/>
<text text-anchor="start" x="168" y="-173.9" font-family="Arial" font-size="14.00" fill="#000000">id    </text>
<text text-anchor="start" x="213.094" y="-173.9" font-family="Arial" font-size="14.00" fill="#666666">[bigint]</text>
<polygon fill="none" stroke="#000000" points="161,-132.5 161,-162.5 456,-162.5 456,-132.5 161,-132.5"/>
<text text-anchor="start" x="168" y="-143.9" font-family="Arial" font-size="14.00" fill="#000000">tenant_id    </text>
<text text-anchor="start" x="259.7882" y="-143.9" font-family="Arial" font-size="14.00" fill="#666666">[bigint]</text>
<polygon fill="none" stroke="#000000" points="161,-102.5 161,-132.5 456,-132.5 456,-102.5 161,-102.5"/>
<text text-anchor="start" x="168" y="-113.9" font-family="Arial" font-size="14.00" fill="#000000">last_login    </text>
<text text-anchor="start" x="261.3282" y="-113.9" font-family="Arial" font-size="14.00" fill="#666666">[timestamp with time zone]</text>
<polygon fill="none" stroke="#000000" points="161,-72.5 161,-102.5 456,-102.5 456,-72.5 161,-72.5"/>
<text text-anchor="start" x="168" y="-83.9" font-family="Arial" font-size="14.00" fill="#000000">created_at    </text>
<text text-anchor="start" x="268.3422" y="-83.9" font-family="Arial" font-size="14.00" fill="#666666">[timestamp with time zone]</text>
<polygon fill="none" stroke="#000000" points="161,-42.5 161,-72.5 456,-72.5 456,-42.5 161,-42.5"/>
<text text-anchor="start" x="168" y="-53.9" font-family="Arial" font-size="14.00" fill="#000000">u_timestamp    </text>
<text text-anchor="start" x="282.3268" y="-53.9" font-family="Arial" font-size="14.00" fill="#666666">[timestamp with time zone]</text>
</g>
<!-- public.otp_token&#45;&gt;public.users -->
<g id="edge1" class="edge">
<title>public.otp_token:user_id&#45;&gt;public.users:u_id</title>
<path fill="none" stroke="#000000" d="M348.6413,-816.8994C268.6004,-807.1419 307.6675,-680.805 359,-607 385.2566,-569.2487 429.7434,-608.7513 456,-571 479.7278,-536.8846 497.5556,-477.5 456,-477.5"/>
<polygon fill="#000000" stroke="#000000" points="349.0168,-816.921 358.7395,-821.9925 354.0084,-817.2105 359,-817.5 359,-817.5 359,-817.5 354.0084,-817.2105 359.2605,-813.0075 349.0168,-816.921 349.0168,-816.921"/>
<text text-anchor="start" x="7.4945" y="-827.5" font-family="Arial" font-size="10.00" fill="#000000">FOREIGN KEY (user_id) REFERENCES users(u_id) ON DELETE CASCADE</text>
</g>
<!-- public.tenant -->
<g id="node3" class="node">
<title>public.tenant</title>
<polygon fill="#efefef" stroke="transparent" points="560,-387.5 560,-422.5 803,-422.5 803,-387.5 560,-387.5"/>
<polygon fill="none" stroke="#000000" points="560,-387.5 560,-422.5 803,-422.5 803,-387.5 560,-387.5"/>
<text text-anchor="start" x="566.6968" y="-400.3" font-family="Arial Bold" font-size="18.00" fill="#000000">public.tenant</text>
<text text-anchor="start" x="668.7352" y="-400.3" font-family="Arial" font-size="14.00" fill="#000000">    </text>
<text text-anchor="start" x="702.94" y="-400.3" font-family="Arial" font-size="14.00" fill="#666666">[BASE TABLE]</text>
<polygon fill="none" stroke="#000000" points="560,-357.5 560,-387.5 803,-387.5 803,-357.5 560,-357.5"/>
<text text-anchor="start" x="567" y="-368.9" font-family="Arial" font-size="14.00" fill="#000000">id    </text>
<text text-anchor="start" x="612.094" y="-368.9" font-family="Arial" font-size="14.00" fill="#666666">[bigint]</text>
<polygon fill="none" stroke="#000000" points="560,-327.5 560,-357.5 803,-357.5 803,-327.5 560,-327.5"/>
<text text-anchor="start" x="567" y="-338.9" font-family="Arial" font-size="14.00" fill="#000000">name    </text>
<text text-anchor="start" x="636.2132" y="-338.9" font-family="Arial" font-size="14.00" fill="#666666">[text]</text>
<polygon fill="none" stroke="#000000" points="560,-297.5 560,-327.5 803,-327.5 803,-297.5 560,-297.5"/>
<text text-anchor="start" x="567" y="-308.9" font-family="Arial" font-size="14.00" fill="#000000">origins    </text>
<text text-anchor="start" x="642.4264" y="-308.9" font-family="Arial" font-size="14.00" fill="#666666">[text[]]</text>
<polygon fill="none" stroke="#000000" points="560,-267.5 560,-297.5 803,-297.5 803,-267.5 560,-267.5"/>
<text text-anchor="start" x="567" y="-278.9" font-family="Arial" font-size="14.00" fill="#000000">cz_ico    </text>
<text text-anchor="start" x="640.8766" y="-278.9" font-family="Arial" font-size="14.00" fill="#666666">[text]</text>
<polygon fill="none" stroke="#000000" points="560,-237.5 560,-267.5 803,-267.5 803,-237.5 560,-237.5"/>
<text text-anchor="start" x="567" y="-248.9" font-family="Arial" font-size="14.00" fill="#000000">cz_dic    </text>
<text text-anchor="start" x="640.8766" y="-248.9" font-family="Arial" font-size="14.00" fill="#666666">[text]</text>
<polygon fill="none" stroke="#000000" points="560,-207.5 560,-237.5 803,-237.5 803,-207.5 560,-207.5"/>
<text text-anchor="start" x="567" y="-218.9" font-family="Arial" font-size="14.00" fill="#000000">address    </text>
<text text-anchor="start" x="650.9958" y="-218.9" font-family="Arial" font-size="14.00" fill="#666666">[address_domain]</text>
<polygon fill="none" stroke="#000000" points="560,-177.5 560,-207.5 803,-207.5 803,-177.5 560,-177.5"/>
<text text-anchor="start" x="567" y="-188.9" font-family="Arial" font-size="14.00" fill="#000000">description    </text>
<text text-anchor="start" x="668.8822" y="-188.9" font-family="Arial" font-size="14.00" fill="#666666">[text]</text>
<polygon fill="none" stroke="#000000" points="560,-147.5 560,-177.5 803,-177.5 803,-147.5 560,-147.5"/>
<text text-anchor="start" x="567" y="-158.9" font-family="Arial" font-size="14.00" fill="#000000">bank_account    </text>
<text text-anchor="start" x="688.3562" y="-158.9" font-family="Arial" font-size="14.00" fill="#666666">[text]</text>
</g>
<!-- public.otp_token&#45;&gt;public.tenant -->
<g id="edge2" class="edge">
<title>public.otp_token:tenant_id&#45;&gt;public.tenant:id</title>
<path fill="none" stroke="#000000" d="M641.1359,-786.9981C773.5706,-773.1649 562.8312,-477.9177 560,-466 550.3952,-425.5697 518.4444,-372.5 560,-372.5"/>
<polygon fill="#000000" stroke="#000000" points="640.9878,-787.0053 630.7774,-783.0055 635.9939,-787.2527 631,-787.5 631,-787.5 631,-787.5 635.9939,-787.2527 631.2226,-791.9945 640.9878,-787.0053 640.9878,-787.0053"/>
<text text-anchor="start" x="638.2065" y="-797.5" font-family="Arial" font-size="10.00" fill="#000000">FOREIGN KEY (tenant_id) REFERENCES tenant(id) ON DELETE CASCADE</text>
</g>
</g>
</svg>
