<?xml version="1.0" encoding="UTF-8" standalone="no"?>
<!DOCTYPE svg PUBLIC "-//W3C//DTD SVG 1.1//EN"
 "http://www.w3.org/Graphics/SVG/1.1/DTD/svg11.dtd">
<!-- Generated by graphviz version 2.40.1 (20161225.0304)
 -->
<!-- Title: public.platby_item Pages: 1 -->
<svg width="1545pt" height="1042pt"
 viewBox="0.00 0.00 1545.00 1042.00" xmlns="http://www.w3.org/2000/svg" xmlns:xlink="http://www.w3.org/1999/xlink">
<g id="graph0" class="graph" transform="scale(1 1) rotate(0) translate(4 1038)">
<title>public.platby_item</title>
<polygon fill="#ffffff" stroke="transparent" points="-4,4 -4,-1038 1541,-1038 1541,4 -4,4"/>
<!-- public.platby_item -->
<g id="node1" class="node">
<title>public.platby_item</title>
<polygon fill="#efefef" stroke="transparent" points="661.5,-952.5 661.5,-987.5 946.5,-987.5 946.5,-952.5 661.5,-952.5"/>
<polygon fill="none" stroke="#000000" points="661.5,-952.5 661.5,-987.5 946.5,-987.5 946.5,-952.5 661.5,-952.5"/>
<text text-anchor="start" x="668.2034" y="-965.3" font-family="Arial Bold" font-size="18.00" fill="#000000">public.platby_item</text>
<text text-anchor="start" x="812.2286" y="-965.3" font-family="Arial" font-size="14.00" fill="#000000">    </text>
<text text-anchor="start" x="846.4334" y="-965.3" font-family="Arial" font-size="14.00" fill="#666666">[BASE TABLE]</text>
<polygon fill="none" stroke="#000000" points="661.5,-922.5 661.5,-952.5 946.5,-952.5 946.5,-922.5 661.5,-922.5"/>
<text text-anchor="start" x="668.5" y="-933.9" font-family="Arial" font-size="14.00" fill="#000000">pi_id </text>
<text text-anchor="start" x="701.9516" y="-933.9" font-family="Arial" font-size="14.00" fill="#666666">[bigint]</text>
<polygon fill="none" stroke="#000000" points="661.5,-892.5 661.5,-922.5 946.5,-922.5 946.5,-892.5 661.5,-892.5"/>
<text text-anchor="start" x="668.5" y="-903.9" font-family="Arial" font-size="14.00" fill="#000000">pi_id_user </text>
<text text-anchor="start" x="736.96" y="-903.9" font-family="Arial" font-size="14.00" fill="#666666">[bigint]</text>
<polygon fill="none" stroke="#000000" points="661.5,-862.5 661.5,-892.5 946.5,-892.5 946.5,-862.5 661.5,-862.5"/>
<text text-anchor="start" x="668.5" y="-873.9" font-family="Arial" font-size="14.00" fill="#000000">pi_id_category </text>
<text text-anchor="start" x="763.4158" y="-873.9" font-family="Arial" font-size="14.00" fill="#666666">[bigint]</text>
<polygon fill="none" stroke="#000000" points="661.5,-832.5 661.5,-862.5 946.5,-862.5 946.5,-832.5 661.5,-832.5"/>
<text text-anchor="start" x="668.5" y="-843.9" font-family="Arial" font-size="14.00" fill="#000000">pi_id_raw </text>
<text text-anchor="start" x="732.284" y="-843.9" font-family="Arial" font-size="14.00" fill="#666666">[bigint]</text>
<polygon fill="none" stroke="#000000" points="661.5,-802.5 661.5,-832.5 946.5,-832.5 946.5,-802.5 661.5,-802.5"/>
<text text-anchor="start" x="668.5" y="-813.9" font-family="Arial" font-size="14.00" fill="#000000">pi_amount </text>
<text text-anchor="start" x="737.744" y="-813.9" font-family="Arial" font-size="14.00" fill="#666666">[numeric(10,2)]</text>
<polygon fill="none" stroke="#000000" points="661.5,-772.5 661.5,-802.5 946.5,-802.5 946.5,-772.5 661.5,-772.5"/>
<text text-anchor="start" x="668.5" y="-783.9" font-family="Arial" font-size="14.00" fill="#000000">pi_date </text>
<text text-anchor="start" x="718.3008" y="-783.9" font-family="Arial" font-size="14.00" fill="#666666">[date]</text>
<polygon fill="none" stroke="#000000" points="661.5,-742.5 661.5,-772.5 946.5,-772.5 946.5,-742.5 661.5,-742.5"/>
<text text-anchor="start" x="668.5" y="-753.9" font-family="Arial" font-size="14.00" fill="#000000">pi_prefix </text>
<text text-anchor="start" x="725.2854" y="-753.9" font-family="Arial" font-size="14.00" fill="#666666">[integer]</text>
<polygon fill="none" stroke="#000000" points="661.5,-712.5 661.5,-742.5 946.5,-742.5 946.5,-712.5 661.5,-712.5"/>
<text text-anchor="start" x="668.5" y="-723.9" font-family="Arial" font-size="14.00" fill="#000000">id </text>
<text text-anchor="start" x="683.2798" y="-723.9" font-family="Arial" font-size="14.00" fill="#666666">[bigint]</text>
<polygon fill="none" stroke="#000000" points="661.5,-682.5 661.5,-712.5 946.5,-712.5 946.5,-682.5 661.5,-682.5"/>
<text text-anchor="start" x="668.5" y="-693.9" font-family="Arial" font-size="14.00" fill="#000000">tenant_id </text>
<text text-anchor="start" x="729.974" y="-693.9" font-family="Arial" font-size="14.00" fill="#666666">[bigint]</text>
<polygon fill="none" stroke="#000000" points="661.5,-652.5 661.5,-682.5 946.5,-682.5 946.5,-652.5 661.5,-652.5"/>
<text text-anchor="start" x="668.5" y="-663.9" font-family="Arial" font-size="14.00" fill="#000000">status </text>
<text text-anchor="start" x="709.737" y="-663.9" font-family="Arial" font-size="14.00" fill="#666666">[payment_status]</text>
<polygon fill="none" stroke="#000000" stroke-width="3" points="659.5,-651.5 659.5,-989.5 947.5,-989.5 947.5,-651.5 659.5,-651.5"/>
</g>
<!-- public.users -->
<g id="node2" class="node">
<title>public.users</title>
<polygon fill="#efefef" stroke="transparent" points="43.5,-492.5 43.5,-527.5 338.5,-527.5 338.5,-492.5 43.5,-492.5"/>
<polygon fill="none" stroke="#000000" points="43.5,-492.5 43.5,-527.5 338.5,-527.5 338.5,-492.5 43.5,-492.5"/>
<text text-anchor="start" x="79.2091" y="-505.3" font-family="Arial Bold" font-size="18.00" fill="#000000">public.users</text>
<text text-anchor="start" x="175.2229" y="-505.3" font-family="Arial" font-size="14.00" fill="#000000">    </text>
<text text-anchor="start" x="209.4277" y="-505.3" font-family="Arial" font-size="14.00" fill="#666666">[BASE TABLE]</text>
<polygon fill="none" stroke="#000000" points="43.5,-462.5 43.5,-492.5 338.5,-492.5 338.5,-462.5 43.5,-462.5"/>
<text text-anchor="start" x="50.5" y="-473.9" font-family="Arial" font-size="14.00" fill="#000000">u_id    </text>
<text text-anchor="start" x="111.1592" y="-473.9" font-family="Arial" font-size="14.00" fill="#666666">[bigint]</text>
<polygon fill="none" stroke="#000000" points="43.5,-432.5 43.5,-462.5 338.5,-462.5 338.5,-432.5 43.5,-432.5"/>
<text text-anchor="start" x="50.5" y="-443.9" font-family="Arial" font-size="14.00" fill="#000000">u_login    </text>
<text text-anchor="start" x="129.831" y="-443.9" font-family="Arial" font-size="14.00" fill="#666666">[citext]</text>
<polygon fill="none" stroke="#000000" points="43.5,-402.5 43.5,-432.5 338.5,-432.5 338.5,-402.5 43.5,-402.5"/>
<text text-anchor="start" x="50.5" y="-413.9" font-family="Arial" font-size="14.00" fill="#000000">u_pass    </text>
<text text-anchor="start" x="129.8352" y="-413.9" font-family="Arial" font-size="14.00" fill="#666666">[character(40)]</text>
<polygon fill="none" stroke="#000000" points="43.5,-372.5 43.5,-402.5 338.5,-402.5 338.5,-372.5 43.5,-372.5"/>
<text text-anchor="start" x="50.5" y="-383.9" font-family="Arial" font-size="14.00" fill="#000000">u_jmeno    </text>
<text text-anchor="start" x="138.385" y="-383.9" font-family="Arial" font-size="14.00" fill="#666666">[text]</text>
<polygon fill="none" stroke="#000000" points="43.5,-342.5 43.5,-372.5 338.5,-372.5 338.5,-342.5 43.5,-342.5"/>
<text text-anchor="start" x="50.5" y="-353.9" font-family="Arial" font-size="14.00" fill="#000000">u_prijmeni    </text>
<text text-anchor="start" x="149.2588" y="-353.9" font-family="Arial" font-size="14.00" fill="#666666">[text]</text>
<polygon fill="none" stroke="#000000" points="43.5,-312.5 43.5,-342.5 338.5,-342.5 338.5,-312.5 43.5,-312.5"/>
<text text-anchor="start" x="50.5" y="-323.9" font-family="Arial" font-size="14.00" fill="#000000">u_email    </text>
<text text-anchor="start" x="133.709" y="-323.9" font-family="Arial" font-size="14.00" fill="#666666">[citext]</text>
<polygon fill="none" stroke="#000000" points="43.5,-282.5 43.5,-312.5 338.5,-312.5 338.5,-282.5 43.5,-282.5"/>
<text text-anchor="start" x="50.5" y="-293.9" font-family="Arial" font-size="14.00" fill="#000000">updated_at    </text>
<text text-anchor="start" x="154.7468" y="-293.9" font-family="Arial" font-size="14.00" fill="#666666">[timestamp with time zone]</text>
<polygon fill="none" stroke="#000000" points="43.5,-252.5 43.5,-282.5 338.5,-282.5 338.5,-252.5 43.5,-252.5"/>
<text text-anchor="start" x="50.5" y="-263.9" font-family="Arial" font-size="14.00" fill="#000000">u_ban    </text>
<text text-anchor="start" x="123.6178" y="-263.9" font-family="Arial" font-size="14.00" fill="#666666">[boolean]</text>
<polygon fill="none" stroke="#000000" points="43.5,-222.5 43.5,-252.5 338.5,-252.5 338.5,-222.5 43.5,-222.5"/>
<text text-anchor="start" x="50.5" y="-233.9" font-family="Arial" font-size="14.00" fill="#000000">u_confirmed    </text>
<text text-anchor="start" x="161.7188" y="-233.9" font-family="Arial" font-size="14.00" fill="#666666">[boolean]</text>
<polygon fill="none" stroke="#000000" points="43.5,-192.5 43.5,-222.5 338.5,-222.5 338.5,-192.5 43.5,-192.5"/>
<text text-anchor="start" x="50.2041" y="-203.9" font-family="Arial" font-size="14.00" fill="#000000">u_created_at    </text>
<text text-anchor="start" x="166.1115" y="-203.9" font-family="Arial" font-size="14.00" fill="#666666">[timestamp with time zone]</text>
<polygon fill="none" stroke="#000000" points="43.5,-162.5 43.5,-192.5 338.5,-192.5 338.5,-162.5 43.5,-162.5"/>
<text text-anchor="start" x="50.5" y="-173.9" font-family="Arial" font-size="14.00" fill="#000000">id    </text>
<text text-anchor="start" x="95.594" y="-173.9" font-family="Arial" font-size="14.00" fill="#666666">[bigint]</text>
<polygon fill="none" stroke="#000000" points="43.5,-132.5 43.5,-162.5 338.5,-162.5 338.5,-132.5 43.5,-132.5"/>
<text text-anchor="start" x="50.5" y="-143.9" font-family="Arial" font-size="14.00" fill="#000000">tenant_id    </text>
<text text-anchor="start" x="142.2882" y="-143.9" font-family="Arial" font-size="14.00" fill="#666666">[bigint]</text>
<polygon fill="none" stroke="#000000" points="43.5,-102.5 43.5,-132.5 338.5,-132.5 338.5,-102.5 43.5,-102.5"/>
<text text-anchor="start" x="50.5" y="-113.9" font-family="Arial" font-size="14.00" fill="#000000">last_login    </text>
<text text-anchor="start" x="143.8282" y="-113.9" font-family="Arial" font-size="14.00" fill="#666666">[timestamp with time zone]</text>
<polygon fill="none" stroke="#000000" points="43.5,-72.5 43.5,-102.5 338.5,-102.5 338.5,-72.5 43.5,-72.5"/>
<text text-anchor="start" x="50.5" y="-83.9" font-family="Arial" font-size="14.00" fill="#000000">created_at    </text>
<text text-anchor="start" x="150.8422" y="-83.9" font-family="Arial" font-size="14.00" fill="#666666">[timestamp with time zone]</text>
<polygon fill="none" stroke="#000000" points="43.5,-42.5 43.5,-72.5 338.5,-72.5 338.5,-42.5 43.5,-42.5"/>
<text text-anchor="start" x="50.5" y="-53.9" font-family="Arial" font-size="14.00" fill="#000000">u_timestamp    </text>
<text text-anchor="start" x="164.8268" y="-53.9" font-family="Arial" font-size="14.00" fill="#666666">[timestamp with time zone]</text>
</g>
<!-- public.platby_item&#45;&gt;public.users -->
<g id="edge1" class="edge">
<title>public.platby_item:pi_id_user&#45;&gt;public.users:u_id</title>
<path fill="none" stroke="#000000" d="M651.306,-907.3276C470.4531,-901.1019 495.8394,-727.3874 390.5,-571 363.9356,-531.5624 386.0498,-477.5 338.5,-477.5"/>
<polygon fill="#000000" stroke="#000000" points="651.5014,-907.3308 661.4239,-911.9994 656.5007,-907.4154 661.5,-907.5 661.5,-907.5 661.5,-907.5 656.5007,-907.4154 661.5761,-903.0006 651.5014,-907.3308 651.5014,-907.3308"/>
<text text-anchor="start" x="181.556" y="-917.5" font-family="Arial" font-size="10.00" fill="#000000">FOREIGN KEY (pi_id_user) REFERENCES users(u_id) ON UPDATE RESTRICT ON DELETE RESTRICT</text>
</g>
<!-- public.platby_category -->
<g id="node3" class="node">
<title>public.platby_category</title>
<polygon fill="#efefef" stroke="transparent" points="442.5,-462.5 442.5,-497.5 762.5,-497.5 762.5,-462.5 442.5,-462.5"/>
<polygon fill="none" stroke="#000000" points="442.5,-462.5 442.5,-497.5 762.5,-497.5 762.5,-462.5 442.5,-462.5"/>
<text text-anchor="start" x="449.1912" y="-475.3" font-family="Arial Bold" font-size="18.00" fill="#000000">public.platby_category</text>
<text text-anchor="start" x="628.2408" y="-475.3" font-family="Arial" font-size="14.00" fill="#000000">    </text>
<text text-anchor="start" x="662.4456" y="-475.3" font-family="Arial" font-size="14.00" fill="#666666">[BASE TABLE]</text>
<polygon fill="none" stroke="#000000" points="442.5,-432.5 442.5,-462.5 762.5,-462.5 762.5,-432.5 442.5,-432.5"/>
<text text-anchor="start" x="449.5" y="-443.9" font-family="Arial" font-size="14.00" fill="#000000">pc_id    </text>
<text text-anchor="start" x="517.1592" y="-443.9" font-family="Arial" font-size="14.00" fill="#666666">[bigint]</text>
<polygon fill="none" stroke="#000000" points="442.5,-402.5 442.5,-432.5 762.5,-432.5 762.5,-402.5 442.5,-402.5"/>
<text text-anchor="start" x="449.5" y="-413.9" font-family="Arial" font-size="14.00" fill="#000000">pc_name    </text>
<text text-anchor="start" x="541.2784" y="-413.9" font-family="Arial" font-size="14.00" fill="#666666">[text]</text>
<polygon fill="none" stroke="#000000" points="442.5,-372.5 442.5,-402.5 762.5,-402.5 762.5,-372.5 442.5,-372.5"/>
<text text-anchor="start" x="449.5" y="-383.9" font-family="Arial" font-size="14.00" fill="#000000">pc_symbol    </text>
<text text-anchor="start" x="550.6024" y="-383.9" font-family="Arial" font-size="14.00" fill="#666666">[bigint]</text>
<polygon fill="none" stroke="#000000" points="442.5,-342.5 442.5,-372.5 762.5,-372.5 762.5,-342.5 442.5,-342.5"/>
<text text-anchor="start" x="449.5" y="-353.9" font-family="Arial" font-size="14.00" fill="#000000">pc_amount    </text>
<text text-anchor="start" x="552.9516" y="-353.9" font-family="Arial" font-size="14.00" fill="#666666">[numeric(10,2)]</text>
<polygon fill="none" stroke="#000000" points="442.5,-312.5 442.5,-342.5 762.5,-342.5 762.5,-312.5 442.5,-312.5"/>
<text text-anchor="start" x="449.5" y="-323.9" font-family="Arial" font-size="14.00" fill="#000000">pc_date_due    </text>
<text text-anchor="start" x="564.6388" y="-323.9" font-family="Arial" font-size="14.00" fill="#666666">[date]</text>
<polygon fill="none" stroke="#000000" points="442.5,-282.5 442.5,-312.5 762.5,-312.5 762.5,-282.5 442.5,-282.5"/>
<text text-anchor="start" x="449.5" y="-293.9" font-family="Arial" font-size="14.00" fill="#000000">pc_valid_from    </text>
<text text-anchor="start" x="570.8254" y="-293.9" font-family="Arial" font-size="14.00" fill="#666666">[date]</text>
<polygon fill="none" stroke="#000000" points="442.5,-252.5 442.5,-282.5 762.5,-282.5 762.5,-252.5 442.5,-252.5"/>
<text text-anchor="start" x="449.5" y="-263.9" font-family="Arial" font-size="14.00" fill="#000000">pc_valid_to    </text>
<text text-anchor="start" x="554.5042" y="-263.9" font-family="Arial" font-size="14.00" fill="#666666">[date]</text>
<polygon fill="none" stroke="#000000" points="442.5,-222.5 442.5,-252.5 762.5,-252.5 762.5,-222.5 442.5,-222.5"/>
<text text-anchor="start" x="449.5" y="-233.9" font-family="Arial" font-size="14.00" fill="#000000">pc_use_base    </text>
<text text-anchor="start" x="566.9656" y="-233.9" font-family="Arial" font-size="14.00" fill="#666666">[boolean]</text>
<polygon fill="none" stroke="#000000" points="442.5,-192.5 442.5,-222.5 762.5,-222.5 762.5,-192.5 442.5,-192.5"/>
<text text-anchor="start" x="449.5" y="-203.9" font-family="Arial" font-size="14.00" fill="#000000">pc_use_prefix    </text>
<text text-anchor="start" x="570.8408" y="-203.9" font-family="Arial" font-size="14.00" fill="#666666">[boolean]</text>
<polygon fill="none" stroke="#000000" points="442.5,-162.5 442.5,-192.5 762.5,-192.5 762.5,-162.5 442.5,-162.5"/>
<text text-anchor="start" x="449.5" y="-173.9" font-family="Arial" font-size="14.00" fill="#000000">pc_archive    </text>
<text text-anchor="start" x="551.385" y="-173.9" font-family="Arial" font-size="14.00" fill="#666666">[boolean]</text>
<polygon fill="none" stroke="#000000" points="442.5,-132.5 442.5,-162.5 762.5,-162.5 762.5,-132.5 442.5,-132.5"/>
<text text-anchor="start" x="449.5" y="-143.9" font-family="Arial" font-size="14.00" fill="#000000">pc_visible    </text>
<text text-anchor="start" x="545.155" y="-143.9" font-family="Arial" font-size="14.00" fill="#666666">[boolean]</text>
<polygon fill="none" stroke="#000000" points="442.5,-102.5 442.5,-132.5 762.5,-132.5 762.5,-102.5 442.5,-102.5"/>
<text text-anchor="start" x="449.5" y="-113.9" font-family="Arial" font-size="14.00" fill="#000000">id    </text>
<text text-anchor="start" x="494.594" y="-113.9" font-family="Arial" font-size="14.00" fill="#666666">[bigint]</text>
<polygon fill="none" stroke="#000000" points="442.5,-72.5 442.5,-102.5 762.5,-102.5 762.5,-72.5 442.5,-72.5"/>
<text text-anchor="start" x="449.5" y="-83.9" font-family="Arial" font-size="14.00" fill="#000000">tenant_id    </text>
<text text-anchor="start" x="541.2882" y="-83.9" font-family="Arial" font-size="14.00" fill="#666666">[bigint]</text>
</g>
<!-- public.platby_item&#45;&gt;public.platby_category -->
<g id="edge2" class="edge">
<title>public.platby_item:pi_id_category&#45;&gt;public.platby_category:pc_id</title>
<path fill="none" stroke="#000000" d="M651.4006,-877.0814C544.9647,-867.8965 605.9617,-709.6372 661.5,-607 687.0197,-559.8385 736.9803,-588.1615 762.5,-541 782.2766,-504.4521 804.0556,-447.5 762.5,-447.5"/>
<polygon fill="#000000" stroke="#000000" points="651.5086,-877.0857 661.3136,-881.9961 656.5043,-877.2929 661.5,-877.5 661.5,-877.5 661.5,-877.5 656.5043,-877.2929 661.6864,-873.0039 651.5086,-877.0857 651.5086,-877.0857"/>
<text text-anchor="start" x="111.542" y="-887.5" font-family="Arial" font-size="10.00" fill="#000000">FOREIGN KEY (pi_id_category) REFERENCES platby_category(pc_id) ON UPDATE RESTRICT ON DELETE RESTRICT</text>
</g>
<!-- public.platby_raw -->
<g id="node4" class="node">
<title>public.platby_raw</title>
<polygon fill="#efefef" stroke="transparent" points="866.5,-372.5 866.5,-407.5 1146.5,-407.5 1146.5,-372.5 866.5,-372.5"/>
<polygon fill="none" stroke="#000000" points="866.5,-372.5 866.5,-407.5 1146.5,-407.5 1146.5,-372.5 866.5,-372.5"/>
<text text-anchor="start" x="873.2045" y="-385.3" font-family="Arial Bold" font-size="18.00" fill="#000000">public.platby_raw</text>
<text text-anchor="start" x="1012.2275" y="-385.3" font-family="Arial" font-size="14.00" fill="#000000">    </text>
<text text-anchor="start" x="1046.4323" y="-385.3" font-family="Arial" font-size="14.00" fill="#666666">[BASE TABLE]</text>
<polygon fill="none" stroke="#000000" points="866.5,-342.5 866.5,-372.5 1146.5,-372.5 1146.5,-342.5 866.5,-342.5"/>
<text text-anchor="start" x="873.5" y="-353.9" font-family="Arial" font-size="14.00" fill="#000000">pr_id    </text>
<text text-anchor="start" x="938.8198" y="-353.9" font-family="Arial" font-size="14.00" fill="#666666">[bigint]</text>
<polygon fill="none" stroke="#000000" points="866.5,-312.5 866.5,-342.5 1146.5,-342.5 1146.5,-312.5 866.5,-312.5"/>
<text text-anchor="start" x="873.5" y="-323.9" font-family="Arial" font-size="14.00" fill="#000000">pr_raw    </text>
<text text-anchor="start" x="950.4804" y="-323.9" font-family="Arial" font-size="14.00" fill="#666666">[bytea]</text>
<polygon fill="none" stroke="#000000" points="866.5,-282.5 866.5,-312.5 1146.5,-312.5 1146.5,-282.5 866.5,-282.5"/>
<text text-anchor="start" x="873.5" y="-293.9" font-family="Arial" font-size="14.00" fill="#000000">pr_hash    </text>
<text text-anchor="start" x="958.2784" y="-293.9" font-family="Arial" font-size="14.00" fill="#666666">[text]</text>
<polygon fill="none" stroke="#000000" points="866.5,-252.5 866.5,-282.5 1146.5,-282.5 1146.5,-252.5 866.5,-252.5"/>
<text text-anchor="start" x="873.5" y="-263.9" font-family="Arial" font-size="14.00" fill="#000000">pr_sorted    </text>
<text text-anchor="start" x="966.8296" y="-263.9" font-family="Arial" font-size="14.00" fill="#666666">[boolean]</text>
<polygon fill="none" stroke="#000000" points="866.5,-222.5 866.5,-252.5 1146.5,-252.5 1146.5,-222.5 866.5,-222.5"/>
<text text-anchor="start" x="873.5" y="-233.9" font-family="Arial" font-size="14.00" fill="#000000">pr_discarded    </text>
<text text-anchor="start" x="988.6108" y="-233.9" font-family="Arial" font-size="14.00" fill="#666666">[boolean]</text>
<polygon fill="none" stroke="#000000" points="866.5,-192.5 866.5,-222.5 1146.5,-222.5 1146.5,-192.5 866.5,-192.5"/>
<text text-anchor="start" x="873.5" y="-203.9" font-family="Arial" font-size="14.00" fill="#000000">id    </text>
<text text-anchor="start" x="918.594" y="-203.9" font-family="Arial" font-size="14.00" fill="#666666">[bigint]</text>
<polygon fill="none" stroke="#000000" points="866.5,-162.5 866.5,-192.5 1146.5,-192.5 1146.5,-162.5 866.5,-162.5"/>
<text text-anchor="start" x="873.5" y="-173.9" font-family="Arial" font-size="14.00" fill="#000000">tenant_id    </text>
<text text-anchor="start" x="965.2882" y="-173.9" font-family="Arial" font-size="14.00" fill="#666666">[bigint]</text>
</g>
<!-- public.platby_item&#45;&gt;public.platby_raw -->
<g id="edge3" class="edge">
<title>public.platby_item:pi_id_raw&#45;&gt;public.platby_raw:pr_id</title>
<path fill="none" stroke="#000000" d="M956.5321,-847.0544C1048.0194,-838.4651 970.7554,-707.453 946.5,-607 928.2113,-531.2581 884.7887,-526.7419 866.5,-451 856.7463,-410.6053 824.9444,-357.5 866.5,-357.5"/>
<polygon fill="#000000" stroke="#000000" points="956.4902,-847.0562 946.3003,-843.0044 951.4951,-847.2781 946.5,-847.5 946.5,-847.5 946.5,-847.5 951.4951,-847.2781 946.6997,-851.9956 956.4902,-847.0562 956.4902,-847.0562"/>
<text text-anchor="start" x="953.6145" y="-857.5" font-family="Arial" font-size="10.00" fill="#000000">FOREIGN KEY (pi_id_raw) REFERENCES platby_raw(pr_id) ON UPDATE RESTRICT ON DELETE RESTRICT</text>
</g>
<!-- public.tenant -->
<g id="node5" class="node">
<title>public.tenant</title>
<polygon fill="#efefef" stroke="transparent" points="1251.5,-387.5 1251.5,-422.5 1494.5,-422.5 1494.5,-387.5 1251.5,-387.5"/>
<polygon fill="none" stroke="#000000" points="1251.5,-387.5 1251.5,-422.5 1494.5,-422.5 1494.5,-387.5 1251.5,-387.5"/>
<text text-anchor="start" x="1258.1968" y="-400.3" font-family="Arial Bold" font-size="18.00" fill="#000000">public.tenant</text>
<text text-anchor="start" x="1360.2352" y="-400.3" font-family="Arial" font-size="14.00" fill="#000000">    </text>
<text text-anchor="start" x="1394.44" y="-400.3" font-family="Arial" font-size="14.00" fill="#666666">[BASE TABLE]</text>
<polygon fill="none" stroke="#000000" points="1251.5,-357.5 1251.5,-387.5 1494.5,-387.5 1494.5,-357.5 1251.5,-357.5"/>
<text text-anchor="start" x="1258.5" y="-368.9" font-family="Arial" font-size="14.00" fill="#000000">id    </text>
<text text-anchor="start" x="1303.594" y="-368.9" font-family="Arial" font-size="14.00" fill="#666666">[bigint]</text>
<polygon fill="none" stroke="#000000" points="1251.5,-327.5 1251.5,-357.5 1494.5,-357.5 1494.5,-327.5 1251.5,-327.5"/>
<text text-anchor="start" x="1258.5" y="-338.9" font-family="Arial" font-size="14.00" fill="#000000">name    </text>
<text text-anchor="start" x="1327.7132" y="-338.9" font-family="Arial" font-size="14.00" fill="#666666">[text]</text>
<polygon fill="none" stroke="#000000" points="1251.5,-297.5 1251.5,-327.5 1494.5,-327.5 1494.5,-297.5 1251.5,-297.5"/>
<text text-anchor="start" x="1258.5" y="-308.9" font-family="Arial" font-size="14.00" fill="#000000">origins    </text>
<text text-anchor="start" x="1333.9264" y="-308.9" font-family="Arial" font-size="14.00" fill="#666666">[text[]]</text>
<polygon fill="none" stroke="#000000" points="1251.5,-267.5 1251.5,-297.5 1494.5,-297.5 1494.5,-267.5 1251.5,-267.5"/>
<text text-anchor="start" x="1258.5" y="-278.9" font-family="Arial" font-size="14.00" fill="#000000">cz_ico    </text>
<text text-anchor="start" x="1332.3766" y="-278.9" font-family="Arial" font-size="14.00" fill="#666666">[text]</text>
<polygon fill="none" stroke="#000000" points="1251.5,-237.5 1251.5,-267.5 1494.5,-267.5 1494.5,-237.5 1251.5,-237.5"/>
<text text-anchor="start" x="1258.5" y="-248.9" font-family="Arial" font-size="14.00" fill="#000000">cz_dic    </text>
<text text-anchor="start" x="1332.3766" y="-248.9" font-family="Arial" font-size="14.00" fill="#666666">[text]</text>
<polygon fill="none" stroke="#000000" points="1251.5,-207.5 1251.5,-237.5 1494.5,-237.5 1494.5,-207.5 1251.5,-207.5"/>
<text text-anchor="start" x="1258.5" y="-218.9" font-family="Arial" font-size="14.00" fill="#000000">address    </text>
<text text-anchor="start" x="1342.4958" y="-218.9" font-family="Arial" font-size="14.00" fill="#666666">[address_domain]</text>
<polygon fill="none" stroke="#000000" points="1251.5,-177.5 1251.5,-207.5 1494.5,-207.5 1494.5,-177.5 1251.5,-177.5"/>
<text text-anchor="start" x="1258.5" y="-188.9" font-family="Arial" font-size="14.00" fill="#000000">description    </text>
<text text-anchor="start" x="1360.3822" y="-188.9" font-family="Arial" font-size="14.00" fill="#666666">[text]</text>
<polygon fill="none" stroke="#000000" points="1251.5,-147.5 1251.5,-177.5 1494.5,-177.5 1494.5,-147.5 1251.5,-147.5"/>
<text text-anchor="start" x="1258.5" y="-158.9" font-family="Arial" font-size="14.00" fill="#000000">bank_account    </text>
<text text-anchor="start" x="1379.8562" y="-158.9" font-family="Arial" font-size="14.00" fill="#666666">[text]</text>
</g>
<!-- public.platby_item&#45;&gt;public.tenant -->
<g id="edge4" class="edge">
<title>public.platby_item:tenant_id&#45;&gt;public.tenant:id</title>
<path fill="none" stroke="#000000" d="M956.6079,-697.4335C1074.4442,-695.8463 1121.5481,-665.5316 1198.5,-571 1256.1465,-500.184 1160.1872,-372.5 1251.5,-372.5"/>
<polygon fill="#000000" stroke="#000000" points="956.4998,-697.4341 946.4703,-693.0001 951.4999,-697.467 946.5,-697.5 946.5,-697.5 946.5,-697.5 951.4999,-697.467 946.5297,-701.9999 956.4998,-697.4341 956.4998,-697.4341"/>
<text text-anchor="start" x="953.7065" y="-707.5" font-family="Arial" font-size="10.00" fill="#000000">FOREIGN KEY (tenant_id) REFERENCES tenant(id) ON DELETE CASCADE</text>
</g>
</g>
</svg>
