<?xml version="1.0" encoding="UTF-8" standalone="no"?>
<!DOCTYPE svg PUBLIC "-//W3C//DTD SVG 1.1//EN"
 "http://www.w3.org/Graphics/SVG/1.1/DTD/svg11.dtd">
<!-- Generated by graphviz version 2.40.1 (20161225.0304)
 -->
<!-- Title: public.room_attachment Pages: 1 -->
<svg width="1136pt" height="562pt"
 viewBox="0.00 0.00 1136.00 562.00" xmlns="http://www.w3.org/2000/svg" xmlns:xlink="http://www.w3.org/1999/xlink">
<g id="graph0" class="graph" transform="scale(1 1) rotate(0) translate(4 558)">
<title>public.room_attachment</title>
<polygon fill="#ffffff" stroke="transparent" points="-4,4 -4,-558 1132,-558 1132,4 -4,4"/>
<!-- public.room_attachment -->
<g id="node1" class="node">
<title>public.room_attachment</title>
<polygon fill="#efefef" stroke="transparent" points="349,-472.5 349,-507.5 682,-507.5 682,-472.5 349,-472.5"/>
<polygon fill="none" stroke="#000000" points="349,-472.5 349,-507.5 682,-507.5 682,-472.5 349,-472.5"/>
<text text-anchor="start" x="355.695" y="-485.3" font-family="Arial Bold" font-size="18.00" fill="#000000">public.room_attachment</text>
<text text-anchor="start" x="547.737" y="-485.3" font-family="Arial" font-size="14.00" fill="#000000">    </text>
<text text-anchor="start" x="581.9418" y="-485.3" font-family="Arial" font-size="14.00" fill="#666666">[BASE TABLE]</text>
<polygon fill="none" stroke="#000000" points="349,-442.5 349,-472.5 682,-472.5 682,-442.5 349,-442.5"/>
<text text-anchor="start" x="356" y="-453.9" font-family="Arial" font-size="14.00" fill="#000000">room_id </text>
<text text-anchor="start" x="410.4488" y="-453.9" font-family="Arial" font-size="14.00" fill="#666666">[bigint]</text>
<polygon fill="none" stroke="#000000" points="349,-412.5 349,-442.5 682,-442.5 682,-412.5 349,-412.5"/>
<text text-anchor="start" x="356" y="-423.9" font-family="Arial" font-size="14.00" fill="#000000">object_name </text>
<text text-anchor="start" x="440.0266" y="-423.9" font-family="Arial" font-size="14.00" fill="#666666">[text]</text>
<polygon fill="none" stroke="#000000" stroke-width="3" points="347,-411.5 347,-509.5 683,-509.5 683,-411.5 347,-411.5"/>
</g>
<!-- public.room -->
<g id="node2" class="node">
<title>public.room</title>
<polygon fill="#efefef" stroke="transparent" points="216,-207.5 216,-242.5 450,-242.5 450,-207.5 216,-207.5"/>
<polygon fill="none" stroke="#000000" points="216,-207.5 216,-242.5 450,-242.5 450,-207.5 216,-207.5"/>
<text text-anchor="start" x="222.713" y="-220.3" font-family="Arial Bold" font-size="18.00" fill="#000000">public.room</text>
<text text-anchor="start" x="315.719" y="-220.3" font-family="Arial" font-size="14.00" fill="#000000">    </text>
<text text-anchor="start" x="349.9238" y="-220.3" font-family="Arial" font-size="14.00" fill="#666666">[BASE TABLE]</text>
<polygon fill="none" stroke="#000000" points="216,-177.5 216,-207.5 450,-207.5 450,-177.5 216,-177.5"/>
<text text-anchor="start" x="223" y="-188.9" font-family="Arial" font-size="14.00" fill="#000000">id    </text>
<text text-anchor="start" x="268.094" y="-188.9" font-family="Arial" font-size="14.00" fill="#666666">[bigint]</text>
<polygon fill="none" stroke="#000000" points="216,-147.5 216,-177.5 450,-177.5 450,-147.5 216,-147.5"/>
<text text-anchor="start" x="223" y="-158.9" font-family="Arial" font-size="14.00" fill="#000000">name    </text>
<text text-anchor="start" x="292.2132" y="-158.9" font-family="Arial" font-size="14.00" fill="#666666">[text]</text>
<polygon fill="none" stroke="#000000" points="216,-117.5 216,-147.5 450,-147.5 450,-117.5 216,-117.5"/>
<text text-anchor="start" x="223" y="-128.9" font-family="Arial" font-size="14.00" fill="#000000">description    </text>
<text text-anchor="start" x="324.8822" y="-128.9" font-family="Arial" font-size="14.00" fill="#666666">[jsonb]</text>
<polygon fill="none" stroke="#000000" points="216,-87.5 216,-117.5 450,-117.5 450,-87.5 216,-87.5"/>
<text text-anchor="start" x="223" y="-98.9" font-family="Arial" font-size="14.00" fill="#000000">location    </text>
<text text-anchor="start" x="305.439" y="-98.9" font-family="Arial" font-size="14.00" fill="#666666">[bigint]</text>
</g>
<!-- public.room_attachment&#45;&gt;public.room -->
<g id="edge1" class="edge">
<title>public.room_attachment:room_id&#45;&gt;public.room:id</title>
<path fill="none" stroke="#000000" d="M338.956,-456.0155C313.1832,-447.0782 333.2975,-399.7216 349,-367 373.895,-315.1227 425.105,-337.8773 450,-286 467.9788,-248.535 491.5556,-192.5 450,-192.5"/>
<polygon fill="#000000" stroke="#000000" points="339.1075,-456.0378 348.342,-461.9516 344.0537,-456.7689 349,-457.5 349,-457.5 349,-457.5 344.0537,-456.7689 349.658,-453.0484 339.1075,-456.0378 339.1075,-456.0378"/>
<text text-anchor="start" x="7.2245" y="-467.5" font-family="Arial" font-size="10.00" fill="#000000">FOREIGN KEY (room_id) REFERENCES room(id) ON DELETE CASCADE</text>
</g>
<!-- public.attachment -->
<g id="node3" class="node">
<title>public.attachment</title>
<polygon fill="#efefef" stroke="transparent" points="554,-252.5 554,-287.5 844,-287.5 844,-252.5 554,-252.5"/>
<polygon fill="none" stroke="#000000" points="554,-252.5 554,-287.5 844,-287.5 844,-252.5 554,-252.5"/>
<text text-anchor="start" x="564.6965" y="-265.3" font-family="Arial Bold" font-size="18.00" fill="#000000">public.attachment</text>
<text text-anchor="start" x="705.7355" y="-265.3" font-family="Arial" font-size="14.00" fill="#000000">    </text>
<text text-anchor="start" x="739.9403" y="-265.3" font-family="Arial" font-size="14.00" fill="#666666">[BASE TABLE]</text>
<polygon fill="none" stroke="#000000" points="554,-222.5 554,-252.5 844,-252.5 844,-222.5 554,-222.5"/>
<text text-anchor="start" x="561" y="-233.9" font-family="Arial" font-size="14.00" fill="#000000">object_name    </text>
<text text-anchor="start" x="675.3408" y="-233.9" font-family="Arial" font-size="14.00" fill="#666666">[text]</text>
<polygon fill="none" stroke="#000000" points="554,-192.5 554,-222.5 844,-222.5 844,-192.5 554,-192.5"/>
<text text-anchor="start" x="561" y="-203.9" font-family="Arial" font-size="14.00" fill="#000000">preview_object_name    </text>
<text text-anchor="start" x="731.345" y="-203.9" font-family="Arial" font-size="14.00" fill="#666666">[text]</text>
<polygon fill="none" stroke="#000000" points="554,-162.5 554,-192.5 844,-192.5 844,-162.5 554,-162.5"/>
<text text-anchor="start" x="561" y="-173.9" font-family="Arial" font-size="14.00" fill="#000000">uploaded_by    </text>
<text text-anchor="start" x="675.3548" y="-173.9" font-family="Arial" font-size="14.00" fill="#666666">[bigint]</text>
<polygon fill="none" stroke="#000000" points="554,-132.5 554,-162.5 844,-162.5 844,-132.5 554,-132.5"/>
<text text-anchor="start" x="560.5351" y="-143.9" font-family="Arial" font-size="14.00" fill="#000000">uploaded_at    </text>
<text text-anchor="start" x="671.7805" y="-143.9" font-family="Arial" font-size="14.00" fill="#666666">[timestamp with time zone]</text>
<polygon fill="none" stroke="#000000" points="554,-102.5 554,-132.5 844,-132.5 844,-102.5 554,-102.5"/>
<text text-anchor="start" x="561" y="-113.9" font-family="Arial" font-size="14.00" fill="#000000">thumbhash    </text>
<text text-anchor="start" x="664.4516" y="-113.9" font-family="Arial" font-size="14.00" fill="#666666">[text]</text>
<polygon fill="none" stroke="#000000" points="554,-72.5 554,-102.5 844,-102.5 844,-72.5 554,-72.5"/>
<text text-anchor="start" x="561" y="-83.9" font-family="Arial" font-size="14.00" fill="#000000">width    </text>
<text text-anchor="start" x="627.8738" y="-83.9" font-family="Arial" font-size="14.00" fill="#666666">[integer]</text>
<polygon fill="none" stroke="#000000" points="554,-42.5 554,-72.5 844,-72.5 844,-42.5 554,-42.5"/>
<text text-anchor="start" x="561" y="-53.9" font-family="Arial" font-size="14.00" fill="#000000">height    </text>
<text text-anchor="start" x="633.3324" y="-53.9" font-family="Arial" font-size="14.00" fill="#666666">[integer]</text>
</g>
<!-- public.room_attachment&#45;&gt;public.attachment -->
<g id="edge2" class="edge">
<title>public.room_attachment:object_name&#45;&gt;public.attachment:object_name</title>
<path fill="none" stroke="#000000" d="M691.9765,-424.855C705.4237,-415.7221 695.6997,-385.0843 682,-367 646.3152,-319.8944 589.6848,-378.1056 554,-331 528.9069,-297.876 512.4444,-237.5 554,-237.5"/>
<polygon fill="#000000" stroke="#000000" points="691.666,-424.9372 680.8467,-423.1503 686.833,-426.2186 682,-427.5 682,-427.5 682,-427.5 686.833,-426.2186 683.1533,-431.8497 691.666,-424.9372 691.666,-424.9372"/>
<text text-anchor="start" x="688.5875" y="-437.5" font-family="Arial" font-size="10.00" fill="#000000">FOREIGN KEY (object_name) REFERENCES attachment(object_name) ON DELETE CASCADE</text>
</g>
</g>
</svg>
