<?xml version="1.0" encoding="UTF-8" standalone="no"?>
<!DOCTYPE svg PUBLIC "-//W3C//DTD SVG 1.1//EN"
 "http://www.w3.org/Graphics/SVG/1.1/DTD/svg11.dtd">
<!-- Generated by graphviz version 2.40.1 (20161225.0304)
 -->
<!-- Title: public.account_balances Pages: 1 -->
<svg width="494pt" height="195pt"
 viewBox="0.00 0.00 494.00 195.00" xmlns="http://www.w3.org/2000/svg" xmlns:xlink="http://www.w3.org/1999/xlink">
<g id="graph0" class="graph" transform="scale(1 1) rotate(0) translate(4 191)">
<title>public.account_balances</title>
<polygon fill="#ffffff" stroke="transparent" points="-4,4 -4,-191 490,-191 490,4 -4,4"/>
<!-- public.account_balances -->
<g id="node1" class="node">
<title>public.account_balances</title>
<polygon fill="#efefef" stroke="transparent" points="46,-105.5 46,-140.5 440,-140.5 440,-105.5 46,-105.5"/>
<polygon fill="none" stroke="#000000" points="46,-105.5 46,-140.5 440,-140.5 440,-105.5 46,-105.5"/>
<text text-anchor="start" x="52.6941" y="-118.3" font-family="Arial Bold" font-size="18.00" fill="#000000">public.account_balances</text>
<text text-anchor="start" x="249.7617" y="-118.3" font-family="Arial" font-size="14.00" fill="#000000">    </text>
<text text-anchor="start" x="283.9665" y="-118.3" font-family="Arial" font-size="14.00" fill="#666666">[MATERIALIZED VIEW]</text>
<polygon fill="none" stroke="#000000" points="46,-75.5 46,-105.5 440,-105.5 440,-75.5 46,-75.5"/>
<text text-anchor="start" x="53" y="-86.9" font-family="Arial" font-size="14.00" fill="#000000">id </text>
<text text-anchor="start" x="67.7798" y="-86.9" font-family="Arial" font-size="14.00" fill="#666666">[bigint]</text>
<polygon fill="none" stroke="#000000" points="46,-45.5 46,-75.5 440,-75.5 440,-45.5 46,-45.5"/>
<text text-anchor="start" x="53" y="-56.9" font-family="Arial" font-size="14.00" fill="#000000">balance </text>
<text text-anchor="start" x="105.9102" y="-56.9" font-family="Arial" font-size="14.00" fill="#666666">[numeric]</text>
<polygon fill="none" stroke="#000000" stroke-width="3" points="44.5,-44.5 44.5,-142.5 441.5,-142.5 441.5,-44.5 44.5,-44.5"/>
</g>
</g>
</svg>
