<?xml version="1.0" encoding="UTF-8" standalone="no"?>
<!DOCTYPE svg PUBLIC "-//W3C//DTD SVG 1.1//EN"
 "http://www.w3.org/Graphics/SVG/1.1/DTD/svg11.dtd">
<!-- Generated by graphviz version 2.40.1 (20161225.0304)
 -->
<!-- Title: public.cohort Pages: 1 -->
<svg width="2287pt" height="1289pt"
 viewBox="0.00 0.00 2287.00 1289.00" xmlns="http://www.w3.org/2000/svg" xmlns:xlink="http://www.w3.org/1999/xlink">
<g id="graph0" class="graph" transform="scale(1 1) rotate(0) translate(4 1285)">
<title>public.cohort</title>
<polygon fill="#ffffff" stroke="transparent" points="-4,4 -4,-1285 2283,-1285 2283,4 -4,4"/>
<!-- public.cohort -->
<g id="node1" class="node">
<title>public.cohort</title>
<polygon fill="#efefef" stroke="transparent" points="1007.5,-712.5 1007.5,-747.5 1250.5,-747.5 1250.5,-712.5 1007.5,-712.5"/>
<polygon fill="none" stroke="#000000" points="1007.5,-712.5 1007.5,-747.5 1250.5,-747.5 1250.5,-712.5 1007.5,-712.5"/>
<text text-anchor="start" x="1014.2049" y="-725.3" font-family="Arial Bold" font-size="18.00" fill="#000000">public.cohort</text>
<text text-anchor="start" x="1116.2271" y="-725.3" font-family="Arial" font-size="14.00" fill="#000000">    </text>
<text text-anchor="start" x="1150.4319" y="-725.3" font-family="Arial" font-size="14.00" fill="#666666">[BASE TABLE]</text>
<polygon fill="none" stroke="#000000" points="1007.5,-682.5 1007.5,-712.5 1250.5,-712.5 1250.5,-682.5 1007.5,-682.5"/>
<text text-anchor="start" x="1014.5" y="-693.9" font-family="Arial" font-size="14.00" fill="#000000">id </text>
<text text-anchor="start" x="1029.2798" y="-693.9" font-family="Arial" font-size="14.00" fill="#666666">[bigint]</text>
<polygon fill="none" stroke="#000000" points="1007.5,-652.5 1007.5,-682.5 1250.5,-682.5 1250.5,-652.5 1007.5,-652.5"/>
<text text-anchor="start" x="1014.5" y="-663.9" font-family="Arial" font-size="14.00" fill="#000000">tenant_id </text>
<text text-anchor="start" x="1075.974" y="-663.9" font-family="Arial" font-size="14.00" fill="#666666">[bigint]</text>
<polygon fill="none" stroke="#000000" points="1007.5,-622.5 1007.5,-652.5 1250.5,-652.5 1250.5,-622.5 1007.5,-622.5"/>
<text text-anchor="start" x="1014.5" y="-633.9" font-family="Arial" font-size="14.00" fill="#000000">cohort_group_id </text>
<text text-anchor="start" x="1119.535" y="-633.9" font-family="Arial" font-size="14.00" fill="#666666">[bigint]</text>
<polygon fill="none" stroke="#000000" points="1007.5,-592.5 1007.5,-622.5 1250.5,-622.5 1250.5,-592.5 1007.5,-592.5"/>
<text text-anchor="start" x="1014.5" y="-603.9" font-family="Arial" font-size="14.00" fill="#000000">name </text>
<text text-anchor="start" x="1053.399" y="-603.9" font-family="Arial" font-size="14.00" fill="#666666">[text]</text>
<polygon fill="none" stroke="#000000" points="1007.5,-562.5 1007.5,-592.5 1250.5,-592.5 1250.5,-562.5 1007.5,-562.5"/>
<text text-anchor="start" x="1014.5" y="-573.9" font-family="Arial" font-size="14.00" fill="#000000">description </text>
<text text-anchor="start" x="1086.068" y="-573.9" font-family="Arial" font-size="14.00" fill="#666666">[text]</text>
<polygon fill="none" stroke="#000000" points="1007.5,-532.5 1007.5,-562.5 1250.5,-562.5 1250.5,-532.5 1007.5,-532.5"/>
<text text-anchor="start" x="1014.5" y="-543.9" font-family="Arial" font-size="14.00" fill="#000000">color_rgb </text>
<text text-anchor="start" x="1076.7314" y="-543.9" font-family="Arial" font-size="14.00" fill="#666666">[text]</text>
<polygon fill="none" stroke="#000000" points="1007.5,-502.5 1007.5,-532.5 1250.5,-532.5 1250.5,-502.5 1007.5,-502.5"/>
<text text-anchor="start" x="1014.5" y="-513.9" font-family="Arial" font-size="14.00" fill="#000000">location </text>
<text text-anchor="start" x="1066.6248" y="-513.9" font-family="Arial" font-size="14.00" fill="#666666">[text]</text>
<polygon fill="none" stroke="#000000" points="1007.5,-472.5 1007.5,-502.5 1250.5,-502.5 1250.5,-472.5 1007.5,-472.5"/>
<text text-anchor="start" x="1014.5" y="-483.9" font-family="Arial" font-size="14.00" fill="#000000">is_visible </text>
<text text-anchor="start" x="1075.1648" y="-483.9" font-family="Arial" font-size="14.00" fill="#666666">[boolean]</text>
<polygon fill="none" stroke="#000000" points="1007.5,-442.5 1007.5,-472.5 1250.5,-472.5 1250.5,-442.5 1007.5,-442.5"/>
<text text-anchor="start" x="1014.5" y="-453.9" font-family="Arial" font-size="14.00" fill="#000000">ordering </text>
<text text-anchor="start" x="1069.7314" y="-453.9" font-family="Arial" font-size="14.00" fill="#666666">[integer]</text>
<polygon fill="none" stroke="#000000" stroke-width="3" points="1005.5,-441.5 1005.5,-749.5 1251.5,-749.5 1251.5,-441.5 1005.5,-441.5"/>
</g>
<!-- public.tenant -->
<g id="node7" class="node">
<title>public.tenant</title>
<polygon fill="#efefef" stroke="transparent" points="820.5,-282.5 820.5,-317.5 1063.5,-317.5 1063.5,-282.5 820.5,-282.5"/>
<polygon fill="none" stroke="#000000" points="820.5,-282.5 820.5,-317.5 1063.5,-317.5 1063.5,-282.5 820.5,-282.5"/>
<text text-anchor="start" x="827.1968" y="-295.3" font-family="Arial Bold" font-size="18.00" fill="#000000">public.tenant</text>
<text text-anchor="start" x="929.2352" y="-295.3" font-family="Arial" font-size="14.00" fill="#000000">    </text>
<text text-anchor="start" x="963.44" y="-295.3" font-family="Arial" font-size="14.00" fill="#666666">[BASE TABLE]</text>
<polygon fill="none" stroke="#000000" points="820.5,-252.5 820.5,-282.5 1063.5,-282.5 1063.5,-252.5 820.5,-252.5"/>
<text text-anchor="start" x="827.5" y="-263.9" font-family="Arial" font-size="14.00" fill="#000000">id    </text>
<text text-anchor="start" x="872.594" y="-263.9" font-family="Arial" font-size="14.00" fill="#666666">[bigint]</text>
<polygon fill="none" stroke="#000000" points="820.5,-222.5 820.5,-252.5 1063.5,-252.5 1063.5,-222.5 820.5,-222.5"/>
<text text-anchor="start" x="827.5" y="-233.9" font-family="Arial" font-size="14.00" fill="#000000">name    </text>
<text text-anchor="start" x="896.7132" y="-233.9" font-family="Arial" font-size="14.00" fill="#666666">[text]</text>
<polygon fill="none" stroke="#000000" points="820.5,-192.5 820.5,-222.5 1063.5,-222.5 1063.5,-192.5 820.5,-192.5"/>
<text text-anchor="start" x="827.5" y="-203.9" font-family="Arial" font-size="14.00" fill="#000000">origins    </text>
<text text-anchor="start" x="902.9264" y="-203.9" font-family="Arial" font-size="14.00" fill="#666666">[text[]]</text>
<polygon fill="none" stroke="#000000" points="820.5,-162.5 820.5,-192.5 1063.5,-192.5 1063.5,-162.5 820.5,-162.5"/>
<text text-anchor="start" x="827.5" y="-173.9" font-family="Arial" font-size="14.00" fill="#000000">cz_ico    </text>
<text text-anchor="start" x="901.3766" y="-173.9" font-family="Arial" font-size="14.00" fill="#666666">[text]</text>
<polygon fill="none" stroke="#000000" points="820.5,-132.5 820.5,-162.5 1063.5,-162.5 1063.5,-132.5 820.5,-132.5"/>
<text text-anchor="start" x="827.5" y="-143.9" font-family="Arial" font-size="14.00" fill="#000000">cz_dic    </text>
<text text-anchor="start" x="901.3766" y="-143.9" font-family="Arial" font-size="14.00" fill="#666666">[text]</text>
<polygon fill="none" stroke="#000000" points="820.5,-102.5 820.5,-132.5 1063.5,-132.5 1063.5,-102.5 820.5,-102.5"/>
<text text-anchor="start" x="827.5" y="-113.9" font-family="Arial" font-size="14.00" fill="#000000">address    </text>
<text text-anchor="start" x="911.4958" y="-113.9" font-family="Arial" font-size="14.00" fill="#666666">[address_domain]</text>
<polygon fill="none" stroke="#000000" points="820.5,-72.5 820.5,-102.5 1063.5,-102.5 1063.5,-72.5 820.5,-72.5"/>
<text text-anchor="start" x="827.5" y="-83.9" font-family="Arial" font-size="14.00" fill="#000000">description    </text>
<text text-anchor="start" x="929.3822" y="-83.9" font-family="Arial" font-size="14.00" fill="#666666">[text]</text>
<polygon fill="none" stroke="#000000" points="820.5,-42.5 820.5,-72.5 1063.5,-72.5 1063.5,-42.5 820.5,-42.5"/>
<text text-anchor="start" x="827.5" y="-53.9" font-family="Arial" font-size="14.00" fill="#000000">bank_account    </text>
<text text-anchor="start" x="948.8562" y="-53.9" font-family="Arial" font-size="14.00" fill="#666666">[text]</text>
</g>
<!-- public.cohort&#45;&gt;public.tenant -->
<g id="edge6" class="edge">
<title>public.cohort:tenant_id&#45;&gt;public.tenant:id</title>
<path fill="none" stroke="#000000" d="M997.3997,-667.0808C890.9422,-657.8843 951.5787,-499.4291 1007.5,-397 1021.6783,-371.0301 1049.3217,-386.9699 1063.5,-361 1083.4129,-324.5262 1105.0556,-267.5 1063.5,-267.5"/>
<polygon fill="#000000" stroke="#000000" points="997.5086,-667.0853 1007.3134,-671.9961 1002.5043,-667.2926 1007.5,-667.5 1007.5,-667.5 1007.5,-667.5 1002.5043,-667.2926 1007.6866,-663.0039 997.5086,-667.0853 997.5086,-667.0853"/>
<text text-anchor="start" x="655.7065" y="-677.5" font-family="Arial" font-size="10.00" fill="#000000">FOREIGN KEY (tenant_id) REFERENCES tenant(id) ON DELETE CASCADE</text>
</g>
<!-- public.cohort_group -->
<g id="node8" class="node">
<title>public.cohort_group</title>
<polygon fill="#efefef" stroke="transparent" points="1167.5,-252.5 1167.5,-287.5 1466.5,-287.5 1466.5,-252.5 1167.5,-252.5"/>
<polygon fill="none" stroke="#000000" points="1167.5,-252.5 1167.5,-287.5 1466.5,-287.5 1466.5,-252.5 1167.5,-252.5"/>
<text text-anchor="start" x="1174.1933" y="-265.3" font-family="Arial Bold" font-size="18.00" fill="#000000">public.cohort_group</text>
<text text-anchor="start" x="1332.2387" y="-265.3" font-family="Arial" font-size="14.00" fill="#000000">    </text>
<text text-anchor="start" x="1366.4435" y="-265.3" font-family="Arial" font-size="14.00" fill="#666666">[BASE TABLE]</text>
<polygon fill="none" stroke="#000000" points="1167.5,-222.5 1167.5,-252.5 1466.5,-252.5 1466.5,-222.5 1167.5,-222.5"/>
<text text-anchor="start" x="1174.5" y="-233.9" font-family="Arial" font-size="14.00" fill="#000000">id    </text>
<text text-anchor="start" x="1219.594" y="-233.9" font-family="Arial" font-size="14.00" fill="#666666">[bigint]</text>
<polygon fill="none" stroke="#000000" points="1167.5,-192.5 1167.5,-222.5 1466.5,-222.5 1466.5,-192.5 1167.5,-192.5"/>
<text text-anchor="start" x="1174.5" y="-203.9" font-family="Arial" font-size="14.00" fill="#000000">name    </text>
<text text-anchor="start" x="1243.7132" y="-203.9" font-family="Arial" font-size="14.00" fill="#666666">[text]</text>
<polygon fill="none" stroke="#000000" points="1167.5,-162.5 1167.5,-192.5 1466.5,-192.5 1466.5,-162.5 1167.5,-162.5"/>
<text text-anchor="start" x="1174.5" y="-173.9" font-family="Arial" font-size="14.00" fill="#000000">description    </text>
<text text-anchor="start" x="1276.3822" y="-173.9" font-family="Arial" font-size="14.00" fill="#666666">[text]</text>
<polygon fill="none" stroke="#000000" points="1167.5,-132.5 1167.5,-162.5 1466.5,-162.5 1466.5,-132.5 1167.5,-132.5"/>
<text text-anchor="start" x="1174.5" y="-143.9" font-family="Arial" font-size="14.00" fill="#000000">ordering    </text>
<text text-anchor="start" x="1260.0456" y="-143.9" font-family="Arial" font-size="14.00" fill="#666666">[integer]</text>
<polygon fill="none" stroke="#000000" points="1167.5,-102.5 1167.5,-132.5 1466.5,-132.5 1466.5,-102.5 1167.5,-102.5"/>
<text text-anchor="start" x="1174.5" y="-113.9" font-family="Arial" font-size="14.00" fill="#000000">is_public    </text>
<text text-anchor="start" x="1263.155" y="-113.9" font-family="Arial" font-size="14.00" fill="#666666">[boolean]</text>
<polygon fill="none" stroke="#000000" points="1167.5,-72.5 1167.5,-102.5 1466.5,-102.5 1466.5,-72.5 1167.5,-72.5"/>
<text text-anchor="start" x="1174.5" y="-83.9" font-family="Arial" font-size="14.00" fill="#000000">tenant_id    </text>
<text text-anchor="start" x="1266.2882" y="-83.9" font-family="Arial" font-size="14.00" fill="#666666">[bigint]</text>
</g>
<!-- public.cohort&#45;&gt;public.cohort_group -->
<g id="edge7" class="edge">
<title>public.cohort:cohort_group_id&#45;&gt;public.cohort_group:id</title>
<path fill="none" stroke="#000000" d="M1260.6003,-637.03C1353.3905,-627.9752 1295.4028,-490.0745 1250.5,-397 1230.0213,-354.5517 1187.9787,-373.4483 1167.5,-331 1149.4435,-293.5724 1125.9444,-237.5 1167.5,-237.5"/>
<polygon fill="#000000" stroke="#000000" points="1260.4892,-637.0351 1250.2908,-633.0049 1255.4946,-637.2675 1250.5,-637.5 1250.5,-637.5 1250.5,-637.5 1255.4946,-637.2675 1250.7092,-641.9951 1260.4892,-637.0351 1260.4892,-637.0351"/>
<text text-anchor="start" x="1257.867" y="-647.5" font-family="Arial" font-size="10.00" fill="#000000">FOREIGN KEY (cohort_group_id) REFERENCES cohort_group(id) ON DELETE SET NULL</text>
</g>
<!-- public.event_target_cohort -->
<g id="node2" class="node">
<title>public.event_target_cohort</title>
<polygon fill="#efefef" stroke="transparent" points="43.5,-1127.5 43.5,-1162.5 396.5,-1162.5 396.5,-1127.5 43.5,-1127.5"/>
<polygon fill="none" stroke="#000000" points="43.5,-1127.5 43.5,-1162.5 396.5,-1162.5 396.5,-1127.5 43.5,-1127.5"/>
<text text-anchor="start" x="50.1807" y="-1140.3" font-family="Arial Bold" font-size="18.00" fill="#000000">public.event_target_cohort</text>
<text text-anchor="start" x="262.2513" y="-1140.3" font-family="Arial" font-size="14.00" fill="#000000">    </text>
<text text-anchor="start" x="296.4561" y="-1140.3" font-family="Arial" font-size="14.00" fill="#666666">[BASE TABLE]</text>
<polygon fill="none" stroke="#000000" points="43.5,-1097.5 43.5,-1127.5 396.5,-1127.5 396.5,-1097.5 43.5,-1097.5"/>
<text text-anchor="start" x="50.5" y="-1108.9" font-family="Arial" font-size="14.00" fill="#000000">id    </text>
<text text-anchor="start" x="95.594" y="-1108.9" font-family="Arial" font-size="14.00" fill="#666666">[bigint]</text>
<polygon fill="none" stroke="#000000" points="43.5,-1067.5 43.5,-1097.5 396.5,-1097.5 396.5,-1067.5 43.5,-1067.5"/>
<text text-anchor="start" x="50.5" y="-1078.9" font-family="Arial" font-size="14.00" fill="#000000">tenant_id    </text>
<text text-anchor="start" x="142.2882" y="-1078.9" font-family="Arial" font-size="14.00" fill="#666666">[bigint]</text>
<polygon fill="none" stroke="#000000" points="43.5,-1037.5 43.5,-1067.5 396.5,-1067.5 396.5,-1037.5 43.5,-1037.5"/>
<text text-anchor="start" x="50.5" y="-1048.9" font-family="Arial" font-size="14.00" fill="#000000">event_id    </text>
<text text-anchor="start" x="137.615" y="-1048.9" font-family="Arial" font-size="14.00" fill="#666666">[bigint]</text>
<polygon fill="none" stroke="#000000" points="43.5,-1007.5 43.5,-1037.5 396.5,-1037.5 396.5,-1007.5 43.5,-1007.5"/>
<text text-anchor="start" x="50.5" y="-1018.9" font-family="Arial" font-size="14.00" fill="#000000">cohort_id    </text>
<text text-anchor="start" x="142.2756" y="-1018.9" font-family="Arial" font-size="14.00" fill="#666666">[bigint]</text>
<polygon fill="none" stroke="#000000" points="43.5,-977.5 43.5,-1007.5 396.5,-1007.5 396.5,-977.5 43.5,-977.5"/>
<text text-anchor="start" x="50.5" y="-988.9" font-family="Arial" font-size="14.00" fill="#000000">created_at    </text>
<text text-anchor="start" x="150.8422" y="-988.9" font-family="Arial" font-size="14.00" fill="#666666">[timestamp with time zone]</text>
<polygon fill="none" stroke="#000000" points="43.5,-947.5 43.5,-977.5 396.5,-977.5 396.5,-947.5 43.5,-947.5"/>
<text text-anchor="start" x="50.5" y="-958.9" font-family="Arial" font-size="14.00" fill="#000000">updated_at    </text>
<text text-anchor="start" x="154.7468" y="-958.9" font-family="Arial" font-size="14.00" fill="#666666">[timestamp with time zone]</text>
</g>
<!-- public.event_target_cohort&#45;&gt;public.cohort -->
<g id="edge1" class="edge">
<title>public.event_target_cohort:cohort_id&#45;&gt;public.cohort:id</title>
<path fill="none" stroke="#000000" d="M406.888,-1021.7916C476.6379,-1011.3906 386.8123,-889.0915 447.5,-830 539.122,-740.7878 879.6196,-697.5 1007.5,-697.5"/>
<polygon fill="#000000" stroke="#000000" points="406.4768,-1021.8196 396.1938,-1018.0104 401.4884,-1022.1598 396.5,-1022.5 396.5,-1022.5 396.5,-1022.5 401.4884,-1022.1598 396.8062,-1026.9896 406.4768,-1021.8196 406.4768,-1021.8196"/>
<text text-anchor="start" x="279.4965" y="-1006.5" font-family="Arial" font-size="10.00" fill="#000000">FOREIGN KEY (cohort_id) REFERENCES cohort(id)</text>
</g>
<!-- public.cohort_subscription -->
<g id="node3" class="node">
<title>public.cohort_subscription</title>
<polygon fill="#efefef" stroke="transparent" points="500.5,-1187.5 500.5,-1222.5 849.5,-1222.5 849.5,-1187.5 500.5,-1187.5"/>
<polygon fill="none" stroke="#000000" points="500.5,-1187.5 500.5,-1222.5 849.5,-1222.5 849.5,-1187.5 500.5,-1187.5"/>
<text text-anchor="start" x="507.1949" y="-1200.3" font-family="Arial Bold" font-size="18.00" fill="#000000">public.cohort_subscription</text>
<text text-anchor="start" x="715.2371" y="-1200.3" font-family="Arial" font-size="14.00" fill="#000000">    </text>
<text text-anchor="start" x="749.4419" y="-1200.3" font-family="Arial" font-size="14.00" fill="#666666">[BASE TABLE]</text>
<polygon fill="none" stroke="#000000" points="500.5,-1157.5 500.5,-1187.5 849.5,-1187.5 849.5,-1157.5 500.5,-1157.5"/>
<text text-anchor="start" x="507.5" y="-1168.9" font-family="Arial" font-size="14.00" fill="#000000">id    </text>
<text text-anchor="start" x="552.594" y="-1168.9" font-family="Arial" font-size="14.00" fill="#666666">[bigint]</text>
<polygon fill="none" stroke="#000000" points="500.5,-1127.5 500.5,-1157.5 849.5,-1157.5 849.5,-1127.5 500.5,-1127.5"/>
<text text-anchor="start" x="507.5" y="-1138.9" font-family="Arial" font-size="14.00" fill="#000000">cohort_id    </text>
<text text-anchor="start" x="599.2756" y="-1138.9" font-family="Arial" font-size="14.00" fill="#666666">[bigint]</text>
<polygon fill="none" stroke="#000000" points="500.5,-1097.5 500.5,-1127.5 849.5,-1127.5 849.5,-1097.5 500.5,-1097.5"/>
<text text-anchor="start" x="507.5" y="-1108.9" font-family="Arial" font-size="14.00" fill="#000000">tenant_id    </text>
<text text-anchor="start" x="599.2882" y="-1108.9" font-family="Arial" font-size="14.00" fill="#666666">[bigint]</text>
<polygon fill="none" stroke="#000000" points="500.5,-1067.5 500.5,-1097.5 849.5,-1097.5 849.5,-1067.5 500.5,-1067.5"/>
<text text-anchor="start" x="507.5" y="-1078.9" font-family="Arial" font-size="14.00" fill="#000000">account_id    </text>
<text text-anchor="start" x="609.3976" y="-1078.9" font-family="Arial" font-size="14.00" fill="#666666">[bigint]</text>
<polygon fill="none" stroke="#000000" points="500.5,-1037.5 500.5,-1067.5 849.5,-1067.5 849.5,-1037.5 500.5,-1037.5"/>
<text text-anchor="start" x="507.5" y="-1048.9" font-family="Arial" font-size="14.00" fill="#000000">price    </text>
<text text-anchor="start" x="572.0372" y="-1048.9" font-family="Arial" font-size="14.00" fill="#666666">[price]</text>
<polygon fill="none" stroke="#000000" points="500.5,-1007.5 500.5,-1037.5 849.5,-1037.5 849.5,-1007.5 500.5,-1007.5"/>
<text text-anchor="start" x="507.5" y="-1018.9" font-family="Arial" font-size="14.00" fill="#000000">active    </text>
<text text-anchor="start" x="578.2672" y="-1018.9" font-family="Arial" font-size="14.00" fill="#666666">[boolean]</text>
<polygon fill="none" stroke="#000000" points="500.5,-977.5 500.5,-1007.5 849.5,-1007.5 849.5,-977.5 500.5,-977.5"/>
<text text-anchor="start" x="507.5" y="-988.9" font-family="Arial" font-size="14.00" fill="#000000">renews_on    </text>
<text text-anchor="start" x="610.1676" y="-988.9" font-family="Arial" font-size="14.00" fill="#666666">[timestamp with time zone]</text>
<polygon fill="none" stroke="#000000" points="500.5,-947.5 500.5,-977.5 849.5,-977.5 849.5,-947.5 500.5,-947.5"/>
<text text-anchor="start" x="507.5" y="-958.9" font-family="Arial" font-size="14.00" fill="#000000">interval    </text>
<text text-anchor="start" x="586.817" y="-958.9" font-family="Arial" font-size="14.00" fill="#666666">[interval]</text>
<polygon fill="none" stroke="#000000" points="500.5,-917.5 500.5,-947.5 849.5,-947.5 849.5,-917.5 500.5,-917.5"/>
<text text-anchor="start" x="507.5" y="-928.9" font-family="Arial" font-size="14.00" fill="#000000">created_at    </text>
<text text-anchor="start" x="607.8422" y="-928.9" font-family="Arial" font-size="14.00" fill="#666666">[timestamp with time zone]</text>
<polygon fill="none" stroke="#000000" points="500.5,-887.5 500.5,-917.5 849.5,-917.5 849.5,-887.5 500.5,-887.5"/>
<text text-anchor="start" x="507.5" y="-898.9" font-family="Arial" font-size="14.00" fill="#000000">updated_at    </text>
<text text-anchor="start" x="611.7468" y="-898.9" font-family="Arial" font-size="14.00" fill="#666666">[timestamp with time zone]</text>
</g>
<!-- public.cohort_subscription&#45;&gt;public.cohort -->
<g id="edge2" class="edge">
<title>public.cohort_subscription:cohort_id&#45;&gt;public.cohort:id</title>
<path fill="none" stroke="#000000" d="M859.3413,-1140.6364C915.3118,-1117.7651 874.263,-891.0216 901.5,-830 932.2383,-761.1341 932.0854,-697.5 1007.5,-697.5"/>
<polygon fill="#000000" stroke="#000000" points="859.3254,-1140.6393 848.6627,-1138.0786 854.4127,-1141.5696 849.5,-1142.5 849.5,-1142.5 849.5,-1142.5 854.4127,-1141.5696 850.3373,-1146.9214 859.3254,-1140.6393 859.3254,-1140.6393"/>
<text text-anchor="start" x="856.9965" y="-1152.5" font-family="Arial" font-size="10.00" fill="#000000">FOREIGN KEY (cohort_id) REFERENCES cohort(id)</text>
</g>
<!-- public.cohort_membership -->
<g id="node4" class="node">
<title>public.cohort_membership</title>
<polygon fill="#efefef" stroke="transparent" points="953.5,-1202.5 953.5,-1237.5 1305.5,-1237.5 1305.5,-1202.5 953.5,-1202.5"/>
<polygon fill="none" stroke="#000000" points="953.5,-1202.5 953.5,-1237.5 1305.5,-1237.5 1305.5,-1202.5 953.5,-1202.5"/>
<text text-anchor="start" x="960.2009" y="-1215.3" font-family="Arial Bold" font-size="18.00" fill="#000000">public.cohort_membership</text>
<text text-anchor="start" x="1171.2311" y="-1215.3" font-family="Arial" font-size="14.00" fill="#000000">    </text>
<text text-anchor="start" x="1205.4359" y="-1215.3" font-family="Arial" font-size="14.00" fill="#666666">[BASE TABLE]</text>
<polygon fill="none" stroke="#000000" points="953.5,-1172.5 953.5,-1202.5 1305.5,-1202.5 1305.5,-1172.5 953.5,-1172.5"/>
<text text-anchor="start" x="960.5" y="-1183.9" font-family="Arial" font-size="14.00" fill="#000000">cohort_id    </text>
<text text-anchor="start" x="1052.2756" y="-1183.9" font-family="Arial" font-size="14.00" fill="#666666">[bigint]</text>
<polygon fill="none" stroke="#000000" points="953.5,-1142.5 953.5,-1172.5 1305.5,-1172.5 1305.5,-1142.5 953.5,-1142.5"/>
<text text-anchor="start" x="960.5" y="-1153.9" font-family="Arial" font-size="14.00" fill="#000000">person_id    </text>
<text text-anchor="start" x="1056.1676" y="-1153.9" font-family="Arial" font-size="14.00" fill="#666666">[bigint]</text>
<polygon fill="none" stroke="#000000" points="953.5,-1112.5 953.5,-1142.5 1305.5,-1142.5 1305.5,-1112.5 953.5,-1112.5"/>
<text text-anchor="start" x="960.5" y="-1123.9" font-family="Arial" font-size="14.00" fill="#000000">since    </text>
<text text-anchor="start" x="1027.3766" y="-1123.9" font-family="Arial" font-size="14.00" fill="#666666">[timestamp with time zone]</text>
<polygon fill="none" stroke="#000000" points="953.5,-1082.5 953.5,-1112.5 1305.5,-1112.5 1305.5,-1082.5 953.5,-1082.5"/>
<text text-anchor="start" x="960.5" y="-1093.9" font-family="Arial" font-size="14.00" fill="#000000">until    </text>
<text text-anchor="start" x="1020.3738" y="-1093.9" font-family="Arial" font-size="14.00" fill="#666666">[timestamp with time zone]</text>
<polygon fill="none" stroke="#000000" points="953.5,-1052.5 953.5,-1082.5 1305.5,-1082.5 1305.5,-1052.5 953.5,-1052.5"/>
<text text-anchor="start" x="960.5" y="-1063.9" font-family="Arial" font-size="14.00" fill="#000000">created_at    </text>
<text text-anchor="start" x="1060.8422" y="-1063.9" font-family="Arial" font-size="14.00" fill="#666666">[timestamp with time zone]</text>
<polygon fill="none" stroke="#000000" points="953.5,-1022.5 953.5,-1052.5 1305.5,-1052.5 1305.5,-1022.5 953.5,-1022.5"/>
<text text-anchor="start" x="960.5" y="-1033.9" font-family="Arial" font-size="14.00" fill="#000000">updated_at    </text>
<text text-anchor="start" x="1064.7468" y="-1033.9" font-family="Arial" font-size="14.00" fill="#666666">[timestamp with time zone]</text>
<polygon fill="none" stroke="#000000" points="953.5,-992.5 953.5,-1022.5 1305.5,-1022.5 1305.5,-992.5 953.5,-992.5"/>
<text text-anchor="start" x="960.5" y="-1003.9" font-family="Arial" font-size="14.00" fill="#000000">id    </text>
<text text-anchor="start" x="1005.594" y="-1003.9" font-family="Arial" font-size="14.00" fill="#666666">[bigint]</text>
<polygon fill="none" stroke="#000000" points="953.5,-962.5 953.5,-992.5 1305.5,-992.5 1305.5,-962.5 953.5,-962.5"/>
<text text-anchor="start" x="960.5" y="-973.9" font-family="Arial" font-size="14.00" fill="#000000">tenant_id    </text>
<text text-anchor="start" x="1052.2882" y="-973.9" font-family="Arial" font-size="14.00" fill="#666666">[bigint]</text>
<polygon fill="none" stroke="#000000" points="953.5,-932.5 953.5,-962.5 1305.5,-962.5 1305.5,-932.5 953.5,-932.5"/>
<text text-anchor="start" x="960.5" y="-943.9" font-family="Arial" font-size="14.00" fill="#000000">active_range    </text>
<text text-anchor="start" x="1074.8408" y="-943.9" font-family="Arial" font-size="14.00" fill="#666666">[tstzrange]</text>
<polygon fill="none" stroke="#000000" points="953.5,-902.5 953.5,-932.5 1305.5,-932.5 1305.5,-902.5 953.5,-902.5"/>
<text text-anchor="start" x="960.5" y="-913.9" font-family="Arial" font-size="14.00" fill="#000000">status    </text>
<text text-anchor="start" x="1032.0512" y="-913.9" font-family="Arial" font-size="14.00" fill="#666666">[relationship_status]</text>
<polygon fill="none" stroke="#000000" points="953.5,-872.5 953.5,-902.5 1305.5,-902.5 1305.5,-872.5 953.5,-872.5"/>
<text text-anchor="start" x="960.5" y="-883.9" font-family="Arial" font-size="14.00" fill="#000000">active    </text>
<text text-anchor="start" x="1031.2672" y="-883.9" font-family="Arial" font-size="14.00" fill="#666666">[boolean]</text>
</g>
<!-- public.cohort_membership&#45;&gt;public.cohort -->
<g id="edge3" class="edge">
<title>public.cohort_membership:cohort_id&#45;&gt;public.cohort:id</title>
<path fill="none" stroke="#000000" d="M943.4293,-1185.7443C876.5118,-1161.2044 903.1793,-886.7885 953.5,-830 1041.6832,-730.4825 1162.3168,-893.5175 1250.5,-794 1278.9439,-761.9001 1293.3889,-697.5 1250.5,-697.5"/>
<polygon fill="#000000" stroke="#000000" points="943.6486,-1185.7825 952.7271,-1191.9331 948.5743,-1186.6412 953.5,-1187.5 953.5,-1187.5 953.5,-1187.5 948.5743,-1186.6412 954.2729,-1183.0669 943.6486,-1185.7825 943.6486,-1185.7825"/>
<text text-anchor="start" x="960.9965" y="-1197.5" font-family="Arial" font-size="10.00" fill="#000000">FOREIGN KEY (cohort_id) REFERENCES cohort(id)</text>
</g>
<!-- public.platby_group_skupina -->
<g id="node5" class="node">
<title>public.platby_group_skupina</title>
<polygon fill="#efefef" stroke="transparent" points="1410.5,-1112.5 1410.5,-1147.5 1779.5,-1147.5 1779.5,-1112.5 1410.5,-1112.5"/>
<polygon fill="none" stroke="#000000" points="1410.5,-1112.5 1410.5,-1147.5 1779.5,-1147.5 1779.5,-1112.5 1410.5,-1112.5"/>
<text text-anchor="start" x="1417.1797" y="-1125.3" font-family="Arial Bold" font-size="18.00" fill="#000000">public.platby_group_skupina</text>
<text text-anchor="start" x="1645.2523" y="-1125.3" font-family="Arial" font-size="14.00" fill="#000000">    </text>
<text text-anchor="start" x="1679.4571" y="-1125.3" font-family="Arial" font-size="14.00" fill="#666666">[BASE TABLE]</text>
<polygon fill="none" stroke="#000000" points="1410.5,-1082.5 1410.5,-1112.5 1779.5,-1112.5 1779.5,-1082.5 1410.5,-1082.5"/>
<text text-anchor="start" x="1417.5" y="-1093.9" font-family="Arial" font-size="14.00" fill="#000000">pgs_id    </text>
<text text-anchor="start" x="1492.9418" y="-1093.9" font-family="Arial" font-size="14.00" fill="#666666">[bigint]</text>
<polygon fill="none" stroke="#000000" points="1410.5,-1052.5 1410.5,-1082.5 1779.5,-1082.5 1779.5,-1052.5 1410.5,-1052.5"/>
<text text-anchor="start" x="1417.5" y="-1063.9" font-family="Arial" font-size="14.00" fill="#000000">pgs_id_skupina    </text>
<text text-anchor="start" x="1548.9614" y="-1063.9" font-family="Arial" font-size="14.00" fill="#666666">[bigint]</text>
<polygon fill="none" stroke="#000000" points="1410.5,-1022.5 1410.5,-1052.5 1779.5,-1052.5 1779.5,-1022.5 1410.5,-1022.5"/>
<text text-anchor="start" x="1417.5" y="-1033.9" font-family="Arial" font-size="14.00" fill="#000000">pgs_id_group    </text>
<text text-anchor="start" x="1536.5154" y="-1033.9" font-family="Arial" font-size="14.00" fill="#666666">[bigint]</text>
<polygon fill="none" stroke="#000000" points="1410.5,-992.5 1410.5,-1022.5 1779.5,-1022.5 1779.5,-992.5 1410.5,-992.5"/>
<text text-anchor="start" x="1417.5" y="-1003.9" font-family="Arial" font-size="14.00" fill="#000000">id    </text>
<text text-anchor="start" x="1462.594" y="-1003.9" font-family="Arial" font-size="14.00" fill="#666666">[bigint]</text>
<polygon fill="none" stroke="#000000" points="1410.5,-962.5 1410.5,-992.5 1779.5,-992.5 1779.5,-962.5 1410.5,-962.5"/>
<text text-anchor="start" x="1417.5" y="-973.9" font-family="Arial" font-size="14.00" fill="#000000">tenant_id    </text>
<text text-anchor="start" x="1509.2882" y="-973.9" font-family="Arial" font-size="14.00" fill="#666666">[bigint]</text>
</g>
<!-- public.platby_group_skupina&#45;&gt;public.cohort -->
<g id="edge4" class="edge">
<title>public.platby_group_skupina:pgs_id_skupina&#45;&gt;public.cohort:id</title>
<path fill="none" stroke="#000000" d="M1400.4094,-1067.0434C1308.9664,-1058.2443 1402.928,-924.1769 1357.5,-830 1324.6141,-761.8241 1326.193,-697.5 1250.5,-697.5"/>
<polygon fill="#000000" stroke="#000000" points="1400.5102,-1067.0478 1410.2965,-1071.9954 1405.5051,-1067.2739 1410.5,-1067.5 1410.5,-1067.5 1410.5,-1067.5 1405.5051,-1067.2739 1410.7035,-1063.0046 1400.5102,-1067.0478 1400.5102,-1067.0478"/>
<text text-anchor="start" x="1140.823" y="-1077.5" font-family="Arial" font-size="10.00" fill="#000000">FOREIGN KEY (pgs_id_skupina) REFERENCES cohort(id)</text>
</g>
<!-- public.upozorneni_skupiny -->
<g id="node6" class="node">
<title>public.upozorneni_skupiny</title>
<polygon fill="#efefef" stroke="transparent" points="1883.5,-1127.5 1883.5,-1162.5 2236.5,-1162.5 2236.5,-1127.5 1883.5,-1127.5"/>
<polygon fill="none" stroke="#000000" points="1883.5,-1127.5 1883.5,-1162.5 2236.5,-1162.5 2236.5,-1127.5 1883.5,-1127.5"/>
<text text-anchor="start" x="1890.187" y="-1140.3" font-family="Arial Bold" font-size="18.00" fill="#000000">public.upozorneni_skupiny</text>
<text text-anchor="start" x="2102.245" y="-1140.3" font-family="Arial" font-size="14.00" fill="#000000">    </text>
<text text-anchor="start" x="2136.4498" y="-1140.3" font-family="Arial" font-size="14.00" fill="#666666">[BASE TABLE]</text>
<polygon fill="none" stroke="#000000" points="1883.5,-1097.5 1883.5,-1127.5 2236.5,-1127.5 2236.5,-1097.5 1883.5,-1097.5"/>
<text text-anchor="start" x="1890.5" y="-1108.9" font-family="Arial" font-size="14.00" fill="#000000">ups_id    </text>
<text text-anchor="start" x="1965.9418" y="-1108.9" font-family="Arial" font-size="14.00" fill="#666666">[bigint]</text>
<polygon fill="none" stroke="#000000" points="1883.5,-1067.5 1883.5,-1097.5 2236.5,-1097.5 2236.5,-1067.5 1883.5,-1067.5"/>
<text text-anchor="start" x="1890.5" y="-1078.9" font-family="Arial" font-size="14.00" fill="#000000">ups_id_rodic    </text>
<text text-anchor="start" x="2004.0568" y="-1078.9" font-family="Arial" font-size="14.00" fill="#666666">[bigint]</text>
<polygon fill="none" stroke="#000000" points="1883.5,-1037.5 1883.5,-1067.5 2236.5,-1067.5 2236.5,-1037.5 1883.5,-1037.5"/>
<text text-anchor="start" x="1890.5" y="-1048.9" font-family="Arial" font-size="14.00" fill="#000000">ups_id_skupina    </text>
<text text-anchor="start" x="2021.9614" y="-1048.9" font-family="Arial" font-size="14.00" fill="#666666">[bigint]</text>
<polygon fill="none" stroke="#000000" points="1883.5,-1007.5 1883.5,-1037.5 2236.5,-1037.5 2236.5,-1007.5 1883.5,-1007.5"/>
<text text-anchor="start" x="1890.5" y="-1018.9" font-family="Arial" font-size="14.00" fill="#000000">ups_color    </text>
<text text-anchor="start" x="1985.385" y="-1018.9" font-family="Arial" font-size="14.00" fill="#666666">[text]</text>
<polygon fill="none" stroke="#000000" points="1883.5,-977.5 1883.5,-1007.5 2236.5,-1007.5 2236.5,-977.5 1883.5,-977.5"/>
<text text-anchor="start" x="1890.5" y="-988.9" font-family="Arial" font-size="14.00" fill="#000000">id    </text>
<text text-anchor="start" x="1935.594" y="-988.9" font-family="Arial" font-size="14.00" fill="#666666">[bigint]</text>
<polygon fill="none" stroke="#000000" points="1883.5,-947.5 1883.5,-977.5 2236.5,-977.5 2236.5,-947.5 1883.5,-947.5"/>
<text text-anchor="start" x="1890.5" y="-958.9" font-family="Arial" font-size="14.00" fill="#000000">tenant_id    </text>
<text text-anchor="start" x="1982.2882" y="-958.9" font-family="Arial" font-size="14.00" fill="#666666">[bigint]</text>
</g>
<!-- public.upozorneni_skupiny&#45;&gt;public.cohort -->
<g id="edge5" class="edge">
<title>public.upozorneni_skupiny:ups_id_skupina&#45;&gt;public.cohort:id</title>
<path fill="none" stroke="#000000" d="M1873.346,-1051.9199C1790.478,-1041.6998 1900.9001,-899.0286 1831.5,-830 1737.6097,-736.6123 1382.926,-697.5 1250.5,-697.5"/>
<polygon fill="#000000" stroke="#000000" points="1873.5163,-1051.9295 1883.2433,-1056.9927 1878.5081,-1052.2148 1883.5,-1052.5 1883.5,-1052.5 1883.5,-1052.5 1878.5081,-1052.2148 1883.7567,-1048.0073 1873.5163,-1051.9295 1873.5163,-1051.9295"/>
<text text-anchor="start" x="1613.823" y="-1062.5" font-family="Arial" font-size="10.00" fill="#000000">FOREIGN KEY (ups_id_skupina) REFERENCES cohort(id)</text>
</g>
</g>
</svg>
