<?xml version="1.0" encoding="UTF-8" standalone="no"?>
<!DOCTYPE svg PUBLIC "-//W3C//DTD SVG 1.1//EN"
 "http://www.w3.org/Graphics/SVG/1.1/DTD/svg11.dtd">
<!-- Generated by graphviz version 2.40.1 (20161225.0304)
 -->
<!-- Title: public.tenant_administrator Pages: 1 -->
<svg width="1313pt" height="1192pt"
 viewBox="0.00 0.00 1313.00 1192.00" xmlns="http://www.w3.org/2000/svg" xmlns:xlink="http://www.w3.org/1999/xlink">
<g id="graph0" class="graph" transform="scale(1 1) rotate(0) translate(4 1188)">
<title>public.tenant_administrator</title>
<polygon fill="#ffffff" stroke="transparent" points="-4,4 -4,-1188 1309,-1188 1309,4 -4,4"/>
<!-- public.tenant_administrator -->
<g id="node1" class="node">
<title>public.tenant_administrator</title>
<polygon fill="#efefef" stroke="transparent" points="471,-1102.5 471,-1137.5 828,-1137.5 828,-1102.5 471,-1102.5"/>
<polygon fill="none" stroke="#000000" points="471,-1102.5 471,-1137.5 828,-1137.5 828,-1102.5 471,-1102.5"/>
<text text-anchor="start" x="477.6935" y="-1115.3" font-family="Arial Bold" font-size="18.00" fill="#000000">public.tenant_administrator</text>
<text text-anchor="start" x="693.7385" y="-1115.3" font-family="Arial" font-size="14.00" fill="#000000">    </text>
<text text-anchor="start" x="727.9433" y="-1115.3" font-family="Arial" font-size="14.00" fill="#666666">[BASE TABLE]</text>
<polygon fill="none" stroke="#000000" points="471,-1072.5 471,-1102.5 828,-1102.5 828,-1072.5 471,-1072.5"/>
<text text-anchor="start" x="478" y="-1083.9" font-family="Arial" font-size="14.00" fill="#000000">tenant_id </text>
<text text-anchor="start" x="539.474" y="-1083.9" font-family="Arial" font-size="14.00" fill="#666666">[bigint]</text>
<polygon fill="none" stroke="#000000" points="471,-1042.5 471,-1072.5 828,-1072.5 828,-1042.5 471,-1042.5"/>
<text text-anchor="start" x="478" y="-1053.9" font-family="Arial" font-size="14.00" fill="#000000">person_id </text>
<text text-anchor="start" x="543.3534" y="-1053.9" font-family="Arial" font-size="14.00" fill="#666666">[bigint]</text>
<polygon fill="none" stroke="#000000" points="471,-1012.5 471,-1042.5 828,-1042.5 828,-1012.5 471,-1012.5"/>
<text text-anchor="start" x="478" y="-1023.9" font-family="Arial" font-size="14.00" fill="#000000">since </text>
<text text-anchor="start" x="514.5624" y="-1023.9" font-family="Arial" font-size="14.00" fill="#666666">[timestamp with time zone]</text>
<polygon fill="none" stroke="#000000" points="471,-982.5 471,-1012.5 828,-1012.5 828,-982.5 471,-982.5"/>
<text text-anchor="start" x="478" y="-993.9" font-family="Arial" font-size="14.00" fill="#000000">until </text>
<text text-anchor="start" x="507.5596" y="-993.9" font-family="Arial" font-size="14.00" fill="#666666">[timestamp with time zone]</text>
<polygon fill="none" stroke="#000000" points="471,-952.5 471,-982.5 828,-982.5 828,-952.5 471,-952.5"/>
<text text-anchor="start" x="478" y="-963.9" font-family="Arial" font-size="14.00" fill="#000000">created_at </text>
<text text-anchor="start" x="548.028" y="-963.9" font-family="Arial" font-size="14.00" fill="#666666">[timestamp with time zone]</text>
<polygon fill="none" stroke="#000000" points="471,-922.5 471,-952.5 828,-952.5 828,-922.5 471,-922.5"/>
<text text-anchor="start" x="478" y="-933.9" font-family="Arial" font-size="14.00" fill="#000000">updated_at </text>
<text text-anchor="start" x="551.9326" y="-933.9" font-family="Arial" font-size="14.00" fill="#666666">[timestamp with time zone]</text>
<polygon fill="none" stroke="#000000" points="471,-892.5 471,-922.5 828,-922.5 828,-892.5 471,-892.5"/>
<text text-anchor="start" x="478" y="-903.9" font-family="Arial" font-size="14.00" fill="#000000">id </text>
<text text-anchor="start" x="492.7798" y="-903.9" font-family="Arial" font-size="14.00" fill="#666666">[bigint]</text>
<polygon fill="none" stroke="#000000" points="471,-862.5 471,-892.5 828,-892.5 828,-862.5 471,-862.5"/>
<text text-anchor="start" x="478" y="-873.9" font-family="Arial" font-size="14.00" fill="#000000">is_visible </text>
<text text-anchor="start" x="538.6648" y="-873.9" font-family="Arial" font-size="14.00" fill="#666666">[boolean]</text>
<polygon fill="none" stroke="#000000" points="471,-832.5 471,-862.5 828,-862.5 828,-832.5 471,-832.5"/>
<text text-anchor="start" x="478" y="-843.9" font-family="Arial" font-size="14.00" fill="#000000">description </text>
<text text-anchor="start" x="549.568" y="-843.9" font-family="Arial" font-size="14.00" fill="#666666">[text]</text>
<polygon fill="none" stroke="#000000" points="471,-802.5 471,-832.5 828,-832.5 828,-802.5 471,-802.5"/>
<text text-anchor="start" x="478" y="-813.9" font-family="Arial" font-size="14.00" fill="#000000">active_range </text>
<text text-anchor="start" x="562.0266" y="-813.9" font-family="Arial" font-size="14.00" fill="#666666">[tstzrange]</text>
<polygon fill="none" stroke="#000000" points="471,-772.5 471,-802.5 828,-802.5 828,-772.5 471,-772.5"/>
<text text-anchor="start" x="478" y="-783.9" font-family="Arial" font-size="14.00" fill="#000000">status </text>
<text text-anchor="start" x="519.237" y="-783.9" font-family="Arial" font-size="14.00" fill="#666666">[relationship_status]</text>
<polygon fill="none" stroke="#000000" points="471,-742.5 471,-772.5 828,-772.5 828,-742.5 471,-742.5"/>
<text text-anchor="start" x="478" y="-753.9" font-family="Arial" font-size="14.00" fill="#000000">active </text>
<text text-anchor="start" x="518.453" y="-753.9" font-family="Arial" font-size="14.00" fill="#666666">[boolean]</text>
<polygon fill="none" stroke="#000000" stroke-width="3" points="469,-741.5 469,-1139.5 829,-1139.5 829,-741.5 469,-741.5"/>
</g>
<!-- public.tenant -->
<g id="node2" class="node">
<title>public.tenant</title>
<polygon fill="#efefef" stroke="transparent" points="345,-432.5 345,-467.5 588,-467.5 588,-432.5 345,-432.5"/>
<polygon fill="none" stroke="#000000" points="345,-432.5 345,-467.5 588,-467.5 588,-432.5 345,-432.5"/>
<text text-anchor="start" x="351.6968" y="-445.3" font-family="Arial Bold" font-size="18.00" fill="#000000">public.tenant</text>
<text text-anchor="start" x="453.7352" y="-445.3" font-family="Arial" font-size="14.00" fill="#000000">    </text>
<text text-anchor="start" x="487.94" y="-445.3" font-family="Arial" font-size="14.00" fill="#666666">[BASE TABLE]</text>
<polygon fill="none" stroke="#000000" points="345,-402.5 345,-432.5 588,-432.5 588,-402.5 345,-402.5"/>
<text text-anchor="start" x="352" y="-413.9" font-family="Arial" font-size="14.00" fill="#000000">id    </text>
<text text-anchor="start" x="397.094" y="-413.9" font-family="Arial" font-size="14.00" fill="#666666">[bigint]</text>
<polygon fill="none" stroke="#000000" points="345,-372.5 345,-402.5 588,-402.5 588,-372.5 345,-372.5"/>
<text text-anchor="start" x="352" y="-383.9" font-family="Arial" font-size="14.00" fill="#000000">name    </text>
<text text-anchor="start" x="421.2132" y="-383.9" font-family="Arial" font-size="14.00" fill="#666666">[text]</text>
<polygon fill="none" stroke="#000000" points="345,-342.5 345,-372.5 588,-372.5 588,-342.5 345,-342.5"/>
<text text-anchor="start" x="352" y="-353.9" font-family="Arial" font-size="14.00" fill="#000000">origins    </text>
<text text-anchor="start" x="427.4264" y="-353.9" font-family="Arial" font-size="14.00" fill="#666666">[text[]]</text>
<polygon fill="none" stroke="#000000" points="345,-312.5 345,-342.5 588,-342.5 588,-312.5 345,-312.5"/>
<text text-anchor="start" x="352" y="-323.9" font-family="Arial" font-size="14.00" fill="#000000">cz_ico    </text>
<text text-anchor="start" x="425.8766" y="-323.9" font-family="Arial" font-size="14.00" fill="#666666">[text]</text>
<polygon fill="none" stroke="#000000" points="345,-282.5 345,-312.5 588,-312.5 588,-282.5 345,-282.5"/>
<text text-anchor="start" x="352" y="-293.9" font-family="Arial" font-size="14.00" fill="#000000">cz_dic    </text>
<text text-anchor="start" x="425.8766" y="-293.9" font-family="Arial" font-size="14.00" fill="#666666">[text]</text>
<polygon fill="none" stroke="#000000" points="345,-252.5 345,-282.5 588,-282.5 588,-252.5 345,-252.5"/>
<text text-anchor="start" x="352" y="-263.9" font-family="Arial" font-size="14.00" fill="#000000">address    </text>
<text text-anchor="start" x="435.9958" y="-263.9" font-family="Arial" font-size="14.00" fill="#666666">[address_domain]</text>
<polygon fill="none" stroke="#000000" points="345,-222.5 345,-252.5 588,-252.5 588,-222.5 345,-222.5"/>
<text text-anchor="start" x="352" y="-233.9" font-family="Arial" font-size="14.00" fill="#000000">description    </text>
<text text-anchor="start" x="453.8822" y="-233.9" font-family="Arial" font-size="14.00" fill="#666666">[text]</text>
<polygon fill="none" stroke="#000000" points="345,-192.5 345,-222.5 588,-222.5 588,-192.5 345,-192.5"/>
<text text-anchor="start" x="352" y="-203.9" font-family="Arial" font-size="14.00" fill="#000000">bank_account    </text>
<text text-anchor="start" x="473.3562" y="-203.9" font-family="Arial" font-size="14.00" fill="#666666">[text]</text>
</g>
<!-- public.tenant_administrator&#45;&gt;public.tenant -->
<g id="edge1" class="edge">
<title>public.tenant_administrator:tenant_id&#45;&gt;public.tenant:id</title>
<path fill="none" stroke="#000000" d="M460.6963,-1087.2201C302.558,-1078.3472 423.8986,-860.3407 471,-697 508.3126,-567.6055 722.6669,-417.5 588,-417.5"/>
<polygon fill="#000000" stroke="#000000" points="461.0037,-1087.2284 470.8778,-1091.9983 466.0018,-1087.3642 471,-1087.5 471,-1087.5 471,-1087.5 466.0018,-1087.3642 471.1222,-1083.0017 461.0037,-1087.2284 461.0037,-1087.2284"/>
<text text-anchor="start" x="7.0955" y="-1097.5" font-family="Arial" font-size="10.00" fill="#000000">FOREIGN KEY (tenant_id) REFERENCES tenant(id) ON UPDATE CASCADE ON DELETE CASCADE</text>
</g>
<!-- public.person -->
<g id="node3" class="node">
<title>public.person</title>
<polygon fill="#efefef" stroke="transparent" points="692,-582.5 692,-617.5 975,-617.5 975,-582.5 692,-582.5"/>
<polygon fill="none" stroke="#000000" points="692,-582.5 692,-617.5 975,-617.5 975,-582.5 692,-582.5"/>
<text text-anchor="start" x="716.2029" y="-595.3" font-family="Arial Bold" font-size="18.00" fill="#000000">public.person</text>
<text text-anchor="start" x="823.2291" y="-595.3" font-family="Arial" font-size="14.00" fill="#000000">    </text>
<text text-anchor="start" x="857.4339" y="-595.3" font-family="Arial" font-size="14.00" fill="#666666">[BASE TABLE]</text>
<polygon fill="none" stroke="#000000" points="692,-552.5 692,-582.5 975,-582.5 975,-552.5 692,-552.5"/>
<text text-anchor="start" x="699" y="-563.9" font-family="Arial" font-size="14.00" fill="#000000">id    </text>
<text text-anchor="start" x="744.094" y="-563.9" font-family="Arial" font-size="14.00" fill="#666666">[bigint]</text>
<polygon fill="none" stroke="#000000" points="692,-522.5 692,-552.5 975,-552.5 975,-522.5 692,-522.5"/>
<text text-anchor="start" x="699" y="-533.9" font-family="Arial" font-size="14.00" fill="#000000">first_name    </text>
<text text-anchor="start" x="798.5442" y="-533.9" font-family="Arial" font-size="14.00" fill="#666666">[text]</text>
<polygon fill="none" stroke="#000000" points="692,-492.5 692,-522.5 975,-522.5 975,-492.5 692,-492.5"/>
<text text-anchor="start" x="699" y="-503.9" font-family="Arial" font-size="14.00" fill="#000000">last_name    </text>
<text text-anchor="start" x="797.7756" y="-503.9" font-family="Arial" font-size="14.00" fill="#666666">[text]</text>
<polygon fill="none" stroke="#000000" points="692,-462.5 692,-492.5 975,-492.5 975,-462.5 692,-462.5"/>
<text text-anchor="start" x="699" y="-473.9" font-family="Arial" font-size="14.00" fill="#000000">gender    </text>
<text text-anchor="start" x="776.7784" y="-473.9" font-family="Arial" font-size="14.00" fill="#666666">[gender_type]</text>
<polygon fill="none" stroke="#000000" points="692,-432.5 692,-462.5 975,-462.5 975,-432.5 692,-432.5"/>
<text text-anchor="start" x="699" y="-443.9" font-family="Arial" font-size="14.00" fill="#000000">birth_date    </text>
<text text-anchor="start" x="795.4488" y="-443.9" font-family="Arial" font-size="14.00" fill="#666666">[date]</text>
<polygon fill="none" stroke="#000000" points="692,-402.5 692,-432.5 975,-432.5 975,-402.5 692,-402.5"/>
<text text-anchor="start" x="699" y="-413.9" font-family="Arial" font-size="14.00" fill="#000000">nationality    </text>
<text text-anchor="start" x="796.2188" y="-413.9" font-family="Arial" font-size="14.00" fill="#666666">[text]</text>
<polygon fill="none" stroke="#000000" points="692,-372.5 692,-402.5 975,-402.5 975,-372.5 692,-372.5"/>
<text text-anchor="start" x="699" y="-383.9" font-family="Arial" font-size="14.00" fill="#000000">tax_identification_number    </text>
<text text-anchor="start" x="892.6886" y="-383.9" font-family="Arial" font-size="14.00" fill="#666666">[text]</text>
<polygon fill="none" stroke="#000000" points="692,-342.5 692,-372.5 975,-372.5 975,-342.5 692,-342.5"/>
<text text-anchor="start" x="699" y="-353.9" font-family="Arial" font-size="14.00" fill="#000000">national_id_number    </text>
<text text-anchor="start" x="856.1276" y="-353.9" font-family="Arial" font-size="14.00" fill="#666666">[text]</text>
<polygon fill="none" stroke="#000000" points="692,-312.5 692,-342.5 975,-342.5 975,-312.5 692,-312.5"/>
<text text-anchor="start" x="699" y="-323.9" font-family="Arial" font-size="14.00" fill="#000000">csts_id    </text>
<text text-anchor="start" x="776.7672" y="-323.9" font-family="Arial" font-size="14.00" fill="#666666">[text]</text>
<polygon fill="none" stroke="#000000" points="692,-282.5 692,-312.5 975,-312.5 975,-282.5 692,-282.5"/>
<text text-anchor="start" x="699" y="-293.9" font-family="Arial" font-size="14.00" fill="#000000">wdsf_id    </text>
<text text-anchor="start" x="780.6564" y="-293.9" font-family="Arial" font-size="14.00" fill="#666666">[text]</text>
<polygon fill="none" stroke="#000000" points="692,-252.5 692,-282.5 975,-282.5 975,-252.5 692,-252.5"/>
<text text-anchor="start" x="699" y="-263.9" font-family="Arial" font-size="14.00" fill="#000000">created_at    </text>
<text text-anchor="start" x="799.3422" y="-263.9" font-family="Arial" font-size="14.00" fill="#666666">[timestamp with time zone]</text>
<polygon fill="none" stroke="#000000" points="692,-222.5 692,-252.5 975,-252.5 975,-222.5 692,-222.5"/>
<text text-anchor="start" x="698.5344" y="-233.9" font-family="Arial" font-size="14.00" fill="#000000">updated_at    </text>
<text text-anchor="start" x="802.7812" y="-233.9" font-family="Arial" font-size="14.00" fill="#666666">[timestamp with time zone]</text>
<polygon fill="none" stroke="#000000" points="692,-192.5 692,-222.5 975,-222.5 975,-192.5 692,-192.5"/>
<text text-anchor="start" x="699" y="-203.9" font-family="Arial" font-size="14.00" fill="#000000">legacy_user_id    </text>
<text text-anchor="start" x="827.3394" y="-203.9" font-family="Arial" font-size="14.00" fill="#666666">[bigint]</text>
<polygon fill="none" stroke="#000000" points="692,-162.5 692,-192.5 975,-192.5 975,-162.5 692,-162.5"/>
<text text-anchor="start" x="699" y="-173.9" font-family="Arial" font-size="14.00" fill="#000000">prefix_title    </text>
<text text-anchor="start" x="796.9874" y="-173.9" font-family="Arial" font-size="14.00" fill="#666666">[text]</text>
<polygon fill="none" stroke="#000000" points="692,-132.5 692,-162.5 975,-162.5 975,-132.5 692,-132.5"/>
<text text-anchor="start" x="699" y="-143.9" font-family="Arial" font-size="14.00" fill="#000000">suffix_title    </text>
<text text-anchor="start" x="795.4348" y="-143.9" font-family="Arial" font-size="14.00" fill="#666666">[text]</text>
<polygon fill="none" stroke="#000000" points="692,-102.5 692,-132.5 975,-132.5 975,-102.5 692,-102.5"/>
<text text-anchor="start" x="699" y="-113.9" font-family="Arial" font-size="14.00" fill="#000000">bio    </text>
<text text-anchor="start" x="751.8766" y="-113.9" font-family="Arial" font-size="14.00" fill="#666666">[text]</text>
<polygon fill="none" stroke="#000000" points="692,-72.5 692,-102.5 975,-102.5 975,-72.5 692,-72.5"/>
<text text-anchor="start" x="699" y="-83.9" font-family="Arial" font-size="14.00" fill="#000000">email    </text>
<text text-anchor="start" x="766.6438" y="-83.9" font-family="Arial" font-size="14.00" fill="#666666">[citext]</text>
<polygon fill="none" stroke="#000000" points="692,-42.5 692,-72.5 975,-72.5 975,-42.5 692,-42.5"/>
<text text-anchor="start" x="699" y="-53.9" font-family="Arial" font-size="14.00" fill="#000000">phone    </text>
<text text-anchor="start" x="772.1178" y="-53.9" font-family="Arial" font-size="14.00" fill="#666666">[text]</text>
</g>
<!-- public.tenant_administrator&#45;&gt;public.person -->
<g id="edge2" class="edge">
<title>public.tenant_administrator:person_id&#45;&gt;public.person:id</title>
<path fill="none" stroke="#000000" d="M838.0203,-1057.18C985.5207,-1047.5145 923.6298,-821.2372 828,-697 789.8614,-647.4523 730.1386,-710.5477 692,-661 666.6527,-628.0701 650.4444,-567.5 692,-567.5"/>
<polygon fill="#000000" stroke="#000000" points="837.9949,-1057.1807 827.8563,-1053.0023 832.9975,-1057.3404 828,-1057.5 828,-1057.5 828,-1057.5 832.9975,-1057.3404 828.1437,-1061.9977 837.9949,-1057.1807 837.9949,-1057.1807"/>
<text text-anchor="start" x="835.3245" y="-1067.5" font-family="Arial" font-size="10.00" fill="#000000">FOREIGN KEY (person_id) REFERENCES person(id) ON UPDATE CASCADE ON DELETE CASCADE</text>
</g>
</g>
</svg>
