<?xml version="1.0" encoding="UTF-8" standalone="no"?>
<!DOCTYPE svg PUBLIC "-//W3C//DTD SVG 1.1//EN"
 "http://www.w3.org/Graphics/SVG/1.1/DTD/svg11.dtd">
<!-- Generated by graphviz version 2.40.1 (20161225.0304)
 -->
<!-- Title: public.cohort_subscription Pages: 1 -->
<svg width="1399pt" height="1469pt"
 viewBox="0.00 0.00 1399.00 1469.00" xmlns="http://www.w3.org/2000/svg" xmlns:xlink="http://www.w3.org/1999/xlink">
<g id="graph0" class="graph" transform="scale(1 1) rotate(0) translate(4 1465)">
<title>public.cohort_subscription</title>
<polygon fill="#ffffff" stroke="transparent" points="-4,4 -4,-1465 1395,-1465 1395,4 -4,4"/>
<!-- public.cohort_subscription -->
<g id="node1" class="node">
<title>public.cohort_subscription</title>
<polygon fill="#efefef" stroke="transparent" points="556,-772.5 556,-807.5 905,-807.5 905,-772.5 556,-772.5"/>
<polygon fill="none" stroke="#000000" points="556,-772.5 556,-807.5 905,-807.5 905,-772.5 556,-772.5"/>
<text text-anchor="start" x="562.6949" y="-785.3" font-family="Arial Bold" font-size="18.00" fill="#000000">public.cohort_subscription</text>
<text text-anchor="start" x="770.7371" y="-785.3" font-family="Arial" font-size="14.00" fill="#000000">    </text>
<text text-anchor="start" x="804.9419" y="-785.3" font-family="Arial" font-size="14.00" fill="#666666">[BASE TABLE]</text>
<polygon fill="none" stroke="#000000" points="556,-742.5 556,-772.5 905,-772.5 905,-742.5 556,-742.5"/>
<text text-anchor="start" x="563" y="-753.9" font-family="Arial" font-size="14.00" fill="#000000">id </text>
<text text-anchor="start" x="577.7798" y="-753.9" font-family="Arial" font-size="14.00" fill="#666666">[bigint]</text>
<polygon fill="none" stroke="#000000" points="556,-712.5 556,-742.5 905,-742.5 905,-712.5 556,-712.5"/>
<text text-anchor="start" x="563" y="-723.9" font-family="Arial" font-size="14.00" fill="#000000">cohort_id </text>
<text text-anchor="start" x="624.4614" y="-723.9" font-family="Arial" font-size="14.00" fill="#666666">[bigint]</text>
<polygon fill="none" stroke="#000000" points="556,-682.5 556,-712.5 905,-712.5 905,-682.5 556,-682.5"/>
<text text-anchor="start" x="563" y="-693.9" font-family="Arial" font-size="14.00" fill="#000000">tenant_id </text>
<text text-anchor="start" x="624.474" y="-693.9" font-family="Arial" font-size="14.00" fill="#666666">[bigint]</text>
<polygon fill="none" stroke="#000000" points="556,-652.5 556,-682.5 905,-682.5 905,-652.5 556,-652.5"/>
<text text-anchor="start" x="563" y="-663.9" font-family="Arial" font-size="14.00" fill="#000000">account_id </text>
<text text-anchor="start" x="634.5834" y="-663.9" font-family="Arial" font-size="14.00" fill="#666666">[bigint]</text>
<polygon fill="none" stroke="#000000" points="556,-622.5 556,-652.5 905,-652.5 905,-622.5 556,-622.5"/>
<text text-anchor="start" x="563" y="-633.9" font-family="Arial" font-size="14.00" fill="#000000">price </text>
<text text-anchor="start" x="597.223" y="-633.9" font-family="Arial" font-size="14.00" fill="#666666">[price]</text>
<polygon fill="none" stroke="#000000" points="556,-592.5 556,-622.5 905,-622.5 905,-592.5 556,-592.5"/>
<text text-anchor="start" x="563" y="-603.9" font-family="Arial" font-size="14.00" fill="#000000">active </text>
<text text-anchor="start" x="603.453" y="-603.9" font-family="Arial" font-size="14.00" fill="#666666">[boolean]</text>
<polygon fill="none" stroke="#000000" points="556,-562.5 556,-592.5 905,-592.5 905,-562.5 556,-562.5"/>
<text text-anchor="start" x="563" y="-573.9" font-family="Arial" font-size="14.00" fill="#000000">renews_on </text>
<text text-anchor="start" x="635.3534" y="-573.9" font-family="Arial" font-size="14.00" fill="#666666">[timestamp with time zone]</text>
<polygon fill="none" stroke="#000000" points="556,-532.5 556,-562.5 905,-562.5 905,-532.5 556,-532.5"/>
<text text-anchor="start" x="563" y="-543.9" font-family="Arial" font-size="14.00" fill="#000000">interval </text>
<text text-anchor="start" x="612.0028" y="-543.9" font-family="Arial" font-size="14.00" fill="#666666">[interval]</text>
<polygon fill="none" stroke="#000000" points="556,-502.5 556,-532.5 905,-532.5 905,-502.5 556,-502.5"/>
<text text-anchor="start" x="563" y="-513.9" font-family="Arial" font-size="14.00" fill="#000000">created_at </text>
<text text-anchor="start" x="633.028" y="-513.9" font-family="Arial" font-size="14.00" fill="#666666">[timestamp with time zone]</text>
<polygon fill="none" stroke="#000000" points="556,-472.5 556,-502.5 905,-502.5 905,-472.5 556,-472.5"/>
<text text-anchor="start" x="563" y="-483.9" font-family="Arial" font-size="14.00" fill="#000000">updated_at </text>
<text text-anchor="start" x="636.9326" y="-483.9" font-family="Arial" font-size="14.00" fill="#666666">[timestamp with time zone]</text>
<polygon fill="none" stroke="#000000" stroke-width="3" points="554,-471.5 554,-809.5 906,-809.5 906,-471.5 554,-471.5"/>
</g>
<!-- public.cohort -->
<g id="node3" class="node">
<title>public.cohort</title>
<polygon fill="#efefef" stroke="transparent" points="262,-312.5 262,-347.5 505,-347.5 505,-312.5 262,-312.5"/>
<polygon fill="none" stroke="#000000" points="262,-312.5 262,-347.5 505,-347.5 505,-312.5 262,-312.5"/>
<text text-anchor="start" x="268.7049" y="-325.3" font-family="Arial Bold" font-size="18.00" fill="#000000">public.cohort</text>
<text text-anchor="start" x="370.7271" y="-325.3" font-family="Arial" font-size="14.00" fill="#000000">    </text>
<text text-anchor="start" x="404.9319" y="-325.3" font-family="Arial" font-size="14.00" fill="#666666">[BASE TABLE]</text>
<polygon fill="none" stroke="#000000" points="262,-282.5 262,-312.5 505,-312.5 505,-282.5 262,-282.5"/>
<text text-anchor="start" x="269" y="-293.9" font-family="Arial" font-size="14.00" fill="#000000">id    </text>
<text text-anchor="start" x="314.094" y="-293.9" font-family="Arial" font-size="14.00" fill="#666666">[bigint]</text>
<polygon fill="none" stroke="#000000" points="262,-252.5 262,-282.5 505,-282.5 505,-252.5 262,-252.5"/>
<text text-anchor="start" x="269" y="-263.9" font-family="Arial" font-size="14.00" fill="#000000">tenant_id    </text>
<text text-anchor="start" x="360.7882" y="-263.9" font-family="Arial" font-size="14.00" fill="#666666">[bigint]</text>
<polygon fill="none" stroke="#000000" points="262,-222.5 262,-252.5 505,-252.5 505,-222.5 262,-222.5"/>
<text text-anchor="start" x="269" y="-233.9" font-family="Arial" font-size="14.00" fill="#000000">cohort_group_id    </text>
<text text-anchor="start" x="404.3492" y="-233.9" font-family="Arial" font-size="14.00" fill="#666666">[bigint]</text>
<polygon fill="none" stroke="#000000" points="262,-192.5 262,-222.5 505,-222.5 505,-192.5 262,-192.5"/>
<text text-anchor="start" x="269" y="-203.9" font-family="Arial" font-size="14.00" fill="#000000">name    </text>
<text text-anchor="start" x="338.2132" y="-203.9" font-family="Arial" font-size="14.00" fill="#666666">[text]</text>
<polygon fill="none" stroke="#000000" points="262,-162.5 262,-192.5 505,-192.5 505,-162.5 262,-162.5"/>
<text text-anchor="start" x="269" y="-173.9" font-family="Arial" font-size="14.00" fill="#000000">description    </text>
<text text-anchor="start" x="370.8822" y="-173.9" font-family="Arial" font-size="14.00" fill="#666666">[text]</text>
<polygon fill="none" stroke="#000000" points="262,-132.5 262,-162.5 505,-162.5 505,-132.5 262,-132.5"/>
<text text-anchor="start" x="269" y="-143.9" font-family="Arial" font-size="14.00" fill="#000000">color_rgb    </text>
<text text-anchor="start" x="361.5456" y="-143.9" font-family="Arial" font-size="14.00" fill="#666666">[text]</text>
<polygon fill="none" stroke="#000000" points="262,-102.5 262,-132.5 505,-132.5 505,-102.5 262,-102.5"/>
<text text-anchor="start" x="269" y="-113.9" font-family="Arial" font-size="14.00" fill="#000000">location    </text>
<text text-anchor="start" x="351.439" y="-113.9" font-family="Arial" font-size="14.00" fill="#666666">[text]</text>
<polygon fill="none" stroke="#000000" points="262,-72.5 262,-102.5 505,-102.5 505,-72.5 262,-72.5"/>
<text text-anchor="start" x="269" y="-83.9" font-family="Arial" font-size="14.00" fill="#000000">is_visible    </text>
<text text-anchor="start" x="359.979" y="-83.9" font-family="Arial" font-size="14.00" fill="#666666">[boolean]</text>
<polygon fill="none" stroke="#000000" points="262,-42.5 262,-72.5 505,-72.5 505,-42.5 262,-42.5"/>
<text text-anchor="start" x="269" y="-53.9" font-family="Arial" font-size="14.00" fill="#000000">ordering    </text>
<text text-anchor="start" x="354.5456" y="-53.9" font-family="Arial" font-size="14.00" fill="#666666">[integer]</text>
</g>
<!-- public.cohort_subscription&#45;&gt;public.cohort -->
<g id="edge2" class="edge">
<title>public.cohort_subscription:cohort_id&#45;&gt;public.cohort:id</title>
<path fill="none" stroke="#000000" d="M545.7833,-725.5829C470.4629,-694.5624 597.4665,-297.5 505,-297.5"/>
<polygon fill="#000000" stroke="#000000" points="546.1715,-725.6557 555.17,-731.9228 551.0858,-726.5778 556,-727.5 556,-727.5 556,-727.5 551.0858,-726.5778 556.83,-723.0772 546.1715,-725.6557 546.1715,-725.6557"/>
<text text-anchor="start" x="314.4965" y="-737.5" font-family="Arial" font-size="10.00" fill="#000000">FOREIGN KEY (cohort_id) REFERENCES cohort(id)</text>
</g>
<!-- public.tenant -->
<g id="node4" class="node">
<title>public.tenant</title>
<polygon fill="#efefef" stroke="transparent" points="609,-297.5 609,-332.5 852,-332.5 852,-297.5 609,-297.5"/>
<polygon fill="none" stroke="#000000" points="609,-297.5 609,-332.5 852,-332.5 852,-297.5 609,-297.5"/>
<text text-anchor="start" x="615.6968" y="-310.3" font-family="Arial Bold" font-size="18.00" fill="#000000">public.tenant</text>
<text text-anchor="start" x="717.7352" y="-310.3" font-family="Arial" font-size="14.00" fill="#000000">    </text>
<text text-anchor="start" x="751.94" y="-310.3" font-family="Arial" font-size="14.00" fill="#666666">[BASE TABLE]</text>
<polygon fill="none" stroke="#000000" points="609,-267.5 609,-297.5 852,-297.5 852,-267.5 609,-267.5"/>
<text text-anchor="start" x="616" y="-278.9" font-family="Arial" font-size="14.00" fill="#000000">id    </text>
<text text-anchor="start" x="661.094" y="-278.9" font-family="Arial" font-size="14.00" fill="#666666">[bigint]</text>
<polygon fill="none" stroke="#000000" points="609,-237.5 609,-267.5 852,-267.5 852,-237.5 609,-237.5"/>
<text text-anchor="start" x="616" y="-248.9" font-family="Arial" font-size="14.00" fill="#000000">name    </text>
<text text-anchor="start" x="685.2132" y="-248.9" font-family="Arial" font-size="14.00" fill="#666666">[text]</text>
<polygon fill="none" stroke="#000000" points="609,-207.5 609,-237.5 852,-237.5 852,-207.5 609,-207.5"/>
<text text-anchor="start" x="616" y="-218.9" font-family="Arial" font-size="14.00" fill="#000000">origins    </text>
<text text-anchor="start" x="691.4264" y="-218.9" font-family="Arial" font-size="14.00" fill="#666666">[text[]]</text>
<polygon fill="none" stroke="#000000" points="609,-177.5 609,-207.5 852,-207.5 852,-177.5 609,-177.5"/>
<text text-anchor="start" x="616" y="-188.9" font-family="Arial" font-size="14.00" fill="#000000">cz_ico    </text>
<text text-anchor="start" x="689.8766" y="-188.9" font-family="Arial" font-size="14.00" fill="#666666">[text]</text>
<polygon fill="none" stroke="#000000" points="609,-147.5 609,-177.5 852,-177.5 852,-147.5 609,-147.5"/>
<text text-anchor="start" x="616" y="-158.9" font-family="Arial" font-size="14.00" fill="#000000">cz_dic    </text>
<text text-anchor="start" x="689.8766" y="-158.9" font-family="Arial" font-size="14.00" fill="#666666">[text]</text>
<polygon fill="none" stroke="#000000" points="609,-117.5 609,-147.5 852,-147.5 852,-117.5 609,-117.5"/>
<text text-anchor="start" x="616" y="-128.9" font-family="Arial" font-size="14.00" fill="#000000">address    </text>
<text text-anchor="start" x="699.9958" y="-128.9" font-family="Arial" font-size="14.00" fill="#666666">[address_domain]</text>
<polygon fill="none" stroke="#000000" points="609,-87.5 609,-117.5 852,-117.5 852,-87.5 609,-87.5"/>
<text text-anchor="start" x="616" y="-98.9" font-family="Arial" font-size="14.00" fill="#000000">description    </text>
<text text-anchor="start" x="717.8822" y="-98.9" font-family="Arial" font-size="14.00" fill="#666666">[text]</text>
<polygon fill="none" stroke="#000000" points="609,-57.5 609,-87.5 852,-87.5 852,-57.5 609,-57.5"/>
<text text-anchor="start" x="616" y="-68.9" font-family="Arial" font-size="14.00" fill="#000000">bank_account    </text>
<text text-anchor="start" x="737.3562" y="-68.9" font-family="Arial" font-size="14.00" fill="#666666">[text]</text>
</g>
<!-- public.cohort_subscription&#45;&gt;public.tenant -->
<g id="edge3" class="edge">
<title>public.cohort_subscription:tenant_id&#45;&gt;public.tenant:id</title>
<path fill="none" stroke="#000000" d="M545.9911,-697.113C441.5231,-688.6151 535.5927,-541.9019 556,-427 567.9621,-359.6482 540.5942,-282.5 609,-282.5"/>
<polygon fill="#000000" stroke="#000000" points="546.0075,-697.1135 555.8261,-701.9966 551.0037,-697.3067 556,-697.5 556,-697.5 556,-697.5 551.0037,-697.3067 556.1739,-693.0034 546.0075,-697.1135 546.0075,-697.1135"/>
<text text-anchor="start" x="92.0955" y="-707.5" font-family="Arial" font-size="10.00" fill="#000000">FOREIGN KEY (tenant_id) REFERENCES tenant(id) ON UPDATE CASCADE ON DELETE CASCADE</text>
</g>
<!-- public.account -->
<g id="node5" class="node">
<title>public.account</title>
<polygon fill="#efefef" stroke="transparent" points="956,-282.5 956,-317.5 1239,-317.5 1239,-282.5 956,-282.5"/>
<polygon fill="none" stroke="#000000" points="956,-282.5 956,-317.5 1239,-317.5 1239,-282.5 956,-282.5"/>
<text text-anchor="start" x="976.1979" y="-295.3" font-family="Arial Bold" font-size="18.00" fill="#000000">public.account</text>
<text text-anchor="start" x="1091.2341" y="-295.3" font-family="Arial" font-size="14.00" fill="#000000">    </text>
<text text-anchor="start" x="1125.4389" y="-295.3" font-family="Arial" font-size="14.00" fill="#666666">[BASE TABLE]</text>
<polygon fill="none" stroke="#000000" points="956,-252.5 956,-282.5 1239,-282.5 1239,-252.5 956,-252.5"/>
<text text-anchor="start" x="963" y="-263.9" font-family="Arial" font-size="14.00" fill="#000000">id    </text>
<text text-anchor="start" x="1008.094" y="-263.9" font-family="Arial" font-size="14.00" fill="#666666">[bigint]</text>
<polygon fill="none" stroke="#000000" points="956,-222.5 956,-252.5 1239,-252.5 1239,-222.5 956,-222.5"/>
<text text-anchor="start" x="963" y="-233.9" font-family="Arial" font-size="14.00" fill="#000000">tenant_id    </text>
<text text-anchor="start" x="1054.7882" y="-233.9" font-family="Arial" font-size="14.00" fill="#666666">[bigint]</text>
<polygon fill="none" stroke="#000000" points="956,-192.5 956,-222.5 1239,-222.5 1239,-192.5 956,-192.5"/>
<text text-anchor="start" x="963" y="-203.9" font-family="Arial" font-size="14.00" fill="#000000">person_id    </text>
<text text-anchor="start" x="1058.6676" y="-203.9" font-family="Arial" font-size="14.00" fill="#666666">[bigint]</text>
<polygon fill="none" stroke="#000000" points="956,-162.5 956,-192.5 1239,-192.5 1239,-162.5 956,-162.5"/>
<text text-anchor="start" x="963" y="-173.9" font-family="Arial" font-size="14.00" fill="#000000">opening_balance    </text>
<text text-anchor="start" x="1103.8092" y="-173.9" font-family="Arial" font-size="14.00" fill="#666666">[numeric(19,4)]</text>
<polygon fill="none" stroke="#000000" points="956,-132.5 956,-162.5 1239,-162.5 1239,-132.5 956,-132.5"/>
<text text-anchor="start" x="963" y="-143.9" font-family="Arial" font-size="14.00" fill="#000000">currency    </text>
<text text-anchor="start" x="1050.8738" y="-143.9" font-family="Arial" font-size="14.00" fill="#666666">[citext]</text>
<polygon fill="none" stroke="#000000" points="956,-102.5 956,-132.5 1239,-132.5 1239,-102.5 956,-102.5"/>
<text text-anchor="start" x="963" y="-113.9" font-family="Arial" font-size="14.00" fill="#000000">created_at    </text>
<text text-anchor="start" x="1063.3422" y="-113.9" font-family="Arial" font-size="14.00" fill="#666666">[timestamp with time zone]</text>
<polygon fill="none" stroke="#000000" points="956,-72.5 956,-102.5 1239,-102.5 1239,-72.5 956,-72.5"/>
<text text-anchor="start" x="962.5344" y="-83.9" font-family="Arial" font-size="14.00" fill="#000000">updated_at    </text>
<text text-anchor="start" x="1066.7812" y="-83.9" font-family="Arial" font-size="14.00" fill="#666666">[timestamp with time zone]</text>
</g>
<!-- public.cohort_subscription&#45;&gt;public.account -->
<g id="edge4" class="edge">
<title>public.cohort_subscription:account_id&#45;&gt;public.account:id</title>
<path fill="none" stroke="#000000" d="M914.9568,-665.5365C984.4571,-635.3604 870.0669,-267.5 956,-267.5"/>
<polygon fill="#000000" stroke="#000000" points="914.811,-665.5651 904.1293,-663.085 909.9055,-666.5326 905,-667.5 905,-667.5 905,-667.5 909.9055,-666.5326 905.8707,-671.915 914.811,-665.5651 914.811,-665.5651"/>
<text text-anchor="start" x="911.8745" y="-677.5" font-family="Arial" font-size="10.00" fill="#000000">FOREIGN KEY (account_id) REFERENCES account(id) ON UPDATE CASCADE ON DELETE CASCADE</text>
</g>
<!-- public.payment -->
<g id="node2" class="node">
<title>public.payment</title>
<polygon fill="#efefef" stroke="transparent" points="589,-1382.5 589,-1417.5 872,-1417.5 872,-1382.5 589,-1382.5"/>
<polygon fill="none" stroke="#000000" points="589,-1382.5 589,-1417.5 872,-1417.5 872,-1382.5 589,-1382.5"/>
<text text-anchor="start" x="606.2018" y="-1395.3" font-family="Arial Bold" font-size="18.00" fill="#000000">public.payment</text>
<text text-anchor="start" x="727.2302" y="-1395.3" font-family="Arial" font-size="14.00" fill="#000000">    </text>
<text text-anchor="start" x="761.435" y="-1395.3" font-family="Arial" font-size="14.00" fill="#666666">[BASE TABLE]</text>
<polygon fill="none" stroke="#000000" points="589,-1352.5 589,-1382.5 872,-1382.5 872,-1352.5 589,-1352.5"/>
<text text-anchor="start" x="596" y="-1363.9" font-family="Arial" font-size="14.00" fill="#000000">id    </text>
<text text-anchor="start" x="641.094" y="-1363.9" font-family="Arial" font-size="14.00" fill="#666666">[bigint]</text>
<polygon fill="none" stroke="#000000" points="589,-1322.5 589,-1352.5 872,-1352.5 872,-1322.5 589,-1322.5"/>
<text text-anchor="start" x="596" y="-1333.9" font-family="Arial" font-size="14.00" fill="#000000">tenant_id    </text>
<text text-anchor="start" x="687.7882" y="-1333.9" font-family="Arial" font-size="14.00" fill="#666666">[bigint]</text>
<polygon fill="none" stroke="#000000" points="589,-1292.5 589,-1322.5 872,-1322.5 872,-1292.5 589,-1292.5"/>
<text text-anchor="start" x="596" y="-1303.9" font-family="Arial" font-size="14.00" fill="#000000">accounting_period_id    </text>
<text text-anchor="start" x="763.2496" y="-1303.9" font-family="Arial" font-size="14.00" fill="#666666">[bigint]</text>
<polygon fill="none" stroke="#000000" points="589,-1262.5 589,-1292.5 872,-1292.5 872,-1262.5 589,-1262.5"/>
<text text-anchor="start" x="596" y="-1273.9" font-family="Arial" font-size="14.00" fill="#000000">cohort_subscription_id    </text>
<text text-anchor="start" x="770.2356" y="-1273.9" font-family="Arial" font-size="14.00" fill="#666666">[bigint]</text>
<polygon fill="none" stroke="#000000" points="589,-1232.5 589,-1262.5 872,-1262.5 872,-1232.5 589,-1232.5"/>
<text text-anchor="start" x="596" y="-1243.9" font-family="Arial" font-size="14.00" fill="#000000">event_registration_id    </text>
<text text-anchor="start" x="760.1262" y="-1243.9" font-family="Arial" font-size="14.00" fill="#666666">[bigint]</text>
<polygon fill="none" stroke="#000000" points="589,-1202.5 589,-1232.5 872,-1232.5 872,-1202.5 589,-1202.5"/>
<text text-anchor="start" x="596" y="-1213.9" font-family="Arial" font-size="14.00" fill="#000000">event_instance_id    </text>
<text text-anchor="start" x="743.0252" y="-1213.9" font-family="Arial" font-size="14.00" fill="#666666">[bigint]</text>
<polygon fill="none" stroke="#000000" points="589,-1172.5 589,-1202.5 872,-1202.5 872,-1172.5 589,-1172.5"/>
<text text-anchor="start" x="596" y="-1183.9" font-family="Arial" font-size="14.00" fill="#000000">status    </text>
<text text-anchor="start" x="667.5512" y="-1183.9" font-family="Arial" font-size="14.00" fill="#666666">[payment_status]</text>
<polygon fill="none" stroke="#000000" points="589,-1142.5 589,-1172.5 872,-1172.5 872,-1142.5 589,-1142.5"/>
<text text-anchor="start" x="596" y="-1153.9" font-family="Arial" font-size="14.00" fill="#000000">variable_symbol    </text>
<text text-anchor="start" x="731.324" y="-1153.9" font-family="Arial" font-size="14.00" fill="#666666">[text]</text>
<polygon fill="none" stroke="#000000" points="589,-1112.5 589,-1142.5 872,-1142.5 872,-1112.5 589,-1112.5"/>
<text text-anchor="start" x="596" y="-1123.9" font-family="Arial" font-size="14.00" fill="#000000">specific_symbol    </text>
<text text-anchor="start" x="728.9888" y="-1123.9" font-family="Arial" font-size="14.00" fill="#666666">[text]</text>
<polygon fill="none" stroke="#000000" points="589,-1082.5 589,-1112.5 872,-1112.5 872,-1082.5 589,-1082.5"/>
<text text-anchor="start" x="596" y="-1093.9" font-family="Arial" font-size="14.00" fill="#000000">is_auto_credit_allowed    </text>
<text text-anchor="start" x="772.5708" y="-1093.9" font-family="Arial" font-size="14.00" fill="#666666">[boolean]</text>
<polygon fill="none" stroke="#000000" points="589,-1052.5 589,-1082.5 872,-1082.5 872,-1052.5 589,-1052.5"/>
<text text-anchor="start" x="596" y="-1063.9" font-family="Arial" font-size="14.00" fill="#000000">tags    </text>
<text text-anchor="start" x="656.6606" y="-1063.9" font-family="Arial" font-size="14.00" fill="#666666">[text[]]</text>
<polygon fill="none" stroke="#000000" points="589,-1022.5 589,-1052.5 872,-1052.5 872,-1022.5 589,-1022.5"/>
<text text-anchor="start" x="596" y="-1033.9" font-family="Arial" font-size="14.00" fill="#000000">due_at    </text>
<text text-anchor="start" x="673.0084" y="-1033.9" font-family="Arial" font-size="14.00" fill="#666666">[timestamp with time zone]</text>
<polygon fill="none" stroke="#000000" points="589,-992.5 589,-1022.5 872,-1022.5 872,-992.5 589,-992.5"/>
<text text-anchor="start" x="596" y="-1003.9" font-family="Arial" font-size="14.00" fill="#000000">paid_at    </text>
<text text-anchor="start" x="676.115" y="-1003.9" font-family="Arial" font-size="14.00" fill="#666666">[timestamp with time zone]</text>
<polygon fill="none" stroke="#000000" points="589,-962.5 589,-992.5 872,-992.5 872,-962.5 589,-962.5"/>
<text text-anchor="start" x="596" y="-973.9" font-family="Arial" font-size="14.00" fill="#000000">created_at    </text>
<text text-anchor="start" x="696.3422" y="-973.9" font-family="Arial" font-size="14.00" fill="#666666">[timestamp with time zone]</text>
<polygon fill="none" stroke="#000000" points="589,-932.5 589,-962.5 872,-962.5 872,-932.5 589,-932.5"/>
<text text-anchor="start" x="595.5344" y="-943.9" font-family="Arial" font-size="14.00" fill="#000000">updated_at    </text>
<text text-anchor="start" x="699.7812" y="-943.9" font-family="Arial" font-size="14.00" fill="#666666">[timestamp with time zone]</text>
</g>
<!-- public.payment&#45;&gt;public.cohort_subscription -->
<g id="edge1" class="edge">
<title>public.payment:cohort_subscription_id&#45;&gt;public.cohort_subscription:id</title>
<path fill="none" stroke="#000000" d="M578.9514,-1277.1685C356.5139,-1262.3772 327.8162,-757.5 556,-757.5"/>
<polygon fill="#000000" stroke="#000000" points="579.0054,-1277.1702 588.8516,-1281.9976 584.0027,-1277.3351 589,-1277.5 589,-1277.5 589,-1277.5 584.0027,-1277.3351 589.1484,-1273.0024 579.0054,-1277.1702 579.0054,-1277.1702"/>
<text text-anchor="start" x="7.48" y="-1287.5" font-family="Arial" font-size="10.00" fill="#000000">FOREIGN KEY (cohort_subscription_id) REFERENCES cohort_subscription(id) ON UPDATE CASCADE ON DELETE SET NULL</text>
</g>
</g>
</svg>
