<?xml version="1.0" encoding="UTF-8" standalone="no"?>
<!DOCTYPE svg PUBLIC "-//W3C//DTD SVG 1.1//EN"
 "http://www.w3.org/Graphics/SVG/1.1/DTD/svg11.dtd">
<!-- Generated by graphviz version 2.40.1 (20161225.0304)
 -->
<!-- Title: public.posting Pages: 1 -->
<svg width="1175pt" height="802pt"
 viewBox="0.00 0.00 1174.50 802.00" xmlns="http://www.w3.org/2000/svg" xmlns:xlink="http://www.w3.org/1999/xlink">
<g id="graph0" class="graph" transform="scale(1 1) rotate(0) translate(4 798)">
<title>public.posting</title>
<polygon fill="#ffffff" stroke="transparent" points="-4,4 -4,-798 1170.5,-798 1170.5,4 -4,4"/>
<!-- public.posting -->
<g id="node1" class="node">
<title>public.posting</title>
<polygon fill="#efefef" stroke="transparent" points="612.5,-712.5 612.5,-747.5 865.5,-747.5 865.5,-712.5 612.5,-712.5"/>
<polygon fill="none" stroke="#000000" points="612.5,-712.5 612.5,-747.5 865.5,-747.5 865.5,-712.5 612.5,-712.5"/>
<text text-anchor="start" x="620.2008" y="-725.3" font-family="Arial Bold" font-size="18.00" fill="#000000">public.posting</text>
<text text-anchor="start" x="730.2312" y="-725.3" font-family="Arial" font-size="14.00" fill="#000000">    </text>
<text text-anchor="start" x="764.436" y="-725.3" font-family="Arial" font-size="14.00" fill="#666666">[BASE TABLE]</text>
<polygon fill="none" stroke="#000000" points="612.5,-682.5 612.5,-712.5 865.5,-712.5 865.5,-682.5 612.5,-682.5"/>
<text text-anchor="start" x="619.5" y="-693.9" font-family="Arial" font-size="14.00" fill="#000000">id </text>
<text text-anchor="start" x="634.2798" y="-693.9" font-family="Arial" font-size="14.00" fill="#666666">[bigint]</text>
<polygon fill="none" stroke="#000000" points="612.5,-652.5 612.5,-682.5 865.5,-682.5 865.5,-652.5 612.5,-652.5"/>
<text text-anchor="start" x="619.5" y="-663.9" font-family="Arial" font-size="14.00" fill="#000000">tenant_id </text>
<text text-anchor="start" x="680.974" y="-663.9" font-family="Arial" font-size="14.00" fill="#666666">[bigint]</text>
<polygon fill="none" stroke="#000000" points="612.5,-622.5 612.5,-652.5 865.5,-652.5 865.5,-622.5 612.5,-622.5"/>
<text text-anchor="start" x="619.5" y="-633.9" font-family="Arial" font-size="14.00" fill="#000000">transaction_id </text>
<text text-anchor="start" x="710.5238" y="-633.9" font-family="Arial" font-size="14.00" fill="#666666">[bigint]</text>
<polygon fill="none" stroke="#000000" points="612.5,-592.5 612.5,-622.5 865.5,-622.5 865.5,-592.5 612.5,-592.5"/>
<text text-anchor="start" x="619.5" y="-603.9" font-family="Arial" font-size="14.00" fill="#000000">account_id </text>
<text text-anchor="start" x="691.0834" y="-603.9" font-family="Arial" font-size="14.00" fill="#666666">[bigint]</text>
<polygon fill="none" stroke="#000000" points="612.5,-562.5 612.5,-592.5 865.5,-592.5 865.5,-562.5 612.5,-562.5"/>
<text text-anchor="start" x="619.5" y="-573.9" font-family="Arial" font-size="14.00" fill="#000000">original_account_id </text>
<text text-anchor="start" x="743.9768" y="-573.9" font-family="Arial" font-size="14.00" fill="#666666">[bigint]</text>
<polygon fill="none" stroke="#000000" points="612.5,-532.5 612.5,-562.5 865.5,-562.5 865.5,-532.5 612.5,-532.5"/>
<text text-anchor="start" x="619.5" y="-543.9" font-family="Arial" font-size="14.00" fill="#000000">amount </text>
<text text-anchor="start" x="670.0722" y="-543.9" font-family="Arial" font-size="14.00" fill="#666666">[numeric(19,4)]</text>
<polygon fill="none" stroke="#000000" points="612.5,-502.5 612.5,-532.5 865.5,-532.5 865.5,-502.5 612.5,-502.5"/>
<text text-anchor="start" x="619.5" y="-513.9" font-family="Arial" font-size="14.00" fill="#000000">created_at </text>
<text text-anchor="start" x="689.528" y="-513.9" font-family="Arial" font-size="14.00" fill="#666666">[timestamp with time zone]</text>
<polygon fill="none" stroke="#000000" points="612.5,-472.5 612.5,-502.5 865.5,-502.5 865.5,-472.5 612.5,-472.5"/>
<text text-anchor="start" x="619.1915" y="-483.9" font-family="Arial" font-size="14.00" fill="#000000">updated_at </text>
<text text-anchor="start" x="693.1241" y="-483.9" font-family="Arial" font-size="14.00" fill="#666666">[timestamp with time zone]</text>
<polygon fill="none" stroke="#000000" stroke-width="3" points="610.5,-471.5 610.5,-749.5 866.5,-749.5 866.5,-471.5 610.5,-471.5"/>
</g>
<!-- public.tenant -->
<g id="node2" class="node">
<title>public.tenant</title>
<polygon fill="#efefef" stroke="transparent" points="43.5,-297.5 43.5,-332.5 286.5,-332.5 286.5,-297.5 43.5,-297.5"/>
<polygon fill="none" stroke="#000000" points="43.5,-297.5 43.5,-332.5 286.5,-332.5 286.5,-297.5 43.5,-297.5"/>
<text text-anchor="start" x="50.1968" y="-310.3" font-family="Arial Bold" font-size="18.00" fill="#000000">public.tenant</text>
<text text-anchor="start" x="152.2352" y="-310.3" font-family="Arial" font-size="14.00" fill="#000000">    </text>
<text text-anchor="start" x="186.44" y="-310.3" font-family="Arial" font-size="14.00" fill="#666666">[BASE TABLE]</text>
<polygon fill="none" stroke="#000000" points="43.5,-267.5 43.5,-297.5 286.5,-297.5 286.5,-267.5 43.5,-267.5"/>
<text text-anchor="start" x="50.5" y="-278.9" font-family="Arial" font-size="14.00" fill="#000000">id    </text>
<text text-anchor="start" x="95.594" y="-278.9" font-family="Arial" font-size="14.00" fill="#666666">[bigint]</text>
<polygon fill="none" stroke="#000000" points="43.5,-237.5 43.5,-267.5 286.5,-267.5 286.5,-237.5 43.5,-237.5"/>
<text text-anchor="start" x="50.5" y="-248.9" font-family="Arial" font-size="14.00" fill="#000000">name    </text>
<text text-anchor="start" x="119.7132" y="-248.9" font-family="Arial" font-size="14.00" fill="#666666">[text]</text>
<polygon fill="none" stroke="#000000" points="43.5,-207.5 43.5,-237.5 286.5,-237.5 286.5,-207.5 43.5,-207.5"/>
<text text-anchor="start" x="50.5" y="-218.9" font-family="Arial" font-size="14.00" fill="#000000">origins    </text>
<text text-anchor="start" x="125.9264" y="-218.9" font-family="Arial" font-size="14.00" fill="#666666">[text[]]</text>
<polygon fill="none" stroke="#000000" points="43.5,-177.5 43.5,-207.5 286.5,-207.5 286.5,-177.5 43.5,-177.5"/>
<text text-anchor="start" x="50.5" y="-188.9" font-family="Arial" font-size="14.00" fill="#000000">cz_ico    </text>
<text text-anchor="start" x="124.3766" y="-188.9" font-family="Arial" font-size="14.00" fill="#666666">[text]</text>
<polygon fill="none" stroke="#000000" points="43.5,-147.5 43.5,-177.5 286.5,-177.5 286.5,-147.5 43.5,-147.5"/>
<text text-anchor="start" x="50.5" y="-158.9" font-family="Arial" font-size="14.00" fill="#000000">cz_dic    </text>
<text text-anchor="start" x="124.3766" y="-158.9" font-family="Arial" font-size="14.00" fill="#666666">[text]</text>
<polygon fill="none" stroke="#000000" points="43.5,-117.5 43.5,-147.5 286.5,-147.5 286.5,-117.5 43.5,-117.5"/>
<text text-anchor="start" x="50.5" y="-128.9" font-family="Arial" font-size="14.00" fill="#000000">address    </text>
<text text-anchor="start" x="134.4958" y="-128.9" font-family="Arial" font-size="14.00" fill="#666666">[address_domain]</text>
<polygon fill="none" stroke="#000000" points="43.5,-87.5 43.5,-117.5 286.5,-117.5 286.5,-87.5 43.5,-87.5"/>
<text text-anchor="start" x="50.5" y="-98.9" font-family="Arial" font-size="14.00" fill="#000000">description    </text>
<text text-anchor="start" x="152.3822" y="-98.9" font-family="Arial" font-size="14.00" fill="#666666">[text]</text>
<polygon fill="none" stroke="#000000" points="43.5,-57.5 43.5,-87.5 286.5,-87.5 286.5,-57.5 43.5,-57.5"/>
<text text-anchor="start" x="50.5" y="-68.9" font-family="Arial" font-size="14.00" fill="#000000">bank_account    </text>
<text text-anchor="start" x="171.8562" y="-68.9" font-family="Arial" font-size="14.00" fill="#666666">[text]</text>
</g>
<!-- public.posting&#45;&gt;public.tenant -->
<g id="edge1" class="edge">
<title>public.posting:tenant_id&#45;&gt;public.tenant:id</title>
<path fill="none" stroke="#000000" d="M602.0503,-667.3313C439.0468,-661.9786 434.8978,-530.0473 337.5,-391 306.9301,-347.3578 339.7838,-282.5 286.5,-282.5"/>
<polygon fill="#000000" stroke="#000000" points="602.5013,-667.3385 612.4273,-671.9994 607.5007,-667.4193 612.5,-667.5 612.5,-667.5 612.5,-667.5 607.5007,-667.4193 612.5727,-663.0006 602.5013,-667.3385 602.5013,-667.3385"/>
<text text-anchor="start" x="148.5955" y="-677.5" font-family="Arial" font-size="10.00" fill="#000000">FOREIGN KEY (tenant_id) REFERENCES tenant(id) ON UPDATE CASCADE ON DELETE CASCADE</text>
</g>
<!-- public.transaction -->
<g id="node3" class="node">
<title>public.transaction</title>
<polygon fill="#efefef" stroke="transparent" points="390.5,-312.5 390.5,-347.5 691.5,-347.5 691.5,-312.5 390.5,-312.5"/>
<polygon fill="none" stroke="#000000" points="390.5,-312.5 390.5,-347.5 691.5,-347.5 691.5,-312.5 390.5,-312.5"/>
<text text-anchor="start" x="407.2005" y="-325.3" font-family="Arial Bold" font-size="18.00" fill="#000000">public.transaction</text>
<text text-anchor="start" x="547.2315" y="-325.3" font-family="Arial" font-size="14.00" fill="#000000">    </text>
<text text-anchor="start" x="581.4363" y="-325.3" font-family="Arial" font-size="14.00" fill="#666666">[BASE TABLE]</text>
<polygon fill="none" stroke="#000000" points="390.5,-282.5 390.5,-312.5 691.5,-312.5 691.5,-282.5 390.5,-282.5"/>
<text text-anchor="start" x="397.5" y="-293.9" font-family="Arial" font-size="14.00" fill="#000000">id    </text>
<text text-anchor="start" x="442.594" y="-293.9" font-family="Arial" font-size="14.00" fill="#666666">[bigint]</text>
<polygon fill="none" stroke="#000000" points="390.5,-252.5 390.5,-282.5 691.5,-282.5 691.5,-252.5 390.5,-252.5"/>
<text text-anchor="start" x="397.5" y="-263.9" font-family="Arial" font-size="14.00" fill="#000000">tenant_id    </text>
<text text-anchor="start" x="489.2882" y="-263.9" font-family="Arial" font-size="14.00" fill="#666666">[bigint]</text>
<polygon fill="none" stroke="#000000" points="390.5,-222.5 390.5,-252.5 691.5,-252.5 691.5,-222.5 390.5,-222.5"/>
<text text-anchor="start" x="397.5" y="-233.9" font-family="Arial" font-size="14.00" fill="#000000">accounting_period_id    </text>
<text text-anchor="start" x="564.7496" y="-233.9" font-family="Arial" font-size="14.00" fill="#666666">[bigint]</text>
<polygon fill="none" stroke="#000000" points="390.5,-192.5 390.5,-222.5 691.5,-222.5 691.5,-192.5 390.5,-192.5"/>
<text text-anchor="start" x="397.5" y="-203.9" font-family="Arial" font-size="14.00" fill="#000000">payment_id    </text>
<text text-anchor="start" x="504.0582" y="-203.9" font-family="Arial" font-size="14.00" fill="#666666">[bigint]</text>
<polygon fill="none" stroke="#000000" points="390.5,-162.5 390.5,-192.5 691.5,-192.5 691.5,-162.5 390.5,-162.5"/>
<text text-anchor="start" x="397.5" y="-173.9" font-family="Arial" font-size="14.00" fill="#000000">source    </text>
<text text-anchor="start" x="473.7132" y="-173.9" font-family="Arial" font-size="14.00" fill="#666666">[transaction_source]</text>
<polygon fill="none" stroke="#000000" points="390.5,-132.5 390.5,-162.5 691.5,-162.5 691.5,-132.5 390.5,-132.5"/>
<text text-anchor="start" x="397.5" y="-143.9" font-family="Arial" font-size="14.00" fill="#000000">created_at    </text>
<text text-anchor="start" x="497.8422" y="-143.9" font-family="Arial" font-size="14.00" fill="#666666">[timestamp with time zone]</text>
<polygon fill="none" stroke="#000000" points="390.5,-102.5 390.5,-132.5 691.5,-132.5 691.5,-102.5 390.5,-102.5"/>
<text text-anchor="start" x="397.5" y="-113.9" font-family="Arial" font-size="14.00" fill="#000000">updated_at    </text>
<text text-anchor="start" x="501.7468" y="-113.9" font-family="Arial" font-size="14.00" fill="#666666">[timestamp with time zone]</text>
<polygon fill="none" stroke="#000000" points="390.5,-72.5 390.5,-102.5 691.5,-102.5 691.5,-72.5 390.5,-72.5"/>
<text text-anchor="start" x="397.5" y="-83.9" font-family="Arial" font-size="14.00" fill="#000000">description    </text>
<text text-anchor="start" x="499.3822" y="-83.9" font-family="Arial" font-size="14.00" fill="#666666">[text]</text>
<polygon fill="none" stroke="#000000" points="390.5,-42.5 390.5,-72.5 691.5,-72.5 691.5,-42.5 390.5,-42.5"/>
<text text-anchor="start" x="397.4818" y="-53.9" font-family="Arial" font-size="14.00" fill="#000000">effective_date    </text>
<text text-anchor="start" x="518.8338" y="-53.9" font-family="Arial" font-size="14.00" fill="#666666">[timestamp with time zone]</text>
</g>
<!-- public.posting&#45;&gt;public.transaction -->
<g id="edge2" class="edge">
<title>public.posting:transaction_id&#45;&gt;public.transaction:id</title>
<path fill="none" stroke="#000000" d="M602.1536,-636.9076C522.3111,-627.2829 563.8649,-502.6097 612.5,-427 633.3738,-394.5489 670.6262,-423.4511 691.5,-391 713.9809,-356.0504 733.0556,-297.5 691.5,-297.5"/>
<polygon fill="#000000" stroke="#000000" points="602.5164,-636.9283 612.2427,-641.9926 607.5082,-637.2141 612.5,-637.5 612.5,-637.5 612.5,-637.5 607.5082,-637.2141 612.7573,-633.0074 602.5164,-636.9283 602.5164,-636.9283"/>
<text text-anchor="start" x="105.4885" y="-647.5" font-family="Arial" font-size="10.00" fill="#000000">FOREIGN KEY (transaction_id) REFERENCES transaction(id) ON UPDATE CASCADE ON DELETE CASCADE</text>
</g>
<!-- public.account -->
<g id="node4" class="node">
<title>public.account</title>
<polygon fill="#efefef" stroke="transparent" points="795.5,-282.5 795.5,-317.5 1078.5,-317.5 1078.5,-282.5 795.5,-282.5"/>
<polygon fill="none" stroke="#000000" points="795.5,-282.5 795.5,-317.5 1078.5,-317.5 1078.5,-282.5 795.5,-282.5"/>
<text text-anchor="start" x="815.6979" y="-295.3" font-family="Arial Bold" font-size="18.00" fill="#000000">public.account</text>
<text text-anchor="start" x="930.7341" y="-295.3" font-family="Arial" font-size="14.00" fill="#000000">    </text>
<text text-anchor="start" x="964.9389" y="-295.3" font-family="Arial" font-size="14.00" fill="#666666">[BASE TABLE]</text>
<polygon fill="none" stroke="#000000" points="795.5,-252.5 795.5,-282.5 1078.5,-282.5 1078.5,-252.5 795.5,-252.5"/>
<text text-anchor="start" x="802.5" y="-263.9" font-family="Arial" font-size="14.00" fill="#000000">id    </text>
<text text-anchor="start" x="847.594" y="-263.9" font-family="Arial" font-size="14.00" fill="#666666">[bigint]</text>
<polygon fill="none" stroke="#000000" points="795.5,-222.5 795.5,-252.5 1078.5,-252.5 1078.5,-222.5 795.5,-222.5"/>
<text text-anchor="start" x="802.5" y="-233.9" font-family="Arial" font-size="14.00" fill="#000000">tenant_id    </text>
<text text-anchor="start" x="894.2882" y="-233.9" font-family="Arial" font-size="14.00" fill="#666666">[bigint]</text>
<polygon fill="none" stroke="#000000" points="795.5,-192.5 795.5,-222.5 1078.5,-222.5 1078.5,-192.5 795.5,-192.5"/>
<text text-anchor="start" x="802.5" y="-203.9" font-family="Arial" font-size="14.00" fill="#000000">person_id    </text>
<text text-anchor="start" x="898.1676" y="-203.9" font-family="Arial" font-size="14.00" fill="#666666">[bigint]</text>
<polygon fill="none" stroke="#000000" points="795.5,-162.5 795.5,-192.5 1078.5,-192.5 1078.5,-162.5 795.5,-162.5"/>
<text text-anchor="start" x="802.5" y="-173.9" font-family="Arial" font-size="14.00" fill="#000000">opening_balance    </text>
<text text-anchor="start" x="943.3092" y="-173.9" font-family="Arial" font-size="14.00" fill="#666666">[numeric(19,4)]</text>
<polygon fill="none" stroke="#000000" points="795.5,-132.5 795.5,-162.5 1078.5,-162.5 1078.5,-132.5 795.5,-132.5"/>
<text text-anchor="start" x="802.5" y="-143.9" font-family="Arial" font-size="14.00" fill="#000000">currency    </text>
<text text-anchor="start" x="890.3738" y="-143.9" font-family="Arial" font-size="14.00" fill="#666666">[citext]</text>
<polygon fill="none" stroke="#000000" points="795.5,-102.5 795.5,-132.5 1078.5,-132.5 1078.5,-102.5 795.5,-102.5"/>
<text text-anchor="start" x="802.5" y="-113.9" font-family="Arial" font-size="14.00" fill="#000000">created_at    </text>
<text text-anchor="start" x="902.8422" y="-113.9" font-family="Arial" font-size="14.00" fill="#666666">[timestamp with time zone]</text>
<polygon fill="none" stroke="#000000" points="795.5,-72.5 795.5,-102.5 1078.5,-102.5 1078.5,-72.5 795.5,-72.5"/>
<text text-anchor="start" x="802.0344" y="-83.9" font-family="Arial" font-size="14.00" fill="#000000">updated_at    </text>
<text text-anchor="start" x="906.2812" y="-83.9" font-family="Arial" font-size="14.00" fill="#666666">[timestamp with time zone]</text>
</g>
<!-- public.posting&#45;&gt;public.account -->
<g id="edge3" class="edge">
<title>public.posting:account_id&#45;&gt;public.account:id</title>
<path fill="none" stroke="#000000" d="M875.8729,-607.3943C1147.9412,-601.7124 798.9251,-368.9369 795.5,-361 779.0347,-322.8456 753.9444,-267.5 795.5,-267.5"/>
<polygon fill="#000000" stroke="#000000" points="875.4995,-607.398 865.4541,-603.0002 870.4997,-607.449 865.5,-607.5 865.5,-607.5 865.5,-607.5 870.4997,-607.449 865.5459,-611.9998 875.4995,-607.398 875.4995,-607.398"/>
<text text-anchor="start" x="872.7665" y="-617.5" font-family="Arial" font-size="10.00" fill="#000000">FOREIGN KEY (account_id) REFERENCES account(id)</text>
</g>
<!-- public.posting&#45;&gt;public.account -->
<g id="edge4" class="edge">
<title>public.posting:original_account_id&#45;&gt;public.account:id</title>
<path fill="none" stroke="#000000" d="M875.565,-577.3758C1093.6486,-571.8308 804.7379,-382.4067 795.5,-361 779.0347,-322.8456 753.9444,-267.5 795.5,-267.5"/>
<polygon fill="#000000" stroke="#000000" points="875.4992,-577.3765 865.4444,-573.0003 870.4996,-577.4382 865.5,-577.5 865.5,-577.5 865.5,-577.5 870.4996,-577.4382 865.5556,-581.9997 875.4992,-577.3765 875.4992,-577.3765"/>
<text text-anchor="start" x="872.876" y="-587.5" font-family="Arial" font-size="10.00" fill="#000000">FOREIGN KEY (original_account_id) REFERENCES account(id)</text>
</g>
</g>
</svg>
