<?xml version="1.0" encoding="UTF-8" standalone="no"?>
<!DOCTYPE svg PUBLIC "-//W3C//DTD SVG 1.1//EN"
 "http://www.w3.org/Graphics/SVG/1.1/DTD/svg11.dtd">
<!-- Generated by graphviz version 2.40.1 (20161225.0304)
 -->
<!-- Title: public.hypopg_hidden_indexes Pages: 1 -->
<svg width="438pt" height="315pt"
 viewBox="0.00 0.00 438.00 315.00" xmlns="http://www.w3.org/2000/svg" xmlns:xlink="http://www.w3.org/1999/xlink">
<g id="graph0" class="graph" transform="scale(1 1) rotate(0) translate(4 311)">
<title>public.hypopg_hidden_indexes</title>
<polygon fill="#ffffff" stroke="transparent" points="-4,4 -4,-311 434,-311 434,4 -4,4"/>
<!-- public.hypopg_hidden_indexes -->
<g id="node1" class="node">
<title>public.hypopg_hidden_indexes</title>
<polygon fill="#efefef" stroke="transparent" points="46,-225.5 46,-260.5 384,-260.5 384,-225.5 46,-225.5"/>
<polygon fill="none" stroke="#000000" points="46,-225.5 46,-260.5 384,-260.5 384,-225.5 46,-225.5"/>
<text text-anchor="start" x="52.5694" y="-238.3" font-family="Arial Bold" font-size="18.00" fill="#000000">public.hypopg_hidden_indexes</text>
<text text-anchor="start" x="299.6662" y="-238.3" font-family="Arial" font-size="14.00" fill="#000000">    </text>
<text text-anchor="start" x="333.871" y="-238.3" font-family="Arial" font-size="14.00" fill="#666666">[VIEW]</text>
<polygon fill="none" stroke="#000000" points="46,-195.5 46,-225.5 384,-225.5 384,-195.5 46,-195.5"/>
<text text-anchor="start" x="53" y="-206.9" font-family="Arial" font-size="14.00" fill="#000000">indexrelid </text>
<text text-anchor="start" x="116.784" y="-206.9" font-family="Arial" font-size="14.00" fill="#666666">[oid]</text>
<polygon fill="none" stroke="#000000" points="46,-165.5 46,-195.5 384,-195.5 384,-165.5 46,-165.5"/>
<text text-anchor="start" x="53" y="-176.9" font-family="Arial" font-size="14.00" fill="#000000">index_name </text>
<text text-anchor="start" x="133.136" y="-176.9" font-family="Arial" font-size="14.00" fill="#666666">[name]</text>
<polygon fill="none" stroke="#000000" points="46,-135.5 46,-165.5 384,-165.5 384,-135.5 46,-135.5"/>
<text text-anchor="start" x="53" y="-146.9" font-family="Arial" font-size="14.00" fill="#000000">schema_name </text>
<text text-anchor="start" x="148.69" y="-146.9" font-family="Arial" font-size="14.00" fill="#666666">[name]</text>
<polygon fill="none" stroke="#000000" points="46,-105.5 46,-135.5 384,-135.5 384,-105.5 46,-105.5"/>
<text text-anchor="start" x="53" y="-116.9" font-family="Arial" font-size="14.00" fill="#000000">table_name </text>
<text text-anchor="start" x="130.0266" y="-116.9" font-family="Arial" font-size="14.00" fill="#666666">[name]</text>
<polygon fill="none" stroke="#000000" points="46,-75.5 46,-105.5 384,-105.5 384,-75.5 46,-75.5"/>
<text text-anchor="start" x="53" y="-86.9" font-family="Arial" font-size="14.00" fill="#000000">am_name </text>
<text text-anchor="start" x="119.1248" y="-86.9" font-family="Arial" font-size="14.00" fill="#666666">[name]</text>
<polygon fill="none" stroke="#000000" points="46,-45.5 46,-75.5 384,-75.5 384,-45.5 46,-45.5"/>
<text text-anchor="start" x="53" y="-56.9" font-family="Arial" font-size="14.00" fill="#000000">is_hypo </text>
<text text-anchor="start" x="105.1276" y="-56.9" font-family="Arial" font-size="14.00" fill="#666666">[boolean]</text>
<polygon fill="none" stroke="#000000" stroke-width="3" points="44.5,-44.5 44.5,-262.5 385.5,-262.5 385.5,-44.5 44.5,-44.5"/>
</g>
</g>
</svg>
