<?xml version="1.0" encoding="UTF-8" standalone="no"?>
<!DOCTYPE svg PUBLIC "-//W3C//DTD SVG 1.1//EN"
 "http://www.w3.org/Graphics/SVG/1.1/DTD/svg11.dtd">
<!-- Generated by graphviz version 2.40.1 (20161225.0304)
 -->
<!-- Title: public.tenant_attachment Pages: 1 -->
<svg width="1155pt" height="622pt"
 viewBox="0.00 0.00 1155.00 622.00" xmlns="http://www.w3.org/2000/svg" xmlns:xlink="http://www.w3.org/1999/xlink">
<g id="graph0" class="graph" transform="scale(1 1) rotate(0) translate(4 618)">
<title>public.tenant_attachment</title>
<polygon fill="#ffffff" stroke="transparent" points="-4,4 -4,-618 1151,-618 1151,4 -4,4"/>
<!-- public.tenant_attachment -->
<g id="node1" class="node">
<title>public.tenant_attachment</title>
<polygon fill="#efefef" stroke="transparent" points="359,-532.5 359,-567.5 701,-567.5 701,-532.5 359,-532.5"/>
<polygon fill="none" stroke="#000000" points="359,-532.5 359,-567.5 701,-567.5 701,-532.5 359,-532.5"/>
<text text-anchor="start" x="365.6788" y="-545.3" font-family="Arial Bold" font-size="18.00" fill="#000000">public.tenant_attachment</text>
<text text-anchor="start" x="566.7532" y="-545.3" font-family="Arial" font-size="14.00" fill="#000000">    </text>
<text text-anchor="start" x="600.958" y="-545.3" font-family="Arial" font-size="14.00" fill="#666666">[BASE TABLE]</text>
<polygon fill="none" stroke="#000000" points="359,-502.5 359,-532.5 701,-532.5 701,-502.5 359,-502.5"/>
<text text-anchor="start" x="366" y="-513.9" font-family="Arial" font-size="14.00" fill="#000000">tenant_id </text>
<text text-anchor="start" x="427.474" y="-513.9" font-family="Arial" font-size="14.00" fill="#666666">[bigint]</text>
<polygon fill="none" stroke="#000000" points="359,-472.5 359,-502.5 701,-502.5 701,-472.5 359,-472.5"/>
<text text-anchor="start" x="366" y="-483.9" font-family="Arial" font-size="14.00" fill="#000000">object_name </text>
<text text-anchor="start" x="450.0266" y="-483.9" font-family="Arial" font-size="14.00" fill="#666666">[text]</text>
<polygon fill="none" stroke="#000000" points="359,-442.5 359,-472.5 701,-472.5 701,-442.5 359,-442.5"/>
<text text-anchor="start" x="366" y="-453.9" font-family="Arial" font-size="14.00" fill="#000000">type </text>
<text text-anchor="start" x="396.3464" y="-453.9" font-family="Arial" font-size="14.00" fill="#666666">[tenant_attachment_type]</text>
<polygon fill="none" stroke="#000000" stroke-width="3" points="357.5,-441.5 357.5,-569.5 702.5,-569.5 702.5,-441.5 357.5,-441.5"/>
</g>
<!-- public.tenant -->
<g id="node2" class="node">
<title>public.tenant</title>
<polygon fill="#efefef" stroke="transparent" points="223,-282.5 223,-317.5 466,-317.5 466,-282.5 223,-282.5"/>
<polygon fill="none" stroke="#000000" points="223,-282.5 223,-317.5 466,-317.5 466,-282.5 223,-282.5"/>
<text text-anchor="start" x="229.6968" y="-295.3" font-family="Arial Bold" font-size="18.00" fill="#000000">public.tenant</text>
<text text-anchor="start" x="331.7352" y="-295.3" font-family="Arial" font-size="14.00" fill="#000000">    </text>
<text text-anchor="start" x="365.94" y="-295.3" font-family="Arial" font-size="14.00" fill="#666666">[BASE TABLE]</text>
<polygon fill="none" stroke="#000000" points="223,-252.5 223,-282.5 466,-282.5 466,-252.5 223,-252.5"/>
<text text-anchor="start" x="230" y="-263.9" font-family="Arial" font-size="14.00" fill="#000000">id    </text>
<text text-anchor="start" x="275.094" y="-263.9" font-family="Arial" font-size="14.00" fill="#666666">[bigint]</text>
<polygon fill="none" stroke="#000000" points="223,-222.5 223,-252.5 466,-252.5 466,-222.5 223,-222.5"/>
<text text-anchor="start" x="230" y="-233.9" font-family="Arial" font-size="14.00" fill="#000000">name    </text>
<text text-anchor="start" x="299.2132" y="-233.9" font-family="Arial" font-size="14.00" fill="#666666">[text]</text>
<polygon fill="none" stroke="#000000" points="223,-192.5 223,-222.5 466,-222.5 466,-192.5 223,-192.5"/>
<text text-anchor="start" x="230" y="-203.9" font-family="Arial" font-size="14.00" fill="#000000">origins    </text>
<text text-anchor="start" x="305.4264" y="-203.9" font-family="Arial" font-size="14.00" fill="#666666">[text[]]</text>
<polygon fill="none" stroke="#000000" points="223,-162.5 223,-192.5 466,-192.5 466,-162.5 223,-162.5"/>
<text text-anchor="start" x="230" y="-173.9" font-family="Arial" font-size="14.00" fill="#000000">cz_ico    </text>
<text text-anchor="start" x="303.8766" y="-173.9" font-family="Arial" font-size="14.00" fill="#666666">[text]</text>
<polygon fill="none" stroke="#000000" points="223,-132.5 223,-162.5 466,-162.5 466,-132.5 223,-132.5"/>
<text text-anchor="start" x="230" y="-143.9" font-family="Arial" font-size="14.00" fill="#000000">cz_dic    </text>
<text text-anchor="start" x="303.8766" y="-143.9" font-family="Arial" font-size="14.00" fill="#666666">[text]</text>
<polygon fill="none" stroke="#000000" points="223,-102.5 223,-132.5 466,-132.5 466,-102.5 223,-102.5"/>
<text text-anchor="start" x="230" y="-113.9" font-family="Arial" font-size="14.00" fill="#000000">address    </text>
<text text-anchor="start" x="313.9958" y="-113.9" font-family="Arial" font-size="14.00" fill="#666666">[address_domain]</text>
<polygon fill="none" stroke="#000000" points="223,-72.5 223,-102.5 466,-102.5 466,-72.5 223,-72.5"/>
<text text-anchor="start" x="230" y="-83.9" font-family="Arial" font-size="14.00" fill="#000000">description    </text>
<text text-anchor="start" x="331.8822" y="-83.9" font-family="Arial" font-size="14.00" fill="#666666">[text]</text>
<polygon fill="none" stroke="#000000" points="223,-42.5 223,-72.5 466,-72.5 466,-42.5 223,-42.5"/>
<text text-anchor="start" x="230" y="-53.9" font-family="Arial" font-size="14.00" fill="#000000">bank_account    </text>
<text text-anchor="start" x="351.3562" y="-53.9" font-family="Arial" font-size="14.00" fill="#666666">[text]</text>
</g>
<!-- public.tenant_attachment&#45;&gt;public.tenant -->
<g id="edge1" class="edge">
<title>public.tenant_attachment:tenant_id&#45;&gt;public.tenant:id</title>
<path fill="none" stroke="#000000" d="M348.805,-516.3962C308.6249,-506.8362 329.9439,-437.4324 359,-397 388.2808,-356.2549 436.7192,-401.7451 466,-361 490.2507,-327.2544 507.5556,-267.5 466,-267.5"/>
<polygon fill="#000000" stroke="#000000" points="349.0581,-516.4236 358.5156,-521.9739 354.029,-516.9618 359,-517.5 359,-517.5 359,-517.5 354.029,-516.9618 359.4844,-513.0261 349.0581,-516.4236 349.0581,-516.4236"/>
<text text-anchor="start" x="7.2065" y="-527.5" font-family="Arial" font-size="10.00" fill="#000000">FOREIGN KEY (tenant_id) REFERENCES tenant(id) ON DELETE CASCADE</text>
</g>
<!-- public.attachment -->
<g id="node3" class="node">
<title>public.attachment</title>
<polygon fill="#efefef" stroke="transparent" points="570,-267.5 570,-302.5 860,-302.5 860,-267.5 570,-267.5"/>
<polygon fill="none" stroke="#000000" points="570,-267.5 570,-302.5 860,-302.5 860,-267.5 570,-267.5"/>
<text text-anchor="start" x="580.6965" y="-280.3" font-family="Arial Bold" font-size="18.00" fill="#000000">public.attachment</text>
<text text-anchor="start" x="721.7355" y="-280.3" font-family="Arial" font-size="14.00" fill="#000000">    </text>
<text text-anchor="start" x="755.9403" y="-280.3" font-family="Arial" font-size="14.00" fill="#666666">[BASE TABLE]</text>
<polygon fill="none" stroke="#000000" points="570,-237.5 570,-267.5 860,-267.5 860,-237.5 570,-237.5"/>
<text text-anchor="start" x="577" y="-248.9" font-family="Arial" font-size="14.00" fill="#000000">object_name    </text>
<text text-anchor="start" x="691.3408" y="-248.9" font-family="Arial" font-size="14.00" fill="#666666">[text]</text>
<polygon fill="none" stroke="#000000" points="570,-207.5 570,-237.5 860,-237.5 860,-207.5 570,-207.5"/>
<text text-anchor="start" x="577" y="-218.9" font-family="Arial" font-size="14.00" fill="#000000">preview_object_name    </text>
<text text-anchor="start" x="747.345" y="-218.9" font-family="Arial" font-size="14.00" fill="#666666">[text]</text>
<polygon fill="none" stroke="#000000" points="570,-177.5 570,-207.5 860,-207.5 860,-177.5 570,-177.5"/>
<text text-anchor="start" x="577" y="-188.9" font-family="Arial" font-size="14.00" fill="#000000">uploaded_by    </text>
<text text-anchor="start" x="691.3548" y="-188.9" font-family="Arial" font-size="14.00" fill="#666666">[bigint]</text>
<polygon fill="none" stroke="#000000" points="570,-147.5 570,-177.5 860,-177.5 860,-147.5 570,-147.5"/>
<text text-anchor="start" x="576.5351" y="-158.9" font-family="Arial" font-size="14.00" fill="#000000">uploaded_at    </text>
<text text-anchor="start" x="687.7805" y="-158.9" font-family="Arial" font-size="14.00" fill="#666666">[timestamp with time zone]</text>
<polygon fill="none" stroke="#000000" points="570,-117.5 570,-147.5 860,-147.5 860,-117.5 570,-117.5"/>
<text text-anchor="start" x="577" y="-128.9" font-family="Arial" font-size="14.00" fill="#000000">thumbhash    </text>
<text text-anchor="start" x="680.4516" y="-128.9" font-family="Arial" font-size="14.00" fill="#666666">[text]</text>
<polygon fill="none" stroke="#000000" points="570,-87.5 570,-117.5 860,-117.5 860,-87.5 570,-87.5"/>
<text text-anchor="start" x="577" y="-98.9" font-family="Arial" font-size="14.00" fill="#000000">width    </text>
<text text-anchor="start" x="643.8738" y="-98.9" font-family="Arial" font-size="14.00" fill="#666666">[integer]</text>
<polygon fill="none" stroke="#000000" points="570,-57.5 570,-87.5 860,-87.5 860,-57.5 570,-57.5"/>
<text text-anchor="start" x="577" y="-68.9" font-family="Arial" font-size="14.00" fill="#000000">height    </text>
<text text-anchor="start" x="649.3324" y="-68.9" font-family="Arial" font-size="14.00" fill="#666666">[integer]</text>
</g>
<!-- public.tenant_attachment&#45;&gt;public.attachment -->
<g id="edge2" class="edge">
<title>public.tenant_attachment:object_name&#45;&gt;public.attachment:object_name</title>
<path fill="none" stroke="#000000" d="M711.1808,-485.9365C737.7511,-476.5388 721.4863,-426.9597 701,-397 665.7337,-345.4258 605.2663,-397.5742 570,-346 546.5439,-311.6973 528.4444,-252.5 570,-252.5"/>
<polygon fill="#000000" stroke="#000000" points="710.8841,-485.982 700.3169,-483.0521 705.9421,-486.741 701,-487.5 701,-487.5 701,-487.5 705.9421,-486.741 701.6831,-491.9479 710.8841,-485.982 710.8841,-485.982"/>
<text text-anchor="start" x="707.5875" y="-497.5" font-family="Arial" font-size="10.00" fill="#000000">FOREIGN KEY (object_name) REFERENCES attachment(object_name) ON DELETE CASCADE</text>
</g>
</g>
</svg>
