<?xml version="1.0" encoding="UTF-8" standalone="no"?>
<!DOCTYPE svg PUBLIC "-//W3C//DTD SVG 1.1//EN"
 "http://www.w3.org/Graphics/SVG/1.1/DTD/svg11.dtd">
<!-- Generated by graphviz version 2.40.1 (20161225.0304)
 -->
<!-- Title: public.cohort_group Pages: 1 -->
<svg width="940pt" height="1169pt"
 viewBox="0.00 0.00 940.00 1169.00" xmlns="http://www.w3.org/2000/svg" xmlns:xlink="http://www.w3.org/1999/xlink">
<g id="graph0" class="graph" transform="scale(1 1) rotate(0) translate(4 1165)">
<title>public.cohort_group</title>
<polygon fill="#ffffff" stroke="transparent" points="-4,4 -4,-1165 936,-1165 936,4 -4,4"/>
<!-- public.cohort_group -->
<g id="node1" class="node">
<title>public.cohort_group</title>
<polygon fill="#efefef" stroke="transparent" points="295,-622.5 295,-657.5 594,-657.5 594,-622.5 295,-622.5"/>
<polygon fill="none" stroke="#000000" points="295,-622.5 295,-657.5 594,-657.5 594,-622.5 295,-622.5"/>
<text text-anchor="start" x="301.6933" y="-635.3" font-family="Arial Bold" font-size="18.00" fill="#000000">public.cohort_group</text>
<text text-anchor="start" x="459.7387" y="-635.3" font-family="Arial" font-size="14.00" fill="#000000">    </text>
<text text-anchor="start" x="493.9435" y="-635.3" font-family="Arial" font-size="14.00" fill="#666666">[BASE TABLE]</text>
<polygon fill="none" stroke="#000000" points="295,-592.5 295,-622.5 594,-622.5 594,-592.5 295,-592.5"/>
<text text-anchor="start" x="302" y="-603.9" font-family="Arial" font-size="14.00" fill="#000000">id </text>
<text text-anchor="start" x="316.7798" y="-603.9" font-family="Arial" font-size="14.00" fill="#666666">[bigint]</text>
<polygon fill="none" stroke="#000000" points="295,-562.5 295,-592.5 594,-592.5 594,-562.5 295,-562.5"/>
<text text-anchor="start" x="302" y="-573.9" font-family="Arial" font-size="14.00" fill="#000000">name </text>
<text text-anchor="start" x="340.899" y="-573.9" font-family="Arial" font-size="14.00" fill="#666666">[text]</text>
<polygon fill="none" stroke="#000000" points="295,-532.5 295,-562.5 594,-562.5 594,-532.5 295,-532.5"/>
<text text-anchor="start" x="302" y="-543.9" font-family="Arial" font-size="14.00" fill="#000000">description </text>
<text text-anchor="start" x="373.568" y="-543.9" font-family="Arial" font-size="14.00" fill="#666666">[text]</text>
<polygon fill="none" stroke="#000000" points="295,-502.5 295,-532.5 594,-532.5 594,-502.5 295,-502.5"/>
<text text-anchor="start" x="302" y="-513.9" font-family="Arial" font-size="14.00" fill="#000000">ordering </text>
<text text-anchor="start" x="357.2314" y="-513.9" font-family="Arial" font-size="14.00" fill="#666666">[integer]</text>
<polygon fill="none" stroke="#000000" points="295,-472.5 295,-502.5 594,-502.5 594,-472.5 295,-472.5"/>
<text text-anchor="start" x="302" y="-483.9" font-family="Arial" font-size="14.00" fill="#000000">is_public </text>
<text text-anchor="start" x="360.3408" y="-483.9" font-family="Arial" font-size="14.00" fill="#666666">[boolean]</text>
<polygon fill="none" stroke="#000000" points="295,-442.5 295,-472.5 594,-472.5 594,-442.5 295,-442.5"/>
<text text-anchor="start" x="302" y="-453.9" font-family="Arial" font-size="14.00" fill="#000000">tenant_id </text>
<text text-anchor="start" x="363.474" y="-453.9" font-family="Arial" font-size="14.00" fill="#666666">[bigint]</text>
<polygon fill="none" stroke="#000000" stroke-width="3" points="293,-441.5 293,-659.5 595,-659.5 595,-441.5 293,-441.5"/>
</g>
<!-- public.tenant -->
<g id="node4" class="node">
<title>public.tenant</title>
<polygon fill="#efefef" stroke="transparent" points="323,-282.5 323,-317.5 566,-317.5 566,-282.5 323,-282.5"/>
<polygon fill="none" stroke="#000000" points="323,-282.5 323,-317.5 566,-317.5 566,-282.5 323,-282.5"/>
<text text-anchor="start" x="329.6968" y="-295.3" font-family="Arial Bold" font-size="18.00" fill="#000000">public.tenant</text>
<text text-anchor="start" x="431.7352" y="-295.3" font-family="Arial" font-size="14.00" fill="#000000">    </text>
<text text-anchor="start" x="465.94" y="-295.3" font-family="Arial" font-size="14.00" fill="#666666">[BASE TABLE]</text>
<polygon fill="none" stroke="#000000" points="323,-252.5 323,-282.5 566,-282.5 566,-252.5 323,-252.5"/>
<text text-anchor="start" x="330" y="-263.9" font-family="Arial" font-size="14.00" fill="#000000">id    </text>
<text text-anchor="start" x="375.094" y="-263.9" font-family="Arial" font-size="14.00" fill="#666666">[bigint]</text>
<polygon fill="none" stroke="#000000" points="323,-222.5 323,-252.5 566,-252.5 566,-222.5 323,-222.5"/>
<text text-anchor="start" x="330" y="-233.9" font-family="Arial" font-size="14.00" fill="#000000">name    </text>
<text text-anchor="start" x="399.2132" y="-233.9" font-family="Arial" font-size="14.00" fill="#666666">[text]</text>
<polygon fill="none" stroke="#000000" points="323,-192.5 323,-222.5 566,-222.5 566,-192.5 323,-192.5"/>
<text text-anchor="start" x="330" y="-203.9" font-family="Arial" font-size="14.00" fill="#000000">origins    </text>
<text text-anchor="start" x="405.4264" y="-203.9" font-family="Arial" font-size="14.00" fill="#666666">[text[]]</text>
<polygon fill="none" stroke="#000000" points="323,-162.5 323,-192.5 566,-192.5 566,-162.5 323,-162.5"/>
<text text-anchor="start" x="330" y="-173.9" font-family="Arial" font-size="14.00" fill="#000000">cz_ico    </text>
<text text-anchor="start" x="403.8766" y="-173.9" font-family="Arial" font-size="14.00" fill="#666666">[text]</text>
<polygon fill="none" stroke="#000000" points="323,-132.5 323,-162.5 566,-162.5 566,-132.5 323,-132.5"/>
<text text-anchor="start" x="330" y="-143.9" font-family="Arial" font-size="14.00" fill="#000000">cz_dic    </text>
<text text-anchor="start" x="403.8766" y="-143.9" font-family="Arial" font-size="14.00" fill="#666666">[text]</text>
<polygon fill="none" stroke="#000000" points="323,-102.5 323,-132.5 566,-132.5 566,-102.5 323,-102.5"/>
<text text-anchor="start" x="330" y="-113.9" font-family="Arial" font-size="14.00" fill="#000000">address    </text>
<text text-anchor="start" x="413.9958" y="-113.9" font-family="Arial" font-size="14.00" fill="#666666">[address_domain]</text>
<polygon fill="none" stroke="#000000" points="323,-72.5 323,-102.5 566,-102.5 566,-72.5 323,-72.5"/>
<text text-anchor="start" x="330" y="-83.9" font-family="Arial" font-size="14.00" fill="#000000">description    </text>
<text text-anchor="start" x="431.8822" y="-83.9" font-family="Arial" font-size="14.00" fill="#666666">[text]</text>
<polygon fill="none" stroke="#000000" points="323,-42.5 323,-72.5 566,-72.5 566,-42.5 323,-42.5"/>
<text text-anchor="start" x="330" y="-53.9" font-family="Arial" font-size="14.00" fill="#000000">bank_account    </text>
<text text-anchor="start" x="451.3562" y="-53.9" font-family="Arial" font-size="14.00" fill="#666666">[text]</text>
</g>
<!-- public.cohort_group&#45;&gt;public.tenant -->
<g id="edge3" class="edge">
<title>public.cohort_group:tenant_id&#45;&gt;public.tenant:id</title>
<path fill="none" stroke="#000000" d="M444.1493,-432.4067C434.8563,-381.6441 352.0006,-415.2497 323,-361 303.409,-324.3523 281.4444,-267.5 323,-267.5"/>
<polygon fill="#000000" stroke="#000000" points="444.16,-432.5353 440.5159,-442.878 444.58,-437.5177 445,-442.5 445,-442.5 445,-442.5 444.58,-437.5177 449.4841,-442.122 444.16,-432.5353 444.16,-432.5353"/>
<text text-anchor="start" x="452.2065" y="-452.5" font-family="Arial" font-size="10.00" fill="#000000">FOREIGN KEY (tenant_id) REFERENCES tenant(id) ON DELETE CASCADE</text>
</g>
<!-- app_private.skupiny -->
<g id="node2" class="node">
<title>app_private.skupiny</title>
<polygon fill="#efefef" stroke="transparent" points="106,-1082.5 106,-1117.5 407,-1117.5 407,-1082.5 106,-1082.5"/>
<polygon fill="none" stroke="#000000" points="106,-1082.5 106,-1117.5 407,-1117.5 407,-1082.5 106,-1082.5"/>
<text text-anchor="start" x="112.6925" y="-1095.3" font-family="Arial Bold" font-size="18.00" fill="#000000">app_private.skupiny</text>
<text text-anchor="start" x="272.7395" y="-1095.3" font-family="Arial" font-size="14.00" fill="#000000">    </text>
<text text-anchor="start" x="306.9443" y="-1095.3" font-family="Arial" font-size="14.00" fill="#666666">[BASE TABLE]</text>
<polygon fill="none" stroke="#000000" points="106,-1052.5 106,-1082.5 407,-1082.5 407,-1052.5 106,-1052.5"/>
<text text-anchor="start" x="113" y="-1063.9" font-family="Arial" font-size="14.00" fill="#000000">s_id    </text>
<text text-anchor="start" x="172.8766" y="-1063.9" font-family="Arial" font-size="14.00" fill="#666666">[bigint]</text>
<polygon fill="none" stroke="#000000" points="106,-1022.5 106,-1052.5 407,-1052.5 407,-1022.5 106,-1022.5"/>
<text text-anchor="start" x="113" y="-1033.9" font-family="Arial" font-size="14.00" fill="#000000">s_name    </text>
<text text-anchor="start" x="196.9958" y="-1033.9" font-family="Arial" font-size="14.00" fill="#666666">[text]</text>
<polygon fill="none" stroke="#000000" points="106,-992.5 106,-1022.5 407,-1022.5 407,-992.5 106,-992.5"/>
<text text-anchor="start" x="113" y="-1003.9" font-family="Arial" font-size="14.00" fill="#000000">s_description    </text>
<text text-anchor="start" x="229.6648" y="-1003.9" font-family="Arial" font-size="14.00" fill="#666666">[text]</text>
<polygon fill="none" stroke="#000000" points="106,-962.5 106,-992.5 407,-992.5 407,-962.5 106,-962.5"/>
<text text-anchor="start" x="113" y="-973.9" font-family="Arial" font-size="14.00" fill="#000000">s_color_rgb    </text>
<text text-anchor="start" x="220.3282" y="-973.9" font-family="Arial" font-size="14.00" fill="#666666">[text]</text>
<polygon fill="none" stroke="#000000" points="106,-932.5 106,-962.5 407,-962.5 407,-932.5 106,-932.5"/>
<text text-anchor="start" x="113" y="-943.9" font-family="Arial" font-size="14.00" fill="#000000">s_location    </text>
<text text-anchor="start" x="210.2216" y="-943.9" font-family="Arial" font-size="14.00" fill="#666666">[text]</text>
<polygon fill="none" stroke="#000000" points="106,-902.5 106,-932.5 407,-932.5 407,-902.5 106,-902.5"/>
<text text-anchor="start" x="113" y="-913.9" font-family="Arial" font-size="14.00" fill="#000000">s_visible    </text>
<text text-anchor="start" x="200.8724" y="-913.9" font-family="Arial" font-size="14.00" fill="#666666">[boolean]</text>
<polygon fill="none" stroke="#000000" points="106,-872.5 106,-902.5 407,-902.5 407,-872.5 106,-872.5"/>
<text text-anchor="start" x="113" y="-883.9" font-family="Arial" font-size="14.00" fill="#000000">ordering    </text>
<text text-anchor="start" x="198.5456" y="-883.9" font-family="Arial" font-size="14.00" fill="#666666">[integer]</text>
<polygon fill="none" stroke="#000000" points="106,-842.5 106,-872.5 407,-872.5 407,-842.5 106,-842.5"/>
<text text-anchor="start" x="113" y="-853.9" font-family="Arial" font-size="14.00" fill="#000000">cohort_group    </text>
<text text-anchor="start" x="229.6774" y="-853.9" font-family="Arial" font-size="14.00" fill="#666666">[bigint]</text>
<polygon fill="none" stroke="#000000" points="106,-812.5 106,-842.5 407,-842.5 407,-812.5 106,-812.5"/>
<text text-anchor="start" x="113" y="-823.9" font-family="Arial" font-size="14.00" fill="#000000">id    </text>
<text text-anchor="start" x="158.094" y="-823.9" font-family="Arial" font-size="14.00" fill="#666666">[bigint]</text>
<polygon fill="none" stroke="#000000" points="106,-782.5 106,-812.5 407,-812.5 407,-782.5 106,-782.5"/>
<text text-anchor="start" x="113" y="-793.9" font-family="Arial" font-size="14.00" fill="#000000">tenant_id    </text>
<text text-anchor="start" x="204.7882" y="-793.9" font-family="Arial" font-size="14.00" fill="#666666">[bigint]</text>
</g>
<!-- app_private.skupiny&#45;&gt;public.cohort_group -->
<g id="edge1" class="edge">
<title>app_private.skupiny:cohort_group&#45;&gt;public.cohort_group:id</title>
<path fill="none" stroke="#000000" d="M416.9452,-856.4209C456.1584,-847.0746 435.5992,-779.2329 407,-740 376.2002,-697.7484 325.7998,-746.2516 295,-704 269.7357,-669.342 252.1111,-607.5 295,-607.5"/>
<polygon fill="#000000" stroke="#000000" points="416.9416,-856.4212 406.5145,-853.0263 411.9708,-856.9606 407,-857.5 407,-857.5 407,-857.5 411.9708,-856.9606 407.4855,-861.9737 416.9416,-856.4212 416.9416,-856.4212"/>
<text text-anchor="start" x="7.0355" y="-867.5" font-family="Arial" font-size="10.00" fill="#000000">FOREIGN KEY (cohort_group) REFERENCES cohort_group(id) ON DELETE SET NULL</text>
</g>
<!-- public.cohort -->
<g id="node3" class="node">
<title>public.cohort</title>
<polygon fill="#efefef" stroke="transparent" points="511,-1067.5 511,-1102.5 754,-1102.5 754,-1067.5 511,-1067.5"/>
<polygon fill="none" stroke="#000000" points="511,-1067.5 511,-1102.5 754,-1102.5 754,-1067.5 511,-1067.5"/>
<text text-anchor="start" x="517.7049" y="-1080.3" font-family="Arial Bold" font-size="18.00" fill="#000000">public.cohort</text>
<text text-anchor="start" x="619.7271" y="-1080.3" font-family="Arial" font-size="14.00" fill="#000000">    </text>
<text text-anchor="start" x="653.9319" y="-1080.3" font-family="Arial" font-size="14.00" fill="#666666">[BASE TABLE]</text>
<polygon fill="none" stroke="#000000" points="511,-1037.5 511,-1067.5 754,-1067.5 754,-1037.5 511,-1037.5"/>
<text text-anchor="start" x="518" y="-1048.9" font-family="Arial" font-size="14.00" fill="#000000">id    </text>
<text text-anchor="start" x="563.094" y="-1048.9" font-family="Arial" font-size="14.00" fill="#666666">[bigint]</text>
<polygon fill="none" stroke="#000000" points="511,-1007.5 511,-1037.5 754,-1037.5 754,-1007.5 511,-1007.5"/>
<text text-anchor="start" x="518" y="-1018.9" font-family="Arial" font-size="14.00" fill="#000000">tenant_id    </text>
<text text-anchor="start" x="609.7882" y="-1018.9" font-family="Arial" font-size="14.00" fill="#666666">[bigint]</text>
<polygon fill="none" stroke="#000000" points="511,-977.5 511,-1007.5 754,-1007.5 754,-977.5 511,-977.5"/>
<text text-anchor="start" x="518" y="-988.9" font-family="Arial" font-size="14.00" fill="#000000">cohort_group_id    </text>
<text text-anchor="start" x="653.3492" y="-988.9" font-family="Arial" font-size="14.00" fill="#666666">[bigint]</text>
<polygon fill="none" stroke="#000000" points="511,-947.5 511,-977.5 754,-977.5 754,-947.5 511,-947.5"/>
<text text-anchor="start" x="518" y="-958.9" font-family="Arial" font-size="14.00" fill="#000000">name    </text>
<text text-anchor="start" x="587.2132" y="-958.9" font-family="Arial" font-size="14.00" fill="#666666">[text]</text>
<polygon fill="none" stroke="#000000" points="511,-917.5 511,-947.5 754,-947.5 754,-917.5 511,-917.5"/>
<text text-anchor="start" x="518" y="-928.9" font-family="Arial" font-size="14.00" fill="#000000">description    </text>
<text text-anchor="start" x="619.8822" y="-928.9" font-family="Arial" font-size="14.00" fill="#666666">[text]</text>
<polygon fill="none" stroke="#000000" points="511,-887.5 511,-917.5 754,-917.5 754,-887.5 511,-887.5"/>
<text text-anchor="start" x="518" y="-898.9" font-family="Arial" font-size="14.00" fill="#000000">color_rgb    </text>
<text text-anchor="start" x="610.5456" y="-898.9" font-family="Arial" font-size="14.00" fill="#666666">[text]</text>
<polygon fill="none" stroke="#000000" points="511,-857.5 511,-887.5 754,-887.5 754,-857.5 511,-857.5"/>
<text text-anchor="start" x="518" y="-868.9" font-family="Arial" font-size="14.00" fill="#000000">location    </text>
<text text-anchor="start" x="600.439" y="-868.9" font-family="Arial" font-size="14.00" fill="#666666">[text]</text>
<polygon fill="none" stroke="#000000" points="511,-827.5 511,-857.5 754,-857.5 754,-827.5 511,-827.5"/>
<text text-anchor="start" x="518" y="-838.9" font-family="Arial" font-size="14.00" fill="#000000">is_visible    </text>
<text text-anchor="start" x="608.979" y="-838.9" font-family="Arial" font-size="14.00" fill="#666666">[boolean]</text>
<polygon fill="none" stroke="#000000" points="511,-797.5 511,-827.5 754,-827.5 754,-797.5 511,-797.5"/>
<text text-anchor="start" x="518" y="-808.9" font-family="Arial" font-size="14.00" fill="#000000">ordering    </text>
<text text-anchor="start" x="603.5456" y="-808.9" font-family="Arial" font-size="14.00" fill="#666666">[integer]</text>
</g>
<!-- public.cohort&#45;&gt;public.cohort_group -->
<g id="edge2" class="edge">
<title>public.cohort:cohort_group_id&#45;&gt;public.cohort_group:id</title>
<path fill="none" stroke="#000000" d="M501.0225,-989.7778C462.0153,-966.298 487.0507,-797.825 511,-755 532.1327,-717.2114 572.8673,-741.7886 594,-704 614.9339,-666.567 636.8889,-607.5 594,-607.5"/>
<polygon fill="#000000" stroke="#000000" points="501.3526,-989.8678 509.8155,-996.8413 506.1763,-991.1839 511,-992.5 511,-992.5 511,-992.5 506.1763,-991.1839 512.1845,-988.1587 501.3526,-989.8678 501.3526,-989.8678"/>
<text text-anchor="start" x="518.367" y="-1002.5" font-family="Arial" font-size="10.00" fill="#000000">FOREIGN KEY (cohort_group_id) REFERENCES cohort_group(id) ON DELETE SET NULL</text>
</g>
</g>
</svg>
