<?xml version="1.0" encoding="UTF-8" standalone="no"?>
<!DOCTYPE svg PUBLIC "-//W3C//DTD SVG 1.1//EN"
 "http://www.w3.org/Graphics/SVG/1.1/DTD/svg11.dtd">
<!-- Generated by graphviz version 2.40.1 (20161225.0304)
 -->
<!-- Title: public.cohort_membership Pages: 1 -->
<svg width="1196pt" height="1162pt"
 viewBox="0.00 0.00 1196.00 1162.00" xmlns="http://www.w3.org/2000/svg" xmlns:xlink="http://www.w3.org/1999/xlink">
<g id="graph0" class="graph" transform="scale(1 1) rotate(0) translate(4 1158)">
<title>public.cohort_membership</title>
<polygon fill="#ffffff" stroke="transparent" points="-4,4 -4,-1158 1192,-1158 1192,4 -4,4"/>
<!-- public.cohort_membership -->
<g id="node1" class="node">
<title>public.cohort_membership</title>
<polygon fill="#efefef" stroke="transparent" points="477,-1072.5 477,-1107.5 829,-1107.5 829,-1072.5 477,-1072.5"/>
<polygon fill="none" stroke="#000000" points="477,-1072.5 477,-1107.5 829,-1107.5 829,-1072.5 477,-1072.5"/>
<text text-anchor="start" x="483.7009" y="-1085.3" font-family="Arial Bold" font-size="18.00" fill="#000000">public.cohort_membership</text>
<text text-anchor="start" x="694.7311" y="-1085.3" font-family="Arial" font-size="14.00" fill="#000000">    </text>
<text text-anchor="start" x="728.9359" y="-1085.3" font-family="Arial" font-size="14.00" fill="#666666">[BASE TABLE]</text>
<polygon fill="none" stroke="#000000" points="477,-1042.5 477,-1072.5 829,-1072.5 829,-1042.5 477,-1042.5"/>
<text text-anchor="start" x="484" y="-1053.9" font-family="Arial" font-size="14.00" fill="#000000">cohort_id </text>
<text text-anchor="start" x="545.4614" y="-1053.9" font-family="Arial" font-size="14.00" fill="#666666">[bigint]</text>
<polygon fill="none" stroke="#000000" points="477,-1012.5 477,-1042.5 829,-1042.5 829,-1012.5 477,-1012.5"/>
<text text-anchor="start" x="484" y="-1023.9" font-family="Arial" font-size="14.00" fill="#000000">person_id </text>
<text text-anchor="start" x="549.3534" y="-1023.9" font-family="Arial" font-size="14.00" fill="#666666">[bigint]</text>
<polygon fill="none" stroke="#000000" points="477,-982.5 477,-1012.5 829,-1012.5 829,-982.5 477,-982.5"/>
<text text-anchor="start" x="484" y="-993.9" font-family="Arial" font-size="14.00" fill="#000000">since </text>
<text text-anchor="start" x="520.5624" y="-993.9" font-family="Arial" font-size="14.00" fill="#666666">[timestamp with time zone]</text>
<polygon fill="none" stroke="#000000" points="477,-952.5 477,-982.5 829,-982.5 829,-952.5 477,-952.5"/>
<text text-anchor="start" x="484" y="-963.9" font-family="Arial" font-size="14.00" fill="#000000">until </text>
<text text-anchor="start" x="513.5596" y="-963.9" font-family="Arial" font-size="14.00" fill="#666666">[timestamp with time zone]</text>
<polygon fill="none" stroke="#000000" points="477,-922.5 477,-952.5 829,-952.5 829,-922.5 477,-922.5"/>
<text text-anchor="start" x="484" y="-933.9" font-family="Arial" font-size="14.00" fill="#000000">created_at </text>
<text text-anchor="start" x="554.028" y="-933.9" font-family="Arial" font-size="14.00" fill="#666666">[timestamp with time zone]</text>
<polygon fill="none" stroke="#000000" points="477,-892.5 477,-922.5 829,-922.5 829,-892.5 477,-892.5"/>
<text text-anchor="start" x="484" y="-903.9" font-family="Arial" font-size="14.00" fill="#000000">updated_at </text>
<text text-anchor="start" x="557.9326" y="-903.9" font-family="Arial" font-size="14.00" fill="#666666">[timestamp with time zone]</text>
<polygon fill="none" stroke="#000000" points="477,-862.5 477,-892.5 829,-892.5 829,-862.5 477,-862.5"/>
<text text-anchor="start" x="484" y="-873.9" font-family="Arial" font-size="14.00" fill="#000000">id </text>
<text text-anchor="start" x="498.7798" y="-873.9" font-family="Arial" font-size="14.00" fill="#666666">[bigint]</text>
<polygon fill="none" stroke="#000000" points="477,-832.5 477,-862.5 829,-862.5 829,-832.5 477,-832.5"/>
<text text-anchor="start" x="484" y="-843.9" font-family="Arial" font-size="14.00" fill="#000000">tenant_id </text>
<text text-anchor="start" x="545.474" y="-843.9" font-family="Arial" font-size="14.00" fill="#666666">[bigint]</text>
<polygon fill="none" stroke="#000000" points="477,-802.5 477,-832.5 829,-832.5 829,-802.5 477,-802.5"/>
<text text-anchor="start" x="484" y="-813.9" font-family="Arial" font-size="14.00" fill="#000000">active_range </text>
<text text-anchor="start" x="568.0266" y="-813.9" font-family="Arial" font-size="14.00" fill="#666666">[tstzrange]</text>
<polygon fill="none" stroke="#000000" points="477,-772.5 477,-802.5 829,-802.5 829,-772.5 477,-772.5"/>
<text text-anchor="start" x="484" y="-783.9" font-family="Arial" font-size="14.00" fill="#000000">status </text>
<text text-anchor="start" x="525.237" y="-783.9" font-family="Arial" font-size="14.00" fill="#666666">[relationship_status]</text>
<polygon fill="none" stroke="#000000" points="477,-742.5 477,-772.5 829,-772.5 829,-742.5 477,-742.5"/>
<text text-anchor="start" x="484" y="-753.9" font-family="Arial" font-size="14.00" fill="#000000">active </text>
<text text-anchor="start" x="524.453" y="-753.9" font-family="Arial" font-size="14.00" fill="#666666">[boolean]</text>
<polygon fill="none" stroke="#000000" stroke-width="3" points="475.5,-741.5 475.5,-1109.5 830.5,-1109.5 830.5,-741.5 475.5,-741.5"/>
</g>
<!-- public.cohort -->
<g id="node2" class="node">
<title>public.cohort</title>
<polygon fill="#efefef" stroke="transparent" points="164,-447.5 164,-482.5 407,-482.5 407,-447.5 164,-447.5"/>
<polygon fill="none" stroke="#000000" points="164,-447.5 164,-482.5 407,-482.5 407,-447.5 164,-447.5"/>
<text text-anchor="start" x="170.7049" y="-460.3" font-family="Arial Bold" font-size="18.00" fill="#000000">public.cohort</text>
<text text-anchor="start" x="272.7271" y="-460.3" font-family="Arial" font-size="14.00" fill="#000000">    </text>
<text text-anchor="start" x="306.9319" y="-460.3" font-family="Arial" font-size="14.00" fill="#666666">[BASE TABLE]</text>
<polygon fill="none" stroke="#000000" points="164,-417.5 164,-447.5 407,-447.5 407,-417.5 164,-417.5"/>
<text text-anchor="start" x="171" y="-428.9" font-family="Arial" font-size="14.00" fill="#000000">id    </text>
<text text-anchor="start" x="216.094" y="-428.9" font-family="Arial" font-size="14.00" fill="#666666">[bigint]</text>
<polygon fill="none" stroke="#000000" points="164,-387.5 164,-417.5 407,-417.5 407,-387.5 164,-387.5"/>
<text text-anchor="start" x="171" y="-398.9" font-family="Arial" font-size="14.00" fill="#000000">tenant_id    </text>
<text text-anchor="start" x="262.7882" y="-398.9" font-family="Arial" font-size="14.00" fill="#666666">[bigint]</text>
<polygon fill="none" stroke="#000000" points="164,-357.5 164,-387.5 407,-387.5 407,-357.5 164,-357.5"/>
<text text-anchor="start" x="171" y="-368.9" font-family="Arial" font-size="14.00" fill="#000000">cohort_group_id    </text>
<text text-anchor="start" x="306.3492" y="-368.9" font-family="Arial" font-size="14.00" fill="#666666">[bigint]</text>
<polygon fill="none" stroke="#000000" points="164,-327.5 164,-357.5 407,-357.5 407,-327.5 164,-327.5"/>
<text text-anchor="start" x="171" y="-338.9" font-family="Arial" font-size="14.00" fill="#000000">name    </text>
<text text-anchor="start" x="240.2132" y="-338.9" font-family="Arial" font-size="14.00" fill="#666666">[text]</text>
<polygon fill="none" stroke="#000000" points="164,-297.5 164,-327.5 407,-327.5 407,-297.5 164,-297.5"/>
<text text-anchor="start" x="171" y="-308.9" font-family="Arial" font-size="14.00" fill="#000000">description    </text>
<text text-anchor="start" x="272.8822" y="-308.9" font-family="Arial" font-size="14.00" fill="#666666">[text]</text>
<polygon fill="none" stroke="#000000" points="164,-267.5 164,-297.5 407,-297.5 407,-267.5 164,-267.5"/>
<text text-anchor="start" x="171" y="-278.9" font-family="Arial" font-size="14.00" fill="#000000">color_rgb    </text>
<text text-anchor="start" x="263.5456" y="-278.9" font-family="Arial" font-size="14.00" fill="#666666">[text]</text>
<polygon fill="none" stroke="#000000" points="164,-237.5 164,-267.5 407,-267.5 407,-237.5 164,-237.5"/>
<text text-anchor="start" x="171" y="-248.9" font-family="Arial" font-size="14.00" fill="#000000">location    </text>
<text text-anchor="start" x="253.439" y="-248.9" font-family="Arial" font-size="14.00" fill="#666666">[text]</text>
<polygon fill="none" stroke="#000000" points="164,-207.5 164,-237.5 407,-237.5 407,-207.5 164,-207.5"/>
<text text-anchor="start" x="171" y="-218.9" font-family="Arial" font-size="14.00" fill="#000000">is_visible    </text>
<text text-anchor="start" x="261.979" y="-218.9" font-family="Arial" font-size="14.00" fill="#666666">[boolean]</text>
<polygon fill="none" stroke="#000000" points="164,-177.5 164,-207.5 407,-207.5 407,-177.5 164,-177.5"/>
<text text-anchor="start" x="171" y="-188.9" font-family="Arial" font-size="14.00" fill="#000000">ordering    </text>
<text text-anchor="start" x="256.5456" y="-188.9" font-family="Arial" font-size="14.00" fill="#666666">[integer]</text>
</g>
<!-- public.cohort_membership&#45;&gt;public.cohort -->
<g id="edge1" class="edge">
<title>public.cohort_membership:cohort_id&#45;&gt;public.cohort:id</title>
<path fill="none" stroke="#000000" d="M467.0185,-1056.3117C347.657,-1026.1646 543.2088,-432.5 407,-432.5"/>
<polygon fill="#000000" stroke="#000000" points="467.0701,-1056.3177 476.468,-1061.9684 472.0351,-1056.9089 477,-1057.5 477,-1057.5 477,-1057.5 472.0351,-1056.9089 477.532,-1053.0316 467.0701,-1056.3177 467.0701,-1056.3177"/>
<text text-anchor="start" x="235.4965" y="-1067.5" font-family="Arial" font-size="10.00" fill="#000000">FOREIGN KEY (cohort_id) REFERENCES cohort(id)</text>
</g>
<!-- public.person -->
<g id="node3" class="node">
<title>public.person</title>
<polygon fill="#efefef" stroke="transparent" points="511,-582.5 511,-617.5 794,-617.5 794,-582.5 511,-582.5"/>
<polygon fill="none" stroke="#000000" points="511,-582.5 511,-617.5 794,-617.5 794,-582.5 511,-582.5"/>
<text text-anchor="start" x="535.2029" y="-595.3" font-family="Arial Bold" font-size="18.00" fill="#000000">public.person</text>
<text text-anchor="start" x="642.2291" y="-595.3" font-family="Arial" font-size="14.00" fill="#000000">    </text>
<text text-anchor="start" x="676.4339" y="-595.3" font-family="Arial" font-size="14.00" fill="#666666">[BASE TABLE]</text>
<polygon fill="none" stroke="#000000" points="511,-552.5 511,-582.5 794,-582.5 794,-552.5 511,-552.5"/>
<text text-anchor="start" x="518" y="-563.9" font-family="Arial" font-size="14.00" fill="#000000">id    </text>
<text text-anchor="start" x="563.094" y="-563.9" font-family="Arial" font-size="14.00" fill="#666666">[bigint]</text>
<polygon fill="none" stroke="#000000" points="511,-522.5 511,-552.5 794,-552.5 794,-522.5 511,-522.5"/>
<text text-anchor="start" x="518" y="-533.9" font-family="Arial" font-size="14.00" fill="#000000">first_name    </text>
<text text-anchor="start" x="617.5442" y="-533.9" font-family="Arial" font-size="14.00" fill="#666666">[text]</text>
<polygon fill="none" stroke="#000000" points="511,-492.5 511,-522.5 794,-522.5 794,-492.5 511,-492.5"/>
<text text-anchor="start" x="518" y="-503.9" font-family="Arial" font-size="14.00" fill="#000000">last_name    </text>
<text text-anchor="start" x="616.7756" y="-503.9" font-family="Arial" font-size="14.00" fill="#666666">[text]</text>
<polygon fill="none" stroke="#000000" points="511,-462.5 511,-492.5 794,-492.5 794,-462.5 511,-462.5"/>
<text text-anchor="start" x="518" y="-473.9" font-family="Arial" font-size="14.00" fill="#000000">gender    </text>
<text text-anchor="start" x="595.7784" y="-473.9" font-family="Arial" font-size="14.00" fill="#666666">[gender_type]</text>
<polygon fill="none" stroke="#000000" points="511,-432.5 511,-462.5 794,-462.5 794,-432.5 511,-432.5"/>
<text text-anchor="start" x="518" y="-443.9" font-family="Arial" font-size="14.00" fill="#000000">birth_date    </text>
<text text-anchor="start" x="614.4488" y="-443.9" font-family="Arial" font-size="14.00" fill="#666666">[date]</text>
<polygon fill="none" stroke="#000000" points="511,-402.5 511,-432.5 794,-432.5 794,-402.5 511,-402.5"/>
<text text-anchor="start" x="518" y="-413.9" font-family="Arial" font-size="14.00" fill="#000000">nationality    </text>
<text text-anchor="start" x="615.2188" y="-413.9" font-family="Arial" font-size="14.00" fill="#666666">[text]</text>
<polygon fill="none" stroke="#000000" points="511,-372.5 511,-402.5 794,-402.5 794,-372.5 511,-372.5"/>
<text text-anchor="start" x="518" y="-383.9" font-family="Arial" font-size="14.00" fill="#000000">tax_identification_number    </text>
<text text-anchor="start" x="711.6886" y="-383.9" font-family="Arial" font-size="14.00" fill="#666666">[text]</text>
<polygon fill="none" stroke="#000000" points="511,-342.5 511,-372.5 794,-372.5 794,-342.5 511,-342.5"/>
<text text-anchor="start" x="518" y="-353.9" font-family="Arial" font-size="14.00" fill="#000000">national_id_number    </text>
<text text-anchor="start" x="675.1276" y="-353.9" font-family="Arial" font-size="14.00" fill="#666666">[text]</text>
<polygon fill="none" stroke="#000000" points="511,-312.5 511,-342.5 794,-342.5 794,-312.5 511,-312.5"/>
<text text-anchor="start" x="518" y="-323.9" font-family="Arial" font-size="14.00" fill="#000000">csts_id    </text>
<text text-anchor="start" x="595.7672" y="-323.9" font-family="Arial" font-size="14.00" fill="#666666">[text]</text>
<polygon fill="none" stroke="#000000" points="511,-282.5 511,-312.5 794,-312.5 794,-282.5 511,-282.5"/>
<text text-anchor="start" x="518" y="-293.9" font-family="Arial" font-size="14.00" fill="#000000">wdsf_id    </text>
<text text-anchor="start" x="599.6564" y="-293.9" font-family="Arial" font-size="14.00" fill="#666666">[text]</text>
<polygon fill="none" stroke="#000000" points="511,-252.5 511,-282.5 794,-282.5 794,-252.5 511,-252.5"/>
<text text-anchor="start" x="518" y="-263.9" font-family="Arial" font-size="14.00" fill="#000000">created_at    </text>
<text text-anchor="start" x="618.3422" y="-263.9" font-family="Arial" font-size="14.00" fill="#666666">[timestamp with time zone]</text>
<polygon fill="none" stroke="#000000" points="511,-222.5 511,-252.5 794,-252.5 794,-222.5 511,-222.5"/>
<text text-anchor="start" x="517.5344" y="-233.9" font-family="Arial" font-size="14.00" fill="#000000">updated_at    </text>
<text text-anchor="start" x="621.7812" y="-233.9" font-family="Arial" font-size="14.00" fill="#666666">[timestamp with time zone]</text>
<polygon fill="none" stroke="#000000" points="511,-192.5 511,-222.5 794,-222.5 794,-192.5 511,-192.5"/>
<text text-anchor="start" x="518" y="-203.9" font-family="Arial" font-size="14.00" fill="#000000">legacy_user_id    </text>
<text text-anchor="start" x="646.3394" y="-203.9" font-family="Arial" font-size="14.00" fill="#666666">[bigint]</text>
<polygon fill="none" stroke="#000000" points="511,-162.5 511,-192.5 794,-192.5 794,-162.5 511,-162.5"/>
<text text-anchor="start" x="518" y="-173.9" font-family="Arial" font-size="14.00" fill="#000000">prefix_title    </text>
<text text-anchor="start" x="615.9874" y="-173.9" font-family="Arial" font-size="14.00" fill="#666666">[text]</text>
<polygon fill="none" stroke="#000000" points="511,-132.5 511,-162.5 794,-162.5 794,-132.5 511,-132.5"/>
<text text-anchor="start" x="518" y="-143.9" font-family="Arial" font-size="14.00" fill="#000000">suffix_title    </text>
<text text-anchor="start" x="614.4348" y="-143.9" font-family="Arial" font-size="14.00" fill="#666666">[text]</text>
<polygon fill="none" stroke="#000000" points="511,-102.5 511,-132.5 794,-132.5 794,-102.5 511,-102.5"/>
<text text-anchor="start" x="518" y="-113.9" font-family="Arial" font-size="14.00" fill="#000000">bio    </text>
<text text-anchor="start" x="570.8766" y="-113.9" font-family="Arial" font-size="14.00" fill="#666666">[text]</text>
<polygon fill="none" stroke="#000000" points="511,-72.5 511,-102.5 794,-102.5 794,-72.5 511,-72.5"/>
<text text-anchor="start" x="518" y="-83.9" font-family="Arial" font-size="14.00" fill="#000000">email    </text>
<text text-anchor="start" x="585.6438" y="-83.9" font-family="Arial" font-size="14.00" fill="#666666">[citext]</text>
<polygon fill="none" stroke="#000000" points="511,-42.5 511,-72.5 794,-72.5 794,-42.5 511,-42.5"/>
<text text-anchor="start" x="518" y="-53.9" font-family="Arial" font-size="14.00" fill="#000000">phone    </text>
<text text-anchor="start" x="591.1178" y="-53.9" font-family="Arial" font-size="14.00" fill="#666666">[text]</text>
</g>
<!-- public.cohort_membership&#45;&gt;public.person -->
<g id="edge2" class="edge">
<title>public.cohort_membership:person_id&#45;&gt;public.person:id</title>
<path fill="none" stroke="#000000" d="M466.9929,-1027.1402C332.4375,-1017.2051 381.4622,-804.0016 477,-697 571.4377,-591.2305 699.5623,-766.7695 794,-661 821.6768,-630.0022 835.5556,-567.5 794,-567.5"/>
<polygon fill="#000000" stroke="#000000" points="467.0065,-1027.1406 476.8383,-1031.9971 472.0032,-1027.3203 477,-1027.5 477,-1027.5 477,-1027.5 472.0032,-1027.3203 477.1617,-1023.0029 467.0065,-1027.1406 467.0065,-1027.1406"/>
<text text-anchor="start" x="7.3245" y="-1037.5" font-family="Arial" font-size="10.00" fill="#000000">FOREIGN KEY (person_id) REFERENCES person(id) ON UPDATE CASCADE ON DELETE CASCADE</text>
</g>
<!-- public.tenant -->
<g id="node4" class="node">
<title>public.tenant</title>
<polygon fill="#efefef" stroke="transparent" points="898,-432.5 898,-467.5 1141,-467.5 1141,-432.5 898,-432.5"/>
<polygon fill="none" stroke="#000000" points="898,-432.5 898,-467.5 1141,-467.5 1141,-432.5 898,-432.5"/>
<text text-anchor="start" x="904.6968" y="-445.3" font-family="Arial Bold" font-size="18.00" fill="#000000">public.tenant</text>
<text text-anchor="start" x="1006.7352" y="-445.3" font-family="Arial" font-size="14.00" fill="#000000">    </text>
<text text-anchor="start" x="1040.94" y="-445.3" font-family="Arial" font-size="14.00" fill="#666666">[BASE TABLE]</text>
<polygon fill="none" stroke="#000000" points="898,-402.5 898,-432.5 1141,-432.5 1141,-402.5 898,-402.5"/>
<text text-anchor="start" x="905" y="-413.9" font-family="Arial" font-size="14.00" fill="#000000">id    </text>
<text text-anchor="start" x="950.094" y="-413.9" font-family="Arial" font-size="14.00" fill="#666666">[bigint]</text>
<polygon fill="none" stroke="#000000" points="898,-372.5 898,-402.5 1141,-402.5 1141,-372.5 898,-372.5"/>
<text text-anchor="start" x="905" y="-383.9" font-family="Arial" font-size="14.00" fill="#000000">name    </text>
<text text-anchor="start" x="974.2132" y="-383.9" font-family="Arial" font-size="14.00" fill="#666666">[text]</text>
<polygon fill="none" stroke="#000000" points="898,-342.5 898,-372.5 1141,-372.5 1141,-342.5 898,-342.5"/>
<text text-anchor="start" x="905" y="-353.9" font-family="Arial" font-size="14.00" fill="#000000">origins    </text>
<text text-anchor="start" x="980.4264" y="-353.9" font-family="Arial" font-size="14.00" fill="#666666">[text[]]</text>
<polygon fill="none" stroke="#000000" points="898,-312.5 898,-342.5 1141,-342.5 1141,-312.5 898,-312.5"/>
<text text-anchor="start" x="905" y="-323.9" font-family="Arial" font-size="14.00" fill="#000000">cz_ico    </text>
<text text-anchor="start" x="978.8766" y="-323.9" font-family="Arial" font-size="14.00" fill="#666666">[text]</text>
<polygon fill="none" stroke="#000000" points="898,-282.5 898,-312.5 1141,-312.5 1141,-282.5 898,-282.5"/>
<text text-anchor="start" x="905" y="-293.9" font-family="Arial" font-size="14.00" fill="#000000">cz_dic    </text>
<text text-anchor="start" x="978.8766" y="-293.9" font-family="Arial" font-size="14.00" fill="#666666">[text]</text>
<polygon fill="none" stroke="#000000" points="898,-252.5 898,-282.5 1141,-282.5 1141,-252.5 898,-252.5"/>
<text text-anchor="start" x="905" y="-263.9" font-family="Arial" font-size="14.00" fill="#000000">address    </text>
<text text-anchor="start" x="988.9958" y="-263.9" font-family="Arial" font-size="14.00" fill="#666666">[address_domain]</text>
<polygon fill="none" stroke="#000000" points="898,-222.5 898,-252.5 1141,-252.5 1141,-222.5 898,-222.5"/>
<text text-anchor="start" x="905" y="-233.9" font-family="Arial" font-size="14.00" fill="#000000">description    </text>
<text text-anchor="start" x="1006.8822" y="-233.9" font-family="Arial" font-size="14.00" fill="#666666">[text]</text>
<polygon fill="none" stroke="#000000" points="898,-192.5 898,-222.5 1141,-222.5 1141,-192.5 898,-192.5"/>
<text text-anchor="start" x="905" y="-203.9" font-family="Arial" font-size="14.00" fill="#000000">bank_account    </text>
<text text-anchor="start" x="1026.3562" y="-203.9" font-family="Arial" font-size="14.00" fill="#666666">[text]</text>
</g>
<!-- public.cohort_membership&#45;&gt;public.tenant -->
<g id="edge3" class="edge">
<title>public.cohort_membership:tenant_id&#45;&gt;public.tenant:id</title>
<path fill="none" stroke="#000000" d="M838.8823,-845.7675C916.8384,-816.1781 804.8134,-417.5 898,-417.5"/>
<polygon fill="#000000" stroke="#000000" points="838.8498,-845.7731 828.2229,-843.0676 833.9249,-846.6366 829,-847.5 829,-847.5 829,-847.5 833.9249,-846.6366 829.7771,-851.9324 838.8498,-845.7731 838.8498,-845.7731"/>
<text text-anchor="start" x="836.2065" y="-857.5" font-family="Arial" font-size="10.00" fill="#000000">FOREIGN KEY (tenant_id) REFERENCES tenant(id) ON DELETE CASCADE</text>
</g>
</g>
</svg>
