<?xml version="1.0" encoding="UTF-8" standalone="no"?>
<!DOCTYPE svg PUBLIC "-//W3C//DTD SVG 1.1//EN"
 "http://www.w3.org/Graphics/SVG/1.1/DTD/svg11.dtd">
<!-- Generated by graphviz version 2.40.1 (20161225.0304)
 -->
<!-- Title: public.accounting_period Pages: 1 -->
<svg width="1052pt" height="1379pt"
 viewBox="0.00 0.00 1052.00 1379.00" xmlns="http://www.w3.org/2000/svg" xmlns:xlink="http://www.w3.org/1999/xlink">
<g id="graph0" class="graph" transform="scale(1 1) rotate(0) translate(4 1375)">
<title>public.accounting_period</title>
<polygon fill="#ffffff" stroke="transparent" points="-4,4 -4,-1375 1048,-1375 1048,4 -4,4"/>
<!-- public.accounting_period -->
<g id="node1" class="node">
<title>public.accounting_period</title>
<polygon fill="#efefef" stroke="transparent" points="471,-682.5 471,-717.5 811,-717.5 811,-682.5 471,-682.5"/>
<polygon fill="none" stroke="#000000" points="471,-682.5 471,-717.5 811,-717.5 811,-682.5 471,-682.5"/>
<text text-anchor="start" x="477.6859" y="-695.3" font-family="Arial Bold" font-size="18.00" fill="#000000">public.accounting_period</text>
<text text-anchor="start" x="676.7461" y="-695.3" font-family="Arial" font-size="14.00" fill="#000000">    </text>
<text text-anchor="start" x="710.9509" y="-695.3" font-family="Arial" font-size="14.00" fill="#666666">[BASE TABLE]</text>
<polygon fill="none" stroke="#000000" points="471,-652.5 471,-682.5 811,-682.5 811,-652.5 471,-652.5"/>
<text text-anchor="start" x="478" y="-663.9" font-family="Arial" font-size="14.00" fill="#000000">id </text>
<text text-anchor="start" x="492.7798" y="-663.9" font-family="Arial" font-size="14.00" fill="#666666">[bigint]</text>
<polygon fill="none" stroke="#000000" points="471,-622.5 471,-652.5 811,-652.5 811,-622.5 471,-622.5"/>
<text text-anchor="start" x="478" y="-633.9" font-family="Arial" font-size="14.00" fill="#000000">tenant_id </text>
<text text-anchor="start" x="539.474" y="-633.9" font-family="Arial" font-size="14.00" fill="#666666">[bigint]</text>
<polygon fill="none" stroke="#000000" points="471,-592.5 471,-622.5 811,-622.5 811,-592.5 471,-592.5"/>
<text text-anchor="start" x="478" y="-603.9" font-family="Arial" font-size="14.00" fill="#000000">name </text>
<text text-anchor="start" x="516.899" y="-603.9" font-family="Arial" font-size="14.00" fill="#666666">[text]</text>
<polygon fill="none" stroke="#000000" points="471,-562.5 471,-592.5 811,-592.5 811,-562.5 471,-562.5"/>
<text text-anchor="start" x="478" y="-573.9" font-family="Arial" font-size="14.00" fill="#000000">since </text>
<text text-anchor="start" x="514.5624" y="-573.9" font-family="Arial" font-size="14.00" fill="#666666">[timestamp with time zone]</text>
<polygon fill="none" stroke="#000000" points="471,-532.5 471,-562.5 811,-562.5 811,-532.5 471,-532.5"/>
<text text-anchor="start" x="478" y="-543.9" font-family="Arial" font-size="14.00" fill="#000000">until </text>
<text text-anchor="start" x="507.5596" y="-543.9" font-family="Arial" font-size="14.00" fill="#666666">[timestamp with time zone]</text>
<polygon fill="none" stroke="#000000" points="471,-502.5 471,-532.5 811,-532.5 811,-502.5 471,-502.5"/>
<text text-anchor="start" x="478" y="-513.9" font-family="Arial" font-size="14.00" fill="#000000">range </text>
<text text-anchor="start" x="517.6816" y="-513.9" font-family="Arial" font-size="14.00" fill="#666666">[tstzrange]</text>
<polygon fill="none" stroke="#000000" points="471,-472.5 471,-502.5 811,-502.5 811,-472.5 471,-472.5"/>
<text text-anchor="start" x="478" y="-483.9" font-family="Arial" font-size="14.00" fill="#000000">created_at </text>
<text text-anchor="start" x="548.028" y="-483.9" font-family="Arial" font-size="14.00" fill="#666666">[timestamp with time zone]</text>
<polygon fill="none" stroke="#000000" points="471,-442.5 471,-472.5 811,-472.5 811,-442.5 471,-442.5"/>
<text text-anchor="start" x="478" y="-453.9" font-family="Arial" font-size="14.00" fill="#000000">updated_at </text>
<text text-anchor="start" x="551.9326" y="-453.9" font-family="Arial" font-size="14.00" fill="#666666">[timestamp with time zone]</text>
<polygon fill="none" stroke="#000000" stroke-width="3" points="469.5,-441.5 469.5,-719.5 812.5,-719.5 812.5,-441.5 469.5,-441.5"/>
</g>
<!-- public.tenant -->
<g id="node4" class="node">
<title>public.tenant</title>
<polygon fill="#efefef" stroke="transparent" points="519,-282.5 519,-317.5 762,-317.5 762,-282.5 519,-282.5"/>
<polygon fill="none" stroke="#000000" points="519,-282.5 519,-317.5 762,-317.5 762,-282.5 519,-282.5"/>
<text text-anchor="start" x="525.6968" y="-295.3" font-family="Arial Bold" font-size="18.00" fill="#000000">public.tenant</text>
<text text-anchor="start" x="627.7352" y="-295.3" font-family="Arial" font-size="14.00" fill="#000000">    </text>
<text text-anchor="start" x="661.94" y="-295.3" font-family="Arial" font-size="14.00" fill="#666666">[BASE TABLE]</text>
<polygon fill="none" stroke="#000000" points="519,-252.5 519,-282.5 762,-282.5 762,-252.5 519,-252.5"/>
<text text-anchor="start" x="526" y="-263.9" font-family="Arial" font-size="14.00" fill="#000000">id    </text>
<text text-anchor="start" x="571.094" y="-263.9" font-family="Arial" font-size="14.00" fill="#666666">[bigint]</text>
<polygon fill="none" stroke="#000000" points="519,-222.5 519,-252.5 762,-252.5 762,-222.5 519,-222.5"/>
<text text-anchor="start" x="526" y="-233.9" font-family="Arial" font-size="14.00" fill="#000000">name    </text>
<text text-anchor="start" x="595.2132" y="-233.9" font-family="Arial" font-size="14.00" fill="#666666">[text]</text>
<polygon fill="none" stroke="#000000" points="519,-192.5 519,-222.5 762,-222.5 762,-192.5 519,-192.5"/>
<text text-anchor="start" x="526" y="-203.9" font-family="Arial" font-size="14.00" fill="#000000">origins    </text>
<text text-anchor="start" x="601.4264" y="-203.9" font-family="Arial" font-size="14.00" fill="#666666">[text[]]</text>
<polygon fill="none" stroke="#000000" points="519,-162.5 519,-192.5 762,-192.5 762,-162.5 519,-162.5"/>
<text text-anchor="start" x="526" y="-173.9" font-family="Arial" font-size="14.00" fill="#000000">cz_ico    </text>
<text text-anchor="start" x="599.8766" y="-173.9" font-family="Arial" font-size="14.00" fill="#666666">[text]</text>
<polygon fill="none" stroke="#000000" points="519,-132.5 519,-162.5 762,-162.5 762,-132.5 519,-132.5"/>
<text text-anchor="start" x="526" y="-143.9" font-family="Arial" font-size="14.00" fill="#000000">cz_dic    </text>
<text text-anchor="start" x="599.8766" y="-143.9" font-family="Arial" font-size="14.00" fill="#666666">[text]</text>
<polygon fill="none" stroke="#000000" points="519,-102.5 519,-132.5 762,-132.5 762,-102.5 519,-102.5"/>
<text text-anchor="start" x="526" y="-113.9" font-family="Arial" font-size="14.00" fill="#000000">address    </text>
<text text-anchor="start" x="609.9958" y="-113.9" font-family="Arial" font-size="14.00" fill="#666666">[address_domain]</text>
<polygon fill="none" stroke="#000000" points="519,-72.5 519,-102.5 762,-102.5 762,-72.5 519,-72.5"/>
<text text-anchor="start" x="526" y="-83.9" font-family="Arial" font-size="14.00" fill="#000000">description    </text>
<text text-anchor="start" x="627.8822" y="-83.9" font-family="Arial" font-size="14.00" fill="#666666">[text]</text>
<polygon fill="none" stroke="#000000" points="519,-42.5 519,-72.5 762,-72.5 762,-42.5 519,-42.5"/>
<text text-anchor="start" x="526" y="-53.9" font-family="Arial" font-size="14.00" fill="#000000">bank_account    </text>
<text text-anchor="start" x="647.3562" y="-53.9" font-family="Arial" font-size="14.00" fill="#666666">[text]</text>
</g>
<!-- public.accounting_period&#45;&gt;public.tenant -->
<g id="edge3" class="edge">
<title>public.accounting_period:tenant_id&#45;&gt;public.tenant:id</title>
<path fill="none" stroke="#000000" d="M460.8218,-636.9783C366.5465,-626.9362 402.5603,-474.4282 471,-397 557.3076,-299.3572 675.6924,-458.6428 762,-361 789.5213,-329.8642 803.5556,-267.5 762,-267.5"/>
<polygon fill="#000000" stroke="#000000" points="461.0131,-636.988 470.7696,-641.9941 466.0066,-637.244 471,-637.5 471,-637.5 471,-637.5 466.0066,-637.244 471.2304,-633.0059 461.0131,-636.988 461.0131,-636.988"/>
<text text-anchor="start" x="7.0955" y="-647.5" font-family="Arial" font-size="10.00" fill="#000000">FOREIGN KEY (tenant_id) REFERENCES tenant(id) ON UPDATE CASCADE ON DELETE CASCADE</text>
</g>
<!-- public.payment -->
<g id="node2" class="node">
<title>public.payment</title>
<polygon fill="#efefef" stroke="transparent" points="301,-1292.5 301,-1327.5 584,-1327.5 584,-1292.5 301,-1292.5"/>
<polygon fill="none" stroke="#000000" points="301,-1292.5 301,-1327.5 584,-1327.5 584,-1292.5 301,-1292.5"/>
<text text-anchor="start" x="318.2018" y="-1305.3" font-family="Arial Bold" font-size="18.00" fill="#000000">public.payment</text>
<text text-anchor="start" x="439.2302" y="-1305.3" font-family="Arial" font-size="14.00" fill="#000000">    </text>
<text text-anchor="start" x="473.435" y="-1305.3" font-family="Arial" font-size="14.00" fill="#666666">[BASE TABLE]</text>
<polygon fill="none" stroke="#000000" points="301,-1262.5 301,-1292.5 584,-1292.5 584,-1262.5 301,-1262.5"/>
<text text-anchor="start" x="308" y="-1273.9" font-family="Arial" font-size="14.00" fill="#000000">id    </text>
<text text-anchor="start" x="353.094" y="-1273.9" font-family="Arial" font-size="14.00" fill="#666666">[bigint]</text>
<polygon fill="none" stroke="#000000" points="301,-1232.5 301,-1262.5 584,-1262.5 584,-1232.5 301,-1232.5"/>
<text text-anchor="start" x="308" y="-1243.9" font-family="Arial" font-size="14.00" fill="#000000">tenant_id    </text>
<text text-anchor="start" x="399.7882" y="-1243.9" font-family="Arial" font-size="14.00" fill="#666666">[bigint]</text>
<polygon fill="none" stroke="#000000" points="301,-1202.5 301,-1232.5 584,-1232.5 584,-1202.5 301,-1202.5"/>
<text text-anchor="start" x="308" y="-1213.9" font-family="Arial" font-size="14.00" fill="#000000">accounting_period_id    </text>
<text text-anchor="start" x="475.2496" y="-1213.9" font-family="Arial" font-size="14.00" fill="#666666">[bigint]</text>
<polygon fill="none" stroke="#000000" points="301,-1172.5 301,-1202.5 584,-1202.5 584,-1172.5 301,-1172.5"/>
<text text-anchor="start" x="308" y="-1183.9" font-family="Arial" font-size="14.00" fill="#000000">cohort_subscription_id    </text>
<text text-anchor="start" x="482.2356" y="-1183.9" font-family="Arial" font-size="14.00" fill="#666666">[bigint]</text>
<polygon fill="none" stroke="#000000" points="301,-1142.5 301,-1172.5 584,-1172.5 584,-1142.5 301,-1142.5"/>
<text text-anchor="start" x="308" y="-1153.9" font-family="Arial" font-size="14.00" fill="#000000">event_registration_id    </text>
<text text-anchor="start" x="472.1262" y="-1153.9" font-family="Arial" font-size="14.00" fill="#666666">[bigint]</text>
<polygon fill="none" stroke="#000000" points="301,-1112.5 301,-1142.5 584,-1142.5 584,-1112.5 301,-1112.5"/>
<text text-anchor="start" x="308" y="-1123.9" font-family="Arial" font-size="14.00" fill="#000000">event_instance_id    </text>
<text text-anchor="start" x="455.0252" y="-1123.9" font-family="Arial" font-size="14.00" fill="#666666">[bigint]</text>
<polygon fill="none" stroke="#000000" points="301,-1082.5 301,-1112.5 584,-1112.5 584,-1082.5 301,-1082.5"/>
<text text-anchor="start" x="308" y="-1093.9" font-family="Arial" font-size="14.00" fill="#000000">status    </text>
<text text-anchor="start" x="379.5512" y="-1093.9" font-family="Arial" font-size="14.00" fill="#666666">[payment_status]</text>
<polygon fill="none" stroke="#000000" points="301,-1052.5 301,-1082.5 584,-1082.5 584,-1052.5 301,-1052.5"/>
<text text-anchor="start" x="308" y="-1063.9" font-family="Arial" font-size="14.00" fill="#000000">variable_symbol    </text>
<text text-anchor="start" x="443.324" y="-1063.9" font-family="Arial" font-size="14.00" fill="#666666">[text]</text>
<polygon fill="none" stroke="#000000" points="301,-1022.5 301,-1052.5 584,-1052.5 584,-1022.5 301,-1022.5"/>
<text text-anchor="start" x="308" y="-1033.9" font-family="Arial" font-size="14.00" fill="#000000">specific_symbol    </text>
<text text-anchor="start" x="440.9888" y="-1033.9" font-family="Arial" font-size="14.00" fill="#666666">[text]</text>
<polygon fill="none" stroke="#000000" points="301,-992.5 301,-1022.5 584,-1022.5 584,-992.5 301,-992.5"/>
<text text-anchor="start" x="308" y="-1003.9" font-family="Arial" font-size="14.00" fill="#000000">is_auto_credit_allowed    </text>
<text text-anchor="start" x="484.5708" y="-1003.9" font-family="Arial" font-size="14.00" fill="#666666">[boolean]</text>
<polygon fill="none" stroke="#000000" points="301,-962.5 301,-992.5 584,-992.5 584,-962.5 301,-962.5"/>
<text text-anchor="start" x="308" y="-973.9" font-family="Arial" font-size="14.00" fill="#000000">tags    </text>
<text text-anchor="start" x="368.6606" y="-973.9" font-family="Arial" font-size="14.00" fill="#666666">[text[]]</text>
<polygon fill="none" stroke="#000000" points="301,-932.5 301,-962.5 584,-962.5 584,-932.5 301,-932.5"/>
<text text-anchor="start" x="308" y="-943.9" font-family="Arial" font-size="14.00" fill="#000000">due_at    </text>
<text text-anchor="start" x="385.0084" y="-943.9" font-family="Arial" font-size="14.00" fill="#666666">[timestamp with time zone]</text>
<polygon fill="none" stroke="#000000" points="301,-902.5 301,-932.5 584,-932.5 584,-902.5 301,-902.5"/>
<text text-anchor="start" x="308" y="-913.9" font-family="Arial" font-size="14.00" fill="#000000">paid_at    </text>
<text text-anchor="start" x="388.115" y="-913.9" font-family="Arial" font-size="14.00" fill="#666666">[timestamp with time zone]</text>
<polygon fill="none" stroke="#000000" points="301,-872.5 301,-902.5 584,-902.5 584,-872.5 301,-872.5"/>
<text text-anchor="start" x="308" y="-883.9" font-family="Arial" font-size="14.00" fill="#000000">created_at    </text>
<text text-anchor="start" x="408.3422" y="-883.9" font-family="Arial" font-size="14.00" fill="#666666">[timestamp with time zone]</text>
<polygon fill="none" stroke="#000000" points="301,-842.5 301,-872.5 584,-872.5 584,-842.5 301,-842.5"/>
<text text-anchor="start" x="307.5344" y="-853.9" font-family="Arial" font-size="14.00" fill="#000000">updated_at    </text>
<text text-anchor="start" x="411.7812" y="-853.9" font-family="Arial" font-size="14.00" fill="#666666">[timestamp with time zone]</text>
</g>
<!-- public.payment&#45;&gt;public.accounting_period -->
<g id="edge1" class="edge">
<title>public.payment:accounting_period_id&#45;&gt;public.accounting_period:id</title>
<path fill="none" stroke="#000000" d="M592.6147,-1212.4029C627.7502,-1167.1411 609.503,-834.8908 584,-800 552.896,-757.4464 502.104,-806.5536 471,-764 445.691,-729.3747 428.1111,-667.5 471,-667.5"/>
<polygon fill="#000000" stroke="#000000" points="592.6064,-1212.4078 581.7085,-1213.6271 588.3032,-1214.9539 584,-1217.5 584,-1217.5 584,-1217.5 588.3032,-1214.9539 586.2915,-1221.3729 592.6064,-1212.4078 592.6064,-1212.4078"/>
<text text-anchor="start" x="234.5865" y="-1227.5" font-family="Arial" font-size="10.00" fill="#000000">FOREIGN KEY (accounting_period_id) REFERENCES accounting_period(id)</text>
</g>
<!-- public.transaction -->
<g id="node3" class="node">
<title>public.transaction</title>
<polygon fill="#efefef" stroke="transparent" points="688,-1202.5 688,-1237.5 989,-1237.5 989,-1202.5 688,-1202.5"/>
<polygon fill="none" stroke="#000000" points="688,-1202.5 688,-1237.5 989,-1237.5 989,-1202.5 688,-1202.5"/>
<text text-anchor="start" x="704.7005" y="-1215.3" font-family="Arial Bold" font-size="18.00" fill="#000000">public.transaction</text>
<text text-anchor="start" x="844.7315" y="-1215.3" font-family="Arial" font-size="14.00" fill="#000000">    </text>
<text text-anchor="start" x="878.9363" y="-1215.3" font-family="Arial" font-size="14.00" fill="#666666">[BASE TABLE]</text>
<polygon fill="none" stroke="#000000" points="688,-1172.5 688,-1202.5 989,-1202.5 989,-1172.5 688,-1172.5"/>
<text text-anchor="start" x="695" y="-1183.9" font-family="Arial" font-size="14.00" fill="#000000">id    </text>
<text text-anchor="start" x="740.094" y="-1183.9" font-family="Arial" font-size="14.00" fill="#666666">[bigint]</text>
<polygon fill="none" stroke="#000000" points="688,-1142.5 688,-1172.5 989,-1172.5 989,-1142.5 688,-1142.5"/>
<text text-anchor="start" x="695" y="-1153.9" font-family="Arial" font-size="14.00" fill="#000000">tenant_id    </text>
<text text-anchor="start" x="786.7882" y="-1153.9" font-family="Arial" font-size="14.00" fill="#666666">[bigint]</text>
<polygon fill="none" stroke="#000000" points="688,-1112.5 688,-1142.5 989,-1142.5 989,-1112.5 688,-1112.5"/>
<text text-anchor="start" x="695" y="-1123.9" font-family="Arial" font-size="14.00" fill="#000000">accounting_period_id    </text>
<text text-anchor="start" x="862.2496" y="-1123.9" font-family="Arial" font-size="14.00" fill="#666666">[bigint]</text>
<polygon fill="none" stroke="#000000" points="688,-1082.5 688,-1112.5 989,-1112.5 989,-1082.5 688,-1082.5"/>
<text text-anchor="start" x="695" y="-1093.9" font-family="Arial" font-size="14.00" fill="#000000">payment_id    </text>
<text text-anchor="start" x="801.5582" y="-1093.9" font-family="Arial" font-size="14.00" fill="#666666">[bigint]</text>
<polygon fill="none" stroke="#000000" points="688,-1052.5 688,-1082.5 989,-1082.5 989,-1052.5 688,-1052.5"/>
<text text-anchor="start" x="695" y="-1063.9" font-family="Arial" font-size="14.00" fill="#000000">source    </text>
<text text-anchor="start" x="771.2132" y="-1063.9" font-family="Arial" font-size="14.00" fill="#666666">[transaction_source]</text>
<polygon fill="none" stroke="#000000" points="688,-1022.5 688,-1052.5 989,-1052.5 989,-1022.5 688,-1022.5"/>
<text text-anchor="start" x="695" y="-1033.9" font-family="Arial" font-size="14.00" fill="#000000">created_at    </text>
<text text-anchor="start" x="795.3422" y="-1033.9" font-family="Arial" font-size="14.00" fill="#666666">[timestamp with time zone]</text>
<polygon fill="none" stroke="#000000" points="688,-992.5 688,-1022.5 989,-1022.5 989,-992.5 688,-992.5"/>
<text text-anchor="start" x="695" y="-1003.9" font-family="Arial" font-size="14.00" fill="#000000">updated_at    </text>
<text text-anchor="start" x="799.2468" y="-1003.9" font-family="Arial" font-size="14.00" fill="#666666">[timestamp with time zone]</text>
<polygon fill="none" stroke="#000000" points="688,-962.5 688,-992.5 989,-992.5 989,-962.5 688,-962.5"/>
<text text-anchor="start" x="695" y="-973.9" font-family="Arial" font-size="14.00" fill="#000000">description    </text>
<text text-anchor="start" x="796.8822" y="-973.9" font-family="Arial" font-size="14.00" fill="#666666">[text]</text>
<polygon fill="none" stroke="#000000" points="688,-932.5 688,-962.5 989,-962.5 989,-932.5 688,-932.5"/>
<text text-anchor="start" x="694.9818" y="-943.9" font-family="Arial" font-size="14.00" fill="#000000">effective_date    </text>
<text text-anchor="start" x="816.3338" y="-943.9" font-family="Arial" font-size="14.00" fill="#666666">[timestamp with time zone]</text>
</g>
<!-- public.transaction&#45;&gt;public.accounting_period -->
<g id="edge2" class="edge">
<title>public.transaction:accounting_period_id&#45;&gt;public.accounting_period:id</title>
<path fill="none" stroke="#000000" d="M678.1033,-1124.8166C639.7811,-1101.6663 669.4963,-935.4441 688,-890 717.5123,-817.5192 781.4877,-836.4808 811,-764 827.1739,-724.2777 853.8889,-667.5 811,-667.5"/>
<polygon fill="#000000" stroke="#000000" points="678.3485,-1124.883 686.8224,-1131.8432 683.1742,-1126.1915 688,-1127.5 688,-1127.5 688,-1127.5 683.1742,-1126.1915 689.1776,-1123.1568 678.3485,-1124.883 678.3485,-1124.883"/>
<text text-anchor="start" x="694.5865" y="-1137.5" font-family="Arial" font-size="10.00" fill="#000000">FOREIGN KEY (accounting_period_id) REFERENCES accounting_period(id)</text>
</g>
</g>
</svg>
