<?xml version="1.0" encoding="UTF-8" standalone="no"?>
<!DOCTYPE svg PUBLIC "-//W3C//DTD SVG 1.1//EN"
 "http://www.w3.org/Graphics/SVG/1.1/DTD/svg11.dtd">
<!-- Generated by graphviz version 2.40.1 (20161225.0304)
 -->
<!-- Title: public.event_instance_trainer Pages: 1 -->
<svg width="1374pt" height="1042pt"
 viewBox="0.00 0.00 1374.00 1042.00" xmlns="http://www.w3.org/2000/svg" xmlns:xlink="http://www.w3.org/1999/xlink">
<g id="graph0" class="graph" transform="scale(1 1) rotate(0) translate(4 1038)">
<title>public.event_instance_trainer</title>
<polygon fill="#ffffff" stroke="transparent" points="-4,4 -4,-1038 1370,-1038 1370,4 -4,4"/>
<!-- public.event_instance_trainer -->
<g id="node1" class="node">
<title>public.event_instance_trainer</title>
<polygon fill="#efefef" stroke="transparent" points="471,-952.5 471,-987.5 846,-987.5 846,-952.5 471,-952.5"/>
<polygon fill="none" stroke="#000000" points="471,-952.5 471,-987.5 846,-987.5 846,-952.5 471,-952.5"/>
<text text-anchor="start" x="477.6845" y="-965.3" font-family="Arial Bold" font-size="18.00" fill="#000000">public.event_instance_trainer</text>
<text text-anchor="start" x="711.7475" y="-965.3" font-family="Arial" font-size="14.00" fill="#000000">    </text>
<text text-anchor="start" x="745.9523" y="-965.3" font-family="Arial" font-size="14.00" fill="#666666">[BASE TABLE]</text>
<polygon fill="none" stroke="#000000" points="471,-922.5 471,-952.5 846,-952.5 846,-922.5 471,-922.5"/>
<text text-anchor="start" x="478" y="-933.9" font-family="Arial" font-size="14.00" fill="#000000">id </text>
<text text-anchor="start" x="492.7798" y="-933.9" font-family="Arial" font-size="14.00" fill="#666666">[bigint]</text>
<polygon fill="none" stroke="#000000" points="471,-892.5 471,-922.5 846,-922.5 846,-892.5 471,-892.5"/>
<text text-anchor="start" x="478" y="-903.9" font-family="Arial" font-size="14.00" fill="#000000">tenant_id </text>
<text text-anchor="start" x="539.474" y="-903.9" font-family="Arial" font-size="14.00" fill="#666666">[bigint]</text>
<polygon fill="none" stroke="#000000" points="471,-862.5 471,-892.5 846,-892.5 846,-862.5 471,-862.5"/>
<text text-anchor="start" x="478" y="-873.9" font-family="Arial" font-size="14.00" fill="#000000">instance_id </text>
<text text-anchor="start" x="552.69" y="-873.9" font-family="Arial" font-size="14.00" fill="#666666">[bigint]</text>
<polygon fill="none" stroke="#000000" points="471,-832.5 471,-862.5 846,-862.5 846,-832.5 471,-832.5"/>
<text text-anchor="start" x="478" y="-843.9" font-family="Arial" font-size="14.00" fill="#000000">person_id </text>
<text text-anchor="start" x="543.3534" y="-843.9" font-family="Arial" font-size="14.00" fill="#666666">[bigint]</text>
<polygon fill="none" stroke="#000000" points="471,-802.5 471,-832.5 846,-832.5 846,-802.5 471,-802.5"/>
<text text-anchor="start" x="478" y="-813.9" font-family="Arial" font-size="14.00" fill="#000000">created_at </text>
<text text-anchor="start" x="548.028" y="-813.9" font-family="Arial" font-size="14.00" fill="#666666">[timestamp with time zone]</text>
<polygon fill="none" stroke="#000000" points="471,-772.5 471,-802.5 846,-802.5 846,-772.5 471,-772.5"/>
<text text-anchor="start" x="478" y="-783.9" font-family="Arial" font-size="14.00" fill="#000000">updated_at </text>
<text text-anchor="start" x="551.9326" y="-783.9" font-family="Arial" font-size="14.00" fill="#666666">[timestamp with time zone]</text>
<polygon fill="none" stroke="#000000" points="471,-742.5 471,-772.5 846,-772.5 846,-742.5 471,-742.5"/>
<text text-anchor="start" x="478" y="-753.9" font-family="Arial" font-size="14.00" fill="#000000">lesson_price </text>
<text text-anchor="start" x="560.46" y="-753.9" font-family="Arial" font-size="14.00" fill="#666666">[price]</text>
<polygon fill="none" stroke="#000000" stroke-width="3" points="469,-741.5 469,-989.5 847,-989.5 847,-741.5 469,-741.5"/>
</g>
<!-- public.tenant -->
<g id="node2" class="node">
<title>public.tenant</title>
<polygon fill="#efefef" stroke="transparent" points="155,-432.5 155,-467.5 398,-467.5 398,-432.5 155,-432.5"/>
<polygon fill="none" stroke="#000000" points="155,-432.5 155,-467.5 398,-467.5 398,-432.5 155,-432.5"/>
<text text-anchor="start" x="161.6968" y="-445.3" font-family="Arial Bold" font-size="18.00" fill="#000000">public.tenant</text>
<text text-anchor="start" x="263.7352" y="-445.3" font-family="Arial" font-size="14.00" fill="#000000">    </text>
<text text-anchor="start" x="297.94" y="-445.3" font-family="Arial" font-size="14.00" fill="#666666">[BASE TABLE]</text>
<polygon fill="none" stroke="#000000" points="155,-402.5 155,-432.5 398,-432.5 398,-402.5 155,-402.5"/>
<text text-anchor="start" x="162" y="-413.9" font-family="Arial" font-size="14.00" fill="#000000">id    </text>
<text text-anchor="start" x="207.094" y="-413.9" font-family="Arial" font-size="14.00" fill="#666666">[bigint]</text>
<polygon fill="none" stroke="#000000" points="155,-372.5 155,-402.5 398,-402.5 398,-372.5 155,-372.5"/>
<text text-anchor="start" x="162" y="-383.9" font-family="Arial" font-size="14.00" fill="#000000">name    </text>
<text text-anchor="start" x="231.2132" y="-383.9" font-family="Arial" font-size="14.00" fill="#666666">[text]</text>
<polygon fill="none" stroke="#000000" points="155,-342.5 155,-372.5 398,-372.5 398,-342.5 155,-342.5"/>
<text text-anchor="start" x="162" y="-353.9" font-family="Arial" font-size="14.00" fill="#000000">origins    </text>
<text text-anchor="start" x="237.4264" y="-353.9" font-family="Arial" font-size="14.00" fill="#666666">[text[]]</text>
<polygon fill="none" stroke="#000000" points="155,-312.5 155,-342.5 398,-342.5 398,-312.5 155,-312.5"/>
<text text-anchor="start" x="162" y="-323.9" font-family="Arial" font-size="14.00" fill="#000000">cz_ico    </text>
<text text-anchor="start" x="235.8766" y="-323.9" font-family="Arial" font-size="14.00" fill="#666666">[text]</text>
<polygon fill="none" stroke="#000000" points="155,-282.5 155,-312.5 398,-312.5 398,-282.5 155,-282.5"/>
<text text-anchor="start" x="162" y="-293.9" font-family="Arial" font-size="14.00" fill="#000000">cz_dic    </text>
<text text-anchor="start" x="235.8766" y="-293.9" font-family="Arial" font-size="14.00" fill="#666666">[text]</text>
<polygon fill="none" stroke="#000000" points="155,-252.5 155,-282.5 398,-282.5 398,-252.5 155,-252.5"/>
<text text-anchor="start" x="162" y="-263.9" font-family="Arial" font-size="14.00" fill="#000000">address    </text>
<text text-anchor="start" x="245.9958" y="-263.9" font-family="Arial" font-size="14.00" fill="#666666">[address_domain]</text>
<polygon fill="none" stroke="#000000" points="155,-222.5 155,-252.5 398,-252.5 398,-222.5 155,-222.5"/>
<text text-anchor="start" x="162" y="-233.9" font-family="Arial" font-size="14.00" fill="#000000">description    </text>
<text text-anchor="start" x="263.8822" y="-233.9" font-family="Arial" font-size="14.00" fill="#666666">[text]</text>
<polygon fill="none" stroke="#000000" points="155,-192.5 155,-222.5 398,-222.5 398,-192.5 155,-192.5"/>
<text text-anchor="start" x="162" y="-203.9" font-family="Arial" font-size="14.00" fill="#000000">bank_account    </text>
<text text-anchor="start" x="283.3562" y="-203.9" font-family="Arial" font-size="14.00" fill="#666666">[text]</text>
</g>
<!-- public.event_instance_trainer&#45;&gt;public.tenant -->
<g id="edge1" class="edge">
<title>public.event_instance_trainer:tenant_id&#45;&gt;public.tenant:id</title>
<path fill="none" stroke="#000000" d="M460.866,-905.9153C370.3995,-875.5011 504.4353,-417.5 398,-417.5"/>
<polygon fill="#000000" stroke="#000000" points="461.1201,-905.9549 470.3047,-911.946 466.06,-906.7275 471,-907.5 471,-907.5 471,-907.5 466.06,-906.7275 471.6953,-903.054 461.1201,-905.9549 461.1201,-905.9549"/>
<text text-anchor="start" x="7.0955" y="-917.5" font-family="Arial" font-size="10.00" fill="#000000">FOREIGN KEY (tenant_id) REFERENCES tenant(id) ON UPDATE CASCADE ON DELETE CASCADE</text>
</g>
<!-- public.event_instance -->
<g id="node3" class="node">
<title>public.event_instance</title>
<polygon fill="#efefef" stroke="transparent" points="502,-462.5 502,-497.5 816,-497.5 816,-462.5 502,-462.5"/>
<polygon fill="none" stroke="#000000" points="502,-462.5 502,-497.5 816,-497.5 816,-462.5 502,-462.5"/>
<text text-anchor="start" x="508.6873" y="-475.3" font-family="Arial Bold" font-size="18.00" fill="#000000">public.event_instance</text>
<text text-anchor="start" x="681.7447" y="-475.3" font-family="Arial" font-size="14.00" fill="#000000">    </text>
<text text-anchor="start" x="715.9495" y="-475.3" font-family="Arial" font-size="14.00" fill="#666666">[BASE TABLE]</text>
<polygon fill="none" stroke="#000000" points="502,-432.5 502,-462.5 816,-462.5 816,-432.5 502,-432.5"/>
<text text-anchor="start" x="509" y="-443.9" font-family="Arial" font-size="14.00" fill="#000000">id    </text>
<text text-anchor="start" x="554.094" y="-443.9" font-family="Arial" font-size="14.00" fill="#666666">[bigint]</text>
<polygon fill="none" stroke="#000000" points="502,-402.5 502,-432.5 816,-432.5 816,-402.5 502,-402.5"/>
<text text-anchor="start" x="509" y="-413.9" font-family="Arial" font-size="14.00" fill="#000000">tenant_id    </text>
<text text-anchor="start" x="600.7882" y="-413.9" font-family="Arial" font-size="14.00" fill="#666666">[bigint]</text>
<polygon fill="none" stroke="#000000" points="502,-372.5 502,-402.5 816,-402.5 816,-372.5 502,-372.5"/>
<text text-anchor="start" x="509" y="-383.9" font-family="Arial" font-size="14.00" fill="#000000">event_id    </text>
<text text-anchor="start" x="596.115" y="-383.9" font-family="Arial" font-size="14.00" fill="#666666">[bigint]</text>
<polygon fill="none" stroke="#000000" points="502,-342.5 502,-372.5 816,-372.5 816,-342.5 502,-342.5"/>
<text text-anchor="start" x="509" y="-353.9" font-family="Arial" font-size="14.00" fill="#000000">created_at    </text>
<text text-anchor="start" x="609.3422" y="-353.9" font-family="Arial" font-size="14.00" fill="#666666">[timestamp with time zone]</text>
<polygon fill="none" stroke="#000000" points="502,-312.5 502,-342.5 816,-342.5 816,-312.5 502,-312.5"/>
<text text-anchor="start" x="509" y="-323.9" font-family="Arial" font-size="14.00" fill="#000000">updated_at    </text>
<text text-anchor="start" x="613.2468" y="-323.9" font-family="Arial" font-size="14.00" fill="#666666">[timestamp with time zone]</text>
<polygon fill="none" stroke="#000000" points="502,-282.5 502,-312.5 816,-312.5 816,-282.5 502,-282.5"/>
<text text-anchor="start" x="509" y="-293.9" font-family="Arial" font-size="14.00" fill="#000000">since    </text>
<text text-anchor="start" x="575.8766" y="-293.9" font-family="Arial" font-size="14.00" fill="#666666">[timestamp with time zone]</text>
<polygon fill="none" stroke="#000000" points="502,-252.5 502,-282.5 816,-282.5 816,-252.5 502,-252.5"/>
<text text-anchor="start" x="509" y="-263.9" font-family="Arial" font-size="14.00" fill="#000000">until    </text>
<text text-anchor="start" x="568.8738" y="-263.9" font-family="Arial" font-size="14.00" fill="#666666">[timestamp with time zone]</text>
<polygon fill="none" stroke="#000000" points="502,-222.5 502,-252.5 816,-252.5 816,-222.5 502,-222.5"/>
<text text-anchor="start" x="509" y="-233.9" font-family="Arial" font-size="14.00" fill="#000000">range    </text>
<text text-anchor="start" x="578.9958" y="-233.9" font-family="Arial" font-size="14.00" fill="#666666">[tstzrange]</text>
<polygon fill="none" stroke="#000000" points="502,-192.5 502,-222.5 816,-222.5 816,-192.5 502,-192.5"/>
<text text-anchor="start" x="509" y="-203.9" font-family="Arial" font-size="14.00" fill="#000000">location_id    </text>
<text text-anchor="start" x="610.1108" y="-203.9" font-family="Arial" font-size="14.00" fill="#666666">[bigint]</text>
<polygon fill="none" stroke="#000000" points="502,-162.5 502,-192.5 816,-192.5 816,-162.5 502,-162.5"/>
<text text-anchor="start" x="509" y="-173.9" font-family="Arial" font-size="14.00" fill="#000000">is_cancelled    </text>
<text text-anchor="start" x="620.2202" y="-173.9" font-family="Arial" font-size="14.00" fill="#666666">[boolean]</text>
</g>
<!-- public.event_instance_trainer&#45;&gt;public.event_instance -->
<g id="edge2" class="edge">
<title>public.event_instance_trainer:instance_id&#45;&gt;public.event_instance:id</title>
<path fill="none" stroke="#000000" d="M856.113,-876.8299C922.9059,-867.4334 887.5084,-761.4007 846,-697 755.0529,-555.8946 592.9471,-682.1054 502,-541 479.4871,-506.071 460.4444,-447.5 502,-447.5"/>
<polygon fill="#000000" stroke="#000000" points="855.9781,-876.8387 845.7024,-873.0098 850.9891,-877.1694 846,-877.5 846,-877.5 846,-877.5 850.9891,-877.1694 846.2976,-881.9902 855.9781,-876.8387 855.9781,-876.8387"/>
<text text-anchor="start" x="852.648" y="-887.5" font-family="Arial" font-size="10.00" fill="#000000">FOREIGN KEY (instance_id) REFERENCES event_instance(id) ON UPDATE CASCADE ON DELETE CASCADE</text>
</g>
<!-- public.person -->
<g id="node4" class="node">
<title>public.person</title>
<polygon fill="#efefef" stroke="transparent" points="921,-582.5 921,-617.5 1204,-617.5 1204,-582.5 921,-582.5"/>
<polygon fill="none" stroke="#000000" points="921,-582.5 921,-617.5 1204,-617.5 1204,-582.5 921,-582.5"/>
<text text-anchor="start" x="945.2029" y="-595.3" font-family="Arial Bold" font-size="18.00" fill="#000000">public.person</text>
<text text-anchor="start" x="1052.2291" y="-595.3" font-family="Arial" font-size="14.00" fill="#000000">    </text>
<text text-anchor="start" x="1086.4339" y="-595.3" font-family="Arial" font-size="14.00" fill="#666666">[BASE TABLE]</text>
<polygon fill="none" stroke="#000000" points="921,-552.5 921,-582.5 1204,-582.5 1204,-552.5 921,-552.5"/>
<text text-anchor="start" x="928" y="-563.9" font-family="Arial" font-size="14.00" fill="#000000">id    </text>
<text text-anchor="start" x="973.094" y="-563.9" font-family="Arial" font-size="14.00" fill="#666666">[bigint]</text>
<polygon fill="none" stroke="#000000" points="921,-522.5 921,-552.5 1204,-552.5 1204,-522.5 921,-522.5"/>
<text text-anchor="start" x="928" y="-533.9" font-family="Arial" font-size="14.00" fill="#000000">first_name    </text>
<text text-anchor="start" x="1027.5442" y="-533.9" font-family="Arial" font-size="14.00" fill="#666666">[text]</text>
<polygon fill="none" stroke="#000000" points="921,-492.5 921,-522.5 1204,-522.5 1204,-492.5 921,-492.5"/>
<text text-anchor="start" x="928" y="-503.9" font-family="Arial" font-size="14.00" fill="#000000">last_name    </text>
<text text-anchor="start" x="1026.7756" y="-503.9" font-family="Arial" font-size="14.00" fill="#666666">[text]</text>
<polygon fill="none" stroke="#000000" points="921,-462.5 921,-492.5 1204,-492.5 1204,-462.5 921,-462.5"/>
<text text-anchor="start" x="928" y="-473.9" font-family="Arial" font-size="14.00" fill="#000000">gender    </text>
<text text-anchor="start" x="1005.7784" y="-473.9" font-family="Arial" font-size="14.00" fill="#666666">[gender_type]</text>
<polygon fill="none" stroke="#000000" points="921,-432.5 921,-462.5 1204,-462.5 1204,-432.5 921,-432.5"/>
<text text-anchor="start" x="928" y="-443.9" font-family="Arial" font-size="14.00" fill="#000000">birth_date    </text>
<text text-anchor="start" x="1024.4488" y="-443.9" font-family="Arial" font-size="14.00" fill="#666666">[date]</text>
<polygon fill="none" stroke="#000000" points="921,-402.5 921,-432.5 1204,-432.5 1204,-402.5 921,-402.5"/>
<text text-anchor="start" x="928" y="-413.9" font-family="Arial" font-size="14.00" fill="#000000">nationality    </text>
<text text-anchor="start" x="1025.2188" y="-413.9" font-family="Arial" font-size="14.00" fill="#666666">[text]</text>
<polygon fill="none" stroke="#000000" points="921,-372.5 921,-402.5 1204,-402.5 1204,-372.5 921,-372.5"/>
<text text-anchor="start" x="928" y="-383.9" font-family="Arial" font-size="14.00" fill="#000000">tax_identification_number    </text>
<text text-anchor="start" x="1121.6886" y="-383.9" font-family="Arial" font-size="14.00" fill="#666666">[text]</text>
<polygon fill="none" stroke="#000000" points="921,-342.5 921,-372.5 1204,-372.5 1204,-342.5 921,-342.5"/>
<text text-anchor="start" x="928" y="-353.9" font-family="Arial" font-size="14.00" fill="#000000">national_id_number    </text>
<text text-anchor="start" x="1085.1276" y="-353.9" font-family="Arial" font-size="14.00" fill="#666666">[text]</text>
<polygon fill="none" stroke="#000000" points="921,-312.5 921,-342.5 1204,-342.5 1204,-312.5 921,-312.5"/>
<text text-anchor="start" x="928" y="-323.9" font-family="Arial" font-size="14.00" fill="#000000">csts_id    </text>
<text text-anchor="start" x="1005.7672" y="-323.9" font-family="Arial" font-size="14.00" fill="#666666">[text]</text>
<polygon fill="none" stroke="#000000" points="921,-282.5 921,-312.5 1204,-312.5 1204,-282.5 921,-282.5"/>
<text text-anchor="start" x="928" y="-293.9" font-family="Arial" font-size="14.00" fill="#000000">wdsf_id    </text>
<text text-anchor="start" x="1009.6564" y="-293.9" font-family="Arial" font-size="14.00" fill="#666666">[text]</text>
<polygon fill="none" stroke="#000000" points="921,-252.5 921,-282.5 1204,-282.5 1204,-252.5 921,-252.5"/>
<text text-anchor="start" x="928" y="-263.9" font-family="Arial" font-size="14.00" fill="#000000">created_at    </text>
<text text-anchor="start" x="1028.3422" y="-263.9" font-family="Arial" font-size="14.00" fill="#666666">[timestamp with time zone]</text>
<polygon fill="none" stroke="#000000" points="921,-222.5 921,-252.5 1204,-252.5 1204,-222.5 921,-222.5"/>
<text text-anchor="start" x="927.5344" y="-233.9" font-family="Arial" font-size="14.00" fill="#000000">updated_at    </text>
<text text-anchor="start" x="1031.7812" y="-233.9" font-family="Arial" font-size="14.00" fill="#666666">[timestamp with time zone]</text>
<polygon fill="none" stroke="#000000" points="921,-192.5 921,-222.5 1204,-222.5 1204,-192.5 921,-192.5"/>
<text text-anchor="start" x="928" y="-203.9" font-family="Arial" font-size="14.00" fill="#000000">legacy_user_id    </text>
<text text-anchor="start" x="1056.3394" y="-203.9" font-family="Arial" font-size="14.00" fill="#666666">[bigint]</text>
<polygon fill="none" stroke="#000000" points="921,-162.5 921,-192.5 1204,-192.5 1204,-162.5 921,-162.5"/>
<text text-anchor="start" x="928" y="-173.9" font-family="Arial" font-size="14.00" fill="#000000">prefix_title    </text>
<text text-anchor="start" x="1025.9874" y="-173.9" font-family="Arial" font-size="14.00" fill="#666666">[text]</text>
<polygon fill="none" stroke="#000000" points="921,-132.5 921,-162.5 1204,-162.5 1204,-132.5 921,-132.5"/>
<text text-anchor="start" x="928" y="-143.9" font-family="Arial" font-size="14.00" fill="#000000">suffix_title    </text>
<text text-anchor="start" x="1024.4348" y="-143.9" font-family="Arial" font-size="14.00" fill="#666666">[text]</text>
<polygon fill="none" stroke="#000000" points="921,-102.5 921,-132.5 1204,-132.5 1204,-102.5 921,-102.5"/>
<text text-anchor="start" x="928" y="-113.9" font-family="Arial" font-size="14.00" fill="#000000">bio    </text>
<text text-anchor="start" x="980.8766" y="-113.9" font-family="Arial" font-size="14.00" fill="#666666">[text]</text>
<polygon fill="none" stroke="#000000" points="921,-72.5 921,-102.5 1204,-102.5 1204,-72.5 921,-72.5"/>
<text text-anchor="start" x="928" y="-83.9" font-family="Arial" font-size="14.00" fill="#000000">email    </text>
<text text-anchor="start" x="995.6438" y="-83.9" font-family="Arial" font-size="14.00" fill="#666666">[citext]</text>
<polygon fill="none" stroke="#000000" points="921,-42.5 921,-72.5 1204,-72.5 1204,-42.5 921,-42.5"/>
<text text-anchor="start" x="928" y="-53.9" font-family="Arial" font-size="14.00" fill="#000000">phone    </text>
<text text-anchor="start" x="1001.1178" y="-53.9" font-family="Arial" font-size="14.00" fill="#666666">[text]</text>
</g>
<!-- public.event_instance_trainer&#45;&gt;public.person -->
<g id="edge3" class="edge">
<title>public.event_instance_trainer:person_id&#45;&gt;public.person:id</title>
<path fill="none" stroke="#000000" d="M856.2103,-846.839C964.7351,-831.8652 795.8171,-567.5 921,-567.5"/>
<polygon fill="#000000" stroke="#000000" points="855.9791,-846.8539 845.7092,-843.0094 850.9896,-847.1769 846,-847.5 846,-847.5 846,-847.5 850.9896,-847.1769 846.2908,-851.9906 855.9791,-846.8539 855.9791,-846.8539"/>
<text text-anchor="start" x="853.3245" y="-857.5" font-family="Arial" font-size="10.00" fill="#000000">FOREIGN KEY (person_id) REFERENCES person(id) ON UPDATE CASCADE ON DELETE CASCADE</text>
</g>
</g>
</svg>
