<?xml version="1.0" encoding="UTF-8" standalone="no"?>
<!DOCTYPE svg PUBLIC "-//W3C//DTD SVG 1.1//EN"
 "http://www.w3.org/Graphics/SVG/1.1/DTD/svg11.dtd">
<!-- Generated by graphviz version 2.40.1 (20161225.0304)
 -->
<!-- Title: public.tenant_membership Pages: 1 -->
<svg width="1308pt" height="1132pt"
 viewBox="0.00 0.00 1308.00 1132.00" xmlns="http://www.w3.org/2000/svg" xmlns:xlink="http://www.w3.org/1999/xlink">
<g id="graph0" class="graph" transform="scale(1 1) rotate(0) translate(4 1128)">
<title>public.tenant_membership</title>
<polygon fill="#ffffff" stroke="transparent" points="-4,4 -4,-1128 1304,-1128 1304,4 -4,4"/>
<!-- public.tenant_membership -->
<g id="node1" class="node">
<title>public.tenant_membership</title>
<polygon fill="#efefef" stroke="transparent" points="471,-1042.5 471,-1077.5 823,-1077.5 823,-1042.5 471,-1042.5"/>
<polygon fill="none" stroke="#000000" points="471,-1042.5 471,-1077.5 823,-1077.5 823,-1042.5 471,-1042.5"/>
<text text-anchor="start" x="477.6928" y="-1055.3" font-family="Arial Bold" font-size="18.00" fill="#000000">public.tenant_membership</text>
<text text-anchor="start" x="688.7392" y="-1055.3" font-family="Arial" font-size="14.00" fill="#000000">    </text>
<text text-anchor="start" x="722.944" y="-1055.3" font-family="Arial" font-size="14.00" fill="#666666">[BASE TABLE]</text>
<polygon fill="none" stroke="#000000" points="471,-1012.5 471,-1042.5 823,-1042.5 823,-1012.5 471,-1012.5"/>
<text text-anchor="start" x="478" y="-1023.9" font-family="Arial" font-size="14.00" fill="#000000">tenant_id </text>
<text text-anchor="start" x="539.474" y="-1023.9" font-family="Arial" font-size="14.00" fill="#666666">[bigint]</text>
<polygon fill="none" stroke="#000000" points="471,-982.5 471,-1012.5 823,-1012.5 823,-982.5 471,-982.5"/>
<text text-anchor="start" x="478" y="-993.9" font-family="Arial" font-size="14.00" fill="#000000">person_id </text>
<text text-anchor="start" x="543.3534" y="-993.9" font-family="Arial" font-size="14.00" fill="#666666">[bigint]</text>
<polygon fill="none" stroke="#000000" points="471,-952.5 471,-982.5 823,-982.5 823,-952.5 471,-952.5"/>
<text text-anchor="start" x="478" y="-963.9" font-family="Arial" font-size="14.00" fill="#000000">since </text>
<text text-anchor="start" x="514.5624" y="-963.9" font-family="Arial" font-size="14.00" fill="#666666">[timestamp with time zone]</text>
<polygon fill="none" stroke="#000000" points="471,-922.5 471,-952.5 823,-952.5 823,-922.5 471,-922.5"/>
<text text-anchor="start" x="478" y="-933.9" font-family="Arial" font-size="14.00" fill="#000000">until </text>
<text text-anchor="start" x="507.5596" y="-933.9" font-family="Arial" font-size="14.00" fill="#666666">[timestamp with time zone]</text>
<polygon fill="none" stroke="#000000" points="471,-892.5 471,-922.5 823,-922.5 823,-892.5 471,-892.5"/>
<text text-anchor="start" x="478" y="-903.9" font-family="Arial" font-size="14.00" fill="#000000">created_at </text>
<text text-anchor="start" x="548.028" y="-903.9" font-family="Arial" font-size="14.00" fill="#666666">[timestamp with time zone]</text>
<polygon fill="none" stroke="#000000" points="471,-862.5 471,-892.5 823,-892.5 823,-862.5 471,-862.5"/>
<text text-anchor="start" x="478" y="-873.9" font-family="Arial" font-size="14.00" fill="#000000">updated_at </text>
<text text-anchor="start" x="551.9326" y="-873.9" font-family="Arial" font-size="14.00" fill="#666666">[timestamp with time zone]</text>
<polygon fill="none" stroke="#000000" points="471,-832.5 471,-862.5 823,-862.5 823,-832.5 471,-832.5"/>
<text text-anchor="start" x="478" y="-843.9" font-family="Arial" font-size="14.00" fill="#000000">id </text>
<text text-anchor="start" x="492.7798" y="-843.9" font-family="Arial" font-size="14.00" fill="#666666">[bigint]</text>
<polygon fill="none" stroke="#000000" points="471,-802.5 471,-832.5 823,-832.5 823,-802.5 471,-802.5"/>
<text text-anchor="start" x="478" y="-813.9" font-family="Arial" font-size="14.00" fill="#000000">active_range </text>
<text text-anchor="start" x="562.0266" y="-813.9" font-family="Arial" font-size="14.00" fill="#666666">[tstzrange]</text>
<polygon fill="none" stroke="#000000" points="471,-772.5 471,-802.5 823,-802.5 823,-772.5 471,-772.5"/>
<text text-anchor="start" x="478" y="-783.9" font-family="Arial" font-size="14.00" fill="#000000">status </text>
<text text-anchor="start" x="519.237" y="-783.9" font-family="Arial" font-size="14.00" fill="#666666">[relationship_status]</text>
<polygon fill="none" stroke="#000000" points="471,-742.5 471,-772.5 823,-772.5 823,-742.5 471,-742.5"/>
<text text-anchor="start" x="478" y="-753.9" font-family="Arial" font-size="14.00" fill="#000000">active </text>
<text text-anchor="start" x="518.453" y="-753.9" font-family="Arial" font-size="14.00" fill="#666666">[boolean]</text>
<polygon fill="none" stroke="#000000" stroke-width="3" points="469.5,-741.5 469.5,-1079.5 824.5,-1079.5 824.5,-741.5 469.5,-741.5"/>
</g>
<!-- public.tenant -->
<g id="node2" class="node">
<title>public.tenant</title>
<polygon fill="#efefef" stroke="transparent" points="342,-432.5 342,-467.5 585,-467.5 585,-432.5 342,-432.5"/>
<polygon fill="none" stroke="#000000" points="342,-432.5 342,-467.5 585,-467.5 585,-432.5 342,-432.5"/>
<text text-anchor="start" x="348.6968" y="-445.3" font-family="Arial Bold" font-size="18.00" fill="#000000">public.tenant</text>
<text text-anchor="start" x="450.7352" y="-445.3" font-family="Arial" font-size="14.00" fill="#000000">    </text>
<text text-anchor="start" x="484.94" y="-445.3" font-family="Arial" font-size="14.00" fill="#666666">[BASE TABLE]</text>
<polygon fill="none" stroke="#000000" points="342,-402.5 342,-432.5 585,-432.5 585,-402.5 342,-402.5"/>
<text text-anchor="start" x="349" y="-413.9" font-family="Arial" font-size="14.00" fill="#000000">id    </text>
<text text-anchor="start" x="394.094" y="-413.9" font-family="Arial" font-size="14.00" fill="#666666">[bigint]</text>
<polygon fill="none" stroke="#000000" points="342,-372.5 342,-402.5 585,-402.5 585,-372.5 342,-372.5"/>
<text text-anchor="start" x="349" y="-383.9" font-family="Arial" font-size="14.00" fill="#000000">name    </text>
<text text-anchor="start" x="418.2132" y="-383.9" font-family="Arial" font-size="14.00" fill="#666666">[text]</text>
<polygon fill="none" stroke="#000000" points="342,-342.5 342,-372.5 585,-372.5 585,-342.5 342,-342.5"/>
<text text-anchor="start" x="349" y="-353.9" font-family="Arial" font-size="14.00" fill="#000000">origins    </text>
<text text-anchor="start" x="424.4264" y="-353.9" font-family="Arial" font-size="14.00" fill="#666666">[text[]]</text>
<polygon fill="none" stroke="#000000" points="342,-312.5 342,-342.5 585,-342.5 585,-312.5 342,-312.5"/>
<text text-anchor="start" x="349" y="-323.9" font-family="Arial" font-size="14.00" fill="#000000">cz_ico    </text>
<text text-anchor="start" x="422.8766" y="-323.9" font-family="Arial" font-size="14.00" fill="#666666">[text]</text>
<polygon fill="none" stroke="#000000" points="342,-282.5 342,-312.5 585,-312.5 585,-282.5 342,-282.5"/>
<text text-anchor="start" x="349" y="-293.9" font-family="Arial" font-size="14.00" fill="#000000">cz_dic    </text>
<text text-anchor="start" x="422.8766" y="-293.9" font-family="Arial" font-size="14.00" fill="#666666">[text]</text>
<polygon fill="none" stroke="#000000" points="342,-252.5 342,-282.5 585,-282.5 585,-252.5 342,-252.5"/>
<text text-anchor="start" x="349" y="-263.9" font-family="Arial" font-size="14.00" fill="#000000">address    </text>
<text text-anchor="start" x="432.9958" y="-263.9" font-family="Arial" font-size="14.00" fill="#666666">[address_domain]</text>
<polygon fill="none" stroke="#000000" points="342,-222.5 342,-252.5 585,-252.5 585,-222.5 342,-222.5"/>
<text text-anchor="start" x="349" y="-233.9" font-family="Arial" font-size="14.00" fill="#000000">description    </text>
<text text-anchor="start" x="450.8822" y="-233.9" font-family="Arial" font-size="14.00" fill="#666666">[text]</text>
<polygon fill="none" stroke="#000000" points="342,-192.5 342,-222.5 585,-222.5 585,-192.5 342,-192.5"/>
<text text-anchor="start" x="349" y="-203.9" font-family="Arial" font-size="14.00" fill="#000000">bank_account    </text>
<text text-anchor="start" x="470.3562" y="-203.9" font-family="Arial" font-size="14.00" fill="#666666">[text]</text>
</g>
<!-- public.tenant_membership&#45;&gt;public.tenant -->
<g id="edge1" class="edge">
<title>public.tenant_membership:tenant_id&#45;&gt;public.tenant:id</title>
<path fill="none" stroke="#000000" d="M460.6909,-1027.1653C329.2963,-1018.2937 432.0967,-834.921 471,-697 507.4206,-567.8806 719.1576,-417.5 585,-417.5"/>
<polygon fill="#000000" stroke="#000000" points="461.0053,-1027.1754 470.8539,-1031.9976 466.0026,-1027.3377 471,-1027.5 471,-1027.5 471,-1027.5 466.0026,-1027.3377 471.1461,-1023.0024 461.0053,-1027.1754 461.0053,-1027.1754"/>
<text text-anchor="start" x="7.0955" y="-1037.5" font-family="Arial" font-size="10.00" fill="#000000">FOREIGN KEY (tenant_id) REFERENCES tenant(id) ON UPDATE CASCADE ON DELETE CASCADE</text>
</g>
<!-- public.person -->
<g id="node3" class="node">
<title>public.person</title>
<polygon fill="#efefef" stroke="transparent" points="689,-582.5 689,-617.5 972,-617.5 972,-582.5 689,-582.5"/>
<polygon fill="none" stroke="#000000" points="689,-582.5 689,-617.5 972,-617.5 972,-582.5 689,-582.5"/>
<text text-anchor="start" x="713.2029" y="-595.3" font-family="Arial Bold" font-size="18.00" fill="#000000">public.person</text>
<text text-anchor="start" x="820.2291" y="-595.3" font-family="Arial" font-size="14.00" fill="#000000">    </text>
<text text-anchor="start" x="854.4339" y="-595.3" font-family="Arial" font-size="14.00" fill="#666666">[BASE TABLE]</text>
<polygon fill="none" stroke="#000000" points="689,-552.5 689,-582.5 972,-582.5 972,-552.5 689,-552.5"/>
<text text-anchor="start" x="696" y="-563.9" font-family="Arial" font-size="14.00" fill="#000000">id    </text>
<text text-anchor="start" x="741.094" y="-563.9" font-family="Arial" font-size="14.00" fill="#666666">[bigint]</text>
<polygon fill="none" stroke="#000000" points="689,-522.5 689,-552.5 972,-552.5 972,-522.5 689,-522.5"/>
<text text-anchor="start" x="696" y="-533.9" font-family="Arial" font-size="14.00" fill="#000000">first_name    </text>
<text text-anchor="start" x="795.5442" y="-533.9" font-family="Arial" font-size="14.00" fill="#666666">[text]</text>
<polygon fill="none" stroke="#000000" points="689,-492.5 689,-522.5 972,-522.5 972,-492.5 689,-492.5"/>
<text text-anchor="start" x="696" y="-503.9" font-family="Arial" font-size="14.00" fill="#000000">last_name    </text>
<text text-anchor="start" x="794.7756" y="-503.9" font-family="Arial" font-size="14.00" fill="#666666">[text]</text>
<polygon fill="none" stroke="#000000" points="689,-462.5 689,-492.5 972,-492.5 972,-462.5 689,-462.5"/>
<text text-anchor="start" x="696" y="-473.9" font-family="Arial" font-size="14.00" fill="#000000">gender    </text>
<text text-anchor="start" x="773.7784" y="-473.9" font-family="Arial" font-size="14.00" fill="#666666">[gender_type]</text>
<polygon fill="none" stroke="#000000" points="689,-432.5 689,-462.5 972,-462.5 972,-432.5 689,-432.5"/>
<text text-anchor="start" x="696" y="-443.9" font-family="Arial" font-size="14.00" fill="#000000">birth_date    </text>
<text text-anchor="start" x="792.4488" y="-443.9" font-family="Arial" font-size="14.00" fill="#666666">[date]</text>
<polygon fill="none" stroke="#000000" points="689,-402.5 689,-432.5 972,-432.5 972,-402.5 689,-402.5"/>
<text text-anchor="start" x="696" y="-413.9" font-family="Arial" font-size="14.00" fill="#000000">nationality    </text>
<text text-anchor="start" x="793.2188" y="-413.9" font-family="Arial" font-size="14.00" fill="#666666">[text]</text>
<polygon fill="none" stroke="#000000" points="689,-372.5 689,-402.5 972,-402.5 972,-372.5 689,-372.5"/>
<text text-anchor="start" x="696" y="-383.9" font-family="Arial" font-size="14.00" fill="#000000">tax_identification_number    </text>
<text text-anchor="start" x="889.6886" y="-383.9" font-family="Arial" font-size="14.00" fill="#666666">[text]</text>
<polygon fill="none" stroke="#000000" points="689,-342.5 689,-372.5 972,-372.5 972,-342.5 689,-342.5"/>
<text text-anchor="start" x="696" y="-353.9" font-family="Arial" font-size="14.00" fill="#000000">national_id_number    </text>
<text text-anchor="start" x="853.1276" y="-353.9" font-family="Arial" font-size="14.00" fill="#666666">[text]</text>
<polygon fill="none" stroke="#000000" points="689,-312.5 689,-342.5 972,-342.5 972,-312.5 689,-312.5"/>
<text text-anchor="start" x="696" y="-323.9" font-family="Arial" font-size="14.00" fill="#000000">csts_id    </text>
<text text-anchor="start" x="773.7672" y="-323.9" font-family="Arial" font-size="14.00" fill="#666666">[text]</text>
<polygon fill="none" stroke="#000000" points="689,-282.5 689,-312.5 972,-312.5 972,-282.5 689,-282.5"/>
<text text-anchor="start" x="696" y="-293.9" font-family="Arial" font-size="14.00" fill="#000000">wdsf_id    </text>
<text text-anchor="start" x="777.6564" y="-293.9" font-family="Arial" font-size="14.00" fill="#666666">[text]</text>
<polygon fill="none" stroke="#000000" points="689,-252.5 689,-282.5 972,-282.5 972,-252.5 689,-252.5"/>
<text text-anchor="start" x="696" y="-263.9" font-family="Arial" font-size="14.00" fill="#000000">created_at    </text>
<text text-anchor="start" x="796.3422" y="-263.9" font-family="Arial" font-size="14.00" fill="#666666">[timestamp with time zone]</text>
<polygon fill="none" stroke="#000000" points="689,-222.5 689,-252.5 972,-252.5 972,-222.5 689,-222.5"/>
<text text-anchor="start" x="695.5344" y="-233.9" font-family="Arial" font-size="14.00" fill="#000000">updated_at    </text>
<text text-anchor="start" x="799.7812" y="-233.9" font-family="Arial" font-size="14.00" fill="#666666">[timestamp with time zone]</text>
<polygon fill="none" stroke="#000000" points="689,-192.5 689,-222.5 972,-222.5 972,-192.5 689,-192.5"/>
<text text-anchor="start" x="696" y="-203.9" font-family="Arial" font-size="14.00" fill="#000000">legacy_user_id    </text>
<text text-anchor="start" x="824.3394" y="-203.9" font-family="Arial" font-size="14.00" fill="#666666">[bigint]</text>
<polygon fill="none" stroke="#000000" points="689,-162.5 689,-192.5 972,-192.5 972,-162.5 689,-162.5"/>
<text text-anchor="start" x="696" y="-173.9" font-family="Arial" font-size="14.00" fill="#000000">prefix_title    </text>
<text text-anchor="start" x="793.9874" y="-173.9" font-family="Arial" font-size="14.00" fill="#666666">[text]</text>
<polygon fill="none" stroke="#000000" points="689,-132.5 689,-162.5 972,-162.5 972,-132.5 689,-132.5"/>
<text text-anchor="start" x="696" y="-143.9" font-family="Arial" font-size="14.00" fill="#000000">suffix_title    </text>
<text text-anchor="start" x="792.4348" y="-143.9" font-family="Arial" font-size="14.00" fill="#666666">[text]</text>
<polygon fill="none" stroke="#000000" points="689,-102.5 689,-132.5 972,-132.5 972,-102.5 689,-102.5"/>
<text text-anchor="start" x="696" y="-113.9" font-family="Arial" font-size="14.00" fill="#000000">bio    </text>
<text text-anchor="start" x="748.8766" y="-113.9" font-family="Arial" font-size="14.00" fill="#666666">[text]</text>
<polygon fill="none" stroke="#000000" points="689,-72.5 689,-102.5 972,-102.5 972,-72.5 689,-72.5"/>
<text text-anchor="start" x="696" y="-83.9" font-family="Arial" font-size="14.00" fill="#000000">email    </text>
<text text-anchor="start" x="763.6438" y="-83.9" font-family="Arial" font-size="14.00" fill="#666666">[citext]</text>
<polygon fill="none" stroke="#000000" points="689,-42.5 689,-72.5 972,-72.5 972,-42.5 689,-42.5"/>
<text text-anchor="start" x="696" y="-53.9" font-family="Arial" font-size="14.00" fill="#000000">phone    </text>
<text text-anchor="start" x="769.1178" y="-53.9" font-family="Arial" font-size="14.00" fill="#666666">[text]</text>
</g>
<!-- public.tenant_membership&#45;&gt;public.person -->
<g id="edge2" class="edge">
<title>public.tenant_membership:person_id&#45;&gt;public.person:id</title>
<path fill="none" stroke="#000000" d="M833.1797,-997.0995C953.7781,-987.3038 902.1257,-800.1891 823,-697 785.4754,-648.0636 726.5246,-709.9364 689,-661 663.7135,-628.0234 647.4444,-567.5 689,-567.5"/>
<polygon fill="#000000" stroke="#000000" points="832.9923,-997.1068 822.823,-993.0035 827.9961,-997.3034 823,-997.5 823,-997.5 823,-997.5 827.9961,-997.3034 823.177,-1001.9965 832.9923,-997.1068 832.9923,-997.1068"/>
<text text-anchor="start" x="830.3245" y="-1007.5" font-family="Arial" font-size="10.00" fill="#000000">FOREIGN KEY (person_id) REFERENCES person(id) ON UPDATE CASCADE ON DELETE CASCADE</text>
</g>
</g>
</svg>
