<?xml version="1.0" encoding="UTF-8" standalone="no"?>
<!DOCTYPE svg PUBLIC "-//W3C//DTD SVG 1.1//EN"
 "http://www.w3.org/Graphics/SVG/1.1/DTD/svg11.dtd">
<!-- Generated by graphviz version 2.40.1 (20161225.0304)
 -->
<!-- Title: public.transaction Pages: 1 -->
<svg width="1296pt" height="1409pt"
 viewBox="0.00 0.00 1296.00 1409.00" xmlns="http://www.w3.org/2000/svg" xmlns:xlink="http://www.w3.org/1999/xlink">
<g id="graph0" class="graph" transform="scale(1 1) rotate(0) translate(4 1405)">
<title>public.transaction</title>
<polygon fill="#ffffff" stroke="transparent" points="-4,4 -4,-1405 1292,-1405 1292,4 -4,4"/>
<!-- public.transaction -->
<g id="node1" class="node">
<title>public.transaction</title>
<polygon fill="#efefef" stroke="transparent" points="515,-922.5 515,-957.5 796,-957.5 796,-922.5 515,-922.5"/>
<polygon fill="none" stroke="#000000" points="515,-922.5 515,-957.5 796,-957.5 796,-922.5 515,-922.5"/>
<text text-anchor="start" x="521.7005" y="-935.3" font-family="Arial Bold" font-size="18.00" fill="#000000">public.transaction</text>
<text text-anchor="start" x="661.7315" y="-935.3" font-family="Arial" font-size="14.00" fill="#000000">    </text>
<text text-anchor="start" x="695.9363" y="-935.3" font-family="Arial" font-size="14.00" fill="#666666">[BASE TABLE]</text>
<polygon fill="none" stroke="#000000" points="515,-892.5 515,-922.5 796,-922.5 796,-892.5 515,-892.5"/>
<text text-anchor="start" x="522" y="-903.9" font-family="Arial" font-size="14.00" fill="#000000">id </text>
<text text-anchor="start" x="536.7798" y="-903.9" font-family="Arial" font-size="14.00" fill="#666666">[bigint]</text>
<polygon fill="none" stroke="#000000" points="515,-862.5 515,-892.5 796,-892.5 796,-862.5 515,-862.5"/>
<text text-anchor="start" x="522" y="-873.9" font-family="Arial" font-size="14.00" fill="#000000">tenant_id </text>
<text text-anchor="start" x="583.474" y="-873.9" font-family="Arial" font-size="14.00" fill="#666666">[bigint]</text>
<polygon fill="none" stroke="#000000" points="515,-832.5 515,-862.5 796,-862.5 796,-832.5 515,-832.5"/>
<text text-anchor="start" x="522" y="-843.9" font-family="Arial" font-size="14.00" fill="#000000">accounting_period_id </text>
<text text-anchor="start" x="658.9354" y="-843.9" font-family="Arial" font-size="14.00" fill="#666666">[bigint]</text>
<polygon fill="none" stroke="#000000" points="515,-802.5 515,-832.5 796,-832.5 796,-802.5 515,-802.5"/>
<text text-anchor="start" x="522" y="-813.9" font-family="Arial" font-size="14.00" fill="#000000">payment_id </text>
<text text-anchor="start" x="598.244" y="-813.9" font-family="Arial" font-size="14.00" fill="#666666">[bigint]</text>
<polygon fill="none" stroke="#000000" points="515,-772.5 515,-802.5 796,-802.5 796,-772.5 515,-772.5"/>
<text text-anchor="start" x="522" y="-783.9" font-family="Arial" font-size="14.00" fill="#000000">source </text>
<text text-anchor="start" x="567.899" y="-783.9" font-family="Arial" font-size="14.00" fill="#666666">[transaction_source]</text>
<polygon fill="none" stroke="#000000" points="515,-742.5 515,-772.5 796,-772.5 796,-742.5 515,-742.5"/>
<text text-anchor="start" x="522" y="-753.9" font-family="Arial" font-size="14.00" fill="#000000">created_at </text>
<text text-anchor="start" x="592.028" y="-753.9" font-family="Arial" font-size="14.00" fill="#666666">[timestamp with time zone]</text>
<polygon fill="none" stroke="#000000" points="515,-712.5 515,-742.5 796,-742.5 796,-712.5 515,-712.5"/>
<text text-anchor="start" x="522" y="-723.9" font-family="Arial" font-size="14.00" fill="#000000">updated_at </text>
<text text-anchor="start" x="595.9326" y="-723.9" font-family="Arial" font-size="14.00" fill="#666666">[timestamp with time zone]</text>
<polygon fill="none" stroke="#000000" points="515,-682.5 515,-712.5 796,-712.5 796,-682.5 515,-682.5"/>
<text text-anchor="start" x="522" y="-693.9" font-family="Arial" font-size="14.00" fill="#000000">description </text>
<text text-anchor="start" x="593.568" y="-693.9" font-family="Arial" font-size="14.00" fill="#666666">[text]</text>
<polygon fill="none" stroke="#000000" points="515,-652.5 515,-682.5 796,-682.5 796,-652.5 515,-652.5"/>
<text text-anchor="start" x="522" y="-663.9" font-family="Arial" font-size="14.00" fill="#000000">effective_date </text>
<text text-anchor="start" x="613.0378" y="-663.9" font-family="Arial" font-size="14.00" fill="#666666">[timestamp with time zone]</text>
<polygon fill="none" stroke="#000000" stroke-width="3" points="513,-651.5 513,-959.5 797,-959.5 797,-651.5 513,-651.5"/>
</g>
<!-- public.tenant -->
<g id="node3" class="node">
<title>public.tenant</title>
<polygon fill="#efefef" stroke="transparent" points="139,-387.5 139,-422.5 382,-422.5 382,-387.5 139,-387.5"/>
<polygon fill="none" stroke="#000000" points="139,-387.5 139,-422.5 382,-422.5 382,-387.5 139,-387.5"/>
<text text-anchor="start" x="145.6968" y="-400.3" font-family="Arial Bold" font-size="18.00" fill="#000000">public.tenant</text>
<text text-anchor="start" x="247.7352" y="-400.3" font-family="Arial" font-size="14.00" fill="#000000">    </text>
<text text-anchor="start" x="281.94" y="-400.3" font-family="Arial" font-size="14.00" fill="#666666">[BASE TABLE]</text>
<polygon fill="none" stroke="#000000" points="139,-357.5 139,-387.5 382,-387.5 382,-357.5 139,-357.5"/>
<text text-anchor="start" x="146" y="-368.9" font-family="Arial" font-size="14.00" fill="#000000">id    </text>
<text text-anchor="start" x="191.094" y="-368.9" font-family="Arial" font-size="14.00" fill="#666666">[bigint]</text>
<polygon fill="none" stroke="#000000" points="139,-327.5 139,-357.5 382,-357.5 382,-327.5 139,-327.5"/>
<text text-anchor="start" x="146" y="-338.9" font-family="Arial" font-size="14.00" fill="#000000">name    </text>
<text text-anchor="start" x="215.2132" y="-338.9" font-family="Arial" font-size="14.00" fill="#666666">[text]</text>
<polygon fill="none" stroke="#000000" points="139,-297.5 139,-327.5 382,-327.5 382,-297.5 139,-297.5"/>
<text text-anchor="start" x="146" y="-308.9" font-family="Arial" font-size="14.00" fill="#000000">origins    </text>
<text text-anchor="start" x="221.4264" y="-308.9" font-family="Arial" font-size="14.00" fill="#666666">[text[]]</text>
<polygon fill="none" stroke="#000000" points="139,-267.5 139,-297.5 382,-297.5 382,-267.5 139,-267.5"/>
<text text-anchor="start" x="146" y="-278.9" font-family="Arial" font-size="14.00" fill="#000000">cz_ico    </text>
<text text-anchor="start" x="219.8766" y="-278.9" font-family="Arial" font-size="14.00" fill="#666666">[text]</text>
<polygon fill="none" stroke="#000000" points="139,-237.5 139,-267.5 382,-267.5 382,-237.5 139,-237.5"/>
<text text-anchor="start" x="146" y="-248.9" font-family="Arial" font-size="14.00" fill="#000000">cz_dic    </text>
<text text-anchor="start" x="219.8766" y="-248.9" font-family="Arial" font-size="14.00" fill="#666666">[text]</text>
<polygon fill="none" stroke="#000000" points="139,-207.5 139,-237.5 382,-237.5 382,-207.5 139,-207.5"/>
<text text-anchor="start" x="146" y="-218.9" font-family="Arial" font-size="14.00" fill="#000000">address    </text>
<text text-anchor="start" x="229.9958" y="-218.9" font-family="Arial" font-size="14.00" fill="#666666">[address_domain]</text>
<polygon fill="none" stroke="#000000" points="139,-177.5 139,-207.5 382,-207.5 382,-177.5 139,-177.5"/>
<text text-anchor="start" x="146" y="-188.9" font-family="Arial" font-size="14.00" fill="#000000">description    </text>
<text text-anchor="start" x="247.8822" y="-188.9" font-family="Arial" font-size="14.00" fill="#666666">[text]</text>
<polygon fill="none" stroke="#000000" points="139,-147.5 139,-177.5 382,-177.5 382,-147.5 139,-147.5"/>
<text text-anchor="start" x="146" y="-158.9" font-family="Arial" font-size="14.00" fill="#000000">bank_account    </text>
<text text-anchor="start" x="267.3562" y="-158.9" font-family="Arial" font-size="14.00" fill="#666666">[text]</text>
</g>
<!-- public.transaction&#45;&gt;public.tenant -->
<g id="edge2" class="edge">
<title>public.transaction:tenant_id&#45;&gt;public.tenant:id</title>
<path fill="none" stroke="#000000" d="M504.7191,-877.1741C378.8787,-868.877 468.9425,-703.8013 434,-571 410.7936,-482.8028 473.1991,-372.5 382,-372.5"/>
<polygon fill="#000000" stroke="#000000" points="505.005,-877.1831 514.8574,-881.9977 510.0025,-877.3415 515,-877.5 515,-877.5 515,-877.5 510.0025,-877.3415 515.1426,-873.0023 505.005,-877.1831 505.005,-877.1831"/>
<text text-anchor="start" x="51.0955" y="-887.5" font-family="Arial" font-size="10.00" fill="#000000">FOREIGN KEY (tenant_id) REFERENCES tenant(id) ON UPDATE CASCADE ON DELETE CASCADE</text>
</g>
<!-- public.accounting_period -->
<g id="node4" class="node">
<title>public.accounting_period</title>
<polygon fill="#efefef" stroke="transparent" points="486,-387.5 486,-422.5 826,-422.5 826,-387.5 486,-387.5"/>
<polygon fill="none" stroke="#000000" points="486,-387.5 486,-422.5 826,-422.5 826,-387.5 486,-387.5"/>
<text text-anchor="start" x="492.6859" y="-400.3" font-family="Arial Bold" font-size="18.00" fill="#000000">public.accounting_period</text>
<text text-anchor="start" x="691.7461" y="-400.3" font-family="Arial" font-size="14.00" fill="#000000">    </text>
<text text-anchor="start" x="725.9509" y="-400.3" font-family="Arial" font-size="14.00" fill="#666666">[BASE TABLE]</text>
<polygon fill="none" stroke="#000000" points="486,-357.5 486,-387.5 826,-387.5 826,-357.5 486,-357.5"/>
<text text-anchor="start" x="493" y="-368.9" font-family="Arial" font-size="14.00" fill="#000000">id    </text>
<text text-anchor="start" x="538.094" y="-368.9" font-family="Arial" font-size="14.00" fill="#666666">[bigint]</text>
<polygon fill="none" stroke="#000000" points="486,-327.5 486,-357.5 826,-357.5 826,-327.5 486,-327.5"/>
<text text-anchor="start" x="493" y="-338.9" font-family="Arial" font-size="14.00" fill="#000000">tenant_id    </text>
<text text-anchor="start" x="584.7882" y="-338.9" font-family="Arial" font-size="14.00" fill="#666666">[bigint]</text>
<polygon fill="none" stroke="#000000" points="486,-297.5 486,-327.5 826,-327.5 826,-297.5 486,-297.5"/>
<text text-anchor="start" x="493" y="-308.9" font-family="Arial" font-size="14.00" fill="#000000">name    </text>
<text text-anchor="start" x="562.2132" y="-308.9" font-family="Arial" font-size="14.00" fill="#666666">[text]</text>
<polygon fill="none" stroke="#000000" points="486,-267.5 486,-297.5 826,-297.5 826,-267.5 486,-267.5"/>
<text text-anchor="start" x="493" y="-278.9" font-family="Arial" font-size="14.00" fill="#000000">since    </text>
<text text-anchor="start" x="559.8766" y="-278.9" font-family="Arial" font-size="14.00" fill="#666666">[timestamp with time zone]</text>
<polygon fill="none" stroke="#000000" points="486,-237.5 486,-267.5 826,-267.5 826,-237.5 486,-237.5"/>
<text text-anchor="start" x="493" y="-248.9" font-family="Arial" font-size="14.00" fill="#000000">until    </text>
<text text-anchor="start" x="552.8738" y="-248.9" font-family="Arial" font-size="14.00" fill="#666666">[timestamp with time zone]</text>
<polygon fill="none" stroke="#000000" points="486,-207.5 486,-237.5 826,-237.5 826,-207.5 486,-207.5"/>
<text text-anchor="start" x="493" y="-218.9" font-family="Arial" font-size="14.00" fill="#000000">range    </text>
<text text-anchor="start" x="562.9958" y="-218.9" font-family="Arial" font-size="14.00" fill="#666666">[tstzrange]</text>
<polygon fill="none" stroke="#000000" points="486,-177.5 486,-207.5 826,-207.5 826,-177.5 486,-177.5"/>
<text text-anchor="start" x="493" y="-188.9" font-family="Arial" font-size="14.00" fill="#000000">created_at    </text>
<text text-anchor="start" x="593.3422" y="-188.9" font-family="Arial" font-size="14.00" fill="#666666">[timestamp with time zone]</text>
<polygon fill="none" stroke="#000000" points="486,-147.5 486,-177.5 826,-177.5 826,-147.5 486,-147.5"/>
<text text-anchor="start" x="493" y="-158.9" font-family="Arial" font-size="14.00" fill="#000000">updated_at    </text>
<text text-anchor="start" x="597.2468" y="-158.9" font-family="Arial" font-size="14.00" fill="#666666">[timestamp with time zone]</text>
</g>
<!-- public.transaction&#45;&gt;public.accounting_period -->
<g id="edge3" class="edge">
<title>public.transaction:accounting_period_id&#45;&gt;public.accounting_period:id</title>
<path fill="none" stroke="#000000" d="M806.1368,-847.0096C899.6231,-837.5646 851.9362,-693.8923 796,-607 714.0714,-479.7305 567.9286,-593.2695 486,-466 463.5067,-431.0584 444.4444,-372.5 486,-372.5"/>
<polygon fill="#000000" stroke="#000000" points="805.9883,-847.0167 795.7825,-843.0053 800.9942,-847.2583 796,-847.5 796,-847.5 796,-847.5 800.9942,-847.2583 796.2175,-851.9947 805.9883,-847.0167 805.9883,-847.0167"/>
<text text-anchor="start" x="802.5865" y="-857.5" font-family="Arial" font-size="10.00" fill="#000000">FOREIGN KEY (accounting_period_id) REFERENCES accounting_period(id)</text>
</g>
<!-- public.payment -->
<g id="node5" class="node">
<title>public.payment</title>
<polygon fill="#efefef" stroke="transparent" points="931,-492.5 931,-527.5 1214,-527.5 1214,-492.5 931,-492.5"/>
<polygon fill="none" stroke="#000000" points="931,-492.5 931,-527.5 1214,-527.5 1214,-492.5 931,-492.5"/>
<text text-anchor="start" x="948.2018" y="-505.3" font-family="Arial Bold" font-size="18.00" fill="#000000">public.payment</text>
<text text-anchor="start" x="1069.2302" y="-505.3" font-family="Arial" font-size="14.00" fill="#000000">    </text>
<text text-anchor="start" x="1103.435" y="-505.3" font-family="Arial" font-size="14.00" fill="#666666">[BASE TABLE]</text>
<polygon fill="none" stroke="#000000" points="931,-462.5 931,-492.5 1214,-492.5 1214,-462.5 931,-462.5"/>
<text text-anchor="start" x="938" y="-473.9" font-family="Arial" font-size="14.00" fill="#000000">id    </text>
<text text-anchor="start" x="983.094" y="-473.9" font-family="Arial" font-size="14.00" fill="#666666">[bigint]</text>
<polygon fill="none" stroke="#000000" points="931,-432.5 931,-462.5 1214,-462.5 1214,-432.5 931,-432.5"/>
<text text-anchor="start" x="938" y="-443.9" font-family="Arial" font-size="14.00" fill="#000000">tenant_id    </text>
<text text-anchor="start" x="1029.7882" y="-443.9" font-family="Arial" font-size="14.00" fill="#666666">[bigint]</text>
<polygon fill="none" stroke="#000000" points="931,-402.5 931,-432.5 1214,-432.5 1214,-402.5 931,-402.5"/>
<text text-anchor="start" x="938" y="-413.9" font-family="Arial" font-size="14.00" fill="#000000">accounting_period_id    </text>
<text text-anchor="start" x="1105.2496" y="-413.9" font-family="Arial" font-size="14.00" fill="#666666">[bigint]</text>
<polygon fill="none" stroke="#000000" points="931,-372.5 931,-402.5 1214,-402.5 1214,-372.5 931,-372.5"/>
<text text-anchor="start" x="938" y="-383.9" font-family="Arial" font-size="14.00" fill="#000000">cohort_subscription_id    </text>
<text text-anchor="start" x="1112.2356" y="-383.9" font-family="Arial" font-size="14.00" fill="#666666">[bigint]</text>
<polygon fill="none" stroke="#000000" points="931,-342.5 931,-372.5 1214,-372.5 1214,-342.5 931,-342.5"/>
<text text-anchor="start" x="938" y="-353.9" font-family="Arial" font-size="14.00" fill="#000000">event_registration_id    </text>
<text text-anchor="start" x="1102.1262" y="-353.9" font-family="Arial" font-size="14.00" fill="#666666">[bigint]</text>
<polygon fill="none" stroke="#000000" points="931,-312.5 931,-342.5 1214,-342.5 1214,-312.5 931,-312.5"/>
<text text-anchor="start" x="938" y="-323.9" font-family="Arial" font-size="14.00" fill="#000000">event_instance_id    </text>
<text text-anchor="start" x="1085.0252" y="-323.9" font-family="Arial" font-size="14.00" fill="#666666">[bigint]</text>
<polygon fill="none" stroke="#000000" points="931,-282.5 931,-312.5 1214,-312.5 1214,-282.5 931,-282.5"/>
<text text-anchor="start" x="938" y="-293.9" font-family="Arial" font-size="14.00" fill="#000000">status    </text>
<text text-anchor="start" x="1009.5512" y="-293.9" font-family="Arial" font-size="14.00" fill="#666666">[payment_status]</text>
<polygon fill="none" stroke="#000000" points="931,-252.5 931,-282.5 1214,-282.5 1214,-252.5 931,-252.5"/>
<text text-anchor="start" x="938" y="-263.9" font-family="Arial" font-size="14.00" fill="#000000">variable_symbol    </text>
<text text-anchor="start" x="1073.324" y="-263.9" font-family="Arial" font-size="14.00" fill="#666666">[text]</text>
<polygon fill="none" stroke="#000000" points="931,-222.5 931,-252.5 1214,-252.5 1214,-222.5 931,-222.5"/>
<text text-anchor="start" x="938" y="-233.9" font-family="Arial" font-size="14.00" fill="#000000">specific_symbol    </text>
<text text-anchor="start" x="1070.9888" y="-233.9" font-family="Arial" font-size="14.00" fill="#666666">[text]</text>
<polygon fill="none" stroke="#000000" points="931,-192.5 931,-222.5 1214,-222.5 1214,-192.5 931,-192.5"/>
<text text-anchor="start" x="938" y="-203.9" font-family="Arial" font-size="14.00" fill="#000000">is_auto_credit_allowed    </text>
<text text-anchor="start" x="1114.5708" y="-203.9" font-family="Arial" font-size="14.00" fill="#666666">[boolean]</text>
<polygon fill="none" stroke="#000000" points="931,-162.5 931,-192.5 1214,-192.5 1214,-162.5 931,-162.5"/>
<text text-anchor="start" x="938" y="-173.9" font-family="Arial" font-size="14.00" fill="#000000">tags    </text>
<text text-anchor="start" x="998.6606" y="-173.9" font-family="Arial" font-size="14.00" fill="#666666">[text[]]</text>
<polygon fill="none" stroke="#000000" points="931,-132.5 931,-162.5 1214,-162.5 1214,-132.5 931,-132.5"/>
<text text-anchor="start" x="938" y="-143.9" font-family="Arial" font-size="14.00" fill="#000000">due_at    </text>
<text text-anchor="start" x="1015.0084" y="-143.9" font-family="Arial" font-size="14.00" fill="#666666">[timestamp with time zone]</text>
<polygon fill="none" stroke="#000000" points="931,-102.5 931,-132.5 1214,-132.5 1214,-102.5 931,-102.5"/>
<text text-anchor="start" x="938" y="-113.9" font-family="Arial" font-size="14.00" fill="#000000">paid_at    </text>
<text text-anchor="start" x="1018.115" y="-113.9" font-family="Arial" font-size="14.00" fill="#666666">[timestamp with time zone]</text>
<polygon fill="none" stroke="#000000" points="931,-72.5 931,-102.5 1214,-102.5 1214,-72.5 931,-72.5"/>
<text text-anchor="start" x="938" y="-83.9" font-family="Arial" font-size="14.00" fill="#000000">created_at    </text>
<text text-anchor="start" x="1038.3422" y="-83.9" font-family="Arial" font-size="14.00" fill="#666666">[timestamp with time zone]</text>
<polygon fill="none" stroke="#000000" points="931,-42.5 931,-72.5 1214,-72.5 1214,-42.5 931,-42.5"/>
<text text-anchor="start" x="937.5344" y="-53.9" font-family="Arial" font-size="14.00" fill="#000000">updated_at    </text>
<text text-anchor="start" x="1041.7812" y="-53.9" font-family="Arial" font-size="14.00" fill="#666666">[timestamp with time zone]</text>
</g>
<!-- public.transaction&#45;&gt;public.payment -->
<g id="edge4" class="edge">
<title>public.transaction:payment_id&#45;&gt;public.payment:id</title>
<path fill="none" stroke="#000000" d="M805.0068,-812.4299C844.3408,-770.135 893.2906,-477.5 931,-477.5"/>
<polygon fill="#000000" stroke="#000000" points="804.7142,-812.5946 793.7925,-813.5786 800.3571,-815.0473 796,-817.5 796,-817.5 796,-817.5 800.3571,-815.0473 798.2075,-821.4214 804.7142,-812.5946 804.7142,-812.5946"/>
<text text-anchor="start" x="802.5455" y="-827.5" font-family="Arial" font-size="10.00" fill="#000000">FOREIGN KEY (payment_id) REFERENCES payment(id) ON UPDATE CASCADE ON DELETE CASCADE</text>
</g>
<!-- public.posting -->
<g id="node2" class="node">
<title>public.posting</title>
<polygon fill="#efefef" stroke="transparent" points="514,-1322.5 514,-1357.5 797,-1357.5 797,-1322.5 514,-1322.5"/>
<polygon fill="none" stroke="#000000" points="514,-1322.5 514,-1357.5 797,-1357.5 797,-1322.5 514,-1322.5"/>
<text text-anchor="start" x="536.7008" y="-1335.3" font-family="Arial Bold" font-size="18.00" fill="#000000">public.posting</text>
<text text-anchor="start" x="646.7312" y="-1335.3" font-family="Arial" font-size="14.00" fill="#000000">    </text>
<text text-anchor="start" x="680.936" y="-1335.3" font-family="Arial" font-size="14.00" fill="#666666">[BASE TABLE]</text>
<polygon fill="none" stroke="#000000" points="514,-1292.5 514,-1322.5 797,-1322.5 797,-1292.5 514,-1292.5"/>
<text text-anchor="start" x="521" y="-1303.9" font-family="Arial" font-size="14.00" fill="#000000">id    </text>
<text text-anchor="start" x="566.094" y="-1303.9" font-family="Arial" font-size="14.00" fill="#666666">[bigint]</text>
<polygon fill="none" stroke="#000000" points="514,-1262.5 514,-1292.5 797,-1292.5 797,-1262.5 514,-1262.5"/>
<text text-anchor="start" x="521" y="-1273.9" font-family="Arial" font-size="14.00" fill="#000000">tenant_id    </text>
<text text-anchor="start" x="612.7882" y="-1273.9" font-family="Arial" font-size="14.00" fill="#666666">[bigint]</text>
<polygon fill="none" stroke="#000000" points="514,-1232.5 514,-1262.5 797,-1262.5 797,-1232.5 514,-1232.5"/>
<text text-anchor="start" x="521" y="-1243.9" font-family="Arial" font-size="14.00" fill="#000000">transaction_id    </text>
<text text-anchor="start" x="642.338" y="-1243.9" font-family="Arial" font-size="14.00" fill="#666666">[bigint]</text>
<polygon fill="none" stroke="#000000" points="514,-1202.5 514,-1232.5 797,-1232.5 797,-1202.5 514,-1202.5"/>
<text text-anchor="start" x="521" y="-1213.9" font-family="Arial" font-size="14.00" fill="#000000">account_id    </text>
<text text-anchor="start" x="622.8976" y="-1213.9" font-family="Arial" font-size="14.00" fill="#666666">[bigint]</text>
<polygon fill="none" stroke="#000000" points="514,-1172.5 514,-1202.5 797,-1202.5 797,-1172.5 514,-1172.5"/>
<text text-anchor="start" x="521" y="-1183.9" font-family="Arial" font-size="14.00" fill="#000000">original_account_id    </text>
<text text-anchor="start" x="675.791" y="-1183.9" font-family="Arial" font-size="14.00" fill="#666666">[bigint]</text>
<polygon fill="none" stroke="#000000" points="514,-1142.5 514,-1172.5 797,-1172.5 797,-1142.5 514,-1142.5"/>
<text text-anchor="start" x="521" y="-1153.9" font-family="Arial" font-size="14.00" fill="#000000">amount    </text>
<text text-anchor="start" x="601.8864" y="-1153.9" font-family="Arial" font-size="14.00" fill="#666666">[numeric(19,4)]</text>
<polygon fill="none" stroke="#000000" points="514,-1112.5 514,-1142.5 797,-1142.5 797,-1112.5 514,-1112.5"/>
<text text-anchor="start" x="521" y="-1123.9" font-family="Arial" font-size="14.00" fill="#000000">created_at    </text>
<text text-anchor="start" x="621.3422" y="-1123.9" font-family="Arial" font-size="14.00" fill="#666666">[timestamp with time zone]</text>
<polygon fill="none" stroke="#000000" points="514,-1082.5 514,-1112.5 797,-1112.5 797,-1082.5 514,-1082.5"/>
<text text-anchor="start" x="520.5344" y="-1093.9" font-family="Arial" font-size="14.00" fill="#000000">updated_at    </text>
<text text-anchor="start" x="624.7812" y="-1093.9" font-family="Arial" font-size="14.00" fill="#666666">[timestamp with time zone]</text>
</g>
<!-- public.posting&#45;&gt;public.transaction -->
<g id="edge1" class="edge">
<title>public.posting:transaction_id&#45;&gt;public.transaction:id</title>
<path fill="none" stroke="#000000" d="M503.6256,-1246.9485C363.0176,-1231.7493 367.4299,-907.5 515,-907.5"/>
<polygon fill="#000000" stroke="#000000" points="504.0141,-1246.969 513.7611,-1251.9937 509.0071,-1247.2345 514,-1247.5 514,-1247.5 514,-1247.5 509.0071,-1247.2345 514.2389,-1243.0063 504.0141,-1246.969 504.0141,-1246.969"/>
<text text-anchor="start" x="6.9885" y="-1257.5" font-family="Arial" font-size="10.00" fill="#000000">FOREIGN KEY (transaction_id) REFERENCES transaction(id) ON UPDATE CASCADE ON DELETE CASCADE</text>
</g>
</g>
</svg>
